<svg version="1.1" id="Layer_1" xmlns="http://www.w3.org/2000/svg" xmlns:xlink="http://www.w3.org/1999/xlink" x="0px" y="0px"
	 width="100%" viewBox="0 0 432 448" enable-background="new 0 0 432 448" xml:space="preserve">
<path fill="#000000" opacity="1.000000" stroke="none" 
	d="
M377.917786,228.000000 
	C377.917725,200.200394 377.917725,172.900803 377.917725,145.899475 
	C375.944733,144.746506 374.820343,145.772415 373.703735,146.332825 
	C363.729828,151.338531 353.830566,156.495651 343.803375,161.391113 
	C340.313538,163.094940 339.218323,165.443329 339.235352,169.276581 
	C339.377533,201.270309 339.231567,233.265442 339.412140,265.258789 
	C339.436951,269.658539 338.089966,272.133545 334.220093,274.333466 
	C300.478241,293.514984 266.863159,312.919464 233.192291,332.226044 
	C231.806198,333.020813 230.589066,334.405731 227.838348,333.840088 
	C227.838348,326.640503 227.727402,319.262299 227.903717,311.890961 
	C227.959000,309.580383 230.351959,308.896729 232.045807,307.941406 
	C259.179901,292.637909 286.272736,277.259094 313.539246,262.194794 
	C318.058380,259.698029 319.858276,256.990021 319.789246,251.720291 
	C319.483643,228.395035 319.670624,205.063522 319.627716,181.734360 
	C319.624176,179.798904 320.167603,177.742340 318.924988,175.883255 
	C316.904388,175.115646 315.380768,176.398315 313.820862,177.191025 
	C293.774170,187.378311 273.782654,197.675049 253.686401,207.763168 
	C250.389221,209.418304 249.205811,211.473923 249.233871,215.129517 
	C249.389893,235.458099 249.217316,255.789322 249.399628,276.117462 
	C249.434265,279.979553 248.272675,282.267578 244.757538,283.931427 
	C239.400604,286.466980 234.256760,289.452820 229.125000,292.192688 
	C227.147171,290.225800 227.700058,288.296448 227.697662,286.568085 
	C227.658279,258.239807 227.755463,229.910889 227.578659,201.583649 
	C227.552750,197.433060 229.078506,195.330917 232.656631,193.554977 
	C285.328522,167.412262 337.940521,141.149017 390.582306,114.945572 
	C392.161255,114.159622 393.677246,112.882332 395.713684,113.466591 
	C396.729309,115.353096 396.324463,117.387672 396.325134,119.344788 
	C396.344849,179.334229 396.312500,239.323715 396.390076,299.313080 
	C396.395020,303.122772 395.590607,305.725769 392.025330,307.910950 
	C338.907776,340.467590 285.886200,373.180847 232.829086,405.836121 
	C231.592224,406.597382 230.425858,407.683289 228.648895,407.438141 
	C227.136139,406.215485 227.704529,404.423706 227.699371,402.870697 
	C227.649033,387.706848 227.759979,372.541840 227.601135,357.379517 
	C227.565002,353.931549 228.703079,351.871582 231.741577,350.246460 
	C237.251404,347.299591 242.561005,343.978424 248.999084,340.200287 
	C248.999084,350.792389 248.999084,360.012726 248.999084,369.343842 
	C251.811264,369.866486 253.307434,368.301086 254.878342,367.357086 
	C294.289764,343.672577 333.640869,319.887512 373.092010,296.269470 
	C376.695190,294.112396 378.024963,291.672241 377.982361,287.486206 
	C377.782135,267.825958 377.908234,248.162384 377.917786,228.000000 
z"/>
<path fill="#000000" opacity="1.000000" stroke="none" 
	d="
M69.121765,121.748901 
	C116.410423,145.311996 163.299332,168.844833 210.379807,191.987885 
	C216.490402,194.991653 218.612991,198.387756 218.499680,205.211960 
	C218.057083,231.863724 218.333588,258.527222 218.301254,285.186340 
	C218.298691,287.300781 218.770477,289.505249 217.291031,292.179169 
	C210.479492,289.257111 204.015549,285.656006 197.849823,281.547211 
	C195.962921,280.289764 196.714233,277.847961 196.710541,275.909027 
	C196.672440,255.914749 196.574585,235.919235 196.776367,215.926941 
	C196.819092,211.692703 195.482193,209.328094 191.651352,207.409149 
	C171.250244,197.189819 150.981491,186.706253 130.662140,176.323532 
	C129.516357,175.738068 128.473846,174.736389 126.972702,175.221985 
	C125.891975,176.536514 126.350410,178.094101 126.348869,179.531082 
	C126.322403,204.190735 126.418068,228.850998 126.252159,253.509552 
	C126.225899,257.412445 127.641251,259.462860 130.958847,261.310669 
	C158.315750,276.547821 185.532669,292.036591 212.913101,307.230896 
	C216.917709,309.453186 218.754639,311.920654 218.419342,316.598022 
	C218.007584,322.342072 218.321091,328.138123 218.321091,333.697693 
	C215.716309,334.528198 214.472153,333.155884 213.088242,332.363922 
	C179.549606,313.170319 146.059296,293.891846 112.454796,274.814453 
	C108.180992,272.388184 106.526985,269.622162 106.567612,264.572479 
	C106.822281,232.916824 106.629715,201.257782 106.772636,169.600723 
	C106.790688,165.601517 105.686073,163.187042 101.960678,161.400391 
	C92.352768,156.792557 82.929314,151.800598 73.419762,146.986603 
	C72.119873,146.328583 70.855339,145.447617 69.327957,145.604858 
	C67.627663,147.187103 68.152405,149.130219 68.151474,150.877441 
	C68.127068,196.697769 68.166313,242.518143 68.092941,288.338348 
	C68.087608,291.668335 68.970772,293.828522 71.987900,295.638977 
	C112.265808,319.807800 152.468384,344.102203 192.696808,368.353516 
	C193.669693,368.940002 194.724030,369.391418 196.609116,370.345551 
	C196.609116,360.396332 196.609116,351.050201 196.609116,340.535095 
	C204.526276,344.371918 211.069595,348.140747 217.319626,352.435211 
	C218.369888,353.156830 218.298309,354.494171 218.297852,355.663788 
	C218.291321,372.325226 218.281174,388.986633 218.239685,405.648010 
	C218.238174,406.253662 217.906921,406.858459 217.760101,407.358856 
	C215.847366,407.973694 214.682571,406.844116 213.448227,406.084290 
	C160.258469,373.343323 107.092903,340.562958 53.857117,307.897034 
	C50.769432,306.002380 49.583504,303.880859 49.588829,300.287689 
	C49.678703,239.638275 49.650589,178.988724 49.666695,118.339188 
	C49.667130,116.703323 49.372200,115.003166 50.743820,112.645691 
	C56.708576,115.605995 62.744999,118.601868 69.121765,121.748901 
z"/>
<path fill="#000000" opacity="1.000000" stroke="none" 
	d="
M253.929504,49.935452 
	C298.981445,67.767464 343.674744,85.458717 388.203644,103.084915 
	C388.135284,105.698761 386.402496,105.912010 385.143005,106.522827 
	C332.395355,132.103851 279.629913,157.648254 226.906189,183.278473 
	C224.058945,184.662582 221.729370,184.575562 218.922684,183.189117 
	C167.549530,157.811783 116.133469,132.521347 64.742668,107.179733 
	C63.166653,106.402580 61.259693,105.980515 60.332500,104.097298 
	C61.080791,102.040558 63.111580,101.869690 64.699516,101.188957 
	C114.441727,79.865143 164.206604,58.594173 213.929672,37.225895 
	C216.599960,36.078350 218.863190,36.011631 221.530945,37.096184 
	C232.172882,41.422554 242.884796,45.576763 253.929504,49.935452 
M139.149155,90.401703 
	C136.120926,89.003868 133.299759,87.682571 129.697998,89.357826 
	C120.494957,93.638390 111.102623,97.510460 101.832146,101.649284 
	C100.471550,102.256737 98.492332,102.307648 98.078987,104.595009 
	C99.394753,105.312317 100.666252,106.081688 101.999924,106.721474 
	C140.727554,125.299706 179.479156,143.828201 218.164093,162.494827 
	C221.659012,164.181229 224.452103,163.395233 227.590073,161.897018 
	C266.053650,143.532867 304.547913,125.232986 343.018616,106.883690 
	C344.455017,106.198563 346.203644,105.831429 346.967590,104.110031 
	C346.309937,102.426292 344.649384,102.280251 343.336517,101.745232 
	C332.395905,97.286636 321.357452,93.058777 310.509583,88.387207 
	C306.796417,86.788155 303.795685,86.948242 300.193024,88.635414 
	C274.264008,100.778267 248.232361,112.701744 222.277771,124.790352 
	C219.489960,126.088806 217.147034,126.215691 214.275757,124.886887 
	C189.499023,113.420456 164.654572,102.100319 139.149155,90.401703 
M260.990173,88.406303 
	C268.295898,85.048126 275.601593,81.689957 283.593964,78.016151 
	C281.934326,77.117065 281.243042,76.653023 280.487823,76.346519 
	C260.764099,68.341408 241.022278,60.380665 221.320557,52.321838 
	C219.122437,51.422710 217.253510,51.548401 215.138412,52.473198 
	C196.089905,60.801838 177.007721,69.053467 157.956024,77.374847 
	C156.851334,77.857353 155.291687,78.034676 155.142410,80.030128 
	C155.896759,80.488945 156.680786,81.090714 157.558746,81.481445 
	C176.402512,89.867958 195.277130,98.185677 214.087967,106.645248 
	C217.032867,107.969620 219.502884,107.340736 222.162109,106.119614 
	C234.861038,100.288300 247.584442,94.510262 260.990173,88.406303 
z"/>
</svg>