<?xml version="1.0" encoding="UTF-8"?>
<svg id="Layer_1" xmlns="http://www.w3.org/2000/svg" version="1.1" viewBox="0 0 284.22 185.49">
  <!-- Generator: Adobe Illustrator 30.1.0, SVG Export Plug-In . SVG Version: 2.1.1 Build 136)  -->
  <defs>
    <style>
      .st0 {
        fill: #231f20;
      }
    </style>
  </defs>
  <path class="st0" d="M142.38,110.33c0,1.87-.18,3.14-.36,3.74-.36,1.25-.9,1.86-1.75,2.58-.73.61-1.33.67-1.33,1.08,0,.07.06.12.24.12.05,0,1.21-.36,2.52-1.38,1.09-.79,1.87-1.57,2.35-2.66.42-.9.6-2.17.6-3.79v-2.36c-.72-.23-1.5-.66-2.29-1.2v3.85Z"/>
  <path class="st0" d="M146.12,112.87h2.46l.31-.78c-.54.23-1.08.36-1.69.36h-.19v-1.8c.43.05.79.11,1.03.23l.42-.72h-1.45v-1.62h.07c.49,0,.9.05,1.2.23l.36-.78h-2.52c.11.42.17.84.17,1.27v2.34c0,.48-.06.91-.17,1.27"/>
  <path class="st0" d="M148.88,107.98c.25.36.36.78.55,1.38l.9,3.5h.53l.91-2.9.96,2.9h.6l.91-3.43c.12-.42.23-.9.48-1.45h-1.08c0,.18.05.36.05.48,0,.24-.05.54-.12.84l-.61,2.29-1.14-3.68-1.14,3.68-.6-2.47c0-.24-.06-.42-.06-.6,0-.19.06-.37.06-.55h-1.21Z"/>
  <path class="st0" d="M162.49,108.58c.3,0,.6.12.79.43v-.91c-.3-.06-.54-.12-.79-.12-.84,0-1.44.6-1.44,1.45,0,.6.29.9.84,1.26.55.3.91.49.91,1.03,0,.36-.24.6-.66.6-.36,0-.72-.23-.9-.66v1.14c.24.07.48.12.72.12,1.09,0,1.62-.54,1.62-1.39,0-.36-.05-.66-.29-.84-.24-.25-.48-.37-.73-.54-.48-.3-.78-.47-.78-.9,0-.37.3-.67.72-.67"/>
  <path class="st0" d="M154.96,112.87h2.47l.3-.78c-.54.23-1.08.36-1.68.36h-.18v-1.8c.48.05.79.11,1.02.23l.42-.72h-1.44v-1.62h.06c.54,0,.9.05,1.2.23l.42-.78h-2.58c.12.42.18.84.18,1.27v2.34c0,.48-.06.91-.18,1.27"/>
  <path class="st0" d="M158.15,112.87h2.35c.06-.25.18-.55.36-.9-.48.24-1.08.42-1.8.48v-3.19c0-.43.06-.85.18-1.27h-1.09c.12.42.19.84.19,1.27v2.34c0,.48-.07.91-.19,1.27"/>
  <path class="st0" d="M141.77,68.96c.42.9,1.32,1.2,2.17.73,1.44-.79,1.92-3.26.9-6.81-.18.12-.36.19-.54.24-2.83,1.57-3.43,3.97-2.53,5.84"/>
  <path class="st0" d="M165.26,121.32c.42-.6.77-1.26,1.08-1.92.31-.67.61-1.33.84-1.99.25-.67.48-1.39.66-2.06.18-.66.36-1.39.49-2.11.12-.66.24-1.32.3-2.06.06-.67.12-1.33.12-2.05.06-.67.06-1.33,0-1.99v-1.09c0-.3-.06-.54-.06-.85-.06-.6-.12-1.2-.17-1.87-.06-.61-.18-1.21-.31-1.81-.05-.54-.17-1.15-.29-1.7-.13-.6-.25-1.14-.43-1.68-.12-.55-.3-1.09-.42-1.63-.17-.55-.3-1.03-.47-1.57-.18-.48-.36-.97-.55-1.52-.17-.48-.42-.95-.6-1.44-.17-.49-.42-.97-.61-1.4-.17-.47-.42-.96-.65-1.38-.18-.49-.42-.91-.66-1.34-.24-.47-.48-.9-.72-1.32-.25-.42-.49-.9-.73-1.32-.3-.43-.54-.85-.79-1.27-.31-.42-.61-.8-.85-1.21h0c-.29-.42-.59-.84-.9-1.26-.3-.36-.6-.79-.9-1.21-.31-.36-.61-.79-.97-1.2-.31-.35-.66-.79-1.02-1.15-.36-.43-.73-.85-1.09-1.21-.36-.43-.72-.78-1.14-1.15-.34-.38-1.07-1.07-1.84-1.75-.77-.68-1.57-1.35-2.02-1.68v.05c1.33,1.15,2.51,2.37,3.8,3.5.36.42.72.84,1.09,1.2.36.43.73.85,1.02,1.22.36.42.66.84.96,1.26.36.35.66.79.91,1.21.31.42.61.84.91,1.2.24.42.55.84.79,1.27.24.42.54.83.78,1.27.24.42.48.83.73,1.26.25.42.42.84.66,1.26.25.43.42.84.67,1.28.18.48.36.9.61,1.32.18.48.35.9.54,1.38.18.43.36.91.54,1.39.18.43.3.91.48,1.4.12.47.31.96.42,1.43.18.49.31.97.43,1.51.12.49.23,1.02.36,1.5.06.55.18,1.1.3,1.58.06.54.13,1.09.18,1.62.12.61.19,1.15.19,1.69.05.36.05.73.05,1.03,0,.24,0,.47.06.72,0,.61,0,1.21-.06,1.75,0,.6-.05,1.21-.13,1.81-.06.6-.12,1.26-.23,1.81-.06.66-.25,1.27-.36,1.87-.19.61-.36,1.21-.54,1.8-.25.61-.49,1.21-.73,1.82-.3.6-.6,1.14-.91,1.69-.36.53-.72,1.08-1.14,1.57-.36.54-.84,1.02-1.26,1.44-.48.49-.97.91-1.51,1.28-.48.36-1.02.72-1.64,1.02-.54.31-1.14.61-1.74.85-.6.19-1.21.36-1.87.54-.61.13-1.26.24-1.93.31-.6.06-1.26.06-1.93.06-.66-.06-1.26-.13-1.93-.18-.6-.05-1.26-.18-1.86-.36-.61-.12-1.21-.3-1.81-.48-.43-.12-.85-.25-1.27-.42-.18-.06-.31-.12-.47-.19-.55-.24-1.09-.47-1.63-.72-.48-.24-1.02-.47-1.5-.78-.49-.24-.97-.54-1.46-.85-.48-.3-.9-.54-1.31-.9-.43-.24-.85-.55-1.28-.91-.42-.31-.77-.61-1.2-.91-.36-.3-.72-.6-1.09-.97-.35-.3-.72-.61-1.02-.91-.36-.3-.66-.65-.96-.96-.36-.31-.66-.66-.97-.96-.23-.3-.54-.6-.84-.97-.3-.29-.54-.6-.83-.95-.25-.31-.49-.61-.79-.97-.24-.3-.48-.6-.72-.96-.25-.3-.49-.66-.73-.96-.25-.36-.48-.66-.66-1.03-.25-.3-.48-.66-.67-1.02-.24-.3-.42-.66-.66-1.02-.18-.3-.42-.67-.61-1.03-.23-.35-.41-.72-.6-1.09-.18-.35-.36-.72-.61-1.08-.18-.42-.36-.78-.54-1.14-.19-.43-.36-.78-.54-1.21-.18-.42-.36-.83-.48-1.26-.19-.43-.36-.84-.54-1.27-.13-.42-.31-.9-.42-1.32-.19-.48-.36-.96-.48-1.39-.13-.54-.3-1.03-.43-1.5-.12-.55-.24-1.03-.36-1.58-.11-.55-.18-1.09-.3-1.63-.12-.54-.18-1.14-.24-1.69-.13-.6-.18-1.2-.18-1.81-.07-.36-.07-.72-.07-1.08-.05-.31-.05-.54-.05-.8,0-.66,0-1.33.05-1.99,0-.66.07-1.33.12-1.99.13-.72.25-1.38.36-2.05.12-.72.3-1.38.48-2.04.25-.73.48-1.39.73-2.04.3-.67.6-1.34.97-1.94.36-.61.77-1.21,1.19-1.8.43-.55.91-1.1,1.45-1.64.47-.48,1.03-.96,1.63-1.39.61-.36,1.2-.79,1.81-1.09.66-.31,1.32-.6,1.99-.79.66-.23,1.38-.41,2.1-.53.67-.12,1.39-.18,2.11-.18h1.33c-.42-.07-.9-.07-1.33-.07-.72-.06-1.44,0-2.17.07-.79.06-1.51.12-2.17.3-.79.13-1.45.3-2.18.54-.66.3-1.33.54-2,.91-.67.3-1.26.72-1.87,1.14-.6.42-1.2.85-1.75,1.39-.48.48-1.02,1.02-1.5,1.57-.43.55-.91,1.15-1.26,1.81-.43.6-.79,1.21-1.09,1.87-.3.66-.6,1.33-.84,2.05-.24.66-.48,1.33-.66,2.05-.18.65-.36,1.34-.49,2.06h0s0,.02,0,.03c0,0,0,0,0,0h0c-.11.65-.23,1.36-.29,2.01-.05.67-.12,1.39-.12,2.06-.06.66-.06,1.33-.06,1.99.06.35.06.72.06,1.14,0,.24.07.54.07.79.05.6.12,1.27.17,1.86.06.61.18,1.22.24,1.81.13.55.24,1.15.36,1.75.22,1.01.52,2.29.84,3.27.18.54.3,1.02.48,1.58.18.47.36,1.01.54,1.5.18.48.36.97.61,1.45.18.48.36.97.6,1.45.19.42.42.9.66,1.39.18.43.43.84.66,1.33.5.84.96,1.72,1.45,2.58.31.43.55.85.79,1.26.3.43.54.86.84,1.28.3.36.6.79.9,1.21.31.42.61.84.92,1.21.3.42.61.83.96,1.2.3.44.66.79,1.02,1.22.36.36.72.79,1.09,1.14.36.43.73.79,1.14,1.2.36.37.8.79,1.2,1.15.43.35.85.78,1.28,1.14.48.36.9.72,1.39,1.08.48.36.97.72,1.45,1.1.55.36,1.09.72,1.57,1.03.53.36,1.14.65,1.68,1.02.55.3,1.15.6,1.76.9.6.3,1.25.54,1.87.79.54.23,1.09.42,1.69.6.06.05.18.05.31.11.66.25,1.32.43,2.06.55.72.18,1.38.3,2.1.41.72.07,1.45.13,2.18.19.72,0,1.44,0,2.17-.07.78-.06,1.5-.17,2.17-.3.77-.18,1.45-.36,2.16-.6.67-.25,1.33-.54,2-.85.66-.36,1.27-.72,1.87-1.14.61-.42,1.2-.9,1.75-1.39.54-.48,1.03-1.01,1.51-1.63.42-.53.91-1.13,1.28-1.74"/>
  <path class="st0" d="M131.13,59.51c.17.08.36.11.59.11.22,0,.44-.04.65-.17.29-.19.38-.47.38-.71,0-.39-.17-.67-.67-1.03l-.11-.09c-.34-.26-.43-.4-.43-.58,0-.24.18-.42.48-.42.26,0,.38.12.44.2.09.11.11.23.11.27,0,.05.01.07.04.07.03,0,.04-.03.04-.12,0-.32.02-.43.02-.49,0-.03-.02-.04-.06-.05-.11-.03-.28-.07-.54-.07-.56,0-.94.32-.94.77,0,.33.15.61.6.96l.19.15c.34.26.4.45.4.65,0,.22-.18.46-.54.46-.25,0-.49-.11-.58-.41-.02-.07-.04-.15-.04-.21,0-.03,0-.07-.04-.07-.03,0-.04.04-.05.11,0,.06-.02.31-.02.53,0,.09.01.11.08.14"/>
  <path class="st0" d="M138.72,59.23c.32.27.74.37,1.23.37.23,0,.5-.02.65-.08.06-.02.08-.04.09-.1.04-.12.08-.42.08-.46,0-.03-.02-.06-.04-.06-.03,0-.04.02-.04.07-.01.06-.06.16-.12.23-.14.16-.32.18-.63.18-.48,0-1.11-.39-1.11-1.21,0-.34.06-.67.33-.9.16-.14.36-.19.67-.19.33,0,.57.09.69.2.09.09.13.21.14.32,0,.04,0,.07.04.07.03,0,.04-.04.05-.09,0-.07,0-.26.01-.37,0-.12.02-.16.02-.19,0-.02-.01-.04-.05-.04-.11-.01-.22-.04-.36-.06-.16-.02-.3-.04-.52-.04-.53,0-.87.14-1.13.37-.34.3-.42.71-.42.95,0,.33.09.72.45,1.02"/>
  <path class="st0" d="M133.38,57.02s.09,0,.13.02c.08.02.11.06.12.18,0,.11,0,.21,0,.73v.61c0,.33,0,.61-.02.75-.01.1-.03.15-.11.17-.03,0-.07.01-.13.01-.04,0-.06.02-.06.04,0,.02.02.04.07.04.14,0,.39-.01.47-.01.1,0,.34.01.58.01.04,0,.07-.01.07-.04,0-.02-.02-.04-.06-.04-.05,0-.13,0-.18-.01-.11-.02-.13-.07-.14-.16-.02-.15-.02-.42-.02-.75v-.61c0-.52,0-.62,0-.73,0-.12.04-.17.13-.19.04,0,.07-.01.11-.01s.06,0,.06-.04c0-.02-.03-.03-.07-.03-.14,0-.37,0-.46,0-.1,0-.34,0-.48,0-.06,0-.09,0-.09.03,0,.03.02.04.06.04"/>
  <path class="st0" d="M141.22,57.02c.05,0,.11,0,.14.01.11.03.15.07.15.19,0,.11,0,.21,0,.73v.61c0,.32,0,.59-.02.73-.01.1-.03.17-.11.18-.03,0-.07.01-.13.01-.04,0-.06.02-.06.04,0,.02.02.04.07.04.07,0,.16,0,.25,0,.09,0,.16,0,.2,0,.11,0,.24,0,.41,0,.17,0,.39.01.66.01.13,0,.17,0,.19-.09.02-.07.05-.3.05-.38,0-.04,0-.08-.03-.08-.02,0-.03.02-.04.05-.02.14-.06.22-.15.26-.09.04-.24.04-.34.04-.37,0-.48-.05-.48-.29,0-.1,0-.39,0-.51v-.28s0-.04.02-.04c.09,0,.5,0,.56.02.13.01.18.07.2.13,0,.04,0,.09.01.13,0,.02,0,.03.03.03.03,0,.04-.05.04-.08,0-.02,0-.16.02-.23.02-.17.03-.23.03-.25s-.01-.04-.03-.04-.03.02-.06.04c-.04.03-.09.04-.17.05-.08,0-.54,0-.63,0-.02,0-.02-.02-.02-.04v-.85s0-.03.02-.03c.07,0,.5,0,.56.02.18.02.21.06.24.13.02.04.02.1.02.13,0,.03,0,.04.03.04.03,0,.04-.04.04-.06,0-.04.02-.19.02-.23,0-.16.03-.2.03-.22,0-.02,0-.03-.02-.03-.02,0-.04.01-.06.02-.03,0-.09.02-.15.02-.07,0-.86,0-.97,0-.1,0-.33,0-.52,0-.05,0-.08,0-.08.03s.02.04.06.04"/>
  <path class="st0" d="M134.95,59.56c.18,0,.35-.01.39-.01.07,0,.23.01.46.01.05,0,.08,0,.08-.04,0-.02-.02-.04-.06-.04-.06,0-.13,0-.19-.02-.07-.02-.11-.11-.12-.37l-.04-1.41h.01c.07.06.45.48.84.85.37.36.82.79,1.04.99.04.04.09.07.15.07.03,0,.06-.03.06-.11l.04-2.18c0-.19.03-.26.13-.28.04-.01.07-.01.11-.01.04,0,.06-.02.06-.04,0-.03-.03-.03-.08-.03-.17,0-.31,0-.35,0-.08,0-.27,0-.46,0-.05,0-.09,0-.09.03,0,.02.01.04.06.04.05,0,.13,0,.19.02.09.03.12.09.12.3l.04,1.53h-.02c-.05-.05-.53-.54-.77-.78-.52-.51-1.05-1.06-1.1-1.1-.06-.06-.11-.11-.15-.11-.04,0-.06.05-.06.12l-.03,2.05c0,.3-.02.39-.11.42-.05.01-.11.02-.16.02-.03,0-.06.02-.06.04,0,.03.03.04.08.04"/>
  <path class="st0" d="M144.95,57.21s.04,0,.06-.02c.09-.04.39-.19.47-.19.06,0,.06.05.06.15v1.18c0,.39,0,.73-.02.91-.01.13-.03.19-.16.22-.07.02-.28.03-.32.03-.02,0-.03.01-.03.04s.02.04.07.04c.26,0,.6-.01.69-.01.11,0,.37.01.68.01.04,0,.06,0,.06-.04s-.02-.04-.04-.04c-.03,0-.21-.01-.27-.02-.13-.03-.15-.09-.16-.22-.02-.18-.02-.52-.02-.91v-.75c0-.62.02-1.02.02-1.06,0-.04-.01-.09-.05-.09-.03,0-.07.03-.11.05-.14.11-.92.62-.94.63-.02.01-.04.03-.04.06s.02.04.03.04"/>
  <path class="st0" d="M149.76,59.54c.1.05.25.07.38.07.94,0,1.34-.6,1.34-1.14,0-.71-.74-1.04-1.34-1.14l.06-.5h.74c.33,0,.36.11.36.22,0,.03,0,.06.03.06.03,0,.04-.02.04-.05.04-.26.05-.43.05-.52,0-.06,0-.08-.04-.08-.01,0-.04.01-.08.02-.04,0-.11.01-.23.01h-.99s-.07.01-.08.05l-.09,1.07c0,.05.02.07.07.08.32.04,1.03.31,1.03.96,0,.53-.34.74-.67.74-.28,0-.55-.11-.55-.54,0-.04,0-.07-.04-.07-.02,0-.04.03-.04.07-.02.13-.02.38-.02.51,0,.09,0,.12.08.16"/>
  <path class="st0" d="M147.93,58.16c.21,0,.42-.06.54-.19,0,0,.02-.03.02-.04,0-.02-.02-.04-.03-.04s-.04.02-.08.04c-.05.02-.13.05-.28.05s-.54-.15-.54-.77c0-.34.19-.6.49-.6.31,0,.62.32.62,1.04,0,.96-.63,1.62-1.06,1.88-.02.02-.05.04-.05.07,0,.02.02.04.04.04.03,0,.05,0,.07-.02.5-.24,1.5-.95,1.5-2.09,0-.62-.36-1.1-1.02-1.1-.62,0-1.04.4-1.04.95,0,.34.24.78.83.78"/>
  <path class="st0" d="M152.99,59.62c.7,0,1.08-.68,1.08-1.68,0-.65-.22-1.5-1.02-1.5-.75,0-1.08.73-1.08,1.68,0,.58.22,1.5,1.02,1.5M152.97,56.62c.44,0,.63.77.63,1.47,0,.79-.2,1.34-.53,1.34-.45,0-.62-.77-.62-1.47,0-.93.22-1.34.52-1.34Z"/>
  <path class="st0" d="M144.79,85.95v-.98c-.04-4.82-.01-11.13,0-12.8,0-.17-.2-.27-.34-.17l-3.21,2.38-1.17.85c-.06-1.04-.12-1.89-.25-2.51-.17-.85-.49-1.58-.8-2.26-.36-.62-.85-1.1-1.46-1.47-.62-.37-1.3-.55-2.09-.55-.43,0-.85.07-1.28.18-1.34.3-2.8.98-4.32,2.1-.14.1-.23.26-.24.44l-.42,4.86c-.03.32.2.6.51.66h0c.31.05.61-.14.69-.45.46-1.68,1.01-2.98,1.57-3.81.61-.85,1.35-1.35,2.21-1.4h.13c.97,0,1.71.42,2.13,1.28.49.86.73,2.57.8,5.14-.92.62-1.96,1.35-3.06,2.21-.8.61-1.66,1.29-2.58,2.02-.92.73-1.59,1.4-1.96,1.9-.55.73-.92,1.51-1.16,2.5-.31.92-.43,2.02-.43,3.19,0,1.89.37,3.48,1.16,4.71.74,1.28,1.71,1.89,3,1.89.68,0,2.68-.1,5.02-3.91.18,1.42.44,2.45.79,3,.43.62.98.91,1.71.91.04,0,.07,0,.11,0,.49-.03.93-.29,1.24-.67.04-.05.08-.1.13-.17.24-.37.67-1.05,1.29-1.91v10.76c0,.34.16.65.43.85,1.16.88,2.21,1.31,3.31,1.31.73,0,1.47-.11,2.06-.42,1.42-.61,2.64-1.83,3.75-3.61,1.59-2.75,2.39-6.13,2.39-10.1,0-2.02-.18-3.8-.61-5.33-.43-1.54-1.04-2.7-1.84-3.44-.8-.73-1.66-1.09-2.57-1.09-.09,0-.21,0-.25,0-2.67.11-2.91,1.93-3.91,4.02-.12.25-.5.17-.5-.11M137.26,84.55c0,2.26-.12,3.85-.36,4.72-.19.86-.68,1.64-1.47,2.32-.43.43-.86.67-1.22.86-.31.12-.54.18-.8.18-.61,0-1.16-.43-1.59-1.23-.49-.86-.68-1.96-.68-3.36s.25-2.52.86-3.49c.37-.55,1.1-1.36,2.21-2.27.68-.63,1.53-1.3,2.53-2.05.22-.17.53-.01.53.26v4.05ZM142.53,89.66c0,.62-.17,1.24-.5,1.77-.13.21-.3.39-.51.52,0,0-.02.01-.03.02-.13.08-.28.12-.44.12-.31,0-.55-.24-.8-.67-.19-.5-.3-1.53-.3-3.06l.11-10.63c0-.17.08-.33.22-.44l.95-.75.12-.09c.32-.23.76-.1.92.25h0c.12.38.22,1.31.24,2.15v10.81ZM146.82,86.45c.49-.49,1.03-.73,1.51-.79h.13c.98,0,1.78.72,2.46,2.08.66,1.41,1.04,3.48,1.04,6.24,0,3.18-.43,5.58-1.22,7.17-.67,1.22-2.03,2.24-3.18,2.32-.79.05-1.58-.3-2.37-.94-.25-.2-.39-.5-.39-.82v-6.92c0-2.03,0-3.31.06-3.81.12-.79.31-1.65.68-2.5.36-.86.8-1.54,1.29-2.02Z"/>
  <path class="st0" d="M153.08,67.77h.31v-1.05h.36c.08,0,.14,0,.17.01.05.01.1.03.14.06.05.03.1.08.16.16.06.08.13.18.23.33l.31.49h.39l-.41-.65c-.08-.13-.17-.23-.26-.32-.04-.04-.11-.08-.19-.12.23-.03.4-.1.5-.22.11-.12.16-.26.16-.43,0-.13-.03-.25-.1-.36-.07-.11-.15-.18-.26-.23-.11-.04-.27-.06-.48-.06h-1.05v2.37ZM153.39,65.66h.75c.17,0,.3.04.38.11.08.07.12.17.12.28,0,.08-.02.15-.06.21-.04.07-.1.11-.18.14-.08.03-.19.04-.34.04h-.67v-.78Z"/>
  <path class="st0" d="M152.62,65.14c-.37.37-.6.88-.6,1.45s.23,1.08.6,1.45c.37.37.88.6,1.45.6s1.08-.23,1.45-.6c.37-.37.6-.88.6-1.45s-.23-1.08-.6-1.45c-.37-.37-.88-.6-1.45-.6s-1.08.23-1.45.6M155.83,66.59c0,.49-.2.93-.52,1.25-.32.32-.76.52-1.25.52s-.93-.2-1.25-.52c-.32-.32-.52-.76-.52-1.25s.2-.93.52-1.25c.32-.32.76-.52,1.25-.52s.93.2,1.25.52c.32.32.52.76.52,1.25Z"/>
</svg>