<?xml version="1.0" encoding="UTF-8"?>
<svg id="Layer_1" xmlns="http://www.w3.org/2000/svg" version="1.1" viewBox="0 0 284.22 185.49">
  <!-- Generator: Adobe Illustrator 30.1.0, SVG Export Plug-In . SVG Version: 2.1.1 Build 136)  -->
  <defs>
    <style>
      .st0, .st1 {
        fill: #231f20;
      }

      .st1 {
        fill-rule: evenodd;
      }

      .st2 {
        fill: #f5f4ea;
      }
    </style>
  </defs>
  <g>
    <path class="st0" d="M110.04,112.78h0l.78.08c1.07,0,1.96-.26,2.68-.78.72-.52,1.08-1.19,1.08-1.98,0-.44-.14-.84-.42-1.19-.28-.35-.61-.53-.98-.53-.36,0-.78.16-1.26.47-.47.32-.87.71-1.19,1.2-.47.64-.71,1.43-.72,2.37l.03.37ZM110.03,113.56h0c-.05.29-.07.7-.08,1.22,0,1,.17,1.69.51,2.07.13.13.32.24.57.34.25.1.49.15.7.15.37,0,.73-.1,1.06-.3.33-.2.6-.46.81-.8.21-.33.32-.69.32-1.05,0-.31-.08-.6-.24-.87-.16-.28-.37-.49-.64-.65-.35-.17-.83-.27-1.45-.27-.46,0-.98.05-1.56.15ZM110.05,107.77c.05.08.07.19.07.33l.04.15.04.14.33-.11c1.42-.37,3.86-.97,5.27-.24.38.2.68.49.9.86.22.37.32.79.32,1.26,0,.63-.23,1.17-.69,1.62-.46.45-1.22.88-2.28,1.29.77.13,1.3.34,1.59.64.42.38.62.89.62,1.52,0,.53-.16.99-.47,1.39-.31.4-.76.68-1.35.86-1.63.5-3.78.34-5.5.4l-1.07-.04-.33-.04.07-.26c.11-.35.19-.62.23-.82.05-.2.07-.4.07-.59.06-.67.1-1.06.1-1.17.03-.4.05-.74.05-1.01,0-.16,0-.54.02-1.14.01-.6.02-1.13.02-1.57,0-1.12-.03-1.9-.1-2.34-.04-.27-.14-.56-.3-.9l.34-.04.92-.07,1.08-.14Z"/>
    <path class="st0" d="M121.33,105.32l-.08.44c-.07.37-.11.6-.11.67-.01.13-.02.27-.03.43,0,.15-.01.38-.01.69v.74s-.04,1.78-.04,1.78v.29c2.13-1.38,7.53-2.93,9.27-.18.37.58.55,1.25.55,2,0,.62-.14,1.22-.4,1.8-.26.58-.64,1.12-1.13,1.61-.46.5-1.1.92-1.93,1.25-.27.14-.62.28-1.07.44l.78-.07,1.93-.26c.5-.05.92-.09,1.26-.14.34-.04.63-.09.89-.15l-.82,1.22-8.23-.03v-.26c.35,0,.67-.02.96-.06.29-.04.57-.1.86-.17.42-.11.88-.32,1.38-.61.88-.53,1.61-1.2,2.19-2.02.58-.82.87-1.59.87-2.31,0-.51-.12-.99-.36-1.45-.24-.46-.57-.84-.98-1.13-.41-.29-.84-.43-1.29-.44-.31,0-.64.07-.99.21-.35.14-.71.34-1.08.61-.37.27-.72.58-1.05.93-.3.32-.58.69-.85,1.12-.31.51-.54,1.02-.68,1.54-.14.51-.26,1.19-.33,2.04-.08.85-.12,1.51-.12,1.99h-2.41c.21-.89.38-1.89.49-3.01.09-.98.14-1.65.17-2,.02-.35.03-.7.03-1.04l.04-1.44v-1.38c0-.6-.01-1.09-.05-1.48-.04-.39-.1-.71-.17-.97-.05-.16-.1-.32-.16-.48-.06-.16-.14-.34-.23-.55l.37-.04,1.3-.03,1.3-.11Z"/>
    <path class="st0" d="M139.28,109.54c-.83,0-1.69.32-2.57.96-1.39,1.03-2.08,2.28-2.09,3.73,0,.8.24,1.47.74,2,1.52,1.7,3.41,1.33,4.95-.1.44-.41.82-.86,1.13-1.35.33-.52.59-1.01.76-1.47.76-2.02-.68-3.76-2.92-3.77M145.03,108.93c-.3,1.78-.46,3.76-.46,5.94,0,.72.02,1.28.06,1.69.04.41.13.86.25,1.35l-2.34.22c-.06-.34-.1-.59-.12-.75-.02-.15-.02-.3-.02-.45l-.04-.41c-2.06,1.41-6.04,2.32-8.25,1.07-.56-.32-.99-.77-1.3-1.36-.3-.59-.46-1.27-.45-2.04,0-.6.1-1.19.3-1.76.2-.57.48-1.08.85-1.55.36-.46.81-.86,1.35-1.21,1.93-1.25,5.47-.8,7.68-.23l.41.07c.37,0,1.01-.17,1.89-.51l.19-.08Z"/>
    <path class="st0" d="M148.82,114.84h.41c.74,0,1.45-.09,2.15-.29.69-.2,1.31-.48,1.86-.83.54-.35.97-.75,1.28-1.2.31-.45.47-.91.47-1.37,0-.28-.09-.56-.28-.83-.19-.27-.44-.5-.77-.68-.32-.18-.65-.27-.99-.27-.42,0-.89.15-1.4.46-.51.31-.99.73-1.42,1.28-.15.17-.28.35-.4.52-.12.17-.23.34-.32.5-.16.29-.29.64-.39,1.05-.07.31-.12.57-.15.77-.03.2-.04.4-.04.6v.3ZM148.68,109.09l.12.44.07.3.04.15c1.68-.98,5.53-1.83,7.17-.87.33.2.59.47.78.83.19.35.28.75.28,1.18,0,.55-.15,1.08-.44,1.61-.29.52-.7.97-1.24,1.36-.42.25-1.09.52-2,.81.39.14.82.38,1.29.71.66.47,1.11.78,1.35.92.24.14.51.28.84.42.38.14.93.24,1.66.3l.33.04v.41s-.73.07-.73.07l-.76.07-1.08.08-1.03.03c-.31,0-.56-.03-.75-.1-.19-.06-.43-.22-.74-.46-.3-.25-.57-.45-.8-.62-.25-.19-.48-.35-.67-.47-.36-.24-.71-.44-1.05-.59-.31-.13-.64-.22-.97-.28-.15-.02-.34-.05-.58-.06-.23-.02-.47-.03-.72-.03h-.25s-.04.33-.04.33l.03.71.03,1.22.04.37h-2.48c.33-1.3.49-2.76.5-4.39,0-1.4-.08-2.49-.25-3.26-.1-.41-.27-.78-.51-1.11l2.55-.1Z"/>
    <path class="st0" d="M167.14,109.64c-.83,0-1.69.32-2.57.96-1.39,1.03-2.08,2.28-2.09,3.73,0,.8.24,1.47.74,2,1.55,1.73,3.38,1.36,4.95-.1.44-.41.82-.86,1.13-1.35.33-.52.59-1.01.76-1.47.76-2.02-.68-3.76-2.92-3.77M172.89,109.03c-.3,1.78-.46,3.76-.46,5.94,0,.72.02,1.28.06,1.69.04.41.13.86.25,1.35l-2.34.22c-.06-.34-.1-.59-.11-.75-.02-.15-.03-.3-.03-.45l-.03-.41c-.63.43-1.15.73-1.56.88-1.59.6-5.21,1.02-6.69.19-.56-.32-.99-.77-1.3-1.36-.31-.59-.46-1.27-.45-2.04,0-.6.1-1.19.3-1.76.2-.57.48-1.08.85-1.55.36-.46.81-.86,1.34-1.21,1.93-1.25,5.47-.8,7.68-.23l.41.07c.37,0,1.01-.17,1.89-.51l.19-.08Z"/>
    <path class="st0" d="M100.72,109.41c-.83,0-1.69.32-2.57.96-1.39,1.03-2.08,2.28-2.08,3.73,0,.8.24,1.47.73,2,1.52,1.7,3.41,1.33,4.95-.1.44-.41.82-.86,1.13-1.35,1.47-2.28,1.13-5.23-2.16-5.24M106.48,108.79c-.3,1.78-.46,3.76-.46,5.94,0,.72.02,1.28.06,1.69.04.41.13.86.25,1.35l-2.34.22c-.06-.34-.1-.59-.11-.75-.02-.15-.03-.3-.03-.45l-.03-.41c-2.12,1.45-5.95,2.37-8.25,1.07-.56-.32-.99-.77-1.3-1.36-.31-.59-.46-1.27-.45-2.04,0-.6.1-1.19.3-1.76.2-.57.48-1.08.85-1.55.36-.46.81-.86,1.35-1.21,1.93-1.25,5.47-.8,7.68-.23l.41.07c.37,0,1.01-.17,1.89-.51l.19-.08Z"/>
    <path class="st0" d="M176.69,109.16l.11.59.11.6c2.17-1.3,6.08-2.01,8.35-.84.51.26.9.65,1.18,1.14.27.5.41,1.07.41,1.73,0,1.06-.29,2.05-.86,2.97-.22.37-.53.7-.93.98-.19.14-.44.28-.75.44-.3.15-.66.32-1.07.5.4,0,.71,0,.93-.02.22-.01.53-.04.92-.08.4-.04.98-.14,1.74-.29l-.71,1.18-8-.03v-.26c.83,0,1.62-.13,2.38-.4.76-.27,1.44-.65,2.04-1.14.6-.49,1.07-1.05,1.41-1.67.34-.63.52-1.28.52-1.95,0-.81-.28-1.51-.83-2.11-.56-.6-1.29-.9-2.2-.9-.77,0-1.48.23-2.15.71-.33.24-.65.53-.94.87-.3.34-.58.73-.85,1.19-.37.69-.64,1.4-.82,2.15-.18.75-.27,1.6-.27,2.55v.71s.03.26.03.26h-2.44s.07-.38.07-.38l.27-1.48c.03-.12.06-.27.08-.46.02-.18.03-.42.03-.69l.15-1.59.02-.64.03-.62c0-.71-.04-1.26-.13-1.67-.09-.4-.27-.82-.52-1.26h.44s.19,0,.19,0h.15s.13,0,.13,0h.11c.08,0,.18,0,.27,0,.1,0,.21-.01.33-.03h.16s.14,0,.14,0h.12c.28,0,.5-.01.66-.03"/>
    <path class="st0" d="M105.86,106.95l1.29-2.1c-.27.14-8.2,1.77-12.28,1.58l-.12.48,11.1.04Z"/>
    <path class="st1" d="M188.09,107.06h.38c.18,0,.31-.03.37-.08.07-.05.1-.13.1-.22,0-.06-.02-.11-.05-.16-.03-.04-.07-.08-.13-.1-.06-.02-.16-.03-.32-.03h-.36s0,.58,0,.58ZM187.77,108.15v-1.94s.68,0,.68,0c.23,0,.39.02.5.06.1.04.18.1.24.19.06.09.09.18.09.29,0,.14-.05.26-.15.37-.1.11-.24.16-.4.18.07.03.12.06.16.1.08.08.17.21.29.39l.24.38h-.38s-.17-.31-.17-.31c-.13-.24-.24-.39-.32-.45-.06-.05-.14-.07-.25-.07h-.18s0,.82,0,.82h-.32ZM188.58,105.64c-.26,0-.5.06-.74.19-.24.13-.43.31-.56.56-.14.24-.21.49-.21.76,0,.26.07.51.2.75.13.24.32.43.56.56.24.14.49.2.75.2.26,0,.51-.06.75-.2.24-.13.43-.32.56-.56.14-.24.2-.49.2-.75,0-.26-.06-.51-.2-.76-.14-.24-.32-.43-.57-.56-.24-.13-.49-.2-.74-.2ZM188.58,105.31c.31,0,.61.08.91.24.29.16.52.39.69.68.16.3.25.61.25.93,0,.32-.08.62-.25.91-.16.29-.39.52-.68.68-.29.16-.6.24-.92.24-.32,0-.63-.08-.92-.25-.29-.16-.52-.39-.68-.69-.16-.29-.24-.6-.24-.92,0-.32.08-.63.25-.92.17-.29.4-.52.69-.68.29-.16.6-.24.91-.24Z"/>
    <path class="st0" d="M114.26,100.85c0-.45-.38-.81-.84-.81s-.84.36-.84.81.38.81.84.81.84-.36.84-.81"/>
    <path class="st0" d="M168.83,100.85c0-.45-.38-.81-.84-.81s-.84.36-.84.81.38.81.84.81.84-.36.84-.81"/>
    <path class="st0" d="M116.43,102.81c.18-.06.22-.23.22-.63v-3.09h-.17c-.5,0-.75.14-.95.58h-.07s.03-.68.03-.68h2.9l.03.67h-.07c-.21-.43-.46-.57-.95-.57h-.16v3.09c0,.4.04.57.22.63v.08h-1.04v-.08Z"/>
    <path class="st0" d="M119.99,102.81c.18-.06.22-.23.22-.63v-2.48c0-.4-.04-.57-.22-.63v-.08h1.04v.08c-.18.06-.22.23-.22.63v1.07h1.94v-1.07c0-.4-.04-.57-.22-.63v-.08h1.04v.08c-.18.06-.22.23-.22.63v2.48c0,.4.04.57.22.63v.08h-1.04v-.08c.18-.06.22-.23.22-.63v-1.31h-1.94v1.31c0,.4.04.57.22.63v.08h-1.04v-.08Z"/>
    <path class="st0" d="M125.31,102.88v-.08c.18-.06.22-.23.22-.63v-2.48c0-.4-.04-.57-.22-.63v-.08h2.67l.06.78-.07.02c-.22-.55-.57-.71-1.2-.71h-.65v1.67h.53c.68,0,.87-.13.96-.42h.08v.94h-.08c-.09-.29-.28-.42-.96-.42h-.53v1.68c0,.18.1.28.28.28h.53c.56,0,.95-.17,1.16-.73h.07s-.04.82-.04.82h-2.82Z"/>
    <path class="st0" d="M132.22,100.92c0-1.1.81-1.98,1.99-1.98.94,0,1.99.65,1.99,2.01s-1.05,1.99-1.99,1.99-1.99-.62-1.99-2.02M135.64,101.39c-.08-1.19-.75-2.3-1.71-2.3-.76,0-1.19.59-1.12,1.49.08,1.11.78,2.19,1.73,2.19.85,0,1.16-.64,1.11-1.37Z"/>
    <path class="st0" d="M139.97,101.97c-.33-.81-.36-1.09-.85-1.09h-.33v1.29c0,.4.04.57.22.63v.08h-1.04v-.08c.18-.06.22-.23.22-.63v-2.48c0-.4-.04-.57-.22-.63v-.08h1.17c1.21,0,1.46.44,1.46.89,0,.51-.35.9-1.09.99.63.07.75.33,1.05,1.07.29.74.36.87.56.87.03,0,.06,0,.08,0v.08c-.13.03-.31.04-.4.04-.46,0-.57-.3-.84-.95M140.02,100.01c0-.45-.29-.94-.99-.94-.08,0-.16,0-.24.02v1.7h.36c.63,0,.87-.36.87-.79Z"/>
    <path class="st0" d="M142.64,102.81c.18-.06.22-.23.22-.63v-2.48c0-.4-.04-.57-.22-.63v-.08h1.04v.08c-.18.06-.22.23-.22.63v2.48c0,.4.04.57.22.63v.08h-1.04v-.08Z"/>
    <path class="st0" d="M145.46,100.92c0-1.07.84-1.97,2.09-1.97.35,0,.92.08,1.21.27l.02.73-.07.02c-.23-.57-.81-.92-1.37-.92-.73,0-1.29.49-1.3,1.5-.01,1.05.63,2.25,1.7,2.25.35,0,.67-.14.81-.42v-.51c0-.43-.05-.59-.29-.66v-.08h.86v1.02c-.42.55-1.1.77-1.56.77-1.28,0-2.1-.8-2.1-2.02"/>
    <path class="st0" d="M150.85,102.81c.18-.06.22-.23.22-.63v-2.48c0-.4-.04-.57-.22-.63v-.08h1.04v.08c-.18.06-.22.23-.22.63v2.48c0,.4.04.57.22.63v.08h-1.04v-.08Z"/>
    <path class="st0" d="M153.95,99.63v2.21c0,.68.13.87.42.96v.08h-.75v-.08c.18-.06.22-.23.22-.63v-2.48c0-.4-.05-.57-.29-.63v-.08h.63l2.34,2.93v-1.89c0-.68-.13-.87-.42-.96v-.08h.75v.08c-.18.06-.22.23-.22.63v3.23h-.07l-2.61-3.3Z"/>
    <path class="st0" d="M158.16,102.81c.17-.06.32-.21.47-.58l1.04-2.58c.04-.11.04-.2-.01-.3l-.07-.16.55-.24,1.38,3.29c.16.37.3.51.43.57v.08h-1.01v-.08c.18-.06.11-.21-.05-.57l-.33-.8h-1.49l-.32.8c-.15.37-.12.53.07.58v.08h-.65v-.08ZM160.51,101.34l-.72-1.72-.7,1.72h1.41Z"/>
    <path class="st0" d="M163.35,102.88v-.08c.18-.06.22-.23.22-.63v-2.48c0-.4-.04-.57-.22-.63v-.08h1.04v.08c-.18.06-.22.23-.22.63v2.81c0,.18.1.28.28.28h.46c.56,0,.85-.13,1.07-.61h.07s-.04.71-.04.71h-2.65Z"/>
    <path class="st0" d="M108.92,103.77l-.75-.91s.16-1.44,3.14-1.86c0,0-2.43.69-2.39,2.77"/>
    <path class="st0" d="M108.92,97.81l-.75.91s.16,1.44,3.14,1.86c0,0-2.43-.69-2.39-2.77"/>
    <polygon class="st0" points="105.62 100.79 106.88 101.39 109.87 100.79 106.88 100.19 105.62 100.79"/>
    <path class="st0" d="M171.73,103.77l.75-.91s-.16-1.44-3.14-1.86c0,0,2.43.69,2.39,2.77"/>
    <path class="st0" d="M171.73,97.81l.75.91s-.16,1.44-3.14,1.86c0,0,2.43-.69,2.39-2.77"/>
    <polygon class="st0" points="175.03 100.79 173.77 101.39 170.78 100.79 173.77 100.19 175.03 100.79"/>
    <path class="st0" d="M115.51,98.93l-.04.82.2.03.03-.06c.19-.41.4-.47.87-.47h.09v2.93c0,.42-.05.51-.17.55l-.06.02v.22h1.2v-.22l-.06-.02c-.11-.04-.17-.13-.17-.55v-2.93h.08c.47,0,.69.06.87.47l.03.06.2-.03-.04-.82h-3.05Z"/>
    <path class="st0" d="M122.5,99.14l.06.02c.11.04.17.13.17.55v.86h-1.77v-.86c0-.42.05-.51.17-.55l.06-.02v-.22h-1.19v.22l.06.02c.11.04.17.13.17.55v2.47c0,.42-.05.51-.17.55l-.06.02v.22h1.19v-.22l-.06-.02c-.11-.04-.17-.13-.17-.55v-1.09h1.77v1.09c0,.42-.05.51-.17.55l-.06.02v.22h1.19v-.22l-.06-.02c-.11-.04-.17-.13-.17-.55v-2.47c0-.42.05-.51.17-.55l.06-.02v-.22h-1.19v.22Z"/>
    <path class="st0" d="M128.06,102.04c-.18.48-.49.52-1.08.52h-.53c-.13,0-.2-.06-.2-.2v-1.32h.45c.71,0,.82.05.88.25l.02.06h.22v-1.09h-.22l-.02.06c-.06.21-.17.23-.88.23h-.45v-1.23h.57c.63,0,.92.03,1.12.52l.03.06.21-.05-.07-.93h-2.82v.36l.06.02c.11.04.17-.01.17.41v2.47c0,.42-.05.35-.17.39l-.06.02v.38h2.97l.05-.96-.21-.03-.02.06Z"/>
    <path class="st0" d="M141.13,102.74c-.15,0-.2-.06-.5-.82-.22-.56-.35-.89-.74-1.04.51-.16.79-.51.79-.99,0-.65-.5-.97-1.54-.97h-1.25v.22l.06.02c.11.04.17.13.17.55v2.47c0,.42-.05.51-.17.55l-.06.02v.22h1.19v-.22l-.06-.02c-.11-.04-.17-.13-.17-.55v-1.21h.25c.35,0,.41.13.65.72.04.09.08.2.12.31l.02.05c.25.61.39.95.89.95.1,0,.28,0,.42-.04l.06-.02v-.24l-.1.02s-.04,0-.06,0M138.87,99.19c.05,0,.11,0,.16,0,.66,0,.9.46.9.85,0,.45-.28.7-.79.7h-.27v-1.54Z"/>
    <path class="st0" d="M142.55,99.14l.06.02c.11.04.17.13.17.55v2.47c0,.42-.05.51-.17.55l-.06.02v.22h1.19v-.22l-.06-.02c-.11-.04-.17-.13-.17-.55v-2.47c0-.42.05-.51.17-.55l.06-.02v-.22h-1.19v.22Z"/>
    <path class="st0" d="M147.96,101.29l.25.02c.17.05.23.13.23.58v.48c-.22.19-.39.23-.72.27-.43,0-.67-.12-.96-.33-.41-.41-.66-1.08-.65-1.74-.02-.83.47-1.29,1.24-1.35.56,0,1.09.36,1.29.86l.2-.05-.03-.84-.03-.02c-.34-.23-.96-.29-1.25-.29-1.24,0-2.17.88-2.17,2.04,0,1.27.85,2.09,2.17,2.09.5,0,1.2-.25,1.62-.8l.02-.02v-1.13h-1.21v.22Z"/>
    <path class="st0" d="M150.73,99.14l.06.02c.11.04.17.13.17.55v2.47c0,.42-.05.51-.17.55l-.06.02v.22h1.19v-.22l-.06-.02c-.11-.04-.17-.13-.17-.55v-2.47c0-.42.05-.51.17-.55l.06-.02v-.22h-1.19v.22Z"/>
    <path class="st0" d="M155.97,99.15l.06.02c.21.06.16-.16.16.55v1.65l-2-2.44h-.75v.22l.06.02c.17.04.23.13.23.55v2.47c0,.42-.05.51-.17.55l-.06.02v.22h.91v-.22l-.06-.02c-.21-.06-.17,0-.17-.72v-1.97l2.29,2.97h.19v-3.3c0-.42.05-.51.17-.55l.06-.02v-.22h-.91v.22Z"/>
    <path class="st0" d="M161.51,102.21l-1.41-3.36-.7.31.05.25c-.01.09-.04.17-.08.25l-1.02,2.56c-.16.39-.23.48-.35.52v.22h.81v-.22h-.06c-.06-.03-.08-.05-.09-.07-.02-.05-.03-.15.07-.41l.3-.74h1.37l.34.82c.07.17.13.31.11.36,0,.01-.03.02-.05.03l-.06.02v.22h1.17v-.21l-.05-.02c-.14-.07-.26-.24-.39-.53M159.15,101.27l.57-1.42.59,1.42h-1.17Z"/>
    <path class="st0" d="M165.83,102.09l-.03.06c-.2.43-.44.56-1,.56h-.45c-.13,0-.2-.06-.2-.2v-2.8c0-.42.05-.51.17-.55l.06-.02v-.22h-1.19v.22l.06.02c.11.04.17.13.17.55v2.47c0,.42-.05.51-.17.55l-.06.02v.22h2.8l.05-.85-.21-.03Z"/>
    <path class="st0" d="M134.24,98.88c-1.18,0-2.07.88-2.07,2.05,0,1.44,1.07,2.09,2.07,2.09s2.06-.71,2.06-2.06-1.04-2.08-2.06-2.08ZM135.24,102.35c-.17.18-.41.27-.71.27-.88,0-1.5-1.04-1.57-2-.03-.45.07-.82.29-1.05.17-.18.41-.28.7-.28.91,0,1.48,1.09,1.55,2.11.03.4-.07.74-.26.95Z"/>
    <path class="st0" d="M125.98,122.08c0,.66.48.86,1.04,1.09l.09.04c.44.17,1.04.41,1.04.89,0,.44-.35.64-.67.64-.64,0-1.14-.39-1.4-1.07v-.04s-.17.02-.17.02l.02.89.02.02c.33.24.87.4,1.38.4.67,0,1.37-.46,1.37-1.22,0-.68-.68-.95-1.23-1.16l-.08-.03c-.42-.17-.9-.36-.9-.79,0-.38.29-.64.73-.64.53,0,.96.31,1.17.84l.02.05.14-.05-.02-.78h-.03c-.31-.17-.68-.25-1.07-.25-.88,0-1.46.45-1.46,1.15"/>
    <path class="st0" d="M125.98,122.08c0,.66.48.86,1.04,1.09l.1.04c.44.17,1.04.41,1.04.89,0,.44-.35.64-.68.64-.64,0-1.14-.39-1.39-1.07v-.04s-.17.02-.17.02l.02.89.02.02c.33.24.87.4,1.38.4.67,0,1.37-.46,1.37-1.22,0-.69-.69-.95-1.23-1.16l-.08-.03c-.42-.17-.9-.36-.9-.79,0-.38.29-.64.73-.64.53,0,.96.31,1.17.84l.02.05.14-.05-.02-.78h-.03c-.31-.17-.68-.25-1.07-.25-.88,0-1.46.45-1.46,1.15"/>
    <path class="st0" d="M130.1,120.96v.16h.04c.14.06.18.19.18.58v2.44c0,.39-.04.52-.18.57h-.04v.18h1.12v-.16h-.04c-.14-.06-.18-.19-.18-.58v-2.44c0-.39.04-.52.18-.57h.04v-.18h-1.12Z"/>
    <path class="st0" d="M130.1,120.96h0s1.12,0,1.12,0v.16h-.04c-.14.06-.18.19-.18.58v2.44c0,.39.04.52.18.57h.04v.18h0s-1.12,0-1.12,0v-.17h.04c.14-.06.18-.19.18-.58v-2.44c0-.39-.04-.52-.18-.57h-.04v-.18Z"/>
    <path class="st0" d="M135.15,120.96v.17h.04c.25.09.38.25.38.91v1.71l-2.2-2.76-.02-.02h-.69v.17h.04c.19.06.25.18.25.58v2.44c0,.39-.04.52-.18.57h-.04v.18h.83v-.17h-.04c-.25-.09-.38-.25-.38-.91v-2.02l2.47,3.12.02.02h.15v-3.23c0-.39.04-.52.18-.57h.04v-.18h-.84Z"/>
    <path class="st0" d="M132.65,120.96h0s.69,0,.69,0l.02.02,2.21,2.76v-1.71c0-.66-.13-.82-.38-.9h-.04v-.18h.84v.16h-.04c-.14.06-.18.19-.18.58v3.23h-.15l-.02-.02-2.47-3.12v2.02c0,.66.13.82.38.9h.04v.18h-.84v-.17h.03c.14-.06.18-.19.18-.58v-2.44c0-.4-.05-.52-.25-.57h-.04v-.18Z"/>
    <path class="st0" d="M137.47,122.99c0,1.22.81,1.95,2.16,1.95.72,0,1.14-.15,1.39-.27h.03s.1-.87.1-.87l-.16-.03v.04c-.22.58-.64.91-1.2.91-1.08,0-1.64-1-1.64-1.98s.54-1.62,1.44-1.62c.57,0,1.1.35,1.3.87l.02.04.15-.04-.02-.79h-.02c-.28-.21-.85-.29-1.28-.29-1.31,0-2.26.87-2.26,2.07"/>
    <path class="st0" d="M137.47,122.99c0,1.22.81,1.95,2.16,1.95.72,0,1.14-.15,1.39-.27h.03s.1-.87.1-.87l-.16-.03v.04c-.22.58-.64.91-1.2.91-1.08,0-1.64-1-1.64-1.98s.54-1.62,1.44-1.62c.57,0,1.1.35,1.3.87l.02.04.15-.04-.02-.79h-.02c-.28-.21-.85-.29-1.28-.29-1.31,0-2.26.87-2.26,2.07"/>
    <path class="st0" d="M142.63,120.96v.16h.04c.14.06.18.19.18.58v2.44c0,.39-.04.52-.18.57h-.04v.18h2.87l.04-.89-.16-.02v.04c-.2.49-.51.69-1.1.69h-.52c-.15,0-.22-.07-.22-.22v-1.6h.47c.66,0,.82.13.9.38v.04h.18v-1.02h-.17v.04c-.09.25-.25.38-.91.38h-.47v-1.54h.59c.62,0,.93.18,1.13.67l.02.04.16-.04-.07-.86h-2.72Z"/>
    <path class="st0" d="M142.63,120.96h0s2.72,0,2.72,0l.07.86-.16.04-.02-.04c-.2-.49-.5-.67-1.13-.67h-.59v1.54h.47c.66,0,.82-.13.9-.38v-.04h.18v1.02h-.17v-.04c-.09-.25-.25-.38-.91-.38h-.47v1.6c0,.15.07.22.22.22h.53c.59,0,.91-.2,1.09-.69v-.04s.17.02.17.02l-.04.89h-2.87v-.17h.04c.14-.06.18-.19.18-.58v-2.44c0-.39-.04-.52-.18-.57h-.04v-.18Z"/>
    <path class="st0" d="M148.61,120.9l-1.07.75.04.13.46-.2v2.53c0,.4-.05.52-.22.57h-.04v.18h1.21v-.17h-.04c-.18-.06-.22-.18-.22-.58v-3.21h-.11Z"/>
    <path class="st0" d="M148.61,120.9l-1.07.75.04.13.46-.2v2.53c0,.4-.05.52-.22.57h-.04v.18h1.21v-.17h-.04c-.18-.06-.22-.18-.22-.58v-3.21h-.11Z"/>
    <path class="st0" d="M150.41,121.97c0-.4.1-.87.56-.87.56,0,.75.8.75,1.48,0,.12,0,.29-.03.5-.21.12-.41.14-.52.14-.63,0-.76-.68-.76-1.25M149.76,122.32c0,.75.44,1.24,1.12,1.24.26,0,.52-.08.76-.22-.13.59-.47,1.35-1.31,1.9l-.05.03.11.15.04-.03c1.39-.87,2.02-2.11,2.02-2.96,0-.92-.54-1.53-1.35-1.53-.52,0-1.34.39-1.34,1.42Z"/>
    <path class="st0" d="M150.41,121.97c0-.4.1-.87.56-.87.56,0,.75.8.75,1.48,0,.11,0,.29-.03.5-.21.13-.41.14-.51.14-.63,0-.76-.68-.76-1.25M149.76,122.32c0,.75.44,1.24,1.12,1.24.26,0,.52-.08.76-.22-.13.59-.46,1.35-1.31,1.9l-.04.03.11.15.04-.03c1.4-.87,2.02-2.11,2.02-2.96,0-.92-.54-1.53-1.35-1.53-.52,0-1.34.39-1.34,1.42Z"/>
    <path class="st0" d="M153.09,121.57l-.03.04.12.12.04-.04c.21-.23.47-.35.73-.35.31,0,.5.16.5.43,0,.35-.23.63-.73.88l-.04.02.07.16.05-.03c.13-.07.25-.09.32-.09.38,0,.57.24.57.72,0,.59-.56,1.51-1.61,2.05l-.05.02.09.17.05-.02c1.11-.59,2.24-1.32,2.24-2.31,0-.67-.61-.85-.98-.85h-.02c.42-.23.67-.49.67-.91,0-.33-.27-.68-.78-.68-.45,0-.82.2-1.21.68"/>
    <path class="st0" d="M153.09,121.57l-.03.04.12.12.04-.04c.21-.23.47-.35.73-.35.31,0,.5.16.5.43,0,.35-.23.63-.73.88l-.04.02.07.16.05-.03c.13-.07.25-.09.32-.09.38,0,.57.24.57.73,0,.59-.56,1.51-1.61,2.05l-.04.02.09.17.05-.03c1.11-.59,2.24-1.32,2.24-2.31,0-.67-.61-.85-.98-.85h-.02c.42-.23.67-.49.67-.91,0-.33-.27-.68-.78-.68-.45,0-.82.2-1.21.68"/>
    <path class="st0" d="M158.05,120.61c-.08.19-.23.32-.71.32h-.88l-.31,1.8.1.07.08-.02c.12-.03.29-.06.51-.07h.02c.26,0,.46.07.59.19.11.11.16.26.16.45,0,.68-.59,1.47-1.59,2.12l-.05.03.12.15.04-.02c1.51-.91,2.18-1.67,2.18-2.47,0-.46-.32-1-1.22-1-.26,0-.46.02-.66.07l.12-.76h.63c.68,0,.9-.49,1.03-.78l.02-.05-.16-.08-.02.05Z"/>
    <path class="st0" d="M158.05,120.61c-.08.19-.23.32-.71.32h-.88l-.31,1.8.1.07.08-.02c.12-.02.29-.06.51-.07h.02c.26,0,.46.07.59.19.11.11.16.26.16.45,0,.68-.59,1.47-1.59,2.12l-.05.03.12.15.04-.02c1.51-.91,2.19-1.67,2.19-2.47,0-.46-.32-1-1.22-1-.26,0-.46.02-.66.07l.12-.76h.63c.68,0,.9-.49,1.03-.78l.02-.05-.16-.08-.02.05Z"/>
    <polygon class="st0" points="160.18 123.11 163.17 123.71 164.43 123.11 163.17 122.51 160.18 123.11"/>
    <polygon class="st0" points="160.18 123.11 163.17 123.72 164.43 123.11 163.17 122.51 160.18 123.11"/>
    <polygon class="st0" points="119.79 123.11 121.05 123.71 124.05 123.11 121.05 122.51 119.79 123.11"/>
    <polygon class="st0" points="119.79 123.11 121.05 123.72 124.05 123.11 121.05 122.51 119.79 123.11"/>
  </g>
  <g>
    <g>
      <path class="st2" d="M156.29,89.84h-3.49c-3.04,0-5.78-1.97-6.9-4.99l-.61-1.65c1.15-.87,1.89-2.31,1.89-3.93,0-2.69-2.05-4.88-4.59-4.88-.19,0-.38.01-.57.04l-1.47-4.66-.94,3.97c-1.19-.7-2.56-1.1-4.01-1.1-1.86,0-3.59.65-4.98,1.75l5.1-14.59h9.62s10.96,30.02,10.96,30.02Z"/>
      <path class="st2" d="M143.12,81.58c0,.32-.02.64-.06.95-.03.32-.08.65-.16.95-.07.32-.17.64-.27.94-1.09,3.06-3.86,5.22-7.11,5.22-4.18,0-7.59-3.62-7.59-8.07,0-4.46,3.4-8.08,7.59-8.08,1.64,0,3.15.55,4.39,1.49-.24.17-.47.36-.68.57-1.07-.75-2.33-1.18-3.72-1.18-3.73,0-6.76,3.22-6.76,7.2s3.03,7.19,6.76,7.19c2.81,0,5.23-1.83,6.25-4.42.11-.29.21-.58.29-.89.08-.3.13-.6.17-.91.03-.3.06-.61.06-.92v-.05c0-1.52-.44-2.92-1.19-4.08.21-.2.45-.35.71-.45.82,1.29,1.3,2.85,1.3,4.53"/>
      <path class="st2" d="M146.56,79.27c0,1.87-1.14,3.45-2.72,4.01.04-.2.06-.41.08-.61.02-.15.04-.3.04-.44,1.02-.54,1.73-1.66,1.73-2.95,0-1.82-1.4-3.3-3.11-3.3-.13,0-.26,0-.38.03-.33.04-.64.14-.93.29-.26.12-.49.29-.7.48-.22.2-.42.44-.57.7-.33.52-.51,1.14-.51,1.8,0,1.37.78,2.55,1.9,3.06,0,.04,0,.06,0,.09-.03.27-.08.53-.16.8v.02c-1.52-.59-2.6-2.14-2.6-3.97,0-.92.28-1.77.75-2.47.17-.25.36-.48.58-.68.21-.2.44-.38.69-.53.27-.17.56-.3.87-.39.35-.1.7-.16,1.08-.16,2.19,0,3.98,1.89,3.98,4.22"/>
    </g>
    <g>
      <path class="st0" d="M156.29,89.84h-3.49c-3.04,0-5.78-1.97-6.9-4.99l-.61-1.65c1.15-.87,1.89-2.31,1.89-3.93,0-2.69-2.05-4.88-4.59-4.88-.19,0-.38.01-.57.04l-1.47-4.66-.94,3.97c-1.19-.7-2.56-1.1-4.01-1.1-1.86,0-3.59.65-4.98,1.75l5.1-14.59h9.62s10.96,30.02,10.96,30.02Z"/>
      <path class="st0" d="M143.12,81.58c0,.32-.02.64-.06.95-.03.32-.08.65-.16.95-.07.32-.17.64-.27.94-1.09,3.06-3.86,5.22-7.11,5.22-4.18,0-7.59-3.62-7.59-8.07,0-4.46,3.4-8.08,7.59-8.08,1.64,0,3.15.55,4.39,1.49-.24.17-.47.36-.68.57-1.07-.75-2.33-1.18-3.72-1.18-3.73,0-6.76,3.22-6.76,7.2s3.03,7.19,6.76,7.19c2.81,0,5.23-1.83,6.25-4.42.11-.29.21-.58.29-.89.08-.3.13-.6.17-.91.03-.3.06-.61.06-.92v-.05c0-1.52-.44-2.92-1.19-4.08.21-.2.45-.35.71-.45.82,1.29,1.3,2.85,1.3,4.53"/>
      <path class="st0" d="M146.56,79.27c0,1.87-1.14,3.45-2.72,4.01.04-.2.06-.41.08-.61.02-.15.04-.3.04-.44,1.02-.54,1.73-1.66,1.73-2.95,0-1.82-1.4-3.3-3.11-3.3-.13,0-.26,0-.38.03-.33.04-.64.14-.93.29-.26.12-.49.29-.7.48-.22.2-.42.44-.57.7-.33.52-.51,1.14-.51,1.8,0,1.37.78,2.55,1.9,3.06,0,.04,0,.06,0,.09-.03.27-.08.53-.16.8v.02c-1.52-.59-2.6-2.14-2.6-3.97,0-.92.28-1.77.75-2.47.17-.25.36-.48.58-.68.21-.2.44-.38.69-.53.27-.17.56-.3.87-.39.35-.1.7-.16,1.08-.16,2.19,0,3.98,1.89,3.98,4.22"/>
    </g>
  </g>
</svg>