<?xml version="1.0" encoding="UTF-8"?>
<svg id="Layer_1" xmlns="http://www.w3.org/2000/svg" version="1.1" viewBox="0 0 284.22 185.49">
  <!-- Generator: Adobe Illustrator 30.1.0, SVG Export Plug-In . SVG Version: 2.1.1 Build 136)  -->
  <defs>
    <style>
      .st0 {
        fill: #231f20;
      }

      .st1 {
        fill: none;
        stroke: #231f20;
        stroke-miterlimit: 10;
        stroke-width: .35px;
      }
    </style>
  </defs>
  <path class="st0" d="M86.9,101l-1.15,3.13c-.47,1.24-.62,1.88.44,2.28v.07h-4.08v-.07c1.29-.64,1.66-1.88,2.15-3.15l3.7-9.24c.31-.8.73-1.73-.33-2.06v-.07h3.5l4.61,11.37c.51,1.26.91,2.5,2.17,3.15v.07h-1.68c-1.18,0-1.95-.8-2.55-2.35l-1.2-3.13h-5.58ZM89.67,93.78l-2.19,5.59h4.37l-2.17-5.59Z"/>
  <path class="st0" d="M168.95,101l-1.15,3.13c-.47,1.24-.62,1.88.44,2.28v.07h-4.08v-.07c1.29-.64,1.66-1.88,2.15-3.15l3.7-9.24c.31-.8.73-1.73-.33-2.06v-.07h3.5l4.61,11.37c.51,1.26.91,2.5,2.17,3.15v.07h-1.68c-1.18,0-1.95-.8-2.55-2.35l-1.2-3.13h-5.59ZM171.72,93.78l-2.19,5.59h4.37l-2.17-5.59Z"/>
  <path class="st0" d="M186.79,101l-1.15,3.13c-.47,1.24-.62,1.88.44,2.28v.07h-4.08v-.07c1.29-.64,1.66-1.88,2.15-3.15l3.7-9.24c.31-.8.73-1.73-.33-2.06v-.07h3.5l4.61,11.37c.51,1.26.91,2.5,2.17,3.15v.07h-1.68c-1.18,0-1.95-.8-2.55-2.35l-1.2-3.13h-5.59ZM189.56,93.78l-2.19,5.59h4.37l-2.17-5.59Z"/>
  <path class="st0" d="M107.04,91.89c2.97,0,4.59,1.55,4.59,3.57s-1.71,3.48-3.52,3.9l3.25,4.67c.93,1.15,1.37,1.74,3.01,2.44h-2.04c-1.17,0-1.91-.29-2.57-1.11l-4.22-6.47c1.77-.27,3.83-1.09,3.83-3.17,0-1.6-1.37-2.53-2.86-2.46-.51.02-1.52.09-2.03.18v9.93c0,1.02-.13,2.64,1,3.04v.07h-4.23v-.07c1.13-.4.97-2.04.97-3.04v-8.36c0-1.02.16-2.64-.97-3.06v-.07h5.8Z"/>
  <path class="st0" d="M119.03,95.02c0-1.02.13-2.64-1-3.06v-.07h4.23v.07c-1.11.42-.97,2.04-.97,3.06v11c0,2.35-1.71,3.63-4.97,3.99v-.07c2.46-1.57,2.7-2.9,2.7-5.3v-9.63Z"/>
  <path class="st0" d="M138.39,105.02c-.98,1.29-2.79,1.82-4.34,1.82-1.46,0-3.01-.47-4.01-1.55-1.17-1.29-1.13-2.77-1.13-4.37v-5.92c0-1,.15-2.62-.98-3.04v-.07h4.21v.07c-1.11.42-.97,2.04-.97,3.04v5.92c0,2.95,1.24,4.32,3.52,4.32,1.24,0,2.5-.51,3.24-1.55.49-.66.47-1.22.47-2.02v-6.67c0-1,.13-2.62-.98-3.04v-.07h4.21l.02.07c-1.13.42-1,2.04-1,3.06v8.36c0,1-.13,2.61,1,3.04v.07h-1.37c-1.57,0-1.89-1.46-1.89-1.46"/>
  <path class="st0" d="M149.78,103.6c0,1.24-.02,2.13,1.15,2.81v.07h-3.92v-.07c1.17-.69,1.17-1.57,1.17-2.81v-8.84c0-1.24,0-2.13-1.15-2.79v-.07h3.24v.02c.09.27.18.38.33.56l.31.44,8.11,10.24v-8.4c0-1.24.02-2.13-1.15-2.79v-.07h3.9v.07c-1.15.67-1.15,1.55-1.15,2.79v12.43c-1.57-.53-2.26-1.26-3.24-2.53l-7.6-9.64v8.58Z"/>
  <path class="st0" d="M87.33,113.34c.3-.79.68-1.7-.01-1.98v-.03h1.66l-2.94,7.66c-.78-.51-1.03-.6-1.36-1.48l-1.68-4.55c-.21-.57-.38-1.21-.87-1.59v-.03h1.62v.13c-.01.25.2.79.29,1.04l1.77,4.84,1.51-4Z"/>
  <path class="st0" d="M93.48,115.9l-.58,1.57c-.23.62-.31.95.22,1.15v.03h-2.05v-.03c.65-.32.83-.95,1.08-1.58l1.86-4.64c.16-.4.37-.87-.17-1.04v-.03h1.76l2.31,5.71c.26.63.46,1.26,1.09,1.58v.03h-2.28v-.03c.54-.24.46-.37.16-1.15l-.6-1.57h-2.8ZM94.87,112.27l-1.1,2.8h2.19l-1.09-2.8Z"/>
  <path class="st0" d="M104.1,111.32c1.49,0,2.3.78,2.3,1.79s-.86,1.75-1.77,1.96l1.6,2.01c.47.58,1.17,1.16,1.8,1.56h-1.02c-.59,0-.96-.14-1.29-.56l-1.36-1.68-1.02-1.57c.89-.13,1.92-.54,1.92-1.59,0-.8-.69-1.27-1.44-1.24-.26.01-.5.05-.76.09v4.99c0,.51-.07,1.32.5,1.53v.03h-2.13v-.03c.57-.2.49-1.02.49-1.53v-4.2c0-.51.08-1.32-.49-1.54v-.03h2.65Z"/>
  <path class="st0" d="M112.13,115.9l-.58,1.57c-.23.62-.31.95.22,1.15v.03h-2.05v-.03c.65-.32.83-.95,1.08-1.58l1.86-4.64c.16-.4.37-.87-.17-1.04v-.03h1.76l2.31,5.71c.26.63.46,1.26,1.09,1.58v.03h-2.28v-.03c.55-.24.46-.37.16-1.15l-.6-1.57h-2.8ZM113.52,112.27l-1.1,2.8h2.19l-1.09-2.8Z"/>
  <path class="st0" d="M125.81,112.89c0-.51.07-1.32-.5-1.54v-.03h2.13v.03c-.56.21-.49,1.02-.49,1.54v6.31c0,1.18-.86,1.83-2.49,2v-.03c1.24-.79,1.36-1.46,1.36-2.66v-5.62Z"/>
  <path class="st0" d="M132.06,117.71l1.77.13c.73.07,1.5-.17,2.06-.66h.03l-.5,1.46h-5v-.03c.57-.2.5-1.02.5-1.53v-4.2c0-.51.07-1.32-.5-1.54v-.03h4.44c.19,0,.38.02.52-.06h.03v1.3h-.03c-.34-.4-.8-.45-1.31-.45-.39,0-1.66.01-2.01.08v2.07h2.2c.18,0,.36,0,.49-.07h.03v1.18h-.03c-.18-.32-.65-.31-.99-.31h-1.7v2.64Z"/>
  <path class="st0" d="M152.83,117.71l1.77.13c.73.07,1.5-.17,2.06-.66h.03l-.5,1.46h-5v-.03c.57-.2.5-1.02.5-1.53v-4.2c0-.51.07-1.32-.5-1.54v-.03h4.44c.19,0,.38.02.52-.06h.03v1.3h-.03c-.35-.4-.8-.45-1.31-.45-.39,0-1.66.01-2.01.08v2.07h2.2c.18,0,.36,0,.49-.07h.03v1.18h-.03c-.18-.32-.65-.31-.99-.31h-1.7v2.64Z"/>
  <path class="st0" d="M177.44,117.71l1.77.13c.73.07,1.5-.17,2.06-.66h.03l-.5,1.46h-5v-.03c.57-.2.5-1.02.5-1.53v-4.2c0-.51.07-1.32-.5-1.54v-.03h4.44c.19,0,.38.02.52-.06h.03v1.3h-.03c-.34-.4-.8-.45-1.31-.45-.39,0-1.66.01-2.01.08v2.07h2.2c.18,0,.36,0,.49-.07h.03v1.18h-.03c-.18-.32-.65-.31-.99-.31h-1.7v2.64Z"/>
  <path class="st0" d="M141.76,118.98c-1.01-.74-1.11-.66-1.48-1.8l-1.31-4.11c-.2-.61-.37-1.34-.92-1.71v-.03h1.62c-.04.25.07.59.13.8l1.66,5.18,1.3-4.23c.21-.68.43-1.4-.18-1.71v-.03h1.57c-.07.28.01.63.17,1.12l1.55,4.82,1.26-4.07c.2-.63.57-1.54-.3-1.84v-.03h1.71l-2.35,7.66c-1.02-.7-1.1-.65-1.47-1.79l-1.22-3.83-1.74,5.62Z"/>
  <path class="st0" d="M162.58,117.85c.76.05,1.41-.21,1.97-.68h.03l-.58,1.48h-4.57v-.03c.57-.2.5-1.02.5-1.53v-4.2c0-.51.07-1.32-.5-1.54v-.03h2.13v.03c-.57.21-.49,1.04-.49,1.54v4.85l1.51.1Z"/>
  <path class="st0" d="M170.93,117.85c.76.05,1.41-.21,1.97-.68h.03l-.58,1.48h-4.58v-.03c.57-.2.5-1.02.5-1.53v-4.2c0-.51.07-1.32-.5-1.54v-.03h2.13v.03c-.57.21-.49,1.04-.49,1.54v4.85l1.51.1Z"/>
  <path class="st0" d="M186.68,111.32c1.49,0,2.3.78,2.3,1.79s-.86,1.75-1.77,1.96l1.6,2.01c.47.58,1.17,1.16,1.8,1.56h-1.02c-.59,0-.96-.14-1.29-.56l-1.36-1.68-1.02-1.57c.89-.13,1.92-.54,1.92-1.59,0-.8-.69-1.27-1.44-1.24-.26.01-.5.05-.76.09v4.99c0,.51-.07,1.32.5,1.53v.03h-2.13v-.03c.57-.2.49-1.02.49-1.53v-4.2c0-.51.08-1.32-.49-1.54v-.03h2.65Z"/>
  <path class="st0" d="M197.16,112.65c-.43-.45-1.12-.7-1.75-.7s-1.44.24-1.44,1.01c0,1.52,3.83,1.5,3.83,3.56,0,1.19-1.25,2.3-2.98,2.3-.68,0-1.36-.1-1.99-.33l-.32-1.39c.66.57,1.57.92,2.44.92.63,0,1.59-.38,1.59-1.16,0-1.74-3.83-1.42-3.83-3.78,0-1.4,1.44-1.94,2.79-1.94.56,0,1.12.08,1.66.24v1.26Z"/>
  <path class="st0" d="M101.7,127.44l-1.89,4.18h.6l.48-1.07h2.12l.47,1.07h.62l-1.89-4.18h-.5ZM102.77,130.03h-1.65l.83-1.85.82,1.85Z"/>
  <path class="st0" d="M108.46,130.59c-.36.34-.71.57-1.26.57-.86,0-1.5-.69-1.5-1.61s.65-1.6,1.5-1.6c.46,0,.83.16,1.23.54l.04.04.39-.42-.04-.04c-.36-.34-.81-.66-1.61-.66-1.2,0-2.1.93-2.1,2.15s.89,2.14,2.08,2.14c.83,0,1.3-.37,1.66-.73l.04-.04-.38-.38-.04.04Z"/>
  <path class="st0" d="M113.39,130.59c-.36.34-.71.57-1.26.57-.86,0-1.5-.69-1.5-1.61s.65-1.6,1.5-1.6c.46,0,.83.16,1.23.54l.04.04.39-.42-.04-.04c-.36-.34-.81-.66-1.61-.66-1.2,0-2.1.93-2.1,2.15s.89,2.14,2.08,2.14c.83,0,1.3-.37,1.66-.73l.04-.04-.38-.38-.04.04Z"/>
  <path class="st0" d="M118.09,129.88c0,.82-.41,1.27-1.16,1.27s-1.17-.47-1.17-1.3v-2.38h-.58v2.4c0,1.12.67,1.81,1.74,1.81s1.74-.69,1.74-1.85v-2.37h-.57v2.4Z"/>
  <path class="st0" d="M123.73,128.73c0-.77-.6-1.26-1.52-1.26h-1.79v4.15h.57v-1.57h1.06l1.15,1.54.02.02h.71l-1.25-1.67c.67-.15,1.05-.59,1.05-1.22M123.14,128.75c0,.47-.38.78-.98.78h-1.18v-1.52h1.18c.62,0,.97.27.97.74"/>
  <path class="st0" d="M126.88,127.44l-1.89,4.18h.6l.48-1.07h2.12l.47,1.07h.62l-1.89-4.18h-.5ZM127.95,130.03h-1.65l.83-1.85.82,1.85Z"/>
  <path class="st0" d="M133.65,130.59c-.36.34-.71.57-1.26.57-.86,0-1.5-.69-1.5-1.61s.65-1.6,1.5-1.6c.46,0,.83.16,1.23.54l.04.04.39-.42-.04-.04c-.36-.34-.81-.66-1.61-.66-1.2,0-2.1.93-2.1,2.15s.9,2.14,2.08,2.14c.83,0,1.3-.37,1.66-.73l.04-.04-.38-.38-.04.04Z"/>
  <polygon class="st0" points="137.01 129.44 135.68 127.47 134.98 127.47 136.72 129.99 136.72 131.62 137.3 131.62 137.3 129.98 139.03 127.47 138.35 127.47 137.01 129.44"/>
  <rect class="st0" x="143.5" y="127.47" width=".58" height="4.15"/>
  <polygon class="st0" points="148.89 130.59 146.46 127.49 146.44 127.47 145.92 127.47 145.92 131.62 146.49 131.62 146.49 128.43 148.98 131.6 149 131.62 149.45 131.62 149.45 127.47 148.89 127.47 148.89 130.59"/>
  <path class="st0" d="M155.93,127.47h-1.46v4.15h1.46c1.28,0,2.2-.88,2.2-2.08s-.93-2.07-2.2-2.07M155.93,131.08h-.88v-3.07h.88c.95,0,1.61.63,1.61,1.54s-.66,1.53-1.61,1.53"/>
  <polygon class="st0" points="160.34 129.8 162.54 129.8 162.54 129.26 160.34 129.26 160.34 128.01 162.8 128.01 162.8 127.47 159.77 127.47 159.77 131.62 162.83 131.62 162.83 131.09 160.34 131.09 160.34 129.8"/>
  <path class="st0" d="M165.93,129.27c-.89-.19-1.05-.39-1.05-.73s.33-.6.8-.6c.41,0,.77.14,1.12.42l.05.04.34-.45-.05-.04c-.44-.36-.88-.51-1.45-.51-.8,0-1.38.49-1.38,1.17,0,.77.56,1.04,1.4,1.23.85.18,1,.38,1,.71,0,.38-.34.63-.84.63s-.91-.16-1.34-.55l-.05-.04-.36.43.04.04c.5.45,1.04.66,1.69.66.85,0,1.44-.5,1.44-1.21,0-.64-.41-1-1.36-1.2"/>
  <rect class="st0" x="168.93" y="127.47" width=".57" height="4.15"/>
  <path class="st0" d="M173.18,129.88h1.23v.91c-.3.23-.71.37-1.1.37-.92,0-1.53-.65-1.53-1.62,0-.9.65-1.6,1.47-1.6.59,0,.92.21,1.19.45l.05.04.37-.44-.05-.04c-.46-.39-.91-.55-1.54-.55-1.17,0-2.08.95-2.08,2.15s.87,2.14,2.11,2.14c.83,0,1.39-.4,1.66-.63l.02-.02v-1.69h-1.78v.53Z"/>
  <polygon class="st0" points="179.63 127.47 179.63 130.59 177.19 127.49 177.18 127.47 176.66 127.47 176.66 131.62 177.22 131.62 177.22 128.43 179.72 131.6 179.74 131.62 180.19 131.62 180.19 127.47 179.63 127.47"/>
  <path class="st0" d="M146.83,63.26l2.97-3.53,1.04.88,1.56-6.81-6.44,2.7,1.06.9-2.82,3.35c-5.08-4.31-11.65-6.91-18.82-6.91v25.81l3.62-4.16v-17.77c4.86.69,9.29,2.76,12.86,5.8l-12.86,15.28h0s-3.62,4.14-3.62,4.14v.04h29.14c0-7.6-2.92-14.52-7.7-19.72M133.28,79.35l11.2-13.3c3.24,3.65,5.45,8.24,6.18,13.3h-17.37Z"/>
  <g>
    <path class="st0" d="M198.69,91.58h.85c.54,0,.99.22.99.79v.02c0,.47-.31.7-.7.77l.87,1.26h-.38l-.84-1.23h-.44v1.23h-.35v-2.84ZM199.57,92.91c.4,0,.62-.17.62-.52v-.02c0-.38-.24-.51-.62-.51h-.53v1.05h.53Z"/>
    <circle class="st1" cx="199.58" cy="93" r="2.53"/>
  </g>
</svg>