<svg xmlns="http://www.w3.org/2000/svg" id="Layer_1" version="1.1" viewBox="0 0 284.22 185.49">
  <!-- Generator: Adobe Illustrator 30.1.0, SVG Export Plug-In . SVG Version: 2.1.1 Build 136)  -->
  <defs fill="#000000">
    <style>
      .st0, .st1 {
        fill: #231f20;
      }

      .st1, .st2, .st3, .st4 {
        fill-rule: evenodd;
      }

      .st2 {
        fill: #918686;
      }

      .st5 {
        fill: #fff;
      }

      .st3 {
        fill: #ededed;
      }

      .st4 {
        fill: #d9d9d9;
      }
    </style>
  </defs>
  <polygon class="st3" points="73.91 79.91 189.47 79.91 189.47 101.53 73.91 101.53 73.91 79.91 73.91 79.91" fill="#000000"/>
  <polygon class="st4" points="210.31 79.91 189.47 79.91 189.47 101.53 210.31 101.53 210.31 79.91 210.31 79.91" fill="#000000"/>
  <path class="st1" d="M198.08,87.23c-.17-.23-.29-.47-.39-.72-.02-.04-.03-.08-.05-.12-.15-.03-.24-.04-.33-.04-.25.02-.31.02-.35-.04-.05-.08-.03-.14.08-.16.05-.01.14-.02.27-.03.08,0,.16,0,.25.03-.04-.13-.11-.32-.22-.34-.32-.03-.47.13-.53.44-.08.47.09.58.4.93.24.25.71.29.88.05h0ZM206.5,81.36c.06-.03.14-.07.22-.11.05-.02.1-.04.14-.06,0-.02.02-.08,0-.08-.1-.02-.4.14-.67.28-.2.11-.35.2-.57.24-.02-.31-.07-.62-.36-.73-.04.16-.01.42-.02.61,0,.15-.05.34-.1.38-.51.85-1.19,1.68-1.88,2.56-.23.29-.44.58-.66.86-.07.11-.08.17-.15.24-.12.13-.27.23-.5.26-.06.35-.16.65-.27.9.04.03.06.06.09.1.02.05.04.1.04.15,0,.09-.04.17-.09.23-.03.03-.07.05-.1.07.04.05.06.12.06.18,0,.09-.04.17-.09.23-.05.05-.12.09-.2.09.02.04.03.09.03.14,0,.09-.04.17-.09.23-.06.06-.14.1-.23.1-.01,0-.02,0-.03,0,0,.03.01.06.01.09,0,.09-.04.17-.09.23-.06.06-.14.1-.23.1-.03,0-.07,0-.1-.02.02.04.04.1.04.15,0,.09-.04.17-.09.23-.06.06-.14.1-.23.1-.07,0-.13-.02-.18-.06,0,.02,0,.05,0,.07,0,.09-.04.17-.09.23-.06.06-.14.1-.23.1s-.17-.04-.23-.1c-.03-.03-.05-.06-.07-.1-.01.02-.03.04-.04.06-.06.06-.14.1-.23.1s-.17-.04-.23-.1c-.06-.06-.09-.14-.09-.23v-.02s-.01,0-.01,0c-.09,0-.17-.04-.23-.1-.06-.06-.09-.14-.09-.23,0-.06.02-.12.05-.17-.08,0-.16-.04-.21-.1-.06-.06-.09-.14-.09-.23,0-.07.02-.14.06-.19-.05-.02-.1-.04-.14-.08-.05-.05-.08-.11-.09-.17l-.02.03c-.32.54-.5.81-.66,1.15-.14.3-.27.62-.47,1.14l3.78,1.2c.44-1.9,1.54-4.05,2.69-5.84,1.19-1.83,2.53-3.28,3.59-3.68.06-.03.12-.06.2-.1.06-.03.12-.07.19-.11-.29.04-.55.15-.73.05.27-.09.57-.14.85-.17.29-.25-.76.15-.91,0,.09-.04.21-.06.31-.1.08-.03.13-.03.22-.05.15-.38-.76.32-.77.05h0ZM201.67,98.9l.51.83c.13.17.18.28.18.34,0,.07-.02.12-.08.14-.04.02-.08.02-.13,0l-.05-.02s0,.08,0,.11c-.01.05-.04.1-.08.13-.04.03-.09.04-.14.04h0c-.01.07-.05.12-.1.14-.04.01-.08.02-.12,0,0,.03,0,.05,0,.07,0,.06-.03.1-.07.13-.05.04-.1.05-.17.02-.02-.01-.05-.03-.08-.06-.03.09-.08.16-.13.21-.04.04-.09.07-.13.08-.05.02-.11.02-.16.01-.1-.02-.18-.09-.21-.23h0c-.02-.27-.02-.59-.02-.91,0-.48,0-.96-.07-1.22l-1.36,1.48c-.1.11-.23.14-.33.12-.05,0-.09-.03-.12-.06-.04-.03-.06-.07-.07-.12,0-.03,0-.06,0-.09h-.01c-.05,0-.09-.03-.12-.07-.02-.03-.03-.06-.03-.09-.04,0-.08,0-.11-.03-.04-.03-.05-.08-.04-.13h0s-.03-.01-.03-.01c-.05,0-.09-.02-.11-.05-.03-.04-.03-.08-.01-.14,0-.01.01-.02.02-.04h-.02c-.05-.03-.08-.07-.09-.12,0-.04,0-.08.02-.12.04-.07.12-.15.19-.19l1.3-1.1-1.13-3.35-.64-.17h0s.27-1.73.27-1.73l1.02-.03c.08,0,.15-.07.15-.15,0-.08-.07-.15-.15-.15l-1.02.03-.92-.69c-.07-.05-.16-.04-.21.03-.05.07-.04.16.03.21l.82.61-.28,1.79-2.23-.59c.47-1.71,1.21-3.29,1.97-4.88.12-.25.25-.48.43-.8-.24-.2-.49-.44-.72-.69-.14-.17-.27-.34-.38-.53-.12-.18-.23-.37-.3-.55-.55-.65-1.09-1.24-1.65-1.8-.56-.56-1.12-1.09-1.71-1.61-.34-.22-.34-.22-.57-.37h0c-.11-.06-.16-.12-.18-.17-.12-.34.12-.35.17-.28-.08-.12,0-.22.17-.17-.07-.19.11-.16.3-.06-.04-.15.18-.08.29-.04.27.07.53.27.75.45.06.05.12.09.17.13.09-.1.19-.16.31-.2.13-.04.29-.03.47-.02h.1s-.04.1-.04.1c-.05.13-.09.25-.13.37-.03.1-.05.21-.06.3l2.42,2.38c-.03-2.02,1.36-3.17,2.87-2.31.75-.1,1.32.05,1.45.84.4-.22.76-.42,1.02.24.03.15.09.51.05.85.16-.2.31-.4.47-.6.7-.88,1.39-1.76,1.9-2.6.04-.06.04-.09.06-.25,0-.18,0-.45-.01-.75v-.1s.09.02.09.02c.07.02.21.06.34.18.11.11.22.29.25.57.09-.04.22-.11.36-.18.29-.16.64-.35.8-.31.06.01.09.01.11.07.14-.1.43,0,.46.16.13-.09.63.13.23.47-.07.06-.21.13-.3.18-.08.04-.14.07-.21.1h0c-1.03.38-2.35,1.81-3.52,3.62-1.16,1.79-2.25,3.94-2.68,5.84-.17,1.16-.34,2.12-.26,3.68.03.57.75,3.08.94,3.82h0ZM200.54,95.12l-1.1-.27,1.31,3.68h0c.18.28.15,1.08.15,1.43,0,.31,0,.62.02.87.01.05.03.08.06.08.02,0,.03,0,.05,0,.02,0,.05-.02.07-.05.08-.07.07-.16.03-.31-.06-.08.12-.19.18-.05.08.22.15.12.18.16.05-.1-.01-.09-.06-.2-.09-.1.07-.2.15-.1.02.02.06.14.12.08.03-.02,0-.05-.03-.11-.15-.19.05-.28.16-.1.04.06.06.06.08.07h0s0-.01.01-.03c.02-.06.04-.07-.04-.17-.07-.09.08-.17.15-.1.04.05.1.08.13.03-.02-.04-.07-.1-.13-.18-.17-.22-.38-.61-.54-.86l-.96-3.86h0ZM199.03,99.79c-.08-.06-.28.12-.32.07-.07-.09.26-.15.14-.25-.1-.06-.31.13-.28,0,.04-.05.18-.08.12-.18-.12-.05-.21.15-.27.08-.01-.02,0-.05.07-.09.08-.08.02-.13-.06-.12.03-.03.07-.07.11-.09.23-.12,1.14-.97,1.42-1.2l-1.13-3.35.39.1h0l1.34,3.76-1.39,1.55c-.05.05-.2.14-.28.09-.02-.05-.01-.1.02-.14.02-.02.24-.16.14-.24h0ZM201.33,87.64s.09-.02.12-.05c.03-.03.05-.07.05-.12s-.02-.09-.05-.12c-.03-.03-.07-.05-.12-.05h0c-.05.06-.1.12-.16.18,0,.05.02.09.05.12.03.03.07.05.12.05h0ZM201.43,87.15s.03,0,.04,0c.05,0,.09-.02.12-.05.03-.03.05-.07.05-.12,0-.03,0-.06-.02-.08,0-.01-.01-.02-.02-.03-.05.1-.11.19-.17.28h0ZM198.86,87.8c0,.05-.03.1-.06.14.05.02.1.04.14.08.06.06.09.14.09.23,0,.06-.02.12-.05.17.08,0,.16.04.21.1.06.06.09.14.09.23v.02s.01,0,.01,0c.09,0,.17.04.23.1.03.03.05.06.07.1.01-.02.03-.04.04-.06.06-.06.14-.1.23-.1.07,0,.13.02.18.06,0-.02,0-.05,0-.07,0-.09.04-.17.09-.23.06-.06.14-.1.23-.1.03,0,.07,0,.1.02-.02-.04-.04-.1-.04-.15,0-.09.04-.17.09-.23.06-.06.14-.1.23-.1.01,0,.02,0,.03,0,0-.03-.01-.06-.01-.09,0-.07.02-.13.05-.18-.59.35-1.31.31-1.95.05h0ZM201.01,87.61s.02,0,.04,0v-.02s-.04.02-.04.02h0ZM200.35,88.97s.09-.02.12-.05c.03-.03.05-.07.05-.12s-.02-.09-.05-.12c-.03-.03-.07-.05-.12-.05s-.09.02-.12.05c-.03.03-.05.07-.05.12s.02.09.05.12c.03.03.07.05.12.05h0ZM200.73,88.51s.09-.02.12-.05c.03-.03.05-.07.05-.12s-.02-.09-.05-.12c-.03-.03-.07-.05-.12-.05s-.09.02-.12.05c-.03.03-.05.07-.05.12s.02.09.05.12c.03.03.07.05.12.05h0ZM201.07,88.1s.09-.02.12-.05c.03-.03.05-.07.05-.12s-.02-.09-.05-.12c-.03-.03-.07-.05-.12-.05s-.09.02-.12.05c-.03.03-.05.07-.05.12s.02.09.05.12c.03.03.07.05.12.05h0ZM198.46,87.6s-.02.02-.03.03c-.03.03-.05.07-.05.12s.02.09.05.12c.03.03.07.05.12.05s.09-.02.12-.05c.03-.03.05-.07.05-.12v-.02c-.09-.04-.17-.08-.25-.13h0ZM198.83,88.13s-.07-.05-.12-.05-.09.02-.12.05c-.03.03-.05.07-.05.12s.02.09.05.12c.03.03.07.05.12.05s.09-.02.12-.05c.03-.03.05-.07.05-.12s-.02-.09-.05-.12h0ZM199.23,88.93s-.02.03-.03.04c-.01.01-.03.03-.04.04-.01.02-.02.05-.02.08,0,.05.02.09.05.12.03.03.07.05.12.05s.09-.02.12-.05c.03-.03.05-.07.05-.12s-.02-.09-.05-.12c-.03-.03-.07-.05-.12-.05-.03,0-.05,0-.07.02h0ZM199.09,88.62s-.07-.05-.12-.05-.09.02-.12.05c-.03.03-.05.07-.05.12s.02.09.05.12c.03.03.07.05.12.05.03,0,.05,0,.07-.02,0-.01.02-.03.03-.04.01-.01.03-.03.04-.04.01-.02.02-.05.02-.08,0-.05-.02-.09-.05-.12h0ZM199.98,89.01s-.07-.05-.12-.05-.09.02-.12.05c-.03.03-.05.07-.05.12s.02.09.05.12c.03.03.07.05.12.05s.09-.02.12-.05c.03-.03.05-.07.05-.12s-.02-.09-.05-.12h0ZM192.8,81.98c-.03.06.51.32.59.51-.07.05-.7-.38-.77-.37-.06-.01-.04.04.02.06.21.13.58.36.64.44-.15,0-.45-.2-.66-.29-.06-.01-.09.05-.02.1.07.03.57.35.56.36.6.53,1.16,1.07,1.73,1.63.55.55,1.09,1.14,1.64,1.78.04-.5.39-.66.75-.67l-2.58-2.52c0-.25.04-.45.12-.66-.32-.02-.41,0-.61.24l-.06-.04c-.07-.05-.15-.11-.24-.18-.21-.17-.46-.36-.7-.42-.04-.01-.08-.02-.12-.02.03.04.38.21.41.38-.06.02-.5-.32-.73-.36h0ZM198.73,83.88c-.02.29-.21.61-.53.97.32-.02.84-.71,1.06-1.13.07.29-.22.69-.52.99.35-.07.66-.33.9-.75,0,.2-.1.4-.25.59.41-.3.63-.62.68-.91.03-.29.31-.2.58-.1.61.32,1.07.99,1.1,2.01-.23,1.51-1,2.27-2.43,2.16-.68-.16-1.23-.65-1.54-1.51-.16-.92.17-1.69.94-2.32h0ZM201.94,85.59c-.02-.59.06-.83.22-1.1.1-.17.1-.32.05-.35-.25-.13-.33.41-.44.41-.11,0-.14-.28-.03-.41.27-.31.59-.31.78.08.25.6-.11,1.39-.57,1.37h0ZM200.58,84.41c-.26-.04-.49.07-.58.33-.51-.41.37-.9.58-.33h0ZM198.89,85.25c-.17-.03-.54.06-.71.3-.35-.43.57-.91.71-.3h0ZM198.61,85.41c.15-.04.31.08.37.27.06.19-.02.38-.17.43-.15.04-.31-.08-.37-.27-.06-.19.02-.38.17-.43h0ZM199.15,85.99c.34.04.68-.09.83-.33.31.52-.57.9-.83.33h0ZM200.23,84.71c.15-.02.3.13.33.33.03.2-.07.38-.23.4-.15.02-.3-.13-.33-.33-.03-.2.07-.38.23-.4h0ZM198.87,86.6c1.17.22,1.73-.38,2.05-1.24-.02-.03-.04-.07-.05-.11-.02-.13.06-.24.19-.26.13-.01.25.08.27.21.02.12-.05.23-.17.25.04.75-.55,2.65-2.4,1.4-.03.02-.07.03-.1.04-.14.02-.28-.09-.31-.24-.03-.15.07-.28.21-.29.14-.02.28.09.31.23h0ZM200.85,85.98c-.37.53-.92.94-1.7.84.58.46,1.63.15,1.7-.84h0Z" fill="#000000"/>
  <path class="st1" d="M85.68,93.76h2.02c.67,0,1.15-.08,1.43-.25.28-.17.42-.44.42-.82s-.14-.65-.43-.81c-.29-.16-.77-.24-1.46-.24h-1.98v2.13h0ZM85.68,89.54h1.8c.6,0,1.03-.07,1.27-.23.25-.15.37-.4.37-.76,0-.38-.13-.64-.4-.78-.26-.14-.88-.21-1.83-.21h-1.21v1.98h0ZM81.45,96.44v-11.49h5.57c1.2,0,2.07.03,2.62.08.55.05,1.02.14,1.41.26.69.22,1.22.56,1.58,1.02.37.46.55,1.03.55,1.69,0,.52-.14.97-.41,1.36-.27.39-.69.71-1.23.95.72.22,1.25.55,1.6.98.34.44.52,1,.52,1.7s-.17,1.27-.5,1.78c-.33.5-.82.89-1.46,1.16-.43.19-.93.32-1.48.4-.55.08-1.47.12-2.75.12h-6.01ZM101.17,96.44v-11.49h4.36v3.9h4.06v-3.9h4.36v11.49h-4.36v-4.46h-4.06v4.46h-4.36ZM121.81,96.44v-11.49h4.44v11.49h-4.44ZM138.94,96.44h-4.39v-11.49h6.16l2.36,6.06,2.51-6.06h6.01v11.49h-4.39l.06-5.87-2.49,5.87h-3.39l-2.51-5.98.06,5.98h0ZM174.19,92.51h2.86l-1.41-3.98-1.44,3.98h0ZM168.34,96.44l4.98-11.49h4.61l4.98,11.49h-4.51l-.53-1.35h-4.51l-.55,1.35h-4.47Z" fill="#000000"/>
  <polygon class="st2" points="73.91 111.37 210.31 111.37 210.31 102.32 73.91 102.32 73.91 111.37 73.91 111.37" fill="#000000"/>
  <path class="st5" d="M81.91,107.49v-.69h2.62s0,.07,0,.09c0,.36-.1.7-.29,1.02-.19.32-.46.57-.8.75-.33.18-.68.27-1.04.27s-.73-.09-1.08-.28c-.34-.18-.6-.44-.8-.76-.19-.33-.29-.68-.29-1.05,0-.44.13-.84.4-1.21.23-.32.54-.56.92-.72.27-.11.55-.17.83-.17.26,0,.52.05.77.14.25.1.47.23.67.4.25.23.42.46.51.72h-.89c-.12-.18-.27-.32-.46-.42-.19-.1-.39-.15-.61-.15-.4,0-.73.14-1,.42-.12.13-.21.28-.28.46-.07.18-.11.36-.11.53,0,.28.08.55.25.79.15.22.35.39.59.49.18.07.37.11.58.11.25,0,.49-.07.7-.2.21-.13.38-.31.49-.54h-1.69ZM87.84,104.74c.39,0,.76.1,1.1.31.34.21.6.48.77.83.15.3.23.61.23.95,0,.39-.1.76-.31,1.09-.21.34-.48.59-.84.77-.3.15-.62.23-.95.23-.4,0-.77-.1-1.11-.31-.34-.2-.59-.48-.77-.83-.15-.3-.23-.62-.23-.98,0-.37.1-.73.31-1.07.2-.33.48-.59.84-.77.29-.15.61-.23.96-.23h0ZM87.84,105.43c-.37,0-.69.14-.96.41-.13.13-.22.28-.29.45-.07.17-.11.35-.11.53,0,.4.13.73.4,1.01.26.27.58.4.96.4s.69-.13.95-.4c.27-.28.4-.61.4-.99,0-.19-.04-.37-.11-.54-.07-.18-.17-.33-.3-.45-.26-.26-.58-.4-.95-.4h0ZM91.34,108.84v-4.03h.75v3.33h1.22v.69h-1.97ZM94.61,108.84v-4.03h.92c.6,0,1.08.1,1.42.3.27.16.49.4.66.72.16.32.24.65.24,1,0,.48-.14.91-.43,1.28-.19.25-.43.43-.73.55-.29.11-.68.17-1.14.17h-.93ZM95.36,108.15h.16c.24,0,.43-.02.57-.04.15-.03.28-.08.41-.15.2-.12.35-.28.46-.49.1-.19.14-.39.14-.61,0-.31-.09-.59-.27-.84-.14-.18-.31-.31-.51-.39-.2-.08-.48-.12-.81-.12h-.14v2.64h0Z" fill="#000000"/>
  <path class="st5" d="M104.81,108.84v-4.03h.92c.6,0,1.08.1,1.42.3.27.16.49.4.66.72.16.32.24.65.24,1,0,.48-.14.91-.43,1.28-.19.25-.43.43-.73.55-.29.11-.68.17-1.14.17h-.93ZM105.56,108.15h.16c.24,0,.43-.02.57-.04.15-.03.28-.08.41-.15.2-.12.35-.28.46-.49.1-.19.14-.39.14-.61,0-.31-.09-.59-.27-.84-.14-.18-.31-.31-.51-.39-.2-.08-.48-.12-.81-.12h-.14v2.64h0ZM109.43,108.84v-4.03h.75v4.03h-.75ZM111.36,108.84l1.68-4.03h.58l1.69,4.03h-.82l-.43-1.04h-1.43l-.44,1.04h-.82ZM112.9,107.11h.86l-.43-1.24-.43,1.24h0ZM116.5,108.84v-4.03h1.04l1.07,3.05,1.06-3.05h1.03v4.03h-.75v-3.02l-1.04,3.02h-.63l-1.04-3.02v3.02h-.75ZM124.2,104.74c.39,0,.76.1,1.1.31.34.21.6.48.77.83.15.3.23.61.23.95,0,.39-.1.76-.31,1.09-.21.34-.48.59-.84.77-.3.15-.62.23-.95.23-.4,0-.77-.1-1.11-.31-.34-.2-.59-.48-.77-.83-.15-.3-.23-.62-.23-.98,0-.37.1-.73.31-1.07.2-.33.48-.59.84-.77.29-.15.61-.23.96-.23h0ZM124.2,105.43c-.37,0-.69.14-.96.41-.13.13-.22.28-.29.45-.07.17-.11.35-.11.53,0,.4.13.73.4,1.01.26.27.58.4.96.4s.69-.13.95-.4c.27-.28.4-.61.4-.99,0-.19-.04-.37-.11-.54-.07-.18-.17-.33-.3-.45-.26-.26-.58-.4-.95-.4h0ZM127.69,108.84v-4.03h.85l1.67,2.93v-2.93h.75v4.03h-.84l-1.68-2.92v2.92h-.75ZM132.53,108.84v-4.03h.92c.6,0,1.08.1,1.42.3.27.16.49.4.66.72.16.32.24.65.24,1,0,.48-.14.91-.43,1.28-.19.25-.43.43-.73.55-.29.11-.68.17-1.14.17h-.93ZM133.28,108.15h.16c.24,0,.43-.02.57-.04.15-.03.28-.08.41-.15.2-.12.35-.28.46-.49.1-.19.14-.39.14-.61,0-.31-.09-.59-.27-.84-.14-.18-.31-.31-.51-.39-.2-.08-.48-.12-.81-.12h-.14v2.64h0ZM136.87,107.69h.78c0,.16.06.29.15.39.1.1.23.14.4.14s.29-.05.39-.14c.1-.1.15-.22.15-.36s-.04-.26-.12-.35c-.08-.09-.22-.17-.42-.24-.29-.1-.48-.18-.57-.23-.1-.05-.19-.11-.27-.2-.23-.22-.34-.49-.34-.82,0-.3.11-.56.32-.78.24-.24.52-.37.86-.37.18,0,.35.04.51.12.16.08.3.19.42.32.16.19.25.43.26.71h-.77c-.01-.14-.06-.25-.13-.33-.08-.08-.18-.12-.31-.12s-.23.04-.3.11c-.08.07-.11.17-.11.3,0,.13.05.24.15.32.08.07.25.14.52.24.31.11.54.23.69.37.24.23.37.51.37.85,0,.36-.12.66-.37.91-.27.26-.58.4-.94.4-.2,0-.4-.04-.59-.13-.19-.09-.34-.21-.46-.36-.16-.21-.25-.45-.26-.74h0Z" fill="#000000"/>
  <path class="st5" d="M173.2,108.84v-4.03h1.02c.29,0,.5.01.63.04.13.03.26.08.38.16.36.23.54.58.54,1.03,0,.26-.06.49-.19.7-.17.28-.41.46-.71.52-.12.03-.34.04-.66.04h-.26v1.54h-.75ZM173.95,106.61h.24c.22,0,.39-.02.5-.06.1-.04.18-.1.25-.2.07-.09.1-.2.1-.31s-.03-.21-.09-.3c-.06-.09-.15-.15-.25-.19-.09-.03-.25-.05-.47-.05h-.27v1.1h0ZM177.08,108.84v-4.03h.75v3.33h1.22v.69h-1.97ZM179.97,108.84l1.68-4.03h.58l1.69,4.03h-.82l-.43-1.04h-1.43l-.44,1.04h-.82ZM181.51,107.11h.86l-.43-1.24-.43,1.24h0ZM185.33,108.84v-3.33h-.75v-.69h2.23v.69h-.74v3.33h-.75ZM188.07,108.84v-4.03h.75v4.03h-.75ZM190.39,108.84v-4.03h.85l1.67,2.93v-2.93h.75v4.03h-.84l-1.68-2.92v2.92h-.75ZM195.18,104.82h.75v2.56c0,.15,0,.26.03.34.02.08.05.15.1.23.13.19.31.29.56.29.12,0,.23-.03.33-.08.1-.05.18-.12.24-.21.05-.07.08-.15.1-.23.02-.08.03-.2.03-.35v-2.56h.75v2.56c0,.44-.09.78-.27,1.01-.13.16-.29.29-.48.39-.21.1-.43.16-.68.16-.31,0-.59-.08-.84-.25-.21-.14-.37-.31-.46-.52-.1-.2-.14-.47-.14-.79v-2.56h0ZM199.59,108.84v-4.03h1.04l1.07,3.05,1.06-3.05h1.03v4.03h-.75v-3.02l-1.04,3.02h-.63l-1.04-3.02v3.02h-.75Z" fill="#000000"/>
  <path class="st4" d="M101.42,106.3c.52,0,.95.42.95.95s-.42.95-.95.95-.95-.42-.95-.95.42-.95.95-.95h0Z" fill="#000000"/>
  <polygon class="st4" points="171.33 86.08 139.68 103.62 156.17 103.62 171.33 86.08 171.33 86.08" fill="#000000"/>
  <path class="st0" d="M149.71,102.63c.05-.08.08-.15.1-.22.02-.07.03-.14.03-.21,0-.06-.02-.14-.06-.21-.03-.08-.09-.18-.17-.31l-.53-.86c-.07-.11-.14-.17-.2-.19-.07-.02-.16,0-.28.07l-.02-.04c.05-.03.11-.06.16-.1.06-.03.14-.08.25-.15.11-.07.19-.11.24-.15.05-.03.1-.06.14-.09l.02.04c-.1.08-.16.15-.18.21-.01.06.01.15.08.26l.52.85c.1.16.16.28.19.36.03.08.03.16.02.24-.01.08-.04.17-.09.25-.04.09-.1.17-.18.27l-.04-.02h0ZM150.39,101.7l-.02-.04c.11-.09.17-.16.19-.22.02-.06-.01-.15-.09-.27l-.53-.86c-.08-.13-.15-.2-.21-.21-.06-.02-.15,0-.26.06l-.02-.04c.07-.04.15-.09.24-.14.08-.05.2-.12.36-.22.18-.11.32-.2.4-.25.08-.05.16-.1.23-.14.02.05.05.11.08.17.03.06.07.13.11.2l-.03.02c-.08-.11-.15-.16-.23-.17-.08,0-.19.03-.33.11l-.29.18.4.65.23-.14c.12-.08.2-.14.23-.2.03-.06.02-.14-.01-.23l.04-.02s.06.11.11.2c.05.09.09.16.12.21l.08.13-.03.02c-.06-.07-.12-.11-.18-.11-.07,0-.16.04-.28.11l-.23.14.25.4c.08.12.15.19.22.19.07,0,.18-.03.33-.12.13-.08.22-.18.25-.29.03-.11.02-.24-.04-.39l.04-.02c.05.09.09.17.12.26.03.09.06.17.08.25-.11.06-.22.13-.35.21-.13.08-.26.16-.41.25-.14.08-.24.15-.32.2-.07.05-.14.09-.21.13h0ZM152.49,100.49l-1.18-1.07c-.1-.09-.17-.14-.23-.15-.06-.01-.12,0-.19.03l-.02-.04s.08-.04.12-.07c.04-.03.11-.06.2-.12.09-.06.16-.1.21-.13.05-.03.09-.06.13-.09l.02.04c-.08.05-.12.1-.14.14-.02.04,0,.09.03.15,0,.02.02.04.05.06.02.02.05.05.08.08l.78.71-.25-1.22c-.06-.05-.12-.08-.18-.08-.06,0-.12.01-.18.05h-.01s-.02-.03-.02-.03c.04-.02.08-.05.13-.07.05-.03.11-.07.21-.13.09-.06.16-.1.21-.13.05-.03.09-.06.13-.09l.02.04c-.07.05-.12.09-.14.13-.02.04-.02.09.01.13.01.02.02.03.04.05.02.02.04.04.07.06l.84.74-.11-.5c-.04-.2-.08-.36-.12-.49-.03-.12-.06-.2-.09-.24-.03-.05-.07-.07-.12-.07-.05,0-.11.02-.19.06l-.02-.04s.08-.04.12-.07c.04-.03.11-.06.19-.12.08-.05.15-.09.19-.12.04-.03.08-.05.11-.07l.02.04c-.08.05-.13.11-.14.19-.02.08-.01.2.02.35l.16.73c.03.14.06.28.09.41.03.13.06.25.09.37l-.03.02-1.17-1.03.32,1.56-.03.02h0ZM154.11,99.41l-.02-.04c.11-.09.17-.16.19-.22.02-.06-.01-.15-.09-.27l-.53-.86c-.08-.13-.15-.2-.21-.21-.06-.02-.15,0-.26.06l-.02-.04c.07-.04.15-.09.24-.14.08-.05.2-.12.36-.22.18-.11.32-.2.4-.25.08-.05.16-.1.23-.14.02.05.05.11.08.17.03.06.07.13.11.2l-.03.02c-.08-.11-.15-.16-.23-.17-.08,0-.19.03-.33.11l-.29.18.4.65.23-.14c.12-.08.2-.14.23-.2.03-.06.02-.14-.01-.23l.04-.02s.06.11.11.2c.05.09.09.16.12.21l.08.13-.03.02c-.06-.07-.12-.11-.18-.11-.07,0-.16.04-.28.11l-.23.14.25.4c.08.12.15.19.22.19.07,0,.18-.03.33-.12.13-.08.22-.18.25-.29.03-.11.02-.24-.04-.39l.04-.02c.05.09.09.17.12.26.03.09.06.17.08.25-.11.06-.22.13-.35.21-.13.08-.26.16-.41.25-.14.08-.24.15-.32.2-.07.05-.14.09-.21.13h0ZM155.61,98.49l-.02-.04c.11-.08.17-.15.18-.22.01-.07-.03-.18-.13-.34l-.47-.76c-.08-.14-.16-.21-.22-.23-.06-.02-.16,0-.28.07l-.02-.04s.1-.06.15-.09c.05-.03.13-.08.24-.15.11-.07.19-.12.24-.15.05-.03.1-.07.15-.1l.02.04c-.11.08-.17.15-.18.22-.01.07.02.17.11.3l.47.76c.07.11.11.18.14.22.03.03.05.06.08.07.02.01.05.01.09,0,.04-.01.11-.05.21-.11.1-.06.18-.12.22-.15.04-.04.07-.08.09-.12.03-.05.05-.12.06-.19,0-.07.01-.17,0-.28h.04s.13.5.13.5c-.14.08-.26.16-.37.22-.11.06-.21.13-.31.19-.06.04-.15.1-.29.18-.13.08-.24.15-.32.2h0ZM157.09,97.58l-.02-.04c.11-.08.17-.15.18-.22.01-.07-.03-.18-.13-.34l-.47-.76c-.08-.14-.16-.21-.22-.23-.06-.02-.16,0-.28.07l-.02-.04s.1-.06.15-.09c.05-.03.13-.08.24-.15.11-.07.19-.12.24-.15.05-.03.1-.07.15-.1l.02.04c-.11.08-.17.15-.18.22-.01.07.02.17.11.3l.47.76c.07.11.11.18.14.22.03.03.05.06.08.07.02.01.05.01.09,0,.04-.01.11-.05.21-.11.1-.06.18-.12.22-.15.04-.04.07-.08.09-.12.03-.05.05-.12.06-.19,0-.07.01-.17,0-.28h.04s.13.5.13.5c-.14.08-.26.16-.37.22-.11.06-.21.13-.31.19-.06.04-.15.1-.29.18-.13.08-.24.15-.32.2h0ZM158.56,96.67l-.02-.04c.11-.09.17-.16.19-.22.02-.06-.01-.15-.09-.27l-.53-.86c-.08-.13-.15-.2-.21-.21-.06-.02-.15,0-.26.06l-.02-.04c.07-.04.15-.09.24-.14.08-.05.2-.12.36-.22.18-.11.32-.2.4-.25.08-.05.16-.1.23-.14.02.05.05.11.08.17.03.06.07.13.11.2l-.03.02c-.08-.11-.15-.16-.23-.17-.08,0-.19.03-.33.11l-.29.18.4.65.23-.14c.12-.08.2-.14.23-.2.03-.06.02-.14-.01-.23l.04-.02s.06.11.11.2c.05.09.09.16.12.21l.08.13-.03.02c-.06-.07-.12-.11-.18-.11-.07,0-.16.04-.28.11l-.23.14.25.4c.08.12.15.19.22.19.07,0,.18-.03.33-.12.13-.08.22-.18.25-.29.03-.11.02-.24-.04-.39l.04-.02c.05.09.09.17.12.26.03.09.06.17.08.25-.11.06-.22.13-.35.21-.13.08-.26.16-.41.25-.14.08-.24.15-.32.2-.07.05-.14.09-.21.13h0ZM160.09,94.65c.15-.1.25-.21.29-.33.04-.11.03-.23-.04-.34-.07-.11-.17-.17-.29-.19-.13-.01-.26.02-.42.11l.46.74h0ZM160.08,95.74l-.03-.04c.11-.08.17-.15.18-.21.01-.07-.03-.18-.13-.34l-.46-.75c-.06-.09-.1-.16-.13-.19-.03-.03-.06-.05-.1-.06-.03,0-.06,0-.1,0-.04,0-.09.02-.15.05l-.02-.04c.17-.1.34-.21.51-.33.04-.03.07-.05.08-.05.2-.12.36-.18.5-.17.13,0,.24.07.32.21.05.08.07.17.06.26,0,.09-.05.18-.11.28.3.18.55.29.76.34.2.05.38.04.53-.02l.02.04s-.03.02-.05.03c-.2.11-.35.17-.44.19-.06,0-.12,0-.18-.01-.07-.02-.15-.05-.26-.1-.07-.03-.16-.08-.25-.13-.09-.05-.15-.08-.17-.09-.03-.01-.06-.01-.09,0-.03,0-.07.02-.13.05l-.12.05.2.32c.09.15.18.24.25.26.07.02.17,0,.31-.08l.02.04c-.12.07-.21.12-.26.16-.06.03-.11.07-.16.1-.05.03-.1.06-.16.1-.06.04-.14.09-.24.15h0ZM161.56,94.18l.04-.03c.13.12.26.19.38.22.13.03.24,0,.36-.06.09-.05.14-.12.17-.21.02-.09.01-.17-.04-.25-.04-.07-.1-.12-.17-.15-.07-.03-.16-.05-.26-.05h-.24c-.13,0-.24,0-.33-.05-.09-.04-.16-.1-.21-.18-.08-.12-.09-.26-.05-.4.04-.14.14-.26.28-.35.06-.04.13-.07.2-.09.07-.02.14-.03.22-.03.02.05.05.1.08.16.03.06.07.12.11.2l-.04.02c-.09-.12-.19-.19-.28-.22-.09-.03-.18-.02-.27.04-.08.05-.13.12-.15.2-.02.08,0,.17.04.25.03.05.08.09.15.12.07.03.14.04.22.04h.36c.12,0,.22.02.31.05.08.04.15.1.2.18.08.13.09.27.04.42-.05.15-.15.27-.31.37-.08.05-.17.09-.25.11-.09.02-.17.04-.25.03-.05-.05-.1-.11-.15-.17-.05-.06-.1-.12-.14-.18h0Z" fill="#000000"/>
  <path class="st5" d="M147.01,107.69h.78c0,.16.06.29.16.39.1.1.23.14.4.14s.29-.05.39-.14c.1-.1.15-.22.15-.36s-.04-.26-.12-.35c-.08-.09-.22-.17-.42-.24-.29-.1-.48-.18-.57-.23-.1-.05-.19-.11-.27-.2-.23-.22-.34-.49-.34-.82,0-.3.11-.56.32-.78.24-.24.52-.37.86-.37.18,0,.35.04.51.12.16.08.3.19.42.32.16.19.25.43.26.71h-.77c-.01-.14-.06-.25-.13-.33-.08-.08-.18-.12-.31-.12s-.23.04-.3.11c-.08.07-.11.17-.11.3,0,.13.05.24.15.32.08.07.25.14.52.24.31.11.54.23.69.37.24.23.37.51.37.85,0,.36-.12.66-.37.91-.27.26-.58.4-.94.4-.2,0-.4-.04-.59-.13-.19-.09-.34-.21-.46-.36-.16-.21-.25-.45-.26-.74h0ZM151.02,108.84v-4.03h.75v4.03h-.75ZM153.34,108.84v-4.03h.75v3.33h1.22v.69h-1.97ZM157.41,108.84l-1.57-4.03h.78l1.08,3.06,1.09-3.06h.78l-1.56,4.03h-.61ZM160.74,108.84v-4.03h2.16v.69h-1.41v.98h1.35v.69h-1.35v.96h1.41v.69h-2.16ZM164.35,108.84v-4.03h1.23c.24,0,.44.02.6.07.16.05.3.13.43.23.28.25.43.56.43.94,0,.19-.04.38-.11.55-.08.18-.18.32-.31.44-.15.14-.36.24-.63.3l1.09,1.48h-.9l-1.08-1.54v1.54h-.75ZM165.1,106.74h.48c.24,0,.42-.06.55-.19.11-.11.16-.26.16-.43,0-.19-.06-.33-.19-.44-.13-.11-.3-.17-.52-.17h-.48v1.23h0Z" fill="#000000"/>
  <path class="st4" d="M143.37,106.3c.52,0,.95.42.95.95s-.42.95-.95.95-.95-.42-.95-.95.42-.95.95-.95h0Z" fill="#000000"/>
  <path class="st4" d="M170.13,106.3c.52,0,.95.42.95.95s-.42.95-.95.95-.95-.42-.95-.95.42-.95.95-.95h0Z" fill="#000000"/>
</svg>