<?xml version="1.0" encoding="UTF-8"?>
<svg id="Layer_1" xmlns="http://www.w3.org/2000/svg" version="1.1" viewBox="0 0 284.22 185.49">
  <!-- Generator: Adobe Illustrator 30.1.0, SVG Export Plug-In . SVG Version: 2.1.1 Build 136)  -->
  <path d="M190.48,98.88c-.05.22-.08.43-.14.64-.37,1.38-1.34,2.18-2.63,2.63-1.18.41-2.4.46-3.64.34-2.16-.22-4.16-.92-6.07-1.93-.15-.08-.26-.07-.4,0-1.44.75-2.92,1.39-4.51,1.76-1.58.37-3.15.47-4.71-.07-1.14-.39-2.09-1.07-2.89-1.96-.11-.13-.22-.26-.33-.38-.64.31-1.26.65-1.91.93-2.02.9-4.13,1.44-6.33,1.61-.76.06-1.52.09-2.27.09-8.46,0-16.92,0-25.39,0-3.59,0-6.95-.82-10.08-2.6-.03-.02-.06-.03-.04-.02-.41.38-.79.76-1.19,1.1-1.15.99-2.5,1.5-4.02,1.57-1.77.08-3.43-.36-5.04-1.01-.77-.31-1.52-.69-2.27-1.04-.14-.07-.25-.08-.4,0-1.77.94-3.62,1.61-5.61,1.88-1.56.21-3.12.18-4.59-.49-1.26-.57-2.05-1.52-2.23-2.93,0-.05-.03-.1-.05-.14,0-.26,0-.51,0-.77.08-.31.14-.63.25-.93.55-1.4,1.63-2.12,3.07-2.34,1.32-.21,2.59.06,3.84.5.29.1.56.25.86.33.4.12.55.44.72.76-.57-.27-1.12-.55-1.7-.78-1.17-.46-2.37-.68-3.63-.47-1.39.23-2.48,1.17-2.76,2.44-.32,1.43.36,2.8,1.76,3.51.83.42,1.72.61,2.63.65,2.41.12,4.68-.44,6.83-1.51.04-.02.07-.04.11-.06.01,0,.02-.02.05-.06-.38-.2-.75-.4-1.12-.6-.41-.21-.82-.41-1.23-.63-.15-.08-.27-.08-.42,0-.85.45-1.73.85-2.68,1.05-.57.12-1.15.18-1.71-.07-.55-.24-.96-.6-1.02-1.23-.06-.62.23-1.09.7-1.45.52-.39,1.12-.47,1.75-.41,1.11.1,2.1.56,3.06,1.08.26.14.44.14.68-.03.69-.49,1.41-.96,2.17-1.47-1.11-.71-2.19-1.39-3.29-2.09,1.56-1.12,2.94-2.39,3.82-4.17.47.85,1,1.62,1.67,2.27.68.66,1.45,1.18,2.32,1.58-1.13.72-2.24,1.43-3.4,2.16.11.09.17.14.24.18.77.48,1.55.96,2.32,1.44.14.09.24.07.37,0,.96-.51,1.93-.98,3.02-1.12.39-.05.8-.04,1.19.02.79.13,1.25.62,1.34,1.34.08.63-.33,1.35-.97,1.67-.38.19-.79.23-1.22.24-1.2,0-2.28-.41-3.29-1-.44-.26-.78-.27-1.19.02-.44.32-.93.57-1.4.85-.08.05-.15.1-.28.19.61.29,1.17.57,1.75.82,1.11.47,2.25.84,3.44,1.01,2,.28,3.88.01,5.49-1.33.28-.23.52-.51.79-.77-.71-.5-1.4-1-2.08-1.49.01-.02.03-.04.04-.06.07.05.15.09.22.14,2.5,1.74,5.26,2.84,8.25,3.31,1.1.17,2.22.27,3.33.27,9.08.02,18.17.03,27.25,0,4.29-.01,8.23-1.23,11.76-3.69.02-.01.04-.02.09,0-.21.17-.42.34-.64.5-.23.17-.47.34-.71.5-.23.16-.47.31-.75.49.27.26.52.53.79.77,1.26,1.07,2.73,1.49,4.36,1.45,1.89-.05,3.64-.65,5.34-1.44.32-.15.64-.32,1.01-.5-.51-.31-.97-.6-1.44-.88-.27-.16-.55-.41-.83-.41-.27,0-.54.24-.82.38-.74.37-1.49.71-2.33.81-.57.07-1.14.12-1.7-.07-.98-.33-1.5-1.37-1.1-2.24.3-.65.87-.88,1.54-.93,1.11-.09,2.11.29,3.09.75.29.13.56.29.84.42.07.03.19.05.25.01.84-.51,1.68-1.04,2.52-1.56.02-.01.03-.04.1-.1-1.13-.72-2.24-1.43-3.38-2.16,1.77-.81,3.06-2.11,3.98-3.86.88,1.77,2.25,3.05,3.83,4.17-1.09.69-2.17,1.37-3.28,2.08.17.12.3.22.44.31.63.42,1.26.84,1.88,1.27.12.08.21.08.34,0,.89-.49,1.8-.93,2.81-1.11.64-.12,1.28-.12,1.87.18.68.34,1.07,1.02.98,1.68-.08.61-.61,1.13-1.3,1.28-.75.17-1.48.01-2.18-.25-.66-.25-1.29-.56-1.94-.84-.1-.04-.24-.07-.32-.03-.78.39-1.56.81-2.33,1.21-.03.01-.05.04-.13.11.62.26,1.2.54,1.8.75,1.62.59,3.3.9,5.04.84,1.07-.04,2.1-.23,3.04-.77,1.7-.98,2.16-3.13.98-4.61-.64-.81-1.53-1.16-2.53-1.27-1.59-.17-3.03.31-4.41,1.02-.17.09-.35.18-.52.28,0,0-.01,0-.04-.01.17-.32.34-.61.72-.76,1.38-.57,2.78-.98,4.29-.88,1.79.13,3.16,1.13,3.59,2.73.05.2.1.39.14.59v.77ZM103.82,94.11c.93.59,1.81,1.15,2.7,1.7.06.03.18.01.25-.03.28-.17.56-.36.83-.55.51-.35,1.02-.71,1.56-1.09-1.1-.74-1.97-1.65-2.66-2.77-.77,1.03-1.59,1.97-2.67,2.74ZM175.06,94.15c.07.04.11.05.14.08.76.52,1.51,1.05,2.27,1.56.07.04.22.03.29-.01.63-.39,1.26-.79,1.88-1.19.24-.15.48-.32.75-.49-1.07-.75-1.89-1.7-2.66-2.73-.69,1.12-1.56,2.03-2.67,2.78ZM175.27,98.27s.04.05.05.06c.51.3,1.06.56,1.53.92.53.4.97.41,1.52.05.56-.36,1.18-.63,1.77-.94-.02-.04-.02-.06-.03-.07-.75-.51-1.49-1.02-2.24-1.51-.05-.04-.18-.01-.24.03-.54.33-1.07.67-1.6,1.01-.25.16-.5.31-.76.46ZM104.04,98.33c.11.06.19.11.27.15.62.32,1.25.62,1.85.97.33.19.57.18.89-.03.61-.4,1.25-.75,1.89-1.13-.04-.04-.07-.07-.11-.09-.76-.47-1.51-.95-2.28-1.41-.07-.04-.21-.02-.28.03-.5.33-1,.68-1.5,1.02-.24.16-.48.32-.74.49ZM173.84,98.25c-.98-.46-1.91-.86-2.94-.96-.5-.05-.99-.01-1.39.35-.27.25-.39.56-.3.92.1.37.37.58.74.61.47.03.95.06,1.42,0,.87-.11,1.67-.44,2.47-.92ZM110.38,98.25c.15.09.26.16.36.22.62.33,1.27.6,1.96.69.52.07,1.07.05,1.6.02.34-.02.61-.23.7-.58.1-.35,0-.66-.26-.91-.28-.28-.63-.39-1.02-.39-1.19-.02-2.24.47-3.35.96ZM181.67,98.42s.01.06.02.09c1.04.54,2.11.96,3.32.79.34-.05.64-.18.87-.44.34-.37.29-.87-.13-1.15-.17-.11-.38-.19-.59-.23-.57-.12-1.12.02-1.65.2-.62.22-1.23.48-1.84.72ZM102.57,98.5c-.53-.38-2.06-.92-2.78-1.02-.45-.06-.89-.04-1.28.21-.46.29-.53.83-.14,1.19.2.18.48.34.75.39,1.24.23,2.34-.22,3.44-.78Z"/>
  <path d="M93.74,109.32c.07-.41.11-.83.21-1.23.57-2.53,2.92-4.44,5.51-4.49.08,0,.15,0,.23,0,28.27,0,56.54,0,84.81,0,2.52,0,4.61,1.43,5.52,3.78,1.25,3.22-.54,6.89-3.85,7.83-.42.12-.87.14-1.31.2-.13.02-.26,0-.38,0-28.24,0-56.47,0-84.71.02-2.88,0-5.37-2.02-5.9-4.82-.06-.31-.09-.62-.13-.93,0-.12,0-.24,0-.36ZM142.11,104.12c-14.08,0-28.17,0-42.25,0-.44,0-.89.02-1.32.11-2.73.6-4.52,3.13-4.2,5.92.31,2.67,2.59,4.74,5.26,4.74,28.35,0,56.71,0,85.06,0,.28,0,.56-.02.84-.07,3.23-.6,5.17-3.97,4.1-7.08-.7-2.01-2.6-3.64-5.12-3.64-14.13.01-28.25,0-42.38,0Z"/>
  <path d="M153.08,72.28c3.32.18,6.6.18,9.89,0,0,.07.02.12.02.16,0,.43,0,.87,0,1.32-.37.03-.73.05-1.08.08-.21.02-.42.06-.63.11-.75.2-1.08.6-1.15,1.37-.03.36-.05.73-.05,1.1,0,5.99,0,11.98,0,17.97,0,.35.04.7.1,1.04.16.84.65,1.3,1.5,1.4.42.05.85.07,1.29.11v1.46c-3.29-.21-6.57-.2-9.89,0,0-.47,0-.93,0-1.39,0-.04.11-.12.18-.12.31-.03.61-.05.92-.06,1.01-.04,1.76-.72,1.86-1.72.05-.49.05-.99.05-1.48,0-2.06,0-4.13,0-6.19,0-.08,0-.17,0-.27h-9.92c0,.09-.01.18-.01.27,0,2.06,0,4.13,0,6.19,0,.53.02,1.06.08,1.58.1.9.86,1.57,1.77,1.62.32.02.65.03.97.06.07,0,.19.09.19.13.01.45,0,.9,0,1.37-3.31-.2-6.59-.21-9.88,0v-1.46c.41-.03.82-.06,1.22-.1,1.14-.1,1.55-.83,1.62-1.74.06-.75.04-1.5.04-2.25,0-5.31,0-10.63,0-15.94,0-.48-.01-.96-.03-1.43-.04-.92-.49-1.43-1.4-1.57-.47-.07-.95-.1-1.44-.15v-1.47c3.28.18,6.56.18,9.87,0,0,.47,0,.92-.01,1.37,0,.05-.14.13-.22.15-.43.06-.86.09-1.29.16-.91.14-1.31.56-1.41,1.48-.05.51-.09,1.02-.09,1.53-.01,2.15,0,4.3,0,6.45,0,.09,0,.18,0,.3h9.92c0-.06.02-.14.02-.21,0-2.45,0-4.9-.02-7.34,0-.4-.09-.81-.18-1.21-.12-.54-.5-.85-1.03-.94-.51-.09-1.03-.15-1.54-.2-.19-.02-.25-.08-.25-.27,0-.41,0-.82,0-1.26Z"/>
  <path d="M135.7,90.81c.45.09.91.19,1.4.3-.08.54-.16,1.06-.24,1.58-.21,1.42-.43,2.85-.64,4.27-.03.19-.12.28-.28.35-1.75.8-3.59,1.28-5.5,1.48-2.2.23-4.37.1-6.51-.5-3.41-.95-5.86-3.06-7.45-6.19-1.24-2.43-1.75-5.02-1.55-7.74.24-3.39,1.49-6.33,3.91-8.73,2.01-2,4.44-3.22,7.24-3.65,1.92-.3,3.84-.19,5.75.16,1.5.28,2.96.72,4.39,1.24.26.1.36.21.38.5.13,1.85.28,3.71.42,5.56,0,.02,0,.03-.01.09-.44-.03-.89-.04-1.34-.09-.06,0-.13-.15-.15-.25-.17-.77-.44-1.5-.86-2.17-.91-1.47-2.26-2.31-3.94-2.57-2.34-.38-4.59-.02-6.67,1.15-1.98,1.11-3.24,2.82-4.01,4.93-.68,1.88-.94,3.83-.7,5.81.35,2.94,1.46,5.54,3.62,7.62,1.24,1.2,2.79,1.8,4.44,2.17,1.35.3,2.71.32,4.04-.13,1.68-.57,2.81-1.75,3.55-3.33.27-.58.47-1.2.71-1.84Z"/>
  <path d="M168.43,75.55c-1.53,0-2.76-1.21-2.76-2.73,0-1.52,1.22-2.75,2.74-2.76,1.54,0,2.77,1.21,2.77,2.75,0,1.53-1.21,2.74-2.75,2.74ZM168.42,70.5c-1.29,0-2.3,1.02-2.3,2.31,0,1.28,1.03,2.31,2.31,2.31,1.27,0,2.31-1.04,2.31-2.32,0-1.28-1.03-2.31-2.31-2.3Z"/>
  <path d="M167.69,74.3h-.46v-2.89c.54,0,1.07-.03,1.59,0,.39.03.64.34.67.69.03.35-.19.67-.54.81-.07.03-.15.05-.18.06.3.42.6.84.92,1.29-.52.1-.53.09-.76-.3-.09-.16-.2-.32-.29-.48-.21-.37-.51-.5-.95-.4v1.2ZM167.7,72.69c.34-.02.66-.03.97-.07.22-.03.33-.19.33-.42,0-.22-.13-.36-.33-.39-.31-.04-.63-.05-.97-.07v.95Z"/>
  <g>
    <path d="M132.18,107.22h-.04c-.19,0-.28.09-.28.28,0,.16,0,.33,0,.49v.31s0,0,0,0c0,.04,0,.07,0,.11,0,.17,0,.32.01.47,0,.06.1.16.13.17.07,0,.14,0,.21,0,.24,0,.45-.02.65-.06.11-.02.25-.13.3-.24.18-.36.14-.75-.09-1.13-.18-.28-.46-.42-.88-.42Z"/>
    <path d="M149.29,107.16c-.57,0-1.06.31-1.27.82-.45,1.08-.33,2.13.37,3.03.28.36.7.57,1.15.57.65,0,1.21-.39,1.42-.99.07-.2.1-.42.14-.64.01-.1.03-.2.05-.3-.05-.81-.24-1.39-.61-1.86-.3-.39-.76-.61-1.24-.61Z"/>
    <path d="M127.08,107.16c-.65,0-1.21.42-1.41,1.04-.07.23-.11.47-.12.7-.04.95.15,1.61.61,2.14.29.33.7.52,1.14.52.62,0,1.17-.37,1.39-.95.08-.21.12-.45.15-.62.01-.06.02-.12.03-.16-.03-.89-.17-1.6-.69-2.17-.29-.32-.68-.49-1.1-.49Z"/>
    <path d="M111.06,107.22c-.09-.02-.15-.09-.21-.15-.02-.02-.05-.05-.07-.06l-.07-.06v.02s-.04.04-.06.06c-.04.06-.08.13-.16.16-.25.1-.35.27-.35.55,0,.41,0,.81,0,1.22,0,.62,0,1.25,0,1.87,0,.4.07.49.5.65.08.03.13.1.18.16.02.02.03.04.05.06l.06.06.04-.05s.04-.05.05-.07c.05-.07.1-.14.18-.18.24-.11.35-.31.36-.6,0-.97,0-2.01,0-3.04,0-.39-.09-.5-.49-.61Z"/>
    <path d="M141.52,107.24s-.09,0-.13,0c-.38.02-.46.1-.46.48,0,.34,0,.69,0,1.03v.45s0,.4,0,.4c0,.34,0,.69,0,1.03,0,.15.03.31.05.44.03.2.15.31.37.35.11.02.22.03.33.03.67,0,1.26-.38,1.54-1,.19-.42.25-.91.17-1.53-.12-.98-.91-1.69-1.88-1.69Z"/>
    <path d="M188.23,107.36c-.88-1.57-2.28-2.36-4.15-2.36-7.24,0-14.48,0-21.73,0h-29.06c-11.04,0-22.09,0-33.13,0-.36,0-.69.02-1,.06-1.14.16-2.21.82-2.92,1.82-.72,1-1,2.23-.79,3.36.44,2.29,2.24,3.77,4.58,3.77h28.08c18.68,0,37.36,0,56.04,0,.3,0,.57-.02.82-.05,1.44-.21,2.69-1.13,3.34-2.47.65-1.33.62-2.88-.09-4.14ZM114.7,111.55c-.21.25-.48.4-.74.42-.1,0-.2,0-.29,0-.11,0-.23,0-.35,0-.11,0-.23,0-.34,0h-.02c-.21,0-.41,0-.62,0-.26,0-.51,0-.77,0h-.22c-.09,0-.17-.04-.24-.07-.03-.01-.06-.03-.09-.04l-.12-.04-.05.02s-.05.03-.07.04c-.06.04-.13.08-.21.08-.29,0-.58,0-.87,0s-.58,0-.86,0c-.08,0-.15-.04-.21-.07-.02-.01-.05-.03-.07-.04l-.11-.04.07-.09s.03-.05.04-.07c.04-.07.09-.14.16-.18.26-.11.37-.31.38-.64,0-.26,0-.53,0-.79,0-.14,0-.27,0-.41,0-.07-.01-.12-.04-.15s-.08-.04-.15-.04c-.32,0-.63,0-.94,0s-.62,0-.93,0h0c-.07,0-.12.01-.15.04-.03.03-.04.08-.04.15,0,.14,0,.27,0,.41,0,.25,0,.51,0,.76.01.41.13.55.55.66.08.02.15.09.2.15.02.02.04.04.06.06l.1.09-.12.06s-.05.03-.07.04c-.07.04-.14.09-.23.09-.3,0-.59,0-.89,0s-.62,0-.93,0c-.08,0-.15-.04-.22-.08-.02-.01-.05-.03-.07-.04l-.1-.04.07-.09s.03-.04.04-.07c.04-.07.08-.14.15-.17.28-.11.39-.32.39-.67,0-.48,0-.97,0-1.45,0-.5,0-1,0-1.49,0-.46-.06-.53-.51-.67-.08-.02-.14-.09-.19-.15-.02-.02-.04-.04-.05-.06,0,.03,0,.06.01.09,0,.11.01.22.02.33.01.13.02.26.03.38,0,.07-.03.12-.06.17,0,.01-.02.03-.03.04l-.04.09-.08-.05s-.04-.02-.06-.03c-.07-.03-.15-.06-.16-.14-.11-.5-.45-.54-.88-.54h-.13q-.48,0-.48.47v.83c0,.7,0,1.41,0,2.11,0,.46.09.58.54.71.09.03.15.1.2.17.02.03.04.05.06.07l.1.1-.13.05s-.05.02-.08.04c-.07.03-.15.07-.23.07-.53.01-1,.02-1.45.02-.17,0-.34,0-.52,0-.09,0-.17-.05-.25-.09-.03-.02-.06-.03-.08-.05l-.13-.06.1-.09s.04-.04.06-.06c.05-.06.11-.12.19-.15.43-.15.5-.25.51-.67,0-.37,0-.74,0-1.1v-.57s0,0,0,0v-.38c0-.35,0-.71,0-1.06q0-.35-.36-.35h-.07c-.13,0-.26,0-.39,0-.32.02-.51.17-.59.45-.03.12-.07.24-.13.35-.04.07-.14.13-.23.13h-.03c-.1-.02-.17-.17-.16-.25.04-.39.08-.75.14-1.09.04-.24.24-.24.3-.24.02,0,.11,0,.11,0h.94c.72.02,1.43.03,2.15.04h.04c.23,0,.47-.02.7-.03h.13s.03,0,.05,0c.15,0,.26.05.32.16l.07-.03s.05-.03.08-.04c.07-.04.15-.08.23-.08.32,0,.65,0,.97,0,.26,0,.51,0,.77,0,.08,0,.15.04.22.08.02.01.05.03.07.04l.11.05-.08.09s-.03.04-.05.06c-.04.06-.09.12-.16.15-.23.09-.35.26-.35.53,0,.26,0,.53,0,.79v.18c0,.06.01.11.04.14.02.02.07.04.13.04.14,0,.27,0,.4,0h.56s.55,0,.55,0c.13,0,.27,0,.4,0h0c.05,0,.11,0,.14-.04.02-.02.03-.06.03-.11,0-.35,0-.71-.03-1.07-.02-.23-.15-.37-.39-.41-.05,0-.1-.01-.14-.04-.05-.04-.11-.09-.16-.13l-.16-.14.12-.06s.05-.03.07-.05c.07-.04.14-.09.23-.1.33,0,.65-.01.98-.01.26,0,.52,0,.78,0,.08,0,.14.04.2.07.02.01.04.02.07.03l.09.04.05-.02s.06-.03.09-.04c.07-.04.16-.08.25-.08.18,0,.36,0,.54,0,.48,0,.97,0,1.45,0,0,0,.82,0,.82,0,.07,0,.13,0,.2,0,.04,0,.09,0,.13,0h.03c.12,0,.21.03.28.1.06.07.09.16.09.28,0,.12,0,.25,0,.37,0,.12,0,.23,0,.35,0,.06-.04.12-.07.16-.01.01-.02.03-.03.04l-.05.09-.08-.07s-.03-.02-.05-.03c-.06-.04-.13-.08-.14-.16-.04-.48-.36-.55-.79-.59-.19-.02-.31-.03-.41-.03-.25,0-.32.05-.36.13-.06.11-.07.32-.07.67v.21c0,.14,0,.29,0,.43,0,.14.05.2.19.2.06,0,.13,0,.19,0,.34,0,.6-.07.73-.43.03-.08.11-.12.17-.15.02-.01.05-.02.07-.04l.1-.07.04.11s.02.05.03.07c.03.06.06.13.06.2.02.46.02.87.02,1.28,0,.07-.04.14-.07.2-.01.02-.02.04-.03.06l-.06.13-.09-.1s-.03-.03-.05-.05c-.05-.05-.11-.1-.13-.17-.1-.33-.41-.56-.75-.56-.11,0-.21.02-.31.07-.03.02-.09.11-.09.16,0,.43,0,.91,0,1.51,0,.18.09.27.28.28.05,0,.1,0,.14,0,.74,0,1.21-.23,1.52-.73l.22-.36.07.14c.03.05.05.09.07.12.03.05.05.09.06.14.03.28-.08.6-.29.86ZM124.21,106.93s-.01.04-.02.06c-.02.07-.05.14-.11.17-.26.13-.35.38-.45.64l-.51,1.39c-.31.86-.63,1.72-.94,2.58-.03.08-.08.14-.13.2-.02.02-.04.05-.06.08l-.07.1-.08-.1s-.04-.05-.07-.08c-.06-.06-.12-.13-.15-.21-.21-.56-.41-1.12-.62-1.67l-.22-.6s-.02-.04-.02-.06l-.62,1.33-.15.33c-.12.26-.23.51-.36.76-.03.07-.09.12-.14.16-.02.02-.04.03-.06.05l-.07.08-.06-.08s-.03-.04-.05-.06c-.04-.05-.09-.11-.12-.18-.44-1.19-.95-2.55-1.43-3.88-.12-.34-.25-.63-.62-.74-.08-.02-.12-.1-.15-.16-.01-.02-.02-.04-.03-.06l-.06-.08.09-.05s.04-.03.06-.04c.06-.04.12-.08.2-.08.22,0,.44,0,.66,0,.32,0,.63,0,.95,0,.07,0,.13.04.18.07.02.01.03.02.05.03l.09.04-.05.08s-.02.03-.02.05c-.02.05-.05.11-.11.15-.23.13-.29.31-.19.57.24.68.48,1.36.73,2.03l.26.72.12-.24c.21-.43.43-.88.62-1.33.03-.06.02-.17-.03-.3-.06-.2-.14-.4-.22-.6-.04-.1-.08-.2-.12-.31-.08-.23-.15-.42-.39-.5-.07-.02-.11-.1-.14-.16,0-.02-.02-.04-.03-.06l-.05-.09.09-.04s.04-.02.05-.03c.05-.03.11-.06.17-.06.4,0,.82-.01,1.23-.01h.25c.08,0,.21.06.24.15.02.07-.01.14-.03.17-.02.04-.06.09-.11.1-.1.03-.16.07-.19.13-.05.1-.02.24.02.35.15.48.33.97.49,1.44l.11.32c.08.23.16.45.25.69l.07.18s.01-.02.01-.03c.26-.74.52-1.47.78-2.21.03-.1.06-.22.06-.35.01-.26-.05-.36-.32-.48-.08-.04-.14-.11-.19-.17-.02-.02-.04-.05-.06-.07l-.11-.11.14-.04s.06-.02.09-.03c.07-.03.15-.06.23-.06.2,0,.41,0,.61,0,.17,0,.34,0,.51,0,.07,0,.12.03.18.06.02,0,.04.02.05.03l.09.04-.04.09ZM129.15,111.29c-.52.51-1.25.79-2.06.79h-.01c-.75,0-1.43-.27-1.92-.77-.48-.49-.75-1.17-.75-1.91,0-1.6,1.21-2.76,2.85-2.76,1.57,0,2.7,1.12,2.7,2.65,0,.78-.29,1.49-.81,1.99ZM135.14,111.5v.03c-.04.08-.06.16-.13.22-.17.14-.4.22-.64.22-.27,0-.52-.1-.67-.28-.23-.27-.42-.58-.6-.88l-.02-.04c-.1-.17-.18-.34-.27-.51-.07-.13-.13-.27-.2-.4-.09-.17-.3-.29-.51-.29-.07,0-.13.01-.19.04-.03.01-.07.08-.07.11,0,.51,0,.93.02,1.32.01.21.13.34.37.43.09.03.15.1.2.16.02.02.04.05.07.07l.11.1-.14.05s-.06.02-.09.04c-.07.03-.15.07-.24.07-.27,0-.55,0-.82,0-.25,0-.51,0-.76,0-.09,0-.17-.03-.24-.07-.03-.01-.06-.03-.09-.04l-.13-.04.09-.1s.04-.05.05-.07c.05-.06.1-.14.18-.18.24-.12.35-.3.35-.6v-.99c0-.69,0-1.39,0-2.08,0-.38-.07-.46-.45-.59-.08-.03-.13-.08-.18-.14-.02-.02-.04-.04-.06-.06l-.1-.09.12-.06s.05-.03.08-.04c.07-.04.14-.09.23-.09.37,0,.73-.02,1.1-.02.21,0,.41,0,.62,0h.1c.39.01.8.03,1.18.12.57.14.91.59.93,1.22.03.59-.22.98-.79,1.25h-.03s.86,1.59.86,1.59c.14.25.25.42.48.42.03,0,.06,0,.09,0h0c.09,0,.18.06.2.1l.03.04v.05ZM138.19,111.97c-.09,0-.17,0-.26,0-.11,0-.22,0-.32,0-.11,0-.21,0-.32,0h-.02c-.23,0-.46,0-.68,0-.3,0-.6,0-.9,0h-.1c-.08,0-.15-.03-.22-.06-.03-.01-.05-.02-.08-.03l-.12-.04.07-.1s.03-.05.05-.08c.04-.07.09-.15.17-.19.26-.12.38-.31.38-.63v-.86c0-.71,0-1.42,0-2.13,0-.4-.1-.52-.49-.64-.09-.03-.15-.09-.21-.15-.02-.02-.05-.05-.07-.06l-.12-.1.14-.06s.06-.03.09-.04c.08-.04.16-.08.25-.08.32,0,.64,0,.96,0,.24,0,.48,0,.72,0,.08,0,.15.03.21.06.03.01.05.02.08.03l.12.04-.08.1s-.03.04-.04.07c-.04.06-.08.14-.16.17-.23.1-.34.27-.34.54v.89c0,.79,0,1.57,0,2.36,0,.34.05.39.4.39h.02c.76,0,1.23-.23,1.54-.74.02-.04.05-.07.08-.1.02-.01.03-.03.06-.04l.15-.09.04.1s.02.05.03.07c.02.05.05.1.05.16.03.61-.49,1.2-1.08,1.24ZM144.53,109.2c-.06,1.59-1.27,2.76-2.87,2.77h-.29s-.59,0-.59,0v-.05s-.23.02-.23.02c-.29.02-.6.04-.9.06h-.01c-.08,0-.15-.03-.22-.06-.03-.01-.06-.02-.08-.03l-.12-.04.07-.1s.03-.05.05-.08c.04-.07.09-.16.17-.19.25-.1.36-.28.36-.61v-.83c0-.72,0-1.44,0-2.17,0-.36-.04-.58-.51-.67-.08-.02-.14-.08-.19-.14-.02-.02-.04-.04-.06-.06l-.11-.09.13-.06s.05-.03.08-.04c.07-.04.14-.08.23-.09h.14c.36-.02.73-.03,1.09-.03.15,0,.31,0,.46,0h.2c.49.02,1,.04,1.48.15,1.13.26,1.77,1.12,1.72,2.32ZM151.4,111.3c-.52.5-1.25.78-2.06.78h0c-1.54,0-2.66-1.13-2.66-2.67,0-1.6,1.2-2.76,2.84-2.76,1.56,0,2.69,1.12,2.69,2.65,0,.79-.28,1.5-.8,2ZM156.13,107.45c0,.12,0,.24,0,.36,0,.07-.04.12-.08.17-.01.02-.02.03-.03.05l-.06.1-.08-.08s-.03-.02-.05-.04c-.06-.04-.13-.09-.13-.17-.02-.41-.28-.52-.7-.57-.12-.01-.24-.02-.38-.02-.08,0-.17,0-.25,0-.24.01-.31.08-.31.33,0,.17,0,.34,0,.5,0,.19,0,.38,0,.57,0,.16.05.22.22.22.04,0,.09,0,.13,0,.36,0,.63-.07.76-.44.03-.08.11-.12.18-.15.02-.01.05-.02.07-.04l.09-.06.04.1s.02.04.03.05c.03.05.06.11.06.17.01.51.02.94.01,1.33,0,.08-.04.14-.08.2-.01.02-.03.04-.04.06l-.06.12-.09-.11s-.03-.04-.05-.05c-.05-.05-.1-.1-.12-.18-.09-.32-.41-.55-.76-.55-.11,0-.21.02-.31.07-.03.02-.08.1-.08.17-.01.16-.01.32,0,.48,0,.07,0,.29,0,.29h0v.09c0,.13,0,.25,0,.38.01.39.14.54.52.62.01,0,.02,0,.03,0,.04,0,.09.01.13.05.07.07.15.15.14.24-.01.1-.14.19-.22.21-.03,0-.05,0-.08,0-.04,0-.08,0-.12,0-.03,0-.06,0-.1,0-.18,0-.36,0-.54,0-.26,0-.51,0-.77,0-.1,0-.2,0-.3,0-.08,0-.15-.03-.22-.06-.03-.01-.05-.02-.08-.03l-.11-.04.07-.1s.03-.05.04-.07c.04-.07.08-.15.16-.18.27-.12.39-.32.39-.68,0-.96,0-1.93,0-2.89,0-.4-.09-.65-.52-.71-.08-.01-.15-.08-.2-.14-.02-.02-.04-.04-.06-.06l-.1-.09.12-.06s.05-.03.08-.05c.07-.04.14-.09.23-.09.4,0,.8,0,1.2,0h1.12c.28,0,.56,0,.84,0,.1,0,.23.01.32.1.06.07.09.16.09.29,0,.11,0,.22,0,.33ZM160.38,107.19c-.26.12-.31.32-.31.64v1.05c0,.79,0,1.58,0,2.37,0,.69-.3,1.27-.95,1.81-.08.07-.19.13-.35.17-.08.03-.17.04-.26.04-.23,0-.48-.09-.51-.28-.04-.21-.01-.43.01-.64,0-.06.01-.12.02-.17,0-.03.01-.1.23-.1.06,0,.11.01.14.04.08.06.14.13.2.2.04.05.08.09.13.13.05.04.09.07.13.07.06,0,.09-.09.1-.13.03-.15.05-.31.05-.49,0-.48,0-.96,0-1.45v-1.12c0-.46,0-.93,0-1.39,0-.51-.05-.57-.54-.73-.08-.02-.13-.09-.18-.14-.02-.02-.04-.04-.05-.06l-.09-.09.12-.06s.05-.03.07-.04c.06-.04.14-.09.22-.09.32,0,.64,0,.96,0,.25,0,.5,0,.75,0,.06,0,.27.06.27.17,0,.07-.03.24-.14.29ZM163.54,112h-.02c-.39,0-.77,0-1.16,0-.41,0-.81,0-1.22,0-.08,0-.14-.04-.2-.08-.02-.01-.04-.03-.07-.04l-.1-.05.06-.09s.03-.04.04-.07c.04-.07.08-.14.16-.17.28-.12.4-.32.39-.69,0-.35,0-.69,0-1.04v-.36s0-.09,0-.09v-.46c0-.36,0-.71,0-1.07,0-.36-.09-.46-.45-.55h-.02c-.06-.02-.13-.04-.2-.07-.06-.03-.14-.12-.12-.21.01-.08.07-.16.14-.2.05-.03.1-.03.15-.03h.06c.32,0,.63,0,.94,0,.38,0,.76,0,1.14,0,.3,0,.6,0,.91,0h.09c.44,0,.48.1.48.55,0,.05,0,.1,0,.16,0,.12,0,.24,0,.36,0,.07-.05.13-.09.18-.01.02-.03.04-.04.05l-.06.1-.08-.09s-.03-.03-.04-.04c-.05-.04-.11-.09-.12-.17-.04-.35-.23-.51-.66-.55-.16-.02-.32-.02-.48-.02-.07,0-.15,0-.22,0-.19,0-.29.11-.29.3v1.1c0,.15.06.21.21.22.06,0,.11,0,.17,0,.35,0,.61-.08.75-.44.03-.08.11-.12.18-.15.02-.01.05-.02.07-.03l.1-.06.04.11s.02.04.02.07c.02.05.05.12.05.18.02.48.03.91.03,1.31,0,.07-.03.13-.06.19-.01.02-.02.04-.03.06l-.05.12-.09-.09s-.04-.03-.06-.04c-.06-.04-.12-.09-.15-.16-.12-.36-.38-.57-.72-.57-.1,0-.2.02-.31.05-.04.01-.11.1-.11.13,0,.55,0,1.09.01,1.6,0,.1.03.21.25.22.06,0,.12,0,.18,0,.72,0,1.2-.23,1.51-.74.04-.06.1-.09.15-.11.02,0,.04-.02.05-.03l.1-.06.03.11s.02.04.02.06c.02.06.05.13.05.2-.08.74-.58,1.18-1.33,1.18ZM176.12,111.55c-.21.25-.48.4-.74.43-.1,0-.2.01-.3.01-.11,0-.22,0-.33,0-.11,0-.22,0-.32,0h-.03c-.21,0-.42,0-.63,0-.27,0-.55,0-.82,0h-.21c-.08,0-.16-.04-.23-.07-.03-.01-.05-.03-.08-.04l-.11-.04.07-.1s.03-.05.05-.07c.04-.07.09-.14.16-.18.25-.11.38-.31.38-.61,0-1.03,0-2.04,0-3.04,0-.4-.08-.49-.51-.62-.08-.02-.14-.09-.2-.15-.02-.02-.04-.04-.06-.06l-.05-.05c0,.08-.05.16-.11.19-.28.14-.38.41-.48.69l-.04.11-.45,1.24c-.32.88-.65,1.76-.97,2.64-.03.07-.08.12-.12.17-.02.02-.04.04-.05.06l-.07.08-.07-.08s-.03-.04-.05-.06c-.05-.05-.1-.1-.13-.17-.2-.54-.4-1.08-.6-1.62l-.2-.56c-.03-.07-.05-.14-.08-.22-.02.04-.04.07-.06.11l-.31.68c-.24.53-.49,1.06-.74,1.59-.03.07-.09.13-.14.18-.02.02-.04.04-.06.06l-.07.09-.07-.09s-.04-.05-.06-.07c-.05-.06-.11-.12-.14-.2-.48-1.31-.97-2.65-1.45-3.98-.12-.32-.28-.5-.54-.59-.08-.03-.13-.11-.17-.18-.01-.02-.03-.05-.04-.07l-.07-.09.1-.05s.04-.02.07-.03c.06-.03.13-.07.2-.07.22,0,.43,0,.65,0,.31,0,.62,0,.94,0,.07,0,.12.03.17.06.02,0,.04.02.05.03l.09.04-.04.08s-.01.03-.02.05c-.02.05-.04.12-.11.15-.23.13-.29.31-.18.62.24.68.48,1.35.73,2.04l.24.68s0,0,0-.01l.15-.32c.18-.38.37-.77.53-1.16.04-.1.05-.26.02-.38-.07-.24-.17-.49-.26-.72-.04-.1-.08-.2-.12-.3-.07-.2-.15-.33-.33-.39-.08-.03-.11-.1-.14-.17-.01-.02-.02-.04-.03-.06l-.06-.09.1-.04s.04-.02.06-.03c.05-.03.12-.06.18-.06.4,0,.8-.02,1.18-.02h.25c.07,0,.13.04.18.07.02.01.03.02.05.03l.09.05-.06.08s-.02.03-.03.05c-.03.06-.07.13-.14.15-.1.03-.22.09-.16.31.09.36.2.73.32,1.09.14.41.29.82.44,1.22l.14.38s.02.06.04.09l.04-.12c.07-.18.13-.35.19-.53.05-.15.1-.3.15-.45.15-.44.31-.89.43-1.34.1-.34.03-.47-.34-.63-.08-.03-.12-.1-.17-.16-.02-.02-.03-.05-.05-.06l-.08-.09.12-.05s.05-.02.07-.03c.06-.03.13-.07.2-.07.21,0,.42,0,.63,0,.19,0,.38,0,.57,0,.08,0,.21.06.24.15,0,0,0,.01,0,.02l.08-.03s.05-.03.08-.04c.07-.04.15-.08.23-.08.19,0,.37,0,.56,0,.26,0,1.32,0,1.59,0s.54,0,.82,0h.11c.43,0,.48.1.48.55,0,.05,0,.1,0,.15,0,.13,0,.26,0,.39,0,.07-.05.12-.09.17-.01.01-.03.03-.04.04l-.06.09-.08-.07s-.03-.02-.04-.03c-.05-.04-.11-.08-.12-.16-.03-.48-.38-.55-.79-.59-.19-.02-.32-.03-.41-.03-.25,0-.32.05-.37.13-.06.11-.07.32-.07.67,0,.06,0,.12,0,.18,0,.16,0,.32.01.48,0,.07.07.16.11.17.08.03.17.05.27.05.28,0,.56-.16.71-.42.04-.07.11-.12.18-.17.03-.02.05-.04.07-.05l.11-.09.04.14s.02.06.03.09c.02.07.05.14.05.22.02.44.03.83.03,1.2,0,.08-.03.15-.06.21-.01.02-.02.05-.03.07l-.05.15-.1-.12s-.04-.04-.06-.06c-.05-.05-.11-.12-.14-.2-.11-.37-.21-.45-.58-.47-.11,0-.19,0-.27,0-.14,0-.21.01-.24.05-.06.06-.06.23-.06.5v.2c0,.29,0,.6.01.9.01.28.06.33.35.34h.09c.72,0,1.2-.23,1.51-.73.02-.03.04-.08.05-.13,0-.03.02-.05.02-.08l.04-.12.22.18v.02s.02.02.03.03c.02.03.05.07.05.13.03.28-.07.6-.29.86ZM179.55,111.97c-.08,0-.17,0-.25,0-.11,0-.23,0-.34,0-.11,0-.22,0-.34,0-.24,0-.47,0-.69,0-.28,0-.55,0-.83,0h-.14c-.08,0-.16-.03-.23-.06-.03-.01-.06-.02-.09-.03l-.13-.04.09-.1s.04-.05.06-.08c.05-.07.1-.15.18-.19.24-.12.35-.3.35-.58v-.65c0-.81,0-1.63,0-2.44,0-.35-.11-.49-.46-.57-.01,0-.03,0-.04,0-.04,0-.1-.02-.14-.05-.07-.05-.18-.15-.14-.25.03-.08.12-.19.23-.2.02,0,.03,0,.05,0,.06,0,.12,0,.19.02.06,0,.11.01.17.01.21,0,.41,0,.62-.01.27,0,.53-.01.8-.01.08,0,.16.03.23.06.03.01.06.02.08.03l.13.04-.09.1s-.04.05-.05.07c-.04.06-.1.13-.17.17-.21.1-.31.25-.31.46v.15c0,1.06-.01,2.15,0,3.22,0,.29.05.33.37.34h.05c.75,0,1.23-.23,1.54-.75.03-.04.06-.07.11-.11.02-.02.05-.04.08-.07l.1-.09.05.13s.03.06.04.09c.03.06.05.1.05.16.02.61-.49,1.19-1.08,1.23ZM183.72,111.55c-.32.34-.71.52-1.17.52-.15,0-.32-.02-.48-.06-.24-.06-.52-.13-.8-.23-.12-.05-.24-.18-.28-.31-.1-.37-.18-.75-.24-1.1-.01-.07.02-.14.04-.2,0-.02.02-.04.02-.06l.04-.12.1.07s.04.03.06.04c.06.03.12.07.16.13.07.12.14.24.21.36.12.21.22.41.36.58.19.24.46.36.78.36.04,0,.08,0,.12,0,.34-.03.62-.25.72-.56.11-.35.03-.57-.28-.79-.15-.11-.32-.19-.49-.28-.12-.06-.25-.13-.37-.2-.07-.04-.14-.08-.21-.12-.27-.16-.55-.32-.78-.53-.43-.39-.54-.91-.31-1.48.23-.56.67-.88,1.26-.9h.04c.18,0,.36.04.53.08.11.02.21.05.32.06.15.02.28.03.38.03.05,0,.11,0,.16,0,.03,0,.05,0,.07,0,.15,0,.23.08.23.23,0,.05,0,.11,0,.16v.15s-.01,0-.01,0c0,.04.01.08.02.12.03.18.06.36.07.55,0,.09-.03.18-.06.26-.01.03-.02.07-.03.1l-.05.17-.11-.14s-.04-.05-.06-.07c-.05-.06-.11-.12-.15-.2-.04-.07-.07-.14-.09-.21-.03-.08-.06-.16-.11-.22-.26-.39-.61-.58-1.06-.58-.03,0-.05,0-.08,0-.27.01-.52.2-.59.44-.08.28.03.52.27.66.28.16.59.29.89.41l.12.05c.5.21,1.01.47,1.17,1.09.18.7.06,1.28-.36,1.73Z"/>
  </g>
</svg>