<?xml version="1.0" encoding="UTF-8"?>
<svg id="Layer_1" xmlns="http://www.w3.org/2000/svg" version="1.1" viewBox="0 0 284.22 185.49">
  <!-- Generator: Adobe Illustrator 30.1.0, SVG Export Plug-In . SVG Version: 2.1.1 Build 136)  -->
  <defs>
    <style>
      .st0, .st1 {
        fill-rule: evenodd;
      }

      .st0, .st2 {
        fill: #fff;
      }

      .st3, .st1 {
        fill: #231f20;
      }

      .st4 {
        fill: none;
        stroke: #231f20;
        stroke-miterlimit: 10;
        stroke-width: .61px;
      }

      .st5 {
        fill: #fffdf8;
      }
    </style>
  </defs>
  <path class="st1" d="M115.69,125.08h0s0,0,0,0h0"/>
  <g>
    <path class="st1" d="M142.39,65.78c10.03,0,18.22,7.79,18.22,17.35h0s-36.44,0-36.44,0h0c0-9.55,8.19-17.35,18.22-17.35Z"/>
    <path class="st0" d="M148.34,78.1c-.45-.18-1.11.36-1.47,1.18-.35.83-.27,1.65.18,1.82.45.17,1.11-.36,1.47-1.18.35-.83.28-1.65-.18-1.82Z"/>
    <path class="st1" d="M166.68,83.12c0,12.74-10.91,23.13-24.29,23.13s-24.29-10.39-24.29-23.13h6.07c0,9.55,8.19,17.34,18.22,17.34s18.22-7.79,18.22-17.34h6.07Z"/>
    <path class="st1" d="M165.27,75.9l-1.9.55.05.17c.09.28.19.49.28.61.1.13.23.21.4.24.17.04.36.03.59-.04.33-.1.55-.24.66-.44.11-.19.11-.45,0-.78l-.1-.33ZM163.14,76.52l-1.22.35c-.23.07-.38.12-.43.17-.05.05-.09.11-.1.19-.01.08,0,.21.07.4l-.12.03-.68-2.12.12-.03c.06.19.12.32.18.37.06.06.12.09.19.1.07.01.22-.02.45-.09l2.82-.82c.23-.07.38-.13.43-.17.05-.05.08-.11.1-.19.01-.08,0-.21-.07-.4l.12-.03.62,1.92c.16.5.24.88.24,1.13,0,.25-.07.48-.22.68-.15.2-.36.34-.62.42-.32.09-.62.06-.9-.1-.18-.1-.34-.27-.48-.5l-1.15,1.42c-.15.19-.24.31-.27.38-.04.1-.04.21-.02.32l-.12.03-.42-1.3,1.55-1.91-.09-.27M160.26,72.12l.95-1.35-1.69.25.75,1.1M160.12,72.34l-.87-1.28-.48.08c-.16.03-.27.06-.36.11-.11.07-.16.16-.15.27,0,.07.06.2.17.4l-.1.06-.82-1.2.1-.06c.11.12.24.19.39.21.15.03.41.01.78-.04l3.92-.58.03.05-2.23,3.24c-.21.31-.33.52-.35.65-.02.1,0,.2.07.32l-.1.06-1.2-1.75.1-.06.05.07c.1.14.19.23.26.26.06.02.11.01.17-.02.03-.02.06-.05.09-.08.01-.01.07-.08.16-.21l.34-.49M156.69,66.46l.03,2.43c0,.34.04.6.11.77.05.12.13.22.23.3l-.08.09-1.86-1.39.08-.09c.13.08.22.12.27.12.06,0,.1-.02.13-.05.06-.07.09-.26.08-.58v-1.59s-.23,0-.23,0l-.76.93c-.15.18-.23.3-.24.36-.02.06,0,.13.03.2.03.08.12.16.25.26l-.08.09-1.8-1.34.07-.09.12.09c.1.08.2.12.3.13.07.01.13,0,.2-.04.05-.02.15-.12.29-.3l1.84-2.24c.14-.17.22-.29.24-.35.02-.06,0-.12-.02-.2-.03-.08-.1-.15-.2-.23l-.12-.09.08-.09,1.78,1.32-.08.09c-.12-.09-.22-.14-.32-.16-.07-.01-.13,0-.2.04-.06.03-.16.13-.3.3l-.87,1.06,2.16-.03c.3,0,.49-.05.56-.13.05-.06.05-.14,0-.23-.02-.05-.11-.13-.26-.25l.08-.09,1.4,1.04-.08.09c-.13-.08-.25-.14-.35-.15-.1-.02-.36-.03-.78-.02l-1.7.02M151.78,66.38l-.05.11-2.17-.92.05-.11.14.06c.12.05.23.07.32.06.07,0,.13-.03.19-.09.05-.04.11-.15.21-.35l1.22-2.6c.09-.2.14-.33.14-.39,0-.06-.02-.12-.08-.19-.05-.07-.13-.13-.25-.17l-.14-.06.05-.11,2.17.92-.05.11-.14-.06c-.12-.05-.23-.07-.32-.06-.07,0-.13.03-.19.09-.04.04-.11.16-.2.35l-1.22,2.6c-.09.2-.14.33-.14.39,0,.06.03.12.07.19.05.07.13.13.25.18l.14.06M149.28,60.73l-.02.12c-.17,0-.33.06-.48.18-.11.09-.29.32-.54.68l-2.09,3.03-.11-.02-.97-3.62c-.12-.44-.2-.7-.25-.78-.05-.08-.16-.14-.33-.19l.02-.12,2.15.32-.02.12h-.07c-.19-.04-.33-.04-.41,0-.06.02-.09.07-.1.13,0,.04,0,.08,0,.14,0,.05.05.2.11.44l.6,2.27,1.2-1.76c.14-.21.24-.36.27-.43.04-.07.06-.14.07-.19,0-.06,0-.12-.03-.17-.03-.05-.07-.1-.14-.13-.09-.05-.21-.09-.37-.11l.02-.12,1.47.22M139.87,60.35l.13,1.76h.09c.29-.03.49-.12.6-.3.12-.18.18-.44.19-.78h.13s.16,2.25.16,2.25h-.13c-.05-.24-.12-.43-.21-.58-.1-.15-.2-.25-.32-.3-.12-.05-.28-.06-.5-.05l.09,1.21c.02.24.04.38.06.43.02.05.07.09.13.12.06.03.15.04.28.03l.27-.02c.42-.03.75-.14,1-.35.24-.2.4-.5.49-.89h.12s-.1,1.38-.1,1.38l-3.92.26v-.12s.14-.01.14-.01c.13,0,.23-.04.31-.09.06-.03.1-.09.12-.16.02-.05.03-.19,0-.4l-.21-2.84c-.02-.2-.03-.31-.04-.36-.03-.07-.07-.13-.14-.16-.09-.05-.21-.08-.35-.07h-.15s0-.11,0-.11l3.79-.25.09,1.27h-.13c-.09-.3-.2-.52-.32-.64-.13-.13-.3-.22-.52-.27-.13-.03-.36-.03-.71-.01l-.47.03M132.97,62.06l1.33,3.13c.07.16.12.26.15.29.03.03.07.05.12.05.07,0,.16,0,.26-.05.35-.13.56-.35.65-.64.12-.4.04-.92-.23-1.56-.22-.51-.48-.89-.78-1.13-.24-.19-.48-.28-.73-.29-.18,0-.44.06-.78.2M132.97,66.46l-.05-.11.14-.05c.12-.05.21-.1.26-.16.05-.06.08-.13.08-.2,0-.05-.04-.18-.13-.38l-1.12-2.63c-.09-.2-.15-.33-.2-.37-.05-.04-.11-.07-.2-.08-.09-.01-.19,0-.3.05l-.14.05-.05-.11,1.88-.72c.5-.19.94-.28,1.3-.27.44.01.83.15,1.16.4.33.25.58.58.76.98.12.28.18.56.19.83,0,.27-.03.52-.12.73-.09.21-.21.4-.37.58-.16.17-.37.33-.63.5-.12.07-.31.16-.58.26l-1.88.72M126.79,65.33l3.48.86-1.17-1.48c-.16-.21-.3-.32-.43-.35-.16-.04-.34.02-.54.17l-.07-.09,1.2-.86.07.09c-.14.13-.22.23-.25.29-.03.07-.03.15,0,.23.02.09.1.21.23.38l2.27,2.87-.09.07-4.73-1.12,1.74,2.19c.16.2.31.3.46.3.15,0,.29-.04.41-.13l.09-.06.07.09-1.29.92-.08-.09c.2-.15.31-.28.33-.42.02-.13-.05-.29-.19-.47l-1.93-2.44-.15-.04c-.15-.04-.26-.05-.35-.03-.08.01-.18.06-.29.13l-.07-.09,1.29-.92M125.04,71.35l-1.67-.33.88,1.4.79-1.07M125.31,71.4l-.92,1.25.25.39c.09.13.17.22.25.27.1.07.21.08.32.03.07-.03.17-.13.32-.3l.1.07-.86,1.18-.1-.07c.07-.14.09-.28.06-.42-.03-.14-.14-.37-.34-.68l-2.04-3.24.04-.05,3.99.76c.38.07.63.09.77.06.1-.02.2-.08.28-.19l.1.07-1.26,1.71-.1-.07.05-.07c.1-.14.15-.25.15-.33,0-.06-.03-.11-.08-.14-.03-.02-.07-.04-.11-.05-.02,0-.11-.03-.26-.06l-.6-.12M119.82,74.13l1.5.52-.04.11c-.46,0-.85.08-1.17.28-.32.19-.54.45-.66.77-.12.3-.12.59-.02.85.1.26.3.49.59.69.29.2.6.35.94.47.41.14.78.22,1.13.23.34.02.63-.05.85-.21.22-.15.39-.37.5-.65.04-.1.07-.2.08-.31.02-.11.03-.23.03-.35l-.89-.31c-.17-.06-.28-.08-.34-.08-.06,0-.12.04-.19.09-.07.06-.12.13-.15.23l-.04.1-.12-.04.75-1.97.12.04c-.05.15-.07.26-.06.34.01.07.05.13.11.19.03.03.13.07.28.13l.89.31c.02.3.01.6-.03.91-.04.3-.13.6-.24.91-.15.39-.33.69-.53.9-.21.22-.44.39-.69.52-.26.13-.51.21-.78.25-.34.04-.69,0-1.05-.13-.64-.22-1.1-.62-1.38-1.21-.28-.58-.29-1.2-.04-1.85.08-.2.16-.38.26-.53.05-.08.15-.21.31-.38.15-.17.24-.27.25-.31.02-.06.02-.11,0-.18-.02-.06-.09-.14-.19-.22l.04-.11"/>
    <path class="st1" d="M170.08,75.99h.62c.3,0,.5-.04.6-.13.11-.09.16-.2.16-.35,0-.09-.03-.18-.08-.25-.05-.07-.12-.13-.21-.16-.09-.04-.26-.05-.51-.05h-.58v.95ZM169.57,77.76v-3.15h1.09c.37,0,.64.03.81.09.17.06.3.16.4.3.1.15.15.3.15.46,0,.23-.08.43-.25.6-.16.17-.38.27-.65.29.11.05.2.1.27.17.13.12.28.33.47.62l.38.62h-.62l-.28-.5c-.22-.39-.4-.64-.54-.73-.09-.07-.23-.11-.41-.11h-.3v1.34h-.51M170.86,73.7c-.41,0-.81.11-1.2.32-.39.21-.69.51-.92.91-.22.39-.33.8-.33,1.23s.11.83.33,1.22c.21.39.52.69.91.91.39.22.79.33,1.22.33s.83-.11,1.22-.33c.39-.22.69-.52.91-.91.21-.39.32-.79.32-1.22s-.11-.83-.33-1.23c-.22-.39-.52-.69-.92-.91-.39-.21-.79-.32-1.2-.32M170.86,73.21c.49,0,.97.13,1.44.38.47.25.84.61,1.1,1.08.26.47.39.96.39,1.47s-.13.99-.39,1.46c-.26.47-.62.83-1.08,1.09-.47.26-.95.39-1.46.39s-.99-.13-1.46-.39c-.46-.26-.83-.62-1.09-1.09-.26-.46-.39-.95-.39-1.46s.13-1,.39-1.47c.27-.47.63-.83,1.1-1.08.47-.25.95-.38,1.44-.38"/>
    <path class="st1" d="M123.36,120.64h-.03s-.05.02-.05.02l-.04-.02s-.01,0-.02,0c0,0-.02,0-.04,0h-.06c-.1-.06-.18-.11-.23-.18-.06-.08-.09-.16-.09-.26h0s0-.02,0-.02c.02-.12.07-.21.16-.28.08-.06.19-.11.32-.12.13-.03.26-.06.38-.09.09-.02.18-.05.27-.07.23-.4.42-.74.59-1,.17-.28.32-.49.43-.63h0c.07-.08.13-.14.19-.18.07-.05.14-.08.2-.08.11,0,.2.04.28.12h0s.06.09.08.14h0c.02.05.02.11.02.16,0,.06-.01.14-.03.21-.02.07-.05.15-.09.22h0c-.04.07-.08.15-.14.24-.05.08-.11.17-.18.27l-.06.08c.13-.03.24-.06.34-.08.17-.04.29-.06.34-.06.27,0,.43.12.48.36h0s0,.02,0,.02c0,.09,0,.16-.03.23-.02.08-.07.14-.13.18-.05.03-.11.07-.18.09h0c-.07.02-.15.04-.25.06l-.2.03h-.08s-.13.05-.13.05h0l-.32.1h0c-.14.04-.26.08-.36.11-.08.02-.15.04-.2.06-.27.48-.51.99-.72,1.52h0c-.21.55-.38,1.12-.51,1.72,0,.07.03.12.05.17h0s.05.07.08.1c.08-.02.15-.04.21-.08.08-.04.15-.1.21-.17.07-.08.14-.18.22-.3.08-.12.17-.26.26-.42.1-.17.18-.3.24-.4.07-.11.13-.19.17-.24v-.02s.03-.01.03-.01c.05-.03.11-.04.17-.04.07,0,.15.03.22.09.04.03.06.07.08.12.02.04.03.09.03.14,0,.02,0,.06-.02.1-.01.03-.02.07-.04.12h0s0,.01,0,.01c-.31.66-.63,1.16-.95,1.5-.34.36-.68.56-1.04.58h-.01s-.01,0-.01,0c-.13-.02-.24-.05-.33-.11-.1-.06-.18-.13-.23-.23-.06-.09-.1-.19-.14-.31-.04-.11-.07-.25-.09-.4v-.02s0-.02,0-.02c.01-.19.03-.38.06-.57.03-.18.07-.36.12-.53.1-.34.24-.73.44-1.18h0s.34-.79.34-.79"/>
    <path class="st1" d="M119.76,122.59c-.06-.11-.1-.23-.13-.35-.03-.12-.05-.25-.06-.37h0c0-.28.07-.53.18-.76.12-.23.29-.44.52-.62.23-.18.46-.32.7-.41.25-.09.5-.14.76-.14.61,0,.92.25.92.76,0,.21-.04.4-.12.58-.08.18-.2.33-.35.47-.15.13-.32.25-.5.33-.18.09-.37.15-.57.2h-.02s0,0,0,0c-.01,0-.02,0-.03,0l-.04.02h-.05c-.19-.05-.3-.14-.33-.29h-.07l.03-.16c.02-.08.04-.14.07-.2.04-.06.09-.11.15-.14h0s.1-.05.18-.08c.08-.03.17-.06.27-.09.1-.03.19-.06.25-.09.06-.03.11-.06.15-.08.02-.02.04-.04.05-.08.02-.04.02-.09.02-.16s-.01-.1-.03-.13c-.02-.02-.06-.03-.11-.03-.27,0-.52.1-.75.31-.12.1-.21.22-.28.35-.07.12-.11.26-.14.41,0,.08.02.17.05.25.03.09.07.19.13.29.07.12.13.23.18.33h0c.06.12.12.23.17.34h0c.06.12.11.24.14.35.03.12.05.23.05.34,0,.35-.14.65-.41.89-.13.12-.27.21-.43.27-.15.06-.31.09-.48.09-.2,0-.37-.04-.53-.11-.16-.07-.29-.18-.4-.33h0c-.1-.14-.18-.29-.24-.45h0c-.05-.16-.08-.34-.08-.52,0-.3.04-.54.13-.74h0c.09-.2.21-.36.39-.46.01-.01.03-.02.05-.03.02,0,.04-.01.07-.01.02,0,.04,0,.06,0h0s.02,0,.02,0c.08,0,.14.02.19.06h0c.07.05.11.12.11.21v.03l-.02.03v.03s-.02,0-.02,0v.02s-.01.02-.01.03v.05c-.05.1-.09.2-.11.31-.03.11-.04.21-.06.32,0,.1.02.18.05.26.03.08.08.15.13.21.06.06.12.11.18.14.05.03.1.04.14.04.07,0,.13,0,.17-.03.04-.02.08-.04.11-.08.03-.04.06-.08.07-.13.02-.05.03-.11.03-.18s0-.12-.02-.18c-.01-.06-.03-.11-.05-.17-.03-.06-.05-.12-.08-.17-.03-.06-.06-.11-.09-.17h0l-.12-.19h0s-.13-.22-.13-.22h0s0-.01,0-.01"/>
    <line class="st3" x1="117.63" y1="121.68" x2="117.63" y2="121.68"/>
    <path class="st1" d="M117.27,123.94c-.05.07-.1.14-.14.2-.11.14-.2.26-.28.34-.09.09-.19.17-.3.22h0c-.11.06-.24.09-.37.11h-.02s-.02,0-.02,0c-.22-.04-.38-.15-.49-.32-.1-.16-.16-.38-.16-.65,0-.25.05-.52.14-.83.09-.3.22-.62.4-.98h0c.07-.14.15-.29.25-.43h0c.09-.15.2-.3.32-.45.12-.16.24-.28.34-.36h0c.12-.09.23-.14.34-.14.07,0,.14.02.2.05.05.03.1.08.14.13,0,0,.02.02.02.03,0,.01.01.03.02.04,0,.02,0,.03.01.05,0,.02,0,.03,0,.05,0,.1-.04.21-.11.33-.06.1-.15.21-.27.33-.26.34-.47.69-.63,1.03-.15.33-.26.66-.33.99.01.03.02.06.03.08h.02s0,0,0,0h0c.05-.02.12-.06.18-.12.1-.09.2-.23.3-.4h0c.16-.23.31-.48.43-.74.13-.26.24-.54.33-.84.16-.58.41-.87.74-.87.06,0,.11.02.16.05h0s.08.06.11.11h0s.05.09.07.14c.02.05.02.1.02.15,0,.25-.11.59-.33,1.02-.1.2-.18.37-.24.51-.05.12-.08.22-.09.28,0,.04,0,.1-.01.16,0,.05-.01.11-.03.18,0,.09.02.17.04.25.02.08.05.16.09.23.04.07.08.13.12.18.03.04.07.07.1.09.1.04.18.1.23.17h0c.06.08.09.17.09.28,0,.15-.04.26-.13.35-.08.08-.2.12-.35.12-.3,0-.54-.13-.71-.4-.11-.18-.19-.41-.25-.71"/>
    <path class="st1" d="M113.49,121.39l.06-.06c.39-.39.74-.69,1.04-.89h0s0,0,0,0c.09-.05.16-.09.22-.11h0c.07-.03.12-.05.16-.05.05,0,.09.01.14.04h0s.07.05.11.09c.04.04.06.08.08.13h0s.03.1.03.15c0,.01,0,.03,0,.05h0s0,.04,0,.05h0s0,.03,0,.03h0s-.01.03-.01.03c-.03.08-.09.17-.17.27h0c-.07.09-.17.19-.3.3-.11.1-.19.19-.26.27h0c-.05.07-.08.13-.1.19,0,0,.02.01.04.02.04-.03.08-.05.13-.07h0c.06-.04.13-.07.19-.1.12-.06.28-.14.47-.25.06-.04.11-.07.15-.09.06-.03.11-.05.15-.05.08,0,.15.03.21.1h0s.05.06.06.09h0s.03.08.03.11c0,.08-.02.16-.06.23-.04.07-.09.13-.15.19-.26.26-.51.45-.75.58-.25.13-.5.2-.75.2-.18,0-.33-.04-.43-.13-.11-.09-.18-.22-.19-.38h0v-.04c-.08.08-.16.17-.23.26-.18.21-.35.43-.5.66-.16.23-.29.45-.41.66h0c-.12.21-.21.41-.29.6h0s0,.01,0,.01c-.07.14-.14.25-.19.34h0c-.06.1-.12.16-.17.19l-.03.02h-.02,0s0,0,0,0c-.01,0-.04.02-.07.03l-.04.02h-.04c-.12-.02-.21-.07-.27-.14h0c-.07-.07-.1-.16-.1-.28,0-.06,0-.13.03-.2.02-.07.04-.14.08-.23.1-.35.22-.69.35-1.03.13-.35.27-.69.42-1.04.15-.35.3-.64.44-.89.15-.25.29-.44.44-.58h.01s.01-.02.01-.02l.17-.11.17-.11.03-.02h.04c.09,0,.18.03.26.09h0s.08.07.1.11h0s.04.09.04.15,0,.11-.03.16c-.01.05-.04.09-.06.13-.03.06-.07.14-.14.23l-.05.08"/>
    <line class="st3" x1="109.47" y1="124.56" x2="109.47" y2="124.56"/>
    <line class="st3" x1="109.47" y1="124.56" x2="109.47" y2="124.56"/>
    <polyline class="st1" points="146.17 121.2 146.21 121.2 146.21 121.2 146.17 121.2"/>
    <path class="st1" d="M143.95,122.9c.09-.31.23-.63.43-.96.19-.32.44-.66.74-.99h0c.24-.24.45-.41.64-.53.21-.12.39-.19.56-.19.42,0,.63.24.63.73,0,.13-.02.28-.07.43-.04.15-.11.31-.2.48-.09.18-.19.31-.29.41-.12.11-.24.17-.37.19h-.04s-.04-.02-.04-.02l-.09-.05h-.02s-.02-.03-.02-.03c-.04-.04-.07-.09-.09-.13-.03-.05-.04-.1-.04-.15v-.05s.06-.1.11-.17c.05-.07.11-.16.18-.27.07-.1.13-.19.16-.26h0c.03-.06.04-.12.04-.15h.04l-.04-.03s0,.01-.03.03c-.07.03-.15.1-.25.2-.11.11-.22.23-.33.37-.11.14-.23.3-.34.48-.11.17-.2.34-.28.49h0c-.07.15-.13.29-.17.42h0s0,.01,0,.01c-.03.07-.05.14-.07.21h0c-.02.07-.03.14-.04.22,0,.02,0,.03.01.05,0,.03,0,.06,0,.1,0,.08.02.14.06.18.04.04.09.06.17.07.28-.11.55-.28.81-.5.27-.23.53-.52.77-.88h0c.08-.11.15-.18.21-.24.08-.07.15-.1.22-.1.06,0,.11.02.15.06h0s.05.07.08.12h0s.03.08.04.12h0s.01.08.01.12c0,.06,0,.11-.03.16-.02.05-.04.09-.07.13-.36.61-.72,1.08-1.08,1.4-.37.33-.76.51-1.14.54h0c-.15,0-.3-.02-.43-.07-.13-.05-.25-.12-.35-.23-.1-.1-.18-.21-.23-.34h0c-.05-.13-.09-.26-.09-.41h0c0-.15.01-.3.05-.46.03-.16.07-.34.13-.52h0"/>
    <path class="st1" d="M142.36,122.68c-.1.11-.2.23-.29.36-.24.32-.46.69-.66,1.12h0c-.06.12-.12.22-.16.29-.05.08-.09.14-.12.18-.04.05-.09.09-.15.12-.06.02-.12.04-.19.04-.12,0-.23-.06-.31-.17-.04-.05-.07-.11-.08-.18-.01-.06-.02-.13,0-.2h0c.02-.11.04-.21.07-.31.03-.1.06-.2.1-.29h0c.04-.09.09-.2.15-.33.06-.13.13-.28.22-.45.08-.16.14-.29.2-.4.05-.1.08-.17.09-.19h0s0-.01,0-.01c.15-.3.28-.56.4-.77.11-.21.21-.37.28-.48.08-.12.16-.21.23-.27h0c.09-.07.18-.1.28-.09.05,0,.1.02.14.05h0s.07.07.1.12h0s.05.08.06.12h0s.03.09.03.12c0,.02,0,.04,0,.06,0,.02,0,.03,0,.05h0s0,.04,0,.04h0s0,.01,0,.01v.03s-.04.09-.07.14c.07-.07.14-.14.22-.21.22-.21.42-.37.58-.47.18-.12.33-.17.45-.16h0c.12.01.22.06.28.15h0c.06.08.09.19.09.32,0,.05-.01.11-.04.17-.02.06-.06.12-.1.19h0s-.26.41-.26.41h0l-.24.39h0c-.08.12-.14.23-.2.33-.06.1-.11.2-.16.29-.05.09-.09.19-.14.29-.04.11-.09.22-.13.35-.04.12-.07.25-.1.38-.02.13-.04.26-.05.4.02.12.03.23.05.31.02.08.04.15.06.19.04.1.08.18.1.25.03.08.04.14.04.19,0,.25-.13.37-.39.37-.23,0-.4-.12-.52-.37-.11-.21-.17-.52-.2-.93v-.04c.02-.06.02-.13.02-.21h0s0-.02,0-.02c.04-.32.11-.64.21-.95.04-.11.08-.22.13-.33"/>
    <path class="st1" d="M141.39,118.17c.09-.11.18-.18.27-.24.1-.06.2-.09.3-.09.08,0,.15.01.2.04.07.03.12.08.15.14h0s0,.03,0,.03v.04s.01,0,.01,0v.04s0,0,0,0c0,.03,0,.08,0,.15,0,.12-.02.24-.07.36-.05.12-.11.23-.2.34-.18.23-.38.36-.6.4h-.03s-.03,0-.03,0c-.16-.05-.27-.13-.31-.23v-.03s-.01-.03-.01-.03c0,0,0,0,0,0h0s-.02-.05-.03-.08l-.02-.03v-.04c.02-.13.06-.26.11-.39.05-.13.13-.25.22-.38h0"/>
    <path class="st1" d="M140.32,120.73c.07-.11.15-.19.21-.25h0c.08-.07.17-.1.25-.1.09,0,.17.03.24.09h0s.08.08.1.13c.02.05.03.1.03.16s-.02.13-.06.22h0c-.04.07-.09.15-.15.24-.15.23-.29.47-.42.73-.13.26-.27.54-.39.83-.13.29-.23.57-.33.83h0c-.09.26-.17.51-.23.74h0c-.04.15-.08.27-.13.36h0c-.05.11-.11.18-.17.21h0s0,0,0,0l-.14.05h-.04s-.04,0-.04,0c-.13-.03-.22-.09-.29-.19h0c-.06-.09-.09-.21-.09-.36h0s0-.02,0-.02c.03-.2.1-.45.2-.74.1-.29.24-.63.4-1.01.34-.76.68-1.4,1.04-1.91"/>
    <path class="st1" d="M136.29,120.85c-.13-.23-.24-.46-.31-.71-.07-.24-.12-.5-.13-.76h0s0-.01,0-.01c0-.19.03-.38.07-.56h0c.04-.19.1-.37.18-.55.15-.37.39-.73.72-1.09.16-.18.35-.36.57-.53h0c.21-.17.45-.34.72-.51h0c.28-.15.56-.27.81-.34.26-.08.5-.12.73-.12.3,0,.55.09.77.26.11.09.19.2.25.34.05.13.08.28.08.44,0,.44-.2.91-.59,1.41h0c-.34.4-.69.73-1.08,1.01-.38.28-.79.49-1.22.65l-.06.02-.05-.03-.09-.05h0l-.07-.04s-.06-.03-.08-.05c-.03-.02-.05-.04-.07-.07-.03-.03-.05-.07-.07-.12-.01-.04-.02-.08-.02-.13,0-.13.06-.25.16-.36.09-.09.23-.18.41-.25h0c.35-.13.67-.3.96-.52.29-.22.54-.5.77-.82.05-.09.08-.18.1-.26.02-.08.03-.16.03-.24,0-.1-.02-.17-.06-.22-.04-.04-.11-.06-.2-.06-.04,0-.11,0-.2.03h0c-.09.02-.21.05-.35.09-.24.09-.47.2-.7.36-.23.15-.46.34-.68.56-.22.22-.39.45-.52.7-.13.25-.21.51-.25.79,0,.1,0,.19-.02.26.01.16.04.33.09.5.05.17.12.35.22.52.1.18.2.37.3.56.1.18.22.38.34.58.12.2.22.4.3.6h0c.08.2.14.38.17.57h0c.03.26.02.49-.04.7-.06.22-.15.42-.3.61-.14.18-.29.34-.47.47-.17.14-.37.25-.58.34-.21.09-.4.16-.59.2-.19.05-.37.07-.53.07-.32,0-.6-.04-.84-.12-.25-.08-.45-.2-.62-.36-.16-.16-.29-.34-.37-.53-.08-.19-.13-.4-.13-.63,0-.21.03-.41.09-.6.06-.19.16-.36.29-.51.26-.32.58-.47.96-.47.14,0,.24.04.32.12.08.08.11.19.11.32,0,.18-.13.33-.38.46l-.29.14s-.08.11-.1.18c-.03.09-.06.19-.07.31.03.23.12.42.27.54.15.13.37.21.66.24.55-.08.95-.23,1.22-.45.26-.21.38-.48.38-.83,0-.11-.01-.21-.03-.32h0c-.02-.11-.06-.22-.11-.34-.1-.23-.21-.45-.34-.66-.07-.1-.14-.21-.23-.35-.07-.11-.15-.23-.23-.37h0"/>
    <path class="st1" d="M174.26,117.79l-.12.02c-.24.05-.56.1-.96.17-.4.06-.74.11-1.04.14-.3.03-.55.05-.75.05-.22,0-.39-.03-.52-.1h0c-.15-.08-.23-.2-.27-.35v-.04s0-.04,0-.04l.06-.14h0s.05-.11.05-.11h0s.04-.08.07-.12h0s.06-.07.09-.1c.04-.04.1-.06.16-.08.05-.02.11-.02.18-.02.57,0,1.12-.03,1.66-.09.53-.06,1.04-.14,1.54-.26h0l.17-.04h0l.23-.05c.09-.02.16-.03.23-.04.07-.01.13-.02.18-.02.04,0,.07,0,.11,0,.03,0,.06,0,.08,0,.02,0,.04,0,.06.01.02,0,.04.01.05.02h0c.11.04.19.12.24.21.05.09.08.2.08.34s-.02.26-.07.38c-.05.12-.12.22-.21.31h0c-.52.51-1.01,1.04-1.49,1.58-.47.54-.93,1.09-1.36,1.65-.43.56-.82,1.1-1.17,1.62-.35.52-.65,1.02-.91,1.49h0c-.07.12-.14.23-.2.32-.07.09-.13.17-.2.24-.07.07-.14.13-.22.18-.08.05-.17.08-.27.11h-.05s-.04-.01-.04-.01l-.1-.05h0s-.11-.06-.11-.06h0c-.06-.03-.11-.08-.14-.13-.03-.05-.05-.11-.05-.18,0-.31.19-.76.57-1.34h0c.29-.45.57-.87.85-1.27.28-.4.56-.77.84-1.12.27-.34.54-.67.81-.98.27-.31.52-.6.77-.87.25-.28.5-.54.74-.79.14-.15.29-.3.43-.44"/>
    <path class="st1" d="M167.99,124.04c-.02.12-.08.22-.18.3-.09.07-.21.12-.36.14h-.04s-.04-.01-.04-.01c-.01,0-.03-.01-.04-.01h0s-.03,0-.04,0h-.05c-.08-.05-.19-.08-.32-.1-.13-.02-.29-.03-.47-.03-.19,0-.41.02-.66.06-.25.04-.54.11-.85.19-.32.09-.6.16-.85.22h0c-.25.06-.46.11-.64.14h-.02s-.02,0-.02,0c-.23-.02-.41-.09-.52-.22-.12-.13-.19-.31-.19-.53,0-.12.03-.24.1-.37.06-.12.15-.23.26-.35h0c.52-.51,1.12-1.03,1.8-1.56.34-.27.79-.6,1.33-1.01.54-.4,1.2-.88,1.97-1.43.3-.21.52-.42.66-.63.14-.19.21-.38.21-.56,0-.2-.05-.34-.15-.44-.1-.09-.27-.14-.5-.14-.13.01-.26.03-.38.06h0c-.12.03-.24.07-.34.12-.11.05-.22.12-.35.19-.13.08-.25.16-.38.26l-.34.25h0l-.25.18c-.05.05-.1.08-.15.11-.06.03-.12.05-.17.05-.07,0-.13-.02-.19-.05-.06-.03-.11-.07-.16-.13h0c-.05-.06-.08-.12-.1-.18-.02-.07-.02-.13,0-.2.02-.08.07-.18.13-.27.07-.09.15-.18.26-.28.16-.15.34-.29.55-.42.21-.13.44-.26.7-.38.26-.12.51-.21.75-.28.25-.06.48-.09.71-.09.47,0,.85.12,1.17.36.16.12.28.27.36.45.08.17.12.37.12.59,0,.35-.1.7-.29,1.04-.09.17-.2.33-.33.47-.12.15-.26.29-.41.41-.18.15-.46.37-.85.65-.39.28-.88.63-1.48,1.04-.59.41-1.12.8-1.57,1.18-.3.24-.57.48-.8.71.31-.07.6-.13.89-.18.42-.07.81-.1,1.16-.1.47,0,.81.06,1.04.17.26.13.37.34.32.61"/>
    <path class="st1" d="M164.1,117.45c-.03-.16-.08-.3-.14-.43-.06-.13-.14-.25-.23-.35-.09-.1-.2-.19-.32-.27-.12-.07-.25-.13-.4-.17-.14-.04-.3-.06-.47-.07-.22-.02-.45,0-.69.06-.24.05-.48.15-.74.27-.25.13-.5.27-.73.45-.23.17-.46.37-.67.59h0c-.38.42-.68.85-.88,1.29-.2.44-.31.88-.33,1.33h0v.02c.06.5.22.88.47,1.15.26.27.61.42,1.06.45h.01c.29-.02.59-.08.9-.18.2-.06.4-.14.6-.24-.11.19-.25.39-.41.59-.26.34-.58.7-.97,1.08h0c-.09.09-.19.18-.31.28-.11.1-.25.21-.4.33-.15.12-.28.23-.37.32-.1.1-.16.18-.19.25v.03s-.01.03-.01.03c0,0,0,0,0,0,0,.02-.02.05-.05.09l-.02.04v.05c.07.27.21.41.43.41.07,0,.15-.01.24-.05.09-.03.18-.09.29-.16.11-.07.22-.16.35-.27.12-.1.25-.22.39-.36.13-.13.26-.25.36-.35.1-.1.19-.18.27-.26h0c.32-.32.61-.63.87-.95.27-.32.51-.64.73-.97.22-.33.41-.65.58-.96.17-.32.31-.63.43-.93.24-.62.36-1.17.36-1.66,0-.18-.02-.34-.04-.5ZM162.73,119.12c-.09.31-.23.61-.41.88-.09.06-.2.12-.33.19-.14.07-.31.14-.49.21-.18.07-.37.13-.55.17-.17.04-.34.06-.52.08-.14-.03-.26-.07-.36-.11-.09-.04-.16-.08-.21-.12-.04-.04-.07-.09-.09-.16-.02-.08-.04-.19-.04-.32,0-.19.03-.38.08-.58.05-.2.14-.4.25-.61.11-.21.24-.4.39-.58.15-.18.31-.34.5-.49h0c.18-.15.36-.26.55-.34.18-.08.37-.13.56-.14h0c.54-.03.81.28.81.93,0,.36-.05.7-.14,1.02Z"/>
    <path class="st1" d="M156.99,118.39c-.18.11-.4.23-.67.38h0s0,0,0,0c-.28.12-.51.22-.69.28-.19.07-.32.11-.4.12h-.02s-.02,0-.02,0c-.12-.02-.22-.08-.29-.17-.06-.08-.09-.19-.09-.33,0-.09.02-.17.05-.25.03-.08.08-.14.15-.19.05-.04.11-.08.18-.12.07-.04.14-.07.22-.1h0c.09-.03.16-.06.22-.09.07-.03.14-.06.21-.09.24-.13.48-.27.73-.41.27-.15.51-.29.74-.42.26-.15.47-.27.65-.35.19-.09.34-.16.45-.19h.02s.02,0,.02,0h.1c.08,0,.16.01.23.04h0c.07.03.13.07.19.13h0c.1.11.15.24.15.39,0,.06-.01.12-.04.2-.03.07-.06.15-.11.24h0s0,.01,0,.01c-.2.28-.39.57-.58.86-.19.29-.37.58-.55.86-.17.29-.34.57-.5.84-.16.27-.3.53-.44.78-.12.23-.28.51-.46.87h0c-.17.33-.37.69-.58,1.09-.21.4-.38.73-.51.98-.13.25-.22.42-.28.51-.05.13-.12.24-.2.32-.09.09-.2.14-.32.16h-.03s-.03,0-.03,0c-.08-.02-.14-.05-.19-.08-.06-.03-.11-.07-.14-.12-.03-.04-.06-.09-.08-.15-.02-.06-.04-.12-.06-.19v-.03s0-.03,0-.03c.02-.15.09-.35.19-.61.1-.26.24-.57.41-.93h0c.64-1.27,1.2-2.3,1.67-3.1.27-.45.51-.83.72-1.13"/>
    <path class="st1" d="M111.94,116.98c-.4.07-.78.14-1.13.23-.43.11-.82.23-1.17.37l-.04.02h-.04c-.07-.02-.12-.04-.17-.07h0c-.05-.03-.1-.06-.13-.1h0s-.06-.07-.08-.12c-.03-.04-.05-.09-.08-.15l-.02-.04v-.04c.03-.12.07-.22.13-.31h0c.06-.09.14-.16.24-.22.09-.05.19-.09.3-.13.11-.04.23-.07.37-.1h0c.13-.03.24-.05.33-.07h0c.09-.02.16-.04.21-.06h0c.76-.22,1.55-.38,2.37-.49h0c.82-.11,1.66-.16,2.53-.16.29,0,.51.02.64.07h0c.09.03.15.08.2.14.04.06.06.14.06.23,0,.09-.02.17-.04.24-.03.08-.09.14-.16.17-.06.03-.12.05-.19.07-.07.02-.15.03-.24.04h0l-1.91.15c-.31.02-.55.04-.73.06l-.19.02s.02.09.02.14c0,.08-.03.18-.09.3-.05.1-.12.23-.22.37-.22.39-.44.8-.66,1.21-.22.41-.44.81-.64,1.21-.21.4-.41.8-.6,1.19-.19.39-.36.77-.53,1.15-.16.37-.31.75-.44,1.13-.13.38-.25.75-.36,1.12l-.05.22-.05.21c-.02.07-.04.14-.06.19-.02.06-.05.11-.08.16h0c-.04.05-.08.1-.14.12h0c-.05.03-.11.04-.18.04-.08,0-.15-.02-.21-.06h0c-.06-.04-.12-.09-.17-.15-.05-.06-.08-.13-.11-.2-.03-.07-.04-.14-.04-.22,0-.08.01-.18.03-.28.02-.1.04-.21.08-.33h0c.13-.43.29-.88.48-1.35.19-.47.4-.95.63-1.45.24-.5.56-1.14.98-1.93.38-.73.84-1.58,1.37-2.55"/>
    <path class="st3" d="M132.73,84.79l.07.34-.09.21.07.11-.07.07.02.45.27,1.09.35,1.14.51.49.55.42.68.33.36-.15.11.07.25-.05.25.13.32-.13c.29-.07.6-.19.91-.34.31-.16.68-.38,1.09-.66l.2-.07.09-.16.16-.09c.39-.39.86-.83,1.42-1.32.08-.07.14-.12.17-.15l-.07.67.09.21-.11.36-.31,2.86.04.28-.3,1.95.35.07.38-.58c.33-.04.57-.17.74-.38.16-.21.29-.61.39-1.2v-.22c.07-.15.14-.29.2-.44l.13-.52v-.14l.02-.06s.01,0,.02,0h.02s.28-1.14.28-1.14l-.03.03.07-.25.08-.24.04-.17h0s.53-2.32.53-2.32l-.03-.26.08-.28.11-.68-.11-.22c-.12-.18-.27-.3-.43-.39-.16-.09-.34-.13-.52-.13-.09,0-.18.02-.27.04-.1.03-.21.08-.34.14-.05.06-.13.15-.24.28-.38.44-.69.79-.91,1.06v.29l-.16.02-.13.34-.22.02-.69.66-.13.29-.13.09c-.33.3-.7.55-1.14.76-.43.21-.76.31-.97.31-.17,0-.35-.05-.55-.14-.2-.09-.45-.25-.76-.48l-.04-.22-.31-.76-.15-.22v-.21c-.03-.15-.05-.32-.07-.51-.01-.19-.02-.39-.02-.63,0-.44.03-.88.08-1.31,0,0,0-.02,0-.03h-2.03c-.07.53-.13,1.08-.16,1.66Z"/>
    <path class="st2" d="M135.24,81.39l.09-.13c.02-.09.07-.26.15-.52.08-.26.14-.48.19-.65l.05-.22c.05-.1.1-.2.15-.3.04-.1.1-.26.18-.46l.07-.36.13-.17.4-.67.04-.23.26-.26c.42-.67.88-1.18,1.38-1.55.5-.37,1-.55,1.49-.55h.08l.17-.07.23.13.26.04.19.19c.45.5.74.89.87,1.16.14.27.21.56.21.87v.13l.15.94c.01.16.06.28.14.37.08.09.19.13.33.13.05,0,.1,0,.15-.01.05-.01.12-.03.2-.05l.04-.03c.58-.57.99-1,1.22-1.29l-.08-.47-.16-.2-.15-.7-.17-.2c-.02-.25-.08-.47-.17-.66-.09-.19-.22-.36-.4-.5-.08-.17-.2-.34-.37-.51-.17-.17-.42-.36-.75-.59l-.2.02-.35-.15h-.45c-.36,0-.67.01-.93.05-.26.03-.5.08-.72.15l-.31.27-.1-.02-.11.07c-1.4.78-2.41,1.6-3.06,2.45l-.09.29c-.89,1.12-1.55,2.28-1.99,3.47-.27.76-.47,1.6-.6,2.53h2.03c.05-.42.13-.85.25-1.28l.07-.45Z"/>
    <path class="st3" d="M150.28,86.54s-.06,0-.09.02c-.03,0-.07.03-.14.06-.03.07-.11.13-.24.19-.13.06-.22.14-.26.24-.03.02-.08.05-.12.07-.05.02-.12.05-.21.08l-.18.1-.34.25-.16.22c-.08.02-.13.05-.18.09-.05.04-.09.1-.13.19l-.17.1c-.1.06-.19.14-.28.22-.09.08-.18.18-.28.29-.01.07-.03.13-.07.18-.03.05-.09.09-.15.13l.03-.15c.13-.28.26-.76.4-1.46.14-.69.27-1.52.38-2.47v-.09l.04-.11c.02-.14.03-.35.04-.63,0-.28.03-.47.08-.58l.02-.34h-1.37c-.04.06-.09.11-.13.17l-.02.05v-.03l-.12.16-.02.04c-.15.16-.34.36-.56.59-.25.27-.42.46-.52.58v.02c-.09.06-.16.12-.23.19-.07.08-.14.19-.21.31-.08.03-.13.06-.16.1-.03.04-.04.11-.05.21-.06.08-.15.21-.27.37-.12.16-.2.27-.26.34v.14s-.03.07-.03.11c0,.03,0,.06,0,.08,0,.05.03.09.08.12.04.03.1.04.16.03.03,0,.06-.01.09-.03.03-.01.07-.04.14-.08.02-.07.1-.14.22-.21.12-.07.2-.16.24-.27.03-.03.07-.06.12-.08l.07-.04v.09s.01-.02.01-.02c.05-.05.13-.11.25-.17l.28-.25s.07-.07.11-.09c.03-.02.07-.03.11-.03.07,0,.13.04.17.11.04.07.06.16.06.27,0,.05,0,.16-.01.32,0,.16-.03.35-.04.58.02.03.03.06.04.09.01.03.01.05.01.07,0,.01,0,.03,0,.04,0,.02-.02.04-.03.05-.03.1-.07.29-.09.6,0,.12-.02.22-.03.3l-.03.07c-.03.26-.08.58-.16.98-.08.4-.13.67-.15.8-.02.13-.03.22-.05.27-.02.06-.04.11-.07.15-.07.08-.13.16-.19.24-.06.08-.12.18-.18.3l-.04.12-.11.09c-.4.57-.74,1.13-1.01,1.67-.27.54-.48,1.07-.62,1.59l.02.11-.06.13c-.04.11-.07.21-.09.31-.02.1-.03.19-.03.29v.26c-.02.13-.03.22-.04.29,0,.06,0,.12,0,.17,0,.14.04.26.13.35.08.09.2.13.35.13.12,0,.22-.02.3-.06.08-.04.14-.11.19-.2.17-.23.32-.44.44-.62.12-.18.22-.35.32-.51v-.17h.09c.35-.72.61-1.28.78-1.66.17-.38.3-.73.4-1.04,0-.09.01-.18.04-.26.03-.08.06-.14.11-.19l.08-.4c.04-.13.09-.25.13-.36.04-.12.09-.21.14-.31l.19-.21c.01-.12.04-.2.09-.24.05-.05.13-.08.26-.09l.43-.45.05-.11.13-.09s.02-.03.03-.05c.11-.19.25-.29.4-.31.13-.11.24-.2.33-.28.09-.09.17-.17.23-.25.11-.05.2-.11.29-.19.08-.07.16-.17.24-.29.08-.02.14-.05.17-.08.03-.04.06-.11.07-.2.07-.07.17-.19.3-.34.13-.14.23-.25.29-.31l.02-.14s.03-.07.04-.1c0-.03.01-.06.01-.08,0-.05-.02-.09-.07-.12-.04-.03-.09-.05-.15-.05ZM145.35,92.28c-.01.05-.02.1-.03.14,0,.05,0,.09,0,.13v.1l-.15.25c-.01.15-.03.27-.07.36-.03.1-.07.18-.12.24-.04.14-.09.27-.15.39-.05.12-.11.22-.17.3-.01.08-.04.14-.08.2-.04.06-.09.1-.15.14,0-.01,0-.02-.01-.03,0-.01,0-.03,0-.05,0-.04.02-.1.06-.18.04-.07.06-.14.06-.2,0-.02,0-.04,0-.05,0-.02,0-.03-.01-.04l.23-.61v-.11c0-.09.02-.17.06-.25.03-.08.1-.16.18-.24l.02-.13.16-.2c.03-.06.06-.12.1-.18.04-.06.09-.11.14-.16l-.04.16Z"/>
    <path class="st5" d="M148.52,83c0-.19-.08-.34-.24-.43-.16-.1-.38-.15-.68-.15-.15,0-.32.08-.51.24-.14.11-.28.28-.43.47h1.85v-.12Z"/>
    <path class="st1" d="M134.08,116.6h0c-.02-.06-.05-.11-.08-.16h0c-.04-.06-.09-.1-.14-.13-.05-.03-.11-.05-.18-.05-.1,0-.2.07-.32.2-.09.11-.2.27-.32.49-.21.36-.39.71-.55,1.05h0s-1.15,2.4-1.15,2.4c-.12-.06-.27-.1-.44-.1-.43,0-.84.21-1.23.64h0c-.16.19-.31.4-.43.61-.13.22-.24.44-.34.68-.03.08-.06.16-.09.23h0s0-.01,0-.01c-.01-.04-.03-.07-.05-.1h0s-.06-.06-.11-.08c-.04-.02-.08-.02-.13-.02-.05,0-.09.01-.14.04-.04.02-.07.05-.11.09l-.15.17h0c-.18.21-.35.4-.5.55-.15.15-.28.28-.39.38-.1.09-.22.16-.35.22-.13.05-.27.09-.42.11-.17-.01-.29-.06-.36-.14-.06-.06-.09-.16-.1-.28.19-.06.39-.15.58-.27.23-.14.46-.31.69-.53.1-.1.21-.21.31-.34.1-.13.19-.27.29-.43.1-.16.17-.32.22-.47.05-.15.07-.3.07-.44,0-.2-.05-.35-.15-.46-.1-.11-.25-.17-.43-.17-.21,0-.45.09-.71.26-.25.17-.52.41-.82.74-.12.13-.22.28-.33.45-.11.17-.21.37-.31.58-.1.22-.18.44-.23.65-.05.21-.08.42-.08.62,0,.35.09.63.26.83.18.2.44.32.78.34h.01s.01,0,.01,0c.18-.01.34-.05.5-.1.16-.05.31-.12.45-.21h0c.21-.14.4-.28.58-.42.18-.15.35-.3.5-.45.16-.16.28-.31.38-.44.03-.05.06-.09.09-.13-.04.22-.07.43-.07.65,0,.36.06.65.18.85.13.22.32.34.58.37h.01s.01,0,.01,0c.24-.02.47-.15.71-.39.15-.15.3-.36.45-.6l.02.09c.03.16.07.31.12.45.05.15.13.27.23.36.1.09.23.16.38.2h.03s.03,0,.03,0c.08-.02.14-.05.2-.09.05-.05.1-.1.13-.17h0s0-.01,0-.01c0-.03.02-.07.02-.1,0-.02,0-.04,0-.06h0s0-.06,0-.06h0v-.16s-.05-.09-.09-.13c-.03-.03-.06-.06-.1-.08-.04-.04-.08-.1-.11-.2h0c-.04-.11-.06-.25-.08-.42,0-.05.01-.09.02-.14,0-.06,0-.12,0-.19.02-.18.06-.37.11-.58.05-.21.12-.43.2-.66.08-.23.17-.47.27-.71.1-.24.21-.49.33-.75.12-.26.24-.51.37-.76.12-.24.24-.48.36-.72l.58-1.11h0s.04-.09.08-.16c.03-.06.08-.14.14-.24h0c.05-.09.1-.17.14-.25.04-.07.07-.13.09-.17.04-.1.06-.19.06-.29,0-.06-.01-.12-.03-.18ZM126.48,121.57c.49-.55,1.01-.88,1.18-.73.17.15-.09.71-.58,1.26s-1.01.88-1.18.73c-.17-.15.09-.71.58-1.26ZM131.14,121.11h0c-.05.12-.1.23-.14.33-.04.09-.08.21-.14.34-.05.12-.11.24-.17.38-.06.14-.13.28-.2.41-.07.15-.14.29-.22.42-.26.46-.48.79-.67,1-.14.15-.23.22-.28.21h0s-.07-.05-.09-.1c-.04-.07-.06-.18-.08-.31,0-.16.04-.35.09-.55.05-.21.14-.45.24-.71.1-.25.22-.49.35-.7.13-.21.26-.39.4-.55.13-.15.27-.26.4-.33.12-.07.24-.1.37-.1.08,0,.15.01.2.03h.03s-.1.23-.1.23Z"/>
    <path class="st1" d="M150.96,122.47h0s-.03-.07-.05-.1h0s-.07-.06-.11-.08c-.04-.02-.08-.02-.12-.02-.05,0-.09.01-.14.04h0s-.07.05-.11.09l-.15.17h0c-.18.21-.35.4-.5.55-.15.15-.28.28-.39.38-.1.09-.22.16-.35.22-.13.05-.27.09-.42.11-.17-.01-.29-.06-.36-.14-.06-.06-.09-.16-.1-.28.19-.06.39-.15.58-.27.22-.14.45-.31.69-.53.11-.1.21-.21.31-.34.1-.13.19-.27.29-.43.09-.16.17-.32.22-.47.05-.15.07-.3.07-.44,0-.2-.05-.35-.15-.46h0c-.1-.11-.25-.17-.43-.17-.22,0-.45.09-.72.26-.25.17-.52.41-.82.74-.11.13-.23.28-.33.45h0c-.11.17-.21.37-.31.58-.1.22-.18.44-.23.65-.05.21-.08.42-.08.62,0,.35.09.63.26.83.18.2.44.32.78.34h.01s.01,0,.01,0c.17-.01.34-.05.5-.1.16-.05.31-.12.45-.21h0c.21-.14.4-.28.59-.42.18-.15.35-.3.5-.45.15-.16.28-.31.38-.44.1-.14.17-.27.21-.39v-.02s0-.01,0-.01h0s0-.03,0-.03h0s0-.04,0-.05h0s0-.05,0-.05h0s0-.08-.02-.12ZM148.63,121.57c.49-.55,1.01-.88,1.18-.73.17.15-.09.71-.58,1.26s-1.01.88-1.18.73.09-.71.58-1.26Z"/>
    <g>
      <path class="st1" d="M136.45,111.64c4.15-.19,10.6,3.01,15.16,1.75-8.31,2.87-13.05-2.1-17.79-.51-.64.22-.35.4-.04.6,1.17.67,3.65,1.14,6.4.31-1.2,1.49-5.51,1.37-6.63-.03-1.32-1.28,1.94-2.07,2.9-2.12Z"/>
      <path class="st1" d="M131.64,112.19c2.99-5.8,17.59,1.07,21.49-.99-2.9,4.26-16.01-3.42-21.49.99"/>
      <line class="st4" x1="111.61" y1="112.87" x2="130.73" y2="112.87"/>
      <line class="st4" x1="152.91" y1="112.87" x2="172.04" y2="112.87"/>
    </g>
  </g>
</svg>