<?xml version="1.0" encoding="utf-8"?>
<!-- Generator: Adobe Illustrator 30.1.0, SVG Export Plug-In . SVG Version: 9.03 Build 0)  -->
<svg version="1.0" id="Layer_1" xmlns="http://www.w3.org/2000/svg" xmlns:xlink="http://www.w3.org/1999/xlink" x="0px" y="0px"
	 viewBox="0 0 284 185" style="enable-background:new 0 0 284 185;" xml:space="preserve">
<style type="text/css">
	.st0{fill-rule:evenodd;clip-rule:evenodd;fill:#231F20;}
	.st1{fill-rule:evenodd;clip-rule:evenodd;fill:#FFFFFF;}
	.st2{fill:none;}
	.st3{fill:#231F20;}
	.st4{fill:#FFFFFF;}
	.st5{fill:#FFFDF8;}
	.st6{fill:none;stroke:#231F20;stroke-width:0.8431;stroke-miterlimit:10;}
</style>
<g>
	<path class="st0" d="M142.38,55.24c13.86,0,25.18,10.77,25.18,23.98l0,0H117.2l0,0C117.2,66.02,128.52,55.24,142.38,55.24z"/>
	<path class="st1" d="M150.6,72.27c-0.62-0.25-1.53,0.5-2.03,1.63c-0.48,1.15-0.37,2.28,0.25,2.52c0.62,0.23,1.53-0.5,2.03-1.63
		C151.34,73.63,151.24,72.5,150.6,72.27z"/>
	<path class="st0" d="M175.95,79.2c0,17.61-15.08,31.97-33.57,31.97s-33.57-14.36-33.57-31.97h8.39c0,13.2,11.32,23.97,25.18,23.97
		c13.86,0,25.18-10.77,25.18-23.97C167.56,79.2,175.95,79.2,175.95,79.2z"/>
	<path class="st0" d="M174,69.22l-2.63,0.76l0.07,0.23c0.12,0.39,0.26,0.68,0.39,0.84c0.14,0.18,0.32,0.29,0.55,0.33
		c0.23,0.06,0.5,0.04,0.82-0.06c0.46-0.14,0.76-0.33,0.91-0.61c0.15-0.26,0.15-0.62,0-1.08l-0.14-0.46L174,69.22z M171.06,70.08
		l-1.69,0.48c-0.32,0.1-0.53,0.17-0.59,0.23c-0.07,0.07-0.12,0.15-0.14,0.26c-0.01,0.11,0,0.29,0.1,0.55l-0.17,0.04l-0.94-2.93
		l0.17-0.04c0.08,0.26,0.17,0.44,0.25,0.51c0.08,0.08,0.17,0.12,0.26,0.14s0.3-0.03,0.62-0.12l3.9-1.13
		c0.32-0.1,0.53-0.18,0.59-0.23c0.07-0.07,0.11-0.15,0.14-0.26c0.01-0.11,0-0.29-0.1-0.55l0.17-0.04l0.86,2.65
		c0.22,0.69,0.33,1.22,0.33,1.56c0,0.35-0.1,0.66-0.3,0.94s-0.5,0.47-0.86,0.58c-0.44,0.12-0.86,0.08-1.24-0.14
		c-0.25-0.14-0.47-0.37-0.66-0.69l-1.59,1.96c-0.21,0.26-0.33,0.43-0.37,0.53c-0.06,0.14-0.06,0.29-0.03,0.44l-0.17,0.04l-0.58-1.8
		l2.14-2.64l-0.12-0.37 M167.08,64l1.31-1.87l-2.34,0.35l1.04,1.52 M166.89,64.3l-1.2-1.77l-0.66,0.11
		c-0.22,0.04-0.37,0.08-0.5,0.15c-0.15,0.1-0.22,0.22-0.21,0.37c0,0.1,0.08,0.28,0.23,0.55l-0.14,0.08l-1.13-1.66l0.14-0.08
		c0.15,0.17,0.33,0.26,0.54,0.29c0.21,0.04,0.57,0.01,1.08-0.06l5.42-0.8l0.04,0.07l-3.08,4.48c-0.29,0.43-0.46,0.72-0.48,0.9
		c-0.03,0.14,0,0.28,0.1,0.44l-0.14,0.08l-1.66-2.42l0.14-0.08l0.07,0.1c0.14,0.19,0.26,0.32,0.36,0.36
		c0.08,0.03,0.15,0.01,0.23-0.03c0.04-0.03,0.08-0.07,0.12-0.11c0.01-0.01,0.1-0.11,0.22-0.29l0.47-0.68 M162.14,56.18l0.04,3.36
		c0,0.47,0.06,0.83,0.15,1.06c0.07,0.17,0.18,0.3,0.32,0.41l-0.11,0.12l-2.57-1.92l0.11-0.12c0.18,0.11,0.3,0.17,0.37,0.17
		c0.08,0,0.14-0.03,0.18-0.07c0.08-0.1,0.12-0.36,0.11-0.8v-2.2h-0.32l-1.05,1.29c-0.21,0.25-0.32,0.41-0.33,0.5
		c-0.03,0.08,0,0.18,0.04,0.28c0.04,0.11,0.17,0.22,0.35,0.36l-0.11,0.12l-2.49-1.85l0.1-0.12l0.17,0.12
		c0.14,0.11,0.28,0.17,0.41,0.18c0.1,0.01,0.18,0,0.28-0.06c0.07-0.03,0.21-0.17,0.4-0.41l2.54-3.1c0.19-0.23,0.3-0.4,0.33-0.48
		s0-0.17-0.03-0.28c-0.04-0.11-0.14-0.21-0.28-0.32l-0.17-0.12l0.11-0.12l2.46,1.82l-0.11,0.12c-0.17-0.12-0.3-0.19-0.44-0.22
		c-0.1-0.01-0.18,0-0.28,0.06c-0.08,0.04-0.22,0.18-0.41,0.41l-1.2,1.47l2.99-0.04c0.41,0,0.68-0.07,0.77-0.18
		c0.07-0.08,0.07-0.19,0-0.32c-0.03-0.07-0.15-0.18-0.36-0.35l0.11-0.12l1.93,1.44l-0.11,0.12c-0.18-0.11-0.35-0.19-0.48-0.21
		c-0.14-0.03-0.5-0.04-1.08-0.03L162.14,56.18 M155.36,56.07l-0.07,0.15l-3-1.27l0.07-0.15l0.19,0.08c0.17,0.07,0.32,0.1,0.44,0.08
		c0.1,0,0.18-0.04,0.26-0.12c0.07-0.06,0.15-0.21,0.29-0.48l1.69-3.59c0.12-0.28,0.19-0.46,0.19-0.54c0-0.08-0.03-0.17-0.11-0.26
		c-0.07-0.1-0.18-0.18-0.35-0.23l-0.19-0.08l0.07-0.15l3,1.27l-0.07,0.15l-0.19-0.08c-0.17-0.07-0.32-0.1-0.44-0.08
		c-0.1,0-0.18,0.04-0.26,0.12c-0.06,0.06-0.15,0.22-0.28,0.48l-1.69,3.59c-0.12,0.28-0.19,0.46-0.19,0.54s0.04,0.17,0.1,0.26
		c0.07,0.1,0.18,0.18,0.35,0.25l0.19,0.08 M151.9,48.26l-0.03,0.17c-0.23,0-0.46,0.08-0.66,0.25c-0.15,0.12-0.4,0.44-0.75,0.94
		l-2.89,4.19l-0.15-0.03l-1.34-5c-0.17-0.61-0.28-0.97-0.35-1.08c-0.07-0.11-0.22-0.19-0.46-0.26l0.03-0.17l2.97,0.44l-0.03,0.17
		h-0.1c-0.26-0.06-0.46-0.06-0.57,0c-0.08,0.03-0.12,0.1-0.14,0.18c0,0.06,0,0.11,0,0.19c0,0.07,0.07,0.28,0.15,0.61l0.83,3.14
		l1.66-2.43c0.19-0.29,0.33-0.5,0.37-0.59c0.06-0.1,0.08-0.19,0.1-0.26c0-0.08,0-0.17-0.04-0.23c-0.04-0.07-0.1-0.14-0.19-0.18
		c-0.12-0.07-0.29-0.12-0.51-0.15l0.03-0.17l2.03,0.3 M138.9,47.73l0.18,2.43h0.12c0.4-0.04,0.68-0.17,0.83-0.41
		c0.17-0.25,0.25-0.61,0.26-1.08h0.18l0.22,3.11h-0.18c-0.07-0.33-0.17-0.59-0.29-0.8c-0.14-0.21-0.28-0.35-0.44-0.41
		c-0.17-0.07-0.39-0.08-0.69-0.07l0.12,1.67c0.03,0.33,0.06,0.53,0.08,0.59c0.03,0.07,0.1,0.12,0.18,0.17
		c0.08,0.04,0.21,0.06,0.39,0.04l0.37-0.03c0.58-0.04,1.04-0.19,1.38-0.48c0.33-0.28,0.55-0.69,0.68-1.23h0.17l-0.14,1.91
		l-5.42,0.36v-0.17l0.19-0.01c0.18,0,0.32-0.06,0.43-0.12c0.08-0.04,0.14-0.12,0.17-0.22c0.03-0.07,0.04-0.26,0-0.55l-0.29-3.93
		c-0.03-0.28-0.04-0.43-0.06-0.5c-0.04-0.1-0.1-0.18-0.19-0.22c-0.12-0.07-0.29-0.11-0.48-0.1h-0.21v-0.15l5.24-0.35l0.12,1.76
		h-0.18c-0.12-0.41-0.28-0.72-0.44-0.88c-0.18-0.18-0.41-0.3-0.72-0.37c-0.18-0.04-0.5-0.04-0.98-0.01l-0.65,0.04 M129.36,50.1
		l1.84,4.33c0.1,0.22,0.17,0.36,0.21,0.4s0.1,0.07,0.17,0.07c0.1,0,0.22,0,0.36-0.07c0.48-0.18,0.77-0.48,0.9-0.88
		c0.17-0.55,0.06-1.27-0.32-2.16c-0.3-0.7-0.66-1.23-1.08-1.56c-0.33-0.26-0.66-0.39-1.01-0.4c-0.25,0-0.61,0.08-1.08,0.28
		 M129.36,56.18l-0.07-0.15l0.19-0.07c0.17-0.07,0.29-0.14,0.36-0.22c0.07-0.08,0.11-0.18,0.11-0.28c0-0.07-0.06-0.25-0.18-0.53
		l-1.55-3.63c-0.12-0.28-0.21-0.46-0.28-0.51c-0.07-0.06-0.15-0.1-0.28-0.11c-0.12-0.01-0.26,0-0.41,0.07l-0.19,0.07L127,50.66
		l2.6-1c0.69-0.26,1.3-0.39,1.8-0.37c0.61,0.01,1.15,0.21,1.6,0.55s0.8,0.8,1.05,1.35c0.17,0.39,0.25,0.77,0.26,1.15
		c0,0.37-0.04,0.72-0.17,1.01c-0.12,0.29-0.29,0.55-0.51,0.8c-0.22,0.23-0.51,0.46-0.87,0.69c-0.17,0.1-0.43,0.22-0.8,0.36l-2.6,1
		 M120.82,54.62l4.81,1.19l-1.62-2.05c-0.22-0.29-0.41-0.44-0.59-0.48c-0.22-0.06-0.47,0.03-0.75,0.23l-0.1-0.12l1.66-1.19l0.1,0.12
		c-0.19,0.18-0.3,0.32-0.35,0.4c-0.04,0.1-0.04,0.21,0,0.32c0.03,0.12,0.14,0.29,0.32,0.53l3.14,3.97l-0.12,0.1l-6.54-1.55l2.4,3.03
		c0.22,0.28,0.43,0.41,0.64,0.41c0.21,0,0.4-0.06,0.57-0.18l0.12-0.08l0.1,0.12l-1.78,1.27l-0.11-0.12
		c0.28-0.21,0.43-0.39,0.46-0.58c0.03-0.18-0.07-0.4-0.26-0.65l-2.67-3.37l-0.21-0.06c-0.21-0.06-0.36-0.07-0.48-0.04
		c-0.11,0.01-0.25,0.08-0.4,0.18l-0.1-0.12l1.78-1.27 M118.4,62.94l-2.31-0.46l1.22,1.93L118.4,62.94 M118.77,63.01l-1.27,1.73
		l0.35,0.54c0.12,0.18,0.23,0.3,0.35,0.37c0.14,0.1,0.29,0.11,0.44,0.04c0.1-0.04,0.23-0.18,0.44-0.41l0.14,0.1L118.03,67l-0.14-0.1
		c0.1-0.19,0.12-0.39,0.08-0.58c-0.04-0.19-0.19-0.51-0.47-0.94l-2.82-4.48l0.06-0.07l5.51,1.05c0.53,0.1,0.87,0.12,1.06,0.08
		c0.14-0.03,0.28-0.11,0.39-0.26l0.14,0.1l-1.74,2.36l-0.14-0.1l0.07-0.1c0.14-0.19,0.21-0.35,0.21-0.46c0-0.08-0.04-0.15-0.11-0.19
		c-0.04-0.03-0.1-0.06-0.15-0.07c-0.03,0-0.15-0.04-0.36-0.08l-0.83-0.17 M111.19,66.78l2.07,0.72l-0.06,0.15
		c-0.64,0-1.17,0.11-1.62,0.39c-0.44,0.26-0.75,0.62-0.91,1.06c-0.17,0.41-0.17,0.82-0.03,1.17c0.14,0.36,0.41,0.68,0.82,0.95
		c0.4,0.28,0.83,0.48,1.3,0.65c0.57,0.19,1.08,0.3,1.56,0.32c0.47,0.03,0.87-0.07,1.17-0.29c0.3-0.21,0.54-0.51,0.69-0.9
		c0.06-0.14,0.1-0.28,0.11-0.43c0.03-0.15,0.04-0.32,0.04-0.48l-1.23-0.43c-0.23-0.08-0.39-0.11-0.47-0.11s-0.17,0.06-0.26,0.12
		c-0.1,0.08-0.17,0.18-0.21,0.32l-0.06,0.14l-0.17-0.06l1.04-2.72l0.17,0.06c-0.07,0.21-0.1,0.36-0.08,0.47
		c0.01,0.1,0.07,0.18,0.15,0.26c0.04,0.04,0.18,0.1,0.39,0.18l1.23,0.43c0.03,0.41,0.01,0.83-0.04,1.26
		c-0.06,0.41-0.18,0.83-0.33,1.26c-0.21,0.54-0.46,0.95-0.73,1.24c-0.29,0.3-0.61,0.54-0.95,0.72c-0.36,0.18-0.7,0.29-1.08,0.35
		c-0.47,0.06-0.95,0-1.45-0.18c-0.88-0.3-1.52-0.86-1.91-1.67c-0.39-0.8-0.4-1.66-0.06-2.56c0.11-0.28,0.22-0.53,0.36-0.73
		c0.07-0.11,0.21-0.29,0.43-0.53c0.21-0.23,0.33-0.37,0.35-0.43c0.03-0.08,0.03-0.15,0-0.25c-0.03-0.08-0.12-0.19-0.26-0.3
		l0.06-0.15"/>
	<path class="st0" d="M180.65,69.35h0.86c0.41,0,0.69-0.06,0.83-0.18c0.15-0.12,0.22-0.28,0.22-0.48c0-0.12-0.04-0.25-0.11-0.35
		s-0.17-0.18-0.29-0.22c-0.12-0.06-0.36-0.07-0.7-0.07h-0.8v1.31V69.35z M179.95,71.8v-4.35h1.51c0.51,0,0.88,0.04,1.12,0.12
		s0.41,0.22,0.55,0.41c0.14,0.21,0.21,0.41,0.21,0.64c0,0.32-0.11,0.59-0.35,0.83c-0.22,0.23-0.53,0.37-0.9,0.4
		c0.15,0.07,0.28,0.14,0.37,0.23c0.18,0.17,0.39,0.46,0.65,0.86l0.53,0.86h-0.86l-0.39-0.69c-0.3-0.54-0.55-0.88-0.75-1.01
		c-0.12-0.1-0.32-0.15-0.57-0.15h-0.41v1.85h-0.7 M181.73,66.18c-0.57,0-1.12,0.15-1.66,0.44s-0.95,0.7-1.27,1.26
		c-0.3,0.54-0.46,1.11-0.46,1.7s0.15,1.15,0.46,1.69c0.29,0.54,0.72,0.95,1.26,1.26c0.54,0.3,1.09,0.46,1.69,0.46
		s1.15-0.15,1.69-0.46c0.54-0.3,0.95-0.72,1.26-1.26c0.29-0.54,0.44-1.09,0.44-1.69s-0.15-1.15-0.46-1.7
		c-0.3-0.54-0.72-0.95-1.27-1.26c-0.54-0.29-1.09-0.44-1.66-0.44 M181.73,65.51c0.68,0,1.34,0.18,1.99,0.53
		c0.65,0.35,1.16,0.84,1.52,1.49c0.36,0.65,0.54,1.33,0.54,2.03s-0.18,1.37-0.54,2.02c-0.36,0.65-0.86,1.15-1.49,1.51
		c-0.65,0.36-1.31,0.54-2.02,0.54c-0.7,0-1.37-0.18-2.02-0.54c-0.64-0.36-1.15-0.86-1.51-1.51c-0.36-0.64-0.54-1.31-0.54-2.02
		s0.18-1.38,0.54-2.03c0.37-0.65,0.87-1.15,1.52-1.49c0.65-0.35,1.31-0.53,1.99-0.53"/>
	<path class="st0" d="M116.08,131.06h-0.04l-0.07,0.03l-0.06-0.03c0,0-0.01,0-0.03,0c0,0-0.03,0-0.06,0h-0.08
		c-0.14-0.08-0.25-0.15-0.32-0.25c-0.08-0.11-0.12-0.22-0.12-0.36l0,0v-0.03c0.03-0.17,0.1-0.29,0.22-0.39
		c0.11-0.08,0.26-0.15,0.44-0.17c0.18-0.04,0.36-0.08,0.53-0.12c0.12-0.03,0.25-0.07,0.37-0.1c0.32-0.55,0.58-1.02,0.82-1.38
		c0.23-0.39,0.44-0.68,0.59-0.87l0,0c0.1-0.11,0.18-0.19,0.26-0.25c0.1-0.07,0.19-0.11,0.28-0.11c0.15,0,0.28,0.06,0.39,0.17l0,0
		c0,0,0.08,0.12,0.11,0.19l0,0c0.03,0.07,0.03,0.15,0.03,0.22c0,0.08-0.01,0.19-0.04,0.29c-0.03,0.1-0.07,0.21-0.12,0.3l0,0
		c-0.06,0.1-0.11,0.21-0.19,0.33c-0.07,0.11-0.15,0.23-0.25,0.37l-0.08,0.11c0.18-0.04,0.33-0.08,0.47-0.11
		c0.23-0.06,0.4-0.08,0.47-0.08c0.37,0,0.59,0.17,0.66,0.5l0,0v0.03c0,0.12,0,0.22-0.04,0.32c-0.03,0.11-0.1,0.19-0.18,0.25
		c-0.07,0.04-0.15,0.1-0.25,0.12l0,0c-0.1,0.03-0.21,0.06-0.35,0.08l-0.28,0.04h-0.11l-0.18,0.07l0,0l-0.44,0.14l0,0
		c-0.19,0.06-0.36,0.11-0.5,0.15c-0.11,0.03-0.21,0.06-0.28,0.08c-0.37,0.66-0.7,1.37-1,2.1l0,0c-0.29,0.76-0.53,1.55-0.7,2.38
		c0,0.1,0.04,0.17,0.07,0.23l0,0c0,0,0.07,0.1,0.11,0.14c0.11-0.03,0.21-0.06,0.29-0.11c0.11-0.06,0.21-0.14,0.29-0.23
		c0.1-0.11,0.19-0.25,0.3-0.41s0.23-0.36,0.36-0.58c0.14-0.23,0.25-0.41,0.33-0.55c0.1-0.15,0.18-0.26,0.23-0.33v-0.03l0.04-0.01
		c0.07-0.04,0.15-0.06,0.23-0.06c0.1,0,0.21,0.04,0.3,0.12c0.06,0.04,0.08,0.1,0.11,0.17c0.03,0.06,0.04,0.12,0.04,0.19
		c0,0.03,0,0.08-0.03,0.14c-0.01,0.04-0.03,0.1-0.06,0.17l0,0v0.01c-0.43,0.91-0.87,1.6-1.31,2.07c-0.47,0.5-0.94,0.77-1.44,0.8
		h-0.01h-0.01c-0.18-0.03-0.33-0.07-0.46-0.15c-0.14-0.08-0.25-0.18-0.32-0.32c-0.08-0.12-0.14-0.26-0.19-0.43
		c-0.06-0.15-0.1-0.35-0.12-0.55v-0.03v-0.03c0.01-0.26,0.04-0.53,0.08-0.79c0.04-0.25,0.1-0.5,0.17-0.73
		c0.14-0.47,0.33-1.01,0.61-1.63l0,0l0.47-1.09"/>
	<path class="st0" d="M111.1,133.76c-0.08-0.15-0.14-0.32-0.18-0.48c-0.04-0.17-0.07-0.35-0.08-0.51l0,0c0-0.39,0.1-0.73,0.25-1.05
		c0.17-0.32,0.4-0.61,0.72-0.86c0.32-0.25,0.64-0.44,0.97-0.57c0.35-0.12,0.69-0.19,1.05-0.19c0.84,0,1.27,0.35,1.27,1.05
		c0,0.29-0.06,0.55-0.17,0.8s-0.28,0.46-0.48,0.65c-0.21,0.18-0.44,0.35-0.69,0.46c-0.25,0.12-0.51,0.21-0.79,0.28h-0.03l0,0
		c-0.01,0-0.03,0-0.04,0l-0.06,0.03h-0.07c-0.26-0.07-0.41-0.19-0.46-0.4h-0.1l0.04-0.22c0.03-0.11,0.06-0.19,0.1-0.28
		c0.06-0.08,0.12-0.15,0.21-0.19l0,0c0,0,0.14-0.07,0.25-0.11s0.23-0.08,0.37-0.12c0.14-0.04,0.26-0.08,0.35-0.12
		c0.08-0.04,0.15-0.08,0.21-0.11c0.03-0.03,0.06-0.06,0.07-0.11c0.03-0.06,0.03-0.12,0.03-0.22c0-0.1-0.01-0.14-0.04-0.18
		c-0.03-0.03-0.08-0.04-0.15-0.04c-0.37,0-0.72,0.14-1.04,0.43c-0.17,0.14-0.29,0.3-0.39,0.48c-0.1,0.17-0.15,0.36-0.19,0.57
		c0,0.11,0.03,0.23,0.07,0.35c0.04,0.12,0.1,0.26,0.18,0.4c0.1,0.17,0.18,0.32,0.25,0.46l0,0c0.08,0.17,0.17,0.32,0.23,0.47l0,0
		c0.08,0.17,0.15,0.33,0.19,0.48c0.04,0.17,0.07,0.32,0.07,0.47c0,0.48-0.19,0.9-0.57,1.23c-0.18,0.17-0.37,0.29-0.59,0.37
		c-0.21,0.08-0.43,0.12-0.66,0.12c-0.28,0-0.51-0.06-0.73-0.15c-0.22-0.1-0.4-0.25-0.55-0.46l0,0c-0.14-0.19-0.25-0.4-0.33-0.62l0,0
		c-0.07-0.22-0.11-0.47-0.11-0.72c0-0.41,0.06-0.75,0.18-1.02l0,0c0.12-0.28,0.29-0.5,0.54-0.64c0.01-0.01,0.04-0.03,0.07-0.04
		c0.03,0,0.06-0.01,0.1-0.01c0.03,0,0.06,0,0.08,0l0,0h0.03c0.11,0,0.19,0.03,0.26,0.08l0,0c0.1,0.07,0.15,0.17,0.15,0.29v0.04
		l-0.03,0.04v0.04h-0.03v0.03c0,0-0.01,0.03-0.01,0.04v0.07c-0.07,0.14-0.12,0.28-0.15,0.43c-0.04,0.15-0.06,0.29-0.08,0.44
		c0,0.14,0.03,0.25,0.07,0.36c0.04,0.11,0.11,0.21,0.18,0.29c0.08,0.08,0.17,0.15,0.25,0.19c0.07,0.04,0.14,0.06,0.19,0.06
		c0.1,0,0.18,0,0.23-0.04c0.06-0.03,0.11-0.06,0.15-0.11c0.04-0.06,0.08-0.11,0.1-0.18c0.03-0.07,0.04-0.15,0.04-0.25
		c0-0.1,0-0.17-0.03-0.25c-0.01-0.08-0.04-0.15-0.07-0.23c-0.04-0.08-0.07-0.17-0.11-0.23c-0.04-0.08-0.08-0.15-0.12-0.23l0,0
		l-0.17-0.26l0,0l-0.18-0.3l0,0v-0.01"/>
	<line class="st2" x1="108.16" y1="132.5" x2="108.16" y2="132.5"/>
	<path class="st0" d="M107.66,135.62c-0.07,0.1-0.14,0.19-0.19,0.28c-0.15,0.19-0.28,0.36-0.39,0.47c-0.12,0.12-0.26,0.23-0.41,0.3
		l0,0c-0.15,0.08-0.33,0.12-0.51,0.15h-0.03h-0.03c-0.3-0.06-0.53-0.21-0.68-0.44c-0.14-0.22-0.22-0.53-0.22-0.9
		c0-0.35,0.07-0.72,0.19-1.15c0.12-0.41,0.3-0.86,0.55-1.35l0,0c0.1-0.19,0.21-0.4,0.35-0.59l0,0c0.12-0.21,0.28-0.41,0.44-0.62
		c0.17-0.22,0.33-0.39,0.47-0.5l0,0c0.17-0.12,0.32-0.19,0.47-0.19c0.1,0,0.19,0.03,0.28,0.07c0.07,0.04,0.14,0.11,0.19,0.18
		c0,0,0.03,0.03,0.03,0.04s0.01,0.04,0.03,0.06c0,0.03,0,0.04,0.01,0.07c0,0.03,0,0.04,0,0.07c0,0.14-0.06,0.29-0.15,0.46
		c-0.08,0.14-0.21,0.29-0.37,0.46c-0.36,0.47-0.65,0.95-0.87,1.42c-0.21,0.46-0.36,0.91-0.46,1.37c0.01,0.04,0.03,0.08,0.04,0.11
		h0.03l0,0l0,0c0.07-0.03,0.17-0.08,0.25-0.17c0.14-0.12,0.28-0.32,0.41-0.55l0,0c0.22-0.32,0.43-0.66,0.59-1.02
		c0.18-0.36,0.33-0.75,0.46-1.16c0.22-0.8,0.57-1.2,1.02-1.2c0.08,0,0.15,0.03,0.22,0.07l0,0c0,0,0.11,0.08,0.15,0.15l0,0
		c0,0,0.07,0.12,0.1,0.19c0.03,0.07,0.03,0.14,0.03,0.21c0,0.35-0.15,0.82-0.46,1.41c-0.14,0.28-0.25,0.51-0.33,0.7
		c-0.07,0.17-0.11,0.3-0.12,0.39c0,0.06,0,0.14-0.01,0.22c0,0.07-0.01,0.15-0.04,0.25c0,0.12,0.03,0.23,0.06,0.35
		c0.03,0.11,0.07,0.22,0.12,0.32c0.06,0.1,0.11,0.18,0.17,0.25c0.04,0.06,0.1,0.1,0.14,0.12c0.14,0.06,0.25,0.14,0.32,0.23l0,0
		c0.08,0.11,0.12,0.23,0.12,0.39c0,0.21-0.06,0.36-0.18,0.48c-0.11,0.11-0.28,0.17-0.48,0.17c-0.41,0-0.75-0.18-0.98-0.55
		c-0.15-0.25-0.26-0.57-0.35-0.98"/>
	<path class="st0" d="M102.44,132.1l0.08-0.08c0.54-0.54,1.02-0.95,1.44-1.23l0,0l0,0c0.12-0.07,0.22-0.12,0.3-0.15l0,0
		c0.1-0.04,0.17-0.07,0.22-0.07c0.07,0,0.12,0.01,0.19,0.06l0,0c0,0,0.1,0.07,0.15,0.12c0.06,0.06,0.08,0.11,0.11,0.18l0,0
		c0,0,0.04,0.14,0.04,0.21c0,0.01,0,0.04,0,0.07l0,0c0,0,0,0.06,0,0.07l0,0v0.04l0,0l-0.01,0.04c-0.04,0.11-0.12,0.23-0.23,0.37l0,0
		c-0.1,0.12-0.23,0.26-0.41,0.41c-0.15,0.14-0.26,0.26-0.36,0.37l0,0c-0.07,0.1-0.11,0.18-0.14,0.26c0,0,0.03,0.01,0.06,0.03
		c0.06-0.04,0.11-0.07,0.18-0.1l0,0c0.08-0.06,0.18-0.1,0.26-0.14c0.17-0.08,0.39-0.19,0.65-0.35c0.08-0.06,0.15-0.1,0.21-0.12
		c0.08-0.04,0.15-0.07,0.21-0.07c0.11,0,0.21,0.04,0.29,0.14l0,0c0,0,0.07,0.08,0.08,0.12l0,0c0,0,0.04,0.11,0.04,0.15
		c0,0.11-0.03,0.22-0.08,0.32c-0.06,0.1-0.12,0.18-0.21,0.26c-0.36,0.36-0.7,0.62-1.04,0.8c-0.35,0.18-0.69,0.28-1.04,0.28
		c-0.25,0-0.46-0.06-0.59-0.18c-0.15-0.12-0.25-0.3-0.26-0.53l0,0v-0.06c-0.11,0.11-0.22,0.23-0.32,0.36
		c-0.25,0.29-0.48,0.59-0.69,0.91c-0.22,0.32-0.4,0.62-0.57,0.91l0,0c-0.17,0.29-0.29,0.57-0.4,0.83l0,0v0.01
		c-0.1,0.19-0.19,0.35-0.26,0.47l0,0c-0.08,0.14-0.17,0.22-0.23,0.26l-0.04,0.03h-0.03l0,0l0,0c-0.01,0-0.06,0.03-0.1,0.04
		l-0.06,0.03h-0.06c-0.17-0.03-0.29-0.1-0.37-0.19l0,0c-0.1-0.1-0.14-0.22-0.14-0.39c0-0.08,0-0.18,0.04-0.28
		c0.03-0.1,0.06-0.19,0.11-0.32c0.14-0.48,0.3-0.95,0.48-1.42c0.18-0.48,0.37-0.95,0.58-1.44c0.21-0.48,0.41-0.88,0.61-1.23
		c0.21-0.35,0.4-0.61,0.61-0.8h0.01l0.01-0.03l0.23-0.15l0.23-0.15l0.04-0.03h0.06c0.12,0,0.25,0.04,0.36,0.12l0,0
		c0,0,0.11,0.1,0.14,0.15l0,0c0,0,0.06,0.12,0.06,0.21s0,0.15-0.04,0.22c-0.01,0.07-0.06,0.12-0.08,0.18
		c-0.04,0.08-0.1,0.19-0.19,0.32l-0.07,0.11"/>
	<line class="st2" x1="96.88" y1="136.48" x2="96.88" y2="136.48"/>
	<line class="st2" x1="96.88" y1="136.48" x2="96.88" y2="136.48"/>
	<polyline class="st0" points="147.6,131.84 147.66,131.84 147.66,131.84 147.6,131.84 	"/>
	<path class="st0" d="M144.54,134.18c0.12-0.43,0.32-0.87,0.59-1.33c0.26-0.44,0.61-0.91,1.02-1.37l0,0
		c0.33-0.33,0.62-0.57,0.88-0.73c0.29-0.17,0.54-0.26,0.77-0.26c0.58,0,0.87,0.33,0.87,1.01c0,0.18-0.03,0.39-0.1,0.59
		c-0.06,0.21-0.15,0.43-0.28,0.66c-0.12,0.25-0.26,0.43-0.4,0.57c-0.17,0.15-0.33,0.23-0.51,0.26h-0.06l-0.06-0.03l-0.12-0.07h-0.03
		l-0.03-0.04c-0.06-0.06-0.1-0.12-0.12-0.18c-0.04-0.07-0.06-0.14-0.06-0.21V133c0,0,0.08-0.14,0.15-0.23
		c0.07-0.1,0.15-0.22,0.25-0.37c0.1-0.14,0.18-0.26,0.22-0.36l0,0c0.04-0.08,0.06-0.17,0.06-0.21h0.06l-0.06-0.04
		c0,0,0,0.01-0.04,0.04c-0.1,0.04-0.21,0.14-0.35,0.28c-0.15,0.15-0.3,0.32-0.46,0.51c-0.15,0.19-0.32,0.41-0.47,0.66
		c-0.15,0.23-0.28,0.47-0.39,0.68l0,0c-0.1,0.21-0.18,0.4-0.23,0.58l0,0v0.01c-0.04,0.1-0.07,0.19-0.1,0.29l0,0
		c-0.03,0.1-0.04,0.19-0.06,0.3c0,0.03,0,0.04,0.01,0.07c0,0.04,0,0.08,0,0.14c0,0.11,0.03,0.19,0.08,0.25
		c0.06,0.06,0.12,0.08,0.23,0.1c0.39-0.15,0.76-0.39,1.12-0.69c0.37-0.32,0.73-0.72,1.06-1.22l0,0c0.11-0.15,0.21-0.25,0.29-0.33
		c0.11-0.1,0.21-0.14,0.3-0.14c0.08,0,0.15,0.03,0.21,0.08l0,0c0,0,0.07,0.1,0.11,0.17l0,0c0,0,0.04,0.11,0.06,0.17l0,0
		c0,0,0.01,0.11,0.01,0.17c0,0.08,0,0.15-0.04,0.22c-0.03,0.07-0.06,0.12-0.1,0.18c-0.5,0.84-1,1.49-1.49,1.93
		c-0.51,0.46-1.05,0.7-1.58,0.75l0,0c-0.21,0-0.41-0.03-0.59-0.1c-0.18-0.07-0.35-0.17-0.48-0.32c-0.14-0.14-0.25-0.29-0.32-0.47
		l0,0c-0.07-0.18-0.12-0.36-0.12-0.57l0,0c0-0.21,0.01-0.41,0.07-0.64c0.04-0.22,0.1-0.47,0.18-0.72l0,0"/>
	<path class="st0" d="M142.34,133.88c-0.14,0.15-0.28,0.32-0.4,0.5c-0.33,0.44-0.64,0.95-0.91,1.55l0,0
		c-0.08,0.17-0.17,0.3-0.22,0.4c-0.07,0.11-0.12,0.19-0.17,0.25c-0.06,0.07-0.12,0.12-0.21,0.17c-0.08,0.03-0.17,0.06-0.26,0.06
		c-0.17,0-0.32-0.08-0.43-0.23c-0.06-0.07-0.1-0.15-0.11-0.25c-0.01-0.08-0.03-0.18,0-0.28l0,0c0.03-0.15,0.06-0.29,0.1-0.43
		c0.04-0.14,0.08-0.28,0.14-0.4l0,0c0.06-0.12,0.12-0.28,0.21-0.46c0.08-0.18,0.18-0.39,0.3-0.62c0.11-0.22,0.19-0.4,0.28-0.55
		c0.07-0.14,0.11-0.23,0.12-0.26l0,0v-0.01c0.21-0.41,0.39-0.77,0.55-1.06c0.15-0.29,0.29-0.51,0.39-0.66
		c0.11-0.17,0.22-0.29,0.32-0.37l0,0c0.12-0.1,0.25-0.14,0.39-0.12c0.07,0,0.14,0.03,0.19,0.07l0,0c0,0,0.1,0.1,0.14,0.17l0,0
		c0,0,0.07,0.11,0.08,0.17l0,0c0,0,0.04,0.12,0.04,0.17c0,0.03,0,0.06,0,0.08c0,0.03,0,0.04,0,0.07l0,0v0.06l0,0v0.01v0.04
		c0,0-0.06,0.12-0.1,0.19c0.1-0.1,0.19-0.19,0.3-0.29c0.3-0.29,0.58-0.51,0.8-0.65c0.25-0.17,0.46-0.23,0.62-0.22l0,0
		c0.17,0.01,0.3,0.08,0.39,0.21l0,0c0.08,0.11,0.12,0.26,0.12,0.44c0,0.07-0.01,0.15-0.06,0.23c-0.03,0.08-0.08,0.17-0.14,0.26l0,0
		l-0.36,0.57l0,0l-0.33,0.54l0,0c-0.11,0.17-0.19,0.32-0.28,0.46c-0.08,0.14-0.15,0.28-0.22,0.4c-0.07,0.12-0.12,0.26-0.19,0.4
		c-0.06,0.15-0.12,0.3-0.18,0.48c-0.06,0.17-0.1,0.35-0.14,0.53c-0.03,0.18-0.06,0.36-0.07,0.55c0.03,0.17,0.04,0.32,0.07,0.43
		c0.03,0.11,0.06,0.21,0.08,0.26c0.06,0.14,0.11,0.25,0.14,0.35c0.04,0.11,0.06,0.19,0.06,0.26c0,0.35-0.18,0.51-0.54,0.51
		c-0.32,0-0.55-0.17-0.72-0.51c-0.15-0.29-0.23-0.72-0.28-1.29v-0.06c0.03-0.08,0.03-0.18,0.03-0.29l0,0v-0.03
		c0.06-0.44,0.15-0.88,0.29-1.31c0.06-0.15,0.11-0.3,0.18-0.46"/>
	<path class="st0" d="M141,127.65c0.12-0.15,0.25-0.25,0.37-0.33c0.14-0.08,0.28-0.12,0.41-0.12c0.11,0,0.21,0.01,0.28,0.06
		c0.1,0.04,0.17,0.11,0.21,0.19l0,0v0.04v0.06h0.01v0.06l0,0c0,0.04,0,0.11,0,0.21c0,0.17-0.03,0.33-0.1,0.5
		c-0.07,0.17-0.15,0.32-0.28,0.47c-0.25,0.32-0.53,0.5-0.83,0.55h-0.04H141c-0.22-0.07-0.37-0.18-0.43-0.32v-0.04l-0.01-0.04l0,0
		l0,0c0,0-0.03-0.07-0.04-0.11l-0.03-0.04v-0.06c0.03-0.18,0.08-0.36,0.15-0.54c0.07-0.18,0.18-0.35,0.3-0.53l0,0"/>
	<path class="st0" d="M139.52,131.19c0.1-0.15,0.21-0.26,0.29-0.35l0,0c0.11-0.1,0.23-0.14,0.35-0.14c0.12,0,0.23,0.04,0.33,0.12
		l0,0c0,0,0.11,0.11,0.14,0.18s0.04,0.14,0.04,0.22s-0.03,0.18-0.08,0.3l0,0c-0.06,0.1-0.12,0.21-0.21,0.33
		c-0.21,0.32-0.4,0.65-0.58,1.01s-0.37,0.75-0.54,1.15c-0.18,0.4-0.32,0.79-0.46,1.15l0,0c-0.12,0.36-0.23,0.7-0.32,1.02l0,0
		c-0.06,0.21-0.11,0.37-0.18,0.5l0,0c-0.07,0.15-0.15,0.25-0.23,0.29l0,0l0,0l-0.19,0.07h-0.06h-0.06c-0.18-0.04-0.3-0.12-0.4-0.26
		l0,0c-0.08-0.12-0.12-0.29-0.12-0.5l0,0v-0.03c0.04-0.28,0.14-0.62,0.28-1.02c0.14-0.4,0.33-0.87,0.55-1.4
		c0.47-1.05,0.94-1.93,1.44-2.64"/>
	<path class="st0" d="M133.95,131.35c-0.18-0.32-0.33-0.64-0.43-0.98c-0.1-0.33-0.17-0.69-0.18-1.05l0,0v-0.01
		c0-0.26,0.04-0.53,0.1-0.77l0,0c0.06-0.26,0.14-0.51,0.25-0.76c0.21-0.51,0.54-1.01,1-1.51c0.22-0.25,0.48-0.5,0.79-0.73l0,0
		c0.29-0.23,0.62-0.47,1-0.7l0,0c0.39-0.21,0.77-0.37,1.12-0.47c0.36-0.11,0.69-0.17,1.01-0.17c0.41,0,0.76,0.12,1.06,0.36
		c0.15,0.12,0.26,0.28,0.35,0.47c0.07,0.18,0.11,0.39,0.11,0.61c0,0.61-0.28,1.26-0.82,1.95l0,0c-0.47,0.55-0.95,1.01-1.49,1.4
		c-0.53,0.39-1.09,0.68-1.69,0.9l-0.08,0.03l-0.07-0.04l-0.12-0.07l0,0l-0.1-0.06c0,0-0.08-0.04-0.11-0.07
		c-0.04-0.03-0.07-0.06-0.1-0.1c-0.04-0.04-0.07-0.1-0.1-0.17c-0.01-0.06-0.03-0.11-0.03-0.18c0-0.18,0.08-0.35,0.22-0.5
		c0.12-0.12,0.32-0.25,0.57-0.35l0,0c0.48-0.18,0.93-0.41,1.33-0.72c0.4-0.3,0.75-0.69,1.06-1.13c0.07-0.12,0.11-0.25,0.14-0.36
		s0.04-0.22,0.04-0.33c0-0.14-0.03-0.23-0.08-0.3c-0.06-0.06-0.15-0.08-0.28-0.08c-0.06,0-0.15,0-0.28,0.04l0,0
		c-0.12,0.03-0.29,0.07-0.48,0.12c-0.33,0.12-0.65,0.28-0.97,0.5c-0.32,0.21-0.64,0.47-0.94,0.77c-0.3,0.3-0.54,0.62-0.72,0.97
		c-0.18,0.35-0.29,0.7-0.35,1.09c0,0.14,0,0.26-0.03,0.36c0.01,0.22,0.06,0.46,0.12,0.69s0.17,0.48,0.3,0.72
		c0.14,0.25,0.28,0.51,0.41,0.77c0.14,0.25,0.3,0.53,0.47,0.8c0.17,0.28,0.3,0.55,0.41,0.83l0,0c0.11,0.28,0.19,0.53,0.23,0.79l0,0
		c0.04,0.36,0.03,0.68-0.06,0.97c-0.08,0.3-0.21,0.58-0.41,0.84c-0.19,0.25-0.4,0.47-0.65,0.65c-0.23,0.19-0.51,0.35-0.8,0.47
		c-0.29,0.12-0.55,0.22-0.82,0.28c-0.26,0.07-0.51,0.1-0.73,0.1c-0.44,0-0.83-0.06-1.16-0.17c-0.35-0.11-0.62-0.28-0.86-0.5
		c-0.22-0.22-0.4-0.47-0.51-0.73c-0.11-0.26-0.18-0.55-0.18-0.87c0-0.29,0.04-0.57,0.12-0.83c0.08-0.26,0.22-0.5,0.4-0.7
		c0.36-0.44,0.8-0.65,1.33-0.65c0.19,0,0.33,0.06,0.44,0.17c0.11,0.11,0.15,0.26,0.15,0.44c0,0.25-0.18,0.46-0.53,0.64l-0.4,0.19
		c0,0-0.11,0.15-0.14,0.25c-0.04,0.12-0.08,0.26-0.1,0.43c0.04,0.32,0.17,0.58,0.37,0.75c0.21,0.18,0.51,0.29,0.91,0.33
		c0.76-0.11,1.31-0.32,1.69-0.62c0.36-0.29,0.53-0.66,0.53-1.15c0-0.15-0.01-0.29-0.04-0.44l0,0c-0.03-0.15-0.08-0.3-0.15-0.47
		c-0.14-0.32-0.29-0.62-0.47-0.91c-0.1-0.14-0.19-0.29-0.32-0.48c-0.1-0.15-0.21-0.32-0.32-0.51l0,0"/>
	<path class="st0" d="M186.43,127.12l-0.17,0.03c-0.33,0.07-0.77,0.14-1.33,0.23c-0.55,0.08-1.02,0.15-1.44,0.19
		c-0.41,0.04-0.76,0.07-1.04,0.07c-0.3,0-0.54-0.04-0.72-0.14l0,0c-0.21-0.11-0.32-0.28-0.37-0.48v-0.06v-0.06l0.08-0.19l0,0
		l0.07-0.15l0,0c0,0,0.06-0.11,0.1-0.17l0,0c0,0,0.08-0.1,0.12-0.14c0.06-0.06,0.14-0.08,0.22-0.11c0.07-0.03,0.15-0.03,0.25-0.03
		c0.79,0,1.55-0.04,2.29-0.12c0.73-0.08,1.44-0.19,2.13-0.36l0,0l0.23-0.06l0,0l0.32-0.07c0.12-0.03,0.22-0.04,0.32-0.06
		c0.1-0.01,0.18-0.03,0.25-0.03c0.06,0,0.1,0,0.15,0c0.04,0,0.08,0,0.11,0s0.06,0,0.08,0.01c0.03,0,0.06,0.01,0.07,0.03l0,0
		c0.15,0.06,0.26,0.17,0.33,0.29c0.07,0.12,0.11,0.28,0.11,0.47c0,0.19-0.03,0.36-0.1,0.53c-0.07,0.17-0.17,0.3-0.29,0.43l0,0
		c-0.72,0.7-1.4,1.44-2.06,2.18c-0.65,0.75-1.29,1.51-1.88,2.28c-0.59,0.77-1.13,1.52-1.62,2.24c-0.48,0.72-0.9,1.41-1.26,2.06l0,0
		c-0.1,0.17-0.19,0.32-0.28,0.44c-0.1,0.12-0.18,0.23-0.28,0.33c-0.1,0.1-0.19,0.18-0.3,0.25c-0.11,0.07-0.23,0.11-0.37,0.15h-0.07
		l-0.06-0.01l-0.14-0.07l0,0l-0.15-0.08l0,0c-0.08-0.04-0.15-0.11-0.19-0.18c-0.04-0.07-0.07-0.15-0.07-0.25
		c0-0.43,0.26-1.05,0.79-1.85l0,0c0.4-0.62,0.79-1.2,1.17-1.76c0.39-0.55,0.77-1.06,1.16-1.55c0.37-0.47,0.75-0.93,1.12-1.35
		c0.37-0.43,0.72-0.83,1.06-1.2c0.35-0.39,0.69-0.75,1.02-1.09C186.03,127.52,186.23,127.32,186.43,127.12"/>
	<path class="st0" d="M177.76,135.76c-0.03,0.17-0.11,0.3-0.25,0.41c-0.12,0.1-0.29,0.17-0.5,0.19h-0.06l-0.06-0.01
		c-0.01,0-0.04-0.01-0.06-0.01l0,0c0,0-0.04,0-0.06,0h-0.07c-0.11-0.07-0.26-0.11-0.44-0.14c-0.18-0.03-0.4-0.04-0.65-0.04
		c-0.26,0-0.57,0.03-0.91,0.08c-0.35,0.06-0.75,0.15-1.17,0.26c-0.44,0.12-0.83,0.22-1.17,0.3l0,0c-0.35,0.08-0.64,0.15-0.88,0.19
		h-0.03h-0.03c-0.32-0.03-0.57-0.12-0.72-0.3c-0.17-0.18-0.26-0.43-0.26-0.73c0-0.17,0.04-0.33,0.14-0.51
		c0.08-0.17,0.21-0.32,0.36-0.48l0,0c0.72-0.7,1.55-1.42,2.49-2.16c0.47-0.37,1.09-0.83,1.84-1.4c0.75-0.55,1.66-1.22,2.72-1.98
		c0.41-0.29,0.72-0.58,0.91-0.87c0.19-0.26,0.29-0.53,0.29-0.77c0-0.28-0.07-0.47-0.21-0.61c-0.14-0.12-0.37-0.19-0.69-0.19
		c-0.18,0.01-0.36,0.04-0.53,0.08l0,0c-0.17,0.04-0.33,0.1-0.47,0.17c-0.15,0.07-0.3,0.17-0.48,0.26c-0.18,0.11-0.35,0.22-0.53,0.36
		l-0.47,0.35l0,0l-0.35,0.25c-0.07,0.07-0.14,0.11-0.21,0.15c-0.08,0.04-0.17,0.07-0.23,0.07c-0.1,0-0.18-0.03-0.26-0.07
		c-0.08-0.04-0.15-0.1-0.22-0.18l0,0c-0.07-0.08-0.11-0.17-0.14-0.25c-0.03-0.1-0.03-0.18,0-0.28c0.03-0.11,0.1-0.25,0.18-0.37
		c0.1-0.12,0.21-0.25,0.36-0.39c0.22-0.21,0.47-0.4,0.76-0.58c0.29-0.18,0.61-0.36,0.97-0.53c0.36-0.17,0.7-0.29,1.04-0.39
		c0.35-0.08,0.66-0.12,0.98-0.12c0.65,0,1.17,0.17,1.62,0.5c0.22,0.17,0.39,0.37,0.5,0.62c0.11,0.23,0.17,0.51,0.17,0.82
		c0,0.48-0.14,0.97-0.4,1.44c-0.12,0.23-0.28,0.46-0.46,0.65c-0.17,0.21-0.36,0.4-0.57,0.57c-0.25,0.21-0.64,0.51-1.17,0.9
		c-0.54,0.39-1.22,0.87-2.05,1.44c-0.82,0.57-1.55,1.11-2.17,1.63c-0.41,0.33-0.79,0.66-1.11,0.98c0.43-0.1,0.83-0.18,1.23-0.25
		c0.58-0.1,1.12-0.14,1.6-0.14c0.65,0,1.12,0.08,1.44,0.23c0.36,0.18,0.51,0.47,0.44,0.84"/>
	<path class="st0" d="M172.39,126.65c-0.04-0.22-0.11-0.41-0.19-0.59c-0.08-0.18-0.19-0.35-0.32-0.48
		c-0.12-0.14-0.28-0.26-0.44-0.37c-0.17-0.1-0.35-0.18-0.55-0.23c-0.19-0.06-0.41-0.08-0.65-0.1c-0.3-0.03-0.62,0-0.95,0.08
		c-0.33,0.07-0.66,0.21-1.02,0.37c-0.35,0.18-0.69,0.37-1.01,0.62c-0.32,0.23-0.64,0.51-0.93,0.82l0,0
		c-0.53,0.58-0.94,1.17-1.22,1.78c-0.28,0.61-0.43,1.22-0.46,1.84l0,0v0.03c0.08,0.69,0.3,1.22,0.65,1.59
		c0.36,0.37,0.84,0.58,1.47,0.62h0.01c0.4-0.03,0.82-0.11,1.24-0.25c0.28-0.08,0.55-0.19,0.83-0.33c-0.15,0.26-0.35,0.54-0.57,0.82
		c-0.36,0.47-0.8,0.97-1.34,1.49l0,0c-0.12,0.12-0.26,0.25-0.43,0.39c-0.15,0.14-0.35,0.29-0.55,0.46
		c-0.21,0.17-0.39,0.32-0.51,0.44c-0.14,0.14-0.22,0.25-0.26,0.35v0.04l-0.01,0.04l0,0c0,0.03-0.03,0.07-0.07,0.12l-0.03,0.06v0.07
		c0.1,0.37,0.29,0.57,0.59,0.57c0.1,0,0.21-0.01,0.33-0.07c0.12-0.04,0.25-0.12,0.4-0.22s0.3-0.22,0.48-0.37
		c0.17-0.14,0.35-0.3,0.54-0.5c0.18-0.18,0.36-0.35,0.5-0.48c0.14-0.14,0.26-0.25,0.37-0.36l0,0c0.44-0.44,0.84-0.87,1.2-1.31
		c0.37-0.44,0.7-0.88,1.01-1.34c0.3-0.46,0.57-0.9,0.8-1.33c0.23-0.44,0.43-0.87,0.59-1.29c0.33-0.86,0.5-1.62,0.5-2.29
		c0-0.25-0.03-0.47-0.06-0.69L172.39,126.65z M170.49,128.96c-0.12,0.43-0.32,0.84-0.57,1.22c-0.12,0.08-0.28,0.17-0.46,0.26
		c-0.19,0.1-0.43,0.19-0.68,0.29c-0.25,0.1-0.51,0.18-0.76,0.23c-0.23,0.06-0.47,0.08-0.72,0.11c-0.19-0.04-0.36-0.1-0.5-0.15
		c-0.12-0.06-0.22-0.11-0.29-0.17c-0.06-0.06-0.1-0.12-0.12-0.22c-0.03-0.11-0.06-0.26-0.06-0.44c0-0.26,0.04-0.53,0.11-0.8
		c0.07-0.28,0.19-0.55,0.35-0.84c0.15-0.29,0.33-0.55,0.54-0.8c0.21-0.25,0.43-0.47,0.69-0.68l0,0c0.25-0.21,0.5-0.36,0.76-0.47
		c0.25-0.11,0.51-0.18,0.77-0.19l0,0c0.75-0.04,1.12,0.39,1.12,1.29c0,0.5-0.07,0.97-0.19,1.41L170.49,128.96z"/>
	<path class="st0" d="M162.56,127.95c-0.25,0.15-0.55,0.32-0.93,0.53l0,0l0,0c-0.39,0.17-0.7,0.3-0.95,0.39
		c-0.26,0.1-0.44,0.15-0.55,0.17h-0.03h-0.03c-0.17-0.03-0.3-0.11-0.4-0.23c-0.08-0.11-0.12-0.26-0.12-0.46
		c0-0.12,0.03-0.23,0.07-0.35c0.04-0.11,0.11-0.19,0.21-0.26c0.07-0.06,0.15-0.11,0.25-0.17c0.1-0.06,0.19-0.1,0.3-0.14l0,0
		c0.12-0.04,0.22-0.08,0.3-0.12c0.1-0.04,0.19-0.08,0.29-0.12c0.33-0.18,0.66-0.37,1.01-0.57c0.37-0.21,0.7-0.4,1.02-0.58
		c0.36-0.21,0.65-0.37,0.9-0.48c0.26-0.12,0.47-0.22,0.62-0.26h0.03h0.03h0.14c0.11,0,0.22,0.01,0.32,0.06l0,0
		c0.1,0.04,0.18,0.1,0.26,0.18l0,0c0.14,0.15,0.21,0.33,0.21,0.54c0,0.08-0.01,0.17-0.06,0.28c-0.04,0.1-0.08,0.21-0.15,0.33l0,0
		v0.01c-0.28,0.39-0.54,0.79-0.8,1.19c-0.26,0.4-0.51,0.8-0.76,1.19c-0.23,0.4-0.47,0.79-0.69,1.16s-0.41,0.73-0.61,1.08
		c-0.17,0.32-0.39,0.7-0.64,1.2l0,0c-0.23,0.46-0.51,0.95-0.8,1.51c-0.29,0.55-0.53,1.01-0.7,1.35s-0.3,0.58-0.39,0.7
		c-0.07,0.18-0.17,0.33-0.28,0.44c-0.12,0.12-0.28,0.19-0.44,0.22h-0.04h-0.04c-0.11-0.03-0.19-0.07-0.26-0.11
		c-0.08-0.04-0.15-0.1-0.19-0.17c-0.04-0.06-0.08-0.12-0.11-0.21s-0.06-0.17-0.08-0.26v-0.04v-0.04c0.03-0.21,0.12-0.48,0.26-0.84
		c0.14-0.36,0.33-0.79,0.57-1.29l0,0c0.88-1.76,1.66-3.18,2.31-4.28c0.37-0.62,0.7-1.15,1-1.56"/>
	<path class="st0" d="M100.29,126c-0.55,0.1-1.08,0.19-1.56,0.32c-0.59,0.15-1.13,0.32-1.62,0.51l-0.06,0.03H97
		c-0.1-0.03-0.17-0.06-0.23-0.1l0,0c-0.07-0.04-0.14-0.08-0.18-0.14l0,0c0,0-0.08-0.1-0.11-0.17c-0.04-0.06-0.07-0.12-0.11-0.21
		l-0.03-0.06v-0.06c0.04-0.17,0.1-0.3,0.18-0.43l0,0c0.08-0.12,0.19-0.22,0.33-0.3c0.12-0.07,0.26-0.12,0.41-0.18
		c0.15-0.06,0.32-0.1,0.51-0.14l0,0c0.18-0.04,0.33-0.07,0.46-0.1l0,0c0.12-0.03,0.22-0.06,0.29-0.08l0,0
		c1.05-0.3,2.14-0.53,3.28-0.68l0,0c1.13-0.15,2.29-0.22,3.5-0.22c0.4,0,0.7,0.03,0.88,0.1l0,0c0.12,0.04,0.21,0.11,0.28,0.19
		c0.06,0.08,0.08,0.19,0.08,0.32c0,0.12-0.03,0.23-0.06,0.33c-0.04,0.11-0.12,0.19-0.22,0.23c-0.08,0.04-0.17,0.07-0.26,0.1
		c-0.1,0.03-0.21,0.04-0.33,0.06l0,0l-2.64,0.21c-0.43,0.03-0.76,0.06-1.01,0.08l-0.26,0.03c0,0,0.03,0.12,0.03,0.19
		c0,0.11-0.04,0.25-0.12,0.41c-0.07,0.14-0.17,0.32-0.3,0.51c-0.3,0.54-0.61,1.11-0.91,1.67c-0.3,0.57-0.61,1.12-0.88,1.67
		c-0.29,0.55-0.57,1.11-0.83,1.64c-0.26,0.54-0.5,1.06-0.73,1.59c-0.22,0.51-0.43,1.04-0.61,1.56c-0.18,0.53-0.35,1.04-0.5,1.55
		l-0.07,0.3l-0.07,0.29c-0.03,0.1-0.06,0.19-0.08,0.26c-0.03,0.08-0.07,0.15-0.11,0.22l0,0c-0.06,0.07-0.11,0.14-0.19,0.17l0,0
		c-0.07,0.04-0.15,0.06-0.25,0.06c-0.11,0-0.21-0.03-0.29-0.08l0,0c-0.08-0.06-0.17-0.12-0.23-0.21s-0.11-0.18-0.15-0.28
		c-0.04-0.1-0.06-0.19-0.06-0.3c0-0.11,0.01-0.25,0.04-0.39c0.03-0.14,0.06-0.29,0.11-0.46l0,0c0.18-0.59,0.4-1.22,0.66-1.87
		c0.26-0.65,0.55-1.31,0.87-2c0.33-0.69,0.77-1.58,1.35-2.67c0.53-1.01,1.16-2.18,1.89-3.52"/>
	<path class="st3" d="M129.03,81.51l0.1,0.47L129,82.27l0.1,0.15l-0.1,0.1l0.03,0.62l0.37,1.51l0.48,1.58l0.7,0.68l0.76,0.58
		l0.94,0.46l0.5-0.21l0.15,0.1l0.35-0.07l0.35,0.18l0.44-0.18c0.4-0.1,0.83-0.26,1.26-0.47c0.43-0.22,0.94-0.53,1.51-0.91l0.28-0.1
		l0.12-0.22l0.22-0.12c0.54-0.54,1.19-1.15,1.96-1.82c0.11-0.1,0.19-0.17,0.23-0.21l-0.1,0.93l0.12,0.29l-0.15,0.5l-0.43,3.95
		l0.06,0.39l-0.41,2.7l0.48,0.1l0.53-0.8c0.46-0.06,0.79-0.23,1.02-0.53c0.22-0.29,0.4-0.84,0.54-1.66v-0.3
		c0.1-0.21,0.19-0.4,0.28-0.61l0.18-0.72v-0.19l0.03-0.08c0,0,0.01,0,0.03,0h0.03l0.39-1.58l-0.04,0.04l0.1-0.35l0.11-0.33
		l0.06-0.23l0,0l0.73-3.21l-0.04-0.36l0.11-0.39l0.15-0.94l-0.15-0.3c-0.17-0.25-0.37-0.41-0.59-0.54
		c-0.22-0.12-0.47-0.18-0.72-0.18c-0.12,0-0.25,0.03-0.37,0.06c-0.14,0.04-0.29,0.11-0.47,0.19c-0.07,0.08-0.18,0.21-0.33,0.39
		c-0.53,0.61-0.95,1.09-1.26,1.47V82l-0.22,0.03l-0.18,0.47l-0.3,0.03l-0.95,0.91l-0.18,0.4l-0.18,0.12
		c-0.46,0.41-0.97,0.76-1.58,1.05c-0.59,0.29-1.05,0.43-1.34,0.43c-0.23,0-0.48-0.07-0.76-0.19c-0.28-0.12-0.62-0.35-1.05-0.66
		l-0.06-0.3l-0.43-1.05l-0.21-0.3v-0.29c-0.04-0.21-0.07-0.44-0.1-0.7c-0.01-0.26-0.03-0.54-0.03-0.87c0-0.61,0.04-1.22,0.11-1.81
		c0,0,0-0.03,0-0.04h-2.81c-0.1,0.73-0.18,1.49-0.22,2.29L129.03,81.51z"/>
	<path class="st4" d="M132.5,76.81l0.12-0.18c0.03-0.12,0.1-0.36,0.21-0.72c0.11-0.36,0.19-0.66,0.26-0.9l0.07-0.3
		c0.07-0.14,0.14-0.28,0.21-0.41c0.06-0.14,0.14-0.36,0.25-0.64l0.1-0.5l0.18-0.23l0.55-0.93l0.06-0.32l0.36-0.36
		c0.58-0.93,1.22-1.63,1.91-2.14c0.69-0.51,1.38-0.76,2.06-0.76h0.11l0.23-0.1l0.32,0.18l0.36,0.06l0.26,0.26
		c0.62,0.69,1.02,1.23,1.2,1.6c0.19,0.37,0.29,0.77,0.29,1.2v0.18l0.21,1.3c0.01,0.22,0.08,0.39,0.19,0.51
		c0.11,0.12,0.26,0.18,0.46,0.18c0.07,0,0.14,0,0.21-0.01c0.07-0.01,0.17-0.04,0.28-0.07l0.06-0.04c0.8-0.79,1.37-1.38,1.69-1.78
		l-0.11-0.65l-0.22-0.28L144.15,70l-0.23-0.28c-0.03-0.35-0.11-0.65-0.23-0.91c-0.12-0.26-0.3-0.5-0.55-0.69
		c-0.11-0.23-0.28-0.47-0.51-0.7c-0.23-0.23-0.58-0.5-1.04-0.82l-0.28,0.03l-0.48-0.21h-0.62c-0.5,0-0.93,0.01-1.29,0.07
		c-0.36,0.04-0.69,0.11-1,0.21l-0.43,0.37l-0.14-0.03l-0.15,0.1c-1.93,1.08-3.33,2.21-4.23,3.39l-0.12,0.4
		c-1.23,1.55-2.14,3.15-2.75,4.8c-0.37,1.05-0.65,2.21-0.83,3.5h2.81c0.07-0.58,0.18-1.17,0.35-1.77l0.1-0.62L132.5,76.81z"/>
	<path class="st3" d="M153.29,83.93c0,0-0.08,0-0.12,0.03c-0.04,0-0.1,0.04-0.19,0.08c-0.04,0.1-0.15,0.18-0.33,0.26
		c-0.18,0.08-0.3,0.19-0.36,0.33c-0.04,0.03-0.11,0.07-0.17,0.1c-0.07,0.03-0.17,0.07-0.29,0.11l-0.25,0.14l-0.47,0.35l-0.22,0.3
		c-0.11,0.03-0.18,0.07-0.25,0.12c-0.07,0.06-0.12,0.14-0.18,0.26l-0.23,0.14c-0.14,0.08-0.26,0.19-0.39,0.3s-0.25,0.25-0.39,0.4
		c-0.01,0.1-0.04,0.18-0.1,0.25c-0.04,0.07-0.12,0.12-0.21,0.18l0.04-0.21c0.18-0.39,0.36-1.05,0.55-2.02
		c0.19-0.95,0.37-2.1,0.53-3.41v-0.12l0.06-0.15c0.03-0.19,0.04-0.48,0.06-0.87c0-0.39,0.04-0.65,0.11-0.8l0.03-0.47h-1.89
		c-0.06,0.08-0.12,0.15-0.18,0.23l-0.03,0.07v-0.04l-0.17,0.22l-0.03,0.06c-0.21,0.22-0.47,0.5-0.77,0.82
		c-0.35,0.37-0.58,0.64-0.72,0.8v0.03c-0.12,0.08-0.22,0.17-0.32,0.26c-0.1,0.11-0.19,0.26-0.29,0.43
		c-0.11,0.04-0.18,0.08-0.22,0.14c-0.04,0.06-0.06,0.15-0.07,0.29c-0.08,0.11-0.21,0.29-0.37,0.51c-0.17,0.22-0.28,0.37-0.36,0.47
		v0.19c0,0-0.04,0.1-0.04,0.15c0,0.04,0,0.08,0,0.11c0,0.07,0.04,0.12,0.11,0.17c0.06,0.04,0.14,0.06,0.22,0.04
		c0.04,0,0.08-0.01,0.12-0.04c0.04-0.01,0.1-0.06,0.19-0.11c0.03-0.1,0.14-0.19,0.3-0.29s0.28-0.22,0.33-0.37
		c0.04-0.04,0.1-0.08,0.17-0.11l0.1-0.06v0.12l0.01-0.03c0.07-0.07,0.18-0.15,0.35-0.23l0.39-0.35c0,0,0.1-0.1,0.15-0.12
		c0.04-0.03,0.1-0.04,0.15-0.04c0.1,0,0.18,0.06,0.23,0.15c0.06,0.1,0.08,0.22,0.08,0.37c0,0.07,0,0.22-0.01,0.44
		c0,0.22-0.04,0.48-0.06,0.8c0.03,0.04,0.04,0.08,0.06,0.12c0.01,0.04,0.01,0.07,0.01,0.1c0,0.01,0,0.04,0,0.06
		c0,0.03-0.03,0.06-0.04,0.07c-0.04,0.14-0.1,0.4-0.12,0.83c0,0.17-0.03,0.3-0.04,0.41l-0.04,0.1c-0.04,0.36-0.11,0.8-0.22,1.35
		c-0.11,0.55-0.18,0.93-0.21,1.11c-0.03,0.18-0.04,0.3-0.07,0.37c-0.03,0.08-0.06,0.15-0.1,0.21c-0.1,0.11-0.18,0.22-0.26,0.33
		c-0.08,0.11-0.17,0.25-0.25,0.41l-0.06,0.17l-0.15,0.12c-0.55,0.79-1.02,1.56-1.4,2.31c-0.37,0.75-0.66,1.48-0.86,2.2l0.03,0.15
		l-0.08,0.18c-0.06,0.15-0.1,0.29-0.12,0.43c-0.03,0.14-0.04,0.26-0.04,0.4v0.36c-0.03,0.18-0.04,0.3-0.06,0.4c0,0.08,0,0.17,0,0.23
		c0,0.19,0.06,0.36,0.18,0.48c0.11,0.12,0.28,0.18,0.48,0.18c0.17,0,0.3-0.03,0.41-0.08c0.11-0.06,0.19-0.15,0.26-0.28
		c0.23-0.32,0.44-0.61,0.61-0.86c0.17-0.25,0.3-0.48,0.44-0.7v-0.23h0.12c0.48-1,0.84-1.77,1.08-2.29c0.23-0.53,0.41-1.01,0.55-1.44
		c0-0.12,0.01-0.25,0.06-0.36s0.08-0.19,0.15-0.26l0.11-0.55c0.06-0.18,0.12-0.35,0.18-0.5c0.06-0.17,0.12-0.29,0.19-0.43l0.26-0.29
		c0.01-0.17,0.06-0.28,0.12-0.33c0.07-0.07,0.18-0.11,0.36-0.12l0.59-0.62l0.07-0.15l0.18-0.12c0,0,0.03-0.04,0.04-0.07
		c0.15-0.26,0.35-0.4,0.55-0.43c0.18-0.15,0.33-0.28,0.46-0.39c0.12-0.12,0.23-0.23,0.32-0.35c0.15-0.07,0.28-0.15,0.4-0.26
		c0.11-0.1,0.22-0.23,0.33-0.4c0.11-0.03,0.19-0.07,0.23-0.11c0.04-0.06,0.08-0.15,0.1-0.28c0.1-0.1,0.23-0.26,0.41-0.47
		c0.18-0.19,0.32-0.35,0.4-0.43l0.03-0.19c0,0,0.04-0.1,0.06-0.14c0-0.04,0.01-0.08,0.01-0.11c0-0.07-0.03-0.12-0.1-0.17
		c-0.06-0.04-0.12-0.07-0.21-0.07L153.29,83.93z M146.47,91.86c-0.01,0.07-0.03,0.14-0.04,0.19c0,0.07,0,0.12,0,0.18v0.14
		l-0.21,0.35c-0.01,0.21-0.04,0.37-0.1,0.5c-0.04,0.14-0.1,0.25-0.17,0.33c-0.06,0.19-0.12,0.37-0.21,0.54
		c-0.07,0.17-0.15,0.3-0.23,0.41c-0.01,0.11-0.06,0.19-0.11,0.28c-0.06,0.08-0.12,0.14-0.21,0.19c0-0.01,0-0.03-0.01-0.04
		c0-0.01,0-0.04,0-0.07c0-0.06,0.03-0.14,0.08-0.25c0.06-0.1,0.08-0.19,0.08-0.28c0-0.03,0-0.06,0-0.07c0-0.03,0-0.04-0.01-0.06
		l0.32-0.84v-0.15c0-0.12,0.03-0.23,0.08-0.35c0.04-0.11,0.14-0.22,0.25-0.33l0.03-0.18l0.22-0.28c0.04-0.08,0.08-0.17,0.14-0.25
		c0.06-0.08,0.12-0.15,0.19-0.22l-0.06,0.22L146.47,91.86z"/>
	<path class="st5" d="M150.85,79.04c0-0.26-0.11-0.47-0.33-0.59c-0.22-0.14-0.53-0.21-0.94-0.21c-0.21,0-0.44,0.11-0.7,0.33
		c-0.19,0.15-0.39,0.39-0.59,0.65h2.56v-0.17L150.85,79.04z"/>
	<path class="st0" d="M130.89,125.48L130.89,125.48c-0.03-0.08-0.07-0.15-0.11-0.22l0,0c-0.06-0.08-0.12-0.14-0.19-0.18
		c-0.07-0.04-0.15-0.07-0.25-0.07c-0.14,0-0.28,0.1-0.44,0.28c-0.12,0.15-0.28,0.37-0.44,0.68c-0.29,0.5-0.54,0.98-0.76,1.45l0,0
		l-1.59,3.32c-0.17-0.08-0.37-0.14-0.61-0.14c-0.59,0-1.16,0.29-1.7,0.88l0,0c-0.22,0.26-0.43,0.55-0.59,0.84
		c-0.18,0.3-0.33,0.61-0.47,0.94c-0.04,0.11-0.08,0.22-0.12,0.32l0,0v-0.01c-0.01-0.06-0.04-0.1-0.07-0.14l0,0
		c0,0-0.08-0.08-0.15-0.11c-0.06-0.03-0.11-0.03-0.18-0.03c-0.07,0-0.12,0.01-0.19,0.06c-0.06,0.03-0.1,0.07-0.15,0.12l-0.21,0.23
		l0,0c-0.25,0.29-0.48,0.55-0.69,0.76s-0.39,0.39-0.54,0.53c-0.14,0.12-0.3,0.22-0.48,0.3c-0.18,0.07-0.37,0.12-0.58,0.15
		c-0.23-0.01-0.4-0.08-0.5-0.19c-0.08-0.08-0.12-0.22-0.14-0.39c0.26-0.08,0.54-0.21,0.8-0.37c0.32-0.19,0.64-0.43,0.95-0.73
		c0.14-0.14,0.29-0.29,0.43-0.47c0.14-0.18,0.26-0.37,0.4-0.59c0.14-0.22,0.23-0.44,0.3-0.65c0.07-0.21,0.1-0.41,0.1-0.61
		c0-0.28-0.07-0.48-0.21-0.64c-0.14-0.15-0.35-0.23-0.59-0.23c-0.29,0-0.62,0.12-0.98,0.36c-0.35,0.23-0.72,0.57-1.13,1.02
		c-0.17,0.18-0.3,0.39-0.46,0.62c-0.15,0.23-0.29,0.51-0.43,0.8c-0.14,0.3-0.25,0.61-0.32,0.9s-0.11,0.58-0.11,0.86
		c0,0.48,0.12,0.87,0.36,1.15c0.25,0.28,0.61,0.44,1.08,0.47h0.01h0.01c0.25-0.01,0.47-0.07,0.69-0.14
		c0.22-0.07,0.43-0.17,0.62-0.29l0,0c0.29-0.19,0.55-0.39,0.8-0.58c0.25-0.21,0.48-0.41,0.69-0.62c0.22-0.22,0.39-0.43,0.53-0.61
		c0.04-0.07,0.08-0.12,0.12-0.18c-0.06,0.3-0.1,0.59-0.1,0.9c0,0.5,0.08,0.9,0.25,1.17c0.18,0.3,0.44,0.47,0.8,0.51h0.01h0.01
		c0.33-0.03,0.65-0.21,0.98-0.54c0.21-0.21,0.41-0.5,0.62-0.83l0.03,0.12c0.04,0.22,0.1,0.43,0.17,0.62
		c0.07,0.21,0.18,0.37,0.32,0.5c0.14,0.12,0.32,0.22,0.53,0.28h0.04h0.04c0.11-0.03,0.19-0.07,0.28-0.12
		c0.07-0.07,0.14-0.14,0.18-0.23l0,0v-0.01c0-0.04,0.03-0.1,0.03-0.14c0-0.03,0-0.06,0-0.08l0,0v-0.08l0,0v-0.22
		c0,0-0.07-0.12-0.12-0.18c-0.04-0.04-0.08-0.08-0.14-0.11c-0.06-0.06-0.11-0.14-0.15-0.28l0,0c-0.06-0.15-0.08-0.35-0.11-0.58
		c0-0.07,0.01-0.12,0.03-0.19c0-0.08,0-0.17,0-0.26c0.03-0.25,0.08-0.51,0.15-0.8c0.07-0.29,0.17-0.59,0.28-0.91
		c0.11-0.32,0.23-0.65,0.37-0.98c0.14-0.33,0.29-0.68,0.46-1.04s0.33-0.7,0.51-1.05c0.17-0.33,0.33-0.66,0.5-1l0.8-1.53l0,0
		c0,0,0.06-0.12,0.11-0.22c0.04-0.08,0.11-0.19,0.19-0.33l0,0c0.07-0.12,0.14-0.23,0.19-0.35c0.06-0.1,0.1-0.18,0.12-0.23
		c0.06-0.14,0.08-0.26,0.08-0.4c0-0.08-0.01-0.17-0.04-0.25L130.89,125.48z M120.39,132.35c0.68-0.76,1.4-1.22,1.63-1.01
		c0.23,0.21-0.12,0.98-0.8,1.74c-0.68,0.76-1.4,1.22-1.63,1.01C119.35,133.88,119.71,133.11,120.39,132.35z M126.83,131.71
		L126.83,131.71c-0.07,0.17-0.14,0.32-0.19,0.46c-0.06,0.12-0.11,0.29-0.19,0.47c-0.07,0.17-0.15,0.33-0.23,0.53
		s-0.18,0.39-0.28,0.57c-0.1,0.21-0.19,0.4-0.3,0.58c-0.36,0.64-0.66,1.09-0.93,1.38c-0.19,0.21-0.32,0.3-0.39,0.29l0,0
		c0,0-0.1-0.07-0.12-0.14c-0.06-0.1-0.08-0.25-0.11-0.43c0-0.22,0.06-0.48,0.12-0.76c0.07-0.29,0.19-0.62,0.33-0.98
		c0.14-0.35,0.3-0.68,0.48-0.97c0.18-0.29,0.36-0.54,0.55-0.76c0.18-0.21,0.37-0.36,0.55-0.46c0.17-0.1,0.33-0.14,0.51-0.14
		c0.11,0,0.21,0.01,0.28,0.04h0.04l-0.14,0.32H126.83z"/>
	<path class="st0" d="M154.22,133.59L154.22,133.59c0,0-0.04-0.1-0.07-0.14l0,0c0,0-0.1-0.08-0.15-0.11
		c-0.06-0.03-0.11-0.03-0.17-0.03c-0.07,0-0.12,0.01-0.19,0.06l0,0c0,0-0.1,0.07-0.15,0.12l-0.21,0.23l0,0
		c-0.25,0.29-0.48,0.55-0.69,0.76s-0.39,0.39-0.54,0.53c-0.14,0.12-0.3,0.22-0.48,0.3c-0.18,0.07-0.37,0.12-0.58,0.15
		c-0.23-0.01-0.4-0.08-0.5-0.19c-0.08-0.08-0.12-0.22-0.14-0.39c0.26-0.08,0.54-0.21,0.8-0.37c0.3-0.19,0.62-0.43,0.95-0.73
		c0.15-0.14,0.29-0.29,0.43-0.47c0.14-0.18,0.26-0.37,0.4-0.59c0.12-0.22,0.23-0.44,0.3-0.65s0.1-0.41,0.1-0.61
		c0-0.28-0.07-0.48-0.21-0.64l0,0c-0.14-0.15-0.35-0.23-0.59-0.23c-0.3,0-0.62,0.12-1,0.36c-0.35,0.23-0.72,0.57-1.13,1.02
		c-0.15,0.18-0.32,0.39-0.46,0.62l0,0c-0.15,0.23-0.29,0.51-0.43,0.8c-0.14,0.3-0.25,0.61-0.32,0.9c-0.07,0.29-0.11,0.58-0.11,0.86
		c0,0.48,0.12,0.87,0.36,1.15c0.25,0.28,0.61,0.44,1.08,0.47h0.01h0.01c0.23-0.01,0.47-0.07,0.69-0.14
		c0.22-0.07,0.43-0.17,0.62-0.29l0,0c0.29-0.19,0.55-0.39,0.82-0.58c0.25-0.21,0.48-0.41,0.69-0.62c0.21-0.22,0.39-0.43,0.53-0.61
		c0.14-0.19,0.23-0.37,0.29-0.54v-0.03v-0.01l0,0v-0.04l0,0c0,0,0-0.06,0-0.07l0,0v-0.07l0,0c0,0,0-0.11-0.03-0.17L154.22,133.59z
		 M151,132.35c0.68-0.76,1.4-1.22,1.63-1.01s-0.12,0.98-0.8,1.74c-0.68,0.76-1.4,1.22-1.63,1.01
		C149.97,133.88,150.33,133.11,151,132.35z"/>
	<g>
		<path class="st0" d="M134.17,118.62c5.74-0.26,14.65,4.16,20.95,2.42c-11.49,3.97-18.04-2.9-24.59-0.7
			c-0.88,0.3-0.48,0.55-0.06,0.83c1.62,0.93,5.04,1.58,8.85,0.43c-1.66,2.06-7.62,1.89-9.16-0.04
			C128.34,119.78,132.84,118.69,134.17,118.62z"/>
		<path class="st0" d="M127.52,119.38c4.13-8.02,24.31,1.48,29.7-1.37C153.22,123.9,135.1,113.29,127.52,119.38"/>
		<line class="st6" x1="99.84" y1="120.32" x2="126.26" y2="120.32"/>
		<line class="st6" x1="156.92" y1="120.32" x2="183.36" y2="120.32"/>
	</g>
</g>
</svg>
