<svg xmlns="http://www.w3.org/2000/svg" id="Layer_1" version="1.1" viewBox="0 0 284.22 185.49">
  <!-- Generator: Adobe Illustrator 30.1.0, SVG Export Plug-In . SVG Version: 2.1.1 Build 136)  -->
  <defs fill="#000000">
    <style>
      .st0 {
        fill: none;
      }

      .st1 {
        fill: #4d4849;
      }

      .st2 {
        fill-rule: evenodd;
      }

      .st2, .st3 {
        fill: #ebe7e1;
      }

      .st4 {
        fill: #b8b8b0;
      }
    </style>
  </defs>
  <path d="M126.55,121.45c0-.57-.27-.92-.83-.92s-.89.37-.89.83c0,1.41,2.24.63,2.24,2.27,0,.9-.55,1.35-1.41,1.35s-1.34-.48-1.34-1.38v-.14h.4v.18c0,.59.31.98.92.98s1.01-.3,1.01-.94c0-1.38-2.24-.61-2.24-2.28,0-.72.48-1.23,1.28-1.23.86,0,1.25.44,1.25,1.26h-.39M127.69,124.89h.39v-3.44h-.39v3.44ZM127.69,120.92h.39v-.67h-.39v.67ZM128.85,121.45v3.44h.39v-2.32c0-.52.3-.88.76-.88.39,0,.59.23.59.72v2.49h.39v-2.61c0-.66-.35-.93-.88-.93-.35,0-.68.17-.89.55h-.01v-.48h-.35M133.81,123.75h-.4c-.06.61-.32.89-.71.89s-.75-.17-.75-1.47c0-1.23.36-1.48.8-1.48.41,0,.62.23.67.79h.4c-.05-.7-.43-1.11-1.06-1.11-.77,0-1.2.61-1.2,1.81,0,1.29.43,1.81,1.16,1.81.62,0,1.02-.49,1.08-1.23M134.65,122.85h1.47c-.01-.85-.26-1.16-.74-1.16s-.72.31-.74,1.16M136.51,123.75c-.06.74-.46,1.23-1.12,1.23-.72,0-1.16-.52-1.16-1.81,0-1.2.43-1.81,1.19-1.81s1.12.52,1.12,1.69v.14h-1.9v.15c0,.99.35,1.3.75,1.3s.66-.28.72-.89h.4ZM139.84,121.37v3.52h.39v-4.6h-.3c-.04.49-.37.79-1.15.79v.28h1.06M142.12,121.78c0,.59.22,1.19.86,1.19s.85-.59.85-1.19-.23-1.16-.85-1.16-.86.59-.86,1.16M142.22,123.9c.03.44.27.76.72.76.63,0,.95-.58.98-2.09h-.01c-.15.45-.5.75-.98.75-.8,0-1.21-.58-1.21-1.44s.4-1.57,1.28-1.57c1.04,0,1.35.76,1.35,2.22s-.31,2.46-1.41,2.46c-.72,0-1.11-.44-1.12-1.08h.4ZM145.32,123.47c0,.61.23,1.19.85,1.19s.85-.58.85-1.19-.22-1.17-.85-1.17c-.62,0-.85.58-.85,1.17M146.93,121.37c-.01-.45-.27-.75-.72-.75-.64,0-.95.57-.98,2.1h.01c.14-.46.49-.75.99-.75.8,0,1.2.58,1.2,1.43s-.4,1.57-1.28,1.57c-1.04,0-1.35-.77-1.35-2.21,0-1.51.3-2.48,1.41-2.48.72,0,1.11.45,1.13,1.08h-.41ZM148.26,123.36h1.42v-2.4h0l-1.42,2.4M149.68,123.72h-1.78v-.39l1.78-3.03h.39v3.07h.54v.35h-.54v1.19h-.39v-1.19Z" fill="#000000"/>
  <path d="M100.08,107.27h.66v6.14c0,1.73-.53,2.55-2.04,2.55-1.61,0-1.97-1.43-1.95-2.91h.67c.03.72-.04,2.22,1.34,2.22,1.04,0,1.33-.66,1.33-2.21v-5.79" fill="#000000"/>
  <path d="M98.7,116.17c-1.75,0-2.17-1.57-2.17-3.03v-.31h1.08v.21c.05.79,0,2.05,1.15,2.02.89-.03,1.07-.43,1.11-2v-6.01h1.1v6.36c0,.88-.13,1.56-.5,2.05s-.95.71-1.74.71t-.03,0M98.7,115.75c1.41-.04,1.79-.63,1.83-2.33v-5.92h-.23v5.57c0,.79-.06,1.37-.3,1.79s-.68.63-1.24.62c-1.47-.03-1.53-1.46-1.56-2.23h-.25c.04,1.41.39,2.5,1.74,2.5Z" fill="#000000"/>
  <polyline points="107.79 109 111.65 109 111.65 109.56 108.32 109.56 108.32 111.99 111.44 111.99 111.44 112.56 108.32 112.56 108.32 115.23 111.67 115.23 111.67 115.77 107.79 115.77 107.79 109" fill="#000000"/>
  <path d="M107.57,115.99v-7.2h4.28v.98h-3.33v2h3.12v.99h-3.12v2.24h3.37v.97h-4.32M108,115.55h3.46v-.12h-3.37v-3.1h3.12v-.14h-3.12v-2.86h3.33v-.12h-3.43v6.33h.01Z" fill="#000000"/>
  <polyline points="116.15 109 116.7 109 117.98 114.93 118 114.93 119.36 109 120.02 109 121.38 114.93 121.41 114.93 122.69 109 123.21 109 121.68 115.77 121.11 115.77 119.69 109.72 119.68 109.72 118.28 115.77 117.69 115.77 116.15 109" fill="#000000"/>
  <path d="M121.68,115.99h-.74l-1.25-5.38-1.24,5.38h-.92l-1.59-6.94.21-.04-.21.04-.05-.26h1.01l1.12,5.18,1.19-5.18h1.01l1.2,5.18,1.12-5.18h.98l-1.64,7.2h-.21M119.68,109.5h.19l1.42,6.06h.22l1.44-6.34h-.1l-1.28,5.93h-.36l-1.37-5.93h-.32l-1.35,5.93h-.37l-1.26-5.92h-.13l1.46,6.34h.23l1.41-6.07h.18Z" fill="#000000"/>
  <polyline points="128.08 109 131.92 109 131.92 109.56 128.62 109.56 128.62 111.99 131.73 111.99 131.73 112.56 128.62 112.56 128.62 115.23 131.96 115.23 131.96 115.77 128.08 115.77 128.08 109" fill="#000000"/>
  <path d="M127.87,115.99v-7.2h4.27v.98h-3.3v2.01h3.11v.99h-3.12v2.24h3.35v.97h-4.31M128.3,115.55h3.46v-.12h-3.35v-3.1h3.11v-.14h-3.11v-2.86h3.3v-.12h-3.4v6.33Z" fill="#000000"/>
  <polyline points="136.99 109 137.53 109 137.53 115.23 140.65 115.23 140.65 115.77 136.99 115.77 136.99 109" fill="#000000"/>
  <path d="M136.78,115.99v-7.2h.95v6.23h3.13v.97h-4.09M137.21,115.55h3.22v-.12h-3.12v-6.23h-.1v6.34Z" fill="#000000"/>
  <polyline points="145.47 109 146 109 146 115.23 149.12 115.23 149.12 115.77 145.47 115.77 145.47 109" fill="#000000"/>
  <path d="M145.27,115.99v-7.2h.95v6.23h3.12v.97h-4.08M145.69,115.55h3.22v-.12h-3.12v-6.23h-.1v6.34Z" fill="#000000"/>
  <polyline points="153.95 109 157.79 109 157.79 109.56 154.47 109.56 154.47 111.99 157.58 111.99 157.58 112.56 154.47 112.56 154.47 115.23 157.83 115.23 157.83 115.77 153.95 115.77 153.95 109" fill="#000000"/>
  <path d="M153.74,115.99v-7.2h4.27v.98h-3.31v2h3.11v.99h-3.11v2.24h3.35v.97h-4.31M154.16,115.57h3.44v-.12h-3.34v-3.1h3.1v-.14h-3.1v-2.86h3.31v-.12h-3.42v6.33h0Z" fill="#000000"/>
  <path d="M163.37,109.56h1.99c.8,0,1.2.53,1.2,1.37s-.54,1.32-1.2,1.32h-1.99v-2.68M162.84,115.77h.53v-2.99h2.01c1.01-.05,1.07,1.01,1.11,1.95.03.28.03.79.15,1.04h.58c-.25-.34-.25-1.26-.26-1.73-.04-.8-.25-1.42-.97-1.52h0c.71-.18,1.08-.88,1.08-1.74,0-1.23-.77-1.77-1.7-1.77h-2.55v6.76h.01Z" fill="#000000"/>
  <path d="M167.25,115.99h-.71l-.06-.12c-.17-.36-.15-.85-.18-1.13-.04-.97-.12-1.77-.83-1.74h-1.88v2.99h-.97v-7.2h2.77c1.01,0,1.91.66,1.91,1.99,0,.71-.25,1.37-.76,1.72.48.31.63.92.64,1.53.01.46.05,1.42.22,1.62l.25.34h-.4M166.92,115.57c-.14-.49-.13-1.13-.14-1.51-.05-.74-.18-1.16-.66-1.29.54.39.58,1.28.61,1.95.01.25.03.63.09.85h.1ZM163.17,115.57v-2.99h2.31c.12,0,.23.01.32.05v-.23c-.14.05-.28.06-.44.06h-2.21v-3.1h2.21c.45,0,.81.15,1.06.45.25.3.35.68.35,1.13,0,.63-.31,1.12-.76,1.37.55-.15.86-.72.86-1.51-.01-1.12-.64-1.53-1.48-1.55h-2.33v6.31h.12ZM163.59,112.01h1.77c.53-.01.97-.37.98-1.08-.03-.77-.3-1.12-.98-1.15h-1.77v2.23Z" fill="#000000"/>
  <path d="M172.59,113.54c-.03,1.39.8,1.82,1.83,1.82.58,0,1.47-.37,1.47-1.35,0-.77-.63-1.08-1.15-1.23l-1.24-.37c-.66-.21-1.26-.58-1.26-1.64,0-.67.35-1.91,1.91-1.91,1.1,0,2.06.72,2.05,2.1h-.53c-.04-1.03-.74-1.55-1.52-1.55-.72,0-1.39.35-1.39,1.35,0,.63.37.89.84,1.03l1.35.4c.79.26,1.44.67,1.44,1.79,0,.46-.15,1.93-2.13,1.93-1.32,0-2.28-.72-2.22-2.39h.54" fill="#000000"/>
  <path d="M172.55,115.55c-.45-.4-.71-1.03-.71-1.86,0-.05,0-.12.01-.18v-.21h.74v.22-.22h.22v.28c.03,1.23.66,1.51,1.61,1.55.5-.01,1.25-.32,1.26-1.15,0-.63-.49-.86-1.01-1.02l-1.24-.37c-.68-.19-1.43-.68-1.41-1.84,0-.71.41-2.11,2.13-2.11,1.17,0,2.26.81,2.27,2.3l.03.23h-.98v-.21c-.05-.93-.62-1.34-1.32-1.35-.67.03-1.16.25-1.17,1.13.01.53.26.67.68.83l1.37.41c.81.25,1.61.79,1.59,2,0,.49-.23,2.15-2.35,2.15-.67.01-1.29-.17-1.73-.58M174.28,115.71c1.82-.01,1.88-1.29,1.91-1.72-.01-1.01-.53-1.32-1.29-1.59l-1.35-.41c-.49-.13-1.01-.49-.99-1.24,0-.54.19-.97.5-1.23s.71-.34,1.11-.34c.84-.01,1.61.55,1.72,1.55h.1c-.09-1.12-.89-1.66-1.83-1.68-1.43,0-1.68,1.07-1.7,1.68.01.97.48,1.21,1.11,1.43l1.24.37c.53.14,1.3.5,1.3,1.43-.01,1.15-1.03,1.57-1.69,1.57-.53,0-1.04-.12-1.43-.43-.36-.3-.58-.76-.62-1.41h-.1c.05,1.44.85,1.97,2.02,1.99Z" fill="#000000"/>
  <path class="st4" d="M193.07,84.04c-1.12.34-2.11.32-3.04.59-.94,3.55-2.84,7.34-6.65,8.92,0,0-1.65.76-2.67,1.03.99.1,2.71-.03,2.71-.03,7.61-.27,11.62-10.42,12.21-12.06-.44.83-2.55,1.53-2.55,1.53" fill="#000000"/>
  <path class="st4" d="M186.02,86.73c1.08-.83,2.35-1.55,3.83-2.04.06-.01.13-.04.18-.04.89-3.37.92-6.53.9-7.43-.13.97-1.96,2.46-1.96,2.46-1.02.79-2.05,1.12-2.88,1.78.18,1.64.22,3.47-.08,5.26" fill="#000000"/>
  <path class="st4" d="M180.69,94.58h.01-.01" fill="#000000"/>
  <path class="st2" d="M186.02,86.73c-.37,2.31-1.32,4.55-3.22,6.15,0,0-1.25,1.15-2.09,1.7h0c1.02-.26,2.67-1.02,2.67-1.02,3.82-1.59,5.71-5.36,6.65-8.92-.06.01-.13.03-.18.04-1.48.5-2.73,1.23-3.83,2.05" fill="#000000"/>
  <path class="st4" d="M186.03,81.49s.04-.03.06-.05c-.3-2.71-.98-4.91-1.21-5.6.15.9-1.06,2.77-1.06,2.77-.54.79-1.16,1.34-1.68,1.93.5,1.08,1.03,2.24,1.38,3.57.68-.93,1.5-1.82,2.5-2.63" fill="#000000"/>
  <polyline class="st4" points="180.69 94.58 180.68 94.58 180.68 94.6 180.69 94.58" fill="#000000"/>
  <line class="st0" x1="180.69" y1="94.58" x2="180.69" y2="94.58" fill="#000000"/>
  <path class="st2" d="M183.54,84.14c.05.22.1.43.15.64.28,1.32.37,2.7.15,4.06.44-.53.94-1.06,1.51-1.55.22-.19.44-.39.66-.57.3-1.79.26-3.62.08-5.27-.03.01-.05.03-.06.05-1.01.8-1.82,1.69-2.49,2.63" fill="#000000"/>
  <path class="st4" d="M180.74,94.53s-.01.04-.01.04c-.01,0-.01.01-.01.01.84-.55,2.09-1.7,2.09-1.7,1.91-1.61,2.85-3.84,3.22-6.15-.22.18-.45.37-.66.57-.57.49-1.07,1.02-1.51,1.55-.22,1.21-.67,2.44-1.52,3.59-.01,0-.92,1.37-1.6,2.1" fill="#000000"/>
  <line class="st0" x1="180.68" y1="94.58" x2="180.68" y2="94.58" fill="#000000"/>
  <path class="st4" d="M180.71,83.03c.27-.63.61-1.26,1.02-1.88.13-.21.28-.4.45-.58-.45-.98-.89-1.92-1.19-2.86-.13-.44-.27-1.5-.28-1.73,0,.21-.14,1.29-.28,1.73-.31.93-.76,1.86-1.21,2.79.18.21.34.41.5.64.37.63.71,1.26.99,1.9" fill="#000000"/>
  <path class="st2" d="M180.71,83.03c.44.98.72,1.99.89,2.95.09.5.14.99.18,1.48.22-.58.48-1.17.79-1.74.28-.54.61-1.06.98-1.59-.35-1.33-.89-2.48-1.38-3.57-.17.18-.31.37-.45.58-.41.62-.74,1.25-1.01,1.88" fill="#000000"/>
  <polyline class="st4" points="180.69 94.58 180.68 94.58 180.69 94.58" fill="#000000"/>
  <path class="st4" d="M181.17,93.23c.48-1.11,1.33-2.77,2.68-4.38.22-1.37.12-2.73-.15-4.06-.05-.23-.1-.44-.15-.64-.37.53-.7,1.04-.98,1.59-.31.58-.57,1.16-.79,1.74.18,2.37-.25,4.47-.61,5.76" fill="#000000"/>
  <path class="st3" d="M180.98,93.87c-.04.12-.21.58-.26.7,0,0,.01-.01.03-.04.68-.74,1.59-2.1,1.59-2.1.85-1.16,1.32-2.37,1.52-3.59-1.35,1.61-2.22,3.28-2.68,4.38-.05.25-.13.46-.19.64" fill="#000000"/>
  <path class="st4" d="M178.01,93.55c-3.82-1.59-5.71-5.36-6.65-8.92-.93-.27-1.91-.26-3.04-.59,0,0-2.13-.72-2.54-1.53.59,1.65,4.59,11.8,12.2,12.06,0,0,1.72.13,2.7.03-1.01-.27-2.66-1.03-2.66-1.03" fill="#000000"/>
  <line class="st0" x1="180.68" y1="94.58" x2="180.68" y2="94.58" fill="#000000"/>
  <line class="st0" x1="180.68" y1="94.58" x2="180.68" y2="94.58" fill="#000000"/>
  <path class="st4" d="M175.35,86.73c-.3-1.79-.26-3.62-.06-5.27-.84-.66-1.86-.99-2.88-1.78,0,0-1.83-1.5-1.97-2.46,0,.9.03,4.05.92,7.43.05.01.1.03.18.04,1.48.5,2.75,1.23,3.82,2.05" fill="#000000"/>
  <path class="st4" d="M180.71,94.58h0" fill="#000000"/>
  <path class="st4" d="M180.71,94.58h-.01.01" fill="#000000"/>
  <line class="st0" x1="180.69" y1="94.58" x2="180.69" y2="94.58" fill="#000000"/>
  <path class="st4" d="M180.69,94.58h.01-.01" fill="#000000"/>
  <line class="st0" x1="180.71" y1="94.58" x2="180.71" y2="94.58" fill="#000000"/>
  <line class="st0" x1="180.71" y1="94.58" x2="180.71" y2="94.58" fill="#000000"/>
  <line class="st0" x1="180.71" y1="94.58" x2="180.71" y2="94.58" fill="#000000"/>
  <polyline class="st4" points="180.68 94.58 180.69 94.58 180.68 94.58" fill="#000000"/>
  <line class="st0" x1="180.71" y1="94.58" x2="180.71" y2="94.58" fill="#000000"/>
  <path class="st2" d="M178.01,93.55s1.65.76,2.66,1.03h-.03c-.81-.55-2.06-1.7-2.06-1.7-1.92-1.61-2.86-3.84-3.24-6.15-1.07-.83-2.33-1.55-3.82-2.04-.06-.01-.13-.04-.18-.04.95,3.53,2.85,7.32,6.67,8.9" fill="#000000"/>
  <line class="st0" x1="180.69" y1="94.58" x2="180.69" y2="94.58" fill="#000000"/>
  <path class="st4" d="M180.69,94.58h.01-.01" fill="#000000"/>
  <path class="st4" d="M180.69,94.58h.01-.01" fill="#000000"/>
  <path class="st4" d="M180.65,94.57s.03.01.03.01h0s-.01-.01-.03-.01" fill="#000000"/>
  <line class="st0" x1="180.71" y1="94.58" x2="180.71" y2="94.58" fill="#000000"/>
  <line class="st0" x1="180.71" y1="94.58" x2="180.71" y2="94.58" fill="#000000"/>
  <path class="st4" d="M180.69,94.58h0s-.01,0,0,0t0,0h0" fill="#000000"/>
  <polyline class="st4" points="180.69 94.58 180.69 94.58 180.69 94.58" fill="#000000"/>
  <line class="st0" x1="180.71" y1="94.58" x2="180.71" y2="94.58" fill="#000000"/>
  <line class="st0" x1="180.71" y1="94.58" x2="180.71" y2="94.58" fill="#000000"/>
  <path class="st4" d="M180.71,94.58s0,.01,0,0h0" fill="#000000"/>
  <path class="st4" d="M177.78,84.04c.35-1.3.88-2.45,1.41-3.53-.5-.57-1.1-1.1-1.62-1.87,0,0-1.21-1.87-1.06-2.77-.23.68-.9,2.89-1.21,5.6.03.01.05.03.06.05.97.76,1.77,1.62,2.42,2.53" fill="#000000"/>
  <line class="st0" x1="180.71" y1="94.58" x2="180.71" y2="94.58" fill="#000000"/>
  <path class="st4" d="M180.71,94.58h0" fill="#000000"/>
  <path class="st4" d="M180.71,94.58h0" fill="#000000"/>
  <path class="st4" d="M180.71,94.58h0s0-.01.01-.01t-.01.01" fill="#000000"/>
  <path class="st2" d="M178.82,85.71c.31.58.58,1.16.79,1.74.04-.49.09-.98.18-1.48.18-.97.46-1.96.9-2.95-.27-.63-.61-1.26-1.02-1.88-.15-.23-.32-.45-.5-.64-.53,1.08-1.06,2.23-1.41,3.53.41.55.76,1.12,1.06,1.69" fill="#000000"/>
  <path class="st4" d="M180.71,94.58h0" fill="#000000"/>
  <path class="st4" d="M180.71,94.58h0" fill="#000000"/>
  <path class="st4" d="M181.78,87.47c-.04-.49-.1-.98-.18-1.48-.17-.97-.46-1.96-.89-2.95-.44.98-.72,1.99-.9,2.95-.09.5-.14.99-.18,1.48.7,1.86.98,3.62,1.08,4.94.09-1.33.37-3.08,1.07-4.94" fill="#000000"/>
  <path class="st3" d="M180.74,93.8c0,.12-.04.59-.04.75.04-.14.18-.59.22-.7.06-.18.14-.39.25-.63.36-1.29.79-3.39.61-5.76-.7,1.86-.98,3.62-1.07,4.94.04.57.04,1.04.04,1.41" fill="#000000"/>
  <path class="st4" d="M180.98,93.87c.06-.17.14-.39.19-.64-.09.25-.17.45-.25.63-.04.1-.18.55-.22.7v.03h0s0-.01.01-.01c.05-.13.22-.58.26-.7" fill="#000000"/>
  <path class="st2" d="M175.35,86.73c.23.18.46.37.68.57.55.48,1.03.98,1.47,1.5-.25-1.35-.17-2.71.09-4.02.05-.25.12-.5.18-.74-.66-.9-1.46-1.77-2.42-2.53-.01-.01-.04-.03-.06-.05-.18,1.65-.22,3.48.06,5.27" fill="#000000"/>
  <line class="st0" x1="180.71" y1="94.58" x2="180.71" y2="94.58" fill="#000000"/>
  <line class="st0" x1="180.71" y1="94.58" x2="180.71" y2="94.58" fill="#000000"/>
  <path class="st4" d="M179.62,87.47c-.22-.58-.48-1.17-.79-1.74-.3-.57-.64-1.13-1.06-1.69-.06.23-.13.48-.18.74-.26,1.32-.34,2.67-.09,4.02,1.38,1.62,2.24,3.31,2.72,4.44-.37-1.29-.79-3.39-.61-5.76" fill="#000000"/>
  <line class="st0" x1="180.71" y1="94.58" x2="180.71" y2="94.58" fill="#000000"/>
  <line class="st0" x1="180.71" y1="94.58" x2="180.71" y2="94.58" fill="#000000"/>
  <polyline class="st4" points="180.71 94.58 180.71 94.58 180.71 94.58" fill="#000000"/>
  <path class="st3" d="M180.21,93.23c.1.25.18.45.26.63.03.1.17.55.21.7-.01-.15-.04-.64-.04-.75,0-.36.01-.84.05-1.41-.1-1.32-.39-3.08-1.08-4.94-.17,2.37.25,4.47.61,5.76" fill="#000000"/>
  <path class="st4" d="M180.71,94.56c0-.15.04-.64.04-.75,0-.36,0-.84-.04-1.41-.04.57-.05,1.03-.05,1.41,0,.12.03.59.04.75t.01.03v-.03" fill="#000000"/>
  <path class="st4" d="M180.71,94.58v-.03.03h0" fill="#000000"/>
  <path class="st4" d="M179.05,92.43c-.85-1.17-1.34-2.41-1.56-3.64-.43-.52-.92-1.02-1.47-1.5-.22-.19-.44-.39-.68-.57.37,2.31,1.33,4.55,3.24,6.15,0,0,1.25,1.15,2.06,1.69,0,0-.01-.01-.01-.04-.66-.74-1.57-2.1-1.57-2.1" fill="#000000"/>
  <line class="st0" x1="180.69" y1="94.58" x2="180.69" y2="94.58" fill="#000000"/>
  <path class="st4" d="M180.69,94.58h.01-.01" fill="#000000"/>
  <path class="st3" d="M180.41,93.87c-.05-.17-.13-.39-.19-.64-.48-1.12-1.34-2.82-2.72-4.44.21,1.23.7,2.46,1.56,3.64,0,0,.92,1.38,1.59,2.1,0,.03.01.04.01.04h.01c-.03-.1-.23-.58-.26-.7" fill="#000000"/>
  <path class="st4" d="M180.71,94.58h0" fill="#000000"/>
  <path class="st4" d="M180.47,93.86c-.08-.18-.15-.39-.26-.63.06.25.13.48.19.64.03.12.23.59.27.71,0,.01.01.01.01.01v-.03c-.05-.15-.19-.61-.22-.71" fill="#000000"/>
  <path class="st4" d="M180.69,94.58h.01s-.01-.03-.01-.04v.04" fill="#000000"/>
  <path class="st4" d="M180.69,94.58h.01-.01" fill="#000000"/>
  <path class="st1" d="M144.49,89.84c-2.68-3.21-6.94-9.45-6.94-9.45,5.2-1.79,11.49-8.27,8.05-14.15-3.44-5.88-15.98-4.77-15.98-4.77l-4.37.12c-.28.88.88,18.24.99,19.92.12,1.69-.81,17.01-.81,17.01l4.37.06c-.46-5.71-.64-17.07-.64-17.07l5.13-.3c2.73,5.36,11.49,20.69,24.13,22.54,12.63,1.87,21.43-7.27,21.43-7.27-20.74,12.87-32.69-3.44-35.36-6.64M129.04,79.24l-.23-15.73s6.71-.41,10.9,1.92c4.19,2.33,3.73,10.61-1.69,12.93-5.43,2.33-8.98.88-8.98.88ZM158.76,99.15s1.11-12.99,1.06-19.63c-.06-6.64-.81-14.79-.81-14.79l-12.46-.76s-1.23-.17-1.46-2.1c0,0,5.24.53,14.44.3,9.21-.23,18.71-.83,19.22-.99l-2.15,2.22-13.75,1.52s-.64,7.51,0,18c.64,10.48,1.28,16.08,1.28,16.08l-5.36.15M123.27,81.97s-1.38,13.59-.97,17.53h-.01s-12.02,4.5-22.63.36c-10.6-4.14-15.72-20.09-5.53-31.92,7.38-8.56,21.07-8,28.51-6.67,0,0-1.87,4.86-4.09,3.29-2.22-1.59-17.25-3.78-23.68,6.11-6.42,9.88-1.86,24.7,8.91,27.91,5.2,1.55,10.55.84,15.22-1.53l-.52-12.15-3.21.53s-1.11-1.11-1.04-2.45c0,0,2.15.17,4.55-.23,2.39-.41,4.44-.76,4.44-.76h.05" fill="#000000"/>
</svg>