<?xml version="1.0" encoding="utf-8"?>
<!-- Generator: Adobe Illustrator 30.1.0, SVG Export Plug-In . SVG Version: 9.03 Build 0)  -->
<svg version="1.0" id="Layer_1" xmlns="http://www.w3.org/2000/svg" xmlns:xlink="http://www.w3.org/1999/xlink" x="0px" y="0px"
	 viewBox="0 0 284 185" style="enable-background:new 0 0 284 185;" xml:space="preserve">
<style type="text/css">
	.st0{fill:#231F20;}
</style>
<g>
	<g>
		<g>
			<path class="st0" d="M81.57,76.61c3.6,1.54,3.76,6.31,1.99,9.22c-1.23,2.03-3.25,6.74-1.62,11.34c0,0,1.71,7.65,9.94,9.42v0.64
				c-8.53-1.25-14.3-8.56-14.7-16.95c-0.15-2.94,1.06-6.74,2.55-9.27c0.85-1.45,1.6-2.67,1.85-4.41"/>
			<path class="st0" d="M92.83,74.45c2.19,3.47,1.72,9-1.61,11.6c-1.34,1.04-6.11,5.04-6.47,9.1c0,0-0.96,5.69,4.51,9.21
				c0.68,0.43,1.64,0.84,2.61,1.1v0.73c-7.84-1.6-11.99-9.86-8.54-17.26c0,0,1.88-3.72,4.68-6.89c2.07-2.34,4.43-4.07,4.81-7.57"/>
			<path class="st0" d="M94.55,85.96c0,0,1.58,4.75-2.88,6.47c-4.47,1.72-6.53,6.82-1.75,10.93c0,0,0.73,0.61,1.95,1.06l-0.03,0.61
				c-7.7-2.5-8.98-11.94-2.14-15.79c0,0,2.19-1.27,2.87-1.68c0.69-0.39,1.91-1.16,1.96-1.6"/>
			<path class="st0" d="M94.55,85.96c0,0,1.58,4.75-2.88,6.47c-4.47,1.72-6.53,6.82-1.75,10.93c0,0,0.73,0.61,1.95,1.06l-0.03,0.61
				c-7.7-2.5-8.98-11.94-2.14-15.79c0,0,2.19-1.27,2.87-1.68c0.69-0.39,1.91-1.16,1.96-1.6"/>
			<path class="st0" d="M91.87,107.76L91.87,107.76v-0.27c-2.52-0.31-5.14-1.25-7.3-2.61c-4.94-3.13-6.55-6.34-8.1-11.89
				c-1.6-5.74-7.01-3.32-7.01-3.32c0.3,0.05,0.58,0.26,0.81,0.53c0.01,0.01,0.03,0.03,0.04,0.05c0.64,0.76,1,2,1,2
				c0.53,1.71,1.57,3.48,2.61,4.98c0.08,0.11,0.15,0.22,0.23,0.32c0.08,0.11,0.15,0.22,0.23,0.31c1.26,1.71,2.37,2.9,2.37,2.9
				c0.3,0.32,0.6,0.64,0.92,0.93c2.99,2.83,6.89,4.45,9.98,5.36c0.08,0.03,0.16,0.04,0.24,0.07c0.15,0.04,0.28,0.08,0.42,0.12
				c0.11,0.03,0.23,0.07,0.34,0.09c0.11,0.03,0.23,0.05,0.34,0.08c0.35,0.09,0.69,0.16,1.02,0.24c0.05,0,0.12,0.03,0.18,0.04
				c0.68,0.15,1.26,0.24,1.69,0.31l0,0l0,0v-0.27L91.87,107.76z"/>
			<path class="st0" d="M72.36,105.11c0,0,1.87-4.16,7.07-1.48c0,0,5.31,3.87,12.44,4.59v0.35c-1.99-0.14-8.54-0.73-13.06-2.67
				c-5.4-2.3-6.44-0.81-6.44-0.81"/>
			<path class="st0" d="M78.22,109.03c0,0,0.66-1.99,5.97-0.96c2.27,0.43,5.31,0.96,7.62,0.72c-0.08,0.22-0.26,0.39-0.47,0.49
				c-0.07,0.03-0.12,0.05-0.19,0.07c-8.18,3.14-8.84-0.93-12.93-0.32"/>
		</g>
		<path class="st0" d="M114.5,95.38c1.15,0,2.25-0.97,2.67-1.98l0.56-1.26c-0.65,0.53-0.95,0.56-1.57,0.6h-9.14
			c-1.12,0-2.25,1-2.67,2l-0.5,1.25c0.65-0.5,0.95-0.53,1.54-0.57h3.94v11.71c-0.05,0.57-0.28,1.07-0.69,1.48
			c-0.47,0.49-1.03,0.69-1.69,0.69h2.38c0.65,0,1.48-0.22,1.95-0.69c0.45-0.45,0.69-1,0.69-1.67V95.41h2.53L114.5,95.38z
			 M104.69,109.34c-0.62-0.35-0.74-0.62-1.03-1.12l-1.07-2.48l-1.79-4.05c-0.38-0.88-1.41-1.45-2.36-1.62
			c0.91-0.09,1.72-0.43,2.41-1.65c0.69-1.19,1.67-3.03,2.45-4.41c0.31-0.56,0.57-0.84,1.31-1.22h-1.5c-1.1,0-2.29,0.62-2.91,1.67
			c-0.84,1.44-1.79,3.2-2.36,4.17c-0.28,0.5-0.72,1.1-1.45,1.38c0.74,0.41,0.88,0.66,1.16,1.22l1.1,2.45l1.76,4.07
			c0.45,1.03,1.81,1.6,2.88,1.57h1.39L104.69,109.34z M92.86,109.29c0.65,0,1.5-0.22,1.95-0.66c0.45-0.47,0.69-1.06,0.69-1.69V94.9
			c0.05-0.57,0.26-1.07,0.69-1.48c0.47-0.47,1.03-0.72,1.69-0.72H95.5c-0.65,0-1.5,0.24-1.95,0.72c-0.47,0.45-0.69,1-0.69,1.67
			v13.19c0,0.26-0.09,0.5-0.26,0.72c-0.22,0.22-0.47,0.31-0.76,0.31h1.03L92.86,109.29z"/>
	</g>
	<g>
		<g>
			<path class="st0" d="M131.32,94.65V82h2.56v5.62l5.16-5.62h3.44l-4.77,4.93l5.02,7.73h-3.3l-3.48-5.94l-2.07,2.11v3.82h-2.56
				L131.32,94.65z"/>
			<path class="st0" d="M155.46,94.65h-2.78l-1.11-2.87h-5.06l-1.04,2.87h-2.71L147.69,82h2.71L155.46,94.65L155.46,94.65z
				 M150.76,89.64l-1.75-4.7l-1.71,4.7H150.76L150.76,89.64z"/>
			<path class="st0" d="M156.82,94.65V82h5.37c1.35,0,2.33,0.11,2.95,0.34c0.61,0.23,1.11,0.64,1.48,1.22
				c0.37,0.58,0.56,1.25,0.56,1.99c0,0.95-0.28,1.73-0.84,2.36c-0.56,0.62-1.39,1-2.5,1.16c0.56,0.32,1,0.68,1.37,1.06
				s0.84,1.07,1.45,2.06l1.54,2.46h-3.06l-1.84-2.75c-0.65-0.99-1.11-1.6-1.34-1.85c-0.23-0.26-0.5-0.43-0.77-0.53
				s-0.7-0.15-1.29-0.15h-0.51v5.28h-2.56L156.82,94.65z M159.38,87.36h1.9c1.23,0,1.99-0.05,2.3-0.15
				c0.31-0.11,0.54-0.28,0.72-0.54c0.18-0.26,0.26-0.57,0.26-0.95c0-0.42-0.11-0.77-0.34-1.03c-0.23-0.26-0.54-0.43-0.96-0.5
				c-0.2-0.03-0.83-0.04-1.87-0.04h-1.99v3.21H159.38z"/>
			<path class="st0" d="M172.43,94.65V84.13h-3.75V82h10.06v2.14h-3.75v10.52H172.43L172.43,94.65z"/>
			<path class="st0" d="M180.39,94.65V82h2.56v4.98h5.01V82h2.56v12.66h-2.56v-5.54h-5.01v5.54H180.39z"/>
			<path class="st0" d="M193.07,94.65V82h2.56v12.66H193.07z"/>
			<path class="st0" d="M198.1,94.65V82h2.56v5.62l5.16-5.62h3.44l-4.77,4.93l5.02,7.73h-3.3l-3.48-5.94l-2.07,2.11v3.82h-2.56
				L198.1,94.65z"/>
		</g>
		<g>
			<path class="st0" d="M126.8,109.72v-6.36h-2.27v-1.3h6.09v1.3h-2.27v6.36H126.8L126.8,109.72z"/>
			<path class="st0" d="M131.62,109.72v-7.66h1.54v3.02h3.03v-3.02h1.54v7.66h-1.54v-3.34h-3.03v3.34
				C133.16,109.72,131.62,109.72,131.62,109.72z"/>
			<path class="st0" d="M146.25,109.72h-1.68l-0.66-1.75h-3.06l-0.64,1.75h-1.64l2.98-7.66h1.64l3.07,7.66L146.25,109.72z
				 M143.39,106.69l-1.06-2.84l-1.03,2.84H143.39z"/>
			<path class="st0" d="M147.09,109.72v-7.66h1.5l3.14,5.12v-5.12h1.44v7.66h-1.56l-3.09-5v5L147.09,109.72L147.09,109.72z"/>
			<path class="st0" d="M158.35,106.91v-1.29h3.33v3.05c-0.32,0.31-0.8,0.6-1.41,0.83c-0.61,0.24-1.23,0.35-1.87,0.35
				c-0.8,0-1.5-0.16-2.1-0.5s-1.04-0.81-1.34-1.45c-0.3-0.62-0.45-1.3-0.45-2.04c0-0.8,0.16-1.5,0.5-2.13s0.83-1.1,1.46-1.42
				c0.49-0.26,1.1-0.38,1.83-0.38c0.95,0,1.69,0.2,2.23,0.6s0.88,0.95,1.03,1.65l-1.53,0.28c-0.11-0.38-0.31-0.68-0.61-0.89
				c-0.3-0.22-0.66-0.32-1.11-0.32c-0.68,0-1.22,0.22-1.61,0.64c-0.39,0.43-0.6,1.07-0.6,1.91c0,0.91,0.2,1.6,0.61,2.04
				c0.41,0.45,0.93,0.68,1.58,0.68c0.32,0,0.65-0.07,0.97-0.19c0.32-0.12,0.61-0.28,0.84-0.46v-0.97h-1.77L158.35,106.91z"/>
			<path class="st0" d="M170.02,109.72h-1.68l-0.66-1.75h-3.06l-0.64,1.75h-1.64l2.98-7.66h1.64l3.07,7.66L170.02,109.72z
				 M167.18,106.69l-1.06-2.84l-1.03,2.84H167.18z"/>
			<path class="st0" d="M170.82,109.72v-7.66h2.32l1.39,5.23l1.38-5.23h2.32v7.66h-1.44v-6.02l-1.52,6.02h-1.49l-1.52-6.02v6.02
				h-1.44L170.82,109.72z"/>
			<path class="st0" d="M186.66,109.72h-1.68l-0.66-1.75h-3.06l-0.64,1.75h-1.64l2.98-7.66h1.64l3.07,7.66L186.66,109.72z
				 M183.82,106.69l-1.06-2.84l-1.03,2.84H183.82z"/>
			<path class="st0" d="M187.53,109.72v-7.59h1.54v6.31h3.84v1.29C192.92,109.72,187.53,109.72,187.53,109.72z"/>
			<path class="st0" d="M193.97,109.72v-7.66h1.54v7.66C195.52,109.72,193.97,109.72,193.97,109.72z"/>
			<path class="st0" d="M200.55,106.91v-1.29h3.33v3.05c-0.32,0.31-0.8,0.6-1.41,0.83c-0.61,0.24-1.23,0.35-1.87,0.35
				c-0.8,0-1.5-0.16-2.1-0.5c-0.6-0.34-1.04-0.81-1.34-1.45c-0.3-0.62-0.45-1.3-0.45-2.04c0-0.8,0.16-1.5,0.5-2.13
				s0.83-1.1,1.46-1.42c0.49-0.26,1.1-0.38,1.83-0.38c0.95,0,1.69,0.2,2.23,0.6s0.88,0.95,1.03,1.65l-1.53,0.28
				c-0.11-0.38-0.31-0.68-0.61-0.89s-0.66-0.32-1.11-0.32c-0.68,0-1.22,0.22-1.61,0.64c-0.39,0.42-0.6,1.07-0.6,1.91
				c0,0.91,0.2,1.6,0.61,2.04c0.41,0.46,0.93,0.68,1.58,0.68c0.32,0,0.65-0.07,0.97-0.19s0.61-0.28,0.84-0.46v-0.97h-1.77
				L200.55,106.91z"/>
			<path class="st0" d="M212.22,109.72h-1.68l-0.66-1.75h-3.06l-0.64,1.75h-1.64l2.98-7.66h1.64l3.07,7.66L212.22,109.72z
				 M209.38,106.69l-1.06-2.84l-1.03,2.84H209.38z"/>
			<path class="st0" d="M212.99,109.72v-7.66h1.54v7.66C214.54,109.72,212.99,109.72,212.99,109.72z"/>
		</g>
	</g>
</g>
</svg>
