<?xml version="1.0" encoding="UTF-8"?>
<svg id="Layer_1" xmlns="http://www.w3.org/2000/svg" version="1.1" viewBox="0 0 284.22 185.49">
  <!-- Generator: Adobe Illustrator 30.1.0, SVG Export Plug-In . SVG Version: 2.1.1 Build 136)  -->
  <defs>
    <style>
      .st0 {
        fill: #231f20;
      }
    </style>
  </defs>
  <g>
    <g>
      <path class="st0" d="M97.47,81c2.66,1.14,2.78,4.66,1.47,6.81-.91,1.5-2.4,4.98-1.2,8.38,0,0,1.26,5.65,7.34,6.96v.47c-6.3-.92-10.56-6.32-10.86-12.52-.11-2.17.78-4.98,1.88-6.85.63-1.07,1.18-1.97,1.37-3.26"/>
      <path class="st0" d="M105.79,79.41c1.62,2.56,1.27,6.65-1.19,8.57-.99.77-4.51,3.72-4.78,6.72,0,0-.71,4.2,3.33,6.8.5.32,1.21.62,1.93.81v.54c-5.79-1.18-8.86-7.28-6.31-12.75,0,0,1.39-2.75,3.46-5.09,1.53-1.73,3.27-3.01,3.55-5.59"/>
      <path class="st0" d="M107.06,87.91s1.17,3.51-2.13,4.78c-3.3,1.27-4.82,5.04-1.29,8.07,0,0,.54.45,1.44.78l-.02.45c-5.69-1.85-6.63-8.82-1.58-11.66,0,0,1.62-.94,2.12-1.24.51-.29,1.41-.86,1.45-1.18"/>
      <path class="st0" d="M107.06,87.91s1.17,3.51-2.13,4.78c-3.3,1.27-4.82,5.04-1.29,8.07,0,0,.54.45,1.44.78l-.02.45c-5.69-1.85-6.63-8.82-1.58-11.66,0,0,1.62-.94,2.12-1.24.51-.29,1.41-.86,1.45-1.18"/>
      <path class="st0" d="M105.08,104.01h0v-.2c-1.86-.23-3.8-.92-5.39-1.93-3.65-2.31-4.84-4.68-5.98-8.78-1.18-4.24-5.18-2.45-5.18-2.45.22.04.43.19.6.39.01.01.02.02.03.04.47.56.74,1.48.74,1.48.39,1.26,1.16,2.57,1.93,3.68.06.08.11.16.17.24s.11.16.17.23c.93,1.26,1.75,2.14,1.75,2.14.22.24.44.47.68.69,2.21,2.09,5.09,3.29,7.37,3.96.06.02.12.03.18.05.11.03.21.06.31.09.08.02.17.05.25.07.08.02.17.04.25.06.26.07.51.12.75.18.04,0,.09.02.13.03.5.11.93.18,1.25.23h0s0,0,0,0v-.2Z"/>
      <path class="st0" d="M90.67,102.05s1.38-3.07,5.22-1.09c0,0,3.92,2.86,9.19,3.39v.26c-1.47-.1-6.31-.54-9.65-1.97-3.99-1.7-4.76-.6-4.76-.6"/>
      <path class="st0" d="M95,104.95s.49-1.47,4.41-.71c1.68.32,3.92.71,5.63.53-.06.16-.19.29-.35.36-.05.02-.09.04-.14.05-6.04,2.32-6.53-.69-9.55-.24"/>
    </g>
    <path class="st0" d="M121.8,94.87c.85,0,1.66-.72,1.97-1.46l.41-.93c-.48.39-.7.41-1.16.44h-6.75c-.83,0-1.66.74-1.97,1.48l-.37.92c.48-.37.7-.39,1.14-.42h2.91v8.65c-.04.42-.21.79-.51,1.09-.35.36-.76.51-1.25.51h1.76c.48,0,1.09-.16,1.44-.51.33-.33.51-.74.51-1.23v-8.52h1.87ZM114.55,105.18c-.46-.26-.55-.46-.76-.83l-.79-1.83-1.32-2.99c-.28-.65-1.04-1.07-1.74-1.2.67-.07,1.27-.32,1.78-1.22.51-.88,1.23-2.24,1.81-3.26.23-.41.42-.62.97-.9h-1.11c-.81,0-1.69.46-2.15,1.23-.62,1.06-1.32,2.36-1.74,3.08-.21.37-.53.81-1.07,1.02.55.3.65.49.86.9l.81,1.81,1.3,3.01c.33.76,1.34,1.18,2.13,1.16h1.03ZM105.81,105.14c.48,0,1.11-.16,1.44-.49.33-.35.51-.78.51-1.25v-8.89c.04-.42.19-.79.51-1.09.35-.35.76-.53,1.25-.53h-1.76c-.48,0-1.11.18-1.44.53-.35.33-.51.74-.51,1.23v9.74c0,.19-.07.37-.19.53-.16.16-.35.23-.56.23h.76Z"/>
  </g>
  <g>
    <g>
      <path class="st0" d="M134.22,94.33v-9.35h1.89v4.15l3.81-4.15h2.54l-3.52,3.64,3.71,5.71h-2.44l-2.57-4.39-1.53,1.56v2.82h-1.89Z"/>
      <path class="st0" d="M152.05,94.33h-2.05l-.82-2.12h-3.74l-.77,2.12h-2l3.64-9.35h2l3.74,9.35ZM148.58,90.63l-1.29-3.47-1.26,3.47h2.55Z"/>
      <path class="st0" d="M153.06,94.33v-9.35h3.97c1,0,1.72.08,2.18.25.45.17.82.47,1.09.9s.41.92.41,1.47c0,.7-.21,1.28-.62,1.74-.41.46-1.03.74-1.85.86.41.24.74.5,1.01.78.27.28.62.79,1.07,1.52l1.14,1.82h-2.26l-1.36-2.03c-.48-.73-.82-1.18-.99-1.37s-.37-.32-.57-.39c-.2-.07-.52-.11-.95-.11h-.38v3.9h-1.89ZM154.95,88.94h1.4c.91,0,1.47-.04,1.7-.11.23-.08.4-.21.53-.4s.19-.42.19-.7c0-.31-.08-.57-.25-.76s-.4-.32-.71-.37c-.15-.02-.61-.03-1.38-.03h-1.47v2.37Z"/>
      <path class="st0" d="M164.59,94.33v-7.77h-2.77v-1.58h7.43v1.58h-2.77v7.77h-1.89Z"/>
      <path class="st0" d="M170.47,94.33v-9.35h1.89v3.68h3.7v-3.68h1.89v9.35h-1.89v-4.09h-3.7v4.09h-1.89Z"/>
      <path class="st0" d="M179.83,94.33v-9.35h1.89v9.35h-1.89Z"/>
      <path class="st0" d="M183.55,94.33v-9.35h1.89v4.15l3.81-4.15h2.54l-3.52,3.64,3.71,5.71h-2.44l-2.57-4.39-1.53,1.56v2.82h-1.89Z"/>
    </g>
    <g>
      <path class="st0" d="M130.88,105.46v-4.7h-1.68v-.96h4.5v.96h-1.68v4.7h-1.14Z"/>
      <path class="st0" d="M134.44,105.46v-5.66h1.14v2.23h2.24v-2.23h1.14v5.66h-1.14v-2.47h-2.24v2.47h-1.14Z"/>
      <path class="st0" d="M145.25,105.46h-1.24l-.49-1.29h-2.26l-.47,1.29h-1.21l2.2-5.66h1.21l2.27,5.66ZM143.14,103.22l-.78-2.1-.76,2.1h1.54Z"/>
      <path class="st0" d="M145.87,105.46v-5.66h1.11l2.32,3.78v-3.78h1.06v5.66h-1.15l-2.28-3.69v3.69h-1.06Z"/>
      <path class="st0" d="M154.19,103.38v-.95h2.46v2.25c-.24.23-.59.44-1.04.61-.45.18-.91.26-1.38.26-.59,0-1.11-.12-1.55-.37-.44-.25-.77-.6-.99-1.07-.22-.46-.33-.96-.33-1.51,0-.59.12-1.11.37-1.57.25-.46.61-.81,1.08-1.05.36-.19.81-.28,1.35-.28.7,0,1.25.15,1.65.44s.65.7.76,1.22l-1.13.21c-.08-.28-.23-.5-.45-.66s-.49-.24-.82-.24c-.5,0-.9.16-1.19.47-.29.32-.44.79-.44,1.41,0,.67.15,1.18.45,1.51s.69.5,1.17.5c.24,0,.48-.05.72-.14.24-.09.45-.21.62-.34v-.72h-1.31Z"/>
      <path class="st0" d="M162.81,105.46h-1.24l-.49-1.29h-2.26l-.47,1.29h-1.21l2.2-5.66h1.21l2.27,5.66ZM160.71,103.22l-.78-2.1-.76,2.1h1.54Z"/>
      <path class="st0" d="M163.4,105.46v-5.66h1.71l1.03,3.86,1.02-3.86h1.71v5.66h-1.06v-4.45l-1.12,4.45h-1.1l-1.12-4.45v4.45h-1.06Z"/>
      <path class="st0" d="M175.1,105.46h-1.24l-.49-1.29h-2.26l-.47,1.29h-1.21l2.2-5.66h1.21l2.27,5.66ZM173,103.22l-.78-2.1-.76,2.1h1.54Z"/>
      <path class="st0" d="M175.74,105.46v-5.61h1.14v4.66h2.84v.95h-3.98Z"/>
      <path class="st0" d="M180.5,105.46v-5.66h1.14v5.66h-1.14Z"/>
      <path class="st0" d="M185.36,103.38v-.95h2.46v2.25c-.24.23-.59.44-1.04.61-.45.18-.91.26-1.38.26-.59,0-1.11-.12-1.55-.37-.44-.25-.77-.6-.99-1.07-.22-.46-.33-.96-.33-1.51,0-.59.12-1.11.37-1.57.25-.46.61-.81,1.08-1.05.36-.19.81-.28,1.35-.28.7,0,1.25.15,1.65.44s.65.7.76,1.22l-1.13.21c-.08-.28-.23-.5-.45-.66s-.49-.24-.82-.24c-.5,0-.9.16-1.19.47s-.44.79-.44,1.41c0,.67.15,1.18.45,1.51.3.34.69.5,1.17.5.24,0,.48-.05.72-.14.24-.09.45-.21.62-.34v-.72h-1.31Z"/>
      <path class="st0" d="M193.98,105.46h-1.24l-.49-1.29h-2.26l-.47,1.29h-1.21l2.2-5.66h1.21l2.27,5.66ZM191.88,103.22l-.78-2.1-.76,2.1h1.54Z"/>
      <path class="st0" d="M194.55,105.46v-5.66h1.14v5.66h-1.14Z"/>
    </g>
  </g>
</svg>