<?xml version="1.0" encoding="UTF-8"?>
<svg id="Layer_1" xmlns="http://www.w3.org/2000/svg" version="1.1" viewBox="0 0 284.22 185.49">
  <!-- Generator: Adobe Illustrator 30.1.0, SVG Export Plug-In . SVG Version: 2.1.1 Build 136)  -->
  <defs>
    <style>
      .st0 {
        fill: #231f20;
      }
    </style>
  </defs>
  <g>
    <path class="st0" d="M96.76,128.67v-.57c.21.13.44.21.69.21.45,0,.72-.24.72-.72v-2.02h.55v2.05c0,.8-.51,1.21-1.25,1.21-.25,0-.46-.05-.71-.17Z"/>
    <path class="st0" d="M101.86,126.09v.73h1.74v.5h-1.74v.97h1.84v.51h-2.39v-3.22h2.39v.51h-1.84Z"/>
    <path class="st0" d="M110.79,125.58l-1.19,3.26h-.22l-1.02-2.6-1.02,2.6h-.21l-1.19-3.26h.59l.74,2.06.78-2.06h.64l.78,2.06.74-2.06h.59Z"/>
    <path class="st0" d="M113.66,126.09v.73h1.74v.5h-1.74v.97h1.84v.51h-2.39v-3.22h2.39v.51h-1.84Z"/>
    <path class="st0" d="M120.39,128.28v.51h-2.32v-3.22h.55v2.7h1.77Z"/>
    <path class="st0" d="M125.06,128.28v.51h-2.33v-3.22h.55v2.7h1.77Z"/>
    <path class="st0" d="M127.96,126.09v.73h1.74v.5h-1.74v.97h1.84v.51h-2.39v-3.22h2.39v.51h-1.84Z"/>
    <path class="st0" d="M133.57,127.48h-.66v1.31h-.55v-3.22h1.68c.65,0,1.07.34,1.07.92s-.37.94-.94.98c.11.12.23.28.3.37l.71.95h-.67l-.96-1.31ZM132.92,126.97h1.11c.33,0,.52-.15.52-.46,0-.29-.2-.42-.52-.42h-1.11v.88Z"/>
    <path class="st0" d="M137.43,128.51v-.65c.43.31.94.45,1.3.45.38,0,.66-.14.66-.38,0-.68-1.96-.26-1.96-1.43,0-.6.56-.97,1.33-.97.35,0,.75.08,1.07.24v.63c-.33-.21-.75-.34-1.13-.34s-.65.13-.65.37c0,.67,1.95.27,1.95,1.43,0,.59-.56.98-1.33.98-.38,0-.82-.09-1.24-.34Z"/>
    <path class="st0" d="M145.33,128.51v-.65c.43.31.94.45,1.3.45.38,0,.66-.14.66-.38,0-.68-1.96-.26-1.96-1.43,0-.6.56-.97,1.33-.97.35,0,.75.08,1.07.24v.63c-.33-.21-.75-.34-1.13-.34s-.65.13-.65.37c0,.67,1.95.27,1.95,1.43,0,.59-.56.98-1.33.98-.38,0-.82-.09-1.24-.34Z"/>
    <path class="st0" d="M150.32,125.58h.55v3.22h-.55v-3.22Z"/>
    <path class="st0" d="M156.35,125.58v3.26h-.22l-2.07-2.52v2.48h-.55v-3.22h.67l1.62,2.01v-2.01h.55Z"/>
    <path class="st0" d="M158.78,127.19c0-.99.78-1.65,1.8-1.65.38,0,.74.1,1.1.31v.62c-.31-.25-.7-.4-1.08-.4-.71,0-1.24.45-1.24,1.13s.52,1.13,1.24,1.13c.39,0,.77-.15,1.08-.4v.61c-.36.22-.73.31-1.1.31-1.02,0-1.8-.66-1.8-1.65Z"/>
    <path class="st0" d="M164.75,126.09v.73h1.74v.5h-1.74v.97h1.84v.51h-2.39v-3.22h2.39v.51h-1.84Z"/>
    <path class="st0" d="M173.24,128.79h-.53v-2.72h-.89v-.49h1.42v3.22Z"/>
    <path class="st0" d="M178.19,126.97c0,1.02-.6,1.87-1.7,1.87-.24,0-.5-.05-.73-.17v-.56c.23.15.51.24.77.24.58,0,1.01-.36,1.07-1.04-.16.24-.48.37-.8.37-.6,0-1.09-.4-1.09-1.04s.51-1.11,1.23-1.11c.44,0,.8.18,1.02.51.16.24.24.55.24.92ZM177.58,126.62c0-.35-.29-.6-.68-.6s-.67.25-.67.6.27.59.66.59.68-.24.68-.59Z"/>
    <path class="st0" d="M182.79,125.72l-.82,1.1c.52.14.8.51.8.96,0,.63-.53,1.06-1.27,1.06-.32,0-.72-.08-1.02-.25v-.59c.38.24.73.34,1.03.34.41,0,.69-.23.69-.55,0-.37-.43-.65-1.05-.67l.79-1.06h-1.46v-.49h2.31v.14Z"/>
    <path class="st0" d="M187.47,127.73c0,.65-.51,1.11-1.23,1.11-.44,0-.8-.18-1.02-.51-.16-.24-.24-.55-.24-.92,0-1.02.6-1.87,1.7-1.87.24,0,.5.05.73.17v.56c-.23-.15-.51-.24-.77-.24-.58,0-1.01.36-1.07,1.04.16-.24.48-.37.8-.37.6,0,1.09.4,1.09,1.04ZM186.93,127.75c0-.35-.27-.59-.66-.59s-.68.24-.68.59.29.6.68.6.67-.25.67-.6Z"/>
  </g>
  <g>
    <path class="st0" d="M134.91,66.69c.86-.33,1.63.04,1.92.5.51.83,0,2.07-1.12,2.77-.55.32-1.14.39-1.45.4h-.23s1.92,2.01,4.57,2.28c1.12.11,2.31-.05,3.17-.63,1.01-.68,1.5-1.78,1.42-3.19-.02-.35-.06-.7-.11-1.06.91.14,1.84.25,2.73-.02,1.09-.33,1.86-1.03,2.23-2.03.44-1.19.23-2.77-.51-3.91l-.03-.05-.05-.03c-1.14-.75-2.72-.95-3.91-.51-1,.37-1.7,1.14-2.03,2.23-.3.99-.13,2.04.03,3.05.22,1.4.43,2.72-.6,3.78-.87.9-2.09.78-3.26.36,1.69-2.06,1-4.61-1.19-5.49,0,0,0,0,0,0l5.9-5.9c.72-.72.72-1.88,0-2.6l-11.03,11.03,1.3,1.3,2.28-2.28ZM143.71,63.41c.74-.73,1.87-1.05,2.98-.85.2,1.11-.12,2.23-.85,2.98-.85.87-1.91.93-2.96.83-.11-1.1-.03-2.11.83-2.96Z"/>
    <path class="st0" d="M150.73,65.01l-1.3,1.3,2.28,2.28c.33.86-.04,1.63-.5,1.92-.83.51-2.07,0-2.77-1.12-.32-.55-.39-1.14-.4-1.45v-.23s-2.01,1.92-2.28,4.57c-.11,1.12.05,2.31.63,3.17.68,1.01,1.78,1.5,3.19,1.42.35-.02.7-.06,1.06-.11-.14.91-.25,1.84.02,2.73.33,1.09,1.03,1.86,2.03,2.23,1.19.44,2.77.23,3.91-.51l.05-.03.03-.05c.75-1.14.95-2.72.51-3.91-.37-1-1.14-1.7-2.23-2.03-.99-.3-2.04-.13-3.05.03-1.4.22-2.72.43-3.78-.6-.9-.87-.78-2.09-.36-3.26,2.06,1.69,4.61,1,5.49-1.19,0,0,0,0,0,0l5.9,5.9c.72.72,1.88.72,2.6,0l-11.03-11.03ZM152.04,76.56c1.1-.11,2.11-.03,2.96.83.73.74,1.05,1.87.85,2.98-1.11.2-2.23-.12-2.98-.85-.87-.85-.93-1.91-.83-2.96Z"/>
    <path class="st0" d="M149.81,85.39c-.86.33-1.63-.04-1.92-.5-.51-.83,0-2.07,1.12-2.77.55-.32,1.14-.39,1.45-.4h.23s-1.92-2.01-4.57-2.28c-1.12-.11-2.31.05-3.17.63-1.01.68-1.5,1.78-1.42,3.19.02.35.06.7.11,1.06-.91-.14-1.84-.25-2.73.02-1.09.33-1.86,1.03-2.23,2.03-.44,1.19-.23,2.77.51,3.91l.03.05.05.03c1.14.75,2.72.95,3.91.51,1-.37,1.7-1.14,2.03-2.23.3-.99.13-2.04-.03-3.05-.22-1.4-.43-2.72.6-3.78.87-.9,2.09-.78,3.26-.36-1.69,2.06-1,4.61,1.19,5.49,0,0,0,0,0,0l-5.9,5.9c-.72.72-.72,1.88,0,2.6l11.03-11.03-1.3-1.3-2.28,2.28ZM141.02,88.67c-.74.73-1.87,1.05-2.98.85-.2-1.11.12-2.23.85-2.98.85-.87,1.91-.93,2.96-.83.11,1.1.03,2.11-.83,2.96Z"/>
    <path class="st0" d="M136.68,84.39s2.02-1.92,2.28-4.57c.11-1.12-.05-2.31-.63-3.17-.68-1.01-1.78-1.5-3.19-1.42-.35.02-.7.06-1.06.11.14-.91.25-1.84-.02-2.73-.33-1.09-1.03-1.86-2.03-2.23-1.19-.44-2.77-.23-3.91.51l-.05.03-.03.05c-.75,1.14-.95,2.72-.51,3.91.37,1,1.14,1.7,2.23,2.03.99.3,2.04.13,3.05-.03,1.4-.22,2.72-.43,3.78.6.9.87.78,2.09.36,3.26-2.06-1.69-4.61-1-5.49,1.19,0,0,0,0,0,0l-5.9-5.9c-.72-.72-1.88-.72-2.6,0l11.03,11.03,1.3-1.3-2.28-2.28c-.33-.86.04-1.63.5-1.92.83-.51,2.07,0,2.77,1.12.32.55.39,1.14.4,1.45v.23ZM132.69,75.53c-1.1.11-2.11.03-2.96-.83-.73-.74-1.05-1.87-.85-2.98,1.11-.2,2.23.12,2.98.85.87.85.93,1.91.83,2.96Z"/>
  </g>
  <g>
    <polygon class="st0" points="131.87 111.97 119.37 111.97 119.37 106.02 116.91 106.02 116.91 120.13 119.37 120.13 119.37 114.14 131.87 114.14 131.87 120.13 134.3 120.13 134.3 106.02 131.87 106.02 131.87 111.97"/>
    <rect class="st0" x="139.93" y="106.02" width="2.43" height="14.11"/>
    <path class="st0" d="M99.12,113.07v-7.05h-2.36v14.11h2.36v-4c.56-.81,1.15-1.54,1.76-2.19,1.38,2.8,5.02,7.5,12.39,6.18v-2.22c-5.33.51-8.99-1.43-10.85-5.43,4.27-3.64,8.99-4.2,10.85-4.25v-2.2h-.02c-9.74,0-14.12,7.07-14.12,7.07Z"/>
    <path class="st0" d="M177.6,113.81c0,1.38.5,5.07-7.68,4.07v2.23c9.22,1.07,10.14-2.96,10.14-6.55v-7.54h-2.46v7.79Z"/>
    <path class="st0" d="M167.27,106c-4.48-.49-8.63,4.08-9.64,7.64-1.01-3.56-5.15-8.13-9.64-7.64h0v14.12h2.43v-11.34c3.31,1.12,5.34,4.96,5.99,8.65h2.43c.65-3.69,2.68-7.53,5.99-8.65v11.34h2.43v-14.12h0Z"/>
    <rect class="st0" x="185.04" y="106.02" width="2.43" height="14.11"/>
  </g>
</svg>