<?xml version="1.0" encoding="UTF-8"?>
<svg id="Layer_1" xmlns="http://www.w3.org/2000/svg" version="1.1" viewBox="0 0 284.22 185.49">
  <!-- Generator: Adobe Illustrator 30.1.0, SVG Export Plug-In . SVG Version: 2.1.1 Build 136)  -->
  <defs>
    <style>
      .st0, .st1 {
        fill-rule: evenodd;
      }

      .st0, .st2 {
        fill: #fff;
      }

      .st1 {
        fill: #231f20;
      }

      .st3 {
        stroke-width: .46px;
      }

      .st3, .st4 {
        stroke: #fff;
      }

      .st3, .st4, .st5, .st6 {
        fill: none;
        stroke-miterlimit: 2.61;
      }

      .st4, .st6 {
        stroke-width: .57px;
      }

      .st5 {
        stroke-width: .25px;
      }

      .st5, .st6 {
        stroke: #231f20;
      }
    </style>
  </defs>
  <path class="st1" d="M192.91,103.4h2.25v5.28h3.52v1.72h-5.77v-7ZM189,107.73l-.79-2.51-.8,2.51h1.59ZM189.48,109.25h-2.55l-.37,1.15h-2.3l2.74-7h2.46l2.73,7h-2.36l-.36-1.15ZM180.19,107.87v-1.46h3.48v2.98c-.67.44-1.25.73-1.76.89-.51.16-1.12.24-1.82.24-.86,0-1.57-.14-2.11-.43-.54-.28-.97-.7-1.27-1.26-.3-.56-.45-1.2-.45-1.93,0-.76.16-1.43.49-1.99.33-.56.81-.99,1.44-1.29.49-.23,1.16-.34,1.99-.34s1.4.07,1.8.21c.4.14.73.36.99.65.26.29.46.67.59,1.12l-2.17.37c-.09-.27-.24-.47-.45-.61-.21-.14-.49-.21-.82-.21-.49,0-.88.16-1.18.49-.29.33-.44.85-.44,1.56,0,.76.15,1.3.44,1.62.29.32.71.49,1.24.49.25,0,.49-.03.72-.1.23-.07.49-.19.78-.36v-.65h-1.51ZM168.07,103.4h2.1l2.73,3.86v-3.86h2.13v7h-2.13l-2.72-3.84v3.84h-2.12v-7ZM164.15,107.73l-.79-2.51-.8,2.51h1.59ZM164.62,109.25h-2.55l-.37,1.15h-2.3l2.74-7h2.46l2.73,7h-2.36l-.36-1.15ZM150.52,103.4h2.97l1.13,4.26,1.13-4.26h2.95v7h-1.84v-5.33l-1.42,5.33h-1.67l-1.42-5.33v5.33h-1.84v-7ZM140.81,107.47c-.28.19-.46.35-.55.48-.09.13-.14.28-.14.43,0,.23.1.44.31.62.21.18.48.27.81.27.36,0,.77-.14,1.22-.41-.43-.32-.98-.78-1.65-1.4ZM141.53,105.77c.26-.14.46-.29.6-.45.14-.16.21-.31.21-.46s-.06-.28-.18-.38c-.12-.1-.28-.15-.49-.15s-.37.06-.5.17c-.13.11-.19.25-.19.41,0,.2.18.48.55.86ZM143.86,107l1.58.34c-.08.28-.16.51-.24.68-.08.17-.19.37-.32.6l.76.5c.09.06.21.13.36.21l-1.09,1.2c-.2-.1-.4-.22-.62-.35-.21-.13-.41-.25-.57-.34-.35.22-.7.38-1.05.49-.48.14-1.04.21-1.66.21-.97,0-1.69-.19-2.16-.58-.47-.39-.71-.86-.71-1.41,0-.4.14-.78.42-1.13.28-.35.73-.65,1.36-.9-.26-.31-.45-.58-.54-.8-.1-.23-.15-.46-.15-.69,0-.5.2-.91.59-1.23.39-.32.99-.48,1.79-.48s1.42.15,1.8.46c.38.31.58.67.58,1.1,0,.24-.06.47-.18.69-.12.22-.26.4-.43.53-.17.14-.46.34-.89.61.35.34.72.66,1.11.95.1-.2.19-.41.26-.63ZM127.93,103.4h2.25v5.28h3.52v1.72h-5.77v-7ZM124.03,107.73l-.79-2.51-.8,2.51h1.59ZM124.5,109.25h-2.55l-.37,1.15h-2.3l2.74-7h2.46l2.73,7h-2.36l-.36-1.15ZM115.21,107.87v-1.46h3.48v2.98c-.67.44-1.25.73-1.76.89-.51.16-1.12.24-1.82.24-.86,0-1.57-.14-2.11-.43-.54-.28-.97-.7-1.27-1.26-.3-.56-.45-1.2-.45-1.93,0-.76.16-1.43.49-1.99.33-.56.81-.99,1.44-1.29.49-.23,1.16-.34,1.99-.34s1.41.07,1.8.21c.4.14.73.36.99.65.26.29.46.67.59,1.12l-2.17.37c-.09-.27-.24-.47-.45-.61-.21-.14-.48-.21-.82-.21-.49,0-.88.16-1.18.49-.29.33-.44.85-.44,1.56,0,.76.15,1.3.44,1.62.3.32.71.49,1.24.49.25,0,.49-.03.72-.1.23-.07.49-.19.78-.36v-.65h-1.51ZM103.1,103.4h2.1l2.73,3.86v-3.86h2.13v7h-2.13l-2.72-3.84v3.84h-2.12v-7ZM99.17,107.73l-.8-2.51-.8,2.51h1.59ZM99.65,109.25h-2.55l-.37,1.15h-2.3l2.74-7h2.46l2.73,7h-2.36l-.36-1.15ZM85.55,103.4h2.97l1.13,4.26,1.13-4.26h2.95v7h-1.84v-5.33l-1.42,5.33h-1.67l-1.42-5.33v5.33h-1.84v-7Z"/>
  <path class="st1" d="M176.02,119.34v-5.78h1.06v5.78h-1.06ZM172.41,114.95c-.21.6-.39,1.11-.55,1.51l-.2.52h1.51l-.2-.52c-.16-.41-.34-.91-.55-1.51h-.02ZM173.52,117.87h-2.19l-.56,1.47h-1.13l2.3-5.78h.97l2.3,5.78h-1.12l-.56-1.47ZM167.84,117.13h-1.3v-.89h2.36v2.92c-.09.03-.2.06-.33.1-.13.03-.28.07-.45.09-.17.03-.34.05-.51.07-.18.02-.35.03-.52.03-.52,0-.97-.07-1.36-.21-.39-.14-.71-.34-.97-.59-.26-.25-.45-.56-.58-.91-.13-.35-.19-.74-.19-1.16,0-.3.03-.59.1-.86.07-.27.17-.53.3-.76.13-.23.29-.44.48-.63.19-.19.4-.35.64-.48.24-.13.5-.23.79-.3.29-.07.59-.11.92-.11.29,0,.57.02.83.06.26.04.48.09.64.15v.89c-.22-.07-.45-.12-.68-.16-.23-.04-.46-.05-.69-.05-.31,0-.61.05-.88.14-.27.09-.51.23-.71.42-.2.18-.36.41-.47.68-.12.27-.17.58-.17.93,0,.68.18,1.2.53,1.54.35.34.86.51,1.5.51.12,0,.25,0,.37-.02.13-.01.24-.03.34-.05v-1.36ZM161.8,119.34v-5.78h1.06v5.78h-1.06ZM158.1,113.56v4.9h2.71v.89h-3.77v-5.78h1.06ZM153.43,114.95c-.21.6-.39,1.11-.55,1.51l-.2.52h1.51l-.2-.52c-.16-.41-.34-.91-.55-1.51h-.02ZM154.53,117.87h-2.19l-.56,1.47h-1.13l2.3-5.78h.97l2.3,5.78h-1.12l-.56-1.47ZM146.87,117.79c.13-.46.28-.94.47-1.47l1-2.77h1.49v5.78h-1.06v-2.93c0-.43.02-.93.05-1.5h-.04c-.05.17-.11.35-.17.55-.07.21-.14.41-.21.61l-1.2,3.27h-.68l-1.2-3.27c-.07-.2-.14-.4-.21-.61-.07-.2-.12-.39-.17-.55h-.04c.03.53.05,1.03.05,1.49v2.93h-1.06v-5.78h1.48l1,2.75c.17.46.32.95.47,1.48h.03ZM138.46,114.95c-.21.6-.39,1.11-.55,1.51l-.2.52h1.51l-.2-.52c-.16-.41-.34-.91-.55-1.51h-.02ZM139.57,117.87h-2.19l-.56,1.47h-1.13l2.3-5.78h.97l2.3,5.78h-1.12l-.56-1.47ZM133.89,117.13h-1.3v-.89h2.36v2.92c-.09.03-.2.06-.33.1-.13.03-.28.07-.45.09-.17.03-.34.05-.51.07-.18.02-.35.03-.52.03-.52,0-.97-.07-1.36-.21-.39-.14-.71-.34-.97-.59-.26-.25-.45-.56-.58-.91-.13-.35-.19-.74-.19-1.16,0-.3.03-.59.1-.86.07-.27.17-.53.3-.76.13-.23.29-.44.48-.63.19-.19.4-.35.64-.48.24-.13.5-.23.79-.3.29-.07.59-.11.92-.11.29,0,.57.02.83.06.26.04.48.09.64.15v.89c-.22-.07-.45-.12-.68-.16-.23-.04-.46-.05-.69-.05-.31,0-.61.05-.88.14-.27.09-.51.23-.71.42-.2.18-.36.41-.47.68-.12.27-.17.58-.17.93,0,.68.18,1.2.53,1.54.35.34.85.51,1.5.51.12,0,.25,0,.37-.02.13-.01.24-.03.34-.05v-1.36ZM126.86,116.25c.41.59.75,1.12,1.01,1.57h.03c-.03-.75-.05-1.3-.05-1.64v-2.62h1.06v5.78h-1.11l-1.89-2.66c-.33-.46-.67-.99-1.03-1.6h-.03c.03.71.05,1.26.05,1.65v2.62h-1.06v-5.78h1.11l1.91,2.69ZM120.24,114.95c-.21.6-.39,1.11-.55,1.51l-.2.52h1.51l-.2-.52c-.16-.41-.34-.91-.55-1.51h-.02ZM121.34,117.87h-2.19l-.56,1.47h-1.13l2.3-5.78h.97l2.3,5.78h-1.12l-.56-1.47ZM112.9,115.94h2.68v-2.38h1.06v5.78h-1.06v-2.52h-2.68v2.52h-1.06v-5.78h1.06v2.38ZM109.16,119.34h-1.06v-4.9h-1.87v-.89h4.8v.89h-1.86v4.9Z"/>
  <path class="st1" d="M142.09,73.81c9.32,0,16.88,5.98,16.88,13.36s-7.56,13.36-16.88,13.36-16.88-5.98-16.88-13.36,7.56-13.36,16.88-13.36"/>
  <polygon class="st0" points="128.95 85.92 132.48 85.92 133.83 91.93 135.18 85.92 138.7 85.92 138.7 95.79 136.51 95.79 136.51 88.27 134.81 95.79 132.83 95.79 131.14 88.27 131.14 95.79 128.95 95.79 128.95 85.92"/>
  <polygon class="st0" points="145.55 85.92 149.09 85.92 150.44 91.93 151.79 85.92 155.31 85.92 155.31 95.79 153.11 95.79 153.11 88.27 151.42 95.79 149.43 95.79 147.75 88.27 147.75 95.79 145.55 95.79 145.55 85.92"/>
  <rect class="st2" x="136.45" y="94.48" width="9.56" height="1.32"/>
  <path class="st0" d="M141.05,91.21c-.21.18-.35.34-.41.46-.07.13-.1.27-.1.41,0,.22.08.42.23.6.16.17.36.26.61.26.27,0,.57-.13.91-.39-.32-.31-.73-.76-1.23-1.35M141.59,89.57c.19-.13.34-.28.45-.43.11-.16.16-.3.16-.44s-.04-.27-.13-.37c-.09-.1-.21-.15-.37-.15s-.28.06-.37.17c-.1.11-.14.24-.14.39,0,.19.13.47.41.83ZM143.32,90.76l1.17.33c-.06.27-.12.49-.18.65-.06.16-.14.35-.24.58l.56.48c.07.06.16.12.27.2l-.81,1.16c-.15-.1-.3-.21-.46-.34-.16-.13-.3-.24-.43-.33-.26.21-.52.37-.78.47-.36.13-.77.2-1.23.2-.72,0-1.26-.19-1.61-.56-.35-.37-.53-.83-.53-1.36,0-.38.1-.75.31-1.09.21-.34.55-.63,1.02-.87-.2-.3-.33-.56-.41-.78-.07-.22-.11-.44-.11-.67,0-.48.15-.87.44-1.18.29-.31.74-.46,1.34-.46s1.06.15,1.34.44c.29.3.43.65.43,1.06,0,.23-.04.45-.13.66-.09.21-.19.38-.32.52-.12.13-.34.33-.66.59.26.33.54.64.83.92.08-.19.14-.39.2-.6Z"/>
  <polygon class="st1" points="141.76 86.69 145.99 83.25 150.22 79.82 141.76 79.82 133.3 79.82 137.53 83.25 141.76 86.69"/>
  <polygon class="st4" points="141.76 86.69 145.99 83.25 150.22 79.82 141.76 79.82 133.3 79.82 137.53 83.25 141.76 86.69"/>
  <polygon class="st1" points="133.26 79.82 150.26 79.82 148.1 77.25 135.61 77.25 133.26 79.82"/>
  <polygon class="st4" points="133.26 79.82 150.26 79.82 148.1 77.25 135.61 77.25 133.26 79.82"/>
  <polyline class="st6" points="133.27 79.8 135.06 79.72 141.8 86.4"/>
  <line class="st6" x1="141.75" y1="86.67" x2="146.9" y2="79.82"/>
  <line class="st6" x1="141.76" y1="86.62" x2="140.04" y2="79.79"/>
  <line class="st6" x1="141.76" y1="86.62" x2="143.48" y2="79.79"/>
  <polygon class="st0" points="136.33 77.22 138.15 78.52 136.33 79.82 134.51 78.52 136.33 77.22"/>
  <polygon class="st5" points="136.33 77.22 138.15 78.52 136.33 79.82 134.51 78.52 136.33 77.22"/>
  <polygon class="st0" points="139.98 77.22 141.8 78.52 139.98 79.82 138.16 78.52 139.98 77.22"/>
  <polygon class="st5" points="139.98 77.22 141.8 78.52 139.98 79.82 138.16 78.52 139.98 77.22"/>
  <polygon class="st0" points="143.63 77.22 145.44 78.52 143.63 79.82 141.81 78.52 143.63 77.22"/>
  <polygon class="st5" points="143.63 77.22 145.44 78.52 143.63 79.82 141.81 78.52 143.63 77.22"/>
  <polygon class="st0" points="147.27 77.22 149.09 78.52 147.27 79.82 145.45 78.52 147.27 77.22"/>
  <polygon class="st5" points="147.27 77.22 149.09 78.52 147.27 79.82 145.45 78.52 147.27 77.22"/>
  <polygon class="st0" points="141.72 86.53 133.3 79.82 135.5 79.88 141.94 86.29 141.72 86.53"/>
  <polygon class="st0" points="141.82 86.57 140.94 79.86 142.42 79.87 141.85 86.47 141.82 86.57"/>
  <polygon class="st0" points="141.78 86.58 150.22 79.82 148.08 79.81 141.55 86.34 141.78 86.58"/>
  <polygon class="st0" points="141.8 86.56 139.08 79.7 137.1 79.86 141.89 86.43 141.8 86.56"/>
  <path class="st0" d="M141.84,86.52l2.63-6.82,1.98.16-4.72,6.53c.01.15.07.04.11.13"/>
  <line class="st3" x1="133.26" y1="79.82" x2="150.22" y2="79.82"/>
  <line class="st3" x1="134.54" y1="78.53" x2="149.07" y2="78.53"/>
  <path class="st1" d="M164.98,82.4l.15.87-2.08,1.11,2.32.36.14.85-3.17-.59-.57-.11c-.19-.04-.34-.09-.45-.14-.11-.05-.2-.11-.27-.19-.07-.07-.14-.17-.19-.29-.05-.12-.09-.26-.12-.41-.03-.16-.04-.32-.03-.47l.63-.18c0,.13,0,.25.02.36.03.19.11.32.24.4.13.07.28.12.47.14l2.91-1.7ZM164.57,81.36l-.61.26-.22-.52-1.17.5c-.24.1-.37.17-.41.19-.03.03-.06.06-.07.11-.01.05,0,.09.02.15.03.07.1.16.21.28l-.57.32c-.15-.15-.28-.33-.37-.55-.06-.14-.09-.27-.09-.4,0-.13.02-.24.08-.32.05-.08.14-.16.25-.24.08-.05.26-.14.53-.26l1.27-.54-.15-.35.61-.26.15.35.57-.25.78.57-1.03.44.22.52ZM160.25,79.63l2.74-1.55.41.72-2.74,1.55-.41-.72ZM163.36,77.88l.67-.38.41.72-.67.38-.41-.72ZM159.28,78.2l-.52-.65,2.44-1.98.49.6-.35.28c.25-.03.43-.03.55.02.12.04.22.11.3.22.12.15.19.32.22.53l-.73.26c-.02-.17-.06-.3-.14-.39-.07-.09-.16-.15-.26-.17-.1-.02-.23,0-.39.07-.16.07-.45.27-.86.61l-.75.61ZM157.55,76.27l.32-.34c-.2.04-.4.04-.6-.01-.2-.05-.38-.15-.53-.29-.16-.14-.26-.31-.32-.49-.06-.18-.06-.36,0-.54.06-.18.19-.37.39-.59l1.36-1.46.61.57-.99,1.06c-.3.33-.48.53-.52.63-.05.09-.06.19-.04.29.02.1.07.19.17.28.1.1.22.15.36.18.14.02.26,0,.37-.06.11-.06.32-.25.63-.58l.91-.97.61.57-2.14,2.31-.56-.52ZM155,69.98l-.62,1.07.41.24c.3.17.51.27.63.29.12.02.24,0,.34-.05.11-.05.19-.13.26-.24.08-.14.1-.27.08-.41-.03-.14-.1-.25-.21-.34-.08-.07-.26-.18-.53-.34l-.37-.21ZM152.43,72.66l2.18-3.76,1.22.7c.46.27.75.46.87.58.18.18.29.41.33.68.04.27-.03.56-.21.86-.13.23-.29.4-.46.51-.18.11-.35.17-.53.19-.18.02-.35,0-.5-.05-.2-.07-.47-.2-.82-.4l-.49-.29-.82,1.42-.76-.44ZM149.53,68.26l.44.14.07-.23c.08-.25.16-.43.26-.54.09-.11.22-.18.39-.21.17-.03.37-.02.59.05.23.07.44.17.64.31l-.27.52c-.12-.07-.24-.12-.36-.16-.12-.04-.21-.04-.28,0-.07.04-.13.13-.17.29l-.07.21.6.19-.19.63-.6-.19-.74,2.38-.79-.25.74-2.38-.44-.14.19-.63ZM146.08,69.13c-.05.31-.02.56.1.74.12.19.28.3.5.34.21.04.41-.01.58-.15.17-.14.29-.36.34-.68.05-.3.02-.55-.1-.74-.12-.19-.28-.3-.5-.34-.21-.04-.41.01-.58.15-.17.14-.29.36-.34.67ZM145.24,68.94c.05-.27.16-.53.34-.76.18-.23.4-.39.67-.49.27-.09.56-.11.86-.06.47.08.83.3,1.07.65.25.36.33.77.25,1.23-.08.47-.3.83-.65,1.09-.36.26-.76.35-1.22.27-.28-.05-.54-.16-.78-.33-.24-.17-.4-.39-.49-.67-.09-.27-.11-.59-.05-.94ZM141.79,70.38l.07-4.34h.83s-.07,4.36-.07,4.36h-.83ZM138.44,69.06c.03.31.13.54.29.69.16.15.35.22.57.19.22-.02.39-.12.52-.3.13-.18.18-.43.15-.74-.03-.31-.13-.54-.29-.69-.16-.15-.35-.22-.57-.19-.22.02-.39.12-.52.3-.13.18-.18.43-.15.74ZM137.58,69.1c-.03-.28.01-.55.12-.82.11-.27.28-.49.52-.65.24-.16.51-.26.81-.29.47-.05.88.07,1.21.35.33.28.52.65.57,1.12.05.47-.07.88-.34,1.23-.28.34-.64.54-1.11.58-.29.03-.57,0-.84-.11-.27-.1-.49-.27-.65-.51-.16-.24-.26-.54-.29-.9ZM134.5,69.88c.09.32.2.54.34.66.2.18.41.23.64.17.18-.05.31-.17.39-.35.08-.19.08-.44,0-.77-.1-.35-.23-.58-.39-.7-.17-.12-.35-.15-.55-.1-.19.05-.33.17-.42.36s-.09.43,0,.74ZM134.14,71.67l-1.14-4.19.8-.22.41,1.51c.17-.35.42-.57.76-.66.37-.1.71-.05,1.03.15.32.2.54.55.68,1.06.14.52.13.95-.04,1.3-.17.35-.43.57-.78.67-.17.05-.36.05-.55,0-.19-.04-.37-.13-.54-.27l.12.45-.74.2ZM127.67,71.26l.68-.35.19.38c.09-.42.31-.71.65-.89.18-.09.35-.13.52-.13.17,0,.33.06.49.17.05-.21.12-.39.23-.54.1-.15.24-.26.4-.34.21-.1.4-.15.59-.14.18.01.35.08.51.21.11.09.23.27.37.54l.91,1.79-.74.38-.81-1.6c-.14-.28-.26-.45-.35-.5-.12-.07-.26-.07-.4,0-.1.05-.19.13-.25.24-.06.11-.08.24-.06.38.02.14.1.35.23.61l.68,1.35-.74.38-.78-1.54c-.14-.27-.24-.44-.31-.51-.07-.07-.14-.11-.21-.12-.07-.01-.16,0-.26.06-.11.06-.2.14-.26.25-.06.11-.08.23-.06.37.02.14.1.34.23.61l.69,1.36-.74.38-1.42-2.81ZM124.14,74.15l.69-.56,1.99,1.27-.83-2.2.67-.54,1.04,3.06.19.55c.06.19.09.34.1.46,0,.12,0,.23-.03.33-.03.1-.08.2-.16.31-.08.1-.18.21-.3.31-.12.1-.26.19-.4.26l-.46-.46c.12-.06.22-.13.3-.19.15-.12.23-.26.23-.4,0-.15-.03-.31-.11-.47l-2.91-1.71ZM122.57,79.04l.43-.74c.26.13.49.17.69.12.2-.05.38-.18.54-.39.16-.23.24-.43.23-.62-.01-.19-.08-.33-.21-.42-.08-.06-.17-.09-.27-.08-.09,0-.21.05-.34.14-.09.06-.28.21-.56.45-.37.31-.68.49-.93.54-.35.07-.66,0-.94-.19-.18-.13-.31-.3-.39-.52-.08-.21-.1-.45-.04-.7.06-.25.18-.51.38-.78.32-.44.66-.7,1.01-.78.36-.08.7,0,1.04.22l-.49.73c-.2-.1-.38-.13-.53-.09-.15.04-.3.16-.44.36-.15.2-.22.4-.22.57,0,.11.05.21.14.27.08.06.18.08.29.05.14-.03.38-.19.71-.48.33-.29.6-.48.81-.58.21-.1.42-.14.64-.13.22.02.44.11.66.27.2.15.35.34.44.58.09.24.11.49.05.76-.06.27-.21.55-.43.86-.32.44-.67.71-1.05.8-.38.09-.78.01-1.2-.22ZM120.8,82.43l-1.71.11,1.37,1.03.35-1.14ZM122.92,81.4l-.28.91-1.06.07-.51,1.67.84.63-.27.89-3.66-2.88.27-.89,4.66-.39Z"/>
</svg>