<?xml version="1.0" encoding="UTF-8"?>
<svg id="Layer_1" xmlns="http://www.w3.org/2000/svg" version="1.1" viewBox="0 0 284.22 185.49">
  <!-- Generator: Adobe Illustrator 30.1.0, SVG Export Plug-In . SVG Version: 2.1.1 Build 136)  -->
  <defs>
    <style>
      .st0, .st1 {
        fill-rule: evenodd;
      }

      .st0, .st2 {
        fill: #fff;
      }

      .st1 {
        fill: #231f20;
      }

      .st3 {
        stroke-width: .59px;
      }

      .st3, .st4 {
        stroke: #fff;
      }

      .st3, .st4, .st5, .st6 {
        fill: none;
        stroke-miterlimit: 2.61;
      }

      .st4, .st6 {
        stroke-width: .73px;
      }

      .st5 {
        stroke-width: .32px;
      }

      .st5, .st6 {
        stroke: #231f20;
      }
    </style>
  </defs>
  <path class="st1" d="M207.54,106.47h2.9v6.8h4.53v2.22h-7.43v-9.02ZM202.51,112.05l-1.02-3.23-1.03,3.23h2.05ZM203.12,114h-3.28l-.48,1.48h-2.96l3.53-9.02h3.17l3.52,9.02h-3.04l-.46-1.48h.01ZM191.16,112.23v-1.88h4.48v3.84c-.86.57-1.61.94-2.27,1.15-.66.21-1.44.31-2.34.31-1.11,0-2.02-.18-2.72-.55-.7-.36-1.25-.9-1.64-1.62-.39-.72-.58-1.55-.58-2.49s.21-1.84.63-2.56,1.04-1.28,1.85-1.66c.63-.3,1.49-.44,2.56-.44s1.8.09,2.32.27c.52.18.94.46,1.28.84.33.37.59.86.76,1.44l-2.8.48c-.12-.35-.31-.61-.58-.79-.27-.18-.63-.27-1.06-.27-.63,0-1.13.21-1.52.63-.37.43-.57,1.09-.57,2.01,0,.98.19,1.67.57,2.09.37.41.91.63,1.6.63.32,0,.63-.04.93-.13s.63-.24,1-.46v-.84h-1.94.03ZM175.55,106.47h2.7l3.52,4.97v-4.97h2.74v9.02h-2.74l-3.5-4.95v4.95h-2.73v-9.02h.01ZM170.5,112.05l-1.02-3.23-1.03,3.23h2.05ZM171.1,114h-3.28l-.48,1.48h-2.96l3.53-9.02h3.17l3.52,9.02h-3.04l-.46-1.48h.01ZM152.94,106.47h3.83l1.46,5.49,1.46-5.49h3.8v9.02h-2.37v-6.87l-1.83,6.87h-2.15l-1.83-6.87v6.87h-2.37v-9.02h.01ZM140.44,111.71c-.36.24-.59.45-.71.62-.12.17-.18.36-.18.55,0,.3.13.57.4.8.27.23.62.35,1.04.35.46,0,.99-.18,1.57-.53-.55-.41-1.26-1-2.13-1.8h0ZM141.36,109.52c.33-.18.59-.37.77-.58.18-.21.27-.4.27-.59s-.08-.36-.23-.49-.36-.19-.63-.19-.48.08-.64.22-.24.32-.24.53c0,.26.23.62.71,1.11h0ZM144.36,111.11l2.04.44c-.1.36-.21.66-.31.88s-.24.48-.41.77l.98.64c.12.08.27.17.46.27l-1.4,1.55c-.26-.13-.52-.28-.8-.45-.27-.17-.53-.32-.73-.44-.45.28-.9.49-1.35.63-.62.18-1.34.27-2.14.27-1.25,0-2.18-.24-2.78-.75s-.91-1.11-.91-1.82c0-.52.18-1,.54-1.46s.94-.84,1.75-1.16c-.33-.4-.58-.75-.7-1.03-.13-.3-.19-.59-.19-.89,0-.64.26-1.17.76-1.58s1.28-.62,2.31-.62,1.83.19,2.32.59.75.86.75,1.42c0,.31-.08.61-.23.89s-.33.52-.55.68c-.22.18-.59.44-1.15.79.45.44.93.85,1.43,1.22.13-.26.24-.53.33-.81v-.04ZM123.85,106.47h2.9v6.8h4.53v2.22h-7.43v-9.02ZM118.82,112.05l-1.02-3.23-1.03,3.23h2.05ZM119.43,114h-3.28l-.48,1.48h-2.96l3.53-9.02h3.17l3.52,9.02h-3.04l-.46-1.48h.01ZM107.46,112.23v-1.88h4.48v3.84c-.86.57-1.61.94-2.27,1.15-.66.21-1.44.31-2.34.31-1.11,0-2.02-.18-2.72-.55-.7-.36-1.25-.9-1.64-1.62-.39-.72-.58-1.55-.58-2.49s.21-1.84.63-2.56c.43-.72,1.04-1.28,1.85-1.66.63-.3,1.49-.44,2.56-.44s1.82.09,2.32.27c.52.18.94.46,1.28.84.33.37.59.86.76,1.44l-2.8.48c-.12-.35-.31-.61-.58-.79s-.62-.27-1.06-.27c-.63,0-1.13.21-1.52.63-.37.43-.57,1.09-.57,2.01,0,.98.19,1.67.57,2.09.39.41.91.63,1.6.63.32,0,.63-.04.93-.13s.63-.24,1-.46v-.84h-1.94.03ZM91.86,106.47h2.7l3.52,4.97v-4.97h2.74v9.02h-2.74l-3.5-4.95v4.95h-2.73v-9.02h.01ZM86.8,112.05l-1.03-3.23-1.03,3.23h2.06ZM87.42,114h-3.28l-.48,1.48h-2.96l3.53-9.02h3.17l3.52,9.02h-3.04l-.46-1.48h.01ZM69.26,106.47h3.83l1.46,5.49,1.46-5.49h3.8v9.02h-2.37v-6.87l-1.83,6.87h-2.15l-1.83-6.87v6.87h-2.37v-9.02h.01Z"/>
  <path class="st1" d="M185.79,127v-7.44h1.37v7.44h-1.37ZM181.14,121.35c-.27.77-.5,1.43-.71,1.94l-.26.67h1.94l-.26-.67c-.21-.53-.44-1.17-.71-1.94h-.03.01ZM182.57,125.11h-2.82l-.72,1.89h-1.46l2.96-7.44h1.25l2.96,7.44h-1.44l-.72-1.89h-.01ZM175.25,124.15h-1.67v-1.15h3.04v3.76c-.12.04-.26.08-.43.13-.17.04-.36.09-.58.12-.22.04-.44.06-.66.09-.23.03-.45.04-.67.04-.67,0-1.25-.09-1.75-.27s-.91-.44-1.25-.76-.58-.72-.75-1.17c-.17-.45-.24-.95-.24-1.49,0-.39.04-.76.13-1.11.09-.35.22-.68.39-.98s.37-.57.62-.81c.24-.24.52-.45.82-.62.31-.17.64-.3,1.02-.39s.76-.14,1.18-.14c.37,0,.73.03,1.07.08s.62.12.82.19v1.15c-.28-.09-.58-.15-.88-.21s-.59-.06-.89-.06c-.4,0-.79.06-1.13.18s-.66.3-.91.54c-.26.23-.46.53-.61.88-.15.35-.22.75-.22,1.2,0,.88.23,1.55.68,1.98.45.44,1.11.66,1.93.66.15,0,.32,0,.48-.03.17-.01.31-.04.44-.06v-1.75h.01ZM167.47,127v-7.44h1.37v7.44h-1.37ZM162.71,119.56v6.31h3.49v1.15h-4.86v-7.44h1.37ZM156.69,121.35c-.27.77-.5,1.43-.71,1.94l-.26.67h1.94l-.26-.67c-.21-.53-.44-1.17-.71-1.94h-.03.01ZM158.11,125.11h-2.82l-.72,1.89h-1.46l2.96-7.44h1.25l2.96,7.44h-1.44l-.72-1.89h-.01ZM148.24,125c.17-.59.36-1.21.61-1.89l1.29-3.57h1.92v7.44h-1.37v-3.77c0-.55.03-1.2.06-1.93h-.05c-.06.22-.14.45-.22.71-.09.27-.18.53-.27.79l-1.55,4.21h-.88l-1.55-4.21c-.09-.26-.18-.52-.27-.79-.09-.26-.15-.5-.22-.71h-.05c.04.68.06,1.33.06,1.92v3.77h-1.37v-7.44h1.91l1.29,3.54c.22.59.41,1.22.61,1.91h.04v.03ZM137.41,121.35c-.27.77-.5,1.43-.71,1.94l-.26.67h1.94l-.26-.67c-.21-.53-.44-1.17-.71-1.94h-.03.01ZM138.84,125.11h-2.82l-.72,1.89h-1.46l2.96-7.44h1.25l2.96,7.44h-1.44l-.72-1.89h-.01ZM131.52,124.15h-1.67v-1.15h3.04v3.76c-.12.04-.26.08-.43.13-.17.04-.36.09-.58.12-.22.04-.44.06-.66.09-.23.03-.45.04-.67.04-.67,0-1.25-.09-1.75-.27s-.91-.44-1.25-.76-.58-.72-.75-1.17c-.17-.45-.24-.95-.24-1.49,0-.39.04-.76.13-1.11.09-.35.22-.68.39-.98s.37-.57.62-.81c.24-.24.52-.45.82-.62.31-.17.64-.3,1.02-.39s.76-.14,1.18-.14c.37,0,.73.03,1.07.08s.62.12.82.19v1.15c-.28-.09-.58-.15-.88-.21s-.59-.06-.89-.06c-.4,0-.79.06-1.13.18s-.66.3-.91.54c-.26.23-.46.53-.61.88-.15.35-.22.75-.22,1.2,0,.88.23,1.55.68,1.98.45.44,1.09.66,1.93.66.15,0,.32,0,.48-.03.17-.01.31-.04.44-.06v-1.75h.01ZM122.47,123.02c.53.76.97,1.44,1.3,2.02h.04c-.04-.97-.06-1.67-.06-2.11v-3.37h1.37v7.44h-1.43l-2.43-3.43c-.43-.59-.86-1.28-1.33-2.06h-.04c.04.91.06,1.62.06,2.13v3.37h-1.37v-7.44h1.43l2.46,3.46h0ZM113.94,121.35c-.27.77-.5,1.43-.71,1.94l-.26.67h1.94l-.26-.67c-.21-.53-.44-1.17-.71-1.94h-.03.01ZM115.36,125.11h-2.82l-.72,1.89h-1.46l2.96-7.44h1.25l2.96,7.44h-1.44l-.72-1.89h-.01ZM104.49,122.62h3.45v-3.07h1.37v7.44h-1.37v-3.25h-3.45v3.25h-1.37v-7.44h1.37v3.07ZM99.67,127h-1.37v-6.31h-2.41v-1.15h6.18v1.15h-2.4v6.31h-.01Z"/>
  <path class="st1" d="M142.08,68.36c12,0,21.74,7.7,21.74,17.21s-9.74,17.21-21.74,17.21-21.74-7.7-21.74-17.21,9.74-17.21,21.74-17.21"/>
  <polygon class="st0" points="125.16 83.95 129.71 83.95 131.45 91.7 133.18 83.95 137.72 83.95 137.72 96.67 134.9 96.67 134.9 86.98 132.71 96.67 130.16 96.67 127.98 86.98 127.98 96.67 125.16 96.67 125.16 83.95"/>
  <polygon class="st0" points="146.54 83.95 151.1 83.95 152.84 91.7 154.58 83.95 159.11 83.95 159.11 96.67 156.28 96.67 156.28 86.98 154.1 96.67 151.54 96.67 149.37 86.98 149.37 96.67 146.54 96.67 146.54 83.95"/>
  <rect class="st2" x="134.82" y="94.98" width="12.31" height="1.7"/>
  <path class="st0" d="M140.74,90.77c-.27.23-.45.44-.53.59-.09.17-.13.35-.13.53,0,.28.1.54.3.77.21.22.46.33.79.33.35,0,.73-.17,1.17-.5-.41-.4-.94-.98-1.58-1.74M141.44,88.66c.24-.17.44-.36.58-.55.14-.21.21-.39.21-.57s-.05-.35-.17-.48c-.12-.13-.27-.19-.48-.19s-.36.08-.48.22c-.13.14-.18.31-.18.5,0,.24.17.61.53,1.07h-.01ZM143.67,90.19l1.51.43c-.08.35-.15.63-.23.84s-.18.45-.31.75l.72.62c.09.08.21.15.35.26l-1.04,1.49c-.19-.13-.39-.27-.59-.44s-.39-.31-.55-.43c-.33.27-.67.48-1,.61-.46.17-.99.26-1.58.26-.93,0-1.62-.24-2.07-.72-.45-.48-.68-1.07-.68-1.75,0-.49.13-.97.4-1.4.27-.44.71-.81,1.31-1.12-.26-.39-.43-.72-.53-1-.09-.28-.14-.57-.14-.86,0-.62.19-1.12.57-1.52.37-.4.95-.59,1.73-.59s1.37.19,1.73.57c.37.39.55.84.55,1.37,0,.3-.05.58-.17.85-.12.27-.24.49-.41.67-.15.17-.44.43-.85.76.33.43.7.82,1.07,1.18.1-.24.18-.5.26-.77v-.03Z"/>
  <polygon class="st1" points="141.66 84.95 147.11 80.52 152.56 76.1 141.66 76.1 130.76 76.1 136.21 80.52 141.66 84.95"/>
  <polygon class="st4" points="141.66 84.95 147.11 80.52 152.56 76.1 141.66 76.1 130.76 76.1 136.21 80.52 141.66 84.95"/>
  <polygon class="st1" points="130.71 76.1 152.61 76.1 149.83 72.79 133.74 72.79 130.71 76.1"/>
  <polygon class="st4" points="130.71 76.1 152.61 76.1 149.83 72.79 133.74 72.79 130.71 76.1"/>
  <polyline class="st6" points="130.72 76.07 133.03 75.97 141.71 84.57"/>
  <line class="st6" x1="141.65" y1="84.92" x2="148.28" y2="76.1"/>
  <line class="st6" x1="141.66" y1="84.86" x2="139.44" y2="76.06"/>
  <line class="st6" x1="141.66" y1="84.86" x2="143.87" y2="76.06"/>
  <polygon class="st0" points="134.67 72.75 137.01 74.42 134.67 76.1 132.32 74.42 134.67 72.75"/>
  <polygon class="st5" points="134.67 72.75 137.01 74.42 134.67 76.1 132.32 74.42 134.67 72.75"/>
  <polygon class="st0" points="139.37 72.75 141.71 74.42 139.37 76.1 137.02 74.42 139.37 72.75"/>
  <polygon class="st5" points="139.37 72.75 141.71 74.42 139.37 76.1 137.02 74.42 139.37 72.75"/>
  <polygon class="st0" points="144.07 72.75 146.4 74.42 144.07 76.1 141.72 74.42 144.07 72.75"/>
  <polygon class="st5" points="144.07 72.75 146.4 74.42 144.07 76.1 141.72 74.42 144.07 72.75"/>
  <polygon class="st0" points="148.76 72.75 151.1 74.42 148.76 76.1 146.41 74.42 148.76 72.75"/>
  <polygon class="st5" points="148.76 72.75 151.1 74.42 148.76 76.1 146.41 74.42 148.76 72.75"/>
  <polygon class="st0" points="141.61 84.74 130.76 76.1 133.6 76.17 141.89 84.43 141.61 84.74"/>
  <polygon class="st0" points="141.74 84.79 140.6 76.15 142.51 76.16 141.78 84.66 141.74 84.79"/>
  <polygon class="st0" points="141.68 84.8 152.56 76.1 149.8 76.08 141.39 84.5 141.68 84.8"/>
  <polygon class="st0" points="141.71 84.78 138.21 75.94 135.66 76.15 141.83 84.61 141.71 84.78"/>
  <path class="st0" d="M141.76,84.73l3.39-8.78,2.55.21-6.08,8.41c.01.19.09.05.14.17"/>
  <line class="st3" x1="130.71" y1="76.1" x2="152.56" y2="76.1"/>
  <line class="st3" x1="132.36" y1="74.44" x2="151.07" y2="74.44"/>
  <path class="st1" d="M171.57,79.42l.19,1.12-2.68,1.43,2.99.46.18,1.09-4.08-.76-.73-.14c-.24-.05-.44-.12-.58-.18s-.26-.14-.35-.24c-.09-.09-.18-.22-.24-.37s-.12-.33-.15-.53c-.04-.21-.05-.41-.04-.61l.81-.23c0,.17,0,.32.03.46.04.24.14.41.31.52.17.09.36.15.61.18l3.75-2.19h0ZM171.04,78.08l-.79.33-.28-.67-1.51.64c-.31.13-.48.22-.53.24-.04.04-.08.08-.09.14-.01.06,0,.12.03.19.04.09.13.21.27.36l-.73.41c-.19-.19-.36-.43-.48-.71-.08-.18-.12-.35-.12-.52s.03-.31.1-.41c.06-.1.18-.21.32-.31.1-.06.33-.18.68-.33l1.64-.7-.19-.45.79-.33.19.45.73-.32,1,.73-1.33.57.28.67h0ZM165.48,75.85l3.53-2,.53.93-3.53,2-.53-.93ZM169.48,73.6l.86-.49.53.93-.86.49-.53-.93ZM164.23,74.01l-.67-.84,3.14-2.55.63.77-.45.36c.32-.04.55-.04.71.03.15.05.28.14.39.28.15.19.24.41.28.68l-.94.33c-.03-.22-.08-.39-.18-.5-.09-.12-.21-.19-.33-.22-.13-.03-.3,0-.5.09s-.58.35-1.11.79l-.97.79h0ZM162,71.52l.41-.44c-.26.05-.52.05-.77-.01-.26-.06-.49-.19-.68-.37-.21-.18-.33-.4-.41-.63-.08-.23-.08-.46,0-.7s.24-.48.5-.76l1.75-1.88.79.73-1.28,1.37c-.39.43-.62.68-.67.81-.06.12-.08.24-.05.37s.09.24.22.36c.13.13.28.19.46.23.18.03.33,0,.48-.08s.41-.32.81-.75l1.17-1.25.79.73-2.76,2.98-.72-.67-.04-.05ZM158.71,63.42l-.8,1.38.53.31c.39.22.66.35.81.37.15.03.31,0,.44-.06.14-.06.24-.17.33-.31.1-.18.13-.35.1-.53-.04-.18-.13-.32-.27-.44-.1-.09-.33-.23-.68-.44l-.48-.27h.01ZM155.4,66.87l2.81-4.84,1.57.9c.59.35.97.59,1.12.75.23.23.37.53.43.88.05.35-.04.72-.27,1.11-.17.3-.37.52-.59.66-.23.14-.45.22-.68.24-.23.03-.45,0-.64-.06-.26-.09-.61-.26-1.06-.52l-.63-.37-1.06,1.83-.98-.57h-.01ZM151.67,61.21l.57.18.09-.3c.1-.32.21-.55.33-.7.12-.14.28-.23.5-.27s.48-.03.76.06c.3.09.57.22.82.4l-.35.67c-.15-.09-.31-.15-.46-.21s-.27-.05-.36,0c-.09.05-.17.17-.22.37l-.09.27.77.24-.24.81-.77-.24-.95,3.07-1.02-.32.95-3.07-.57-.18.24-.81h-.01ZM147.22,62.33c-.06.4-.03.72.13.95.15.24.36.39.64.44.27.05.53-.01.75-.19s.37-.46.44-.88c.06-.39.03-.71-.13-.95-.15-.24-.36-.39-.64-.44-.27-.05-.53.01-.75.19s-.37.46-.44.86h0ZM146.14,62.08c.06-.35.21-.68.44-.98s.52-.5.86-.63c.35-.12.72-.14,1.11-.08.61.1,1.07.39,1.38.84.32.46.43.99.32,1.58-.1.61-.39,1.07-.84,1.4-.46.33-.98.45-1.57.35-.36-.06-.7-.21-1-.43s-.52-.5-.63-.86c-.12-.35-.14-.76-.06-1.21h0ZM141.7,63.94l.09-5.59h1.07l-.09,5.62h-1.07v-.03ZM137.38,62.24c.04.4.17.7.37.89.21.19.45.28.73.24.28-.03.5-.15.67-.39s.23-.55.19-.95-.17-.7-.37-.89c-.21-.19-.45-.28-.73-.24-.28.03-.5.15-.67.39s-.23.55-.19.95ZM136.28,62.29c-.04-.36.01-.71.15-1.06s.36-.63.67-.84.66-.33,1.04-.37c.61-.06,1.13.09,1.56.45s.67.84.73,1.44-.09,1.13-.44,1.58c-.36.44-.82.7-1.43.75-.37.04-.73,0-1.08-.14-.35-.13-.63-.35-.84-.66-.21-.31-.33-.7-.37-1.16h0ZM132.31,63.29c.12.41.26.7.44.85.26.23.53.3.82.22.23-.06.4-.22.5-.45.1-.24.1-.57,0-.99-.13-.45-.3-.75-.5-.9-.22-.15-.45-.19-.71-.13-.24.06-.43.22-.54.46s-.12.55,0,.95h-.01ZM131.84,65.6l-1.47-5.4,1.03-.28.53,1.94c.22-.45.54-.73.98-.85.48-.13.91-.06,1.33.19.41.26.7.71.88,1.37.18.67.17,1.22-.05,1.67-.22.45-.55.73-1,.86-.22.06-.46.06-.71,0-.24-.05-.48-.17-.7-.35l.15.58-.95.26h-.01ZM123.51,65.07l.88-.45.24.49c.12-.54.4-.91.84-1.15.23-.12.45-.17.67-.17s.43.08.63.22c.06-.27.15-.5.3-.7.13-.19.31-.33.52-.44.27-.13.52-.19.76-.18.23.01.45.1.66.27.14.12.3.35.48.7l1.17,2.31-.95.49-1.04-2.06c-.18-.36-.33-.58-.45-.64-.15-.09-.33-.09-.52,0-.13.06-.24.17-.32.31s-.1.31-.08.49.13.45.3.79l.88,1.74-.95.49-1-1.98c-.18-.35-.31-.57-.4-.66-.09-.09-.18-.14-.27-.15s-.21,0-.33.08c-.14.08-.26.18-.33.32s-.1.3-.08.48.13.44.3.79l.89,1.75-.95.49-1.83-3.62h.03ZM118.96,68.79l.89-.72,2.56,1.64-1.07-2.83.86-.7,1.34,3.94.24.71c.08.24.12.44.13.59,0,.15,0,.3-.04.43s-.1.26-.21.4c-.1.13-.23.27-.39.4s-.33.24-.52.33l-.59-.59c.15-.08.28-.17.39-.24.19-.15.3-.33.3-.52,0-.19-.04-.4-.14-.61l-3.75-2.2v-.03ZM116.94,75.09l.55-.95c.33.17.63.22.89.15.26-.06.49-.23.7-.5.21-.3.31-.55.3-.8-.01-.24-.1-.43-.27-.54-.1-.08-.22-.12-.35-.1-.12,0-.27.06-.44.18-.12.08-.36.27-.72.58-.48.4-.88.63-1.2.7-.45.09-.85,0-1.21-.24-.23-.17-.4-.39-.5-.67-.1-.27-.13-.58-.05-.9s.23-.66.49-1c.41-.57.85-.9,1.3-1,.46-.1.9,0,1.34.28l-.63.94c-.26-.13-.49-.17-.68-.12s-.39.21-.57.46c-.19.26-.28.52-.28.73,0,.14.06.27.18.35.1.08.23.1.37.06.18-.04.49-.24.91-.62s.77-.62,1.04-.75.54-.18.82-.17c.28.03.57.14.85.35.26.19.45.44.57.75.12.31.14.63.06.98-.08.35-.27.71-.55,1.11-.41.57-.86.91-1.35,1.03-.49.12-1,.01-1.55-.28h-.03ZM114.66,79.46l-2.2.14,1.76,1.33.45-1.47h-.01ZM117.39,78.13l-.36,1.17-1.37.09-.66,2.15,1.08.81-.35,1.15-4.71-3.71.35-1.15,6-.5h.01Z"/>
</svg>