<?xml version="1.0" encoding="UTF-8"?>
<svg id="Layer_1" xmlns="http://www.w3.org/2000/svg" version="1.1" viewBox="0 0 284.22 185.49">
  <!-- Generator: Adobe Illustrator 30.1.0, SVG Export Plug-In . SVG Version: 2.1.1 Build 136)  -->
  <defs>
    <style>
      .st0 {
        fill: #231f20;
      }

      .st1 {
        stroke-width: .18px;
      }

      .st1, .st2, .st3, .st4, .st5, .st6 {
        fill: none;
        stroke: #231f20;
        stroke-miterlimit: 10;
      }

      .st2 {
        stroke-width: .32px;
      }

      .st3 {
        stroke-width: .32px;
      }

      .st4 {
        stroke-width: .45px;
      }

      .st5 {
        stroke-width: .67px;
      }

      .st6 {
        stroke-width: .46px;
      }
    </style>
  </defs>
  <g>
    <g>
      <path class="st0" d="M137.06,87.21s-.49,4.59,4.04,6.96c0,0,.5-4.59-4.04-6.96ZM137.38,88.19c-.06-.11-.03-.24.08-.3.11-.06.24-.03.3.08.06.11.03.24-.08.3s-.24.03-.3-.08ZM137.62,88.9c-.1-.18-.04-.4.13-.5.18-.1.4-.04.5.13.1.18.04.4-.13.5-.18.1-.4.04-.5-.13ZM138,89.85c-.14-.25-.06-.56.19-.71.25-.14.56-.06.71.19.14.25.06.56-.19.71-.25.14-.56.06-.71-.19ZM140.79,93.19c.06.11.03.24-.08.3s-.24.03-.3-.08c-.06-.11-.03-.24.08-.3s.24-.03.3.08ZM140.55,92.48c.1.18.04.4-.13.5-.18.1-.4.04-.5-.13-.1-.18-.04-.4.13-.5.18-.1.4-.04.5.13ZM140.17,91.53c.14.25.06.56-.19.71-.25.14-.56.06-.71-.19-.14-.25-.06-.56.19-.71.25-.14.56-.06.71.19ZM139.66,90.36c.18.32.08.72-.24.91-.32.18-.72.08-.91-.24-.18-.32-.08-.72.24-.91.32-.18.72-.08.91.24Z"/>
      <path class="st0" d="M132.26,60.01c-.2,5.11,4.03,6.97,4.03,6.97.2-5.12-4.03-6.97-4.03-6.97ZM132.57,61c-.06-.11-.02-.24.08-.3.11-.06.24-.02.3.08.06.11.02.24-.08.3-.11.06-.24.03-.3-.08ZM132.81,61.71c-.1-.18-.04-.4.14-.5.18-.1.4-.04.5.13.1.18.04.4-.14.5-.18.1-.4.04-.5-.13ZM133.19,62.66c-.14-.25-.06-.56.19-.71.25-.14.56-.06.71.19.14.25.06.56-.19.71-.25.14-.56.06-.71-.19ZM135.97,66.01c.06.11.02.24-.08.3-.11.06-.24.02-.3-.08s-.02-.24.08-.3c.11-.06.24-.02.3.08ZM135.73,65.29c.1.18.04.4-.14.5-.18.1-.4.04-.5-.14-.1-.18-.04-.4.13-.5.18-.1.4-.04.5.14ZM135.36,64.35c.14.25.06.56-.19.71-.25.14-.56.06-.71-.19-.14-.25-.06-.56.19-.71.25-.14.56-.06.71.19ZM134.85,63.17c.18.32.07.72-.24.91-.32.18-.72.07-.91-.24-.18-.32-.07-.72.24-.91.32-.18.72-.07.91.24Z"/>
      <path class="st0" d="M127.84,86.52s3.71,2.74,8.05,0c0,0-3.72-2.73-8.05,0ZM128.85,86.74c-.12,0-.22-.1-.22-.22,0-.12.1-.22.22-.22.12,0,.22.1.22.22,0,.12-.1.22-.22.22ZM129.58,86.89c-.2,0-.37-.17-.37-.37,0-.2.17-.37.37-.37.2,0,.37.17.37.37,0,.2-.17.37-.37.37ZM130.59,87.04c-.29,0-.52-.23-.52-.52,0-.29.23-.52.52-.52.29,0,.52.23.52.52,0,.29-.23.52-.52.52ZM131.87,87.19c-.37,0-.66-.3-.66-.67,0-.37.3-.66.67-.66.37,0,.66.3.66.67,0,.37-.3.66-.67.66ZM133.14,87.04c-.29,0-.52-.23-.52-.52,0-.29.23-.52.52-.52.29,0,.52.23.52.52,0,.29-.23.52-.52.52ZM134.15,86.9c-.2,0-.37-.17-.37-.37,0-.2.17-.37.37-.37.2,0,.37.17.37.37,0,.2-.17.37-.37.37ZM134.89,86.75c-.12,0-.22-.1-.22-.22,0-.12.1-.22.22-.22.12,0,.22.1.22.22,0,.12-.1.22-.22.22Z"/>
      <path class="st0" d="M147.94,87.21s-.5,4.59,4.02,6.98c0,0,.51-4.59-4.02-6.98ZM148.25,88.19c-.06-.11-.02-.24.08-.3.11-.06.24-.02.3.08.06.11.02.24-.08.3-.11.06-.24.02-.3-.08ZM148.49,88.9c-.1-.18-.04-.4.14-.5.18-.1.4-.04.5.14.1.18.04.4-.14.5-.18.1-.4.04-.5-.14ZM148.87,89.85c-.14-.25-.06-.56.19-.71.25-.14.56-.06.71.19.14.25.06.56-.19.71-.25.14-.56.06-.71-.19ZM151.65,93.2c.06.11.02.24-.08.3-.11.06-.24.02-.3-.08-.06-.11-.02-.24.08-.3.11-.06.24-.02.3.08ZM151.41,92.49c.1.18.04.4-.14.5-.18.1-.4.04-.5-.14-.1-.18-.04-.4.14-.5s.4-.04.5.14ZM151.04,91.54c.14.25.06.56-.19.71-.25.14-.56.06-.71-.19-.14-.25-.06-.56.19-.71.25-.14.56-.06.71.19ZM150.53,90.37c.18.32.07.72-.24.91-.32.18-.72.07-.91-.24-.18-.32-.07-.72.24-.91.32-.18.72-.07.91.24Z"/>
      <path class="st0" d="M143.12,94.17s4.23-1.84,4.04-6.96c0,0-4.23,1.85-4.04,6.96ZM143.81,93.41c-.06.11-.2.14-.3.08-.11-.06-.14-.2-.08-.3.06-.11.2-.14.3-.08.11.06.14.2.08.3ZM144.31,92.85c-.1.18-.33.24-.5.13-.18-.1-.24-.33-.13-.5.1-.18.33-.24.5-.13.18.1.24.33.13.5ZM144.94,92.05c-.14.25-.46.33-.71.19-.25-.14-.33-.46-.19-.71.14-.25.46-.33.71-.19.25.14.33.46.19.71ZM145.71,91.02c-.18.32-.59.43-.91.24-.32-.18-.43-.59-.24-.91.18-.32.59-.43.91-.24.32.18.43.59.24.91ZM146.22,89.85c-.14.25-.46.33-.71.19-.25-.14-.33-.46-.19-.71.14-.25.46-.33.71-.19.25.14.33.46.19.71ZM146.6,88.9c-.1.18-.33.24-.5.13-.18-.1-.24-.33-.13-.5.1-.18.33-.24.5-.13.18.1.24.33.13.5ZM146.85,88.19c-.06.11-.2.14-.3.08-.11-.06-.14-.2-.08-.3.06-.11.2-.14.3-.08s.14.2.08.3Z"/>
      <path class="st0" d="M130.84,77.78c-4.53,2.4-4.01,6.98-4.01,6.98,4.52-2.39,4.01-6.98,4.01-6.98ZM130.14,78.54c.06-.11.2-.14.3-.08.11.06.14.2.08.3-.06.11-.2.14-.3.08-.11-.06-.14-.2-.08-.3ZM129.65,79.1c.1-.18.33-.24.5-.14.18.1.24.33.14.5-.1.18-.33.24-.5.14-.18-.1-.24-.33-.14-.5ZM129.02,79.9c.14-.25.46-.33.71-.19.25.14.33.46.19.71-.14.25-.46.33-.71.19-.25-.14-.33-.46-.19-.71ZM128.25,80.93c.18-.32.59-.43.91-.24.32.18.43.59.24.91-.18.32-.59.43-.91.24-.32-.18-.43-.59-.24-.91ZM127.51,83.99c-.06.11-.2.14-.3.08-.11-.06-.14-.2-.08-.3.06-.11.2-.14.3-.08.11.06.14.2.08.3ZM128.01,83.43c-.1.18-.33.24-.5.14-.18-.1-.24-.33-.14-.5.1-.18.33-.24.5-.14.18.1.24.33.14.5ZM128.64,82.63c-.14.25-.46.33-.71.19-.25-.14-.33-.46-.19-.71.14-.25.46-.33.71-.19.25.14.33.46.19.71Z"/>
      <path class="st0" d="M143.12,60.03c-.19,5.11,4.04,6.96,4.04,6.96.19-5.12-4.04-6.96-4.04-6.96ZM143.43,61.01c-.06-.11-.03-.24.08-.3.11-.06.24-.03.3.08.06.11.03.24-.08.3-.11.06-.24.03-.3-.08ZM143.67,61.72c-.1-.18-.04-.4.13-.5.18-.1.4-.04.5.13.1.18.04.4-.13.5-.18.1-.4.04-.5-.13ZM144.05,62.67c-.14-.25-.06-.56.19-.71.25-.14.56-.06.71.19.14.25.06.56-.19.71-.25.14-.56.06-.71-.19ZM146.85,66.01c.06.11.03.24-.08.3-.11.06-.24.03-.3-.08-.06-.11-.03-.24.08-.3.11-.06.24-.03.3.08ZM146.6,65.3c.1.18.04.4-.13.5-.18.1-.4.04-.5-.13-.1-.18-.04-.4.13-.5.18-.1.4-.04.5.13ZM146.22,64.35c.14.25.06.56-.19.71-.25.14-.56.06-.71-.19-.14-.25-.06-.56.19-.71.25-.14.56-.06.71.19ZM145.71,63.18c.18.32.08.72-.24.91-.32.18-.72.08-.91-.24-.18-.32-.08-.72.24-.91.32-.18.72-.08.91.24Z"/>
      <path class="st0" d="M151.96,60.01c-4.53,2.39-4.02,6.98-4.02,6.98,4.54-2.39,4.02-6.98,4.02-6.98ZM151.27,60.77c.06-.11.2-.14.3-.08.11.06.14.2.08.3s-.2.14-.3.08c-.11-.06-.14-.2-.08-.3ZM150.77,61.34c.1-.18.33-.24.5-.14.18.1.24.33.14.5-.1.18-.33.24-.5.14-.18-.1-.24-.33-.14-.5ZM150.14,62.14c.14-.25.46-.33.71-.19.25.14.33.46.19.71-.14.25-.46.33-.71.19-.25-.14-.33-.46-.19-.71ZM149.38,63.17c.18-.32.59-.43.91-.24.32.18.43.59.24.91-.18.32-.59.43-.91.24-.32-.18-.43-.59-.24-.91ZM148.87,64.35c.14-.25.46-.33.71-.19.25.14.33.46.19.71-.14.25-.46.33-.71.19-.25-.14-.33-.46-.19-.71ZM148.49,65.29c.1-.18.33-.24.5-.14.18.1.24.33.14.5-.1.18-.33.24-.5.14-.18-.1-.24-.33-.14-.5ZM148.25,66.01c.06-.11.2-.14.3-.08.11.06.14.2.08.3-.06.11-.2.14-.3.08-.11-.06-.14-.2-.08-.3Z"/>
      <path class="st0" d="M156.39,67.67c-4.33-2.73-8.05,0-8.05,0,4.33,2.74,8.05,0,8.05,0ZM155.38,67.45c.12,0,.22.1.22.22,0,.12-.1.22-.22.22-.12,0-.22-.1-.22-.22,0-.12.1-.22.22-.22ZM154.64,67.3c.2,0,.37.17.37.37,0,.2-.17.37-.37.37-.2,0-.37-.17-.37-.37,0-.2.17-.37.37-.37ZM153.63,67.15c.29,0,.52.23.52.52,0,.29-.23.52-.52.52-.29,0-.52-.23-.52-.52,0-.29.23-.52.52-.52ZM152.36,67.01c.37,0,.66.3.66.67,0,.37-.3.66-.67.66-.37,0-.66-.3-.66-.67,0-.37.3-.66.67-.66ZM151.08,67.15c.29,0,.52.23.52.52,0,.29-.23.52-.52.52-.29,0-.52-.23-.52-.52,0-.29.23-.52.52-.52ZM150.08,67.3c.2,0,.37.17.37.37,0,.2-.17.37-.37.37-.2,0-.37-.17-.37-.37,0-.2.17-.37.37-.37ZM149.34,67.45c.12,0,.22.1.22.22,0,.12-.1.22-.22.22-.12,0-.22-.1-.22-.22,0-.12.1-.22.22-.22Z"/>
      <path class="st0" d="M153.39,76.42s4.22-1.87,4.01-6.98c0,0-4.22,1.86-4.01,6.98ZM154.09,75.66c-.06.11-.2.14-.3.08-.11-.06-.14-.2-.08-.3.06-.11.2-.14.3-.08.11.06.14.2.08.3ZM154.58,75.09c-.1.18-.33.24-.5.14-.18-.1-.24-.33-.14-.5.1-.18.33-.24.5-.14.18.1.24.33.14.5ZM155.21,74.29c-.14.25-.46.33-.71.19-.25-.14-.33-.46-.19-.71.14-.25.46-.33.71-.19.25.14.33.46.19.71ZM155.97,73.26c-.18.32-.59.43-.91.24-.32-.18-.43-.59-.24-.91.18-.32.59-.43.91-.24.32.18.43.59.24.91ZM156.71,70.2c.06-.11.2-.14.3-.08.11.06.14.2.08.3s-.2.14-.3.08c-.11-.06-.14-.2-.08-.3ZM156.22,70.77c.1-.18.33-.24.5-.14.18.1.24.33.14.5-.1.18-.33.24-.5.14-.18-.1-.24-.33-.14-.5ZM155.59,71.57c.14-.25.46-.33.71-.19.25.14.33.46.19.71-.14.25-.46.33-.71.19-.25-.14-.33-.46-.19-.71Z"/>
      <path class="st0" d="M148.33,86.53s3.73,2.73,8.05,0c0,0-3.72-2.73-8.05,0ZM149.34,86.75c-.12,0-.22-.1-.22-.22,0-.12.1-.22.22-.22.12,0,.22.1.22.22,0,.12-.1.22-.22.22ZM150.08,86.9c-.2,0-.37-.16-.37-.37,0-.2.16-.37.37-.37.2,0,.37.16.37.37,0,.2-.16.37-.37.37ZM151.08,87.05c-.29,0-.52-.23-.52-.52,0-.29.23-.52.52-.52.29,0,.52.23.52.52,0,.29-.23.52-.52.52ZM155.38,86.3c.12,0,.22.1.22.22,0,.12-.1.22-.22.22-.12,0-.22-.1-.22-.22,0-.12.1-.22.22-.22ZM154.64,86.16c.2,0,.37.16.37.37,0,.2-.16.37-.37.37-.2,0-.37-.16-.37-.37,0-.2.16-.37.37-.37ZM153.63,86.01c.29,0,.52.23.52.52,0,.29-.23.52-.52.52-.29,0-.52-.23-.52-.52,0-.29.23-.52.52-.52ZM153.02,86.53c0,.37-.3.66-.66.67-.37,0-.66-.3-.67-.66,0-.37.3-.66.66-.67.37,0,.66.3.67.66Z"/>
      <path class="st0" d="M122.39,77.1c4.33,2.73,8.05,0,8.05,0-4.34-2.74-8.05,0-8.05,0ZM123.4,77.32c-.12,0-.22-.1-.22-.22s.1-.22.22-.22.22.1.22.22-.1.22-.22.22ZM124.13,77.47c-.2,0-.37-.17-.37-.37s.17-.37.37-.37.37.17.37.37-.17.37-.37.37ZM125.14,77.62c-.29,0-.52-.23-.52-.52s.23-.52.52-.52.52.23.52.52-.23.52-.52.52ZM126.42,77.76c-.37,0-.66-.3-.66-.66s.3-.66.66-.66.66.3.66.66-.3.66-.66.66ZM127.69,77.62c-.29,0-.52-.23-.52-.52s.23-.52.52-.52.52.23.52.52-.23.52-.52.52ZM128.7,77.47c-.2,0-.37-.17-.37-.37s.17-.37.37-.37.37.17.37.37-.17.37-.37.37ZM129.44,77.32c-.12,0-.22-.1-.22-.22s.1-.22.22-.22.22.1.22.22-.1.22-.22.22Z"/>
      <path class="st0" d="M141.1,60.02c-4.53,2.38-4.04,6.97-4.04,6.97,4.54-2.38,4.04-6.97,4.04-6.97ZM140.41,60.78c.06-.11.2-.14.3-.08.11.06.14.2.08.3-.06.11-.2.14-.3.08-.11-.06-.14-.2-.08-.3ZM139.91,61.35c.1-.18.33-.24.5-.13.18.1.24.33.13.5-.1.18-.33.24-.5.13-.18-.1-.24-.33-.13-.5ZM139.28,62.14c.14-.25.46-.33.71-.19.25.14.33.46.19.71-.14.25-.46.33-.71.19-.25-.14-.33-.46-.19-.71ZM138.51,63.17c.18-.32.59-.43.91-.24.32.18.43.59.24.91-.18.32-.59.43-.91.24-.32-.18-.43-.59-.24-.91ZM138,64.35c.14-.25.46-.33.71-.19.25.14.33.46.19.71-.14.25-.46.33-.71.19-.25-.14-.33-.46-.19-.71ZM137.62,65.29c.1-.18.33-.24.5-.13.18.1.24.33.13.5-.1.18-.33.24-.5.13-.18-.1-.24-.33-.13-.5ZM137.38,66.01c.06-.11.2-.14.3-.08.11.06.14.2.08.3-.06.11-.2.14-.3.08-.11-.06-.14-.2-.08-.3Z"/>
      <path class="st0" d="M130.83,76.42c.21-5.12-4.01-6.98-4.01-6.98-.21,5.11,4.01,6.98,4.01,6.98ZM130.52,75.44c.06.11.02.24-.08.3-.11.06-.24.02-.3-.08-.06-.11-.02-.24.08-.3.11-.06.24-.02.3.08ZM130.28,74.73c.1.18.04.4-.14.5-.18.1-.4.04-.5-.14-.1-.18-.04-.4.14-.5.18-.1.4-.04.5.14ZM129.91,73.78c.14.25.06.56-.19.71-.25.14-.56.06-.71-.19-.14-.25-.06-.56.19-.71.25-.14.56-.06.71.19ZM127.13,70.42c-.06-.11-.02-.24.08-.3.11-.06.24-.02.3.08.06.11.02.24-.08.3-.11.06-.24.02-.3-.08ZM127.37,71.14c-.1-.18-.04-.4.14-.5.18-.1.4-.04.5.14.1.18.04.4-.14.5-.18.1-.4.04-.5-.14ZM127.74,72.08c-.14-.25-.06-.56.19-.71.25-.14.56-.06.71.19.14.25.06.56-.19.71-.25.14-.56.06-.71-.19ZM128.25,73.26c-.18-.32-.07-.72.24-.91.32-.18.72-.07.91.24.18.32.07.72-.24.91-.32.18-.72.07-.91-.24Z"/>
      <path class="st0" d="M135.9,67.67c-4.34-2.73-8.05.01-8.05.01,4.33,2.72,8.05-.01,8.05-.01ZM134.89,67.45c.12,0,.22.1.22.22,0,.12-.1.22-.22.22-.12,0-.22-.1-.22-.22,0-.12.1-.22.22-.22ZM134.15,67.3c.2,0,.37.16.37.37,0,.2-.16.37-.37.37-.2,0-.37-.16-.37-.37,0-.2.16-.37.37-.37ZM133.14,67.15c.29,0,.52.23.52.52,0,.29-.23.52-.52.52-.29,0-.52-.23-.52-.52,0-.29.23-.52.52-.52ZM128.85,67.9c-.12,0-.22-.1-.22-.22,0-.12.1-.22.22-.22.12,0,.22.1.22.22,0,.12-.1.22-.22.22ZM129.59,68.05c-.2,0-.37-.16-.37-.37,0-.2.16-.37.37-.37.2,0,.37.16.37.37,0,.2-.16.37-.37.37ZM130.6,68.19c-.29,0-.52-.23-.52-.52,0-.29.23-.52.52-.52.29,0,.52.23.52.52,0,.29-.23.52-.52.52ZM131.21,67.67c0-.37.3-.67.66-.67.37,0,.66.3.67.66,0,.37-.3.66-.66.67-.37,0-.66-.3-.67-.66Z"/>
      <path class="st0" d="M132.26,94.18s4.23-1.85,4.02-6.98c0,0-4.22,1.86-4.02,6.98ZM132.95,93.42c-.06.11-.2.14-.3.08-.11-.06-.14-.2-.08-.3.06-.11.2-.14.3-.08.11.06.14.2.08.3ZM133.45,92.86c-.1.18-.33.24-.5.14-.18-.1-.24-.33-.14-.5.1-.18.33-.24.5-.14.18.1.24.33.14.5ZM134.08,92.06c-.14.25-.46.33-.71.19-.25-.14-.33-.46-.19-.71.14-.25.46-.33.71-.19.25.14.33.46.19.71ZM134.85,91.03c-.18.32-.59.43-.91.24-.32-.18-.43-.59-.24-.91.18-.32.59-.43.91-.24.32.18.43.59.24.91ZM135.36,89.85c-.14.25-.46.33-.71.19-.25-.14-.33-.46-.19-.71.14-.25.46-.33.71-.19.25.14.33.46.19.71ZM135.73,88.9c-.1.18-.33.24-.5.14s-.24-.33-.14-.5c.1-.18.33-.24.5-.14.18.1.24.33.14.5ZM135.97,88.19c-.06.11-.2.14-.3.08-.11-.06-.14-.2-.08-.3.06-.11.2-.14.3-.08.11.06.14.2.08.3Z"/>
      <path class="st0" d="M153.39,77.78s-.51,4.59,4.01,6.98c0,0,.52-4.59-4.01-6.98ZM153.7,78.76c-.06-.11-.02-.24.08-.3.11-.06.24-.02.3.08s.02.24-.08.3c-.11.06-.24.02-.3-.08ZM153.94,79.47c-.1-.18-.04-.4.14-.5.18-.1.4-.04.5.14.1.18.04.4-.14.5-.18.1-.4.04-.5-.14ZM154.31,80.42c-.14-.25-.06-.56.19-.71.25-.14.56-.06.71.19.14.25.06.56-.19.71-.25.14-.56.06-.71-.19ZM157.09,83.77c.06.11.02.24-.08.3-.11.06-.24.02-.3-.08-.06-.11-.02-.24.08-.3.11-.06.24-.02.3.08ZM156.85,83.06c.1.18.04.4-.14.5-.18.1-.4.04-.5-.14-.1-.18-.04-.4.14-.5.18-.1.4-.04.5.14ZM156.48,82.11c.14.25.06.56-.19.71-.25.14-.56.06-.71-.19-.14-.25-.06-.56.19-.71.25-.14.56-.06.71.19ZM155.97,80.93c.18.32.07.72-.24.91-.32.18-.72.07-.91-.24-.18-.32-.07-.72.24-.91.32-.18.72-.07.91.24Z"/>
      <path class="st0" d="M153.78,77.1s3.72,2.73,8.05,0c0,0-3.72-2.74-8.05,0ZM154.79,77.32c-.12,0-.22-.1-.22-.22s.1-.22.22-.22.22.1.22.22-.1.22-.22.22ZM155.53,77.47c-.2,0-.37-.17-.37-.37s.17-.37.37-.37.37.17.37.37-.17.37-.37.37ZM156.53,77.62c-.29,0-.52-.23-.52-.52s.23-.52.52-.52.52.23.52.52-.23.52-.52.52ZM157.81,77.76c-.37,0-.66-.3-.66-.66s.3-.66.66-.66.66.3.66.66-.3.66-.66.66ZM159.08,77.62c-.29,0-.52-.23-.52-.52s.23-.52.52-.52.52.23.52.52-.23.52-.52.52ZM160.09,77.47c-.2,0-.37-.17-.37-.37s.17-.37.37-.37.37.17.37.37-.17.37-.37.37ZM160.83,77.32c-.12,0-.22-.1-.22-.22s.1-.22.22-.22.22.1.22.22-.1.22-.22.22Z"/>
    </g>
    <g>
      <circle class="st5" cx="142.08" cy="77.06" r="9.69"/>
      <rect class="st4" x="135.69" y="70.64" width="12.88" height="12.88"/>
      <rect class="st2" x="137.37" y="72.32" width="9.51" height="9.51" transform="translate(16.53 178.89) rotate(-67.5)"/>
      <rect class="st3" x="137.37" y="72.32" width="9.51" height="9.51" transform="translate(-18.68 60.26) rotate(-22.5)"/>
      <rect class="st6" x="135.69" y="70.64" width="12.88" height="12.88" transform="translate(-12.87 123.08) rotate(-45)"/>
      <line class="st1" x1="138.45" y1="68.33" x2="145.75" y2="85.86"/>
      <line class="st1" x1="133.34" y1="73.46" x2="150.9" y2="80.69"/>
      <line class="st1" x1="133.35" y1="80.69" x2="150.88" y2="73.39"/>
      <line class="st1" x1="138.48" y1="85.8" x2="145.7" y2="68.24"/>
    </g>
  </g>
  <g>
    <g>
      <path class="st0" d="M100.3,112.61h-3.77v-.58c.41,0,.71-.03.91-.1.2-.07.33-.22.41-.47.07-.24.11-.63.11-1.15v-5.75c0-.39-.04-.68-.11-.89-.07-.2-.21-.34-.41-.42-.2-.08-.49-.11-.88-.11v-.58h3.85l3.01,7.3h.09l3-7.3h3.59v.58c-.35,0-.62.04-.81.11-.19.08-.33.22-.4.42-.07.2-.11.49-.11.87v6.19c0,.35.04.61.11.79.08.18.21.31.4.38.19.07.46.11.81.11v.58h-4.62v-.58c.4,0,.69-.04.89-.11.19-.07.32-.2.38-.38.06-.18.09-.45.09-.79v-6.27h-.09l-3.39,8.13h-.9l-3.45-8.13h-.08v5.84c0,.52.03.9.1,1.15.07.24.2.4.39.47.19.07.48.1.87.1v.58Z"/>
      <path class="st0" d="M114.19,112.61h-3.39v-.58c.28,0,.5-.04.66-.13.17-.09.33-.25.47-.49.15-.24.32-.59.51-1.05l3.29-7.87h1.24l3.42,8.11c.21.49.43.85.65,1.08.22.23.51.34.88.34v.58h-4.6v-.58c.13,0,.27-.01.42-.03s.27-.07.37-.14c.1-.07.15-.19.15-.35,0-.11-.03-.27-.08-.47-.05-.2-.12-.41-.21-.62l-.5-1.27-.12-.37-1.54-4.16h-.06l-1.68,4.16-.11.37-.61,1.48c-.04.13-.08.27-.13.42s-.07.29-.07.42c0,.23.08.38.24.45.16.07.43.1.8.1v.58ZM117.74,109.34h-4.05l.26-.73h3.53l.26.73Z"/>
      <path class="st0" d="M127.01,112.61h-4.43v-.58c.43,0,.75-.03.96-.1.21-.07.34-.2.4-.41.06-.21.09-.52.09-.92v-6.14c0-.38-.05-.65-.14-.83s-.24-.3-.45-.35c-.21-.06-.5-.08-.86-.08v-.61h4.32c.77,0,1.52.07,2.23.22.71.15,1.35.4,1.9.76.56.36.99.86,1.31,1.49s.48,1.44.48,2.41-.15,1.77-.44,2.42-.7,1.19-1.23,1.59c-.53.4-1.15.69-1.86.87-.71.18-1.47.27-2.3.27ZM126.75,111.85c.83,0,1.53-.12,2.12-.35.59-.23,1.04-.65,1.36-1.26.32-.61.47-1.48.47-2.62,0-1.38-.33-2.43-.99-3.16-.66-.73-1.69-1.1-3.09-1.1h-.3c-.1,0-.22,0-.36.02v8.45c.13,0,.26.02.4.02.13,0,.26,0,.38,0Z"/>
      <path class="st0" d="M138.92,112.61h-4.83v-.58c.45,0,.77-.04.98-.11.2-.07.33-.22.39-.44.06-.22.08-.55.08-1v-5.76c0-.4-.03-.71-.08-.94-.05-.23-.18-.39-.37-.49-.2-.1-.53-.14-1-.14v-.58h4.86v.58c-.46,0-.79.05-1,.14-.21.1-.34.26-.38.48-.05.22-.07.54-.07.95v2.4h4.65v-2.4c0-.41-.03-.72-.08-.95-.06-.22-.19-.38-.39-.48-.2-.1-.53-.14-.98-.14v-.58h4.87v.58c-.47,0-.81.05-1.02.14-.21.1-.34.26-.39.48-.05.22-.08.54-.08.95v5.76c0,.44.03.77.09.99.06.22.2.37.41.44.21.07.54.11.99.11v.58h-4.87v-.58c.45,0,.77-.04.98-.11.2-.07.33-.22.39-.44.06-.22.08-.56.08-.99v-2.61h-4.65v2.61c0,.45.03.78.08,1,.05.22.18.36.38.44.2.07.52.11.96.11v.58Z"/>
      <path class="st0" d="M149.49,112.61h-3.39v-.58c.28,0,.5-.04.66-.13.17-.09.33-.25.47-.49.15-.24.32-.59.51-1.05l3.29-7.87h1.24l3.42,8.11c.21.49.43.85.65,1.08.22.23.51.34.88.34v.58h-4.6v-.58c.13,0,.27-.01.42-.03s.27-.07.37-.14c.1-.07.15-.19.15-.35,0-.11-.03-.27-.08-.47-.05-.2-.12-.41-.21-.62l-.5-1.27-.12-.37-1.54-4.16h-.06l-1.68,4.16-.11.37-.61,1.48c-.04.13-.08.27-.13.42s-.07.29-.07.42c0,.23.08.38.24.45.16.07.43.1.8.1v.58ZM153.04,109.34h-4.05l.26-.73h3.53l.26.73Z"/>
      <path class="st0" d="M161.73,112.69h-.99l-3.61-8.16c-.14-.34-.28-.6-.42-.8s-.3-.34-.47-.44c-.18-.09-.42-.14-.71-.14v-.58h4.72v.58c-.17,0-.34.01-.5.04-.16.03-.29.08-.39.16-.1.08-.15.21-.15.4,0,.24.07.54.21.87l1.77,4.13.58,1.53h.11l.57-1.53,1.74-4.39c.03-.07.06-.17.09-.29s.05-.25.05-.38c0-.2-.08-.34-.24-.42-.16-.08-.41-.11-.74-.11v-.58h3.38v.58c-.22,0-.41.03-.57.08-.15.05-.29.15-.42.3-.13.15-.26.37-.41.66-.14.3-.32.69-.53,1.19l-3.07,7.3Z"/>
      <path class="st0" d="M168.32,112.61h-3.39v-.58c.28,0,.5-.04.66-.13.17-.09.33-.25.47-.49.15-.24.32-.59.51-1.05l3.29-7.87h1.24l3.42,8.11c.21.49.43.85.65,1.08.22.23.51.34.88.34v.58h-4.6v-.58c.13,0,.27-.01.42-.03s.27-.07.37-.14c.1-.07.15-.19.15-.35,0-.11-.03-.27-.08-.47-.05-.2-.12-.41-.21-.62l-.5-1.27-.12-.37-1.54-4.16h-.06l-1.68,4.16-.11.37-.61,1.48c-.04.13-.08.27-.13.42s-.07.29-.07.42c0,.23.08.38.24.45.16.07.43.1.8.1v.58ZM171.87,109.34h-4.05l.26-.73h3.53l.26.73Z"/>
      <path class="st0" d="M186.32,112.72h-1.3l-6.02-7.99h-.5l-.4-.69c-.18-.25-.35-.44-.5-.57-.15-.12-.3-.21-.46-.25-.16-.05-.35-.07-.57-.07v-.58h3.27l5.47,7.26h.08v-4.71c0-.43-.03-.79-.08-1.08-.05-.29-.18-.51-.37-.66-.2-.15-.53-.23-1-.23v-.58h3.76v.58c-.42,0-.73.08-.92.23-.2.15-.32.38-.37.68-.05.3-.08.66-.08,1.09v7.56ZM180.32,112.61h-3.74v-.58c.41,0,.71-.1.92-.31.2-.21.34-.5.41-.88.07-.38.11-.82.11-1.33v-5.87h.92v6.57c0,.51.04.89.11,1.15.07.26.21.44.41.53.2.09.49.14.87.14v.58Z"/>
    </g>
    <g>
      <path class="st0" d="M106.01,125.46c-.26,0-.52-.03-.77-.1-.25-.07-.46-.18-.61-.34-.15-.15-.23-.37-.23-.64,0-.21.06-.38.18-.51.12-.13.28-.2.48-.2.17,0,.31.04.41.13.1.09.18.19.24.31.06.12.12.25.17.37.05.13.11.23.18.32.07.09.16.13.28.13.23,0,.38-.09.45-.26.07-.17.11-.49.11-.95v-4.73c0-.33-.02-.58-.07-.76-.04-.18-.15-.31-.32-.39-.17-.08-.45-.12-.84-.12v-.46h3.95v.46c-.36,0-.62.04-.78.12-.16.08-.26.21-.31.39-.04.18-.06.43-.06.75v4.35c0,.44-.07.8-.21,1.08-.14.28-.33.5-.56.65-.24.15-.5.25-.79.31-.29.05-.59.08-.9.08Z"/>
      <path class="st0" d="M117.22,125.3h-6.83v-.46c.3,0,.54-.02.7-.07.17-.04.29-.14.35-.29.07-.15.1-.37.1-.68v-4.94c0-.31-.03-.54-.08-.7-.05-.16-.16-.27-.33-.32-.17-.06-.42-.09-.75-.09v-.48h6.71l.07,2.14h-.54c-.06-.38-.14-.68-.25-.89-.11-.21-.29-.36-.53-.44s-.6-.12-1.07-.12h-1.69v2.92h1.22c.39,0,.68-.02.87-.07.19-.05.32-.15.38-.31s.09-.4.09-.72h.5v2.82h-.5c0-.34-.03-.59-.09-.75s-.19-.26-.38-.31-.48-.07-.87-.07h-1.22v3.15h1.49c.43,0,.78-.02,1.05-.07.27-.04.48-.13.65-.25.16-.12.3-.29.4-.51.11-.22.21-.51.32-.86h.51l-.31,2.36Z"/>
      <path class="st0" d="M122.56,125.39h-.79l-2.58-6.41c-.18-.46-.35-.78-.52-.95-.17-.17-.4-.27-.7-.29v-.46h3.56v.46c-.31,0-.52.03-.63.1-.11.07-.16.16-.16.29,0,.15.05.36.15.62l1.38,3.42.34.99h.07l1.42-3.56.55,1.21h-.31l-1.77,4.57ZM126.96,125.39h-.84l-1.85-4.91-.16-.42-.4-1.15c-.12-.36-.23-.62-.33-.78-.1-.16-.21-.27-.34-.32-.13-.05-.31-.07-.54-.07v-.46h3.58v.46c-.61,0-.92.15-.92.45,0,.1.02.21.07.32.04.12.09.24.13.37l1.2,3.19.34,1.08h.07l1.31-3.92s.04-.12.07-.23c.03-.1.06-.21.09-.34.02-.12.04-.24.04-.34,0-.24-.08-.4-.23-.48-.15-.07-.35-.11-.61-.11v-.46h2.67v.46c-.29,0-.5.08-.64.2-.14.13-.27.34-.38.65l-2.34,6.8Z"/>
      <path class="st0" d="M137.74,125.3h-6.83v-.46c.3,0,.54-.02.7-.07.17-.04.29-.14.35-.29.07-.15.1-.37.1-.68v-4.94c0-.31-.03-.54-.08-.7-.05-.16-.16-.27-.33-.32-.17-.06-.42-.09-.75-.09v-.48h6.71l.07,2.14h-.54c-.06-.38-.14-.68-.25-.89-.11-.21-.29-.36-.53-.44s-.6-.12-1.07-.12h-1.69v2.92h1.22c.39,0,.68-.02.87-.07.19-.05.32-.15.38-.31s.09-.4.09-.72h.5v2.82h-.5c0-.34-.03-.59-.09-.75s-.19-.26-.38-.31-.48-.07-.87-.07h-1.22v3.15h1.49c.43,0,.78-.02,1.05-.07.27-.04.48-.13.65-.25.16-.12.3-.29.4-.51.11-.22.21-.51.32-.86h.51l-.31,2.36Z"/>
      <path class="st0" d="M145.62,125.3h-6.63v-.46c.33,0,.58-.03.75-.09.16-.06.27-.17.32-.33s.07-.4.07-.72v-4.78c0-.31-.02-.55-.07-.72-.05-.17-.15-.29-.31-.36-.16-.07-.41-.1-.74-.1v-.46h3.89v.46c-.34,0-.6.03-.77.1-.17.07-.29.19-.34.36-.06.17-.09.42-.09.73v5.01c0,.29.06.48.19.57s.37.13.73.13h.68c.37,0,.67-.03.9-.09.23-.06.42-.16.57-.3.15-.14.27-.33.37-.57.1-.24.2-.53.31-.89h.54l-.35,2.51Z"/>
      <path class="st0" d="M153.4,125.3h-6.63v-.46c.33,0,.58-.03.75-.09.16-.06.27-.17.32-.33s.07-.4.07-.72v-4.78c0-.31-.02-.55-.07-.72-.05-.17-.15-.29-.31-.36-.16-.07-.41-.1-.74-.1v-.46h3.89v.46c-.34,0-.6.03-.77.1-.17.07-.29.19-.34.36-.06.17-.09.42-.09.73v5.01c0,.29.06.48.19.57s.37.13.73.13h.68c.37,0,.67-.03.9-.09.23-.06.42-.16.57-.3.15-.14.27-.33.37-.57.1-.24.2-.53.31-.89h.54l-.35,2.51Z"/>
      <path class="st0" d="M161.38,125.3h-6.83v-.46c.3,0,.54-.02.7-.07.17-.04.29-.14.35-.29.07-.15.1-.37.1-.68v-4.94c0-.31-.03-.54-.08-.7-.05-.16-.16-.27-.33-.32-.17-.06-.42-.09-.75-.09v-.48h6.71l.07,2.14h-.54c-.06-.38-.14-.68-.25-.89-.11-.21-.29-.36-.53-.44s-.6-.12-1.07-.12h-1.69v2.92h1.22c.39,0,.68-.02.87-.07.19-.05.32-.15.38-.31s.09-.4.09-.72h.5v2.82h-.5c0-.34-.03-.59-.09-.75s-.19-.26-.38-.31-.48-.07-.87-.07h-1.22v3.15h1.49c.43,0,.78-.02,1.05-.07.27-.04.48-.13.65-.25.16-.12.3-.29.4-.51.11-.22.21-.51.32-.86h.51l-.31,2.36Z"/>
      <path class="st0" d="M166.53,125.3h-3.9v-.46c.31,0,.54-.02.7-.07.16-.05.27-.15.32-.32s.09-.42.09-.76v-5.01c0-.24-.02-.43-.07-.57-.05-.13-.15-.23-.31-.29-.16-.06-.4-.09-.73-.09v-.46h3.62c.59,0,1.12.06,1.61.18.48.12.87.33,1.16.63.29.3.43.71.43,1.23,0,.45-.1.81-.29,1.09-.19.28-.44.5-.73.65-.3.15-.62.27-.96.35v.06c.13.08.28.22.43.4.16.19.37.47.63.84.26.37.61.87,1.05,1.5.2.27.39.44.58.51.19.07.43.11.7.11v.46h-2.49c-.29-.5-.54-.91-.73-1.23-.2-.33-.36-.6-.5-.81s-.26-.41-.37-.59c-.11-.18-.23-.36-.35-.54-.11-.19-.22-.3-.33-.35-.11-.04-.26-.07-.48-.07h-.28v1.99c0,.33.03.57.09.74.06.17.17.28.34.32.17.05.43.07.78.07v.46ZM165.32,121.16h.46c.42-.01.78-.08,1.08-.2.3-.11.53-.3.68-.55.16-.25.24-.6.24-1.04,0-.47-.13-.85-.4-1.13-.27-.28-.7-.42-1.31-.42-.13,0-.26,0-.38,0-.13,0-.25.01-.37.03v3.3Z"/>
      <path class="st0" d="M171.9,125.47h-.48l-.11-2.64h.53c.14.54.29.95.46,1.23.17.29.38.48.64.59.25.11.56.16.92.16.28,0,.53-.04.76-.11.23-.07.41-.2.55-.37.14-.17.21-.4.21-.68,0-.35-.09-.64-.28-.87-.18-.23-.42-.43-.7-.6-.29-.17-.59-.33-.92-.49-.36-.19-.7-.39-1.01-.6-.32-.21-.57-.47-.76-.78s-.29-.69-.29-1.17c0-.44.11-.81.32-1.11.22-.3.52-.52.9-.68.39-.15.83-.23,1.34-.23.33,0,.6.03.8.08.2.05.36.11.49.16.13.05.24.08.34.08.08,0,.16-.02.23-.06s.12-.13.15-.26h.4l.09,2.53h-.5c-.18-.72-.42-1.23-.71-1.53-.29-.31-.7-.46-1.21-.46-.42,0-.75.08-.97.25s-.34.43-.34.78c0,.3.09.55.26.75.17.2.4.38.68.53.28.15.58.31.9.48.29.15.56.3.84.45.27.15.52.34.74.54.22.21.4.45.53.73.13.28.2.6.2.98,0,.5-.12.91-.37,1.25s-.58.59-1.01.77c-.43.18-.92.26-1.49.26-.4,0-.72-.03-.95-.09-.23-.06-.41-.12-.54-.18-.13-.06-.23-.09-.32-.09s-.17.03-.23.1c-.06.07-.09.17-.09.29Z"/>
    </g>
  </g>
</svg>