<?xml version="1.0" encoding="UTF-8"?>
<svg id="Layer_1" xmlns="http://www.w3.org/2000/svg" xmlns:xlink="http://www.w3.org/1999/xlink" version="1.1" viewBox="0 0 284.22 185.49">
  <!-- Generator: Adobe Illustrator 30.1.0, SVG Export Plug-In . SVG Version: 2.1.1 Build 136)  -->
  <defs>
    <style>
      .st0, .st1 {
        fill: #231f20;
      }

      .st1 {
        fill-rule: evenodd;
      }

      .st2 {
        clip-path: url(#clippath-119);
      }

      .st3 {
        clip-path: url(#clippath-120);
      }

      .st4 {
        clip-path: url(#clippath-125);
      }

      .st5 {
        clip-path: url(#clippath-121);
      }

      .st6 {
        clip-path: url(#clippath-123);
      }

      .st7 {
        clip-path: url(#clippath-124);
      }

      .st8 {
        fill: none;
        stroke: #000;
        stroke-miterlimit: 10;
        stroke-width: .75px;
      }
    </style>
    <clipPath id="clippath-119">
      <path class="st0" d="M116.3,70.24c2.39-1.49,5.78-1.45,8.21-.72,0,4.38,1.34,7.3,4.66,8.99,4.21,2.15,9.7,1.3,12.19,6.45-3.27-3.79-7.3-3.64-12.86-3.05-7.24.77-10.57-5.15-12.19-11.67"/>
    </clipPath>
    <clipPath id="clippath-120">
      <path class="st0" d="M120.36,80.17c1.03.93,2.27,1.75,4.03,2.34,2.93.98,6.87-.08,9.93,0,2.45.06,5.5,1.17,6.81,3.36.71,1.19.85,2.49.83,4.55-.27-2.34-.78-4.16-1.97-5.32-1.92-1.86-4.96-2.1-8.19-.79-1.96.79-3.92,1.98-5.88,3.39-4.58,3.07-8.64,3.17-12.25.81.72-3.92,2.51-7.03,6.69-8.34"/>
    </clipPath>
    <clipPath id="clippath-121">
      <path class="st0" d="M126.4,88.69s.91-.72,1.98-1.46c2.38-1.66,5.56-3.05,8.51-2.74,1.99.21,3.43,1.68,3.93,3.37s.34,3.29.34,3.29l-.27-.02c-.04-.1.19-2.12-.6-3.71-.87-1.77-2.53-2.16-4.24-1.24-1.99,1.07-5.57,5.79-9.64,2.53"/>
    </clipPath>
    <clipPath id="clippath-123">
      <path class="st0" d="M167.92,70.24c-2.39-1.49-5.78-1.45-8.21-.72,0,4.38-1.34,7.3-4.66,8.99-4.21,2.15-9.7,1.3-12.19,6.45,3.27-3.79,7.3-3.64,12.86-3.05,7.24.77,10.57-5.15,12.19-11.67"/>
    </clipPath>
    <clipPath id="clippath-124">
      <path class="st0" d="M163.86,80.17c-1.03.93-2.27,1.75-4.03,2.34-2.93.98-6.87-.08-9.93,0-2.45.06-5.5,1.17-6.81,3.36-.71,1.19-.85,2.49-.83,4.55.27-2.34.78-4.16,1.97-5.32,1.92-1.86,4.96-2.1,8.19-.79,1.96.79,3.92,1.98,5.88,3.39,4.58,3.07,8.64,3.17,12.25.81-.72-3.92-2.51-7.03-6.69-8.34"/>
    </clipPath>
    <clipPath id="clippath-125">
      <path class="st0" d="M157.82,88.69s-.91-.72-1.98-1.46c-2.38-1.66-5.56-3.05-8.51-2.74-1.99.21-3.43,1.68-3.93,3.37s-.34,3.29-.34,3.29l.27-.02c.04-.1-.19-2.12.6-3.71.87-1.77,2.53-2.16,4.24-1.24,1.99,1.07,5.57,5.79,9.64,2.53"/>
    </clipPath>
  </defs>
  <g>
    <path class="st0" d="M112.11,94.45v.03c.22.2.29.69.29,1.24v2.38c0,.78-.08,1.22-.7,2l.04.04c.9-.64,1.11-1.16,1.11-2.04v-2.38c0-.55.07-1.04.29-1.24v-.03l-.51.05-.51-.05Z"/>
    <path class="st0" d="M115.2,98.64c-.38,0-.51-.22-.51-.7v-1.26l.43.02c.56.02.65.19.75.49h.03l.08-.92h-.03c-.06.18-.27.26-.62.27l-.64.02v-1.57l.47.03c.53.03.71.1.87.56h.03l.07-.76c-.14.05-.23.05-1.66.05l-.51-.03v.03c.22.2.29.3.29.86v2.19c0,.56-.07.66-.29.86v.03l.51-.03c1.4,0,1.43,0,1.64.04l.15-.84h-.03c-.23.49-.55.68-1.04.68Z"/>
    <path class="st0" d="M121.36,94.83v.03c.29.11.39.3.27.69l-.79,2.46-1.21-3.24h-.06l-1.17,3.19-.79-2.37c-.14-.41-.16-.59.16-.72v-.03l-.56.05-.56-.05v.03c.3.2.38.35.52.79l1.07,3.2h.05l1.19-3.26,1.21,3.26h.05l1.13-3.33c.11-.33.36-.57.55-.66v-.03l-.47.05-.58-.05Z"/>
    <path class="st0" d="M124.14,98.64c-.38,0-.51-.22-.51-.7v-1.26l.43.02c.56.02.65.19.75.49h.03l.08-.92h-.03c-.06.18-.27.26-.62.27l-.64.02v-1.57l.47.03c.53.03.71.1.87.56h.03l.07-.76c-.14.05-.23.05-1.66.05l-.51-.03v.03c.22.2.29.3.29.86v2.19c0,.56-.07.66-.29.86v.03l.51-.03c1.4,0,1.43,0,1.64.04l.15-.84h-.03c-.23.49-.55.68-1.04.68Z"/>
    <path class="st0" d="M127.3,98.64c-.46,0-.61-.19-.61-.59v-2.33c0-.55.07-.66.29-.86v-.03l-.51.05-.51-.05v.03c.22.2.29.3.29.86v2.2c0,.56-.07.66-.31.86v.03l.53-.03c1.45,0,1.53,0,1.77.04l.16-.9h-.03c-.23.51-.59.74-1.07.74Z"/>
    <path class="st0" d="M130.28,98.64c-.46,0-.61-.19-.61-.59v-2.33c0-.55.07-.66.29-.86v-.03l-.51.05-.51-.05v.03c.22.2.29.3.29.86v2.2c0,.56-.07.66-.31.86v.03l.53-.03c1.45,0,1.53,0,1.77.04l.16-.9h-.03c-.23.51-.59.74-1.07.74Z"/>
    <path class="st0" d="M133.14,98.64c-.38,0-.51-.22-.51-.7v-1.26l.43.02c.56.02.65.19.75.49h.03l.08-.92h-.03c-.06.18-.27.26-.62.27l-.64.02v-1.57l.47.03c.53.03.71.1.87.56h.03l.07-.76c-.14.05-.23.05-1.66.05l-.51-.03v.03c.22.2.29.3.29.86v2.19c0,.56-.07.66-.29.86v.03l.51-.03c1.4,0,1.43,0,1.64.04l.15-.84h-.03c-.23.49-.55.68-1.04.68Z"/>
    <path class="st0" d="M137.24,97.53l-.47-.71c.35-.17.71-.53.71-1,0-.62-.48-.98-1.19-.99-.23,0-.58.03-.86.05l-.5-.05v.03c.22.2.29.3.29.86v2.2c0,.56-.07.66-.29.86v.03l.51-.05.58.05v-.03c-.31-.22-.36-.44-.36-.87v-.91c.23.01.47.01.7-.02l.46.72c.56.87.91,1.13,1.31,1.13.15,0,.44-.03.63-.09v-.04c-.53-.1-.84-.14-1.53-1.16ZM136.13,96.86c-.16,0-.31-.02-.47-.09v-1.74c.14-.02.29-.03.41-.03.54,0,.92.36.92.99,0,.58-.39.88-.86.88Z"/>
    <path class="st0" d="M139.75,96.62c-.5-.46-.81-.72-.81-1.16,0-.3.19-.53.58-.53.26,0,.62.14.89.76h.03l-.06-.88h-.03c-.05.04-.11.04-.2.04-.16,0-.31-.06-.65-.06-.51,0-.93.31-.93.89,0,.52.34.87.86,1.34.35.32.76.64.76,1.06,0,.35-.27.61-.63.61-.4,0-.77-.35-1-.93h-.03l.05,1.07h.03c.07-.06.15-.08.22-.08.21,0,.34.08.69.08.59,0,1.04-.34,1.04-.91s-.41-.93-.82-1.3Z"/>
    <path class="st0" d="M144.5,96.29c-.57-.53-.93-.83-.93-1.33,0-.34.22-.61.67-.61.3,0,.71.16,1.02.87h.03l-.07-1.01h-.03c-.06.04-.13.05-.23.05-.18,0-.36-.07-.75-.07-.58,0-1.07.36-1.07,1.02,0,.6.39,1,.99,1.54.4.37.87.73.87,1.22,0,.4-.31.7-.72.7-.45,0-.89-.4-1.15-1.07h-.03l.06,1.23h.03c.08-.07.17-.1.26-.1.24,0,.39.1.8.1.68,0,1.2-.39,1.2-1.04s-.47-1.07-.94-1.5Z"/>
    <path class="st0" d="M146.04,94.83v.03c.22.2.29.3.29.86v2.2c0,.56-.07.66-.29.86v.03l.51-.05.51.05v-.03c-.22-.21-.29-.3-.29-.86v-2.2c0-.55.07-.66.29-.86v-.03l-.51.05-.51-.05Z"/>
    <path class="st0" d="M150.83,94.83v.03c.24.2.37.41.38.86l.03,2.25-3.01-3.18h-.04v3.12c0,.45-.08.66-.34.86v.03l.43-.05.51.05v-.03c-.31-.21-.38-.41-.38-.86l-.02-2.25,3.01,3.18h.04v-3.12c0-.45.09-.66.34-.86v-.03l-.43.05-.5-.05Z"/>
    <path class="st0" d="M154.68,98.69c-.91,0-1.7-.96-1.7-2.1,0-1.06.65-1.65,1.52-1.65.62,0,1.13.29,1.49.88h.03l-.15-.93h-.02c-.06.02-.12.03-.21.03-.23,0-.58-.12-1.15-.12-1.17,0-2.02.85-2.02,2.05s.96,1.98,2.12,1.98c.61,0,.85-.16,1.1-.16.06,0,.13,0,.18.02h.03l.23-.94h-.04c-.44.8-1.04.94-1.43.94Z"/>
    <path class="st0" d="M158.06,98.64c-.38,0-.51-.22-.51-.7v-1.26l.43.02c.56.02.65.19.75.49h.03l.08-.92h-.03c-.06.18-.27.26-.62.27l-.64.02v-1.57l.47.03c.53.03.71.1.87.56h.03l.07-.76c-.14.05-.23.05-1.66.05l-.51-.03v.03c.22.2.29.3.29.86v2.19c0,.56-.07.66-.29.86v.03l.51-.03c1.4,0,1.43,0,1.64.04l.15-.84h-.03c-.23.49-.55.68-1.04.68Z"/>
    <path class="st0" d="M162.43,97.91v-3.12h-.03c-.33.33-.65.63-1.12.89v.04s.7-.13.7-.13v2.33c0,.56-.08.72-.49.86v.03l.72-.05.61.05v-.03c-.27-.15-.39-.3-.39-.86Z"/>
    <path class="st0" d="M164.77,94.8c-.71,0-1.27.48-1.27,1.31,0,.45.35,1.03,1.09,1.03.27,0,.48-.08.66-.21l-.04-.08c-.17.07-.32.09-.46.09-.37,0-.77-.35-.77-1.04,0-.6.33-.96.75-.96.6,0,.87.77.87,1.46,0,1.18-.85,1.96-1.51,2.33l.05.1c1.02-.44,1.95-1.45,1.95-2.59,0-.92-.56-1.45-1.32-1.45Z"/>
    <path class="st0" d="M167.89,96.22c-.21,0-.4.01-.63.09l.13-1.07h1.49s.21.19.21.19v-.57h-1.83l-.2,1.73c.21-.12.41-.17.63-.17.62,0,1.01.58,1.01,1.23,0,.61-.35,1.04-.89,1.04-.44,0-.78-.33-.82-.84h-.02l-.08.63-.14.29h.01c.07-.02.14-.03.21-.03.28,0,.43.09.77.09.85,0,1.46-.66,1.46-1.36,0-.75-.47-1.26-1.29-1.26Z"/>
    <path class="st0" d="M172.41,97.75v-.23s.13-.52.13-.52h-.03c-.2.3-.36.38-.68.4v-2.61h-.04l-2.21,2.93v.03l.64-.03c.46,0,.86,0,1.18,0v.19c0,.56-.05.64-.34.86v.03l.55-.05.49.05v-.03c-.24-.21-.29-.3-.29-.86v-.18c.3,0,.49.01.58.03ZM171.41,97.39h-1.34l1.34-1.79v1.79Z"/>
  </g>
  <g>
    <path class="st0" d="M142.14,53.08c-7.73,7.21-6.88,21.69,0,29.11,7.09-9.11,7.51-21.15,0-29.11Z"/>
    <path class="st0" d="M130.72,78.01c3.71,1.56,9.13,2.26,11.34,6.15.07-1.44-2.59-3.6-3.99-6.68-1.69-3.72-2.56-8.17-2.39-12.54-1.65-2.28-3.93-3.72-7.6-4.5-1.57,5.32-4.14,14.72,2.63,17.57Z"/>
    <g>
      <path class="st0" d="M116.3,70.24c2.39-1.49,5.78-1.45,8.21-.72,0,4.38,1.34,7.3,4.66,8.99,4.21,2.15,9.7,1.3,12.19,6.45-3.27-3.79-7.3-3.64-12.86-3.05-7.24.77-10.57-5.15-12.19-11.67"/>
      <g class="st2">
        <rect class="st0" x="116.3" y="68.75" width="25.06" height="16.2"/>
      </g>
    </g>
    <g>
      <path class="st0" d="M120.36,80.17c1.03.93,2.27,1.75,4.03,2.34,2.93.98,6.87-.08,9.93,0,2.45.06,5.5,1.17,6.81,3.36.71,1.19.85,2.49.83,4.55-.27-2.34-.78-4.16-1.97-5.32-1.92-1.86-4.96-2.1-8.19-.79-1.96.79-3.92,1.98-5.88,3.39-4.58,3.07-8.64,3.17-12.25.81.72-3.92,2.51-7.03,6.69-8.34"/>
      <g class="st3">
        <rect class="st0" x="113.67" y="80.17" width="28.3" height="10.7"/>
      </g>
    </g>
    <g>
      <path class="st0" d="M126.4,88.69s.91-.72,1.98-1.46c2.38-1.66,5.56-3.05,8.51-2.74,1.99.21,3.43,1.68,3.93,3.37s.34,3.29.34,3.29l-.27-.02c-.04-.1.19-2.12-.6-3.71-.87-1.77-2.53-2.16-4.24-1.24-1.99,1.07-5.57,5.79-9.64,2.53"/>
      <g class="st5">
        <rect class="st0" x="126.4" y="84.17" width="14.91" height="7.78"/>
      </g>
    </g>
    <path class="st0" d="M156.14,60.44c-3.66.79-5.94,2.22-7.6,4.5.17,4.36-.7,8.82-2.39,12.54-1.4,3.08-4.06,5.24-3.99,6.68,2.2-3.89,7.62-4.59,11.34-6.15,6.78-2.85,4.2-12.25,2.63-17.57Z"/>
    <g>
      <path class="st0" d="M167.92,70.24c-2.39-1.49-5.78-1.45-8.21-.72,0,4.38-1.34,7.3-4.66,8.99-4.21,2.15-9.7,1.3-12.19,6.45,3.27-3.79,7.3-3.64,12.86-3.05,7.24.77,10.57-5.15,12.19-11.67"/>
      <g class="st6">
        <polygon class="st0" points="161.61 95.86 174.94 72.84 149.19 57.85 135.85 80.87 161.61 95.86"/>
      </g>
    </g>
    <g>
      <path class="st0" d="M163.86,80.17c-1.03.93-2.27,1.75-4.03,2.34-2.93.98-6.87-.08-9.93,0-2.45.06-5.5,1.17-6.81,3.36-.71,1.19-.85,2.49-.83,4.55.27-2.34.78-4.16,1.97-5.32,1.92-1.86,4.96-2.1,8.19-.79,1.96.79,3.92,1.98,5.88,3.39,4.58,3.07,8.64,3.17,12.25.81-.72-3.92-2.51-7.03-6.69-8.34"/>
      <g class="st7">
        <rect class="st0" x="142.25" y="80.17" width="28.3" height="10.7"/>
      </g>
    </g>
    <g>
      <path class="st0" d="M157.82,88.69s-.91-.72-1.98-1.46c-2.38-1.66-5.56-3.05-8.51-2.74-1.99.21-3.43,1.68-3.93,3.37s-.34,3.29-.34,3.29l.27-.02c.04-.1-.19-2.12.6-3.71.87-1.77,2.53-2.16,4.24-1.24,1.99,1.07,5.57,5.79,9.64,2.53"/>
      <g class="st4">
        <polygon class="st0" points="149.54 76.74 139.05 88.49 151.19 99.38 161.68 87.63 149.54 76.74"/>
      </g>
    </g>
  </g>
  <g>
    <path class="st1" d="M99.84,103.87c-.93,0-1.49.12-1.69.35-.2.23-.3.76-.3,1.6v9.64h-.39l-9.14-9.14-.03,6.68c0,.84.08,1.35.23,1.53.22.27.81.41,1.75.41v.32h-4.87v-.32c.93,0,1.5-.13,1.72-.39.17-.2.26-.72.26-1.56v-2.16h0v-7.62l9.49,9.11.05-6.5c0-.84-.08-1.35-.23-1.53-.22-.27-.81-.41-1.75-.41v-.32h4.87v.32Z"/>
    <path class="st0" d="M122.32,103.87c-.5.04-.91.26-1.23.65-.19.23-.42.65-.68,1.25l-4.2,9.75-4.52-9.88c-.29-.71-.51-1.14-.66-1.3-.28-.32-.72-.48-1.32-.48v-.32h4.85v.32c-.45.06-.74.11-.86.15-.31.13-.46.36-.46.69,0,.2.07.47.21.81.14.34.24.57.3.7l2.92,6.67,2.72-6.62c.12-.26.23-.54.34-.84.11-.3.16-.53.16-.67,0-.27-.13-.48-.4-.63-.26-.14-.55-.23-.86-.26v-.32h3.67v.32Z"/>
    <path class="st0" d="M130.63,106.66c0-.71-.22-1.29-.67-1.76-.45-.47-1.04-.7-1.77-.7-.23,0-.5.02-.79.06-.29.04-.52.07-.68.09v4.88h.4c.98,0,1.78-.18,2.39-.54.75-.45,1.12-1.12,1.12-2.03M135.17,115.26h-3.18l-4.04-5.47h-1.23v3.2c0,.84.07,1.35.2,1.53.19.27.69.41,1.49.41v.32h-5.05v-.32c.78,0,1.26-.13,1.45-.39.15-.2.22-.72.22-1.56v-7.17c0-.69-.02-1.12-.07-1.28-.13-.45-.67-.67-1.6-.67v-.32h5.12c1.57,0,2.7.37,3.4,1.12.5.53.75,1.17.75,1.92,0,.79-.29,1.46-.88,1.99-.53.49-1.21.82-2.04.99l2.3,3.15c.68.98,1.22,1.59,1.64,1.84.42.24.93.37,1.53.37v.32Z"/>
    <path class="st0" d="M152.96,104.3h-.33v8.69c0,.59.04,1.02.11,1.29h0s0,0,0,0h0c.02.09.05.16.08.21h0s0,0,0,0h0s0,0,0,0h0c.19.27.69.41,1.48.42h.04s0,0,0,0h.03s0,0,0,0v.32h-5.31v-.32h.04s0,0,0,0h.03s0,0,0,0c.8,0,1.29-.15,1.48-.41l.02-.03h0s0,0,0,0c.03-.05.05-.1.07-.17h0s0-.02,0-.02h0s0-.02,0-.02c.07-.27.11-.7.11-1.3v-8.69h-2.86c-.71,0-1.13.3-1.29,1.2h-.35c.16-.76.31-1.51.47-2.27.23.15.37.32.66.32h3.05s2.42,0,2.42,0h3.05c.29,0,.43-.16.66-.32.16.76.31,1.51.47,2.27h-.35c-.17-.89-.59-1.2-1.29-1.2h-2.53Z"/>
    <path class="st0" d="M171.44,115.26h-5.56v-.32c.87,0,1.4-.13,1.61-.39.16-.2.24-.72.24-1.56v-3.39h-6.07v3.39c0,.84.07,1.35.22,1.53.21.27.75.41,1.64.41v.32h-5.54v-.32c.85,0,1.38-.13,1.59-.39.16-.2.24-.72.24-1.56v-7.17c0-.69-.02-1.12-.07-1.28-.14-.45-.73-.67-1.76-.67v-.32h5.54v.32c-.87,0-1.39.12-1.58.35s-.28.76-.28,1.6v3.15h6.07v-3.15c0-.84-.07-1.35-.22-1.53-.21-.27-.75-.41-1.64-.41v-.32h5.56v.32c-.87,0-1.39.12-1.58.35-.18.23-.28.76-.28,1.6v7.17c0,.84.07,1.35.22,1.53.21.27.75.41,1.64.41v.32Z"/>
    <path class="st1" d="M184.39,115.15h-4.56v-.32c.41,0,.72-.05.92-.16.2-.11.3-.32.3-.64,0-.22-.07-.5-.21-.86-.11-.23-.18-.39-.21-.48l-.88-2.09-1.97-4.73-2,4.73-.26.6v.02s0,0,0,0l-.7,1.66c-.06.13-.13.32-.22.58-.09.26-.14.45-.14.58,0,.29.13.49.38.61.26.12.58.17.96.17v.32h-3.64v-.32c.44-.04.78-.19,1.02-.43.24-.24.5-.7.77-1.36l4.34-9.85,4.06,9.55c.28.66.45,1.04.49,1.12.36.65.87.97,1.56.97v.32Z"/>
    <path class="st1" d="M198.8,103.77c-.93,0-1.49.12-1.69.35s-.3.76-.3,1.6v9.64h-.39l-9.14-9.14-.03,6.68c0,.84.08,1.35.23,1.53.22.27.81.41,1.75.41v.32h-4.87v-.32c.93,0,1.5-.13,1.72-.39.17-.2.26-.72.26-1.56v-2.16h0v-7.62l9.49,9.11.05-6.5c0-.84-.08-1.35-.23-1.53-.22-.27-.81-.41-1.75-.41v-.32h4.87v.32Z"/>
    <path class="st1" d="M111.6,115.21h-4.56v-.32c.41,0,.72-.05.92-.16.2-.11.3-.32.3-.64,0-.22-.07-.5-.21-.86-.11-.23-.18-.39-.21-.48l-.88-2.09-1.97-4.73-2,4.73-.26.6v.02s0,0,0,0l-.7,1.66c-.06.13-.13.32-.22.58-.09.26-.14.45-.14.58,0,.29.13.49.38.61.26.12.58.17.96.17v.32h-3.64v-.32c.44-.04.78-.19,1.02-.43.24-.24.5-.7.77-1.36l4.34-9.85,4.06,9.55c.28.66.45,1.04.49,1.12.36.65.87.97,1.56.97v.32Z"/>
    <path class="st1" d="M147.68,115.25h-4.56v-.32c.41,0,.72-.05.92-.16.2-.11.3-.32.3-.64,0-.22-.07-.5-.21-.86-.11-.23-.18-.39-.21-.48l-.88-2.09-1.97-4.73-2,4.73-.26.6v.02s0,0,0,0l-.7,1.66c-.06.13-.13.32-.22.58-.09.26-.14.45-.14.58,0,.29.13.49.38.61.26.12.58.17.96.17v.32h-3.64v-.32c.44-.04.78-.19,1.02-.43.24-.24.5-.7.77-1.36l4.34-9.85,4.06,9.55c.28.66.45,1.04.49,1.12.36.65.87.97,1.56.97v.32Z"/>
  </g>
  <g>
    <g>
      <g>
        <path d="M151.78,126.86c-.11-.02-.16.07-.22.12-.2.16-.39.32-.62.43-.68.34-1.51.12-1.16-.77.22-.42.47-.85.81-1.18.04-.04.08-.08.1-.13.13-.37.4-.65.61-.97.17-.19.5-.16.73-.13.05.1,0,.15-.05.22-.55.82-1.19,1.57-1.67,2.43-.18.43.11.59.49.4.82-.44,1.36-1.23,1.89-1.97.2-.29.4-.58.59-.87.09-.13.2-.2.35-.21.22-.01.65-.1.37.25-.45.7-.92,1.39-1.39,2.08-.1.19-.5.77-.09.81,1.07-.31,1.77-1.35,2.51-2.14.09-.13.25-.05.13.12-.52.69-3.02,3.54-3.39,1.52Z"/>
        <path d="M150.49,125.13c-.2.11-.42.21-.63.31-.45.21-.96-.11-1.08-.55-.12-.85-.96-.92-1.62-.61-.32.15-.6.35-.86.59-.17.16-.24.29-.47.18-.79.97-1.78,1.93-3.01,2.26-.03-.13.06-.2.11-.28.54-.84,1.08-1.67,1.62-2.51.05-.08.13-.15.12-.31-.11,0-.21,0-.31,0-.23-.02-.39.07-.51.28-.48.79-1.01,1.58-1.73,2.18-.28.21-.56.48-.91.57-.2.04-.34-.13-.27-.32.2-.44.53-.8.79-1.2.29-.42.59-.84.88-1.27.04-.06.11-.12.05-.22-.14-.05-.29,0-.44,0-.17,0-.28.08-.38.22-.48.78-1.11,1.48-1.47,2.33-.22.54.21.89.74.77.46-.1.78-.41,1.15-.67.08-.06.15.02.09.1-.61.67-.96,1.54-1.68,2.13-.4.44-.84.82-1.45.96-1.01.31-2.04-.99-.91-1.57.07-.04.22-.04.22-.15-.08-.16-.4-.08-.54-.05-.53.11-.87.66-.66,1.18.21.68,1.1.97,1.75.81.47-.04.93-.2,1.33-.43.85-.45,1.39-1.3,1.98-2.03.12-.16.24-.27.44-.31,1-.28,1.85-.93,2.55-1.66.1-.03.08.1.04.15-.23.39-.3,1.14.11,1.42.19.09.4.18.63.14,1.11-.15,1.99-1,2.45-1.98.03-.08.06-.17.18-.19.24.29.63.33.98.32.32,0,.55-.2.77-.4.05-.04.06-.12-.04-.18ZM147.99,125.34c-.23.79-.73,1.49-1.43,1.93-.28.18-.66.1-.68-.28-.02-.43.12-.85.33-1.22.25-.44.56-.83.93-1.18.24-.24.95-.46.95.07,0,.23-.03.46-.09.68Z"/>
      </g>
      <g>
        <path d="M122.84,124.8c.38-.3.78-.67,1.3-.67.35-.04.72.33.59.67-.33.83-.99,1.51-1.31,2.34.03.51.74-.03.94-.17.67-.5,1.2-1.15,1.74-1.78.06-.1.19-.12.22.03-.58.74-1.46,1.74-2.28,2.22-.38.24-1.17.12-1.14-.45.16-.86.87-1.51,1.26-2.28.2-.47-.18-.37-.47-.23-.87.44-1.48,1.24-2.02,2.02-.17.26-.33.52-.49.78-.12.21-.39.15-.6.19-.41.03.2-.59.26-.76.28-.46.58-.92.93-1.31-.07-.08-.11-.05-.14-.02-.15.13-.26.29-.44.39-.03.02-.07.06-.08.1-.34.56-.96.97-1.5,1.35-1.65.98-2.42-.22-1.15-1.54.07-.05.45-.56.18-.42-.08.12-.18.22-.28.32-.79.85-1.73,1.66-2.89,1.96-.15.03-.25.11-.34.24-.59.76-1.14,1.61-2.02,2.08-.95.59-2.9.83-3.15-.62-.11-.64.67-1.14,1.24-.94.12.1-.09.16-.17.19-.53.15-.69.88-.27,1.28,1.64,1.35,3.41-1.65,4.24-2.77.03-.04.05-.1-.03-.16-.05.04-.11.08-.17.13-.33.29-.68.57-1.14.6-.56.05-.8-.35-.59-.85.35-.84.99-1.52,1.46-2.29.08-.13.19-.18.32-.19.25.02.62-.15.48.15-.5.74-1.03,1.47-1.53,2.21-.15.19-.37.64.05.65,1.21-.4,1.94-1.64,2.63-2.65.23-.35.16-.36.68-.38.06,0,.12.01.17.02.04.11-.01.17-.06.23-.58.95-1.29,1.85-1.79,2.83,1.14-.24,2.17-1.22,2.9-2.1.08-.13.19-.17.33-.11.1-.04.31-.38.37-.61-.1-.03-.27,0-.31-.1.11-.23.47.02.61-.26.16-.25.33-.49.48-.74.18-.28.18-.28.53-.3.44-.07.29.16.11.41-.14.25-.33.44-.41.73.31.14.68.01,1.01.08.03.09,0,.13-.07.14-.31.05-.63.02-.95.02-.16,0-.26.06-.34.2-.44.81-1.13,1.52-1.4,2.4-.03.21.06.3.27.31.73-.02,1.29-.59,1.8-1.05.39-.37.76-.76,1.16-1.15.26.07.34-.24.47-.41.76-1.23,1.51-2.46,2.29-3.68.14-.28.48-.17.73-.19.06.11,0,.18-.05.25-.69,1.11-1.38,2.21-2.07,3.31-.03.11-.23.27-.13.36Z"/>
        <path d="M97.9,127.29c.86,0,2.17-.79,1.89-1.84-.27-.84-1.36-.34-1.79.11-.07.05-.16.15-.25.1-.03-.04-.03-.11,0-.15,1.62-2.01,4.04.04,1.58,1.51-3.44,1.95-5.98-1.6-1.87-3.21.19-.1.48-.17.49-.42.06-1.49.35-2.39,2-2.59,2.44-.19,1.98,2.56-.22,2.32-.13.01-.22-.16-.07-.21.27-.03.55-.01.8-.14.73-.32.8-1.57-.08-1.71-.74-.17-1.5.34-1.58,1.09-.09.43-.07.91-.34,1.29-.39.44-1.02.59-1.51.89-1.57.95-.97,3.09.95,2.98Z"/>
        <path d="M128.21,127.41c-.21,0-.41.07-.64.03.23-.6.75-1.14,1.09-1.71.29-.45.54-.92.86-1.36.06-.09.14-.14.24-.15.36-.03.68-.09.3.34-.03.04-.05.09-.03.17.06-.03.12-.04.15-.07.35-.27.76-.52,1.21-.55.48-.05.79.36.62.81-.02.42-2.2,2.62-.99,2.4.41-.17.79-.43,1.11-.75.44-.44.87-.89,1.23-1.41.07-.1.14-.13.18-.08.05.07,0,.13-.04.17-.72.81-1.79,2.66-3.08,2.2-.72-.46.08-1.32.37-1.81.24-.34.49-.67.73-1.01.04-.06.1-.13.05-.21-.06-.1-.16-.12-.26-.1-1.53.32-2.2,1.95-3.08,3.07Z"/>
        <path d="M127.63,124.22c.05.13-.03.2-.08.28-.46.73-.93,1.45-1.4,2.18-.41.64-.09.88.5.46.75-.56,1.38-1.24,2-1.93.06-.08.11-.1.22-.05-.56.85-1.3,1.58-2.14,2.16-.2.14-.44.21-.67.23-.33.03-.54-.14-.57-.46-.05-.75.61-1.23.94-1.81.08-.37.35-.62.53-.93.16-.17.46-.15.67-.13Z"/>
        <path d="M128.25,122.53c.5,0,.46.68,0,.71-.45-.05-.53-.68,0-.71Z"/>
        <path d="M113.83,125.07c-1.15.54-1.71.45-1.04-.88-.04-.03-.08-.07-.11-.08-.6-.06-1.04.64-1.51.95-.11.09-.16-.03-.09-.11.14-.24.38-.44.43-.71-.13-.07-.25-.03-.37-.03-.15,0-.27.06-.35.2-.1.18-.22.35-.33.53-.04.07-.09.14-.17.13-.17-.01-.26.1-.36.19-.88.76-1.75,1.86-2.98,1.97-.31,0-.52-.44-.42-.72.07-.3.14-.55.47-.63.73-.27,1.64-.47,2.02-1.22.09-.19.03-.38-.16-.47-.85-.36-1.56.46-2.19.88-.18,0-.3.12-.44.21-.38.23-.91.28-1.26-.02-.15-.12-.03-.31-.03-.46,0-.25-.03-.48-.24-.65-.24-.18-.54.11-.51.37.04.18.06.37.02.55-.21.84-.78,1.49-1.44,2.02-.18.15-.39.25-.63.26-1.23-.09.82-2.54,1.12-2.99.17-.27-.36-.13-.49-.13-.12,0-.2.06-.27.16-.52.78-1.24,1.56-1.32,2.52.33,1.34,2.06.39,2.69-.22.3-.27.56-.58.76-.94.04-.08.07-.19.2-.22.4.2.87.27,1.29.07.46-.26-.2.59-.22.75-.11.24-.06.5.01.74.15.39.67.55,1.06.44.07-.02.15-.03.22-.05,1.16-.27,1.99-1.22,2.82-2.01.03-.03.07-.06.12,0-.02.05-.04.12-.08.16-.41.53-.73,1.11-1.1,1.67-.05.08,0,.16.08.16.46,0,.51-.03.76-.42.36-.59.76-1.16,1.26-1.63.23-.22.45-.44.79-.6.01.09.03.14.03.2.13.94,1.43.63,1.95.22.04-.03.07-.09,0-.15ZM107.05,125.45c.33-.42.67-.91,1.19-1.08.48-.09.16.52-.03.66-.3.29-.68.44-1.06.56-.04.01-.08,0-.14,0,.02-.06.02-.1.05-.13Z"/>
        <path d="M138.05,125.22c-.75.79-1.48,1.76-2.57,2.07-.25.03-.08-.11-.03-.23.58-.94,1.24-1.84,1.78-2.8-.26-.09-.68-.08-.8.2-.07.19-.18.21-.25-.01-.12-.32-.46-.36-.75-.3-1.05.15-1.78.98-2.28,1.86-.19.31-.27.64-.23,1,.09.81,1.03.57,1.53.25.1-.07.19-.13.33-.15.03.12,0,.22-.09.26-.5.48-.76,1.17-1.31,1.62-.5.54-1.11,1.05-1.86,1.12-.52.05-1.05-.34-1.06-.89,0-.32.14-.69.5-.75.31-.09.02-.32-.19-.23-.27.08-.55.18-.75.39-.4.51-.21,1.25.4,1.5.6.25,1.21.24,1.83.05,1.21-.37,2.1-1.32,2.76-2.36.12-.18.25-.31.48-.36,1.12-.28,1.91-1.24,2.64-2.08.03-.04.06-.09.08-.13-.04-.08-.1-.08-.14-.04ZM134.51,127.01c-.33.31-1.03.49-.97-.2.14-.86.67-1.62,1.31-2.19.26-.21.89-.49,1.02-.02.1.97-.7,1.79-1.36,2.41Z"/>
      </g>
      <g>
        <path d="M176.99,125.35c-.04-.38.33-.61.48-.92.09-.14.22-.21.38-.21.14,0,.28-.04.44.02-.39.74-.98,1.37-1.43,2.07-.12.17-.23.35-.33.53-.21.41.07.65.48.45,1.12-.63,1.77-1.81,2.49-2.83.09-.14.21-.21.38-.22.14,0,.56-.09.38.18-.43.65-.86,1.29-1.29,1.94-.16.27-.37.53-.4.85.03.38.69,0,.84-.14.58-.44,1.09-.95,1.56-1.5.11-.13.23-.26.34-.39.11,0,.12.08.09.14-.12.24-.43.31-.49.59-.29.31-.61.6-.91.9-.44.36-1,.87-1.61.71-.24-.06-.37-.32-.33-.57,0-.03,0-.06-.01-.12-.07.02-.13.03-.18.06-.38.29-.74.66-1.25.67-.62.04-.8-.36-.66-.83.23-.52.56-.99,1.01-1.37Z"/>
        <path d="M182.78,124.23c-.1.32-.29.49-.44.73-.02.04-.01.1-.02.18.43-.28.74-.62,1.15-.91.19-.1.32-.15.56-.06,0,.13-.07.22-.12.33-.52,1.3.44.85,1.2.58.06.06.04.11,0,.14-.53.38-1.76.7-1.92-.21.06-.79-1.57,1.13-1.69,1.37-.18.26-.36.52-.52.8-.09.16-.19.26-.39.24-.11-.01-.23.07-.35,0-.04-.11.03-.18.08-.24.31-.5.62-.99,1.01-1.44.1-.11.23-.23.22-.42.12-.33.37-.62.54-.93.16-.22.44-.17.7-.16Z"/>
        <path d="M188.74,125.14c-.64.56-2.64,2.74-3.48,1.93-.19-.25-.12-.58-.03-.85.05-.16.14-.26.3-.31.52-.14,2.75-.93,1.99-1.67-.76-.35-1.53.34-2.08.8-.47.52-1.04,1.16-.91,1.91.07.43.57.65.96.6,1.34-.19,2.33-1.25,3.23-2.18.13-.18.27-.27.01-.23ZM185.59,125.52c.37-.45.74-1.03,1.34-1.18.16-.03.27.1.23.26-.11.43-.52.66-.89.85-.13.05-.78.35-.68.08Z"/>
        <path d="M176.77,125.2s-.07-.02-.09,0c-.1.1-.19.21-.28.32-.58.72-1.28,1.39-2.16,1.7.13-.25.26-.33.34-.58.26-.73-.69-1.36-.25-2.07.09-.17.24-.25.37-.22.31.04.24.52.25.77,0,.13.09.19.22.19.46-.03.55-.76.18-.98-.43-.28-1.01-.3-1.41.03-.39.36-.48.91-.2,1.34.33.47.31,1.21-.17,1.57-.33.24-.78-.06-.84-.43-.03-.17,0-.22.18-.28.37-.11.34-.54.01-.68.13-.24.27-.37.43-.58.17-.56-.74.59-.89.71-.34.44-.75.8-1.2,1.11-.18.1-.5.34-.68.15-.08-.1-.04-.23.02-.34.45-.85,1-1.64,1.49-2.47.04-.07.12-.14.07-.24-.22-.06-.58-.04-.71.19-.03.05-.09.09-.14.14-.56-.82-1.67-.32-2.23.25-.13.13-.24.29-.45.31-.51.44-1.01.98-1.57,1.39-.48.33-1,.76-1.61.73-.59-.05-.52-1.2-.02-1.33.76-.28,1.8-.48,2.14-1.31.1-.33-.31-.51-.58-.49-.74.04-1.25.59-1.81,1-.28-.13-.58.16-.85.2-.75.23-.81-.18-.55-.78.01-.13.28-.36.09-.42-.57-.1-.94.5-1.38.78-.09.04-.18.24-.27.2-.01-.01-.03-.04-.02-.06.11-.31.41-.5.46-.83-.11,0-.2,0-.28,0-.48-.03-.58.53-.84.82-.03.05-.1.12-.15.11-.15-.02-.22.07-.3.16-.75.74-1.45,1.64-2.48,2-1.59.41.52-2.06.72-2.53.04-.06.09-.12.13-.19.17-.28.58-.09.86-.15.13,0,.26-.02.39-.04.04,0,.08-.03.07-.11-.3-.13-.7.06-1.01-.11.17-.39.43-.7.62-1.08-.16-.1-.31-.04-.48-.04-.36.04-.55.66-.77.92-.1.18-.23.29-.45.26-.05,0-.11,0-.16.02-.03.01-.05.06-.06.1,0,.01.04.05.06.06.08.02.18-.03.23.08-.06.19-.2.36-.3.54-.31.62-.93,1.16-.97,1.87-.01.51.42.71.86.63.96-.16,1.72-.87,2.36-1.57.22-.21.38-.49.63-.65,0,.13,0,.13-.01.15-.45.56-.83,1.17-1.21,1.79-.03.04-.03.1-.05.17.08.01.13.03.18.02.45-.04.44-.04.7-.42.57-.83,1.13-1.76,2.05-2.22,0,1.05,1.28.93,1.89.45.05-.04.11-.08.19-.01-.01.03-.02.08-.04.11-.25.23-.39.52-.54.82-.35.67.06,1.49.86,1.37.85-.09,1.58-.59,2.2-1.15.14-.07.74-.8.73-.51-.04.07-.1.14-.15.21-.25.35-.23.74-.11,1.13.12.29.5.39.79.3.26-.08.52-.16.74-.35.15-.13.26-.26.46-.33-.02.35.12.68.5.7.68.06,1.1-.59,1.67-.82.29,1.09,1.66.91,2.45.54.89-.4,1.49-1.16,2.11-1.89.05-.05.1-.14.04-.2ZM165.51,125.49c.38-.44.72-1.02,1.32-1.15.12-.03.21.07.21.22-.18.65-.86.87-1.43,1.05-.07.01-.15-.05-.1-.13ZM170.15,126.4c-.35.46-1.61,1.5-1.54.25.1-.69.55-1.3,1.01-1.8.31-.34,1.23-.88,1.31-.11,0,.53-.38,1.21-.78,1.66Z"/>
      </g>
    </g>
    <line class="st8" x1="99.96" y1="118.68" x2="187.17" y2="118.68"/>
    <line class="st8" x1="99.96" y1="132.4" x2="187.17" y2="132.4"/>
  </g>
</svg>