<?xml version="1.0" encoding="UTF-8"?>
<svg id="Layer_1" xmlns="http://www.w3.org/2000/svg" version="1.1" viewBox="0 0 284.22 185.49">
  <!-- Generator: Adobe Illustrator 30.1.0, SVG Export Plug-In . SVG Version: 2.1.1 Build 136)  -->
  <defs>
    <style>
      .st0, .st1 {
        fill: #231f20;
      }

      .st2, .st3, .st4, .st5 {
        fill: none;
        stroke: #231f20;
      }

      .st2, .st4, .st5 {
        stroke-miterlimit: 2.61;
      }

      .st1, .st6 {
        fill-rule: evenodd;
      }

      .st3 {
        stroke-miterlimit: 10;
        stroke-width: .44px;
      }

      .st4 {
        stroke-width: .58px;
      }

      .st5 {
        stroke-width: .88px;
      }
    </style>
  </defs>
  <g>
    <path class="st0" d="M159.92,111.02h-1.62v-6.96h1.51v.99c.26-.47.49-.78.7-.92.21-.15.44-.22.7-.22.37,0,.73.12,1.07.35l-.5,1.6c-.27-.2-.53-.3-.76-.3s-.42.07-.58.21c-.16.14-.28.4-.37.77-.09.37-.14,1.15-.14,2.33v2.15ZM155.17,107.68c-.21.08-.54.17-.99.28-.45.11-.74.22-.88.32-.21.17-.32.39-.32.65s.08.48.25.67c.17.19.38.28.65.28.29,0,.57-.11.84-.33.2-.17.33-.37.39-.61.04-.16.06-.46.06-.9v-.37ZM153,106.19l-1.47-.3c.17-.67.45-1.17.85-1.49.41-.32,1.01-.49,1.8-.49.73,0,1.26.1,1.62.29.35.19.6.44.75.74.14.3.22.85.22,1.65l-.02,2.15c0,.61.03,1.06.08,1.35.05.29.15.6.29.93h-1.61c-.04-.12-.09-.3-.16-.54-.03-.11-.05-.18-.06-.22-.28.31-.57.53-.89.69-.32.15-.65.23-1.01.23-.63,0-1.13-.19-1.49-.58-.36-.39-.55-.88-.55-1.48,0-.39.08-.74.25-1.05.17-.31.4-.54.7-.71.3-.16.73-.31,1.29-.43.76-.16,1.28-.31,1.58-.45v-.18c0-.36-.08-.61-.23-.76-.15-.15-.44-.23-.87-.23-.29,0-.51.07-.68.19-.16.13-.29.35-.39.68ZM148.5,111.02v-9.61h1.62v9.61h-1.62ZM145.31,111.02v-1.04c-.23.37-.52.66-.88.88-.36.21-.75.32-1.15.32s-.78-.1-1.11-.31c-.33-.21-.56-.49-.71-.87-.15-.37-.22-.89-.22-1.54v-4.4h1.62v3.2c0,.98.03,1.58.09,1.8.06.22.17.39.33.52.16.13.36.19.6.19.28,0,.53-.09.75-.26.22-.17.37-.39.45-.64.08-.26.12-.88.12-1.88v-2.94h1.62v6.96h-1.51ZM135.6,107.43c0,.78.14,1.36.41,1.73.27.37.61.56,1,.56s.69-.17.94-.51c.25-.34.38-.91.38-1.69,0-.73-.13-1.27-.39-1.63-.26-.35-.58-.53-.96-.53s-.73.17-.99.52c-.26.35-.39.86-.39,1.54ZM133.99,104.06h1.51v1.02c.2-.35.46-.64.8-.85.34-.22.71-.33,1.12-.33.71,0,1.32.32,1.81.95.5.63.75,1.52.75,2.65s-.25,2.06-.75,2.71c-.5.64-1.11.97-1.82.97-.34,0-.65-.08-.92-.23-.27-.15-.56-.42-.87-.79v3.51h-1.62v-9.61ZM128.1,107.54c0,.69.14,1.22.43,1.59.29.37.65.55,1.07.55s.78-.18,1.07-.55c.29-.37.43-.9.43-1.6s-.14-1.21-.43-1.57c-.29-.37-.64-.55-1.07-.55s-.78.18-1.07.55c-.29.37-.43.9-.43,1.59ZM126.43,107.44c0-.61.13-1.2.4-1.78.27-.57.64-1.01,1.13-1.31.49-.3,1.03-.45,1.63-.45.93,0,1.69.34,2.28,1.03.59.68.89,1.55.89,2.59s-.3,1.92-.9,2.62c-.6.69-1.35,1.04-2.26,1.04-.56,0-1.1-.14-1.61-.43-.51-.29-.9-.71-1.17-1.27-.26-.56-.4-1.23-.4-2.04ZM121.14,107.43c0,.78.14,1.36.41,1.73.27.37.61.56,1,.56s.69-.17.94-.51c.25-.34.38-.91.38-1.69,0-.73-.13-1.27-.39-1.63-.26-.35-.58-.53-.96-.53s-.73.17-.99.52c-.26.35-.39.86-.39,1.54ZM119.53,104.06h1.51v1.02c.2-.35.46-.64.8-.85.34-.22.71-.33,1.12-.33.71,0,1.32.32,1.81.95.5.63.75,1.52.75,2.65s-.25,2.06-.75,2.71c-.5.64-1.11.97-1.82.97-.34,0-.65-.08-.92-.23-.27-.15-.56-.42-.87-.79v3.51h-1.62v-9.61Z"/>
    <path class="st5" d="M115.74,95.52h45.58v-36.32h-41.06v32.43h-4.59c.02,1.3.05,2.59.07,3.89Z"/>
    <line class="st4" x1="114.89" y1="99.04" x2="162.24" y2="99.04"/>
    <path class="st6" d="M150.35,66.38c-.96-.3-1.82-.23-.8-1.26.69-.7,1.38-1.39,2.06-2.09-.22-.07-.37-.15-.59-.22-.91.86-1.84,1.61-2.8,2.57-.44.44-.41.42-1.03.35-3.06-.33-6.11-.31-9.24.22-4.56-3.25-10.05,1.5-11.31,5.43-.3.95.2.76.55-.08,1.61-3.87,5.84-6.38,8.59-5.71,1.02.25,2.35.51.49,1.17-3.12,1.09-5.57,3.16-7.2,6.8-2.3,5.13,3.11,7.92,6.94,4.32,2.76-2.6,4.61-5.79,3.45-10.01-.29-1.06-.7-1.21.81-1.33,1.61-.13,3.18-.14,4.75-.11,1.29.02,2.2-.07,1.14,1.42-2.63,3.7-4.56,8.44-6.45,13.99-1.22,3.58-3.39,8-7.4,9.11-.91.25-3.29.85-2.93-1.01.07-.36.1-.73.04-1.08-.4-2.56-4.01-1.16-3.15,1.34.17.5.42.9.85,1.2,5.55,3.87,11.81-3.88,14.25-7.64,2.38-3.67,4.14-11.31,6.53-15.93.37-.72.56-.94,1.44-.69,9.9,2.82,4.02,18.22-4.57,14.68-1.18-.49-.74.51-.09.81,11.49,5.38,18.9-12.08,5.65-16.22ZM133.55,77.91c-2.21,1.25-4.57.09-4.26-2.57.32-2.78,2.84-6.77,8.09-8.41.62-.2.84.13,1.01.66,1.1,3.51-1.62,8.5-4.83,10.33Z"/>
    <rect class="st0" x="116.03" y="92.04" width="4.79" height="3.01"/>
    <rect class="st2" x="116.03" y="92.04" width="4.79" height="3.01"/>
    <g>
      <g>
        <path class="st1" d="M143.81,113.44c-.76-1.05-3.26-.19-4,.23-5.5,3.13-2.14,7.52,2.67,3.88.36-.32.57-.3.55.02.09.62.2,1.19.55,1.58.32.36.54.2.47-.2-.18-.99-.36-1.98-.55-2.97-.06-.35-.76-.48-.73.11.03.53.05.85-.42,1.17-.9.62-2.68,1.6-3.77.84-1-.69-.71-1.95-.02-2.82,1.15-1.44,3.04-2.16,4.8-1.46.49.19.78.07.44-.4"/>
        <path class="st1" d="M145.1,116.18c0,.75-.07,1.51-.08,2.26,0,.42.41.42.55,0,.16-.5.46-1,.83-1.5.24-.32.35-.39.67-.02.22.06.45.01.68-.04.25-.05.09-.07-.05-.22-.29-.29-.43-.59-.47-.93-.02-.15-.02-.2-.21-.19-.19.01-.35.19-.4.45-.04.25.03.22-.16.39-.22.19-.39.44-.55.72-.33.57-.26.01-.23-.33.07-.98-.58-1.05-.59-.6"/>
        <path class="st1" d="M151.83,116.46c-.56-.91-2.49-.49-3.19.16-.44.4-.64.94-.45,1.49.41,1.21,2.25.88,3.04.37.66-.42,1.04-1.31.6-2.01ZM150.08,118.49c-.69,0-1.24-.49-1.24-1.1s.56-1.1,1.24-1.1,1.24.49,1.24,1.1-.56,1.1-1.24,1.1Z"/>
        <path class="st1" d="M153.04,116.22c0,.46-.27,1.77-.13,2.2.39,1.21,1.79.07,2.22-.71.28-.51.42-.26.47.13.05.39-.03.8.4,1.31.22-.1.45-.28.67-.38-.58-.5-.68-1.33-.68-2.18,0-.5-.52-.28-.59.08-.14.77-2.21,2.94-1.95.81.03-.25.08-.5.13-.74.09-.46.05-.65-.33-.66-.17,0-.2-.02-.2.15"/>
        <path class="st1" d="M157.55,116.3v4.71c0,.55.61.52.59.02-.03-.75-.08-1.49.07-2.27-.07-.84.02-1.79.81-2.26,2.51-1.52,2.08,3.31-.38,2.02-.35-.18-.42.23-.11.38.61.29,1.32.22,1.86-.19,2.49-1.93.31-3.82-1.68-2.38-.23.17-.44.51-.47.09-.03-.45-.69-.8-.69-.11"/>
      </g>
      <g>
        <path class="st0" d="M122.37,123.75h-2.07v.99h1.97c.31,0,.52.08.63.23.11.15.16.44.16.86v.63c0,.42-.05.7-.16.86-.11.15-.32.23-.63.23h-1.95c-.31,0-.52-.08-.63-.23-.11-.15-.16-.44-.16-.86v-.13l.65-.2v.54h2.23v-1.05h-1.97c-.31,0-.51-.08-.62-.23s-.16-.44-.16-.86v-.51c0-.42.05-.7.16-.86s.31-.23.62-.23h1.79c.3,0,.5.07.61.22.11.15.17.41.17.79v.1l-.65.22v-.52Z"/>
        <path class="st0" d="M124.58,127.55v-4.61h.73v4.61h-.73Z"/>
        <path class="st0" d="M126.92,127.55v-4.61h.5l2.22,2.71c.08.09.14.18.2.26s.11.16.16.25c-.01-.26-.02-.44-.02-.55s0-.19,0-.25v-2.42h.66v4.61h-.5l-2.32-2.85c-.06-.07-.1-.14-.15-.2s-.08-.12-.12-.18c0,.14.02.28.02.4,0,.13,0,.24,0,.33v2.49h-.66Z"/>
        <path class="st0" d="M134.9,123.76h-1.98v2.92h1.98v-.99l.73.22v.54c0,.42-.05.71-.16.86-.11.15-.32.23-.62.23h-1.88c-.31,0-.51-.08-.62-.23-.11-.15-.16-.44-.16-.86v-2.43c0-.42.05-.7.16-.86s.31-.23.62-.23h1.88c.3,0,.51.08.62.23.11.15.16.44.16.86v.44l-.73.17v-.87Z"/>
        <path class="st0" d="M137.15,127.55v-4.61h3.23v.78h-2.5v1.03h1.46v.78h-1.46v1.14h2.53v.87h-3.26Z"/>
        <path class="st0" d="M145.49,127.55v-3.73h-.67v-.61l1.34-.3v4.64h-.67Z"/>
        <path class="st0" d="M151.44,125.72c-.23.05-.46.09-.69.12s-.47.04-.7.04c-.51,0-.86-.09-1.05-.26-.19-.17-.29-.48-.29-.93v-.62c0-.38.09-.67.26-.85.17-.18.45-.27.82-.27h1.33c.4,0,.67.1.82.31s.22.58.22,1.12v.61c0,.86-.2,1.52-.61,1.99s-.98.7-1.72.7c-.06,0-.11,0-.14,0-.03,0-.06,0-.09-.01l-.43-.74h.2c.67,0,1.16-.09,1.46-.27.3-.18.5-.49.61-.92ZM151.48,125.01c0-.05.01-.1.01-.15,0-.05,0-.09,0-.12,0-.45-.04-.73-.12-.85s-.26-.17-.54-.17h-.88c-.22,0-.37.04-.46.12s-.13.23-.13.45v.26c0,.22.05.37.14.45s.28.12.56.12c.2,0,.42,0,.65-.03.24-.02.48-.05.74-.09Z"/>
        <path class="st0" d="M154.19,124.77c.24-.05.48-.09.71-.12.23-.03.46-.04.69-.04.51,0,.86.09,1.05.26.19.17.28.48.28.93v.62c0,.38-.09.67-.26.85s-.45.27-.82.27h-1.34c-.4,0-.67-.1-.82-.31s-.22-.58-.22-1.12v-.61c0-.86.2-1.52.61-1.99s.98-.7,1.72-.7c.03,0,.06,0,.09,0,.03,0,.08,0,.13.02l.44.74h-.2c-.67,0-1.16.09-1.45.27-.3.18-.5.48-.61.92ZM154.15,125.47s0,.08,0,.11,0,.09,0,.15c0,.44.04.72.12.83.08.11.26.16.53.16h.88c.22,0,.37-.04.45-.12s.12-.22.12-.44v-.25c0-.21-.05-.36-.14-.44-.09-.08-.28-.12-.56-.12-.23,0-.45,0-.69.03s-.47.05-.71.08Z"/>
        <path class="st0" d="M158.91,127.55c-.28,0-.48-.06-.57-.19-.1-.13-.15-.36-.15-.71v-.37l.65-.2v.64h1.7c.12,0,.2-.03.24-.08s.06-.17.06-.33v-.34c0-.17-.02-.28-.06-.34-.04-.06-.12-.09-.24-.09h-1.07v-.75h.95c.12,0,.2-.03.24-.08s.06-.17.06-.34v-.23c0-.17-.02-.28-.06-.34s-.12-.08-.24-.08h-1.56v.58l-.62-.17v-.29c0-.35.05-.58.15-.71s.29-.19.57-.19h1.71c.28,0,.48.06.57.19s.15.36.15.71v.42c0,.27-.04.47-.13.6s-.25.22-.47.27c.25.03.44.13.56.28s.18.37.18.66v.48c0,.38-.06.64-.17.78-.11.14-.31.21-.6.21h-1.83Z"/>
      </g>
    </g>
  </g>
  <g>
    <path class="st0" d="M164.79,62.57v-3.56h1.51c.38,0,.66.03.83.1.17.06.31.18.41.34.1.16.16.35.16.56,0,.27-.08.49-.24.66-.16.17-.39.28-.7.33.16.09.28.19.38.3s.24.3.41.58l.43.69h-.86l-.52-.77c-.18-.28-.31-.45-.38-.52-.07-.07-.14-.12-.22-.15-.08-.03-.2-.04-.36-.04h-.15v1.48h-.72ZM165.51,60.52h.53c.34,0,.56-.01.65-.04.09-.03.15-.08.2-.15s.07-.16.07-.27c0-.12-.03-.22-.1-.29-.06-.07-.15-.12-.27-.14-.06,0-.23-.01-.52-.01h-.56v.9Z"/>
    <circle class="st3" cx="166.22" cy="60.94" r="3.11"/>
  </g>
</svg>