<?xml version="1.0" encoding="UTF-8"?>
<svg id="Layer_1" xmlns="http://www.w3.org/2000/svg" version="1.1" viewBox="0 0 284.22 185.49">
  <!-- Generator: Adobe Illustrator 30.1.0, SVG Export Plug-In . SVG Version: 2.1.1 Build 136)  -->
  <defs>
    <style>
      .st0 {
        fill: #231f20;
      }

      .st1 {
        fill: none;
        stroke: #f1f1f2;
        stroke-miterlimit: 10;
        stroke-width: .25px;
      }
    </style>
  </defs>
  <path class="st0" d="M203.33,120.11c-.13,0-.24.11-.24.24s.11.24.24.24.24-.11.24-.24-.11-.24-.24-.24Z"/>
  <path class="st0" d="M205.32,121.68c-.35-.16-.6-.21-.6-.21-.19-.05-.41-.08-.66-.1-.02-.03-.07-.09-.1-.15-.08-.17-.08-.41.08-.54.08-.06.17-.1.26-.1.07,0,.13.02.18.07.05.04.08.1.07.15,0,.07-.03.12-.04.13l-.07.02s-.01-.04,0-.12c0-.05,0-.1-.03-.14-.03-.04-.07-.07-.12-.08h0c-.12,0-.2.07-.21.16-.02.12-.02.29.08.42.04.05.12.13.28.15h0c.13,0,.23-.04.29-.08.18-.12.21-.34.22-.43,0-.17-.07-.34-.2-.46,0,0-.01,0-.02-.01,0,0,.01,0,.02-.01.13-.12.21-.29.2-.46,0-.09-.03-.32-.22-.43-.06-.04-.16-.08-.26-.08-.18.01-.27.1-.31.15-.08.1-.11.25-.08.42.02.09.1.16.19.16.08-.01.13-.04.16-.08.03-.04.04-.09.03-.14-.01-.08,0-.12,0-.12.08.03.1.08.1.15,0,.05-.03.11-.07.15-.05.05-.11.07-.18.07-.01,0-.03,0-.04,0v-.02h-.09s-.09-.05-.13-.08c-.16-.13-.16-.37-.08-.54.04-.08.1-.14.19-.2.21,0,.42-.04.61-.08.03,0,.26-.06.58-.2-.18.43-.28.89-.28,1.36s.09.9.26,1.32Z"/>
  <path class="st0" d="M208.65,117.27s-.01,0-.02,0c-.05,0-.09,0-.13,0-1.68.02-3.05,1.4-3.05,3.09,0,.93.41,1.8,1.13,2.39.55.46,1.25.71,1.97.71,1.71,0,3.09-1.39,3.09-3.09s-1.33-3.04-2.99-3.09ZM209.68,123.09l-1.51.19-1.4-.59-.92-1.21-.19-1.51.59-1.41,1.21-.92,1.51-.19,1.41.59.92,1.21.2,1.51-.59,1.4-1.21.92Z"/>
  <polygon class="st0" points="208.79 120.54 208.92 120.84 209.11 120.6 208.79 120.54"/>
  <polygon class="st0" points="208.64 120.96 208.92 120.84 208.67 120.63 208.64 120.96"/>
  <polygon class="st0" points="209.15 120.3 209.03 120.02 208.82 120.27 209.15 120.3"/>
  <polygon class="st0" points="209.03 120.02 208.79 119.83 208.73 120.15 209.03 120.02"/>
  <polygon class="st0" points="208.34 120.92 208.64 120.96 208.53 120.65 208.34 120.92"/>
  <polygon class="st0" points="208.79 119.83 208.49 119.79 208.6 120.1 208.79 119.83"/>
  <polygon class="st0" points="208.1 120.73 208.34 120.92 208.39 120.59 208.1 120.73"/>
  <polygon class="st0" points="208.49 119.79 208.21 119.91 208.46 120.12 208.49 119.79"/>
  <polygon class="st0" points="207.98 120.45 208.1 120.73 208.31 120.48 207.98 120.45"/>
  <polygon class="st0" points="208.21 119.91 208.02 120.15 208.34 120.21 208.21 119.91"/>
  <polygon class="st0" points="208.02 120.15 207.98 120.45 208.29 120.34 208.02 120.15"/>
  <polygon class="st0" points="208.74 120.44 208.75 120.4 208.67 120.42 208.72 120.49 208.73 120.45 208.79 120.54 208.84 120.41 208.74 120.44"/>
  <path class="st0" d="M209.32,120.92l.16-.39.79.56,1.21-.32-1.08-.63-.91.33-.05-.42.96.09.89-.88h-1.25s-.62.74-.62.74l-.26-.34.88-.4.33-1.21-1.09.63-.17.95-.39-.16.56-.79-.32-1.21-.63,1.08.33.91-.42.05.09-.96-.88-.89v1.25s.74.62.74.62l-.34.26-.4-.88-1.21-.33.63,1.09.95.17-.16.39-.79-.56-1.21.32,1.09.63.91-.33.05.42-.96-.09-.89.88h1.25l.62-.74.26.34-.88.4-.33,1.21,1.09-.63.16-.95.39.16-.56.79.32,1.21.63-1.08-.33-.91.42-.06-.09.96.88.89v-1.25l-.74-.62.34-.26.4.88,1.21.33-.63-1.09-.95-.17ZM209.26,120.91v.03s-.33-.09-.33-.09v.36s-.03-.02-.03-.02v.03s-.25-.25-.25-.25l-.18.31v-.03s-.03.03-.03.03l-.09-.35-.31.18v-.03s-.02.01-.02.01l.09-.35h-.36s.02-.02.02-.02h-.03s.26-.26.26-.26l-.28-.16-.03-.02h.03s-.02-.03-.02-.03l.35-.09-.18-.31h.03s-.01-.02-.01-.02l.35.09v-.36l.02.02v-.03s.26.26.26.26l.18-.31v.03s.03-.03.03-.03l.09.35.31-.18v.03s.02-.01.02-.01l-.09.35h.36l-.02.02h.03s-.26.26-.26.26l.31.18h-.03s.02.03.02.03l-.35.09.18.31h-.03Z"/>
  <polygon class="st0" points="209.11 120.6 209.13 120.44 209.13 120.44 209.15 120.3 208.84 120.41 209.11 120.6"/>
  <polygon class="st0" points="208.74 120.3 208.68 120.36 208.75 120.4 208.75 120.36 208.84 120.41 208.82 120.27 208.75 120.35 208.74 120.3"/>
  <polygon class="st0" points="208.72 120.49 208.64 120.47 208.64 120.55 208.67 120.53 208.67 120.63 208.79 120.54 208.68 120.52 208.72 120.49"/>
  <polygon class="st0" points="208.68 120.22 208.66 120.3 208.74 120.3 208.72 120.27 208.82 120.27 208.73 120.15 208.71 120.26 208.68 120.22"/>
  <polygon class="st0" points="208.64 120.55 208.58 120.49 208.54 120.56 208.58 120.56 208.53 120.65 208.67 120.63 208.59 120.56 208.64 120.55"/>
  <polygon class="st0" points="208.59 120.19 208.61 120.26 208.68 120.22 208.64 120.21 208.73 120.15 208.6 120.1 208.63 120.2 208.59 120.19"/>
  <polygon class="st0" points="208.54 120.56 208.52 120.49 208.45 120.53 208.49 120.54 208.39 120.59 208.53 120.65 208.5 120.55 208.54 120.56"/>
  <polygon class="st0" points="208.49 120.2 208.55 120.26 208.59 120.19 208.55 120.19 208.6 120.1 208.46 120.12 208.53 120.19 208.49 120.2"/>
  <polygon class="st0" points="208.45 120.53 208.47 120.45 208.39 120.45 208.41 120.48 208.31 120.48 208.39 120.59 208.42 120.49 208.45 120.53"/>
  <polygon class="st0" points="208.41 120.26 208.49 120.28 208.49 120.2 208.46 120.22 208.46 120.12 208.34 120.21 208.45 120.23 208.41 120.26"/>
  <polygon class="st0" points="208.39 120.45 208.45 120.39 208.38 120.35 208.38 120.39 208.29 120.34 208.31 120.48 208.38 120.41 208.39 120.45"/>
  <polygon class="st0" points="208.38 120.35 208.45 120.33 208.41 120.26 208.4 120.3 208.34 120.21 208.29 120.34 208.39 120.31 208.38 120.35"/>
  <polygon class="st0" points="208.65 120.44 208.67 120.39 208.63 120.4 208.65 120.44"/>
  <polygon class="st0" points="208.63 120.37 208.67 120.39 208.66 120.33 208.63 120.37"/>
  <polygon class="st0" points="208.6 120.47 208.65 120.44 208.6 120.43 208.6 120.47"/>
  <polygon class="st0" points="208.66 120.33 208.63 120.29 208.62 120.33 208.66 120.33"/>
  <polygon class="st0" points="208.55 120.48 208.6 120.47 208.57 120.44 208.55 120.48"/>
  <polygon class="st0" points="208.63 120.29 208.58 120.27 208.59 120.31 208.63 120.29"/>
  <polygon class="st0" points="208.5 120.46 208.55 120.48 208.54 120.44 208.5 120.46"/>
  <polygon class="st0" points="208.58 120.27 208.52 120.28 208.56 120.31 208.58 120.27"/>
  <polygon class="st0" points="208.47 120.42 208.5 120.46 208.51 120.42 208.47 120.42"/>
  <polygon class="st0" points="208.52 120.28 208.48 120.31 208.52 120.32 208.52 120.28"/>
  <polygon class="st0" points="208.46 120.36 208.47 120.42 208.5 120.38 208.46 120.36"/>
  <polygon class="st0" points="208.48 120.31 208.46 120.36 208.5 120.35 208.48 120.31"/>
  <path class="st0" d="M203.19,112.86s-.05,0-.07,0c-.91.01-1.64.75-1.64,1.66,0,.5.22.97.61,1.28.3.25.67.38,1.06.38.92,0,1.67-.75,1.67-1.67s-.72-1.63-1.61-1.66h0ZM204.11,113.28l.5.65.1.81-.32.76-.65.5-.81.1-.76-.31-.5-.65-.1-.81.32-.76.65-.5.81-.1.76.32Z"/>
  <polygon class="st0" points="203.34 114.78 203.44 114.65 203.27 114.62 203.34 114.78"/>
  <polygon class="st0" points="203.19 114.84 203.34 114.78 203.2 114.67 203.19 114.84"/>
  <polygon class="st0" points="203.46 114.49 203.4 114.34 203.28 114.47 203.46 114.49"/>
  <polygon class="st0" points="203.4 114.34 203.27 114.24 203.24 114.41 203.4 114.34"/>
  <polygon class="st0" points="203.03 114.82 203.19 114.84 203.13 114.68 203.03 114.82"/>
  <polygon class="st0" points="203.17 114.38 203.27 114.24 203.11 114.22 203.17 114.38"/>
  <polygon class="st0" points="202.9 114.72 203.03 114.82 203.06 114.65 202.9 114.72"/>
  <polygon class="st0" points="203.11 114.22 202.96 114.28 203.09 114.39 203.11 114.22"/>
  <polygon class="st0" points="202.83 114.57 202.9 114.72 203.01 114.59 202.83 114.57"/>
  <polygon class="st0" points="202.96 114.28 202.86 114.41 203.03 114.44 202.96 114.28"/>
  <polygon class="st0" points="202.86 114.41 202.83 114.57 203 114.51 202.86 114.41"/>
  <polygon class="st0" points="203.25 114.54 203.21 114.55 203.23 114.59 203.24 114.57 203.27 114.62 203.29 114.55 203.24 114.56 203.25 114.54"/>
  <path class="st0" d="M203.2,114.03l-.23.03.05-.52-.47-.48v.67s.4.33.4.33l-.18.14-.22-.47-.65-.18.34.58.51.09-.09.21-.42-.3-.65.17.58.34.49-.18.03.23-.52-.05-.48.47h.68l.33-.4.14.18-.47.22-.18.65.58-.34.09-.51.21.09-.3.42.17.65.34-.58-.18-.49.23-.03-.05.52.47.48v-.67l-.4-.33.18-.14.22.47.65.18-.34-.59-.51-.09.09-.21.42.3.65-.17-.58-.34-.49.18-.03-.23.52.05.48-.47h-.67s-.33.4-.33.4l-.14-.18.47-.22.18-.65-.59.34-.09.51-.21-.09.3-.42-.17-.65-.34.58.18.49ZM203.21,114.06h0s.05.17.05.17l.17-.1v.02s.01,0,.01,0l-.05.19h.19-.01s.02.01.02.01l-.14.14.17.1h-.02s.01.02.01.02l-.19.05.1.17h-.02s0,.01,0,.01l-.19-.05v.19s-.01-.01-.01-.01v.02s-.14-.14-.14-.14l-.1.17v-.02s-.02.01-.02.01l-.05-.19-.17.1v-.02s-.01,0-.01,0l.05-.19h-.19s.01-.01.01-.01h-.02s.14-.14.14-.14l-.15-.09h-.02s.02-.02.02-.02h-.01s.19-.06.19-.06l-.1-.17h.02s0-.01,0-.01l.19.05v-.19h.01s0,0,0,0l.14.14.1-.17v.02Z"/>
  <polygon class="st0" points="203.44 114.65 203.45 114.56 203.45 114.56 203.46 114.49 203.29 114.55 203.44 114.65"/>
  <polygon class="st0" points="203.24 114.49 203.21 114.52 203.25 114.54 203.24 114.52 203.29 114.55 203.28 114.47 203.24 114.51 203.24 114.49"/>
  <polygon class="st0" points="203.23 114.59 203.19 114.58 203.19 114.62 203.2 114.61 203.2 114.67 203.27 114.62 203.21 114.6 203.23 114.59"/>
  <polygon class="st0" points="203.21 114.45 203.2 114.49 203.24 114.49 203.23 114.47 203.28 114.47 203.24 114.41 203.22 114.46 203.21 114.45"/>
  <polygon class="st0" points="203.19 114.62 203.16 114.59 203.13 114.63 203.16 114.63 203.13 114.68 203.2 114.67 203.16 114.63 203.19 114.62"/>
  <polygon class="st0" points="203.16 114.43 203.17 114.47 203.21 114.45 203.19 114.44 203.24 114.41 203.17 114.38 203.18 114.43 203.16 114.43"/>
  <polygon class="st0" points="203.13 114.63 203.12 114.59 203.08 114.61 203.11 114.62 203.06 114.65 203.13 114.68 203.11 114.62 203.13 114.63"/>
  <polygon class="st0" points="203.13 114.43 203.11 114.43 203.14 114.46 203.16 114.43 203.14 114.43 203.17 114.38 203.09 114.39 203.13 114.43"/>
  <polygon class="st0" points="203.08 114.61 203.1 114.57 203.05 114.57 203.07 114.59 203.01 114.59 203.06 114.65 203.07 114.59 203.08 114.61"/>
  <polygon class="st0" points="203.07 114.47 203.11 114.48 203.11 114.43 203.09 114.45 203.09 114.39 203.03 114.44 203.08 114.45 203.07 114.47"/>
  <polygon class="st0" points="203.05 114.57 203.08 114.54 203.04 114.51 203.05 114.54 203 114.51 203.01 114.59 203.05 114.54 203.05 114.57"/>
  <polygon class="st0" points="203.04 114.51 203.09 114.5 203.07 114.47 203.06 114.49 203.03 114.44 203 114.51 203.05 114.49 203.04 114.51"/>
  <polygon class="st0" points="203.19 114.56 203.2 114.54 203.18 114.54 203.19 114.56"/>
  <polygon class="st0" points="203.2 114.54 203.2 114.51 203.18 114.52 203.2 114.54"/>
  <polygon class="st0" points="203.17 114.58 203.19 114.56 203.17 114.56 203.17 114.58"/>
  <polygon class="st0" points="203.2 114.51 203.18 114.48 203.18 114.51 203.2 114.51"/>
  <polygon class="st0" points="203.14 114.58 203.17 114.58 203.15 114.56 203.14 114.58"/>
  <polygon class="st0" points="203.18 114.48 203.15 114.47 203.16 114.49 203.18 114.48"/>
  <polygon class="st0" points="203.11 114.57 203.14 114.58 203.13 114.56 203.11 114.57"/>
  <polygon class="st0" points="203.15 114.47 203.12 114.48 203.14 114.49 203.15 114.47"/>
  <polygon class="st0" points="203.09 114.55 203.11 114.57 203.12 114.55 203.09 114.55"/>
  <polygon class="st0" points="203.12 114.5 203.12 114.48 203.1 114.49 203.12 114.5"/>
  <polygon class="st0" points="203.09 114.52 203.09 114.55 203.11 114.53 203.09 114.52"/>
  <polygon class="st0" points="203.1 114.49 203.09 114.52 203.11 114.51 203.1 114.49"/>
  <path class="st0" d="M204.83,126.21c0-.9-.72-1.63-1.61-1.66h0s-.05,0-.07,0c-.91.01-1.64.75-1.64,1.66,0,.5.22.97.61,1.28.3.25.67.38,1.06.38.92,0,1.67-.75,1.67-1.67ZM202.96,127.79l-.76-.31-.5-.65-.1-.81.32-.76.65-.5.81-.1.76.32.5.65.1.81-.32.76-.65.5-.81.1Z"/>
  <polygon class="st0" points="203.29 126.31 203.36 126.47 203.46 126.34 203.29 126.31"/>
  <polygon class="st0" points="203.21 126.54 203.36 126.47 203.23 126.36 203.21 126.54"/>
  <polygon class="st0" points="203.48 126.18 203.42 126.03 203.31 126.17 203.48 126.18"/>
  <polygon class="st0" points="203.42 126.03 203.29 125.93 203.26 126.1 203.42 126.03"/>
  <polygon class="st0" points="203.05 126.51 203.21 126.54 203.15 126.37 203.05 126.51"/>
  <polygon class="st0" points="203.29 125.93 203.13 125.91 203.19 126.08 203.29 125.93"/>
  <polygon class="st0" points="202.92 126.41 203.05 126.51 203.08 126.34 202.92 126.41"/>
  <polygon class="st0" points="203.13 125.91 202.98 125.97 203.11 126.08 203.13 125.91"/>
  <polygon class="st0" points="202.86 126.26 202.92 126.41 203.03 126.28 202.86 126.26"/>
  <polygon class="st0" points="202.98 125.97 202.88 126.1 203.05 126.13 202.98 125.97"/>
  <polygon class="st0" points="202.88 126.1 202.86 126.26 203.02 126.2 202.88 126.1"/>
  <polygon class="st0" points="203.27 126.26 203.27 126.24 203.23 126.25 203.25 126.29 203.26 126.26 203.29 126.31 203.32 126.24 203.27 126.26"/>
  <path class="st0" d="M203.38,126.68l.18-.14.22.47.65.18-.34-.59-.51-.09.09-.21.42.3.65-.17-.58-.34-.49.18-.03-.23.52.05.48-.47h-.67s-.33.4-.33.4l-.14-.18.47-.22.18-.65-.59.34-.09.51-.21-.09.3-.42-.17-.65-.34.58.18.49-.23.03.05-.52-.47-.48v.67s.4.33.4.33l-.18.14-.22-.47-.65-.18.34.58.51.09-.09.21-.42-.3-.65.17.58.34.49-.18.03.23-.52-.05-.48.47h.68l.33-.4.14.18-.47.22-.18.65.58-.34.09-.51.21.09-.3.42.17.65.34-.58-.18-.49.23-.03-.05.52.47.48v-.67l-.4-.33ZM203.36,126.67h-.01s0,0,0,0l-.14-.14-.1.17v-.02s-.02.01-.02.01l-.05-.19-.17.1v-.02s-.01,0-.01,0l.05-.19h-.19s.01-.01.01-.01h-.02s.14-.14.14-.14l-.15-.09h-.02s.02-.02.02-.02h-.01s.19-.06.19-.06l-.1-.17h.02s0-.01,0-.01l.19.05v-.19h.01s0,0,0,0l.14.14.1-.17v.02s.02-.01.02-.01l.05.19.17-.1v.02s.01,0,.01,0l-.05.19h.19-.01s.02.01.02.01l-.14.14.17.1h-.02s.01.02.01.02l-.19.05.1.17h-.02s0,.01,0,.01l-.19-.05v.19Z"/>
  <polygon class="st0" points="203.46 126.34 203.48 126.26 203.47 126.26 203.48 126.18 203.32 126.24 203.46 126.34"/>
  <polygon class="st0" points="203.27 126.18 203.24 126.21 203.27 126.24 203.27 126.21 203.32 126.24 203.31 126.17 203.27 126.21 203.27 126.18"/>
  <polygon class="st0" points="203.25 126.29 203.21 126.27 203.21 126.32 203.23 126.3 203.23 126.36 203.29 126.31 203.24 126.3 203.25 126.29"/>
  <polygon class="st0" points="203.23 126.14 203.22 126.18 203.27 126.18 203.25 126.17 203.31 126.17 203.26 126.1 203.25 126.16 203.23 126.14"/>
  <polygon class="st0" points="203.21 126.32 203.18 126.29 203.16 126.32 203.18 126.32 203.15 126.37 203.23 126.36 203.19 126.32 203.21 126.32"/>
  <polygon class="st0" points="203.19 126.12 203.2 126.16 203.23 126.14 203.21 126.13 203.26 126.1 203.19 126.08 203.21 126.13 203.19 126.12"/>
  <polygon class="st0" points="203.16 126.32 203.15 126.28 203.11 126.3 203.13 126.31 203.08 126.34 203.15 126.37 203.14 126.32 203.16 126.32"/>
  <polygon class="st0" points="203.13 126.13 203.16 126.16 203.19 126.12 203.16 126.12 203.19 126.08 203.11 126.08 203.15 126.13 203.13 126.13"/>
  <polygon class="st0" points="203.11 126.3 203.12 126.26 203.08 126.26 203.09 126.28 203.03 126.28 203.08 126.34 203.1 126.29 203.11 126.3"/>
  <polygon class="st0" points="203.09 126.16 203.13 126.17 203.13 126.13 203.11 126.14 203.11 126.08 203.05 126.13 203.11 126.15 203.09 126.16"/>
  <polygon class="st0" points="203.08 126.26 203.11 126.23 203.07 126.21 203.07 126.23 203.02 126.2 203.03 126.28 203.07 126.24 203.08 126.26"/>
  <polygon class="st0" points="203.07 126.21 203.11 126.2 203.09 126.16 203.08 126.18 203.05 126.13 203.02 126.2 203.08 126.19 203.07 126.21"/>
  <polygon class="st0" points="203.22 126.26 203.23 126.23 203.21 126.24 203.22 126.26"/>
  <polygon class="st0" points="203.21 126.22 203.23 126.23 203.22 126.2 203.21 126.22"/>
  <polygon class="st0" points="203.19 126.28 203.22 126.26 203.19 126.25 203.19 126.28"/>
  <polygon class="st0" points="203.22 126.2 203.21 126.18 203.2 126.2 203.22 126.2"/>
  <polygon class="st0" points="203.16 126.28 203.19 126.28 203.18 126.26 203.16 126.28"/>
  <polygon class="st0" points="203.21 126.18 203.18 126.17 203.19 126.19 203.21 126.18"/>
  <polygon class="st0" points="203.14 126.27 203.16 126.28 203.16 126.26 203.14 126.27"/>
  <polygon class="st0" points="203.18 126.17 203.15 126.17 203.17 126.19 203.18 126.17"/>
  <polygon class="st0" points="203.12 126.25 203.14 126.27 203.14 126.25 203.12 126.25"/>
  <polygon class="st0" points="203.15 126.17 203.13 126.19 203.15 126.19 203.15 126.17"/>
  <polygon class="st0" points="203.11 126.22 203.12 126.25 203.14 126.23 203.11 126.22"/>
  <polygon class="st0" points="203.13 126.19 203.11 126.22 203.14 126.21 203.13 126.19"/>
  <path class="st0" d="M78.72,121.68c.17-.42.26-.87.26-1.32s-.09-.93-.28-1.36c.33.15.56.2.58.2.19.05.39.08.65.1.05.04.12.11.15.19.08.17.08.41-.08.54-.08.06-.17.1-.26.1-.07,0-.13-.02-.18-.07-.05-.04-.08-.1-.07-.16,0-.07.03-.12.04-.13l.07-.02s.01.05,0,.12c0,.05,0,.1.03.14.03.04.07.07.13.08h0c.12,0,.2-.07.21-.16.03-.17,0-.31-.08-.42-.05-.06-.13-.13-.28-.14h0c-.12,0-.22.04-.29.08-.18.12-.21.34-.22.43,0,.17.06.33.2.46,0,0,.01,0,.02.01,0,0-.01,0-.02.01-.13.12-.21.29-.2.46,0,.09.03.32.22.43.06.04.16.08.26.08.18-.01.26-.09.31-.15.1-.13.1-.3.08-.42-.01-.09-.09-.16-.19-.16-.13.02-.21.12-.19.22.01.07,0,.11,0,.12-.08-.03-.1-.08-.1-.15,0-.05.03-.11.07-.16.05-.05.11-.07.18-.07.09,0,.18.04.26.1.16.13.16.37.08.54-.03.06-.08.12-.14.17-.21,0-.42.03-.61.08-.03,0-.27.06-.6.22Z"/>
  <path class="st0" d="M80.75,120.11c-.13,0-.24.11-.24.24s.11.24.24.24.24-.11.24-.24-.11-.24-.24-.24Z"/>
  <path class="st0" d="M75.59,117.27s-.01,0-.02,0c-.05,0-.09,0-.13,0-1.68.02-3.05,1.4-3.05,3.09,0,.93.41,1.8,1.12,2.39.55.46,1.25.71,1.97.71,1.71,0,3.09-1.39,3.09-3.09s-1.33-3.04-2.99-3.09ZM76.62,123.09l-1.51.19-1.4-.59-.93-1.21-.19-1.51.59-1.41,1.21-.92,1.51-.19,1.41.59.92,1.21.19,1.51-.59,1.41-1.21.92Z"/>
  <polygon class="st0" points="75.72 120.54 75.86 120.84 76.04 120.6 75.72 120.54"/>
  <polygon class="st0" points="75.58 120.96 75.86 120.84 75.61 120.63 75.58 120.96"/>
  <polygon class="st0" points="76.08 120.3 75.97 120.02 75.76 120.27 76.08 120.3"/>
  <polygon class="st0" points="75.97 120.02 75.73 119.83 75.67 120.15 75.97 120.02"/>
  <polygon class="st0" points="75.28 120.92 75.58 120.96 75.46 120.65 75.28 120.92"/>
  <polygon class="st0" points="75.73 119.83 75.43 119.79 75.54 120.1 75.73 119.83"/>
  <polygon class="st0" points="75.03 120.73 75.28 120.92 75.33 120.59 75.03 120.73"/>
  <polygon class="st0" points="75.43 119.79 75.15 119.91 75.39 120.12 75.43 119.79"/>
  <polygon class="st0" points="74.92 120.45 75.03 120.73 75.24 120.48 74.92 120.45"/>
  <polygon class="st0" points="75.15 119.91 74.96 120.15 75.28 120.2 75.15 119.91"/>
  <polygon class="st0" points="74.96 120.15 74.92 120.45 75.22 120.34 74.96 120.15"/>
  <polygon class="st0" points="75.67 120.44 75.69 120.4 75.61 120.42 75.65 120.49 75.67 120.45 75.72 120.54 75.78 120.41 75.67 120.44"/>
  <path class="st0" d="M76.25,120.92l.16-.39.79.56,1.21-.32-1.08-.63-.91.33-.05-.42.96.09.89-.88h-1.25s-.62.74-.62.74l-.26-.34.88-.4.33-1.21-1.09.63-.17.95-.39-.16.56-.79-.32-1.21-.63,1.08.33.91-.42.05.09-.96-.88-.89v1.25s.74.62.74.62l-.34.26-.4-.88-1.21-.33.63,1.09.95.17-.16.39-.79-.56-1.21.32,1.09.63.91-.33.05.42-.96-.09-.89.88h1.25l.62-.74.26.34-.88.4-.33,1.21,1.09-.63.16-.95.39.16-.56.79.32,1.21.63-1.08-.33-.91.42-.06-.09.96.88.89v-1.25l-.74-.62.34-.26.4.88,1.21.33-.63-1.09-.95-.17ZM76.19,120.91v.03s-.33-.09-.33-.09v.36s-.03-.02-.03-.02v.03s-.25-.25-.25-.25l-.18.31v-.03s-.03.03-.03.03l-.09-.35-.31.18v-.03s-.02.01-.02.01l.09-.35h-.36s.02-.02.02-.02h-.03s.26-.26.26-.26l-.28-.16-.03-.02h.03s-.03-.03-.03-.03l.35-.09-.18-.31h.03s-.01-.02-.01-.02l.35.09v-.36l.02.02v-.03s.26.26.26.26l.18-.31v.03s.03-.03.03-.03l.09.35.31-.18v.03s.02-.01.02-.01l-.09.35h.36l-.02.02h.03s-.26.26-.26.26l.31.18h-.03s.02.03.02.03l-.35.09.18.31h-.03Z"/>
  <polygon class="st0" points="76.04 120.6 76.06 120.44 76.06 120.44 76.08 120.3 75.78 120.41 76.04 120.6"/>
  <polygon class="st0" points="75.68 120.3 75.62 120.36 75.69 120.4 75.68 120.36 75.78 120.41 75.76 120.27 75.68 120.34 75.68 120.3"/>
  <polygon class="st0" points="75.65 120.49 75.57 120.47 75.57 120.55 75.61 120.53 75.61 120.63 75.72 120.54 75.62 120.52 75.65 120.49"/>
  <polygon class="st0" points="75.62 120.22 75.6 120.3 75.68 120.3 75.65 120.27 75.76 120.27 75.67 120.15 75.64 120.26 75.62 120.22"/>
  <polygon class="st0" points="75.57 120.55 75.52 120.49 75.47 120.56 75.52 120.56 75.46 120.65 75.61 120.63 75.53 120.56 75.57 120.55"/>
  <polygon class="st0" points="75.53 120.19 75.55 120.26 75.62 120.22 75.58 120.21 75.67 120.15 75.54 120.1 75.56 120.2 75.53 120.19"/>
  <polygon class="st0" points="75.47 120.56 75.45 120.49 75.38 120.53 75.42 120.54 75.33 120.59 75.46 120.65 75.44 120.55 75.47 120.56"/>
  <polygon class="st0" points="75.43 120.2 75.48 120.26 75.53 120.19 75.48 120.19 75.54 120.1 75.39 120.12 75.47 120.19 75.43 120.2"/>
  <polygon class="st0" points="75.38 120.53 75.41 120.45 75.32 120.45 75.35 120.48 75.24 120.48 75.33 120.59 75.36 120.49 75.38 120.53"/>
  <polygon class="st0" points="75.35 120.26 75.43 120.28 75.43 120.2 75.39 120.22 75.39 120.12 75.28 120.2 75.38 120.23 75.35 120.26"/>
  <polygon class="st0" points="75.32 120.45 75.38 120.39 75.31 120.35 75.32 120.39 75.22 120.34 75.24 120.48 75.32 120.41 75.32 120.45"/>
  <polygon class="st0" points="75.31 120.35 75.39 120.33 75.35 120.26 75.33 120.3 75.28 120.2 75.22 120.34 75.33 120.31 75.31 120.35"/>
  <polygon class="st0" points="75.59 120.44 75.61 120.39 75.56 120.4 75.59 120.44"/>
  <polygon class="st0" points="75.57 120.37 75.61 120.39 75.6 120.33 75.57 120.37"/>
  <polygon class="st0" points="75.54 120.47 75.59 120.44 75.54 120.43 75.54 120.47"/>
  <polygon class="st0" points="75.6 120.33 75.57 120.29 75.55 120.33 75.6 120.33"/>
  <polygon class="st0" points="75.49 120.48 75.54 120.47 75.51 120.44 75.49 120.48"/>
  <polygon class="st0" points="75.57 120.29 75.51 120.27 75.53 120.31 75.57 120.29"/>
  <polygon class="st0" points="75.44 120.46 75.49 120.48 75.48 120.44 75.44 120.46"/>
  <polygon class="st0" points="75.51 120.27 75.46 120.28 75.49 120.31 75.51 120.27"/>
  <polygon class="st0" points="75.4 120.42 75.44 120.46 75.45 120.42 75.4 120.42"/>
  <polygon class="st0" points="75.46 120.28 75.42 120.31 75.46 120.32 75.46 120.28"/>
  <polygon class="st0" points="75.39 120.36 75.4 120.42 75.43 120.38 75.39 120.36"/>
  <polygon class="st0" points="75.42 120.31 75.39 120.36 75.44 120.35 75.42 120.31"/>
  <path class="st0" d="M79.24,114.52c0,.5.22.97.61,1.28.3.25.67.38,1.06.38.92,0,1.67-.75,1.67-1.67s-.72-1.63-1.61-1.66h0s-.05,0-.07,0c-.91.01-1.64.75-1.64,1.66ZM81.12,112.96l.76.32.5.65.11.81-.32.76-.65.5-.81.1-.76-.31-.5-.65-.1-.81.32-.76.65-.5.81-.1Z"/>
  <polygon class="st0" points="81.1 114.78 81.2 114.65 81.03 114.62 81.1 114.78"/>
  <polygon class="st0" points="80.95 114.84 81.1 114.78 80.97 114.67 80.95 114.84"/>
  <polygon class="st0" points="81.22 114.49 81.16 114.34 81.05 114.47 81.22 114.49"/>
  <polygon class="st0" points="81.16 114.34 81.03 114.24 81 114.41 81.16 114.34"/>
  <polygon class="st0" points="80.79 114.82 80.95 114.84 80.89 114.68 80.79 114.82"/>
  <polygon class="st0" points="81.03 114.24 80.87 114.22 80.93 114.38 81.03 114.24"/>
  <polygon class="st0" points="80.66 114.72 80.79 114.82 80.82 114.65 80.66 114.72"/>
  <polygon class="st0" points="80.87 114.22 80.72 114.28 80.85 114.39 80.87 114.22"/>
  <polygon class="st0" points="80.6 114.57 80.66 114.72 80.77 114.59 80.6 114.57"/>
  <polygon class="st0" points="80.79 114.44 80.72 114.28 80.62 114.41 80.79 114.44"/>
  <polygon class="st0" points="80.62 114.41 80.6 114.57 80.76 114.51 80.62 114.41"/>
  <polygon class="st0" points="81.01 114.54 80.97 114.55 80.99 114.59 81 114.57 81.03 114.62 81.06 114.55 81 114.56 81.01 114.54"/>
  <path class="st0" d="M80.71,114.07l-.18.14-.22-.47-.65-.18.34.58.51.09-.09.21-.42-.3-.65.17.58.34.49-.18.03.23-.52-.05-.48.47h.67l.33-.4.14.18-.47.22-.18.65.58-.34.09-.51.21.09-.3.42.17.65.34-.58-.18-.49.23-.03-.05.52.47.48v-.67l-.4-.33.18-.14.22.47.65.18-.34-.59-.51-.09.09-.21.42.3.65-.17-.58-.34-.49.18-.03-.23.52.05.48-.47h-.67s-.33.4-.33.4l-.14-.18.47-.22.18-.65-.59.34-.09.51-.21-.09.3-.42-.17-.65-.34.58.18.49-.23.03.05-.52-.47-.48v.67s.4.33.4.33ZM80.72,114.08h.01s0,0,0,0l.14.14.1-.17v.02s.02-.01.02-.01l.05.19.17-.1v.02s.01,0,.01,0l-.05.19h.19-.01s.02.01.02.01l-.14.14.17.1h-.02s.01.02.01.02l-.19.05.1.17h-.02s0,.01,0,.01l-.19-.05v.19s-.01-.01-.01-.01v.02s-.14-.14-.14-.14l-.1.17v-.02s-.02.01-.02.01l-.05-.19-.17.1v-.02s-.01,0-.01,0l.05-.19h-.19s.01-.01.01-.01h-.02s.14-.14.14-.14l-.15-.09h-.02s.02-.02.02-.02h-.01s.19-.06.19-.06l-.1-.17h.02s0-.01,0-.01l.19.05v-.19Z"/>
  <polygon class="st0" points="81.2 114.65 81.21 114.56 81.21 114.56 81.22 114.49 81.06 114.55 81.2 114.65"/>
  <polygon class="st0" points="81 114.49 80.97 114.52 81.01 114.54 81.01 114.52 81.06 114.55 81.05 114.47 81.01 114.51 81 114.49"/>
  <polygon class="st0" points="80.99 114.59 80.95 114.58 80.95 114.62 80.97 114.61 80.97 114.67 81.03 114.62 80.97 114.6 80.99 114.59"/>
  <polygon class="st0" points="80.97 114.45 80.96 114.49 81 114.49 80.99 114.47 81.05 114.47 81 114.41 80.99 114.46 80.97 114.45"/>
  <polygon class="st0" points="80.95 114.62 80.92 114.59 80.9 114.63 80.92 114.63 80.89 114.68 80.97 114.67 80.93 114.63 80.95 114.62"/>
  <polygon class="st0" points="80.92 114.43 80.93 114.47 80.97 114.45 80.95 114.44 81 114.41 80.93 114.38 80.94 114.43 80.92 114.43"/>
  <polygon class="st0" points="80.9 114.63 80.88 114.59 80.85 114.61 80.87 114.62 80.82 114.65 80.89 114.68 80.88 114.62 80.9 114.63"/>
  <polygon class="st0" points="80.87 114.43 80.9 114.46 80.92 114.43 80.9 114.43 80.93 114.38 80.85 114.39 80.89 114.43 80.87 114.43"/>
  <polygon class="st0" points="80.85 114.61 80.86 114.57 80.82 114.57 80.83 114.59 80.77 114.59 80.82 114.65 80.83 114.59 80.85 114.61"/>
  <polygon class="st0" points="80.83 114.47 80.87 114.48 80.87 114.43 80.85 114.45 80.85 114.39 80.79 114.44 80.85 114.45 80.83 114.47"/>
  <polygon class="st0" points="80.82 114.57 80.85 114.54 80.81 114.51 80.81 114.54 80.76 114.51 80.77 114.59 80.81 114.54 80.82 114.57"/>
  <polygon class="st0" points="80.82 114.49 80.81 114.51 80.85 114.5 80.83 114.47 80.82 114.49 80.79 114.44 80.76 114.51 80.82 114.49"/>
  <polygon class="st0" points="80.96 114.56 80.97 114.54 80.94 114.54 80.96 114.56"/>
  <polygon class="st0" points="80.97 114.54 80.96 114.51 80.95 114.52 80.97 114.54"/>
  <polygon class="st0" points="80.93 114.58 80.96 114.56 80.93 114.56 80.93 114.58"/>
  <polygon class="st0" points="80.96 114.51 80.95 114.48 80.94 114.51 80.96 114.51"/>
  <polygon class="st0" points="80.9 114.58 80.93 114.58 80.91 114.56 80.9 114.58"/>
  <polygon class="st0" points="80.95 114.48 80.92 114.47 80.92 114.49 80.95 114.48"/>
  <polygon class="st0" points="80.87 114.57 80.9 114.58 80.9 114.56 80.87 114.57"/>
  <polygon class="st0" points="80.92 114.47 80.89 114.48 80.9 114.49 80.92 114.47"/>
  <polygon class="st0" points="80.86 114.55 80.87 114.57 80.88 114.55 80.86 114.55"/>
  <polygon class="st0" points="80.89 114.48 80.87 114.49 80.89 114.5 80.89 114.48"/>
  <polygon class="st0" points="80.87 114.53 80.85 114.52 80.86 114.55 80.87 114.53"/>
  <polygon class="st0" points="80.87 114.49 80.85 114.52 80.88 114.51 80.87 114.49"/>
  <path class="st0" d="M82.61,126.15c0-.9-.72-1.63-1.61-1.66h0s-.05,0-.07,0c-.91.01-1.64.75-1.64,1.66,0,.5.22.97.61,1.28.3.25.67.38,1.06.38.92,0,1.67-.75,1.67-1.67ZM79.98,127.41l-.5-.65-.1-.81.32-.76.65-.5.81-.1.76.32.5.65.1.81-.32.76-.65.5-.81.1-.76-.31Z"/>
  <polygon class="st0" points="81.14 126.41 81.24 126.28 81.07 126.25 81.14 126.41"/>
  <polygon class="st0" points="80.99 126.47 81.14 126.41 81.01 126.29 80.99 126.47"/>
  <polygon class="st0" points="81.26 126.12 81.2 125.96 81.09 126.1 81.26 126.12"/>
  <polygon class="st0" points="81.2 125.96 81.07 125.86 81.04 126.04 81.2 125.96"/>
  <polygon class="st0" points="80.93 126.3 80.83 126.45 80.99 126.47 80.93 126.3"/>
  <polygon class="st0" points="81.07 125.86 80.91 125.84 80.97 126.01 81.07 125.86"/>
  <polygon class="st0" points="80.7 126.35 80.83 126.45 80.86 126.27 80.7 126.35"/>
  <polygon class="st0" points="80.91 125.84 80.76 125.9 80.89 126.02 80.91 125.84"/>
  <polygon class="st0" points="80.64 126.2 80.7 126.35 80.81 126.21 80.64 126.2"/>
  <polygon class="st0" points="80.76 125.9 80.66 126.03 80.83 126.06 80.76 125.9"/>
  <polygon class="st0" points="80.66 126.03 80.64 126.2 80.8 126.14 80.66 126.03"/>
  <polygon class="st0" points="81.05 126.17 81.01 126.18 81.03 126.22 81.04 126.2 81.07 126.25 81.1 126.18 81.04 126.19 81.05 126.17"/>
  <path class="st0" d="M80.9,126.65l.23-.03-.05.52.48.48v-.67l-.4-.33.18-.14.22.47.65.18-.34-.59-.51-.09.09-.21.42.3.65-.17-.58-.34-.49.18-.03-.23.52.05.48-.47h-.67s-.33.4-.33.4l-.14-.18.47-.22.18-.65-.59.34-.09.51-.21-.09.3-.42-.17-.65-.34.58.18.49-.23.03.05-.52-.47-.48v.67s.4.33.4.33l-.18.14-.22-.47-.65-.18.34.58.51.09-.09.21-.42-.3-.65.17.58.34.49-.18.03.23-.52-.05-.48.47h.67l.33-.4.14.18-.47.22-.18.65.58-.34.09-.51.21.09-.3.42.17.65.34-.58-.18-.49ZM80.89,126.62h-.01s-.05-.17-.05-.17l-.17.1v-.02s-.01,0-.01,0l.05-.19h-.19s.01-.01.01-.01h-.02s.14-.14.14-.14l-.15-.09h-.02s.02-.02.02-.02h-.01s.19-.06.19-.06l-.1-.17h.02s0-.01,0-.01l.19.05v-.19h.01s0,0,0,0l.14.14.1-.17v.02s.02-.01.02-.01l.05.19.17-.1v.02s.01,0,.01,0l-.05.19h.19-.01s.02.01.02.01l-.14.14.17.1h-.02s.01.02.01.02l-.19.05.1.17h-.02s0,.01,0,.01l-.19-.05v.19s-.01-.01-.01-.01v.02s-.14-.14-.14-.14l-.1.17v-.02Z"/>
  <polygon class="st0" points="81.24 126.28 81.25 126.19 81.25 126.19 81.26 126.12 81.1 126.18 81.24 126.28"/>
  <polygon class="st0" points="81.04 126.12 81.01 126.15 81.05 126.17 81.05 126.15 81.1 126.18 81.09 126.1 81.05 126.14 81.04 126.12"/>
  <polygon class="st0" points="81.03 126.22 80.99 126.21 80.99 126.25 81.01 126.24 81.01 126.29 81.07 126.25 81.01 126.23 81.03 126.22"/>
  <polygon class="st0" points="81.01 126.07 81 126.12 81.04 126.12 81.03 126.1 81.09 126.1 81.04 126.04 81.03 126.09 81.01 126.07"/>
  <polygon class="st0" points="80.97 126.25 80.99 126.25 80.96 126.22 80.93 126.26 80.96 126.25 80.93 126.3 81.01 126.29 80.97 126.25"/>
  <polygon class="st0" points="80.96 126.05 80.97 126.1 81.01 126.07 80.99 126.06 81.04 126.04 80.97 126.01 80.98 126.06 80.96 126.05"/>
  <polygon class="st0" points="80.93 126.26 80.92 126.21 80.89 126.24 80.91 126.25 80.86 126.27 80.93 126.3 80.91 126.25 80.93 126.26"/>
  <polygon class="st0" points="80.91 126.06 80.94 126.09 80.96 126.05 80.94 126.06 80.97 126.01 80.89 126.02 80.93 126.06 80.91 126.06"/>
  <polygon class="st0" points="80.89 126.24 80.9 126.19 80.85 126.19 80.87 126.21 80.81 126.21 80.86 126.27 80.87 126.22 80.89 126.24"/>
  <polygon class="st0" points="80.87 126.09 80.91 126.1 80.91 126.06 80.89 126.07 80.89 126.02 80.83 126.06 80.89 126.08 80.87 126.09"/>
  <polygon class="st0" points="80.85 126.19 80.88 126.16 80.85 126.14 80.85 126.16 80.8 126.14 80.81 126.21 80.85 126.17 80.85 126.19"/>
  <polygon class="st0" points="80.85 126.14 80.89 126.13 80.87 126.09 80.86 126.11 80.83 126.06 80.8 126.14 80.86 126.12 80.85 126.14"/>
  <polygon class="st0" points="80.99 126.19 81.01 126.16 80.98 126.17 80.99 126.19"/>
  <polygon class="st0" points="81.01 126.16 81 126.13 80.98 126.15 81.01 126.16"/>
  <polygon class="st0" points="80.97 126.18 80.97 126.21 80.99 126.19 80.97 126.18"/>
  <polygon class="st0" points="81 126.13 80.98 126.11 80.98 126.13 81 126.13"/>
  <polygon class="st0" points="80.94 126.21 80.97 126.21 80.95 126.19 80.94 126.21"/>
  <polygon class="st0" points="80.98 126.11 80.96 126.1 80.96 126.12 80.98 126.11"/>
  <polygon class="st0" points="80.91 126.2 80.94 126.21 80.94 126.19 80.91 126.2"/>
  <polygon class="st0" points="80.96 126.1 80.93 126.1 80.94 126.12 80.96 126.1"/>
  <polygon class="st0" points="80.9 126.18 80.91 126.2 80.92 126.18 80.9 126.18"/>
  <polygon class="st0" points="80.93 126.1 80.9 126.12 80.93 126.13 80.93 126.1"/>
  <polygon class="st0" points="80.89 126.15 80.9 126.18 80.91 126.16 80.89 126.15"/>
  <polygon class="st0" points="80.9 126.12 80.89 126.15 80.92 126.14 80.9 126.12"/>
  <path class="st0" d="M129.96,106.96h.4c.49,0,.82-.08.98-.24.16-.16.24-.54.24-1.14v-1.17c0-.6-.08-.99-.24-1.15-.16-.16-.49-.24-.98-.24h-.4c-.49,0-.82.08-.97.24-.16.16-.24.54-.24,1.15v1.17c0,.61.08.99.23,1.15.16.16.48.23.98.23Z"/>
  <g>
    <path class="st1" d="M212.59,120.36c0-1.53-.82-2.86-2.03-3.61.28-.28.45-.67.45-1.1,0-.87-.7-1.57-1.57-1.57-.51,0-.96.24-1.24.62-.07-1.8-1.12-3.35-2.64-4.12.08-.12.13-.26.13-.42,0-.4-.33-.73-.73-.73-.36,0-.66.26-.72.6h-8.09v.03h-23.5c-1.6-.31-2.81-1.71-2.81-3.39v-4.04c0-2.17-1.76-3.93-3.92-3.93h-23.68v.02c-11.68,0-23.9-.02-23.9-.02-2.17,0-3.93,1.76-3.93,3.93v4.04c0,1.69-1.21,3.09-2.81,3.4h-23.5v-.03h-8.09c-.06-.34-.36-.6-.72-.6-.4,0-.73.33-.73.73,0,.15.05.3.13.42-1.52.77-2.58,2.32-2.64,4.12-.29-.37-.74-.62-1.24-.62-.87,0-1.57.7-1.57,1.57,0,.43.17.82.45,1.1-1.22.74-2.03,2.08-2.03,3.61s.82,2.87,2.04,3.61c-.28.28-.46.67-.46,1.1,0,.87.7,1.57,1.57,1.57.53,0,1-.26,1.28-.67.07,1.78,1.1,3.31,2.59,4.09-.07.11-.11.25-.11.39,0,.4.33.73.73.73.37,0,.66-.26.72-.6h.35c.18.02.36.03.54.03l58.76-.03h.23s2.24,0,2.24,0h2.24s0,0,0,0h.23l58.76.03c.18,0,.36-.01.54-.03h.35c.06.34.36.6.72.6.4,0,.73-.33.73-.73,0-.14-.04-.28-.11-.39,1.49-.78,2.52-2.31,2.59-4.09.28.4.75.67,1.28.67.87,0,1.57-.7,1.57-1.57,0-.43-.17-.82-.45-1.1,1.22-.74,2.04-2.08,2.04-3.61ZM158.76,106.34h2.08v.07c0,.26.08.44.23.54.16.1.43.15.83.15h.54c.33,0,.56-.04.69-.12.13-.08.2-.22.2-.41v-.31c0-.17-.05-.29-.16-.36-.11-.07-.34-.13-.71-.17l-1.76-.17c-.66-.06-1.13-.24-1.44-.54-.3-.3-.45-.74-.45-1.32v-.44c0-.33.06-.63.18-.89.12-.26.29-.47.52-.64.2-.14.43-.24.71-.3.28-.06.7-.09,1.25-.09h1.3c.81,0,1.42.14,1.85.43.43.29.64.7.64,1.24v.49h-2.08v-.08c0-.21-.06-.36-.17-.44-.11-.08-.32-.12-.62-.12h-.5c-.34,0-.58.04-.71.11-.13.07-.19.19-.19.37v.3c0,.26.29.42.87.48l1.6.16c.69.07,1.21.25,1.55.53.34.28.51.68.51,1.2v.68c0,.59-.21,1.06-.62,1.41-.42.35-.98.53-1.68.53h-1.77c-.94,0-1.63-.14-2.06-.43-.43-.29-.64-.74-.64-1.36v-.49ZM152.94,101.44l1.44,2.74,1.41-2.74h2.42l-2.77,4.61v2.49h-2.17v-2.49l-2.78-4.61h2.44ZM142.43,101.44h2.17v2.66h2.82v-2.66h2.17v7.11h-2.17v-2.78h-2.82v2.78h-2.17v-7.11ZM134.81,101.44h6.34v1.58h-2.07v5.52h-2.19v-5.52h-2.08v-1.58ZM126.54,104.25c0-1.08.23-1.83.69-2.26.46-.43,1.26-.64,2.4-.64h1.06c1.15,0,1.95.21,2.41.64s.69,1.18.69,2.26v1.47c0,1.08-.23,1.83-.69,2.26-.46.43-1.27.64-2.41.64h-1.06c-1.14,0-1.94-.21-2.4-.64-.46-.43-.69-1.18-.69-2.26v-1.47ZM118.69,101.44h3.79c1.07,0,1.83.18,2.29.55.46.37.69.97.69,1.82v.47c0,.85-.23,1.45-.69,1.82-.46.37-1.22.55-2.29.55h-1.62v1.89h-2.17v-7.11ZM209.53,123.62c.22.09.42.23.59.43.37.47.51,1.22.09,1.76-.24.3-.62.53-1.03.53-.17,0-.35-.04-.52-.14-.25-.14-.43-.38-.48-.64-.03-.15-.06-.51.17-.75.09-.09.26-.2.4-.22.17-.03.32.01.44.11.19.16.25.42.26.62,0,.09-.06.16-.15.17-.08,0-.16-.06-.17-.15-.01-.19-.07-.33-.15-.4-.05-.04-.11-.05-.2-.04-.06,0-.17.07-.22.13-.11.11-.11.31-.08.47.03.17.15.33.33.43.41.23.89.02,1.15-.31.32-.42.2-1.01-.09-1.38-.35-.45-1-.49-1.36-.47-.03,0-.06,0-.08-.02-.74-.03-1.46-.3-2.04-.77-.11-.09-.21-.19-.3-.29h0c-.27-.25-.43-.36-.43-.36-.52-.38-1.01-.48-1.01-.48-.05-.01-.1-.02-.15-.03-.01,0-.02,0-.03,0,0,0-.01,0-.02,0-.05,0-.1-.02-.15-.04-.11-.01-.23-.03-.37-.03-.49-.03-.92.01-1.29.09-1.51.37-2.63,1.73-2.63,3.35,0,.97.39,1.93,1.01,2.44.34.28.71.47,1.09.55.39.09.78.06,1.13-.07-.04,0-.08,0-.13,0-.5,0-.95-.19-1.3-.49h0c-.66-.58-1.03-1.43-1.03-2.3,0-1.71,1.39-3.11,3.11-3.11.8,0,1.57.31,2.15.86.07.07.4.42.48.54.54.7.82,1.55.82,2.43s-.37,1.93-.95,2.62c-.61.74-1.5,1.21-2.57,1.35-.37.05-.74.06-1.11.06-.15,0-.3,0-.45,0-.15,0-.3,0-.44,0h-59.78s-59.78,0-59.78,0c-.15,0-.3,0-.44,0-.15,0-.3,0-.45,0-.37,0-.74-.01-1.11-.06-1.07-.14-1.96-.61-2.57-1.35-.58-.69-.95-1.72-.95-2.62s.28-1.73.82-2.43c.08-.1.41-.46.48-.54.58-.56,1.34-.86,2.15-.86,1.71,0,3.11,1.4,3.11,3.11,0,.88-.38,1.72-1.03,2.31h0c-.35.3-.8.49-1.3.49-.04,0-.09,0-.13,0,.36.13.74.16,1.13.07.38-.08.75-.27,1.09-.55.61-.51,1.01-1.46,1.01-2.44,0-1.63-1.14-3-2.66-3.35-.37-.08-.78-.11-1.26-.09-.13,0-.25.02-.37.03-.05.01-.1.03-.15.04,0,0-.01,0-.02,0-.01,0-.02,0-.03,0-.05,0-.1.02-.15.03-.01,0-.5.11-1.02.48,0,0-.16.12-.43.37h0c-.1.1-.2.19-.31.28-.57.47-1.29.74-2.04.77-.02.01-.05.02-.08.02-.36-.02-1.01.02-1.36.47-.29.37-.42.96-.09,1.38.26.33.74.55,1.15.31.17-.1.29-.26.33-.43.03-.16.02-.36-.08-.47-.06-.06-.17-.12-.22-.13-.08-.01-.15,0-.2.04-.08.07-.13.21-.15.4,0,.09-.08.15-.17.15-.09,0-.15-.08-.15-.17.01-.2.07-.46.26-.62.12-.1.27-.13.44-.11.14.02.31.13.4.22.23.24.19.6.17.75-.05.26-.23.5-.48.64-.17.1-.35.14-.52.14-.4,0-.79-.23-1.03-.53-.42-.54-.28-1.3.09-1.76.16-.21.37-.34.59-.43-1.41-.42-2.43-1.72-2.43-3.26s1.02-2.83,2.42-3.26c-.21-.09-.41-.22-.57-.42-.37-.47-.51-1.22-.09-1.76.34-.44.98-.71,1.55-.39.26.14.43.38.48.64.03.15.07.51-.17.75-.09.09-.26.2-.4.22-.17.02-.32-.01-.44-.11-.19-.16-.25-.42-.26-.62,0-.09.06-.16.15-.17.08,0,.16.06.17.15.01.19.07.33.15.4.05.04.11.05.2.04.06,0,.17-.07.22-.13.11-.11.11-.31.08-.47-.03-.17-.15-.33-.33-.43-.41-.23-.89-.02-1.15.31-.32.42-.2,1.01.09,1.38.31.39.84.47,1.2.47.04,0,.07,0,.11,0,.02,0,.03,0,.05,0h0c.93.01,1.77.4,2.38,1.02h0c.27.24.42.36.43.36.52.38,1.01.48,1.01.48.21.05.44.08.72.1.48.03.91,0,1.28-.09,1.51-.36,2.64-1.72,2.64-3.35,0-.71-.19-1.4-.54-1.93-.1-.15-.22-.29-.34-.41-.46-.44-1.07-.7-1.65-.7-.17,0-.35.02-.51.05-.08.02-.16.04-.24.07.06,0,.11,0,.17,0,.5,0,.95.19,1.3.49h0c.66.58,1.03,1.43,1.03,2.3,0,1.72-1.4,3.11-3.11,3.11-.8,0-1.57-.31-2.15-.86-.07-.07-.4-.42-.48-.54-.54-.7-.82-1.55-.82-2.43,0-2.22,1.8-4.02,4.02-4.02h61.32s61.32,0,61.32,0c2.22,0,4.02,1.8,4.02,4.02,0,.89-.28,1.73-.82,2.43-.08.11-.41.46-.48.54-.58.56-1.35.86-2.15.86-1.71,0-3.11-1.4-3.11-3.11,0-.88.38-1.72,1.03-2.31h0c.35-.3.8-.49,1.3-.49.06,0,.11,0,.17,0-.08-.03-.16-.05-.23-.07-.16-.04-.33-.06-.5-.05-.59,0-1.19.26-1.65.7-.12.12-.24.26-.34.41-.35.53-.54,1.22-.54,1.93,0,1.63,1.14,3,2.66,3.35.37.08.78.11,1.26.09.28-.02.51-.05.72-.1.01,0,.5-.11,1.02-.48,0,0,.16-.12.43-.37h0c.61-.61,1.45-1,2.38-1.01h0s0,0,0,0c.02,0,.03,0,.05,0,.03,0,.07,0,.1,0,.37,0,.9-.08,1.21-.47.29-.37.41-.96.09-1.38-.26-.33-.74-.55-1.15-.31-.17.1-.29.26-.33.43-.03.16-.02.36.08.47.06.06.16.12.22.13.08.01.15,0,.2-.04.08-.07.13-.21.15-.4,0-.09.08-.15.17-.15.09,0,.15.08.15.17-.01.2-.07.46-.26.62-.12.1-.27.13-.44.11-.14-.02-.31-.13-.4-.22-.23-.24-.19-.6-.17-.75.05-.27.23-.5.48-.64.57-.32,1.21-.04,1.55.39.42.54.27,1.3-.09,1.76-.16.2-.36.33-.57.42,1.4.43,2.42,1.72,2.42,3.26s-1.03,2.84-2.44,3.26Z"/>
    <path class="st0" d="M212.59,120.36c0-1.53-.82-2.86-2.03-3.61.28-.28.45-.67.45-1.1,0-.87-.7-1.57-1.57-1.57-.51,0-.96.24-1.24.62-.07-1.8-1.12-3.35-2.64-4.12.08-.12.13-.26.13-.42,0-.4-.33-.73-.73-.73-.36,0-.66.26-.72.6h-8.09v.03h-23.5c-1.6-.31-2.81-1.71-2.81-3.39v-4.04c0-2.17-1.76-3.93-3.92-3.93h-23.68v.02c-11.68,0-23.9-.02-23.9-.02-2.17,0-3.93,1.76-3.93,3.93v4.04c0,1.69-1.21,3.09-2.81,3.4h-23.5v-.03h-8.09c-.06-.34-.36-.6-.72-.6-.4,0-.73.33-.73.73,0,.15.05.3.13.42-1.52.77-2.58,2.32-2.64,4.12-.29-.37-.74-.62-1.24-.62-.87,0-1.57.7-1.57,1.57,0,.43.17.82.45,1.1-1.22.74-2.03,2.08-2.03,3.61s.82,2.87,2.04,3.61c-.28.28-.46.67-.46,1.1,0,.87.7,1.57,1.57,1.57.53,0,1-.26,1.28-.67.07,1.78,1.1,3.31,2.59,4.09-.07.11-.11.25-.11.39,0,.4.33.73.73.73.37,0,.66-.26.72-.6h.35c.18.02.36.03.54.03l58.76-.03h.23s2.24,0,2.24,0h2.24s0,0,0,0h.23l58.76.03c.18,0,.36-.01.54-.03h.35c.06.34.36.6.72.6.4,0,.73-.33.73-.73,0-.14-.04-.28-.11-.39,1.49-.78,2.52-2.31,2.59-4.09.28.4.75.67,1.28.67.87,0,1.57-.7,1.57-1.57,0-.43-.17-.82-.45-1.1,1.22-.74,2.04-2.08,2.04-3.61ZM158.76,106.34h2.08v.07c0,.26.08.44.23.54.16.1.43.15.83.15h.54c.33,0,.56-.04.69-.12.13-.08.2-.22.2-.41v-.31c0-.17-.05-.29-.16-.36-.11-.07-.34-.13-.71-.17l-1.76-.17c-.66-.06-1.13-.24-1.44-.54-.3-.3-.45-.74-.45-1.32v-.44c0-.33.06-.63.18-.89.12-.26.29-.47.52-.64.2-.14.43-.24.71-.3.28-.06.7-.09,1.25-.09h1.3c.81,0,1.42.14,1.85.43.43.29.64.7.64,1.24v.49h-2.08v-.08c0-.21-.06-.36-.17-.44-.11-.08-.32-.12-.62-.12h-.5c-.34,0-.58.04-.71.11-.13.07-.19.19-.19.37v.3c0,.26.29.42.87.48l1.6.16c.69.07,1.21.25,1.55.53.34.28.51.68.51,1.2v.68c0,.59-.21,1.06-.62,1.41-.42.35-.98.53-1.68.53h-1.77c-.94,0-1.63-.14-2.06-.43-.43-.29-.64-.74-.64-1.36v-.49ZM152.94,101.44l1.44,2.74,1.41-2.74h2.42l-2.77,4.61v2.49h-2.17v-2.49l-2.78-4.61h2.44ZM142.43,101.44h2.17v2.66h2.82v-2.66h2.17v7.11h-2.17v-2.78h-2.82v2.78h-2.17v-7.11ZM134.81,101.44h6.34v1.58h-2.07v5.52h-2.19v-5.52h-2.08v-1.58ZM126.54,104.25c0-1.08.23-1.83.69-2.26.46-.43,1.26-.64,2.4-.64h1.06c1.15,0,1.95.21,2.41.64s.69,1.18.69,2.26v1.47c0,1.08-.23,1.83-.69,2.26-.46.43-1.27.64-2.41.64h-1.06c-1.14,0-1.94-.21-2.4-.64-.46-.43-.69-1.18-.69-2.26v-1.47ZM118.69,101.44h3.79c1.07,0,1.83.18,2.29.55.46.37.69.97.69,1.82v.47c0,.85-.23,1.45-.69,1.82-.46.37-1.22.55-2.29.55h-1.62v1.89h-2.17v-7.11ZM209.53,123.62c.22.09.42.23.59.43.37.47.51,1.22.09,1.76-.24.3-.62.53-1.03.53-.17,0-.35-.04-.52-.14-.25-.14-.43-.38-.48-.64-.03-.15-.06-.51.17-.75.09-.09.26-.2.4-.22.17-.03.32.01.44.11.19.16.25.42.26.62,0,.09-.06.16-.15.17-.08,0-.16-.06-.17-.15-.01-.19-.07-.33-.15-.4-.05-.04-.11-.05-.2-.04-.06,0-.17.07-.22.13-.11.11-.11.31-.08.47.03.17.15.33.33.43.41.23.89.02,1.15-.31.32-.42.2-1.01-.09-1.38-.35-.45-1-.49-1.36-.47-.03,0-.06,0-.08-.02-.74-.03-1.46-.3-2.04-.77-.11-.09-.21-.19-.3-.29h0c-.27-.25-.43-.36-.43-.36-.52-.38-1.01-.48-1.01-.48-.05-.01-.1-.02-.15-.03-.01,0-.02,0-.03,0,0,0-.01,0-.02,0-.05,0-.1-.02-.15-.04-.11-.01-.23-.03-.37-.03-.49-.03-.92.01-1.29.09-1.51.37-2.63,1.73-2.63,3.35,0,.97.39,1.93,1.01,2.44.34.28.71.47,1.09.55.39.09.78.06,1.13-.07-.04,0-.08,0-.13,0-.5,0-.95-.19-1.3-.49h0c-.66-.58-1.03-1.43-1.03-2.3,0-1.71,1.39-3.11,3.11-3.11.8,0,1.57.31,2.15.86.07.07.4.42.48.54.54.7.82,1.55.82,2.43s-.37,1.93-.95,2.62c-.61.74-1.5,1.21-2.57,1.35-.37.05-.74.06-1.11.06-.15,0-.3,0-.45,0-.15,0-.3,0-.44,0h-59.78s-59.78,0-59.78,0c-.15,0-.3,0-.44,0-.15,0-.3,0-.45,0-.37,0-.74-.01-1.11-.06-1.07-.14-1.96-.61-2.57-1.35-.58-.69-.95-1.72-.95-2.62s.28-1.73.82-2.43c.08-.1.41-.46.48-.54.58-.56,1.34-.86,2.15-.86,1.71,0,3.11,1.4,3.11,3.11,0,.88-.38,1.72-1.03,2.31h0c-.35.3-.8.49-1.3.49-.04,0-.09,0-.13,0,.36.13.74.16,1.13.07.38-.08.75-.27,1.09-.55.61-.51,1.01-1.46,1.01-2.44,0-1.63-1.14-3-2.66-3.35-.37-.08-.78-.11-1.26-.09-.13,0-.25.02-.37.03-.05.01-.1.03-.15.04,0,0-.01,0-.02,0-.01,0-.02,0-.03,0-.05,0-.1.02-.15.03-.01,0-.5.11-1.02.48,0,0-.16.12-.43.37h0c-.1.1-.2.19-.31.28-.57.47-1.29.74-2.04.77-.02.01-.05.02-.08.02-.36-.02-1.01.02-1.36.47-.29.37-.42.96-.09,1.38.26.33.74.55,1.15.31.17-.1.29-.26.33-.43.03-.16.02-.36-.08-.47-.06-.06-.17-.12-.22-.13-.08-.01-.15,0-.2.04-.08.07-.13.21-.15.4,0,.09-.08.15-.17.15-.09,0-.15-.08-.15-.17.01-.2.07-.46.26-.62.12-.1.27-.13.44-.11.14.02.31.13.4.22.23.24.19.6.17.75-.05.26-.23.5-.48.64-.17.1-.35.14-.52.14-.4,0-.79-.23-1.03-.53-.42-.54-.28-1.3.09-1.76.16-.21.37-.34.59-.43-1.41-.42-2.43-1.72-2.43-3.26s1.02-2.83,2.42-3.26c-.21-.09-.41-.22-.57-.42-.37-.47-.51-1.22-.09-1.76.34-.44.98-.71,1.55-.39.26.14.43.38.48.64.03.15.07.51-.17.75-.09.09-.26.2-.4.22-.17.02-.32-.01-.44-.11-.19-.16-.25-.42-.26-.62,0-.09.06-.16.15-.17.08,0,.16.06.17.15.01.19.07.33.15.4.05.04.11.05.2.04.06,0,.17-.07.22-.13.11-.11.11-.31.08-.47-.03-.17-.15-.33-.33-.43-.41-.23-.89-.02-1.15.31-.32.42-.2,1.01.09,1.38.31.39.84.47,1.2.47.04,0,.07,0,.11,0,.02,0,.03,0,.05,0h0c.93.01,1.77.4,2.38,1.02h0c.27.24.42.36.43.36.52.38,1.01.48,1.01.48.21.05.44.08.72.1.48.03.91,0,1.28-.09,1.51-.36,2.64-1.72,2.64-3.35,0-.71-.19-1.4-.54-1.93-.1-.15-.22-.29-.34-.41-.46-.44-1.07-.7-1.65-.7-.17,0-.35.02-.51.05-.08.02-.16.04-.24.07.06,0,.11,0,.17,0,.5,0,.95.19,1.3.49h0c.66.58,1.03,1.43,1.03,2.3,0,1.72-1.4,3.11-3.11,3.11-.8,0-1.57-.31-2.15-.86-.07-.07-.4-.42-.48-.54-.54-.7-.82-1.55-.82-2.43,0-2.22,1.8-4.02,4.02-4.02h61.32s61.32,0,61.32,0c2.22,0,4.02,1.8,4.02,4.02,0,.89-.28,1.73-.82,2.43-.08.11-.41.46-.48.54-.58.56-1.35.86-2.15.86-1.71,0-3.11-1.4-3.11-3.11,0-.88.38-1.72,1.03-2.31h0c.35-.3.8-.49,1.3-.49.06,0,.11,0,.17,0-.08-.03-.16-.05-.23-.07-.16-.04-.33-.06-.5-.05-.59,0-1.19.26-1.65.7-.12.12-.24.26-.34.41-.35.53-.54,1.22-.54,1.93,0,1.63,1.14,3,2.66,3.35.37.08.78.11,1.26.09.28-.02.51-.05.72-.1.01,0,.5-.11,1.02-.48,0,0,.16-.12.43-.37h0c.61-.61,1.45-1,2.38-1.01h0s0,0,0,0c.02,0,.03,0,.05,0,.03,0,.07,0,.1,0,.37,0,.9-.08,1.21-.47.29-.37.41-.96.09-1.38-.26-.33-.74-.55-1.15-.31-.17.1-.29.26-.33.43-.03.16-.02.36.08.47.06.06.16.12.22.13.08.01.15,0,.2-.04.08-.07.13-.21.15-.4,0-.09.08-.15.17-.15.09,0,.15.08.15.17-.01.2-.07.46-.26.62-.12.1-.27.13-.44.11-.14-.02-.31-.13-.4-.22-.23-.24-.19-.6-.17-.75.05-.27.23-.5.48-.64.57-.32,1.21-.04,1.55.39.42.54.27,1.3-.09,1.76-.16.2-.36.33-.57.42,1.4.43,2.42,1.72,2.42,3.26s-1.03,2.84-2.44,3.26Z"/>
  </g>
  <path class="st0" d="M123.07,104.9c.12-.11.17-.34.17-.67v-.41c0-.28-.07-.48-.22-.6-.15-.12-.4-.18-.75-.18h-1.42v2.03h1.51c.35,0,.59-.06.71-.17Z"/>
  <polygon class="st0" points="107.75 120.82 110.13 120.82 108.97 117.74 107.75 120.82"/>
  <polygon class="st0" points="163.27 120.82 165.54 120.82 164.43 117.88 163.27 120.82"/>
  <polygon class="st0" points="183.38 120.82 185.75 120.82 184.59 117.74 183.38 120.82"/>
  <polygon class="st0" points="137.7 120.82 140.09 120.82 138.92 117.72 137.7 120.82"/>
  <path class="st0" d="M118.51,116.15c-.11,0-.23,0-.34,0h-.26v3.16h.46c.64,0,1.04-.41,1.19-1.19.02-.12.05-.3.04-.52-.03-.65-.24-1.42-1.09-1.44Z"/>
  <g>
    <path class="st0" d="M142.12,85.83c-.39,0-.71.32-.71.71s.32.71.71.71.71-.32.71-.71-.32-.71-.71-.71Z"/>
    <path class="st0" d="M142.12,84.97c.21,0,.38-.17.38-.37s-.17-.37-.38-.37-.38.17-.38.37.17.37.38.37Z"/>
    <path class="st0" d="M141.26,85.21c.18-.11.23-.34.11-.52s-.34-.22-.52-.11-.23.34-.11.52.34.22.52.11Z"/>
    <path class="st0" d="M140.67,85.89c.09-.19,0-.41-.18-.5s-.41,0-.5.19,0,.41.18.5.41,0,.5-.19Z"/>
    <path class="st0" d="M140.53,86.77c-.03-.21-.22-.35-.42-.32s-.35.22-.32.43.22.35.42.32.35-.22.32-.43Z"/>
    <path class="st0" d="M140.9,87.59c-.14-.16-.37-.18-.53-.04s-.17.37-.04.53.37.18.53.04.17-.37.04-.53Z"/>
    <path class="st0" d="M141.65,88.08c-.2-.06-.41.05-.47.25s.06.41.26.47.41-.05.47-.25-.06-.41-.26-.46Z"/>
    <path class="st0" d="M142.55,88.08c-.2.06-.31.27-.26.46s.27.31.47.25.31-.27.26-.46-.27-.31-.47-.25Z"/>
    <path class="st0" d="M143.3,87.61c-.14.16-.12.39.04.53s.39.12.53-.04.12-.39-.04-.53-.39-.12-.53.04Z"/>
    <path class="st0" d="M143.68,86.8c-.03.21.11.4.32.43s.39-.11.42-.32-.11-.4-.32-.43-.39.11-.42.32Z"/>
    <path class="st0" d="M143.56,85.91c.09.19.31.27.5.19s.27-.31.18-.5-.31-.27-.5-.19-.27.31-.18.5Z"/>
    <path class="st0" d="M142.98,85.23c.18.11.41.06.52-.11s.06-.41-.11-.52-.41-.06-.52.11-.06.41.11.52Z"/>
    <polygon class="st0" points="146.61 80.39 150.95 80.39 148.7 78.02 148.68 78.02 146.61 80.39"/>
    <polygon class="st0" points="144.77 71.51 144.63 71.51 144.63 71.51 144.77 71.51"/>
    <path class="st0" d="M142.12,60.7c.2,0,.37-.16.37-.37s-.17-.37-.37-.37-.37.16-.37.37.17.37.37.37Z"/>
    <path class="st0" d="M144.44,67.27c-.45-1.24-2.02-2.67-2.11-4.01-.02-.29-.07-.33-.15-.21-.07-.12-.13-.08-.15.21-.09,1.33-1.66,2.77-2.11,4.01-.46,1.24.09,4.39.09,4.39l1.53-.03.69-5.26.69,5.26,1.49.03s.5-3.15.04-4.39Z"/>
    <path class="st0" d="M142.08,72.75h-9.13c-.5.28-.78.61-.9.98h20.07c-.11-.31-.42-.64-.91-.98h-9.13Z"/>
    <polygon class="st0" points="137.86 80.39 142.19 80.39 139.93 78.02 139.92 78.02 137.86 80.39"/>
    <path class="st0" d="M131.01,78.02c-1.26.58-2.17,1.32-2.96,2.37h5.38l-2.26-2.37h-.16Z"/>
    <path class="st0" d="M149.39,74.82h-14.51c-.56.99-1.48,1.5-2.64,2.32h19.79c-1.17-.82-2.08-1.33-2.64-2.32ZM134.83,76.7c-.33,0-.6-.23-.6-.51s.26-.51.6-.51.58.23.58.51-.26.51-.58.51ZM137.31,76.6c-.32,0-.59-.23-.59-.51s.27-.5.59-.5c.33,0,.59.23.59.5s-.26.51-.59.51ZM139.82,76.6c-.32,0-.59-.23-.59-.51s.27-.5.59-.5.59.23.59.5-.26.51-.59.51ZM142.32,76.6c-.33,0-.59-.23-.59-.51s.26-.5.59-.5.59.23.59.5-.26.51-.59.51ZM144.82,76.6c-.33,0-.59-.23-.59-.51s.26-.5.59-.5.59.23.59.5-.27.51-.59.51ZM147.33,76.6c-.34,0-.6-.23-.6-.51s.26-.51.6-.51.58.23.58.51-.26.51-.58.51ZM149.31,76.6c-.32,0-.59-.23-.59-.51s.27-.5.59-.5.59.23.59.5-.26.51-.59.51Z"/>
    <polygon class="st0" points="142.23 80.39 146.57 80.39 144.31 78.02 144.3 78.02 142.23 80.39"/>
    <polygon class="st0" points="133.48 80.39 137.81 80.39 135.55 78.02 135.54 78.02 133.48 80.39"/>
    <path class="st0" d="M153.18,78.02h-.12l-2.07,2.37h5.25c-.79-1.05-1.79-1.79-3.06-2.37Z"/>
    <path class="st0" d="M158.7,85.43h0v-.02h0v-.02h0s0,.04,0,.04c0-.06,0-.1,0-.11h-.04s.02,0,.03,0h0s0,.02,0,.02h0s-.04-.02-.04-.02c-.44,0-.79.35-.79.78,0,.39.29.72.68.78.02-.1.04-.2.06-.3h0s0-.03.01-.05h0s.01-.05.01-.08v-.02c.03-.18.05-.37.06-.56h0s0-.28,0-.43h0Z"/>
    <path class="st0" d="M133.53,66.71c1.05.63,1.81,1.12,2.33,2.32.48,1.12.94,2.64,1.06,2.63h.66c-.11,0-.16-1.33-.45-2.34-.21-.74-.27-1.19-.75-1.57.67.47,1.45.91,1.72,1.83.21.73.39,1.61.45,2.05l.58.02-.02-3.1c-.07-2.43-2.46-3.27-4.58-3.33-1.08-.03-2.99-.44-2.99-.44.48.98,1.19,1.47,1.98,1.95Z"/>
    <path class="st0" d="M150.7,66.71c-1.05.63-1.81,1.12-2.33,2.32-.48,1.12-.85,2.64-.97,2.63h-.66c.11,0,.07-1.33.36-2.34.21-.74.27-1.19.75-1.57-.67.47-1.45.91-1.72,1.83-.21.73-.39,1.61-.45,2.05l-.58.02.02-3.1c.07-2.43,2.46-3.27,4.58-3.33,1.08-.03,2.99-.44,2.99-.44-.48.98-1.19,1.47-1.98,1.95Z"/>
    <path class="st0" d="M132.37,71.66l1.53-.03c-.17-.31-.45-1.39-.95-2.24-.43-.74-.67-1.14-1.26-1.53.81.46,1.77.91,2.3,1.83.41.68.62,1.5.81,1.97h1.4l.3-.06c-.41-1.73-1.14-3.15-2.19-4.06-2.32-2-5.9-2.1-8.9-1.54l-.51.09c-.55.11,6.28,1.4,7.48,5.57Z"/>
    <path class="st0" d="M151.85,71.66l-1.53-.03c.17-.31.45-1.39.95-2.24.43-.74.67-1.14,1.26-1.53-.81.46-1.77.91-2.3,1.83-.41.68-.73,1.5-.92,1.97h-1.4l-.08-.06c.41-1.73,1.03-3.15,2.09-4.06,2.32-2,5.9-2.1,8.9-1.54l.51.09c.55.11-6.28,1.4-7.48,5.57Z"/>
    <path class="st0" d="M153.48,91.29c-.11-.09-.23-.08-.34,0-.91,1.48-.56,1.41-1.69,0-.11-.09-.23-.08-.34,0-.9,1.45-.58,1.38-1.69,0-.13-.05-.24-.04-.35,0-.86,1.4-.54,1.43-1.69,0-.1-.07-.21-.06-.35,0-.89,1.45-.58,1.38-1.68,0-.07-.08-.18-.09-.34,0-.89,1.45-.58,1.38-1.69,0-.09-.06-.2-.07-.35,0-.89,1.45-.58,1.38-1.68,0-.1-.08-.21-.09-.35,0-.9,1.47-.57,1.4-1.69,0-.11-.1-.22-.09-.34,0-.91,1.47-.57,1.4-1.69,0-.11-.07-.23-.07-.34,0-.91,1.47-.57,1.4-1.69,0-.11-.09-.23-.08-.35,0-.9,1.47-.56,1.4-1.69,0-.1-.06-.2-.07-.34,0-.89,1.45-.59,1.38-1.69,0-.1-.08-.21-.09-.34,0-.89,1.44-.59,1.36-1.69,0l-1.53.02c.99,1.43,2.39,2.58,4.21,3.19,6.84.29,13.74.26,20.68,0,1.83-.6,3.32-1.76,4.3-3.2h-1.56c-.93,1.51-.52,1.45-1.69-.01ZM132.64,94.35c-1.61-.46-2.86-1.56-2.86-1.56l4.54.11-1.68,1.46ZM136.41,94.55l-1.92-1.67,3.76-.03-1.84,1.7ZM143.96,94.4l-1.9-1.5-1.79,1.5-1.93-1.52,3.76-.03-.03.03,3.72-.03-1.84,1.54ZM147.85,94.4l-1.92-1.52,3.76-.03-1.84,1.54ZM151.46,94.32l-1.69-1.44,4.54-.04c-1.52,1.5-2.85,1.48-2.85,1.48Z"/>
    <path class="st0" d="M150.2,97.67c-5.02.18-10.66.19-15.62,0-.1.25-.93.75-1.04.98,5.97.23,11.86.2,17.69,0-.11-.23-.94-.74-1.03-.98Z"/>
    <path class="st0" d="M147.69,62.68c-1.91-2.76-4.29-4.72-5.58-8.37-.71,3.35-4.28,5.86-6,8.85-.26.44-.46.92-.61,1.43,1.61-.15,2.74.19,3.95,1.43,1.06-1.38,2.21-3,2.8-4.55.66,1.67,1.5,3.06,2.68,4.56.84-1.19,1.91-1.41,3.46-1.66-.2-.71-.31-1.1-.71-1.69ZM142.12,61.47c-.64,0-1.15-.5-1.15-1.13s.51-1.14,1.15-1.14,1.15.51,1.15,1.14-.52,1.13-1.15,1.13Z"/>
    <path class="st0" d="M132.96,95.37c1.1.36,1.59.85,1.74,1.23,5.13.13,10.25.12,15.37,0,.17-.39.8-.88,1.74-1.23-6.33.1-12.62.1-18.86,0Z"/>
    <polygon class="st0" points="142.03 92.57 142.05 92.59 142.07 92.57 142.03 92.57"/>
    <path class="st0" d="M157.75,84.9c.17-.11.22-.34.11-.51-.11-.17-.34-.22-.51-.11-.17.11-.22.34-.11.51.11.17.34.22.51.11Z"/>
    <path class="st0" d="M157.23,85.51c.08-.18,0-.4-.19-.48-.19-.08-.4,0-.49.18-.08.19,0,.4.19.48.19.08.4,0,.49-.18Z"/>
    <path class="st0" d="M156.39,86.42c.03.2.22.34.42.31.2-.03.34-.22.31-.42-.03-.2-.22-.34-.42-.31-.2.03-.34.22-.31.42Z"/>
    <path class="st0" d="M157.44,87.55c.15-.13.17-.37.03-.52-.14-.15-.37-.17-.52-.03-.15.13-.16.37-.03.52.14.15.37.16.52.03Z"/>
    <path class="st0" d="M158.16,87.45c-.2-.05-.4.06-.45.26-.05.2.06.4.26.45.09.02.18.01.26-.03.06-.18.11-.35.16-.52-.05-.08-.12-.14-.22-.17Z"/>
    <path class="st0" d="M158.19,84.26c0,.21.17.37.38.37.03,0,.05,0,.08,0-.03-.28-.07-.53-.12-.74-.19.02-.34.18-.34.37Z"/>
    <path class="st0" d="M126.33,86.1c0-.43-.35-.77-.79-.77h-.03c-.03.51.03,1.04.15,1.54.38-.06.67-.38.67-.77Z"/>
    <path class="st0" d="M126.97,84.79c.11-.17.06-.4-.11-.51-.17-.11-.4-.06-.51.11-.11.17-.06.4.11.51.17.11.4.06.51-.11Z"/>
    <path class="st0" d="M126.98,85.51c.08.18.3.27.49.18.19-.08.27-.3.19-.48-.08-.18-.3-.27-.49-.18s-.27.3-.19.48Z"/>
    <path class="st0" d="M127.5,86c-.2-.03-.39.11-.42.31-.03.2.11.39.31.42.2.03.39-.11.42-.31.03-.2-.11-.39-.31-.42Z"/>
    <path class="st0" d="M126.73,87.03c-.14.15-.12.38.03.52.15.13.39.12.52-.03.14-.15.12-.38-.03-.52-.15-.14-.38-.12-.52.03Z"/>
    <path d="M125.92,83.96c-.09-.06-.19-.07-.29-.05-.04.13-.08.34-.1.66.17.1.39.05.5-.11.11-.17.06-.4-.11-.51Z"/>
    <path d="M126.33,87.53c-.15-.14-.38-.12-.52.03,0,0,0,.02-.01.03.02.13.07.31.16.52.14.05.3.05.4-.07.14-.15.12-.38-.03-.52Z"/>
    <path class="st0" d="M156.05,86.1c0-1.29,1.13-2.45,2.41-2.52-.24-.89-.69-1.6-1.44-2.25h-.1l-.79,1.12c-1.34-1.47-1.18-1.61-2.31,0-1.34-1.47-1.18-1.61-2.31,0-1.34-1.47-1.18-1.61-2.3,0-1.34-1.47-1.19-1.61-2.31,0-1.34-1.47-1.18-1.61-2.31,0-1.34-1.47-1.18-1.61-2.31,0-1.34-1.47-1.18-1.61-2.31,0-1.34-1.47-1.18-1.61-2.31,0-1.34-1.47-1.18-1.61-2.3,0-1.34-1.47-1.19-1.61-2.31,0-1.38-1.51-1.15-1.66-2.31,0-1.4-1.53-1.16-1.64-2.31,0l-1.02-1.12h-.24c-.76.65-1.19,1.39-1.44,2.28,1.29.01,2.45,1.2,2.45,2.5,0,1.16-.95,2.28-2.06,2.45.29.78.63,1.42,1.05,2h29.84c.41-.59.77-1.27,1.06-2.04-1.1-.24-2.03-1.25-2.03-2.41ZM128.35,90.51c-.36,0-.66-.29-.66-.64s.3-.64.66-.64.64.29.64.64-.29.64-.64.64ZM128.35,83.86c-.36,0-.66-.27-.66-.63s.3-.65.66-.65.64.29.64.65-.29.63-.64.63ZM130.7,90.51c-.36,0-.66-.29-.66-.64s.3-.64.66-.64.64.29.64.64-.29.64-.64.64ZM130.7,83.86c-.36,0-.66-.27-.66-.63s.3-.65.66-.65.64.29.64.65-.29.63-.64.63ZM133.05,82.59c.35,0,.64.29.64.64s-.29.63-.64.63-.66-.27-.66-.63.3-.64.66-.64ZM133.05,90.51c-.35,0-.66-.29-.66-.64s.31-.64.66-.64.64.29.64.64-.29.64-.64.64ZM135.39,82.59c.36,0,.65.29.65.65s-.29.64-.65.64-.65-.28-.65-.64.29-.65.65-.65ZM135.39,90.51c-.36,0-.65-.29-.65-.65s.29-.65.65-.65.65.29.65.65-.29.65-.65.65ZM137.74,90.51c-.36,0-.65-.29-.65-.65s.29-.65.65-.65.65.29.65.65-.29.65-.65.65ZM137.74,83.88c-.36,0-.65-.28-.65-.64s.29-.65.65-.65.65.29.65.65-.29.64-.65.64ZM144.78,82.59c.36,0,.66.29.66.65s-.3.63-.66.63-.64-.27-.64-.63.29-.65.64-.65ZM142.43,82.59c.35,0,.66.29.66.64s-.31.63-.66.63-.64-.27-.64-.63.29-.64.64-.64ZM140.09,82.59c.36,0,.65.29.65.65s-.29.64-.65.64-.65-.28-.65-.64.29-.65.65-.65ZM140.09,90.51c-.36,0-.65-.29-.65-.65s.29-.65.65-.65.65.29.65.65-.29.65-.65.65ZM142.43,90.51c-.36,0-.64-.29-.64-.64s.29-.64.64-.64.66.29.66.64-.31.64-.66.64ZM142.12,89.18c-1.47,0-2.67-1.18-2.67-2.63s1.2-2.64,2.67-2.64,2.66,1.19,2.66,2.64-1.19,2.63-2.66,2.63ZM144.78,90.51c-.36,0-.64-.29-.64-.65s.29-.65.64-.65.66.29.66.65-.3.65-.66.65ZM147.13,82.59c.35,0,.66.29.66.64s-.3.63-.66.63-.64-.27-.64-.63.29-.64.64-.64ZM147.13,90.51c-.36,0-.64-.29-.64-.64s.29-.64.64-.64.66.29.66.64-.3.64-.66.64ZM149.48,82.59c.37,0,.66.29.66.64s-.29.63-.66.63-.64-.27-.64-.63.29-.64.64-.64ZM149.48,90.51c-.36,0-.64-.29-.64-.64s.29-.64.64-.64.66.29.66.64-.29.64-.66.64ZM151.83,82.59c.37,0,.66.29.66.64s-.29.63-.66.63-.64-.27-.64-.63.29-.64.64-.64ZM151.83,90.51c-.36,0-.64-.29-.64-.64s.29-.64.64-.64.66.29.66.64-.29.64-.66.64ZM153.96,82.59c.37,0,.66.29.66.64s-.29.63-.66.63-.64-.27-.64-.63.29-.64.64-.64ZM153.96,90.51c-.36,0-.64-.29-.64-.64s.29-.64.64-.64c.37,0,.66.29.66.64s-.29.64-.66.64ZM156.14,82.59c.35,0,.64.29.64.64s-.29.63-.64.63-.66-.27-.66-.63.3-.64.66-.64ZM156.14,90.51c-.36,0-.66-.29-.66-.64s.3-.64.66-.64.64.29.64.64-.29.64-.64.64Z"/>
  </g>
  <path class="st0" d="M205.53,123.59c-.45-.43-1.04-.67-1.66-.67-.91,0-1.73.52-2.14,1.3.39-.28.87-.43,1.37-.43,1.3,0,2.37,1.06,2.37,2.37,0,.2-.03.4-.07.59l.07.04-.24.42c-.09.18-.2.35-.32.49-.07.1-.15.19-.23.28-.57.63-1.32.98-2.12.98-.2,0-.4-.02-.61-.07-.49-.11-.96-.34-1.39-.7-.77-.63-1.26-1.8-1.26-2.98,0-.38.05-.77.16-1.15,0-.02.48-2.12,2.7-2.79.16-.05.33-.1.5-.13-.22-.19-.35-.47-.35-.78,0-.33.15-.62.39-.81-.15-.03-.3-.07-.45-.11-2.26-.66-2.74-2.79-2.74-2.82-.11-.37-.16-.76-.16-1.14,0-.85.23-1.67.66-2.31.13-.19.28-.38.44-.53.6-.57,1.38-.89,2.19-.9.2,0,.41.02.61.07.25.06.5.15.71.27.24.14.48.32.66.51.11.12.22.26.31.37.14.16.26.34.34.51l.05.09.09.17.06.18-.03.02c.05.2.08.4.08.6,0,1.3-1.06,2.37-2.37,2.37-.5,0-.97-.16-1.37-.43.41.77,1.22,1.3,2.14,1.3.62,0,1.21-.24,1.66-.67.05-.05.35-.38.41-.45.44-.58.68-1.28.68-2.01,0-1.83-1.49-3.32-3.32-3.32h-59.07s-63.57,0-63.57,0c-1.83,0-3.32,1.49-3.32,3.32,0,.73.23,1.43.68,2.01.05.07.35.4.41.45.45.43,1.04.67,1.66.67.91,0,1.73-.52,2.14-1.3-.39.28-.87.43-1.37.43-1.3,0-2.37-1.06-2.37-2.37,0-.25.04-.5.12-.73l-.03-.04.15-.27c.09-.19.21-.36.33-.5.11-.14.22-.28.33-.4.18-.2.42-.38.66-.52.21-.12.46-.21.71-.27.2-.05.42-.07.67-.07.76,0,1.54.33,2.13.89.16.15.32.34.44.53.42.65.66,1.47.66,2.31,0,.38-.05.76-.16,1.15,0,.02-.49,2.15-2.73,2.81-.14.04-.28.08-.43.11.24.19.4.48.4.81,0,.31-.14.59-.36.78.15.03.29.07.43.11,2.24.66,2.73,2.79,2.73,2.81.11.37.16.76.16,1.14,0,1.17-.49,2.34-1.26,2.98-.43.35-.9.59-1.39.7-.2.04-.41.07-.61.07-.8,0-1.55-.35-2.12-.98-.08-.09-.15-.18-.21-.26-.13-.15-.24-.32-.34-.51l-.05-.08-.08-.17-.06-.17h.02c-.05-.21-.08-.42-.08-.62,0-1.3,1.06-2.37,2.37-2.37.5,0,.97.16,1.37.43-.41-.77-1.22-1.3-2.14-1.3-.62,0-1.21.24-1.66.67-.06.05-.36.38-.41.45-.44.58-.68,1.28-.68,2.01s.31,1.6.78,2.17c.5.6,1.24.98,2.13,1.1.36.05.73.05,1.01.05h.9s57.49-.01,57.49-.01h62.07s.9.01.9.01h0c.28,0,.65,0,1.01-.05.89-.12,1.63-.5,2.13-1.1.48-.57.78-1.42.78-2.17s-.23-1.43-.68-2.01c-.06-.07-.36-.4-.41-.46ZM93.57,122.35c-.45,1.45-1.83,2.39-3.52,2.39-1.4,0-2.51-.62-3.05-1.7-.54-1.07-.39-2.4.4-3.46l.17-.23.49.41-.12.19c-.5.85-.55,1.81-.12,2.56.4.7,1.14,1.11,1.99,1.11s1.51-.42,1.72-1.1c.17-.56.03-1.39-.89-2.03l-1.95-1.38c-.89-.6-1.31-1.44-1.22-2.42.11-1.45,1.13-2.36,2.66-2.36.38,0,1.07.05,1.61.13h.95s-.02.42-.02.42l-.15,1.89h-.62v-.26c0-.7-.53-1.13-1.37-1.13-.71,0-1.2.37-1.22.92-.02.34.21.56.7.89l2.13,1.48c1.31.89,1.85,2.3,1.43,3.68ZM102.69,122.78c-.02.08-.22.75-.19,1.26v.28s-.55,0-.55,0l-2.31-5.42-1.57,3.91c-.02.07-.25.7-.26,1.25v.26h-.56l-2.8-8.06c-.16-.38-.5-.52-.73-.52h-.36v-.65h4.02v.65h-.37c-.07,0-.13.03-.17.08-.07.09-.05.23-.01.33l.11.35h0l1.06,3.16,1.87-4.76h.55v.22l1.95,4.57.94-3.52c.04-.15.03-.29-.02-.36-.04-.05-.11-.06-.15-.06h-.37v-.65h2.94v.65h-.36c-.26,0-.61.17-.74.53l-1.92,6.52ZM113.99,124.1h-4.17v-.65h.37c.07,0,.14-.04.18-.09.06-.09.04-.22,0-.31l-.14-.36h0l-.36-.97h-2.32l-.48,1.22-.04.1c-.04.09-.06.22,0,.31.04.06.11.1.19.1h.37v.65h-2.99v-.65h.37c.22,0,.53-.14.73-.54l2.63-6.32c.22-.49.52-1.28.54-1.51l.02-.24h.52l3.47,8.06c.17.34.44.54.73.54h.36v.65ZM123.81,124.1h-1.38c-1.46,0-2.33-.41-2.91-1.39-.31-.54-.85-1.76-.97-2.13-.11-.26-.3-.59-.57-.64h-.07s0,3.01,0,3.01c0,.28.21.5.47.5h.4v.65s-4.01,0-4.01,0v-.65h.42c.25,0,.46-.22.47-.5v-6.72c0-.28-.21-.5-.47-.5h-.41v-.65s4.18,0,4.18,0c1.87,0,2.98.95,2.98,2.55,0,.93-.45,1.99-1.45,2.4.36.3.61.67.71.84.18.3.76,1.26,1.13,1.76.47.63.73.81,1.21.81h.26v.65ZM134.02,115.73h-.47c-.24,0-.43.2-.44.47v6.26c0,.87.12,1.49.13,1.49l.07.32h-.54l-5.41-5.45v4.16c.01.26.21.47.45.47h.47v.65s-3.99,0-3.99,0v-.65h.48c.24,0,.44-.21.44-.47v-6.29c0-.82-.12-1.4-.13-1.46l-.07-.32h.58s.08.11.08.11l5.28,5.34v-4.15c0-.26-.2-.47-.44-.47h-.47v-.65s3.99,0,3.99,0l-.02.65ZM143.93,124.1h-4.17v-.65h.37c.07,0,.14-.04.18-.09.06-.09.04-.22,0-.31l-.14-.36h0l-.36-.97h-2.32l-.48,1.22-.04.11c-.04.09-.06.22,0,.31.04.06.11.1.19.1h.37v.65h-2.99v-.65h.37c.22,0,.53-.14.72-.54l2.64-6.32c.21-.47.52-1.27.54-1.51l.02-.24h.52l3.47,8.06c.17.34.44.54.73.54h.36v.65ZM162.08,126.21l-.18.06c-.41.13-.82.2-1.22.2-1.97,0-3.48-1.58-3.95-4.12l-.44-2.77-1.78,3.28s-.4.71-.41,1.22v.26h-.54l-2.51-5.07-.46,3.91c0,.15.1.27.18.27h.45s0,.65,0,.65h-2.92v-.65h.45c.29,0,.51-.19.57-.49l.76-5.67c-.58-1.08-1.47-2.36-2.47-2.36-.04,0-.07,0-.11,0l-.24.02-.11-.57.19-.09c.46-.21.92-.31,1.38-.31,1.89,0,3.07,1.79,3.49,2.56l2.06,4.1,3.14-5.74h.49l1.23,7.35c.37,2.24,1.22,3.38,2.53,3.38.05,0,.1,0,.14,0l.28-.02v.6ZM169.51,124.1h-4.17v-.65h.37c.07,0,.14-.04.18-.09.06-.09.04-.22,0-.31l-.14-.36h.01l-.36-.97h-2.32l-.48,1.22-.04.11c-.04.09-.06.22,0,.31.04.06.11.1.19.1h.37v.65h-2.99v-.65h.37c.22,0,.53-.14.72-.54l2.64-6.32c.21-.47.52-1.27.54-1.51l.02-.24h.52l3.47,8.06c.17.34.44.54.73.54h.36v.65ZM175.68,124.1v-.65h.42c.25,0,.46-.22.47-.5v-2.82h-3.18v2.82c0,.28.21.5.47.5h.41v.65h-4.01v-.65h.42c.25,0,.46-.22.47-.5v-6.72c0-.27-.21-.49-.47-.49h-.4v-.65s3.99,0,3.99,0v.65h-.41c-.25,0-.46.22-.47.5v2.86h3.17v-2.87c-.01-.27-.22-.48-.47-.48h-.41v-.65s3.99,0,3.99,0v.65h-.41c-.26,0-.46.22-.47.5v6.71c0,.28.21.5.47.5h.4l.02.65h-4.02ZM189.61,124.1h-4.17v-.65h.37c.07,0,.14-.04.18-.09.06-.09.04-.22,0-.31l-.13-.36h0l-.36-.97h-2.32l-.48,1.22-.04.1c-.03.09-.06.22,0,.31.04.06.11.1.19.1h.37v.65h-2.99v-.65h.37c.22,0,.53-.14.72-.54l2.64-6.32c.21-.47.52-1.27.54-1.51l.02-.24h.52l3.47,8.06c.17.34.44.54.73.54h.36v.65ZM196.77,124.1h-6.4v-.65h.42c.25,0,.46-.22.47-.5v-6.71c0-.27-.22-.5-.47-.5h-.4v-.65s3.99,0,3.99,0v.65h-.41c-.26,0-.46.22-.47.5v6.81h1.23c1.21,0,1.74-.96,1.98-1.76l.06-.19h.64l-.64,3Z"/>
</svg>