<?xml version="1.0" encoding="UTF-8"?>
<svg id="Layer_1" xmlns="http://www.w3.org/2000/svg" version="1.1" viewBox="0 0 284.22 185.49">
  <!-- Generator: Adobe Illustrator 30.1.0, SVG Export Plug-In . SVG Version: 2.1.1 Build 136)  -->
  <defs>
    <style>
      .st0, .st1 {
        fill: #231f20;
      }

      .st1 {
        fill-rule: evenodd;
      }
    </style>
  </defs>
  <path class="st1" d="M185.16,98.77l10.58-19.01h4.2l10.72,19.01h-4.88l-2.25-4.16h-11.86l-2.18,4.16h-4.34ZM193.53,91.19h8.2l-4.04-7.74-4.16,7.74ZM161.27,98.77v-19.01h4.38v7.93l10.37-7.93h6.3l-12.38,8.96,13.91,10.05h-6.99l-11.2-8.36v8.36h-4.38ZM129.75,98.77v-19.01h2.97l13.16,11.2c.45.37.84.72,1.18,1.05.34.33.65.67.94,1.02-.07-1.07-.11-1.82-.14-2.27-.02-.45-.04-.79-.04-1.03v-9.98h3.91v19.01h-2.97l-13.73-11.75c-.33-.3-.62-.56-.86-.81-.25-.24-.48-.48-.69-.74.05.59.1,1.14.13,1.66.03.52.04.98.04,1.36v10.27h-3.91ZM98.27,98.77l10.58-19.01h4.2l10.72,19.01h-4.88l-2.25-4.16h-11.86l-2.18,4.16h-4.34ZM106.64,91.19h8.2l-4.04-7.74-4.16,7.74ZM74.1,98.77v-19.01h15.98c1.49,0,2.57.29,3.24.87.67.58,1,1.51,1,2.81v4.47c0,1.28-.33,2.22-1,2.8-.66.58-1.74.88-3.24.88h-2.44l8.64,7.18h-6.24l-7.54-7.18h-4.12v7.18h-4.27ZM88.15,83.04h-9.78v5.3h9.78c.75,0,1.27-.11,1.55-.33.28-.23.42-.62.42-1.18v-2.29c0-.55-.14-.94-.42-1.17-.28-.22-.79-.33-1.55-.33Z"/>
  <path class="st1" d="M113.21,104.05c-4.23-.21-5.37-.16-5.83.64-11.27-.39-22.55-.79-33.82-1.18,11.11-.32,22.56-.59,33.68-.91,1.7.86,3.72.64,6.07.48-.03.32-.06.64-.1.96"/>
  <path class="st1" d="M170.98,104.05c4.23-.21,5.37-.16,5.83.64,11.27-.39,22.55-.79,33.82-1.18-11.11-.32-22.56-.59-33.68-.91-1.7.86-3.72.64-6.07.48.03.32.06.64.1.96"/>
  <path class="st0" d="M114.85,105.61c-.19,0-.41-.04-.65-.11l.12-.41c.44.13.76.12.97-.04.35-.26.41-.92.43-1.6,0-.25.01-.5.02-.75.01-.48.03-.97.03-1.45h.43c0,.49-.01.97-.03,1.46,0,.25-.02.5-.02.74-.02.79-.1,1.57-.6,1.93-.19.14-.42.21-.69.21Z"/>
  <polygon class="st0" points="122.72 105.57 120.14 105.57 120.14 101.47 122.72 101.47 122.72 101.9 120.56 101.9 120.56 105.14 122.72 105.14 122.72 105.57"/>
  <rect class="st0" x="120.29" y="103.3" width="2.07" height=".43"/>
  <path class="st0" d="M127.73,105.72h-.41c-.16-.66-.34-1.42-.51-2.17-.17-.74-.34-1.49-.5-2.12l.42-.1c.16.64.33,1.38.5,2.13.11.49.22.97.33,1.43.07-.2.14-.41.21-.62.33-.95.68-1.93.9-2.87h.42c.17.58.38,1.29.59,2.01.13.43.26.86.37,1.26.23-.9.5-2.04.8-3.46l.42.09c-.4,1.85-.73,3.23-1.01,4.22h-.41c-.17-.58-.38-1.29-.59-1.99-.13-.43-.26-.87-.38-1.28-.21.73-.47,1.48-.71,2.16-.16.46-.32.91-.45,1.32Z"/>
  <polygon class="st0" points="137.39 105.57 134.81 105.57 134.81 101.47 137.39 101.47 137.39 101.9 135.24 101.9 135.24 105.14 137.39 105.14 137.39 105.57"/>
  <rect class="st0" x="134.97" y="103.3" width="2.07" height=".43"/>
  <polygon class="st0" points="143.79 105.48 141.34 105.48 141.34 101.31 141.77 101.31 141.77 105.05 143.79 105.05 143.79 105.48"/>
  <polygon class="st0" points="149.88 105.48 147.43 105.48 147.43 101.28 147.86 101.28 147.86 105.05 149.88 105.05 149.88 105.48"/>
  <polygon class="st0" points="156.26 105.57 153.67 105.57 153.67 101.47 156.25 101.47 156.25 101.9 154.1 101.9 154.1 105.14 156.26 105.14 156.26 105.57"/>
  <rect class="st0" x="153.83" y="103.3" width="2.07" height=".43"/>
  <path class="st0" d="M168.02,105.57c-.7,0-1.25-.36-1.52-1l.39-.17c.27.64.83.74,1.14.73.52,0,1.04-.28,1.18-.63.08-.2.09-.35.02-.48-.17-.34-.85-.51-1.38-.64-.95-.23-1.12-.71-1.14-.97-.03-.42.28-.82.77-1.01.53-.2,1.32-.14,1.95.65l-.34.27c-.61-.77-1.27-.59-1.46-.52-.3.12-.51.36-.5.58.02.25.31.46.8.58.67.17,1.42.35,1.68.87.12.24.12.52,0,.84-.21.52-.87.89-1.58.9,0,0-.01,0-.02,0Z"/>
  <path class="st0" d="M160.46,105.57h-.43v-4.14h1.79c.3,0,.52,0,.82.27.37.34.38,1.28.01,1.76-.3.4-1.51.33-2.2.26v1.85ZM160.46,103.28c.9.1,1.74.06,1.86-.08.25-.33.23-1.01.04-1.19-.18-.16-.26-.16-.52-.16h-.12s-1.25,0-1.25,0v1.43Z"/>
  <polygon class="st0" points="162.7 105.61 161.97 103.64 162.37 103.49 163.1 105.46 162.7 105.61"/>
</svg>