<?xml version="1.0" encoding="UTF-8"?>
<svg id="Layer_1" xmlns="http://www.w3.org/2000/svg" version="1.1" viewBox="0 0 284.22 185.49">
  <!-- Generator: Adobe Illustrator 30.1.0, SVG Export Plug-In . SVG Version: 2.1.1 Build 136)  -->
  <defs>
    <style>
      .st0 {
        fill: #fff;
      }

      .st0, .st1 {
        fill-rule: evenodd;
      }

      .st2, .st1 {
        fill: #231f20;
      }

      .st3 {
        fill: none;
        stroke: #fff;
        stroke-miterlimit: 2.61;
        stroke-width: .2px;
      }
    </style>
  </defs>
  <path class="st1" d="M191.99,74.92c0-.92.08-.95.48-1l.19-.03c.06-.06.05-.22-.02-.25-.38.02-.77.02-1.15.02s-.79,0-1.17-.02c-.07.04-.08.19-.02.25l.19.03c.41.05.48.08.48,1v3.24c0,.92-.08.95-.48,1l-.19.03c-.06.06-.05.22.02.25.38-.02.79-.02,1.17-.02s.77,0,1.15.02c.07-.03.08-.19.02-.25l-.19-.03c-.41-.05-.48-.08-.48-1v-3.24ZM188.3,74.93c0-.93.08-.96.47-1.03l.12-.02c.06-.04.05-.22-.02-.25-.32.02-.68.03-1.07.03s-.78,0-1.23-.03c-.07.03-.08.21-.02.25l.25.03c.41.05.49.08.49,1.01v3.35c0,.93-.06,1.56-.08,1.71-.02.18-.1.69-.3.69-.08,0-.16-.02-.37-.16-.14-.09-.27-.17-.39-.17-.25,0-.4.36-.4.52,0,.24.25.29.46.29.99,0,1.62-.58,1.89-1.27.16-.39.19-.99.19-1.68v-3.29ZM179.9,77.13c0,.88.18,1.49.57,1.87.4.38.97.56,1.78.56.6,0,1.24-.17,1.69-.65.45-.49.57-1.22.57-2.01v-1.04c0-.69,0-1.46.12-1.72.06-.14.22-.17.38-.21l.19-.04c.07-.06.05-.2-.02-.25-.32.02-.55.02-.92.02-.34,0-.67,0-.96-.02-.09.03-.1.18-.02.25l.17.03c.22.03.35.1.43.23.16.25.16,1.06.16,1.72v1.09c0,1.33-.47,2.19-1.6,2.19-1.2,0-1.56-1.01-1.56-2.22v-2c0-.93.08-.95.48-1.01l.19-.03c.06-.06.05-.21-.02-.25-.38.02-.77.02-1.16.02s-.77,0-1.12-.02c-.07.04-.08.18-.02.25l.15.03c.41.06.48.09.48,1.01v2.22ZM175.29,76.89c-.21,0-.23,0-.14-.25l.36-1.02c.16-.41.22-.63.26-.69h.02c.04.06.09.23.24.69l.36,1.05c.07.21.03.23-.21.23h-.9ZM176.31,77.28c.24,0,.27,0,.35.23l.41,1.19c.11.38.09.43-.22.46l-.19.03c-.05.05-.04.21.03.25.3,0,.68-.02,1.05-.02.45,0,.77,0,1.12.02.06-.04.06-.19,0-.25l-.13-.03c-.44-.08-.48-.14-.68-.72l-1.24-3.66c-.14-.39-.25-.8-.39-1.2-.03-.04-.08-.07-.15-.07-.02,0-.3.36-.61.42.03.15-.05.36-.16.64l-1.18,3.11c-.18.47-.32.84-.42,1.06-.13.29-.22.37-.48.4l-.26.04c-.06.08-.05.21,0,.25.3-.02.57-.02.86-.02.35,0,.64,0,.92.02.07-.03.08-.19.02-.25l-.25-.04c-.32-.04-.35-.07-.18-.58l.35-1.05c.08-.23.07-.23.29-.23h1.15ZM170.09,76.62c.44,0,.47.02.47.25v1.28c0,.92-.08.95-.48,1l-.19.03c-.06.06-.05.22.02.25.38-.02.77-.02,1.17-.02s.77,0,1.15.02c.07-.03.08-.19.02-.25l-.19-.03c-.41-.05-.48-.08-.48-1v-3.24c0-.92.08-.95.48-1l.16-.03c.06-.04.05-.22-.02-.25-.35.02-.73.02-1.12.02s-.77,0-1.17-.02c-.07.04-.08.21-.02.25l.19.03c.41.05.48.08.48,1v1.06c0,.24-.03.26-.47.26h-2.02c-.44,0-.47-.02-.47-.26v-1.06c0-.92.08-.95.48-1l.15-.03c.06-.04.05-.22-.02-.25-.34.02-.73.02-1.11.02s-.79,0-1.17-.02c-.07.04-.08.21-.02.25l.19.03c.41.05.48.08.48,1v3.24c0,.92-.08.95-.48,1.01l-.12.02c-.06.06-.05.22.02.25.33-.02.72-.02,1.1-.02s.77,0,1.22.02c.07-.03.08-.19.02-.25l-.26-.03c-.41-.04-.48-.07-.48-.99v-1.28c0-.23.03-.25.47-.25h2.02ZM161.41,74.35c0-.35.03-.37.46-.37.54,0,1.1.31,1.1,1.07s-.37,1.11-1.18,1.11c-.35,0-.37,0-.37-.24v-1.58ZM161.41,76.72c0-.17.02-.23.4-.23.96,0,1.56.53,1.56,1.43,0,.78-.53,1.17-1.12,1.17-.75,0-.84-.32-.84-1.12v-1.26ZM160.41,78.16c0,.92-.08.95-.48,1l-.19.03c-.06.06-.05.22.02.26.38-.02.79-.03,1.17-.03.33,0,.69.03,1.07.03.99,0,1.56-.15,1.96-.49.4-.32.53-.76.53-1.16,0-.99-.73-1.41-1.39-1.52-.05-.02-.07-.04-.07-.05s.02-.04.05-.05c.6-.2.98-.59.98-1.11,0-.55-.21-.9-.6-1.13-.39-.23-.97-.3-1.69-.3-.95,0-1.58.04-1.97.08-.07.04-.07.18,0,.24l.22.03c.41.04.41.15.41.99v3.19ZM157.97,79.14c-.28-.03-.37-.1-.4-.68-.06-1.29-.08-2.58-.08-3.87,0-.46.09-.61.47-.66l.29-.04c.09-.05.07-.22-.03-.25-.24.02-.54.03-.91.03-.19,0-.48,0-.71-.03-.15.58-.42,1.09-.7,1.67l-.81,1.68c-.19.41-.31.65-.45.91-.11-.2-.34-.64-.41-.78l-.95-2.02c-.22-.47-.44-.92-.48-1.45-.32.03-.62.03-.93.03-.32,0-.55,0-.81-.03-.08.03-.09.19-.03.25l.29.05c.34.05.47.24.47.64,0,.53-.05,1.26-.09,1.85-.04.91-.06,1.47-.13,2.02-.05.53-.12.66-.54.72l-.15.02c-.05.04-.05.21.03.25.34-.02.65-.02.92-.02.32,0,.59,0,.91.02.07-.03.07-.2,0-.25l-.29-.05c-.37-.06-.38-.2-.38-.78,0-.72.02-1.49.03-2.02.02-.37.03-1.05.05-1.48h.02c.1.26.34.81.5,1.18l.77,1.67c.2.44.57,1.29.72,1.77.06.03.19.03.22,0,.16-.41.59-1.38.88-1.99l.74-1.54c.16-.35.29-.61.52-1.09h.02v3.57c0,.59-.03.66-.37.72l-.23.04c-.09.05-.05.22.02.25.38-.02.75-.02,1.16-.02.35,0,.68,0,1.05.02.1-.03.1-.22.02-.25l-.25-.04ZM146.4,76.89c-.21,0-.23,0-.14-.25l.36-1.02c.16-.41.22-.63.26-.69h.02c.04.06.09.23.24.69l.36,1.05c.07.21.03.23-.21.23h-.9ZM147.41,77.28c.24,0,.27,0,.35.23l.41,1.19c.11.38.09.43-.22.46l-.19.03c-.05.05-.04.21.03.25.3,0,.68-.02,1.05-.02.45,0,.77,0,1.12.02.06-.04.06-.19,0-.25l-.13-.03c-.44-.08-.48-.14-.68-.72l-1.24-3.66c-.14-.39-.25-.8-.39-1.2-.03-.04-.08-.07-.15-.07-.02,0-.3.36-.61.42.03.15-.05.36-.16.64l-1.18,3.11c-.18.47-.32.84-.42,1.06-.13.29-.22.37-.48.4l-.26.04c-.06.08-.05.21,0,.25.3-.02.57-.02.86-.02.35,0,.64,0,.92.02.07-.03.08-.19.02-.25l-.25-.04c-.32-.04-.35-.07-.18-.58l.35-1.05c.08-.23.07-.23.29-.23h1.15ZM140.05,74.41c0-.4,0-.43.46-.43.75,0,1.19.6,1.19,1.29,0,.83-.39,1.25-1.24,1.25-.41,0-.41-.02-.41-.3v-1.82ZM139.05,78.16c0,.92-.08.95-.48,1l-.19.03c-.08.06-.05.22.02.25.4-.02.79-.02,1.17-.02s.77,0,1.15.02c.07-.03.08-.19.02-.25l-.19-.03c-.41-.05-.48-.08-.48-1v-1.12c0-.18,0-.19.27-.19.29,0,.38.03.54.3.21.34.45.82.68,1.19.53.81.98,1.15,1.81,1.15.3,0,.47-.03.57-.05.03-.04.03-.14-.02-.17-.1,0-.35-.06-.6-.27-.41-.34-.84-1.08-1.53-2.26-.03-.05-.05-.12,0-.15.42-.17,1.04-.58,1.04-1.38,0-.63-.32-1.04-.76-1.27-.38-.21-.97-.3-1.64-.3-.71,0-1.44.03-1.99.08-.07.04-.07.18,0,.24l.22.03c.41.04.41.15.41.99v3.19ZM134.79,74.92c0-.92.08-.95.48-1l.19-.03c.06-.06.05-.22-.02-.25-.38.02-.77.02-1.15.02s-.79,0-1.17-.02c-.07.04-.08.19-.02.25l.19.03c.41.05.48.08.48,1v3.24c0,.92-.08.95-.48,1l-.19.03c-.06.06-.05.22.02.25.38-.02.79-.02,1.17-.02s.77,0,1.15.02c.07-.03.08-.19.02-.25l-.19-.03c-.41-.05-.48-.08-.48-1v-3.24ZM131.1,74.93c0-.93.08-.96.47-1.03l.12-.02c.06-.04.05-.22-.02-.25-.32.02-.68.03-1.07.03s-.78,0-1.23-.03c-.07.03-.08.21-.02.25l.25.03c.42.05.49.08.49,1.01v3.35c0,.93-.06,1.56-.08,1.71-.02.18-.1.69-.3.69-.08,0-.16-.02-.37-.16-.14-.09-.27-.17-.39-.17-.25,0-.4.36-.4.52,0,.24.25.29.46.29.99,0,1.62-.58,1.89-1.27.16-.39.19-.99.19-1.68v-3.29ZM124.67,76.89c-.21,0-.23,0-.14-.25l.36-1.02c.16-.41.22-.63.26-.69h.02c.04.06.1.23.24.69l.36,1.05c.07.21.03.23-.21.23h-.9ZM125.68,77.28c.24,0,.27,0,.35.23l.41,1.19c.11.38.09.43-.22.46l-.19.03c-.05.05-.04.21.03.25.3,0,.68-.02,1.05-.02.45,0,.77,0,1.12.02.06-.04.06-.19,0-.25l-.13-.03c-.44-.08-.48-.14-.68-.72l-1.24-3.66c-.14-.39-.25-.8-.39-1.2-.03-.04-.08-.07-.15-.07-.02,0-.3.36-.61.42.03.15-.05.36-.16.64l-1.18,3.11c-.18.47-.32.84-.42,1.06-.13.29-.22.37-.48.4l-.26.04c-.06.08-.05.21,0,.25.3-.02.57-.02.86-.02.35,0,.64,0,.92.02.07-.03.08-.19.02-.25l-.25-.04c-.32-.04-.35-.07-.18-.58l.35-1.05c.08-.23.07-.23.29-.23h1.15ZM119.21,78.16c0,.93-.08.95-.48,1l-.28.03c-.06.06-.05.22.02.25.47-.02.86-.03,1.25-.03s.77,0,1.3.03c.07-.03.08-.19.02-.25l-.33-.03c-.42-.04-.5-.07-.5-1v-.52c0-.59.06-.78.32-1.23.27-.49.53-.97.82-1.47.45-.77.55-.93.94-1l.25-.05c.06-.07.06-.21-.02-.25-.28.02-.55.03-.82.03s-.53,0-.91-.03c-.09.04-.09.19-.03.25l.26.06c.12.02.2.04.2.13,0,.1-.09.29-.23.58-.34.65-.66,1.27-1.01,1.93-.35-.64-.66-1.34-1-2.09-.12-.29-.16-.38-.16-.45s.04-.1.18-.11l.26-.04c.07-.06.05-.22-.02-.25-.2.02-.73.03-1.11.03-.35,0-.72,0-1.09-.03-.07.03-.09.19-.03.25l.22.05c.39.08.46.18.65.56l1.04,2.07c.24.46.28.59.28,1.08v.51ZM113.23,78.16c0,.93-.08.95-.48,1l-.28.03c-.06.06-.05.22.02.25.47-.02.86-.03,1.25-.03s.77,0,1.3.03c.07-.03.08-.19.02-.25l-.33-.03c-.42-.04-.5-.07-.5-1v-.52c0-.59.06-.78.32-1.23.27-.49.53-.97.82-1.47.45-.77.55-.93.94-1l.25-.05c.06-.07.06-.21-.02-.25-.28.02-.55.03-.82.03s-.53,0-.91-.03c-.09.04-.09.19-.03.25l.26.06c.12.02.2.04.2.13,0,.1-.09.29-.23.58-.34.65-.66,1.27-1.01,1.93-.35-.64-.66-1.34-1-2.09-.12-.29-.16-.38-.16-.45s.04-.1.18-.11l.26-.04c.07-.06.05-.22-.02-.25-.2.02-.73.03-1.11.03-.35,0-.72,0-1.09-.03-.07.03-.09.19-.03.25l.22.05c.39.08.46.18.65.56l1.04,2.07c.24.46.28.59.28,1.08v.51ZM107.43,76.89c-.21,0-.23,0-.14-.25l.36-1.02c.16-.41.22-.63.26-.69h.02c.04.06.09.23.24.69l.36,1.05c.07.21.03.23-.21.23h-.9ZM108.44,77.28c.24,0,.27,0,.35.23l.41,1.19c.11.38.09.43-.22.46l-.19.03c-.05.05-.04.21.03.25.3,0,.68-.02,1.05-.02.45,0,.77,0,1.12.02.06-.04.06-.19,0-.25l-.13-.03c-.44-.08-.48-.14-.68-.72l-1.24-3.66c-.14-.39-.25-.8-.39-1.2-.03-.04-.08-.07-.15-.07-.02,0-.3.36-.6.42.03.15-.05.36-.16.64l-1.18,3.11c-.18.47-.32.84-.42,1.06-.13.29-.22.37-.48.4l-.26.04c-.06.08-.05.21,0,.25.3-.02.57-.02.86-.02.35,0,.64,0,.92.02.07-.03.08-.19.02-.25l-.25-.04c-.32-.04-.35-.07-.18-.58l.35-1.05c.08-.23.07-.23.29-.23h1.15ZM102.23,76.62c.44,0,.47.02.47.25v1.28c0,.92-.08.95-.48,1l-.19.03c-.06.06-.05.22.02.25.38-.02.77-.02,1.17-.02s.77,0,1.15.02c.07-.03.08-.19.02-.25l-.19-.03c-.41-.05-.48-.08-.48-1v-3.24c0-.92.08-.95.48-1l.16-.03c.06-.04.05-.22-.02-.25-.35.02-.73.02-1.11.02s-.77,0-1.17-.02c-.07.04-.08.21-.02.25l.19.03c.41.05.48.08.48,1v1.06c0,.24-.03.26-.47.26h-2.02c-.44,0-.47-.02-.47-.26v-1.06c0-.92.08-.95.48-1l.15-.03c.06-.04.05-.22-.02-.25-.34.02-.73.02-1.11.02s-.79,0-1.17-.02c-.07.04-.08.21-.02.25l.19.03c.41.05.48.08.48,1v3.24c0,.92-.08.95-.48,1.01l-.12.02c-.06.06-.05.22.02.25.33-.02.72-.02,1.1-.02s.77,0,1.22.02c.07-.03.08-.19.02-.25l-.26-.03c-.41-.04-.48-.07-.48-.99v-1.28c0-.23.03-.25.47-.25h2.02ZM93.55,74.35c0-.35.03-.37.46-.37.54,0,1.1.31,1.1,1.07s-.37,1.11-1.18,1.11c-.35,0-.37,0-.37-.24v-1.58ZM93.55,76.72c0-.17.02-.23.4-.23.96,0,1.56.53,1.56,1.43,0,.78-.53,1.17-1.12,1.17-.75,0-.84-.32-.84-1.12v-1.26ZM92.55,78.16c0,.92-.08.95-.48,1l-.19.03c-.06.06-.05.22.02.26.38-.02.79-.03,1.17-.03.33,0,.69.03,1.07.03.99,0,1.56-.15,1.96-.49.4-.32.53-.76.53-1.16,0-.99-.73-1.41-1.39-1.52-.05-.02-.07-.04-.07-.05s.02-.04.05-.05c.6-.2.98-.59.98-1.11,0-.55-.21-.9-.6-1.13-.39-.23-.97-.3-1.69-.3-.95,0-1.58.04-1.97.08-.07.04-.07.18,0,.24l.22.03c.41.04.42.15.42.99v3.19Z"/>
  <path class="st1" d="M175.9,84.77v5.45h.29c.92,0,1.59-.27,2.01-.8.41-.53.68-1.32.79-2.35h.42v7h-.42c-.08-.76-.27-1.39-.54-1.87-.28-.49-.59-.81-.96-.98-.36-.17-.89-.25-1.59-.25v3.76c0,.74.03,1.18.1,1.35.07.16.19.3.38.4.19.1.48.16.9.16h.87c1.35,0,2.44-.29,3.26-.86.82-.58,1.4-1.45,1.76-2.64h.4l-.65,4.25h-12.51v-.34h.48c.42,0,.76-.07,1.01-.21.19-.09.33-.25.43-.48.08-.16.12-.58.12-1.25v-8.82c0-.61-.02-.98-.05-1.12-.07-.23-.2-.41-.39-.53-.27-.19-.64-.28-1.11-.28h-.48v-.34h12.12v3.95h-.42c-.2-.97-.5-1.66-.87-2.08-.37-.42-.9-.73-1.58-.93-.4-.12-1.14-.18-2.23-.18h-1.51ZM159.13,84.75v10.44c0,.55.03.89.09,1.02.05.12.15.22.29.29.19.1.47.15.84.15,1.19,0,2.1-.37,2.73-1.12.86-1.01,1.29-2.59,1.29-4.72,0-1.72-.29-3.09-.88-4.11-.46-.8-1.06-1.35-1.79-1.64-.51-.21-1.37-.3-2.56-.3ZM153.62,97.38v-.34h.48c.42,0,.74-.06.97-.19.22-.12.39-.29.5-.5.06-.14.09-.55.09-1.25v-8.82c0-.69-.04-1.12-.12-1.29-.08-.17-.24-.32-.47-.45-.24-.13-.56-.2-.97-.2h-.48v-.34h6.48c1.73,0,3.12.22,4.18.65,1.29.53,2.26,1.34,2.93,2.41.67,1.08,1,2.3,1,3.66,0,.94-.16,1.81-.49,2.6-.33.79-.75,1.45-1.27,1.96-.52.51-1.12.93-1.8,1.24-.68.31-1.51.55-2.49.73-.43.08-1.12.12-2.05.12h-6.48ZM144.61,89.14l5.08,5.89c.72.83,1.34,1.4,1.86,1.7.38.21.78.32,1.2.32v.34h-7.53v-.34c.48-.04.78-.11.92-.21.14-.1.21-.22.21-.37,0-.28-.32-.8-.98-1.57l-3.32-3.85-.54.4v3.66c0,.7.04,1.14.13,1.31.09.17.25.32.5.44.24.12.63.19,1.17.19v.34h-7.31v-.34h.48c.42,0,.76-.07,1.01-.21.19-.09.33-.25.43-.48.08-.16.12-.58.12-1.25v-8.82c0-.69-.04-1.12-.12-1.29-.08-.17-.24-.32-.47-.45-.24-.13-.56-.2-.97-.2h-.48v-.34h7.2v.34c-.49,0-.86.07-1.12.2-.19.09-.33.25-.44.47-.08.17-.13.59-.13,1.27v4.17l5.39-4c.75-.57,1.12-1.03,1.12-1.37,0-.26-.15-.45-.46-.6-.16-.07-.54-.12-1.16-.14v-.34h5.64v.34c-.51.03-.9.12-1.19.26-.29.13-.95.6-1.99,1.39l-4.24,3.15ZM126.23,84.47c-1.33,0-2.34.62-3.04,1.87-.57,1.02-.85,2.49-.85,4.41,0,2.28.44,3.96,1.31,5.05.61.76,1.46,1.14,2.55,1.14.74,0,1.35-.16,1.84-.49.63-.42,1.12-1.09,1.47-2.01.35-.92.53-2.13.53-3.61,0-1.77-.18-3.09-.54-3.96-.36-.88-.81-1.5-1.37-1.86-.55-.36-1.19-.54-1.91-.54ZM126.1,83.84c2.31-.08,4.18.54,5.63,1.86,1.44,1.32,2.17,2.97,2.17,4.95,0,1.69-.54,3.18-1.62,4.47-1.43,1.7-3.44,2.56-6.04,2.56s-4.63-.81-6.05-2.44c-1.13-1.29-1.69-2.81-1.69-4.58,0-1.98.73-3.64,2.2-4.96,1.47-1.32,3.27-1.94,5.41-1.87ZM106.87,84.75v5.83h.61c.99,0,1.74-.08,2.23-.25.49-.17.88-.47,1.16-.9.28-.43.42-1,.42-1.7,0-1.02-.26-1.77-.78-2.25-.52-.48-1.35-.73-2.5-.73h-1.14ZM106.87,91.29v3.77c0,.72.05,1.18.15,1.36.09.19.27.34.51.45.24.11.7.17,1.36.17v.34h-7.41v-.34c.67,0,1.13-.06,1.36-.17.24-.11.41-.27.5-.45.1-.19.15-.64.15-1.36v-8.74c0-.72-.05-1.18-.15-1.36-.1-.19-.27-.34-.51-.45-.24-.11-.7-.17-1.36-.17v-.34h6.74c1.75,0,3.03.11,3.85.34.81.22,1.48.64,1.99,1.24.51.6.77,1.31.77,2.12,0,.99-.39,1.8-1.16,2.45-.49.41-1.18.72-2.07.92l3.47,4.53c.46.58.79.95.98,1.09.29.2.63.31,1.02.33v.36h-4.56l-4.68-6.09h-.95Z"/>
  <rect class="st2" x="101.74" y="100.1" width="81.14" height="7.65"/>
  <path class="st0" d="M173.44,104.67l.84-.08c.05.28.15.49.31.62.15.13.36.2.62.2.28,0,.48-.06.62-.18.14-.12.21-.25.21-.41,0-.1-.03-.19-.09-.26-.06-.07-.16-.13-.31-.18-.1-.04-.33-.1-.69-.19-.46-.12-.78-.26-.97-.42-.26-.24-.39-.52-.39-.86,0-.22.06-.42.18-.61.12-.19.3-.33.53-.43.23-.1.51-.15.84-.15.53,0,.94.12,1.2.36.27.24.41.55.42.95l-.86.03c-.04-.22-.12-.38-.24-.47-.12-.1-.3-.15-.54-.15s-.44.05-.58.16c-.09.07-.14.15-.14.27,0,.1.04.19.13.26.11.09.37.19.79.29.42.1.73.2.93.31.2.11.36.25.47.43.11.18.17.41.17.68,0,.24-.07.47-.2.69-.14.21-.33.37-.58.48-.25.1-.56.16-.93.16-.54,0-.95-.12-1.24-.37-.29-.25-.46-.61-.52-1.09ZM166.09,103.59h.64c.41,0,.67-.02.77-.05.1-.03.18-.1.24-.18.06-.09.09-.19.09-.32,0-.14-.04-.26-.12-.35-.08-.09-.18-.14-.32-.17-.07-.01-.28-.01-.63-.01h-.67v1.08ZM165.23,106.05v-4.26h1.81c.46,0,.79.04.99.12.21.08.37.21.5.41.12.2.19.42.19.67,0,.32-.09.58-.28.79-.19.21-.47.34-.84.39.19.11.34.23.46.36.12.13.28.36.49.69l.52.83h-1.03l-.62-.93c-.22-.33-.37-.54-.46-.63-.08-.09-.17-.14-.26-.18-.09-.03-.24-.05-.44-.05h-.17v1.78h-.86ZM157.12,106.05v-4.26h3.16v.72h-2.29v.95h2.13v.72h-2.13v1.16h2.38v.72h-3.24ZM149.36,106.05v-4.23h.86v3.51h2.14v.72h-3ZM141.59,106.05v-4.23h.86v3.51h2.14v.72h-3ZM133.45,106.05v-4.26h3.16v.72h-2.29v.95h2.13v.72h-2.13v1.16h2.38v.72h-3.24ZM124.28,106.05l-1-4.26h.89l.63,2.93.78-2.93h1.03l.74,2.98.65-2.98h.87l-1.03,4.26h-.92l-.84-3.19-.85,3.19h-.95ZM115.58,106.05v-4.26h3.16v.72h-2.29v.95h2.13v.72h-2.13v1.16h2.38v.72h-3.24ZM109.66,101.79h.86v2.7c0,.35-.03.63-.09.82-.08.25-.23.45-.45.6-.22.15-.51.23-.87.23-.42,0-.74-.12-.97-.35-.23-.24-.34-.58-.34-1.04l.82-.1c0,.24.04.42.11.52.09.15.23.23.42.23s.32-.05.4-.16c.08-.11.12-.34.12-.68v-2.76Z"/>
  <path class="st3" d="M173.44,104.67l.84-.08c.05.28.15.49.31.62.15.13.36.2.62.2.28,0,.48-.06.62-.18.14-.12.21-.25.21-.41,0-.1-.03-.19-.09-.26-.06-.07-.16-.13-.31-.18-.1-.04-.33-.1-.69-.19-.46-.12-.78-.26-.97-.42-.26-.24-.39-.52-.39-.86,0-.22.06-.42.18-.61.12-.19.3-.33.53-.43.23-.1.51-.15.84-.15.53,0,.94.12,1.2.36.27.24.41.55.42.95l-.86.03c-.04-.22-.12-.38-.24-.47-.12-.1-.3-.15-.54-.15s-.44.05-.58.16c-.09.07-.14.15-.14.27,0,.1.04.19.13.26.11.09.37.19.79.29.42.1.73.2.93.31.2.11.36.25.47.43.11.18.17.41.17.68,0,.24-.07.47-.2.69-.14.21-.33.37-.58.48-.25.1-.56.16-.93.16-.54,0-.95-.12-1.24-.37-.29-.25-.46-.61-.52-1.09ZM166.09,103.59h.64c.41,0,.67-.02.77-.05.1-.03.18-.1.24-.18.06-.09.09-.19.09-.32,0-.14-.04-.26-.12-.35-.08-.09-.18-.14-.32-.17-.07-.01-.28-.01-.63-.01h-.67v1.08ZM165.23,106.05v-4.26h1.81c.46,0,.79.04.99.12.21.08.37.21.5.41.12.2.19.42.19.67,0,.32-.09.58-.28.79-.19.21-.47.34-.84.39.19.11.34.23.46.36.12.13.28.36.49.69l.52.83h-1.03l-.62-.93c-.22-.33-.37-.54-.46-.63-.08-.09-.17-.14-.26-.18-.09-.03-.24-.05-.44-.05h-.17v1.78h-.86ZM157.12,106.05v-4.26h3.16v.72h-2.29v.95h2.13v.72h-2.13v1.16h2.38v.72h-3.24ZM149.36,106.05v-4.23h.86v3.51h2.14v.72h-3ZM141.59,106.05v-4.23h.86v3.51h2.14v.72h-3ZM133.45,106.05v-4.26h3.16v.72h-2.29v.95h2.13v.72h-2.13v1.16h2.38v.72h-3.24ZM124.28,106.05l-1-4.26h.89l.63,2.93.78-2.93h1.03l.74,2.98.65-2.98h.87l-1.03,4.26h-.92l-.84-3.19-.85,3.19h-.95ZM115.58,106.05v-4.26h3.16v.72h-2.29v.95h2.13v.72h-2.13v1.16h2.38v.72h-3.24ZM109.66,101.79h.86v2.7c0,.35-.03.63-.09.82-.08.25-.23.45-.45.6-.22.15-.51.23-.87.23-.42,0-.74-.12-.97-.35-.23-.24-.34-.58-.34-1.04l.82-.1c0,.24.04.42.11.52.09.15.23.23.42.23s.32-.05.4-.16c.08-.11.12-.34.12-.68v-2.76Z"/>
  <path class="st1" d="M91.85,107.08c.64,1.23,2.42-.63,1.06-1.85-.43-.39-.99-.55-1.57-.58-.37-.02-.75.04-1.12.2-.5.22-.31.2-.72-.13-.6-.49-1.15-.31-.66.56.24.42.23.31-.05.72-.97,1.42-.8,2.77-.03,3.84,1.7,2.37,4.88,2.75,7.19,1.12.36-.26.52-.43.95-.31.78.22,1.74.34.75-.75-.31-.35-.29-.23,0-.6,1.67-2.14,2.54-5.87.11-7.84-.23-.19-.21-.11-.04-.33.58-.72.23-1.6-.74-.92-.19.13-.18.18-.37.02-.14-.11-.25-.26-.34-.45-.17-.33-.06-.25.22-.4,1.23-.67.9-2.19-.71-.8-.23.2-.23.27-.25-.08-.06-.87.22-1.39,1.01-1.72.48-.19.97-.1,1.45.27.29.23.32.43.55.02.28-.5.03-.97-.6-1.12-1.78-.43-4.21.97-3.09,2.6.28.41.49.36-.09.41-1.14.1-1.82.51-2.31,1.26-.18.27-.29.34.06.23,2.35-.73,5.11,1.24,5.71,3.57.17.65.11.55-.33.16-1.22-1.09-2.22-2.1-3.8-2.11-.65,0-1.33.08-1.74.65-.61.83.73,1.64,1.31,1.27.43-.27.07-.61.69-.82.91-.31,1.8.19,2.66,1.13.4.43.26.27-.19.41-.53.16-.74.56.02,1.73.56.86.69,1.53.19,2.44-.14.26-.13.2-.36.04-.65-.46-1.15-.69-1.06-.04.04.27.09.35,0,.61-.69,1.82-3.16,1.9-4.13,1.04-.26-.23-.23-.34-.26-.66-.06-.64-.36-.78-.88-.45-.37.24-.3.29-.57-.11-1.37-2.07.9-4.36,1.84-3.32.39.43.03.69.24,1.09"/>
  <path class="st1" d="M192.38,107.08c-.64,1.23-2.42-.63-1.06-1.85.43-.39.99-.55,1.57-.58.37-.02.75.04,1.12.2.5.22.31.2.72-.13.6-.49,1.15-.31.66.56-.24.42-.23.31.05.72.97,1.42.8,2.77.03,3.84-1.7,2.37-4.88,2.75-7.19,1.12-.36-.26-.52-.43-.95-.31-.78.22-1.74.34-.75-.75.31-.35.29-.23,0-.6-1.67-2.14-2.54-5.87-.11-7.84.23-.19.21-.11.04-.33-.58-.72-.23-1.6.74-.92.19.13.18.18.37.02.14-.11.25-.26.34-.45.17-.33.06-.25-.22-.4-1.23-.67-.9-2.19.71-.8.23.2.23.27.25-.08.06-.87-.22-1.39-1.01-1.72-.48-.19-.97-.1-1.45.27-.29.23-.32.43-.55.02-.28-.5-.03-.97.6-1.12,1.78-.43,4.21.97,3.09,2.6-.28.41-.49.36.09.41,1.14.1,1.82.51,2.31,1.26.18.27.29.34-.06.23-2.35-.73-5.11,1.24-5.71,3.57-.17.65-.11.55.33.16,1.22-1.09,2.22-2.1,3.8-2.11.65,0,1.33.08,1.74.65.61.83-.73,1.64-1.31,1.27-.43-.27-.07-.61-.69-.82-.91-.31-1.8.19-2.66,1.13-.4.43-.26.27.19.41.53.16.74.56-.02,1.73-.56.86-.69,1.53-.19,2.44.14.26.13.2.36.04.65-.46,1.15-.69,1.06-.04-.04.27-.09.35,0,.61.69,1.82,3.16,1.9,4.13,1.04.26-.23.23-.34.26-.66.06-.64.36-.78.88-.45.37.24.3.29.57-.11,1.37-2.07-.9-4.36-1.84-3.32-.39.43-.03.69-.24,1.09"/>
</svg>