<?xml version="1.0" encoding="UTF-8"?>
<svg id="Layer_1" xmlns="http://www.w3.org/2000/svg" version="1.1" viewBox="0 0 284.22 185.49">
  <!-- Generator: Adobe Illustrator 30.1.0, SVG Export Plug-In . SVG Version: 2.1.1 Build 136)  -->
  <defs>
    <style>
      .st0, .st1 {
        fill: #231f20;
      }

      .st1 {
        fill-rule: evenodd;
      }

      .st2 {
        fill: none;
        stroke: #231f20;
        stroke-miterlimit: 2.61;
        stroke-width: .68px;
      }
    </style>
  </defs>
  <g>
    <path class="st1" d="M135.88,88.12c-.1.03-.03.1-.13.13-4.02.92-8.03-1.32-9.04-5.1-.83-3.11.6-6.32,3.33-8.04-1.68,1.62-2.4,4.43-1.64,7.26,1.03,3.85,4.42,6.3,7.56,5.46.13,0-.04.12-.04.22,0,.07.05.06-.03.09"/>
    <path class="st1" d="M135.58,88.56c-2.52,2.18-6.22,2.18-8.47-.08-1.9-1.9-2.2-4.82-.95-7.19-.54,1.87.11,4.2,1.84,5.92,2.35,2.35,5.81,2.7,7.73.79.13-.09.42-.34.47-.29.02.02.07.01.05.08-.02.05-.06.12-.1.19-.14.22-.37.41-.57.58"/>
    <path class="st1" d="M140.74,88.12c.1.03.03.1.13.13,4.02.92,8.03-1.32,9.04-5.1.83-3.11-.6-6.32-3.33-8.04,1.68,1.62,2.4,4.43,1.64,7.26-1.03,3.85-4.42,6.3-7.56,5.46-.13,0,.04.12.04.22,0,.07-.05.06.03.09"/>
    <path class="st1" d="M141.04,88.56c2.52,2.18,6.22,2.18,8.47-.08,1.9-1.9,2.2-4.82.95-7.19.54,1.87-.11,4.2-1.84,5.92-2.35,2.35-5.81,2.7-7.73.79-.13-.09-.42-.34-.47-.29-.02.02-.07.01-.05.08.02.05.06.12.1.19.14.22.37.41.57.58"/>
    <path class="st1" d="M141.01,72.42c3.42,1.06,5.89,4.1,5.89,7.68,0,4.46-3.84,8.08-8.58,8.08s-8.58-3.62-8.58-8.08c0-3.58,2.47-6.61,5.89-7.68-2.27,1.26-3.85,4.06-3.85,7.32,0,4.43,2.93,8.03,6.54,8.03s6.54-3.59,6.54-8.03c0-3.26-1.58-6.06-3.85-7.32"/>
    <path class="st0" d="M138.92,75.75c.52-.58.52-1.11.31-1.49-.45-.81-1.44-.77-2-.09-.19.23-.31.52-.31.82,0,.71.68,1.35,1.18,1.8,1.66,1.35,6.77,4.67,4.72,7.24.8-3.13-4.03-5.21-6.2-7.44-.66-.68-.97-1.14-1.01-2.16-.05-1.4,1.17-2.61,2.42-2.72,1.53-.13,2.5.9,2.81,1.93.31,1.05-.02,2.94-1.93,2.09"/>
  </g>
  <g>
    <path class="st1" d="M186.01,100.85v-5.06c-.01-.22-.03-.58-.18-.75-.14-.16-.43-.19-.63-.19h-.26v-.68h.14c.52.01,1.04.03,1.57.03.21,0,.41,0,.62,0,.32,0,.63-.01.95-.02h.05s0,.68,0,.68h-.25c-.2,0-.46.03-.61.19-.15.16-.18.46-.18.67v6.59h-1.89l-3.32-6.68v5.05c.01.22.03.58.19.75.15.17.42.19.63.19h.27v.68h-.05c-.22-.01-.43-.02-.65-.02-.34,0-.69,0-1.03,0s-.66,0-.99,0c-.2,0-.39,0-.59.02h-.05s0-.68,0-.68h.26c.21,0,.49-.03.64-.2.15-.18.17-.53.17-.75v-4.92c0-.22-.02-.54-.17-.71-.15-.16-.41-.19-.61-.19h-.25v-.68h.28c.46.01.93.03,1.39.03.19,0,.38,0,.58,0,.22,0,.44-.01.65-.02h.03s3.3,6.68,3.3,6.68Z"/>
    <path class="st1" d="M112.8,101.62c-.24,0-.48-.06-.64-.25-.21-.23-.35-.71-.42-1.01-.02-.11-.05-.22-.08-.32-.16-.66-.48-1.57-1.18-1.81.37-.13.69-.33.93-.64.28-.36.4-.78.4-1.23,0-.67-.21-1.27-.78-1.66-.65-.44-1.67-.52-2.44-.52h-3.42v.68h.26c.21,0,.49.03.64.2.16.18.18.52.18.74v4.88c0,.22-.02.58-.17.75-.15.17-.43.19-.64.19h-.26v.68h.05c.23-.01.46-.02.69-.02.37,0,.74,0,1.1,0s.75,0,1.12,0c.23,0,.46.01.69.02h.05s0-.68,0-.68h-.27c-.21,0-.48-.03-.63-.19-.15-.17-.17-.53-.17-.75v-2.01h.68c.31,0,.74.03,1.01.21.28.18.46.63.56.93.03.08.05.19.07.27.05.22.1.44.15.65.11.52.26,1.04.44,1.54v.03h2.26v-.68h-.19ZM109.87,97.54c-.39.28-1.01.33-1.47.33h-.6v-2.81h.79c.43,0,.98.06,1.32.35.32.27.41.7.41,1.11s-.11.79-.45,1.03Z"/>
    <path class="st1" d="M104.26,101.62c-.21-.02-.43-.07-.59-.21-.2-.17-.37-.58-.46-.82l-2.52-6.42h-1.78l-2.55,6.42c-.1.25-.26.62-.47.81-.16.15-.35.21-.57.22h-.05v.68h.05c.32-.01.65-.02.97-.02.2,0,.41,0,.61,0s.41,0,.62,0c.34,0,.68.01,1.02.02h.05s0-.68,0-.68h-.05c-.2,0-.54-.01-.72-.11-.14-.07-.18-.19-.18-.34,0-.05,0-.1.02-.14.02-.08.05-.16.07-.24l.45-1.29h3.04l.39,1.12c.04.11.07.23.1.34.02.08.03.17.03.25,0,.14-.05.24-.18.3-.18.09-.54.1-.74.11h-.05s0,.68,0,.68h.05c.21-.01.42-.02.62-.02.34,0,.69,0,1.03,0,.36,0,.73,0,1.09,0,.23,0,.46.01.69.02h.05s0-.68,0-.68h-.05ZM98.49,98.6l1.21-3.33,1.18,3.33h-2.38Z"/>
    <path class="st1" d="M178.96,101.62c-.21-.02-.43-.07-.59-.21-.2-.17-.37-.58-.46-.82l-2.52-6.42h-1.78l-2.55,6.42c-.1.25-.26.62-.47.81-.16.15-.36.21-.57.22h-.05v.68h.05c.32-.01.65-.02.97-.02.2,0,.41,0,.61,0s.41,0,.62,0c.34,0,.68.01,1.02.02h.05s0-.68,0-.68h-.05c-.2,0-.54-.01-.72-.11-.14-.07-.18-.19-.18-.34,0-.05,0-.1.02-.14.02-.08.05-.16.07-.24l.45-1.29h3.04l.39,1.12c.04.11.07.23.1.34.02.08.03.17.03.25,0,.14-.05.24-.18.3-.18.09-.54.1-.74.11h-.05s0,.68,0,.68h.06c.21-.01.42-.02.62-.02.34,0,.69,0,1.03,0,.36,0,.73,0,1.09,0,.23,0,.46.01.69.02h.05s0-.68,0-.68h-.05ZM173.19,98.6l1.21-3.33,1.17,3.33h-2.38Z"/>
    <path class="st1" d="M165.91,95.08v5.6c0,.22.02.58.17.75.15.17.42.19.63.19h.35v.68h-.05c-.24-.01-.48-.02-.72-.02-.38,0-.77,0-1.15,0s-.77,0-1.16,0c-.24,0-.48.01-.72.02h-.05s0-.68,0-.68h.34c.21,0,.49-.03.64-.2.15-.18.17-.53.17-.75v-5.6h-1c-.25,0-.66.02-.85.22-.19.19-.21.58-.21.83,0,.07,0,.14,0,.21,0,.05,0,.1,0,.14v.05h-.8v-2.36h.05c.42,0,.83,0,1.25.01.39,0,.77.01,1.16.01h2.32c.37,0,.75,0,1.12-.01.42,0,.84-.01,1.27-.01h.05v2.36h-.83v-.26c0-.26-.02-.76-.2-.97-.18-.2-.65-.22-.9-.22h-.88Z"/>
    <path class="st1" d="M156.25,95.11v2.61h.56c.22,0,.82,0,.99-.18.16-.17.18-.62.18-.84v-.05h.71v2.96h-.69v-.05c0-.23-.03-.66-.2-.83-.18-.18-.72-.19-.96-.19h-.59v2.88h1.79c.29,0,.95-.02,1.16-.26.21-.25.24-.97.24-1.28v-.05s.76,0,.76,0v2.51h-6.64v-.68h.32c.2,0,.48-.03.63-.19.15-.17.17-.54.17-.76v-4.88c0-.22-.02-.58-.17-.75-.14-.16-.43-.19-.63-.19h-.27v-.64h6.53v2.2h-.77v-.26c0-.24-.02-.67-.21-.85-.19-.19-.83-.2-1.08-.2h-1.84Z"/>
    <path class="st1" d="M147.21,97.9l2.31-2.26c.09-.09.19-.2.26-.31.04-.06.07-.13.07-.21,0-.09-.08-.14-.15-.18-.15-.07-.35-.09-.51-.09h-.05v-.67h.05c.35,0,.7.01,1.05.02.21,0,.42,0,.63,0s.43,0,.64,0c.34,0,.68-.01,1.02-.02h.05s0,.68,0,.68h-.05c-.25,0-.48.06-.71.17-.25.11-.47.27-.66.46l-2.62,2.53,2.98,2.89h0s.01.02.02.03c.23.23.75.7,1.1.7h.13v.68h-.05c-.21-.01-.43-.02-.64-.02-.35,0-.71,0-1.06,0s-.72,0-1.09,0c-.23,0-.46.01-.69.02h-.05s0-.68,0-.68h.12c.14,0,.31-.01.43-.08.08-.04.13-.1.13-.19,0-.08-.02-.15-.06-.22-.05-.1-.16-.21-.24-.29l-2.36-2.38v2.21c0,.22.02.58.17.75.15.17.42.19.63.19h.27v.68h-.05c-.23-.01-.45-.02-.68-.02-.37,0-.74,0-1.11,0s-.74,0-1.12,0c-.23,0-.46.01-.69.02h-.05s0-.68,0-.68h.27c.21,0,.48-.03.63-.19.15-.17.17-.53.17-.75v-4.88c0-.22-.02-.57-.17-.74-.15-.17-.42-.19-.63-.19h-.27v-.68h.05c.37,0,.74.01,1.11.02.23,0,.46,0,.69,0s.45,0,.68,0c.37,0,.74-.01,1.11-.02h.05s0,.68,0,.68h-.27c-.2,0-.48.03-.63.19-.15.17-.17.53-.17.75v2.1Z"/>
    <path class="st1" d="M139.6,94.18h.04c.58.01,1.17.03,1.75.03.23,0,.45,0,.68,0,.37,0,.74-.01,1.11-.02h.05s0,.68,0,.68h-.26c-.2,0-.49.03-.63.19-.15.17-.17.53-.17.75v4.88c0,.22.02.58.17.76.14.16.43.19.63.19h.26v.68h-.05c-.23-.01-.46-.02-.69-.02-.37,0-.74,0-1.11,0s-.74,0-1.1,0c-.23,0-.46.01-.69.02h-.05s0-.68,0-.68h.26c.21,0,.48-.03.62-.2.15-.18.17-.53.17-.75v-4.88c0-.22-.02-.57-.17-.74-.15-.16-.42-.19-.62-.19h-.26v-.68h.05Z"/>
    <path class="st1" d="M136.04,100.85v-5.06c-.01-.22-.03-.58-.18-.75-.14-.16-.43-.19-.63-.19h-.26v-.68h.14c.52.01,1.04.03,1.57.03.21,0,.41,0,.62,0,.32,0,.63-.01.95-.02h.05s0,.68,0,.68h-.25c-.2,0-.46.03-.61.19-.15.16-.18.46-.18.67v6.59h-1.89l-3.32-6.68v5.05c.01.22.03.58.18.75.15.17.42.19.63.19h.27v.68h-.05c-.22-.01-.43-.02-.65-.02-.34,0-.69,0-1.03,0s-.66,0-.99,0c-.2,0-.39,0-.59.02h-.05s0-.68,0-.68h.26c.21,0,.49-.03.64-.2.15-.18.17-.53.17-.75v-4.92c0-.22-.02-.54-.17-.71-.15-.16-.41-.19-.61-.19h-.25v-.68h.28c.46.01.93.03,1.39.03.19,0,.38,0,.58,0,.22,0,.44-.01.65-.02h.03s3.3,6.68,3.3,6.68Z"/>
    <path class="st1" d="M124.51,95.11v2.61h.56c.22,0,.82,0,.99-.18.16-.17.18-.62.18-.84v-.05h.71v2.96h-.69v-.05c0-.23-.03-.66-.2-.83-.18-.18-.72-.19-.96-.19h-.59v2.88h1.79c.29,0,.95-.02,1.16-.26.21-.25.24-.97.24-1.28v-.05s.76,0,.76,0v2.51h-6.64v-.68h.32c.2,0,.48-.03.63-.19.15-.17.17-.54.17-.76v-4.88c0-.22-.02-.58-.17-.75-.14-.16-.43-.19-.63-.19h-.27v-.64h6.53v2.2h-.77v-.26c0-.24-.02-.67-.21-.85-.19-.19-.83-.2-1.08-.2h-1.84Z"/>
    <path class="st1" d="M116.51,95.11v2.61h.56c.22,0,.82,0,.99-.18.16-.17.18-.62.18-.84v-.05h.71v2.96h-.69v-.05c0-.23-.03-.66-.2-.83-.18-.18-.72-.19-.96-.19h-.59v2.88h1.79c.29,0,.95-.02,1.16-.26.21-.25.24-.97.24-1.28v-.05s.76,0,.76,0v2.51h-6.64v-.68h.32c.2,0,.48-.03.63-.19.15-.17.17-.54.17-.76v-4.88c0-.22-.02-.58-.17-.75-.14-.16-.43-.19-.63-.19h-.27v-.64h6.53v2.2h-.77v-.26c0-.24-.02-.67-.21-.85-.19-.19-.83-.2-1.08-.2h-1.84Z"/>
    <path class="st1" d="M94.16,94.35v2.22h-.95v-.05s0-.08,0-.12c0-.06,0-.12,0-.18,0-.38-.08-.79-.37-1.06-.3-.28-.76-.34-1.16-.34-.44,0-.93.07-1.29.33-.31.22-.45.52-.45.9,0,.25.06.49.23.69.2.23.57.4.85.51l1.66.67c.48.19.98.47,1.31.88.3.37.42.82.42,1.3,0,.73-.27,1.33-.86,1.77-.67.5-1.55.63-2.36.63-.44,0-.88-.03-1.31-.08-.5-.06-.99-.14-1.49-.23h-.04v-2.36h.92v.05s0,.07,0,.11c0,.05,0,.1,0,.16,0,.44.11.86.45,1.15.37.31.93.38,1.4.38.43,0,.9-.08,1.25-.35.31-.25.44-.59.44-.98,0-.25-.07-.49-.23-.68-.19-.23-.49-.4-.76-.51l-1.51-.64c-.51-.21-1.13-.53-1.5-.95-.31-.35-.44-.78-.44-1.24,0-.71.26-1.29.83-1.71.66-.48,1.55-.59,2.34-.59.39,0,.78.04,1.17.09.47.06.94.16,1.41.26h.04Z"/>
  </g>
  <g>
    <path class="st0" d="M191.07,94.15v-3.9h1.66c.42,0,.72.04.91.11.19.07.34.19.45.37s.17.38.17.61c0,.29-.09.53-.26.72s-.43.31-.77.36c.17.1.31.21.42.33.11.12.26.33.45.63l.48.76h-.94l-.57-.85c-.2-.3-.34-.49-.41-.57s-.15-.13-.24-.16-.22-.04-.4-.04h-.16v1.63h-.79ZM191.85,91.9h.58c.38,0,.61-.02.71-.05s.17-.09.22-.16.08-.18.08-.29c0-.13-.04-.24-.11-.32-.07-.08-.17-.13-.3-.15-.06,0-.26-.01-.57-.01h-.61v.99Z"/>
    <circle class="st2" cx="192.55" cy="92.31" r="3.32" transform="translate(-13.98 38.08) rotate(-10.9)"/>
  </g>
  <g>
    <path class="st0" d="M104.76,107.06v-.18h4.07v.18h-.25c-.23,0-.41.03-.54.1-.09.05-.17.13-.23.24-.04.08-.06.29-.06.63v3.3c0,.65-.07,1.12-.22,1.41-.15.29-.41.54-.78.74s-.83.3-1.35.3c-.64,0-1.16-.15-1.56-.45-.4-.3-.6-.63-.6-.99,0-.23.08-.42.24-.56.16-.14.36-.22.59-.22s.42.06.58.19.23.29.23.48c0,.09-.01.17-.04.24-.02.03-.07.12-.18.25s-.16.23-.16.29c0,.09.05.16.15.22.14.09.33.14.56.14.16,0,.3-.04.4-.11.11-.07.18-.19.22-.34.04-.15.06-.58.06-1.29v-3.6c0-.34-.02-.56-.06-.65-.04-.09-.13-.16-.25-.23s-.3-.1-.51-.1h-.32Z"/>
    <path class="st0" d="M112.06,107.26v2.74h.15c.49,0,.84-.13,1.06-.4.22-.27.36-.66.42-1.19h.21v3.53h-.21c-.05-.38-.14-.7-.29-.94s-.31-.41-.51-.49-.47-.13-.84-.13v1.9c0,.37.02.6.05.68.04.08.1.15.2.2.1.05.26.08.47.08h.46c.72,0,1.29-.15,1.72-.44s.74-.74.93-1.33h.21l-.34,2.14h-6.62v-.18h.25c.22,0,.4-.03.54-.1.1-.05.17-.13.23-.24.04-.08.06-.29.06-.63v-4.43c0-.3,0-.49-.03-.56-.04-.12-.11-.21-.21-.27-.14-.09-.34-.14-.59-.14h-.25v-.18h6.41v1.99h-.21c-.11-.49-.26-.84-.46-1.05s-.48-.37-.84-.47c-.21-.06-.61-.09-1.19-.09h-.79Z"/>
    <path class="st0" d="M128.09,106.88v.18c-.14,0-.26.04-.36.1-.1.06-.18.15-.26.27-.02.04-.14.3-.36.77l-2.4,5.56h-.22l-1.9-4.34-2.09,4.34h-.21l-2.52-5.5c-.26-.55-.44-.89-.54-1-.1-.12-.27-.18-.51-.2v-.18h3.32v.18c-.27,0-.45.04-.53.11-.09.06-.13.14-.13.24,0,.13.09.39.28.8l1.5,3.27,1.2-2.56-.32-.72c-.17-.39-.31-.65-.4-.78-.09-.13-.2-.22-.32-.28-.12-.06-.3-.08-.54-.08v-.18h3.71v.18c-.26,0-.45.02-.56.05-.08.02-.14.06-.19.12s-.07.12-.07.19c0,.08.08.31.25.7l1.4,3.19,1.25-2.89c.13-.3.21-.5.24-.61.03-.11.05-.21.05-.3,0-.14-.05-.24-.16-.32-.11-.08-.31-.12-.6-.13v-.18h1.99Z"/>
    <path class="st0" d="M131.34,107.26v2.74h.15c.49,0,.84-.13,1.06-.4.22-.27.36-.66.42-1.19h.21v3.53h-.21c-.05-.38-.14-.7-.29-.94s-.31-.41-.51-.49-.47-.13-.84-.13v1.9c0,.37.02.6.05.68.04.08.1.15.2.2.1.05.26.08.47.08h.46c.72,0,1.29-.15,1.72-.44s.74-.74.93-1.33h.21l-.34,2.14h-6.62v-.18h.25c.22,0,.4-.03.54-.1.1-.05.17-.13.23-.24.04-.08.06-.29.06-.63v-4.43c0-.3,0-.49-.03-.56-.04-.12-.11-.21-.21-.27-.14-.09-.34-.14-.59-.14h-.25v-.18h6.41v1.99h-.21c-.11-.49-.26-.84-.46-1.05s-.48-.37-.84-.47c-.21-.06-.61-.09-1.19-.09h-.79Z"/>
    <path class="st0" d="M143.21,111.25l-.29,2.37h-6.8v-.18h.25c.22,0,.4-.03.54-.1.1-.05.17-.13.23-.24.04-.08.06-.29.06-.63v-4.43c0-.34-.02-.56-.06-.65-.04-.09-.12-.16-.25-.23-.13-.06-.3-.1-.51-.1h-.25v-.18h4.08v.18h-.33c-.22,0-.4.03-.54.1-.1.05-.17.13-.23.24-.04.08-.06.29-.06.63v4.3c0,.34.02.56.07.66.05.09.13.16.27.21.09.03.32.04.68.04h.64c.41,0,.75-.06,1.02-.19.27-.13.51-.32.7-.6.2-.27.38-.67.56-1.2h.23Z"/>
    <path class="st0" d="M150.93,111.25l-.29,2.37h-6.8v-.18h.25c.22,0,.4-.03.54-.1.1-.05.17-.13.23-.24.04-.08.06-.29.06-.63v-4.43c0-.34-.02-.56-.06-.65-.04-.09-.12-.16-.25-.23-.13-.06-.3-.1-.51-.1h-.25v-.18h4.08v.18h-.33c-.22,0-.4.03-.54.1-.1.05-.17.13-.23.24-.04.08-.06.29-.06.63v4.3c0,.34.02.56.07.66.05.09.13.16.27.21.09.03.32.04.68.04h.64c.41,0,.75-.06,1.02-.19.27-.13.51-.32.7-.6.2-.27.38-.67.56-1.2h.23Z"/>
    <path class="st0" d="M154.49,107.26v2.74h.15c.49,0,.84-.13,1.06-.4.22-.27.36-.66.42-1.19h.21v3.53h-.21c-.05-.38-.14-.7-.29-.94s-.31-.41-.51-.49-.47-.13-.84-.13v1.9c0,.37.02.6.05.68.04.08.1.15.2.2.1.05.26.08.47.08h.46c.72,0,1.29-.15,1.72-.44s.74-.74.93-1.33h.21l-.34,2.14h-6.62v-.18h.25c.22,0,.4-.03.54-.1.1-.05.17-.13.23-.24.04-.08.06-.29.06-.63v-4.43c0-.3,0-.49-.03-.56-.04-.12-.11-.21-.21-.27-.14-.09-.34-.14-.59-.14h-.25v-.18h6.41v1.99h-.21c-.11-.49-.26-.84-.46-1.05s-.48-.37-.84-.47c-.21-.06-.61-.09-1.19-.09h-.79Z"/>
    <path class="st0" d="M162.13,110.54v1.89c0,.36.03.59.08.69.05.09.14.17.27.23s.37.08.72.08v.18h-3.92v-.18c.35,0,.59-.03.72-.09.13-.06.21-.13.27-.23.05-.09.08-.32.08-.69v-4.37c0-.36-.03-.59-.08-.69-.05-.09-.14-.17-.27-.23s-.37-.08-.72-.08v-.18h3.56c.93,0,1.6.06,2.03.17.43.11.78.32,1.05.62.27.3.41.66.41,1.07,0,.5-.2.91-.61,1.23-.26.21-.62.36-1.09.46l1.84,2.28c.24.29.41.48.51.55.15.1.33.16.54.17v.18h-2.41l-2.47-3.07h-.5ZM162.13,107.24v2.95h.32c.52,0,.92-.04,1.18-.13.26-.08.46-.24.61-.46.15-.22.22-.51.22-.86,0-.51-.14-.89-.41-1.14-.27-.25-.71-.37-1.32-.37h-.6Z"/>
    <path class="st0" d="M172.85,106.72l.06,2.25h-.23c-.11-.56-.38-1.02-.8-1.36s-.89-.51-1.39-.51c-.38,0-.69.09-.91.27-.22.18-.34.39-.34.62,0,.15.04.28.12.4.11.16.28.31.53.46.18.11.59.3,1.23.58.9.39,1.5.75,1.81,1.1.31.34.46.74.46,1.18,0,.56-.25,1.05-.75,1.45-.5.41-1.13.61-1.9.61-.24,0-.47-.02-.68-.06s-.48-.12-.81-.24c-.18-.07-.33-.1-.45-.1-.1,0-.2.03-.31.1-.11.07-.2.17-.27.3h-.21v-2.55h.21c.17.72.48,1.26.96,1.64s.98.56,1.53.56c.42,0,.76-.1,1.01-.3.25-.2.38-.44.38-.71,0-.16-.05-.31-.14-.46-.1-.15-.24-.29-.44-.43s-.54-.31-1.04-.52c-.7-.3-1.2-.56-1.5-.77s-.54-.45-.7-.71-.25-.55-.25-.87c0-.54.22-.99.67-1.37s1.01-.57,1.7-.57c.25,0,.49.03.72.08.18.04.39.11.65.22.25.11.43.16.53.16s.18-.03.23-.08c.06-.05.11-.18.16-.38h.17Z"/>
  </g>
</svg>