<?xml version="1.0" encoding="UTF-8"?>
<svg id="Layer_1" xmlns="http://www.w3.org/2000/svg" version="1.1" viewBox="0 0 284.22 185.49">
  <!-- Generator: Adobe Illustrator 30.1.0, SVG Export Plug-In . SVG Version: 2.1.1 Build 136)  -->
  <defs>
    <style>
      .st0 {
        fill: none;
        stroke: #231f20;
        stroke-linecap: round;
        stroke-linejoin: round;
        stroke-width: .4px;
      }

      .st1 {
        fill: #231f20;
      }
    </style>
  </defs>
  <g>
    <path class="st1" d="M86.29,120.68h2.04c.08.66.3,1.15.68,1.47.37.32.91.48,1.62.48.6,0,1.06-.13,1.36-.39.31-.26.46-.64.46-1.14,0-.73-.88-1.34-2.63-1.82l-.06-.02s-.12-.03-.21-.06c-.94-.25-1.61-.52-2.01-.83-.36-.27-.63-.64-.81-1.1-.19-.46-.28-1.01-.28-1.64,0-1.18.33-2.08,1-2.7.67-.63,1.63-.94,2.88-.94,1.18,0,2.1.33,2.76,1,.66.67,1.01,1.61,1.05,2.82h-1.99c-.04-.59-.22-1.03-.56-1.34-.34-.31-.82-.46-1.44-.46-.54,0-.96.13-1.25.38-.29.25-.44.62-.44,1.09,0,.64.57,1.12,1.72,1.44.31.09.55.16.72.21.73.22,1.25.4,1.56.52.31.13.58.27.8.42.41.27.72.64.92,1.09.2.45.31.99.31,1.62,0,1.26-.35,2.23-1.06,2.92-.71.69-1.7,1.04-2.99,1.04s-2.26-.35-2.98-1.06c-.72-.71-1.11-1.71-1.16-3.01Z"/>
    <path class="st1" d="M95.95,124.41v-10.36h1.78v4.25l3.37-4.25h2.22l-3.45,4.19,3.76,6.17h-2.17l-2.81-4.74-.92,1.1v3.64h-1.78Z"/>
    <path class="st1" d="M106.47,114.06h2.05l3.11,10.36h-1.86l-.59-2.13h-3.35l-.57,2.13h-1.87l3.07-10.36ZM107.5,116.13l-1.2,4.41h2.4l-1.2-4.41Z"/>
    <path class="st1" d="M112.53,124.41v-10.36h1.86l3.5,7.12v-7.12h1.75v10.36h-1.83l-3.53-7.12v7.12h-1.75Z"/>
    <path class="st1" d="M121.42,124.41v-10.36h3.38c1.32,0,2.31.43,2.96,1.29.65.86.98,2.16.98,3.9,0,.95-.12,1.78-.36,2.5-.24.72-.59,1.3-1.05,1.74-.34.33-.73.56-1.17.71s-1.05.21-1.84.21h-2.9ZM123.16,122.54h1.42c.82,0,1.42-.26,1.79-.78.37-.52.55-1.36.55-2.52s-.17-2.01-.52-2.55-.88-.82-1.61-.82h-1.64v6.67Z"/>
    <path class="st1" d="M130.14,124.41v-10.36h1.79v3.86h3.56v-3.86h1.79v10.36h-1.79v-4.59h-3.56v4.59h-1.79Z"/>
    <path class="st1" d="M141.24,114.06h2.05l3.11,10.36h-1.86l-.59-2.13h-3.35l-.57,2.13h-1.87l3.07-10.36ZM142.27,116.13l-1.2,4.41h2.4l-1.2-4.41Z"/>
    <path class="st1" d="M149.47,114.06h2.05l3.11,10.36h-1.86l-.59-2.13h-3.35l-.57,2.13h-1.87l3.07-10.36ZM150.51,116.13l-1.2,4.41h2.4l-1.2-4.41Z"/>
    <path class="st1" d="M158.62,120.68h2.04c.08.66.3,1.15.68,1.47.37.32.91.48,1.62.48.6,0,1.06-.13,1.36-.39.31-.26.46-.64.46-1.14,0-.73-.88-1.34-2.63-1.82l-.06-.02s-.12-.03-.21-.06c-.94-.25-1.61-.52-2.01-.83-.36-.27-.63-.64-.81-1.1-.19-.46-.28-1.01-.28-1.64,0-1.18.33-2.08,1-2.7.67-.63,1.63-.94,2.88-.94,1.18,0,2.1.33,2.76,1,.66.67,1.01,1.61,1.05,2.82h-1.99c-.04-.59-.22-1.03-.56-1.34-.34-.31-.82-.46-1.44-.46-.54,0-.96.13-1.25.38-.29.25-.44.62-.44,1.09,0,.64.57,1.12,1.72,1.44.31.09.55.16.72.21.73.22,1.25.4,1.56.52.31.13.58.27.8.42.41.27.72.64.92,1.09.2.45.31.99.31,1.62,0,1.26-.35,2.23-1.06,2.92-.71.69-1.7,1.04-2.99,1.04s-2.26-.35-2.98-1.06c-.72-.71-1.11-1.71-1.16-3.01Z"/>
    <path class="st1" d="M168.16,115.92v-1.86h1.71v1.86h-1.71ZM168.16,124.41v-7.64h1.71v7.64h-1.71Z"/>
    <path class="st1" d="M171.45,124.41v-10.36h1.71v10.36h-1.71Z"/>
    <path class="st1" d="M176.26,124.41l-2.29-7.64h1.89l1.31,5.48,1.32-5.48h1.8l-2.28,7.64h-1.74Z"/>
    <path class="st1" d="M184.97,122.09h1.7c-.17.81-.52,1.44-1.04,1.89-.52.46-1.16.69-1.91.69-.92,0-1.65-.37-2.19-1.11s-.81-1.75-.81-3.02.27-2.24.8-2.96,1.26-1.08,2.18-1.08c.98,0,1.73.36,2.26,1.07s.8,1.72.8,3.03c0,.15,0,.25,0,.33s0,.14-.01.21h-4.25c.02.6.15,1.05.37,1.36s.54.46.95.46c.29,0,.53-.07.72-.21s.34-.35.45-.64ZM182.49,119.79h2.51c-.02-.52-.13-.91-.34-1.18-.21-.27-.52-.4-.92-.4-.37,0-.66.14-.88.41-.21.27-.34.66-.37,1.17Z"/>
    <path class="st1" d="M187.89,124.41v-7.64h1.58v1.31c.22-.52.48-.91.78-1.16s.65-.37,1.06-.37c.07,0,.12,0,.16,0,.04,0,.07,0,.09.01v2.07s-.56,0-.56,0c-.46,0-.81.15-1.05.44s-.35.72-.35,1.29v4.04h-1.71Z"/>
    <path class="st1" d="M192.13,121.92h1.7c.02.39.13.68.35.87s.55.28.98.28c.33,0,.59-.07.77-.2.18-.13.27-.32.27-.57,0-.35-.34-.61-1.02-.78-.28-.07-.5-.13-.66-.18-.83-.25-1.4-.55-1.73-.9-.32-.35-.48-.82-.48-1.41,0-.78.24-1.4.71-1.86.47-.46,1.11-.69,1.91-.69.85,0,1.52.23,2.01.68.49.45.75,1.09.78,1.92h-1.66c-.01-.32-.11-.57-.31-.75-.19-.18-.46-.27-.81-.27-.32,0-.56.06-.72.18-.16.12-.24.29-.24.53,0,.3.42.57,1.27.81.2.05.35.09.46.13.85.24,1.43.53,1.74.86.31.34.47.81.47,1.43,0,.87-.25,1.53-.76,1.98-.51.45-1.25.68-2.22.68-.88,0-1.57-.24-2.06-.71s-.74-1.12-.74-1.95v-.08Z"/>
  </g>
  <g>
    <path class="st0" d="M145.51,61.47c-8.28,4.56-9.65,11.8-6.94,25.38,1.64,10.12.79,17.84-2.47,22.78,6.36-4.45,8.46-12.93,6.34-24.22-1.98-9.36-3.6-18.5,3.06-23.93Z"/>
    <path class="st1" d="M141.01,60.74c-6.69,3.87-9.07,11.83-6.36,25.4,2.14,10.11,1.32,17.83-2.47,22.78,6.36-4.45,8.46-12.93,6.34-24.22-1.25-8.76-3.05-17.6,2.48-23.96Z"/>
    <path class="st1" d="M145.51,82.08c3.65,1.27,5.51,2.71,3.48,4.56-4.72,4.49-13.37,6.69-22.79,8.46,7.89-2.12,15.02-4.42,18.96-7.53,2.09-1.56,1.89-3.43.36-5.48Z"/>
    <path class="st1" d="M148.71,88.38c3.65,1.27,5.51,2.71,3.48,4.56-4.72,4.49-13.37,6.69-22.79,8.46,7.89-2.12,15.02-4.42,18.96-7.53,2.09-1.56,1.89-3.43.36-5.48Z"/>
  </g>
</svg>