<?xml version="1.0" encoding="UTF-8"?>
<svg id="Layer_1" xmlns="http://www.w3.org/2000/svg" version="1.1" viewBox="0 0 284.22 185.49">
  <!-- Generator: Adobe Illustrator 30.1.0, SVG Export Plug-In . SVG Version: 2.1.1 Build 136)  -->
  <defs>
    <style>
      .st0, .st1 {
        fill: #231f20;
      }

      .st1 {
        fill-rule: evenodd;
      }
    </style>
  </defs>
  <path class="st0" d="M189.44,113.21l-.34.42c-.41-.3-.68-.45-.81-.45-.19,0-.34.07-.45.2-.11.14-.17.28-.17.43,0,.25.11.57.36.99.25.41.37.59.37.54h-.57c-.03.05-.24-.2-.63-.75-.38-.55-.57-.97-.57-1.25,0-.38.1-.69.29-.93.2-.24.49-.36.88-.36s.74.17,1.11.5c.36.33.54.55.54.66M187,118.06v-1.22h-1.69v1.58s.06.07.11.09c.05.03.11.04.19.05.26.03.52-.02.8-.14.28-.12.47-.24.59-.35ZM190.33,116.84h-1.66v5.37l-1.67-1.08v-1.51s-.11.04-.34.08c-.23.04-.45.02-.65-.04-.15-.04-.33-.18-.54-.39-.2-.22-.31-.32-.31-.32-.11.18-.29.38-.53.58-.24.2-.44.34-.59.42.99,1.26,1.6,1.82,1.85,1.67l-.5.53c-.09.03-.6-.49-1.55-1.56-.95-1.07-1.42-1.79-1.42-2.17,0-.23.04-.39.13-.49.09-.1.23-.15.42-.15.09,0,.2,0,.34.03.14.02.24.04.31.07v-1.02h-.73l-.64-1.5h7.44l.64,1.5ZM183.14,116.84h-1.66v5.29l-1.66-1.08v-2.06c-.26-.2-.41-.3-.46-.3-.23,0-.44.23-.63.69-.19.46-.28.85-.28,1.18l-1.39-1.14.32-.7c-.22-.15-.41-.22-.57-.22-.23,0-.43.13-.59.39-.16.26-.24.55-.24.86,0,.5.34.98,1.02,1.45.68.47,1.02.65,1.02.56l-.63.45c-.2,0-.74-.34-1.6-1.03-.86-.69-1.29-1.37-1.29-2.04,0-.51.15-.93.45-1.26.3-.33.71-.5,1.22-.5.32,0,.82.28,1.51.84.41-.45.77-.67,1.07-.67.16,0,.38.11.66.33.28.22.42.35.42.37v-1.41h-4.86l-.64-1.5h8.18l.64,1.5ZM173.12,115.34h-.73s-.22-.32-.66-.88c-.44-.56-.78-.9-1.02-1.02-.24-.12-.57-.12-1,0-.43.12-.64.2-.64.24l-.88-1.77c1.29,0,2.07.08,2.35.25.35.21.86.78,1.55,1.71.68.93,1.02,1.43,1.02,1.48ZM171.78,118.84s-.17-.08-.52-.18c-.35-.1-.64-.15-.87-.15-.32,0-.63.14-.95.41-.32.27-.47.53-.47.79,0,.12.05.23.15.32.1.09.21.13.33.13.24,0,.69-.21,1.34-.63.66-.42.98-.65.98-.68ZM175.15,116.84h-1.66v5.29l-1.67-1.08v-.42s-.2.14-.59.35c-.4.21-.71.31-.95.32-.47.02-1-.26-1.61-.84-.6-.58-.91-1.1-.91-1.58,0-.53.19-.92.57-1.18.38-.26.85-.39,1.41-.39.2,0,.6.15,1.19.44.59.29.89.45.89.47v-1.39h-3.6l-.64-1.5h6.93l.64,1.5ZM167.83,118.64h-1.53c.1.13.18.28.22.45.05.17.07.34.07.52,0,.32-.13.56-.4.74-.26.18-.58.26-.96.26-.67,0-1.32-.43-1.93-1.29-.61-.86-.85-1.29-.72-1.29l.51-.29c-.05.1.09.36.42.8.33.44.74.66,1.21.66.23,0,.43-.02.61-.07.17-.05.26-.14.26-.28,0-.27-.18-.5-.54-.7-.36-.19-.56-.32-.59-.39-.05-.11-.03-.19.06-.26.09-.07.24-.11.43-.11h2.86v1.25ZM163.08,116.84l-.64-1.5h5.39l.64,1.5h-5.39Z"/>
  <path class="st1" d="M124.64,78.08h1.47v1.45h-1.47v-1.45ZM118.98,74.31h1.53v1.83h1.67v-1.83h1.53v5.22h-1.53v-2.11h-1.67v2.11h-1.53v-5.22ZM116.11,78.08h1.47v1.45h-1.47v-1.45ZM113.55,77.54l-.55-1.88-.54,1.88h1.09ZM113.87,78.67h-1.74l-.24.86h-1.56l1.86-5.22h1.67l1.86,5.22h-1.6l-.24-.86Z"/>
  <path class="st1" d="M166.24,88.71c-.33-.85-.65-1.7-.98-2.55h23.14c.45,1.11.9,2.21,1.35,3.31h-3.01v19.89c-1.15-.49-2.29-.99-3.44-1.48v-18.53h-3.56v20.01c-1.13-.65-2.25-1.3-3.38-1.95-.02-5.98-.04-11.96-.06-17.94h-3.5c2.34,2.66,3.22,7.75.8,13.2-2.18,4.75-6.46,3.39-8.96-.12-3.31-4.77-.03-11.23,1.6-13.85M143.84,96.34c.02.57.04,1.14.06,1.72-1.35,2-3.01,3.66-5.34,4.56-1.43.41-1.96-.04-1.6-1.72,1.26-2.99,3.71-5.1,6.87-4.56ZM133.28,86.16h12.46l1.35,3.31-.12,19.77-3.13-1.36c.02-1.64.04-3.28.06-4.91-3.78,3.41-5.61,3.63-7.67,1.07-4.49-5.43,3.71-13.22,7.61-9.94v-4.5l-9.39-.12-1.17-3.31ZM124.08,89.65c3.3-3.06,7.42-3.75,9.7,1.23,3.41,7.21-3.89,9.8-6.13,9.97,2.6,2.96,4.79,6.85,6.57,12.95-.21.15-.3.25-.51.4-2.09-6.69-4.97-12.04-10.34-13.2-.42-1-.85-1.99-1.27-2.99,5.99.93,10.83-2.61,10.98-5.22-.12-3.79-6.15-2.34-7.24-.15-.05-.03-.11-.05-.16-.08-.53-.97-1.06-1.94-1.59-2.92ZM93.47,74.04c3.86-1.51,7.33-.59,10.59,1.7,3.94,3.2,7.53,9.64,12.3,10.72,7.45,1.33,10.31-2.08,11.34-7.4h.97c-.69,7.42-4.29,9.42-8.29,10.64v19.57c-1.15-.48-2.29-.96-3.44-1.45,0-6.1.18-12.2.18-18.3-1.29-.34-2.61-.83-3.71-1.36.12.4.24.79.35,1.19v19.91c-1.21-.57-2.05-.92-3.25-1.49l.04-5.81c-5.68,1.86-9.38.14-10.83-3.94-.82-2.38.92-5.89,3.19-8.58h-3.44c-.56-1.19-1.12-2.38-1.68-3.57h12.53c-5.87-6.96-11.42-10.68-16.32-8.08-.18-1.25-.35-2.5-.53-3.74ZM107.81,89.36h2.67v8.84c-2.83,2.91-6.52,3.73-7.7,1.54-1.28-3.05.9-6.98,5.03-10.38ZM150.81,89.65c2.38-2.2,5.18-3.18,7.42-1.69l-.46-1.86h4.66l1.1,3.26h-3.9c.31.43.61.94.87,1.52,3.41,7.21-3.89,9.8-6.13,9.97,2.6,2.96,4.79,6.85,6.57,12.95-.21.15-.3.25-.51.4-2.09-6.69-4.97-12.04-10.34-13.2-.42-1-.85-1.99-1.27-2.99,5.99.93,10.83-2.61,10.98-5.22-.12-3.79-6.15-2.34-7.24-.15-.05-.03-.11-.05-.16-.08-.53-.97-1.06-1.94-1.59-2.92ZM168.02,89.54h2.76c1.43,2.52,2.05,5.48.86,9.41-.98,3.66-3.89,6.43-5.34,3.31-.9-4.54,0-8.45,2.7-11.72-.33-.34-.65-.67-.98-1.01Z"/>
  <g>
    <path class="st1" d="M143.93,70.63v2.63h-10.2c-6.87-.16-7.88-10.83,1.64-10.48v2.63c-5.27-.64-5.73,5.26-.74,5.15l9.31.06Z"/>
    <path class="st1" d="M139.3,65.42v-2.63h10.2c6.87.16,7.88,10.83-1.64,10.48v-2.63c5.27.64,5.73-5.26.74-5.15l-9.31-.06Z"/>
    <rect class="st0" x="140.28" y="66.81" width="2.54" height="2.45"/>
    <path class="st1" d="M138.91,70.26h-2.73v-9.84c.16-6.63,11.23-7.6,10.86,1.58h-2.73c.66-5.08-5.45-5.53-5.34-.72l-.06,8.98Z"/>
    <path class="st1" d="M144.31,65.79h2.73v9.84c-.16,6.63-11.23,7.6-10.86-1.58h2.73c-.66,5.08,5.45,5.53,5.34.72l.06-8.98Z"/>
  </g>
  <g>
    <path class="st0" d="M153.09,123.45v-.92h3.53v.92h-.61v1.12c0,.42-.11.78-.32,1.07-.21.29-.47.44-.77.44l1.36,2.41-.6.53-2.38-4.27.64-.55c.11.29.24.53.4.71.15.18.31.26.47.26.12,0,.23-.06.31-.18.08-.12.12-.26.12-.42v-1.12h-2.16ZM148.99,123.45v-.92h4.29v.92h-.76v5.38h-.76v-5.38h-1.04v3.38c0,.09-.03.17-.08.24-.05.07-.11.1-.18.1-.14,0-.38-.21-.73-.63-.35-.42-.52-.71-.52-.88,0-.09.02-.17.07-.24.04-.07.09-.1.15-.1h.34c.05,0,.1-.03.13-.08.04-.06.06-.13.06-.2v-1.59h-.96ZM144.52,123.45v-.92h4.66v.92h-.76v5.38h-.76v-3.21h-1.26c-.06,0-.11.03-.15.09-.04.05-.07.12-.07.2v.63c0,.11-.03.21-.08.29-.05.08-.11.11-.18.11-.18,0-.42-.23-.71-.69-.28-.45-.42-.83-.42-1.13,0-.12.03-.22.1-.31.06-.08.14-.13.24-.13h2.52v-1.22h-3.13ZM140.46,123.45v-.92h4.26v.92h-.72v1.91h-1.67c-.2,0-.38.08-.52.24-.15.16-.22.35-.22.58,0,.41.14.76.42,1.06.28.29.62.44,1.02.44-.04-.08-.06-.22-.06-.4,0-.23.06-.42.19-.57.12-.16.27-.24.45-.24s.33.09.45.26c.13.18.19.4.19.66,0,.15-.03.31-.1.47-.07.17-.17.32-.29.45l.51,1.21-.68.42-.46-1.34c-.66,0-1.23-.24-1.7-.71-.47-.47-.71-1.04-.71-1.71,0-.49.15-.9.44-1.25.29-.34.65-.52,1.06-.52h.91v-.97h-2.78ZM137.65,125.36h1.47v-1.91h-1.47v1.91ZM136.06,123.45v-.92h4.59v.92h-.76v5.38h-.76v-2.52h-1.47v.63c0,.07-.02.13-.07.18-.04.05-.09.08-.15.08-.12,0-.34-.2-.66-.6-.31-.39-.47-.67-.47-.83,0-.11.02-.2.06-.28.04-.08.1-.11.15-.11h.37v-1.91h-.83ZM132.01,123.45v-.92h4.24v.92h-.6v1.37h-1.9c-.11,0-.2.03-.29.09-.08.05-.11.12-.11.2,0,.08.05.19.12.33.08.13.18.26.32.42.2-.12.41-.18.65-.18.38,0,.7.15.96.44.27.29.4.65.4,1.07,0,.2-.04.4-.13.59-.09.2-.21.38-.37.53l-.52-.54c.08-.09.15-.19.19-.29.04-.1.07-.2.07-.29,0-.16-.06-.29-.17-.4-.12-.11-.26-.16-.43-.16-.31,0-.57.1-.78.32-.22.21-.32.47-.32.77,0,.43.16.8.48,1.11.32.3.7.45,1.14.45h.86v.95h-.88c-.66,0-1.21-.24-1.67-.73-.46-.5-.7-1.09-.7-1.78,0-.27.05-.53.15-.77.1-.24.23-.45.41-.6-.17-.17-.31-.36-.41-.58-.1-.22-.14-.44-.14-.67,0-.34.11-.62.34-.86.24-.24.52-.35.84-.35h1.12v-.43h-2.87ZM126.6,125.99l.59-.37c.16.58.37,1.05.64,1.41.26.35.53.53.8.53.17,0,.31-.07.42-.21.11-.15.17-.33.17-.53,0-.29-.08-.53-.25-.74-.17-.2-.36-.3-.59-.3-.12,0-.23.02-.31.05l-.17-.77c.27-.07.5-.18.69-.35.18-.18.27-.37.27-.57s-.04-.36-.12-.49c-.08-.13-.18-.2-.31-.2-.17,0-.36.07-.55.21-.2.13-.39.33-.58.59l-.38-.66c.22-.34.46-.6.73-.79.26-.18.52-.28.79-.28.33,0,.61.16.84.47.24.32.35.7.35,1.15,0,.2-.04.39-.11.57-.07.18-.17.34-.31.47.11.1.27.18.46.24.18.05.4.08.64.08.12,0,.25-.05.38-.15v-1.89h-.76v-.92h2.29v.92h-.76v5.38h-.76v-2.57c-.18.12-.31.18-.39.18-.17,0-.3-.04-.4-.11.07.19.1.36.1.5,0,.47-.13.87-.4,1.2-.26.33-.58.49-.95.49-.4,0-.79-.23-1.16-.69-.37-.46-.66-1.07-.87-1.83Z"/>
    <rect class="st0" x="159.67" y="125.86" width="25.18" height=".64"/>
    <path class="st0" d="M184.87,126.52h-25.23v-.69h25.23v.69ZM159.69,126.47h25.14v-.58h-25.14v.58Z"/>
    <rect class="st0" x="98.2" y="125.86" width="25.18" height=".64"/>
    <path class="st0" d="M123.4,126.52h-25.23v-.69h25.23v.69ZM98.22,126.47h25.14v-.58h-25.14v.58Z"/>
  </g>
  <g>
    <path class="st0" d="M186.49,81.89h1.02c.22,0,.39-.02.51-.07.12-.04.21-.12.28-.21.06-.1.09-.21.09-.32,0-.17-.06-.31-.18-.42-.12-.11-.32-.16-.58-.16h-1.13v1.19ZM186.01,83.89v-3.58h1.59c.32,0,.56.03.73.1.17.06.3.18.4.34.1.16.15.34.15.54,0,.25-.08.47-.25.64-.16.17-.42.28-.76.33.13.06.22.12.29.18.14.13.27.29.39.48l.62.98h-.59l-.47-.75c-.14-.22-.25-.38-.34-.49-.09-.11-.17-.19-.24-.24-.07-.05-.14-.08-.22-.1-.05-.01-.14-.02-.26-.02h-.55v1.59h-.48Z"/>
    <path class="st0" d="M187.46,85.37c-1.82,0-3.29-1.48-3.29-3.29s1.48-3.29,3.29-3.29,3.29,1.48,3.29,3.29-1.48,3.29-3.29,3.29ZM187.46,79.19c-1.59,0-2.89,1.29-2.89,2.89s1.29,2.89,2.89,2.89,2.89-1.29,2.89-2.89-1.29-2.89-2.89-2.89Z"/>
  </g>
</svg>