<?xml version="1.0" encoding="UTF-8"?>
<svg id="Layer_1" xmlns="http://www.w3.org/2000/svg" version="1.1" viewBox="0 0 284.22 185.49">
  <!-- Generator: Adobe Illustrator 30.1.0, SVG Export Plug-In . SVG Version: 2.1.1 Build 136)  -->
  <defs>
    <style>
      .st0, .st1, .st2, .st3, .st4, .st5, .st6, .st7, .st8, .st9, .st10 {
        fill: none;
      }

      .st0, .st1, .st2, .st3, .st4, .st5, .st6, .st7, .st8, .st10 {
        stroke-miterlimit: 10;
      }

      .st0, .st1, .st2, .st3, .st6, .st7, .st8, .st9 {
        stroke: #000;
      }

      .st0, .st9, .st10 {
        stroke-width: .1px;
      }

      .st1 {
        stroke-width: .12px;
      }

      .st11 {
        fill: #231f20;
      }

      .st2 {
        stroke-width: .05px;
      }

      .st3 {
        stroke-width: .07px;
      }

      .st4 {
        stroke-width: .19px;
      }

      .st4, .st5, .st10 {
        stroke: #231f20;
      }

      .st5 {
        stroke-width: .54px;
      }

      .st12 {
        fill: #fff;
      }

      .st6 {
        stroke-width: .15px;
      }

      .st7 {
        stroke-width: .17px;
      }

      .st8 {
        stroke-width: .19px;
      }

      .st9 {
        stroke-linejoin: bevel;
      }
    </style>
  </defs>
  <g>
    <g>
      <path class="st11" d="M119.84,114.19s-.1-.03-.16-.1c-.23-.23-.38-.37-.47-.43-.08-.06-.17-.11-.25-.15-.15-.07-.33-.11-.53-.11-.24,0-.46.06-.67.19-.21.13-.31.3-.31.52,0,.27.12.48.36.62.24.14.56.28.95.4.81.28,1.37.6,1.67.99.3.38.45.81.45,1.28,0,.36-.09.7-.26,1.04-.18.34-.45.62-.82.84-.37.22-.83.33-1.39.33-.42,0-.82-.08-1.19-.23s-.67-.38-.9-.68c-.23-.3-.35-.67-.35-1.11,0-.21.03-.41.11-.58.07-.17.15-.31.24-.4.09-.1.15-.15.19-.15.02,0,.05.1.1.31.05.21.12.42.22.62.1.2.27.39.52.55.24.16.57.24.99.24.33,0,.61-.07.84-.21.23-.14.34-.34.34-.6,0-.28-.12-.49-.36-.65-.24-.15-.53-.28-.88-.38-.58-.19-1.01-.4-1.31-.63-.3-.23-.5-.47-.59-.72s-.14-.51-.14-.81c0-.28.07-.57.21-.86.13-.3.36-.55.69-.76.33-.21.76-.31,1.29-.31.37,0,.72.05,1.04.16.32.11.58.24.78.39.2.15.29.27.29.36,0,.08-.04.2-.13.37-.08.17-.18.32-.29.45-.11.13-.2.2-.27.2Z"/>
      <path class="st11" d="M122.49,112.39h2.26c.49,0,.88.08,1.17.24.29.15.49.35.61.59s.17.5.17.77c0,.31-.06.59-.17.82-.11.23-.24.41-.36.53-.13.12-.28.25-.46.39-.18.14-.26.23-.26.28,0,.04.09.17.28.4.19.22.37.47.55.73.18.26.34.59.48.98.06.15.11.35.15.58.04.23.06.43.06.58,0,.12-.01.19-.04.2-.03.01-.08.02-.18.02h-.96c-.28,0-.41-.04-.41-.11,0-.32-.06-.69-.19-1.12-.12-.43-.28-.8-.46-1.11-.18-.31-.35-.47-.51-.47-.09,0-.21.04-.35.11s-.26.18-.37.3-.16.26-.16.4c0,.2.02.43.07.69.05.26.1.53.16.79s.09.39.09.4c0,.04-.02.07-.07.09-.04.01-.12.02-.23.02h-.99c-.07,0-.13-.03-.18-.08-.05-.05-.09-.18-.14-.37-.04-.2-.07-.5-.09-.91-.03-.41-.04-.97-.04-1.66,0-2.72.19-4.08.56-4.08ZM123.54,115.7c.08,0,.21-.05.41-.14.49-.23.88-.52,1.15-.88.14-.19.21-.37.21-.56,0-.24-.09-.42-.28-.55-.18-.12-.4-.19-.66-.19s-.47.04-.63.13c-.15.08-.27.24-.34.47-.08.23-.12.55-.12.98,0,.27.02.46.05.57.03.1.09.16.2.16Z"/>
      <path class="st11" d="M129.47,119.5h-1.04c-.07,0-.13-.03-.18-.08-.05-.05-.09-.18-.13-.38-.04-.2-.07-.5-.09-.91-.02-.41-.03-.96-.03-1.66,0-1.2.03-2.1.09-2.71.06-.6.13-.98.21-1.14.08-.16.17-.24.27-.24h.91c.21,0,.32.05.32.14l-.12.54c-.08.36-.15.77-.21,1.22-.06.45-.09.92-.09,1.42,0,.63.03,1.22.09,1.76.06.54.13,1.01.21,1.39.07.37.11.56.11.56,0,.04-.02.06-.05.07-.03.01-.12.02-.26.02Z"/>
      <path class="st11" d="M136.4,119.5h-2.57c-.07,0-.13-.03-.19-.08-.05-.05-.1-.17-.14-.37-.04-.2-.08-.51-.1-.92-.03-.42-.04-.97-.04-1.65,0-1.93.1-3.17.3-3.74.08-.23.18-.34.29-.34h2.19c.61,0,1.05.11,1.34.34.26.21.39.51.39.91,0,.21-.04.41-.13.59-.06.13-.13.25-.21.35-.08.1-.24.29-.49.58-.09.1-.13.18-.13.24s.09.18.28.37c.19.19.35.37.49.53s.27.38.39.65c.12.27.19.58.19.92,0,.29-.06.57-.19.81s-.33.44-.6.6c-.28.15-.64.23-1.07.23ZM135.29,115.31c.45-.34.71-.54.78-.6.07-.06.15-.15.24-.27.13-.18.2-.35.2-.52,0-.19-.07-.32-.2-.4-.13-.08-.29-.12-.48-.12-.29,0-.52.05-.7.15-.17.1-.3.28-.39.53-.08.25-.13.6-.13,1.03,0,.25.08.38.25.38.1,0,.24-.06.43-.17ZM135.58,116.17l-.57.32c-.13.07-.23.13-.28.18-.05.05-.08.14-.08.27,0,.42.04.73.11.94.07.21.18.34.32.41.14.06.34.1.6.1.34,0,.62-.07.85-.21.23-.14.34-.37.34-.68,0-.14-.04-.3-.11-.47-.15-.33-.35-.61-.61-.84-.1-.09-.18-.14-.24-.14-.09,0-.21.04-.35.13Z"/>
      <path class="st11" d="M143.78,119.5h-.93c-.22,0-.34-.04-.34-.11,0-.05.05-.18.16-.41.16-.35.26-.57.29-.65.03-.08.07-.2.11-.35.06-.22.09-.44.09-.65,0-.18-.07-.32-.21-.4-.14-.09-.32-.13-.54-.13-.53,0-1,.08-1.4.23-.4.15-.6.45-.6.88,0,.31.13.71.4,1.2.11.2.16.31.16.34,0,.04-.06.05-.17.05h-1.2c-.21,0-.36-.16-.44-.49s-.13-.79-.13-1.4c0-.85.12-1.61.37-2.28.24-.68.54-1.24.88-1.69s.68-.79.99-1.02c.32-.23.53-.35.65-.35.1,0,.29.1.55.29s.55.49.84.9c.29.4.54.94.75,1.61.21.67.31,1.46.31,2.37,0,.6-.03,1.05-.08,1.35-.05.3-.12.49-.2.58-.08.09-.2.13-.33.13ZM141.96,113.73c-.14,0-.32.12-.54.36-.22.24-.41.52-.57.84-.16.32-.25.58-.25.78,0,.11.05.16.16.16.04,0,.17-.02.39-.06.54-.1.98-.15,1.32-.15.17,0,.28-.02.35-.05.06-.04.09-.12.09-.24,0-.17-.06-.39-.17-.66-.11-.26-.24-.49-.4-.69-.15-.2-.28-.29-.38-.29Z"/>
      <path class="st11" d="M149.95,119.5h-.93c-.22,0-.34-.04-.34-.11,0-.05.05-.18.16-.41.16-.35.26-.57.29-.65.03-.08.07-.2.11-.35.06-.22.09-.44.09-.65,0-.18-.07-.32-.21-.4-.14-.09-.32-.13-.54-.13-.53,0-1,.08-1.4.23-.4.15-.6.45-.6.88,0,.31.13.71.4,1.2.11.2.16.31.16.34,0,.04-.06.05-.17.05h-1.2c-.21,0-.36-.16-.44-.49s-.13-.79-.13-1.4c0-.85.12-1.61.37-2.28.24-.68.54-1.24.88-1.69s.68-.79.99-1.02c.32-.23.53-.35.65-.35.1,0,.29.1.55.29s.55.49.84.9c.29.4.54.94.75,1.61.21.67.31,1.46.31,2.37,0,.6-.03,1.05-.08,1.35-.05.3-.12.49-.2.58-.08.09-.2.13-.33.13ZM148.14,113.73c-.14,0-.32.12-.54.36-.22.24-.41.52-.57.84-.16.32-.25.58-.25.78,0,.11.05.16.16.16.04,0,.17-.02.39-.06.54-.1.98-.15,1.32-.15.17,0,.28-.02.35-.05.06-.04.09-.12.09-.24,0-.17-.06-.39-.17-.66-.11-.26-.24-.49-.4-.69-.15-.2-.28-.29-.38-.29Z"/>
      <path class="st11" d="M155.3,119.5h-3.43c-.12,0-.2-.02-.25-.07-.05-.05-.07-.13-.09-.25,0-.1-.01-.27-.01-.52v-.2c0-.1,0-.23,0-.39,0-.15,0-.3,0-.43,0-.15,0-.29,0-.42,0-.12.02-.3.03-.53.02-.23.03-.39.04-.48.05-.53.1-1.01.15-1.43s.1-.76.14-1c.04-.24.09-.5.14-.79.08-.4.15-.6.21-.6h1.33c.13,0,.19.05.19.16,0,.03-.06.21-.19.52-.05.13-.1.28-.16.43-.06.15-.12.33-.18.53-.06.2-.12.41-.17.61s-.1.45-.16.75c-.09.5-.14,1.02-.14,1.55,0,.58.11.98.35,1.21.16.16.37.24.63.24.23,0,.42-.05.59-.14.17-.09.34-.21.52-.36.18-.15.3-.22.36-.22.04,0,.09.12.16.37.07.25.14.52.2.83s.1.47.1.5c0,.08-.12.13-.36.13Z"/>
      <path class="st11" d="M160.98,119.5h-.93c-.22,0-.34-.04-.34-.11,0-.05.05-.18.16-.41.16-.35.26-.57.29-.65.03-.08.07-.2.11-.35.06-.22.09-.44.09-.65,0-.18-.07-.32-.21-.4-.14-.09-.32-.13-.54-.13-.53,0-1,.08-1.4.23-.4.15-.6.45-.6.88,0,.31.13.71.4,1.2.11.2.16.31.16.34,0,.04-.06.05-.17.05h-1.2c-.21,0-.36-.16-.44-.49s-.13-.79-.13-1.4c0-.85.12-1.61.37-2.28.24-.68.54-1.24.88-1.69s.68-.79.99-1.02c.32-.23.53-.35.65-.35.1,0,.29.1.55.29s.55.49.84.9c.29.4.54.94.75,1.61.21.67.31,1.46.31,2.37,0,.6-.03,1.05-.08,1.35-.05.3-.12.49-.2.58-.08.09-.2.13-.33.13ZM159.17,113.73c-.14,0-.32.12-.54.36-.22.24-.41.52-.57.84-.16.32-.25.58-.25.78,0,.11.05.16.16.16.04,0,.17-.02.39-.06.54-.1.98-.15,1.32-.15.17,0,.28-.02.35-.05.06-.04.09-.12.09-.24,0-.17-.06-.39-.17-.66-.11-.26-.24-.49-.4-.69-.15-.2-.28-.29-.38-.29Z"/>
      <path class="st11" d="M163.59,112.39h1.12c.07,0,.13.03.16.09.04.06.07.19.1.39.11.55.17,1.85.17,3.9,0,1.16-.18,1.93-.53,2.3-.35.37-.75.56-1.18.56-.2,0-.4-.04-.59-.12-.19-.08-.35-.18-.47-.28-.12-.11-.18-.2-.18-.28,0-.13.03-.31.09-.52.06-.22.13-.41.22-.57.08-.17.16-.25.22-.25.03,0,.09.07.16.21.11.19.18.31.22.35.04.04.09.06.14.06.13,0,.23-.04.31-.12.07-.08.13-.26.16-.54.04-.28.05-.7.05-1.26,0-.53-.02-1.03-.06-1.49-.06-.7-.16-1.34-.29-1.94-.05-.23-.08-.34-.08-.34,0-.05.02-.08.05-.1.04-.02.1-.02.2-.02Z"/>
      <path class="st11" d="M167.93,119.5h-1.04c-.07,0-.13-.03-.18-.08-.05-.05-.09-.18-.13-.38-.04-.2-.07-.5-.09-.91-.02-.41-.03-.96-.03-1.66,0-1.2.03-2.1.09-2.71.06-.6.13-.98.21-1.14.08-.16.17-.24.27-.24h.91c.21,0,.32.05.32.14l-.12.54c-.08.36-.15.77-.21,1.22-.06.45-.09.92-.09,1.42,0,.63.03,1.22.09,1.76.06.54.13,1.01.21,1.39.07.37.11.56.11.56,0,.04-.02.06-.05.07-.03.01-.12.02-.26.02Z"/>
    </g>
    <g>
      <polygon class="st11" points="118.23 122.16 118.63 123.44 119.9 123.44 118.87 124.22 119.26 125.49 118.23 124.7 117.21 125.49 117.6 124.22 116.57 123.44 117.84 123.44 118.23 122.16"/>
      <polygon class="st11" points="165.99 122.16 166.38 123.44 167.65 123.44 166.62 124.22 167.02 125.49 165.99 124.7 164.96 125.49 165.36 124.22 164.33 123.44 165.6 123.44 165.99 122.16"/>
      <g>
        <g>
          <path class="st11" d="M122.88,122.95s-.06-.02-.09-.05c-.13-.12-.21-.2-.26-.24-.05-.03-.09-.06-.14-.08-.08-.04-.18-.06-.29-.06-.13,0-.26.03-.37.1-.11.07-.17.17-.17.29,0,.15.07.26.2.34.13.08.31.15.52.22.45.15.76.33.93.55.17.21.25.45.25.71,0,.2-.05.39-.14.58-.1.19-.25.34-.46.47-.21.12-.46.18-.77.18-.24,0-.46-.04-.66-.13s-.37-.21-.5-.38c-.13-.17-.19-.37-.19-.61,0-.12.02-.23.06-.32.04-.1.08-.17.13-.22.05-.05.08-.08.1-.08.01,0,.03.06.05.17.03.12.07.23.12.34.06.11.15.22.29.3.13.09.32.13.55.13.19,0,.34-.04.47-.12.13-.08.19-.19.19-.33,0-.15-.07-.27-.2-.36-.13-.08-.29-.16-.49-.21-.32-.1-.56-.22-.73-.35-.17-.13-.28-.26-.33-.4s-.08-.28-.08-.45c0-.15.04-.31.11-.48.07-.17.2-.31.38-.42.18-.12.42-.17.72-.17.21,0,.4.03.57.09.18.06.32.13.43.21.11.08.16.15.16.2,0,.04-.02.11-.07.2-.05.09-.1.18-.16.25-.06.07-.11.11-.15.11Z"/>
          <path class="st11" d="M126.04,125.9h-.57s-.07-.02-.1-.04c-.03-.03-.05-.1-.07-.21-.02-.11-.04-.28-.05-.51-.01-.23-.02-.53-.02-.92,0-.67.02-1.17.05-1.5.03-.33.07-.54.12-.63.05-.09.09-.13.15-.13h.5c.12,0,.18.03.18.08l-.07.3c-.05.2-.08.43-.12.67-.03.25-.05.51-.05.78,0,.35.02.68.05.98.03.3.07.56.12.77.04.21.06.31.06.31,0,.02,0,.04-.03.04-.02,0-.07,0-.14,0Z"/>
          <path class="st11" d="M130.08,125.9h-1.9c-.07,0-.11-.01-.14-.04-.03-.03-.04-.07-.05-.14,0-.05,0-.15,0-.29v-.11c0-.06,0-.13,0-.22,0-.09,0-.17,0-.24,0-.09,0-.16,0-.23,0-.07,0-.17.02-.29,0-.13.02-.22.02-.26.03-.29.05-.56.08-.79s.06-.42.08-.55c.02-.13.05-.28.08-.44.05-.22.08-.33.11-.33h.74c.07,0,.11.03.11.09,0,.02-.03.11-.1.29-.03.07-.06.15-.09.24-.03.08-.06.18-.1.29-.04.11-.07.23-.09.34s-.06.25-.09.42c-.05.28-.08.57-.08.86,0,.32.06.54.19.67.09.09.2.13.35.13.13,0,.24-.03.33-.08.09-.05.19-.12.29-.2.1-.08.17-.12.2-.12.02,0,.05.07.09.21.04.14.08.29.11.46s.05.26.05.28c0,.05-.07.07-.2.07Z"/>
          <path class="st11" d="M134.08,121.95h.56s.08.05.12.14c.04.09.07.23.1.42.03.19.04.42.04.69,0,.37-.06.73-.17,1.08-.11.34-.25.64-.42.9-.17.26-.33.46-.49.6-.16.15-.27.22-.35.22-.04,0-.14-.06-.29-.17-.15-.12-.32-.29-.49-.52s-.32-.53-.45-.9c-.13-.37-.19-.8-.19-1.29,0-.34.01-.6.04-.77.03-.17.06-.28.1-.32s.07-.07.11-.07h.53c.15,0,.23.03.23.08,0,.02-.02.08-.05.16-.03.08-.06.17-.09.26-.03.09-.06.23-.08.4-.02.18-.04.35-.04.51,0,.25.03.47.08.65.05.18.12.35.2.5.08.15.16.27.23.35.07.09.13.13.16.13.06,0,.13-.04.22-.12.09-.08.17-.2.25-.35.08-.15.15-.32.2-.5.05-.18.08-.4.08-.64,0-.19-.01-.36-.04-.53-.03-.17-.06-.3-.1-.4-.04-.1-.07-.19-.11-.26-.04-.08-.06-.13-.06-.15,0-.05.06-.08.17-.08Z"/>
          <path class="st11" d="M139,125.9h-2.15c-.06,0-.1-.01-.13-.03-.03-.02-.04-.06-.05-.11s-.01-.13-.01-.25v-.73c0-.16.01-.39.04-.7.03-.3.06-.63.11-.96.04-.34.08-.62.13-.83.04-.22.08-.33.12-.33h1.85c.15,0,.22.03.22.09,0,.03-.05.15-.16.37-.11.22-.18.33-.21.33,0,0-.04-.03-.12-.07-.08-.05-.16-.09-.22-.11-.09-.03-.2-.05-.33-.05-.12,0-.23.02-.33.07-.1.05-.18.12-.25.22-.06.1-.09.22-.09.36,0,.18.05.26.15.26.04,0,.12-.02.25-.07.12-.05.23-.08.32-.11.09-.03.2-.04.31-.04.06,0,.11,0,.16.02.04.01.07.04.07.06,0,.02-.05.15-.14.4s-.16.38-.18.38c-.2-.06-.33-.09-.41-.09-.14,0-.28.06-.4.17s-.19.27-.19.48c0,.13.02.24.07.34.05.1.11.17.2.23.09.05.2.08.33.08.14,0,.26-.02.36-.06.11-.04.21-.09.31-.15.1-.06.16-.09.19-.09.02,0,.06.06.12.19.06.13.12.26.18.41.06.15.09.23.09.24,0,.05-.06.07-.17.07Z"/>
          <path class="st11" d="M141.25,121.95h1.25c.27,0,.49.04.65.13.16.09.27.19.34.33s.1.28.1.43c0,.17-.03.33-.1.46-.06.13-.13.23-.2.3-.07.07-.15.14-.25.22-.1.08-.15.13-.15.15,0,.02.05.09.16.22.1.12.21.26.3.41.1.15.19.33.26.54.03.09.06.19.08.32.02.13.04.24.04.32,0,.07,0,.1-.02.11-.01,0-.05.01-.1.01h-.53c-.15,0-.23-.02-.23-.06,0-.18-.04-.38-.11-.62-.07-.24-.15-.44-.25-.62-.1-.17-.2-.26-.28-.26-.05,0-.12.02-.19.06s-.15.1-.2.17-.09.14-.09.22c0,.11.01.24.04.38.03.15.05.29.09.44s.05.22.05.22c0,.02-.01.04-.04.05-.02,0-.07.01-.13.01h-.55s-.07-.02-.1-.04c-.03-.03-.05-.1-.08-.21-.02-.11-.04-.28-.05-.5-.01-.23-.02-.54-.02-.92,0-1.51.1-2.26.31-2.26ZM141.84,123.79s.12-.03.23-.08c.27-.13.49-.29.64-.49.08-.1.12-.21.12-.31,0-.13-.05-.24-.15-.3-.1-.07-.22-.1-.37-.1s-.26.02-.35.07c-.08.05-.15.13-.19.26-.04.13-.07.31-.07.54,0,.15,0,.25.03.32.02.06.05.09.11.09Z"/>
        </g>
        <g>
          <path class="st11" d="M148.85,122.95s-.06-.02-.09-.05c-.13-.12-.21-.2-.26-.24-.05-.03-.09-.06-.14-.08-.08-.04-.18-.06-.29-.06-.13,0-.26.03-.37.1-.11.07-.17.17-.17.29,0,.15.07.26.2.34.13.08.31.15.52.22.45.15.76.33.93.55.17.21.25.45.25.71,0,.2-.05.39-.14.58-.1.19-.25.34-.46.47-.21.12-.46.18-.77.18-.24,0-.46-.04-.66-.13s-.37-.21-.5-.38c-.13-.17-.19-.37-.19-.61,0-.12.02-.23.06-.32.04-.1.08-.17.13-.22.05-.05.08-.08.1-.08.01,0,.03.06.05.17.03.12.07.23.12.34.06.11.15.22.29.3.13.09.32.13.55.13.19,0,.34-.04.47-.12.13-.08.19-.19.19-.33,0-.15-.07-.27-.2-.36-.13-.08-.29-.16-.49-.21-.32-.1-.56-.22-.73-.35-.17-.13-.28-.26-.33-.4s-.08-.28-.08-.45c0-.15.04-.31.11-.48.07-.17.2-.31.38-.42.18-.12.42-.17.72-.17.21,0,.4.03.57.09.18.06.32.13.43.21.11.08.16.15.16.2,0,.04-.02.11-.07.2-.05.09-.1.18-.16.25-.06.07-.11.11-.15.11Z"/>
          <path class="st11" d="M153.91,125.9h-.66c-.12,0-.18-.03-.18-.08,0-.02.03-.07.06-.16s.07-.19.11-.32.07-.28.1-.44c.03-.16.04-.32.04-.49s-.03-.27-.1-.33-.18-.09-.34-.09-.32.03-.47.08-.27.14-.37.26c-.1.12-.14.26-.14.43s.02.35.05.53c.02.13.06.25.1.38.04.12.06.17.06.17,0,.04-.05.06-.14.06h-.69c-.06,0-.1-.18-.11-.53-.02-.36-.03-.7-.03-1.03,0-.16.01-.44.04-.83.03-.4.07-.75.11-1.07.05-.32.1-.48.17-.48h.64c.09,0,.14.02.14.05,0,0-.03.09-.09.26-.06.17-.11.34-.16.51-.05.17-.07.33-.07.48,0,.07.01.13.04.17s.05.06.08.06.07-.01.13-.04c.06-.03.13-.05.22-.07.09-.02.23-.03.42-.03h.22c.06,0,.11,0,.14-.02.03-.02.05-.06.05-.12,0-.14-.03-.29-.09-.45-.06-.17-.13-.33-.2-.49-.08-.16-.11-.25-.11-.26,0-.03.05-.05.16-.05h.63s.09.07.13.22c.05.15.09.34.13.57.04.23.07.5.1.78.03.29.04.55.04.8,0,.18,0,.39,0,.61,0,.22-.02.44-.04.64-.02.21-.06.31-.1.31Z"/>
          <path class="st11" d="M157.62,125.96h-.47c-.23,0-.43-.04-.6-.12-.17-.08-.31-.19-.41-.32-.11-.14-.19-.3-.24-.48-.05-.18-.07-.37-.07-.58,0-.14.01-.29.03-.45s.05-.31.09-.45c.04-.15.08-.29.14-.44.06-.15.12-.28.19-.41.14-.25.31-.45.5-.6.19-.15.39-.22.6-.22s.41.07.6.22c.19.15.36.35.5.6.14.25.25.52.33.83.08.31.12.62.12.92,0,.21-.03.4-.07.59s-.13.34-.23.48c-.11.14-.24.24-.41.32-.17.08-.36.12-.59.12ZM157.38,125.13c.26,0,.46-.06.59-.19.13-.13.2-.32.2-.58s-.03-.49-.07-.7c-.04-.16-.09-.3-.14-.42-.05-.12-.11-.21-.16-.29-.06-.07-.11-.13-.16-.18-.09-.08-.18-.12-.26-.12s-.17.04-.26.12c-.06.06-.12.13-.18.21-.06.09-.11.19-.16.31-.05.12-.09.24-.12.37-.05.21-.07.44-.07.69,0,.28.08.48.24.61.13.11.32.16.56.16Z"/>
          <path class="st11" d="M161,121.95h1.45c.23,0,.42.05.56.14.14.09.23.2.28.33.05.13.08.25.08.37,0,.28-.08.52-.25.72-.08.09-.16.17-.25.25s-.2.16-.31.23c-.12.08-.25.17-.41.26-.16.1-.25.15-.28.17-.22.14-.33.28-.33.41,0,.2.04.47.12.81.03.13.04.2.04.2,0,.03-.05.04-.14.04h-.63s-.07-.02-.1-.04c-.03-.03-.05-.1-.08-.21-.02-.11-.04-.28-.05-.5-.01-.23-.02-.54-.02-.92,0-1.09.05-1.79.16-2.09.04-.11.09-.17.15-.17ZM161.58,123.88c.08,0,.21-.06.38-.17.17-.11.32-.24.45-.38.13-.15.2-.27.2-.37,0-.15-.05-.26-.16-.33-.11-.07-.24-.11-.4-.11-.14,0-.25.02-.33.07-.08.05-.15.15-.21.32-.05.17-.08.42-.08.76,0,.07,0,.13.03.17.02.04.06.05.12.05Z"/>
        </g>
      </g>
    </g>
  </g>
  <g>
    <path class="st11" d="M156.45,101.65c-.18-.23-.38-.37-.61-.42-.23-.04-.43,0-.6.13-.18.14-.28.33-.31.58-.02.25.05.49.23.73.16.21.35.33.58.37.23.04.43-.02.62-.16.19-.14.29-.32.32-.55.02-.22-.06-.45-.23-.69M155.89,104.37l.36-.33c.17.16.34.24.49.26.16.01.31-.04.45-.15.13-.09.21-.21.26-.33.05-.13.07-.26.06-.4-.01-.14-.06-.31-.14-.5-.08-.19-.19-.38-.31-.54-.01-.02-.03-.04-.06-.08.02.19-.02.38-.1.57-.08.19-.2.34-.37.47-.27.21-.58.28-.92.23-.34-.06-.63-.25-.88-.57-.25-.34-.36-.68-.31-1.04.04-.35.21-.64.51-.87.22-.16.46-.25.72-.27.27-.02.53.04.78.19.25.14.54.42.84.83.32.42.53.8.63,1.12.1.32.1.61.02.88-.08.27-.25.49-.49.68-.26.2-.53.28-.8.26-.27-.02-.52-.15-.75-.38ZM153.27,105.37c.06.13.15.24.27.34.12.09.26.15.41.16.15,0,.3-.02.45-.08.22-.1.37-.26.45-.47.08-.21.06-.42-.04-.64-.1-.22-.26-.37-.48-.45-.22-.08-.44-.06-.66.04-.22.1-.36.26-.44.47-.08.21-.06.42.04.64ZM152.61,103.57c.08.18.21.3.38.36.17.06.34.05.53-.04.18-.08.3-.21.36-.37.06-.17.05-.33-.02-.49-.08-.17-.2-.28-.37-.35-.17-.06-.34-.05-.52.03-.18.08-.3.21-.36.37-.06.17-.06.33.01.49ZM153.07,104.31c-.22.02-.41-.01-.57-.1-.15-.09-.27-.22-.36-.4-.13-.27-.14-.55-.03-.83.11-.28.33-.49.65-.65.33-.15.64-.18.93-.08.29.1.5.28.62.56.08.17.11.35.08.52-.03.17-.12.34-.28.49.27-.03.5,0,.7.12.2.11.35.28.46.52.15.32.16.65.04.97-.13.33-.37.57-.75.75-.37.17-.72.2-1.05.09-.33-.11-.57-.33-.73-.66-.11-.24-.15-.48-.1-.7.05-.22.17-.42.37-.58ZM151.22,104.45c-.09-.28-.23-.48-.43-.6-.2-.12-.4-.15-.61-.08-.22.07-.38.21-.48.44-.11.23-.12.48-.03.76.08.25.22.44.42.55.2.11.41.13.64.06.23-.07.39-.2.48-.41.1-.2.1-.44.02-.72ZM149.76,106.81l.46-.19c.11.21.23.34.37.41.14.06.3.07.48.02.15-.05.27-.12.36-.22.09-.1.16-.22.19-.36.04-.14.05-.31.04-.52-.01-.21-.05-.42-.11-.62,0-.02-.02-.05-.03-.1-.05.18-.15.35-.28.5-.14.15-.31.25-.5.31-.33.1-.64.07-.94-.1-.3-.17-.51-.45-.63-.84-.12-.4-.1-.76.06-1.08.16-.32.42-.53.78-.64.26-.08.52-.08.77,0,.26.07.48.22.67.45.19.22.36.58.51,1.07.15.51.22.93.21,1.26-.02.33-.11.61-.28.84-.17.22-.4.38-.69.47-.31.09-.59.09-.84-.03-.25-.11-.44-.32-.58-.62ZM148.45,108.05l-.5.1-.62-3.19c-.1.14-.23.28-.41.44-.17.15-.33.27-.48.36l-.09-.48c.25-.19.47-.39.64-.62.17-.23.29-.44.34-.63l.32-.06.8,4.09ZM142.88,107.5l-.04-.51,1.56-.11.04.51-1.56.11ZM138.07,108.1l.88.06c.27.02.49,0,.65-.03.16-.04.29-.1.39-.19.14-.12.25-.29.34-.5.09-.21.14-.48.16-.79.03-.43-.02-.77-.14-1.01-.13-.24-.29-.41-.49-.5-.14-.07-.38-.11-.7-.13l-.87-.06-.22,3.16ZM137.49,108.55l.29-4.14,1.43.1c.32.02.57.06.73.11.23.07.43.18.59.34.21.2.35.45.44.74.09.29.12.63.09,1-.02.31-.08.59-.17.83-.09.24-.2.43-.33.58-.13.15-.26.27-.4.35-.14.08-.31.14-.51.17-.2.03-.42.04-.67.02l-1.49-.1ZM134.79,108.02l.76-3.58-1.34-.28.1-.48,3.22.68-.1.48-1.34-.29-.76,3.58-.54-.11ZM130.06,105.26l.5.13c-.04.2-.05.38,0,.54.04.16.14.3.29.44.15.14.34.25.56.32.2.07.38.1.56.09.17,0,.31-.05.42-.13.11-.08.19-.18.23-.3.04-.12.04-.24,0-.36-.04-.12-.13-.23-.27-.35-.09-.08-.3-.22-.63-.43-.33-.21-.56-.38-.67-.51-.15-.16-.25-.33-.29-.51-.04-.18-.03-.36.03-.54.07-.2.19-.36.36-.5.17-.13.38-.21.63-.22.25-.01.5.02.77.11.29.1.53.24.72.41.19.17.31.37.37.59.06.22.05.45-.02.69l-.51-.13c.06-.26.03-.48-.08-.66-.11-.18-.32-.32-.62-.43-.31-.11-.56-.13-.75-.06-.18.07-.3.18-.36.34-.05.14-.04.28.03.4.07.13.3.31.69.55.39.24.65.42.78.55.19.18.32.38.37.57.05.2.04.4-.03.61-.07.21-.2.39-.38.53-.18.14-.4.23-.66.25-.26.03-.53-.01-.81-.11-.36-.12-.64-.28-.84-.46-.2-.19-.34-.41-.4-.66-.06-.25-.06-.51.03-.78ZM126.24,104.59l2.2-3.52,2.55,1.59-.26.42-2.08-1.3-.67,1.08,1.95,1.22-.26.41-1.95-1.22-.75,1.2,2.16,1.35-.26.42-2.63-1.64Z"/>
    <g>
      <line class="st4" x1="142.11" y1="81.37" x2="123.38" y2="86.18"/>
      <path class="st4" d="M135.89,82.4c-4.26.87-8.62,1.14-12.86,2.12"/>
      <path class="st4" d="M142.11,81.37c-1.77.29-3.54.59-5.32.88"/>
      <line class="st4" x1="131.09" y1="82.21" x2="122.83" y2="82.85"/>
      <path class="st4" d="M135.79,81.85l-1.68.13"/>
      <path class="st4" d="M142.11,81.37c-1.94.15-3.87.3-5.81.45"/>
      <line class="st4" x1="131.05" y1="81.25" x2="122.77" y2="81.16"/>
      <line class="st4" x1="142.11" y1="81.37" x2="134.07" y2="81.28"/>
      <path class="st4" d="M134.39,80.63c-3.85-.34-7.66-1.07-11.53-1.15"/>
      <path class="st4" d="M142.11,81.37l-6.29-.62"/>
      <path class="st4" d="M135,80.05c-4-.59-7.85-1.93-11.9-2.24"/>
      <path class="st4" d="M142.11,81.37c-2.07-.39-4.14-.77-6.21-1.16"/>
      <path class="st4" d="M135.3,79.46c-3.94-1.11-7.89-2.16-11.82-3.3"/>
      <path class="st4" d="M142.11,81.37c-2-.56-4-1.12-5.99-1.67"/>
      <path class="st4" d="M129.75,76.72c-1.91-.72-3.83-1.44-5.74-2.16"/>
      <path class="st4" d="M135.33,78.75c-1.63-.67-3.28-1.3-4.97-1.8"/>
      <path class="st4" d="M142.11,81.37c-1.84-.58-3.63-1.31-5.41-2.05"/>
      <path class="st4" d="M130.37,75.74l-5.7-2.73"/>
      <path class="st4" d="M135.24,77.88c-1.37-.73-2.79-1.39-4.28-1.85"/>
      <path class="st4" d="M142.11,81.37c-1.68-.65-3.27-1.5-4.84-2.38"/>
      <path class="st4" d="M131.8,75.27c-2.11-1.25-4.23-2.5-6.34-3.75"/>
      <path class="st4" d="M135.05,77.25c-.89-.55-1.77-1.09-2.66-1.64"/>
      <path class="st4" d="M142.11,81.37c-1.73-.92-3.42-1.9-5.1-2.91"/>
      <path class="st4" d="M133.57,75.25c-2.22-1.63-4.77-3.61-7.18-5.14"/>
      <path class="st4" d="M136.3,77.07c-.29-.21-.59-.42-.89-.62"/>
      <path class="st4" d="M142.11,81.37c-1.88-1.2-3.58-2.65-5.37-3.98"/>
      <path class="st4" d="M136.45,76.52c-3.06-2.52-5.99-5.19-9.03-7.74"/>
      <path class="st4" d="M142.11,81.37c-1.72-1.47-3.44-2.95-5.15-4.42"/>
      <line class="st4" x1="142.11" y1="81.37" x2="128.58" y2="67.55"/>
      <line class="st4" x1="142.11" y1="81.37" x2="129.84" y2="66.42"/>
      <line class="st4" x1="142.11" y1="81.37" x2="131.19" y2="65.41"/>
      <line class="st4" x1="142.11" y1="81.37" x2="132.62" y2="64.52"/>
      <line class="st4" x1="142.11" y1="81.37" x2="134.12" y2="63.75"/>
      <line class="st4" x1="142.11" y1="81.37" x2="135.69" y2="63.12"/>
      <line class="st4" x1="142.11" y1="81.37" x2="137.3" y2="62.63"/>
      <line class="st4" x1="142.11" y1="81.37" x2="138.95" y2="62.29"/>
      <line class="st4" x1="142.11" y1="81.37" x2="140.63" y2="62.08"/>
      <line class="st4" x1="142.11" y1="81.37" x2="142.31" y2="62.03"/>
      <line class="st4" x1="142.11" y1="81.37" x2="144" y2="62.12"/>
      <line class="st4" x1="142.11" y1="81.37" x2="145.67" y2="62.36"/>
      <line class="st4" x1="142.11" y1="81.37" x2="147.31" y2="62.74"/>
      <line class="st4" x1="142.11" y1="81.37" x2="148.92" y2="63.26"/>
      <line class="st4" x1="142.11" y1="81.37" x2="150.47" y2="63.92"/>
      <line class="st4" x1="142.11" y1="81.37" x2="151.96" y2="64.72"/>
      <line class="st4" x1="142.11" y1="81.37" x2="153.37" y2="65.64"/>
      <line class="st4" x1="142.11" y1="81.37" x2="154.7" y2="66.68"/>
      <line class="st4" x1="142.11" y1="81.37" x2="155.93" y2="67.83"/>
      <path class="st4" d="M147.81,76.69c3.09-2.53,6.17-5.06,9.25-7.6"/>
      <path class="st4" d="M142.11,81.37c1.7-1.4,3.4-2.79,5.1-4.19"/>
      <path class="st4" d="M151.06,75.26c2.35-1.59,4.67-3.21,7.01-4.82"/>
      <path class="st4" d="M142.11,81.37c1.79-1.22,3.62-2.39,5.4-3.64"/>
      <path class="st4" d="M153.14,75.15c1.94-1.09,3.88-2.19,5.82-3.28"/>
      <path class="st4" d="M149.08,77.4c.98-.56,1.97-1.1,2.96-1.63"/>
      <path class="st4" d="M142.11,81.37c1.75-.94,3.46-1.94,5.18-2.94"/>
      <path class="st4" d="M154.06,75.95c1.89-.86,3.78-1.71,5.67-2.57"/>
      <path class="st4" d="M148.88,78.35c1.51-.66,3.02-1.33,4.49-2.09"/>
      <path class="st4" d="M142.11,81.37c1.71-.84,3.46-1.59,5.21-2.34"/>
      <path class="st4" d="M154.57,76.98c1.93-.68,3.86-1.36,5.78-2.04"/>
      <path class="st4" d="M149.27,78.9c1.54-.61,3.09-1.2,4.68-1.7"/>
      <path class="st4" d="M142.11,81.37c1.9-.46,3.75-1.14,5.57-1.85"/>
      <path class="st4" d="M149.9,79.37c3.79-.94,7.47-1.79,10.94-2.81"/>
      <path class="st4" d="M142.11,81.37l6.03-1.55"/>
      <path class="st4" d="M149.95,80.07c3.74-.79,7.7-1.08,11.24-1.86"/>
      <path class="st4" d="M142.11,81.37c2.17-.36,4.34-.72,6.51-1.08"/>
      <line class="st4" x1="151.97" y1="80.61" x2="161.4" y2="79.88"/>
      <line class="st4" x1="142.11" y1="81.37" x2="149.75" y2="80.78"/>
      <path class="st4" d="M152.67,81.48c2.93.06,5.86.06,8.78.09"/>
      <path class="st4" d="M142.11,81.37c2.71-.1,5.43.32,8.15.19"/>
      <path class="st4" d="M152.18,82.35c3.06.33,6.12.6,9.18.9"/>
      <path class="st4" d="M142.11,81.37c3.09.45,5.92.45,9.08.89"/>
      <line class="st4" x1="142.11" y1="81.37" x2="161.12" y2="84.92"/>
      <line class="st4" x1="142.11" y1="81.37" x2="160.74" y2="86.57"/>
    </g>
    <g>
      <path class="st11" d="M144.17,93.95c-.75-.05-1.44,0-2.04.15-.61-.16-1.3-.2-2.04-.15-2.66.34-2.67,2-1.08,3.15,1.33.74,2.29,1.24,3.12,2.28.83-1.04,1.79-1.54,3.12-2.28,1.59-1.15,1.58-2.81-1.08-3.15Z"/>
      <path class="st11" d="M137.91,96.82c-1.11-1.13-.77-2.52.86-2.89-.84-.07-1.35-.07-2.15,0-1.6.29-2.62,1.14-2.87,2.72-.39.86-.99,1.5-1.74,1.98.9-.2,1.95-.3,3.08-.36,1.85-.13,3.16-.31,3.45-.78.04-.18-.27-.43-.62-.68Z"/>
      <path class="st11" d="M146.35,96.82c1.11-1.13.77-2.52-.86-2.89.84-.07,1.35-.07,2.15,0,1.6.29,2.62,1.14,2.87,2.72.39.86.99,1.5,1.74,1.98-.9-.2-1.95-.3-3.08-.36-1.85-.13-3.16-.31-3.45-.78-.04-.18.27-.43.62-.68Z"/>
      <path class="st11" d="M135.54,93.85c-1.02-.05-1.57-.08-2.06.02-1.27.14-2.34.83-3.25,1.99-.41.51-.92.96-1.51,1.35.55-.2,1.29-.34,2.11-.46.98-.11,1.4-.31,2.21-.64.41-1.17,1.24-1.92,2.49-2.25Z"/>
      <path class="st11" d="M148.72,93.85c1.02-.05,1.57-.08,2.06.02,1.27.14,2.34.83,3.25,1.99.41.51.92.96,1.51,1.35-.55-.2-1.29-.34-2.11-.46-.98-.11-1.4-.31-2.21-.64-.41-1.17-1.24-1.92-2.49-2.25Z"/>
      <path class="st11" d="M132.35,93.78c-.45,0-.51,0-.88-.1l-.84-.21c-1.07.25-1.92.8-2.68,1.5.67-.2,1.47-.36,2.69-.48.53-.32,1.1-.56,1.71-.71Z"/>
      <path class="st11" d="M151.91,93.78c.45,0,.51,0,.88-.1l.84-.21c1.07.25,1.92.8,2.68,1.5-.67-.2-1.47-.36-2.69-.48-.53-.32-1.1-.56-1.71-.71Z"/>
      <g>
        <path class="st11" d="M142.13,93.93c3.09-.07,4.71-1.32,4.86-3.75-.09-1.69-1.06-3.47-2.46-5.39-1.49.49-3.15.54-4.96.2-1.32,1.84-2.23,3.56-2.31,5.19.15,2.43,1.77,3.68,4.86,3.75Z"/>
        <path class="st11" d="M134.12,86.49c-.7,1.24-1.27,2.48-1.25,3.35-.24,3,2.27,3.94,6.15,3.94-4.08-1.97-2.73-5.78-.31-8.85-1.21-1.16-2.3-1.88-4.27-2.2.17.27.26.58.31.92.11.93-.2,1.88-.63,2.84Z"/>
        <path class="st11" d="M150.14,86.49c.7,1.24,1.27,2.48,1.25,3.35.24,3-2.27,3.94-6.15,3.94,4.08-1.97,2.73-5.78.31-8.85,1.21-1.16,2.3-1.88,4.27-2.2-.17.27-.26.58-.31.92-.11.93.2,1.88.63,2.84Z"/>
        <path class="st11" d="M130.75,92c.93.9,2.08,1.38,3.29,1.66,1.12.2,1.67.33,2.35.23-3.34-.39-4.59-2.1-4.17-4.82.64-1.53,1.34-3.21,1.6-3.84-.63-1.03-1.4-1.76-3.1-2.03-.15,1.45-.33,2.78-.61,3.78-.63,2.07-.57,3.85.64,5.03Z"/>
        <path class="st11" d="M153.51,92c-.93.9-2.08,1.38-3.29,1.66-1.12.2-1.67.33-2.35.23,3.34-.39,4.59-2.1,4.17-4.82-.64-1.53-1.34-3.21-1.6-3.84.63-1.03,1.4-1.76,3.1-2.03.15,1.45.33,2.78.61,3.78.63,2.07.57,3.85-.64,5.03Z"/>
        <path class="st11" d="M128.86,88.46l.8-3.23c-1.28-1.58-2.75-2.27-5.08-2.37.42.44.75.99,1.02,1.6.33.57.52,1.31.59,2.21.05,1.86.23,3.45.69,4.48.98,1.72,2.8,2.53,5.99,2.69-2.24-.79-4.38-2.37-4.02-5.38Z"/>
        <path class="st11" d="M155.39,88.46l-.8-3.23c1.28-1.58,2.75-2.27,5.08-2.37-.42.44-.75.99-1.02,1.6-.33.57-.52,1.31-.59,2.21-.05,1.86-.23,3.45-.69,4.48-.98,1.72-2.8,2.53-5.99,2.69,2.24-.79,4.38-2.37,4.02-5.38Z"/>
      </g>
    </g>
    <circle class="st5" cx="142.11" cy="81.03" r="21.55"/>
    <path class="st12" d="M142.13,85.72c-2.22,0-4.2-1.08-5.22-2.84-.18-.06-.36-.14-.52-.23l-.41.38-.27.17-.77.62v-1.36s-.46-.28-.46-.28l.11-.31c.1-.27.19-.59.27-.93-.22.21-.47.39-.75.53.03.04.05.08.06.13.1.29-.07.58-.13.67l-.02.02-.02.02c-.11.13-.27.21-.5.28-.03.13-.11.26-.25.39l-.03.03-.64.38-.66-.39-.04-.04c-.12-.14-.19-.26-.23-.38l-.11-.04-.35-.19-.06-.09c-.06-.09-.24-.37-.14-.68.01-.04.03-.07.05-.1-.25-.12-.47-.27-.68-.44.09.39.17.67.21.75l.2.34-.35.19-.17.1v1.58l-.7-.75c-.09-.09-.21-.2-.26-.22l-.1-.03-.07-.07-.39-.38.04-.28c-.01-.1-.02-.24-.01-.47,0-.43,0-.7.02-.94v-.11c.01-.2.02-.41.05-.64,0-.09.01-.15.02-.2,0-.08.01-.15.03-.25-.04,0-.07,0-.11,0-.54,0-.95-.43-1.05-1.08v-.03s0-.03,0-.03c0-.47.11-.82.34-1.05.12-.12.27-.21.44-.26-.15-.18-.25-.35-.31-.52v-.02s-.01-.02-.01-.02c-.14-.64.02-1.02.18-1.23.14-.18.41-.4.9-.42h.07s.07.02.07.02c.2.06.43.19.61.44.3-.28.64-.5,1.01-.67,0-.24.06-.47.17-.68v-.42h.74l.03.05s.09-.06.14-.08l.51-.89.49.88c.07.04.14.08.2.12.08-.07.17-.1.28-.1.19,0,.39.13.43.41h0s.05.11.05.11c.1.22.14.43.15.64.36.17.69.39.97.67.24-.42.59-.5.81-.5.1,0,.2.02.31.05h.03c.18.09.33.19.45.31.09-.45.37-.94.96-1.47.06-.12.09-.3.09-.53.01-.4.12-.76.31-1.08v-.48l1.17-5.42c-.17-.47-.19-.97-.05-1.51-.05-.28,0-.65.42-1.02.32-.33.67-.61,1.04-.85-.37-.39-.41-.79-.35-1.09v-.03s.01-.03.01-.03c.13-.37.45-.64.96-.79h.03s.03-.01.03-.01c.28-.04.29-.14.31-.23l.02-.14.11-.09c.08-.07.19-.11.31-.11.2,0,.37.12.42.31.03.11.11.24.27.26h.03s.03,0,.03,0c.33.08.6.22.8.42l.02.02c.24.28.27.57.24.75-.03.25-.16.49-.4.74.41.26.73.53,1,.81.36.27.52.63.47,1.05.14.52.12,1.05-.07,1.56l1.18,5.34v.52c.17.27.28.59.32.96v.03s0,.03,0,.03c-.01.26.02.47.09.63.54.5.86.97.95,1.45.01-.02.05-.07.05-.07l.02-.02c.23-.22.49-.33.74-.33.15,0,.55.05.83.51.29-.27.61-.49.98-.67,0-.25.06-.51.19-.77.08-.36.34-.4.43-.4h0c.05,0,.17.01.28.1.07-.05.14-.09.22-.13l.44-.93.54.95c.07.03.13.07.18.11.11-.09.23-.1.26-.1.09,0,.35.03.44.39.13.23.19.47.19.72.35.14.68.36,1,.66.25-.36.62-.43.86-.43.04,0,.08,0,.13,0h.05s.04.02.04.02c.39.13.99.52.73,1.69v.04s-.09.18-.09.18l-.22.27c.21.05.36.16.45.25.24.24.35.62.34,1.14v.03s0,.03,0,.03c-.09.59-.52,1.01-1.05,1.01-.04,0-.07,0-.11,0,.11.72.15,1.57.12,2.61v.28s-.11.12-.11.12c-.28.29-.39.36-.49.38,0,0-.01,0-.02.01l-.87.84v-1.5l-.46-.27.12-.32c.21-.55.41-1.47.59-2.39l-.06.02c-.28.23-.67.45-1.04.66-.27.15-.67.38-.87.54.07.03.13.08.19.14.3.31.33.89.29,1.8v.26s-1.18.47-1.18.47l-1.22-.51.07-.33c.04-.16.11-.32.23-.47-.92-.69-1.45-1.65-1.38-2.52l-.19-.04c.18.9.37,1.76.59,2.37l.1.3-.45.3v1.44l-.92-.82-.27-.17-.29-.25c-.15.09-.32.18-.5.24-1.13,1.79-3.08,2.85-5.25,2.85h0Z"/>
    <g>
      <path class="st12" d="M136.25,78.15c-.16,0-.29.15-.29.34s.13.34.29.34.29-.15.29-.34-.13-.34-.29-.34Z"/>
      <path class="st12" d="M135.86,78.64l-.14.18c.09.19.2.32.33.4l.37-.27c-.17.1-.38,0-.56-.31Z"/>
      <path class="st12" d="M148.37,79.81c-.28-.51-.79-.87-1.39-.95.43-.2.73-.63.73-1.14,0-.56-.36-1.03-.86-1.19.49-.72.26-1.51-.64-2.3h0v-.03c-.13-.17-.18-.46-.17-.87-.03-.33-.14-.63-.31-.88v-.56s-.68-3.15-.68-3.15h0s0,0,0,0l-.5-2.33c.19-.45.21-.94.05-1.47.08-.29-.03-.55-.33-.78-.49-.47-.96-.82-1.42-1.06.37-.19.72-.59.69-.96-.02-.22-.19-.52-.89-.67-.24-.04-.39-.2-.47-.52h-.09c-.08.31-.23.48-.47.52-.69.15-.86.45-.88.67-.04.37.31.77.69.96-.47.24-.94.59-1.42,1.05-.29.23-.41.49-.33.78-.15.53-.14,1.02.06,1.47l-1.19,5.5v.55c-.17.25-.28.55-.31.89.01.41-.05.7-.17.86v.03s0,0,0,0c-.91.79-1.13,1.58-.64,2.3-.5.16-.87.64-.87,1.19,0,.5.3.94.73,1.14-.58.07-1.07.41-1.36.89-.05-.35-.12-.64-.21-.81,0,0-.57,2.95-.73,3.08l1.05.3s0-.2,0-.51c.29.38.72.64,1.21.71l-.05.03c.87,1.6,2.48,2.61,4.37,2.77-.04.05-.07.11-.07.18,0,.14.11.25.25.25s.25-.11.25-.25c0-.06-.02-.12-.05-.16.04,0,.08,0,.12,0l.07.12.07-.13s.09,0,.14,0c-.03.04-.06.1-.06.16,0,.14.11.25.25.25s.25-.11.25-.25c0-.07-.03-.14-.08-.19,1.89-.18,3.55-1.2,4.42-2.76l-.07-.04c.5-.08.94-.37,1.22-.77,0,.32,0,.53,0,.53l1.05-.3c-.15-.12-.73-3.08-.73-3.08-.1.19-.18.53-.23.92ZM139.94,64.85c-.08.03-.14.06-.2.09v-.03c-.07-.25.02-.46.26-.67.07-.02.13-.04.2-.05-.22.2-.32.44-.26.65ZM145.17,69.83s-.01,0-.02,0c0,0,.01,0,.02,0h0Z"/>
      <path class="st12" d="M132.58,75.4c.65-.21,0-.79,0-.79,0,0-.65.58,0,.79Z"/>
      <path class="st12" d="M132.54,75.43c-1.63,0-2.95,1.36-2.95,3.02s1.32,3.02,2.95,3.02,2.95-1.36,2.95-3.02-1.32-3.02-2.95-3.02Z"/>
      <path class="st12" d="M132.61,81.59h-.07c-.08.27-.25.45-.48.72-.1.38.26.49.52.64.26-.15.62-.26.52-.64-.23-.27-.41-.45-.48-.72ZM132.57,82.57c-.22-.04-.3-.43,0-.59.32.17.2.54,0,.59Z"/>
      <path class="st12" d="M132.4,81.59h-.25c-.05.39-.49.59-.65.34.21.06.41,0,.57-.34h-.14c-.05.19-.18.26-.39.24.14-.24-.18-.3-.18,0,0,.44.82.62,1.04-.24Z"/>
      <path class="st12" d="M133.61,81.83c-.2.02-.34-.05-.39-.24h-.14c.16.35.36.41.57.34-.16.25-.6.05-.65-.34h-.25c.22.86,1.04.68,1.04.24,0-.3-.32-.24-.18,0Z"/>
      <path class="st12" d="M129.49,82.74c.18.07.35.28.35.28v-.78l-.69.22s.15.22.34.29Z"/>
      <path class="st12" d="M129.16,82.31l1.05-.3c-.15-.12-.73-3.07-.73-3.07-.38.7-.33,3.37-.33,3.37ZM129.93,81.58l-.7.21v-.3l.66-.19.04.29Z"/>
      <path class="st12" d="M135.33,83.02s.16-.21.35-.28.34-.29.34-.29l-.69-.22v.78Z"/>
      <path class="st12" d="M136.14,76.35c-.03.14-.07.31-.11.49-.19.12-.33.31-.43.56,0,.16.02.31.08.43l.87-1.05-.4-.44Z"/>
      <path class="st12" d="M129.44,78.82l-.14-.18c-.3.55-.74.43-.79-.19l-.23.48c-.06-.75.72-1.41,1.16-.41.18-.97-1.33-1.42-1.33,0,0,.84.93,1.15,1.33.29Z"/>
      <ellipse class="st12" cx="128.91" cy="78.49" rx=".29" ry=".34"/>
      <path class="st12" d="M136.66,78.45c-.02.22-.09.37-.18.46l.29-.22-.11-.24Z"/>
      <path class="st12" d="M135.73,78.53c.22-.51.53-.59.77-.45-.03-.13-.05-.31-.05-.45-.4-.02-.82.36-.72.9Z"/>
      <path class="st12" d="M154.07,81.97l1.05.3s.06-2.68-.33-3.37c0,0-.58,2.95-.73,3.08Z"/>
      <path class="st12" d="M154.44,82.97s.16-.21.35-.28c.18-.07.34-.29.34-.29l-.69-.22v.79Z"/>
      <path class="st12" d="M148.6,82.69c.18.07.35.28.35.28v-.79l-.69.22s.16.22.34.29Z"/>
      <path class="st12" d="M151.7,75.35c.65-.21,0-.79,0-.79,0,0-.65.58,0,.79Z"/>
      <path class="st12" d="M155.14,76.79c-.19.12-.33.31-.43.56,0,.16.02.31.08.43l.86-1.05-.4-.44c-.03.14-.07.31-.11.49Z"/>
      <path class="st12" d="M148.68,77.35c-.1-.25-.24-.44-.43-.56-.05-.18-.08-.35-.11-.49l-.4.44.87,1.04c.05-.12.08-.26.08-.43Z"/>
      <path class="st12" d="M148.34,76.13c.25.08.35.53.42,1.11l.25-.44c0-.14,0-.27-.01-.4l.02.02c.39-.57.96-1,1.59-1.24.12.16.36.24.76.18-.35-.45-.23-.79.33-1.03.56.24.69.58.33,1.03.42.07.66-.03.78-.2.64.22,1.19.62,1.6,1.17h0c-.02.15-.03.31-.02.47l.25.44c.06-.58.17-1.03.42-1.11.26-.07.47.16.65.52.38-1.12-.86-1.76-1.2-.68-.03.08-.05.16-.07.25-.41-.53-.95-.92-1.58-1.14.09-.24.01-.57-.14-.85.04-.14-.09-.19-.1-.05.07.51-.09.82-.22.75.15-.43-.01-.73-.46-.93-.1-.09-.16-.39-.22-.39-.06,0-.13.3-.22.39-.45.2-.62.5-.46.93-.12.07-.29-.25-.22-.75-.02-.14-.15-.09-.11.05-.16.29-.24.64-.13.88-.62.23-1.18.65-1.57,1.2,0,0,0,0,0,0-.02-.12-.04-.23-.08-.34-.34-1.08-1.58-.44-1.2.68.18-.35.38-.58.65-.51Z"/>
      <path class="st12" d="M155.37,78.78c.16,0,.29-.15.29-.34s-.13-.34-.29-.34-.29.15-.29.34.13.34.29.34Z"/>
      <path class="st12" d="M154.84,78.48c.44-1,1.22-.35,1.16.41l-.23-.48c-.06.61-.49.74-.79.19l-.14.18c.4.85,1.33.55,1.33-.29,0-1.42-1.51-.97-1.33,0Z"/>
      <path class="st12" d="M151.91,82.04v-.03s-.28-.01-.28-.01h-.28s0,.04,0,.04c-.27.08-.41.28-.48.54.25-.09.45-.24.59-.51h.14s0,.08,0,.08c-.49.34-.34.56.03.73h0s0,0,.01,0,0,0,0,0h0c.37-.18.52-.4.03-.74v-.09h.14c.13.27.33.43.59.52-.08-.26-.22-.46-.48-.54ZM151.63,82.62c-.19-.09-.19-.2,0-.35.2.14.22.26,0,.35Z"/>
      <path class="st12" d="M147.44,78.83s.37.09.68.41c.17-.07.32-.22.43-.46l-.14-.18c-.27.5-.66.44-.77-.04-.05.1-.12.19-.2.28Z"/>
      <path class="st12" d="M147.88,77.58c0,.12,0,.26-.04.42.23-.09.51.02.71.48.1-.52-.29-.89-.67-.9Z"/>
      <path class="st12" d="M148.02,78.78c.16,0,.29-.15.29-.34s-.13-.34-.29-.34-.29.15-.29.34.13.34.29.34Z"/>
      <path class="st12" d="M129.13,76.84c-.05-.18-.08-.35-.11-.49l-.4.44.87,1.05c.05-.12.08-.26.08-.43-.1-.25-.24-.44-.43-.56Z"/>
      <path class="st12" d="M129.23,76.18c.25.08.35.53.41,1.11l.25-.44c0-.16,0-.32-.02-.48h0c.41-.54.96-.95,1.6-1.17.11.18.36.27.78.2-.36-.45-.23-.79.33-1.03.56.24.69.58.33,1.03.4.07.64-.02.76-.18.64.23,1.2.67,1.59,1.24h.02c-.01.11-.02.25-.01.38l.25.44c.06-.58.17-1.03.41-1.11.26-.07.47.16.65.52.38-1.12-.86-1.76-1.2-.68-.04.11-.07.22-.09.33-.4-.54-.95-.97-1.57-1.2.11-.24.03-.58-.13-.88.04-.14-.09-.19-.11-.05.07.51-.09.82-.22.75.15-.43-.01-.73-.46-.93-.1-.09-.17-.39-.22-.39-.07,0-.13.3-.22.39-.45.2-.62.5-.46.93-.12.07-.29-.25-.22-.75-.02-.14-.15-.09-.1.05-.16.28-.24.61-.14.85-.63.22-1.17.61-1.58,1.14-.01-.09-.04-.17-.07-.25-.34-1.08-1.58-.44-1.2.68.18-.35.38-.58.65-.52Z"/>
      <path class="st12" d="M154.32,78.69c.1-.19.15-.4.15-.64,0,0-.02,0-.02.01,0-.05,0-.1,0-.15.04-.03.06-.08.06-.13,0-.06-.03-.11-.08-.14-.01-.11-.04-.21-.07-.3-.03-.09-.06-.18-.1-.26-.08-.18-.18-.34-.28-.47,0,0,.01,0,.01,0-.09-.11-.18-.21-.28-.3-.07-.07-.12-.11-.12-.11,0,0,0,0,0,0-1.33-1.17-3.22-.98-4.33.41.01,0,.02.01.03.02-.03.03-.05.06-.07.09h0s0,0,0,.02c-.13.18-.17.32-.17.32,0,0,0,0,0,0-.48,1.06-.2,1.92.69,2.14,0,.04,0,.09,0,.13-.02.12-.04.24-.04.37,0,0,0,0,0,.01-.07.37.05.57.23.81.12.23.25.43.38.6,0,0,0,0,0,0,.17.35.44.54.66.64.11.08.22.15.34.22.05,0,.08-.03.02-.1v-.15c.29.29.72.29.96-.07.08-.12.08-.57-.21-.65h-.09c.36.18.31.72-.16.65-.44-.03-.46-.66-.07-1.11.38-.3.89-.61,1.48-.92.43-.21.77-.46.98-.76-.23.65.02.03.1-.16Z"/>
    </g>
    <path class="st8" d="M137.26,82.48c2.06,3.76,7.79,3.54,9.77,0"/>
    <path class="st8" d="M146.3,81.13"/>
    <path class="st8" d="M138.61,82.07c1.85,2.18,5.25,2.08,7.06,0"/>
    <path d="M138.29,77.87s0,0,0,0c.13.02.27-.02.36-.14-.09-.12-.23-.16-.36-.14,0,0,0,0,0,0,.12-.05.22-.15.24-.3-.14-.06-.28-.02-.38.06,0,0,0,0,0,0,.08-.1.12-.24.06-.38-.15.02-.25.12-.3.24,0,0,0,0,0,0,.02-.13-.02-.27-.14-.36-.12.09-.16.23-.14.36,0,0,0,0,0,0-.05-.12-.15-.22-.3-.24-.06.14-.02.28.06.38,0,0,0,0,0,0-.1-.08-.24-.12-.38-.06.02.15.12.25.24.3,0,0,0,0,0,0-.13-.02-.27.02-.36.14.09.12.23.16.36.14,0,0,0,0,0,0-.12.05-.22.15-.24.3.14.06.28.02.38-.06,0,0,0,0,0,0-.08.1-.12.24-.06.38.15-.02.25-.12.3-.24,0,0,0,0,0,0-.02.13.02.27.14.36.12-.09.16-.23.14-.36,0,0,0,0,0,0,.05.12.15.22.3.24.06-.14.02-.28-.06-.38,0,0,0,0,0,0,.1.08.24.12.38.06-.02-.15-.12-.25-.24-.3ZM137.77,78.04c-.18,0-.32-.14-.32-.32s.14-.32.32-.32.32.14.32.32-.14.32-.32.32Z"/>
    <path d="M137.29,80.15c.13-.22.06-.5-.21-.57-.16.23-.03.49.21.57Z"/>
    <path d="M137.12,80.25c.05-.25-.11-.49-.39-.47-.07.27.14.47.39.47Z"/>
    <path d="M136.92,80.58c-.12-.22-.4-.3-.6-.11.12.25.41.27.6.11Z"/>
    <path d="M136.92,80.78c-.19-.17-.48-.14-.6.11.2.19.48.12.6-.11Z"/>
    <path d="M137.84,80.25c.25,0,.46-.2.39-.47-.28-.02-.44.22-.39.47Z"/>
    <path d="M137.67,80.15c.24-.08.36-.34.21-.57-.27.07-.34.35-.21.57Z"/>
    <g>
      <circle class="st7" cx="137.48" cy="80.68" r="1.75"/>
      <circle class="st6" cx="137.48" cy="80.68" r="1.32"/>
      <circle class="st3" cx="137.48" cy="80.68" r=".43"/>
      <circle cx="137.48" cy="80.68" r=".22"/>
      <circle class="st1" cx="137.77" cy="77.72" r="1.19"/>
      <circle class="st0" cx="137.77" cy="77.72" r=".92"/>
      <path d="M137.48,80.12c.2-.16.23-.45,0-.61-.23.16-.2.45,0,.61Z"/>
      <path d="M136.99,80.4c-.04-.25-.27-.42-.53-.3.03.28.29.4.53.3Z"/>
      <path d="M136.99,80.96c-.24-.09-.5.03-.53.3.25.12.49-.05.53-.3Z"/>
      <path d="M137.12,81.11c-.25,0-.46.2-.39.47.28.02.44-.22.39-.47Z"/>
      <path d="M137.29,81.21c-.24.08-.36.34-.21.57.27-.07.34-.35.21-.57Z"/>
      <path d="M137.48,81.24c-.2.16-.23.45,0,.61.23-.16.2-.45,0-.61Z"/>
      <path d="M137.67,81.21c-.13.22-.06.5.21.57.16-.23.03-.49-.21-.57Z"/>
      <path d="M137.84,81.11c-.05.25.11.49.39.47.07-.27-.14-.47-.39-.47Z"/>
      <path d="M137.96,80.96c.04.25.27.42.53.3-.03-.28-.29-.4-.53-.3Z"/>
      <path d="M138.03,80.78c.12.22.4.3.6.11-.12-.25-.41-.27-.6-.11Z"/>
      <path d="M138.03,80.58c.19.17.48.14.6-.11-.2-.19-.48-.12-.6.11Z"/>
      <path d="M137.96,80.4c.24.09.5-.03.53-.3-.25-.12-.49.05-.53.3Z"/>
      <path class="st3" d="M137.43,76.52c-.54-.77-.18-1.57.62-2.27.8.72,1.37,1.74.42,2.44"/>
      <path class="st3" d="M138.07,74.84c-.8.71-.66,1.21-.03,1.6.74-.37.66-1.03.03-1.6Z"/>
      <path d="M138.06,75.2c-.39.39-.32.67-.02.88.36-.2.32-.57.02-.88Z"/>
    </g>
    <path d="M146.98,77.86s0,0,0,0c.13.02.26-.02.36-.14-.09-.12-.23-.16-.36-.14,0,0,0,0,0,0,.12-.05.22-.15.24-.3-.14-.06-.28-.02-.38.06,0,0,0,0,0,0,.08-.1.12-.24.06-.38-.15.02-.25.12-.3.24,0,0,0,0,0,0,.02-.13-.02-.26-.14-.36-.12.09-.16.23-.14.36,0,0,0,0,0,0-.05-.12-.15-.22-.3-.24-.06.14-.02.28.06.38,0,0,0,0,0,0-.1-.08-.24-.12-.38-.06.02.15.12.25.24.3,0,0,0,0,0,0-.13-.02-.26.02-.36.14.09.12.23.16.36.14,0,0,0,0,0,0-.12.05-.22.15-.24.3.14.06.28.02.38-.06,0,0,0,0,0,0-.08.1-.12.24-.06.38.15-.02.25-.12.3-.24,0,0,0,0,0,0-.02.13.02.26.14.36.12-.09.16-.23.14-.36,0,0,0,0,0,0,.05.12.15.22.3.24.06-.14.02-.28-.06-.38,0,0,0,0,0,0,.1.08.24.12.38.06-.02-.15-.12-.25-.24-.3ZM146.46,78.01c-.16,0-.29-.13-.29-.29s.13-.29.29-.29.29.13.29.29-.13.29-.29.29Z"/>
    <path d="M146.94,80.15c-.13-.22-.06-.5.21-.57.16.23.03.49-.21.57Z"/>
    <path d="M147.11,80.25c-.05-.25.11-.49.39-.47.07.27-.14.47-.39.47Z"/>
    <path d="M147.31,80.58c.12-.22.4-.3.6-.11-.12.25-.41.27-.6.11Z"/>
    <path d="M147.31,80.78c.19-.17.48-.14.6.11-.2.19-.48.12-.6-.11Z"/>
    <path d="M146.39,80.25c-.25,0-.46-.2-.39-.47.28-.02.44.22.39.47Z"/>
    <path d="M146.56,80.15c-.24-.08-.36-.34-.21-.57.27.07.34.35.21.57Z"/>
    <g>
      <circle class="st7" cx="146.75" cy="80.68" r="1.75"/>
      <circle class="st6" cx="146.75" cy="80.68" r="1.32"/>
      <circle class="st3" cx="146.75" cy="80.68" r=".43"/>
      <circle cx="146.75" cy="80.68" r=".22"/>
      <circle class="st1" cx="146.46" cy="77.72" r="1.19"/>
      <circle class="st0" cx="146.46" cy="77.72" r=".92"/>
      <path d="M146.75,80.12c-.2-.16-.23-.45,0-.61.23.16.2.45,0,.61Z"/>
      <path d="M147.24,80.4c.04-.25.27-.42.53-.3-.03.28-.29.4-.53.3Z"/>
      <path d="M147.24,80.96c.24-.09.5.03.53.3-.25.12-.49-.05-.53-.3Z"/>
      <path d="M147.11,81.11c.25,0,.46.2.39.47-.28.02-.44-.22-.39-.47Z"/>
      <path d="M146.94,81.21c.24.08.36.34.21.57-.27-.07-.34-.35-.21-.57Z"/>
      <path d="M146.75,81.24c.2.16.23.45,0,.61-.23-.16-.2-.45,0-.61Z"/>
      <path d="M146.56,81.21c.13.22.06.5-.21.57-.16-.23-.03-.49.21-.57Z"/>
      <path d="M146.39,81.11c.05.25-.11.49-.39.47-.07-.27.14-.47.39-.47Z"/>
      <path d="M146.27,80.96c-.04.25-.27.42-.53.3.03-.28.29-.4.53-.3Z"/>
      <path d="M146.2,80.78c-.12.22-.4.3-.6.11.12-.25.41-.27.6-.11Z"/>
      <path d="M146.2,80.58c-.19.17-.48.14-.6-.11.2-.19.48-.12.6.11Z"/>
      <path d="M146.27,80.4c-.24.09-.5-.03-.53-.3.25-.12.49.05.53.3Z"/>
      <path class="st3" d="M146.81,76.52c.54-.77.18-1.57-.62-2.27-.8.72-1.37,1.74-.42,2.44"/>
      <path class="st3" d="M146.16,74.84c.8.71.66,1.21.03,1.6-.74-.37-.66-1.03-.03-1.6Z"/>
      <path d="M146.17,75.2c.39.39.32.67.02.88-.36-.2-.32-.57-.02-.88Z"/>
    </g>
    <path class="st9" d="M146.16,74.22l-.37.41c-1.06-.55-2.29-.79-3.68-.79-1.38,0-2.62.24-3.68.79l-.37-.41c.13-.17.2-.45.18-.89.03-.32.13-.61.31-.87v-.57l1.19-5.5c-.19-.44-.21-.93-.06-1.46-.08-.29.04-.54.31-.74.47-.45.96-.83,1.5-1.09-.65-.27-1.35-1.28.1-1.58.26-.04.43-.23.51-.55.08.33.25.51.51.55,1.45.3.74,1.31.1,1.58.54.27,1.04.65,1.5,1.09.27.21.39.45.31.74.16.54.14,1.02-.06,1.46l1.19,5.5v.57c.18.26.28.55.31.87-.01.44.05.73.18.89Z"/>
    <path d="M142.12,61.36c-.07.09-.22.19-.45.28h.86c-.18-.08-.33-.17-.42-.28Z"/>
    <path class="st2" d="M140.76,62.16c.7-.62,2.2-.51,2.72,0"/>
    <path class="st2" d="M140.9,62.58c.77-.42,1.73-.46,2.46,0"/>
    <path class="st2" d="M141,62.71c.8-.37,1.55-.42,2.24,0"/>
    <path d="M141.46,63.11c.44-.16.88-.16,1.31,0l.44.25c-.73-.17-1.47-.15-2.22,0l.51-.28"/>
    <circle cx="140.95" cy="62.28" r=".07"/>
    <circle cx="141.18" cy="62.16" r=".09"/>
    <circle cx="141.48" cy="62.07" r=".11"/>
    <circle cx="141.8" cy="62.03" r=".14"/>
    <circle cx="142.12" cy="61.97" r=".14"/>
    <circle cx="142.46" cy="62.03" r=".14"/>
    <circle cx="142.79" cy="62.07" r=".11"/>
    <circle cx="143.08" cy="62.16" r=".09"/>
    <circle cx="143.3" cy="62.28" r=".07"/>
    <path class="st2" d="M139.94,64.23c1.5-.41,2.94-.42,4.32,0"/>
    <path class="st2" d="M140.6,63.66c1.05-.23,2.04-.25,2.94,0"/>
    <path class="st2" d="M139.68,65.01c.33-.28,1.25-.35,2.05-.42"/>
    <path class="st2" d="M144.55,65.01c-.33-.28-1.25-.35-2.05-.42"/>
    <path class="st2" d="M141.67,64.59c-.08-.25.08-.48.32-.67M141.72,63.96c-.24.19-.4.42-.32.66M141.47,63.95c-.24.19-.4.43-.32.68M141.26,63.98c-.24.19-.43.44-.35.68M141.08,64c-.24.19-.49.46-.41.7M140.77,64.06c-.24.19-.43.43-.35.67M140.53,64.09c-.24.19-.43.43-.35.67M140.28,64.16c-.24.19-.39.45-.31.69"/>
    <path class="st2" d="M142.24,63.92c.24.19.4.42.32.67M142.83,64.62c.08-.25-.08-.48-.32-.66M143.08,64.63c.08-.25-.08-.49-.32-.68M143.32,64.66c.08-.25-.11-.5-.35-.68M143.56,64.7c.08-.25-.17-.52-.41-.7M143.8,64.73c.08-.25-.11-.49-.35-.67M144.04,64.77c.08-.25-.11-.49-.35-.67M144.26,64.85c.08-.25-.07-.51-.31-.69"/>
    <path d="M142.56,75.09c.27,1.61.07,3.09-.44,3.26-.51-.17-.65-1.65-.39-3.26h-1.76l.6,3.48h3.08l.6-3.48h-1.69Z"/>
    <path class="st10" d="M138.58,74.79c2.35-.96,4.71-.96,7.06,0"/>
    <path class="st10" d="M140.8,74.2c-.47.53-1.1.92-1.91,1.17M138.97,75.9c1.1-.44,2.07-1.03,2.87-1.83"/>
    <path class="st10" d="M145.34,75.37c-.81-.25-1.44-.64-1.91-1.17M142.4,74.07c.8.79,1.77,1.39,2.87,1.83"/>
    <path class="st10" d="M138.89,75.41"/>
    <path class="st11" d="M141.42,74.14l.28.47.13-.16.28.34.3-.29.12.13.36-.49c-.51-.09-1-.09-1.47,0ZM142.12,74.58l-.28-.32h.6l-.32.32Z"/>
    <polygon class="st11" points="142.01 74.32 142.12 74.44 142.24 74.32 142.01 74.32"/>
    <path class="st11" d="M139.22,72.85c-.29,0-.52.23-.52.52s.23.52.52.52.52-.23.52-.52-.23-.52-.52-.52ZM139.22,73.75c-.21,0-.38-.17-.38-.38s.17-.38.38-.38.38.17.38.38-.17.38-.38.38ZM139.38,73.37c0,.09-.07.15-.15.15s-.15-.07-.15-.15.07-.15.15-.15.15.07.15.15Z"/>
    <path class="st11" d="M139.22,72.85c-.29,0-.52.23-.52.52s.23.52.52.52.52-.23.52-.52-.23-.52-.52-.52ZM139.22,73.75c-.21,0-.38-.17-.38-.38s.17-.38.38-.38.38.17.38.38-.17.38-.38.38ZM139.38,73.37c0,.09-.07.15-.15.15s-.15-.07-.15-.15.07-.15.15-.15.15.07.15.15Z"/>
    <path class="st11" d="M140.61,72.37c-.33,0-.6.27-.6.6s.27.6.6.6.6-.27.6-.6-.27-.6-.6-.6ZM140.61,73.4c-.24,0-.43-.19-.43-.43s.19-.43.43-.43.43.19.43.43-.19.43-.43.43ZM140.78,72.97c0,.1-.08.18-.18.18s-.18-.08-.18-.18.08-.18.18-.18.18.08.18.18Z"/>
    <path class="st11" d="M142.13,72.16c-.38,0-.69.31-.69.69s.31.69.69.69.69-.31.69-.69-.31-.69-.69-.69ZM142.13,73.35c-.27,0-.5-.22-.5-.5s.22-.5.5-.5.5.22.5.5-.22.5-.5.5ZM142.34,72.85c0,.11-.09.2-.2.2s-.2-.09-.2-.2.09-.2.2-.2.2.09.2.2Z"/>
    <path class="st11" d="M143.7,72.37c-.33,0-.6.27-.6.6s.27.6.6.6.6-.27.6-.6-.27-.6-.6-.6ZM143.7,73.4c-.24,0-.43-.19-.43-.43s.19-.43.43-.43.43.19.43.43-.19.43-.43.43ZM143.88,72.97c0,.1-.08.18-.18.18s-.18-.08-.18-.18.08-.18.18-.18.18.08.18.18Z"/>
    <path class="st11" d="M145.06,72.85c-.29,0-.52.23-.52.52s.23.52.52.52.52-.23.52-.52-.23-.52-.52-.52ZM145.06,73.75c-.21,0-.38-.17-.38-.38s.17-.38.38-.38.38.17.38.38-.17.38-.38.38ZM145.22,73.37c0,.09-.07.15-.15.15s-.15-.07-.15-.15.07-.15.15-.15.15.07.15.15Z"/>
    <path class="st11" d="M140.14,76.69c-.27,0-.49.08-.66.22.05-.25.27-.4.66-.45v.23Z"/>
    <path class="st11" d="M144.09,76.69c.27,0,.49.08.66.22-.05-.25-.27-.4-.66-.45v.23Z"/>
    <path class="st11" d="M139.69,77.27c.2.12.4.21.59.21v.06c-.29-.02-.48-.11-.59-.26ZM139.6,77.46c.2.24.43.39.72.38v-.13c-.21.08-.46-.06-.72-.25Z"/>
    <path class="st11" d="M143.95,77.53v-.06c.19,0,.39-.09.59-.21-.11.15-.3.24-.59.26ZM143.91,77.72v.13c.29.01.52-.14.72-.38-.26.2-.51.33-.72.25Z"/>
    <ellipse class="st11" cx="142.12" cy="81.36" rx=".64" ry=".42"/>
    <ellipse class="st11" cx="142.12" cy="83.29" rx=".28" ry=".19"/>
    <path class="st11" d="M139.43,80.76h-.06c1.66,2.2,4.05,2.28,5.49,0l-.06-.04c-1.32,2.1-3.64,2.22-5.37.04Z"/>
    <path class="st11" d="M141.08,82.44c.72.63,1.43.65,2.15.05-.68.42-1.4.36-2.15-.05Z"/>
    <path class="st11" d="M141.14,80.12c-.03-.05-.13-.06-.1.07l.17.26c-.28.12-.45,0-.34-.7.18-.84-.7-.95-.63-.04s.79,1.33,1.14.92c.03-.03.02-.08,0-.1-.12-.12-.2-.25-.23-.41Z"/>
    <path class="st11" d="M143.49,80.29c-.08.04-.14-.01-.18-.17l-.07.06c-.69.79-.29,1.17.32.3.88-1.12.19-2.44-.03-.9l-.04.71Z"/>
    <path class="st11" d="M141.53,80.15c.39.21.89.21,1.18,0,.04.34-.27.54-.58.3-.3.23-.56.07-.6-.3Z"/>
    <path class="st11" d="M143,79.18c-.08.09-.17.14-.25.15.01-1.23-1.48-.48-.4.42-.23.06-.68-.07-.52.09.12.13.57.08,1.04-.03.11.1.24.15.37.16-.14-.26-.22-.53-.24-.79ZM142.29,79.4c.01-.08,0-.16-.04-.25.23,0,.36.03.39.11-.04.09-.16.13-.35.14Z"/>
    <path d="M142.18,64.05c.39.35.26.54-.06.58-.35-.07-.34-.32-.06-.58.04-.03.09-.03.13,0Z"/>
    <path class="st2" d="M139.62,65.27c1.72-.55,3.4-.56,5.03,0"/>
    <path class="st2" d="M139.62,65.96c1.7-.63,3.37-.62,5.03,0"/>
    <circle cx="139.65" cy="65.58" r=".09"/>
    <circle cx="139.92" cy="65.49" r=".12"/>
    <circle cx="140.33" cy="65.35" r=".16"/>
    <circle cx="140.75" cy="65.27" r=".2"/>
    <circle cx="141.23" cy="65.19" r=".2"/>
    <ellipse cx="139.44" cy="68.35" rx=".12" ry=".2"/>
    <circle cx="139.85" cy="68.2" r=".2"/>
    <circle cx="140.33" cy="68.1" r=".2"/>
    <circle cx="140.85" cy="68.04" r=".2"/>
    <circle cx="141.38" cy="67.98" r=".2"/>
    <circle cx="141.87" cy="67.95" r=".2"/>
    <circle cx="142.4" cy="67.95" r=".2"/>
    <circle cx="142.93" cy="67.98" r=".2"/>
    <circle cx="143.41" cy="68.04" r=".2"/>
    <circle cx="143.94" cy="68.1" r=".2"/>
    <circle cx="144.43" cy="68.24" r=".2"/>
    <ellipse cx="144.84" cy="68.35" rx=".1" ry=".2"/>
    <circle cx="141.67" cy="65.15" r=".2"/>
    <circle cx="142.15" cy="65.15" r=".2"/>
    <circle cx="142.6" cy="65.17" r=".2"/>
    <circle cx="143.05" cy="65.21" r=".2"/>
    <circle cx="143.53" cy="65.27" r=".2"/>
    <circle cx="143.94" cy="65.35" r=".16"/>
    <circle cx="144.34" cy="65.49" r=".12"/>
    <circle cx="144.6" cy="65.58" r=".09"/>
    <path class="st2" d="M139.73,66.42c1.6-.58,3.2-.57,4.78,0"/>
    <path class="st2" d="M139.4,67.98c1.83-.59,3.64-.59,5.43,0"/>
    <path class="st2" d="M139.24,68.74c1.83-.53,4-.52,5.79,0"/>
    <polyline class="st2" points="139.53 68.67 140.41 69.58 141.38 68.4"/>
    <polyline class="st2" points="142.85 68.37 143.88 69.63 144.74 68.66"/>
    <path d="M139.92,68.81c.17.14.34.29.49.46.1-.21.26-.41.48-.62l-.97.16Z"/>
    <path d="M143.37,68.65s.54.59.51.62c0,0,.47-.46.47-.46l-.98-.15Z"/>
    <path class="st2" d="M138.49,72.56c2.46-.86,4.89-.95,7.28,0"/>
    <path class="st2" d="M139.53,72.23c.58-.32.96-.73,1.13-1.23.24.4.56.71.98.91"/>
    <path class="st2" d="M142.78,71.89c.38-.24.67-.54.87-.89.24.53.59.96,1.11,1.23"/>
    <path d="M140.65,71.37c-.01.15-.1.29-.25.42l.6-.05c-.13-.08-.25-.19-.35-.38Z"/>
    <path d="M143.61,71.4c-.06.12-.17.24-.35.35l.61.04c-.15-.11-.24-.24-.26-.39Z"/>
    <g>
      <circle class="st0" cx="140.6" cy="66.91" r=".57"/>
      <circle class="st0" cx="140.6" cy="66.91" r=".35"/>
      <circle cx="140.6" cy="66.91" r=".13"/>
    </g>
    <g>
      <circle class="st0" cx="142.16" cy="66.77" r=".57"/>
      <circle class="st0" cx="142.16" cy="66.77" r=".35"/>
      <circle cx="142.16" cy="66.77" r=".13"/>
    </g>
    <g>
      <circle class="st0" cx="143.7" cy="66.91" r=".57"/>
      <circle class="st0" cx="143.7" cy="66.91" r=".35"/>
      <circle cx="143.7" cy="66.91" r=".13"/>
    </g>
    <g>
      <path d="M142.18,68.55l.02-.02s.07-.03.1,0c.24.25.24.53.07.82-.02.04-.07.03-.09,0l-.09-.2s-.07-.04-.09,0l-.06.2s-.06.04-.08.01c-.21-.26-.23-.55,0-.82.03-.03.07-.03.1,0l.02.02s.08.03.11,0ZM141.01,69.04h-.02s-.07.03-.07.07c.02.35.24.54.57.58.04,0,.07-.03.05-.07l-.1-.19s.02-.08.06-.06l.21.08s.08-.02.07-.06c-.08-.33-.28-.52-.63-.53-.04,0-.07.03-.07.07v.03s-.03.08-.08.08ZM140.62,70.14l-.02.02s-.03.07,0,.1c.26.24.56.21.82,0,.03-.02.02-.07-.01-.08l-.2-.06s-.04-.07,0-.09l.2-.09s.04-.07,0-.09c-.29-.17-.56-.17-.82.07-.03.03-.03.07,0,.1l.02.02s.04.08,0,.11ZM141.11,71.19v.02s.03.07.07.07c.35-.02.54-.24.58-.57,0-.04-.03-.07-.07-.05l-.19.1s-.08-.02-.06-.06l.08-.21s-.02-.08-.06-.07c-.33.08-.52.28-.53.63,0,.04.03.07.07.07h.03s.08.03.08.08ZM142.21,71.59l.02.02s.07.03.1,0c.24-.26.21-.56,0-.82-.02-.03-.07-.02-.08.01l-.06.2s-.07.04-.09,0l-.09-.2s-.07-.04-.09,0c-.17.29-.17.56.07.82.03.03.07.03.1,0l.02-.02s.08-.04.11,0ZM143.26,71.09h.02s.07-.03.07-.07c-.02-.35-.24-.54-.57-.58-.04,0-.07.03-.05.07l.1.19s-.02.08-.06.06l-.21-.08s-.08.02-.07.06c.08.33.28.52.63.53.04,0,.07-.03.07-.07v-.03s.03-.08.08-.08ZM143.66,70l.02-.02s.03-.07,0-.1c-.26-.24-.56-.21-.82,0-.03.02-.02.07.01.08l.2.06s.04.07,0,.09l-.2.09s-.04.07,0,.09c.29.17.56.17.82-.07.03-.03.03-.07,0-.1l-.02-.02s-.04-.08,0-.11ZM143.16,68.95v-.02s-.03-.07-.07-.07c-.35.02-.54.24-.58.57,0,.04.03.07.07.05l.19-.1s.08.02.06.06l-.08.21s.02.08.06.07c.33-.08.52-.28.53-.63,0-.04-.03-.07-.07-.07h-.03s-.08-.03-.08-.08ZM142.85,70.07c0,.4-.32.72-.72.72s-.72-.32-.72-.72.32-.72.72-.72.72.32.72.72ZM142.45,70.07c0-.17-.14-.32-.32-.32s-.32.14-.32.32.14.32.32.32.32-.14.32-.32Z"/>
      <path d="M139.3,69.88c.04-.33.23-.56.58-.57.04,0,.07.03.07.07v.02s.03.08.08.08h.03s.07.02.07.06c0,.35-.21.54-.53.63-.04.01-.08-.03-.06-.07l.08-.21s-.02-.07-.06-.06l-.19.1s-.07-.01-.07-.05ZM139.57,70.91s-.07.03-.05.07l.1.19s-.02.08-.06.06l-.21-.08s-.08.02-.07.06c.08.33.28.52.63.53.04,0,.07-.03.07-.07v-.03s.03-.08.08-.08h.02s.07-.03.07-.07c-.02-.35-.24-.54-.57-.58ZM139.03,71.26l-.06.2s-.07.04-.09,0l-.09-.2s-.06-.04-.08-.02l-.11.54c.03.1.08.19.17.29.03.03.07.03.1,0l.02-.02s.08-.04.11,0l.02.02s.07.03.1,0c.24-.26.21-.56,0-.82-.02-.03-.07-.02-.08.01ZM140.46,70.59l-.02-.02s-.04-.08,0-.11l.02-.02s.03-.07,0-.1c-.26-.24-.56-.21-.82,0-.03.02-.02.07.01.08l.2.06s.04.07,0,.09l-.2.09s-.04.07,0,.09c.29.17.56.17.82-.07.03-.03.03-.07,0-.1ZM139.64,70.53c0-.37-.28-.67-.64-.71l-.08.4s0,0,0,0c.17,0,.32.14.32.32s-.14.32-.32.32c-.05,0-.09-.01-.13-.03l-.08.4c.07.02.14.03.21.03.4,0,.72-.32.72-.72ZM139.15,69.8c.15-.26.17-.5,0-.73l-.13.64.04.09s.07.04.09,0Z"/>
      <path d="M144.92,71.17c-.04.33-.23.56-.58.57-.04,0-.07-.03-.07-.07v-.02s-.03-.08-.08-.08h-.03s-.07-.02-.07-.06c0-.35.21-.54.53-.63.04-.01.08.03.06.07l-.08.21s.02.07.06.06l.19-.1s.07.01.07.05ZM145.49,71.25s-.07-.02-.08.01l-.06.2s-.07.04-.09,0l-.09-.2s-.07-.04-.09,0c-.17.29-.17.56.07.82.03.03.07.03.1,0l.02-.02s.08-.04.11,0l.02.02s.07.03.1,0c.06-.07.11-.14.13-.21l-.13-.6s0,0,0,0ZM144.58,70.71s.02-.07-.01-.08l-.2-.06s-.04-.07,0-.09l.2-.09s.04-.07,0-.09c-.29-.17-.56-.17-.82.07-.03.03-.03.07,0,.1l.02.02s.04.08,0,.11l-.02.02s-.03.07,0,.1c.26.24.56.21.82,0ZM145.12,69.8s.05.02.07,0l-.15-.71c-.14.23-.1.48.08.71ZM144.66,70.15s.07-.03.05-.07l-.1-.19s.02-.08.06-.06l.21.08s.08-.02.07-.06c-.08-.33-.28-.52-.63-.53-.04,0-.07.03-.07.07v.03s-.03.08-.08.08h-.02s-.07.03-.07.07c.02.35.24.54.57.58ZM145.3,70.84c-.17,0-.32-.14-.32-.32,0-.16.13-.3.29-.31l-.08-.39c-.34.05-.6.35-.6.71,0,.4.32.72.72.72.06,0,.12,0,.18-.02l-.08-.39s-.06.02-.1.02Z"/>
    </g>
    <g>
      <path d="M141.8,83.87c-.33-.11-.5.14-.21.46.02-.16.09-.3.21-.46Z"/>
      <path d="M146.59,82.58s-.07.05-.07.12c0,.01-.02.02-.02,0-.16-.21-.44-.21-.51,0-.05.15.03.2.16.21.01,0,.02-.02.01-.03-.13-.14.18-.34.24-.08,0,.16-.1.26-.46.21-.27-.35-.81-.5-1.01.02-.03.08-.06.31-.07.39,0,.02-.02.03-.04.02-.23-.14-.45-.17-.66-.04-.14.1-.28.15-.41.14.14.4.54.09.71,0,.06-.03.36,0,.39.15-.39-.09-.65.03-.55.39.14.24.43.13.44-.1,0-.1-.06-.16-.15-.15.1.14.04.24-.04.22-.22-.05-.03-.47.28-.21.08.25-.07.44-.3.45-.19.02-.39-.12-.59-.32-.21-.32-.64-.47-1.02.02l-.37.6s-.02,0-.02,0c.03-.37-.12-.61-.42-.75-.3.14-.45.39-.42.75,0,.01-.01.02-.02,0l-.37-.6c-.37-.48-.8-.34-1.02-.02-.2.2-.4.34-.59.32-.22-.01-.38-.21-.3-.45.31-.26.5.16.28.21-.09.02-.14-.08-.04-.22-.1,0-.15.04-.15.15,0,.24.3.34.44.1.1-.36-.16-.48-.55-.39.03-.14.33-.18.39-.15.18.1.57.41.71,0-.13,0-.26-.05-.41-.14-.21-.13-.43-.1-.66.04-.01,0-.03,0-.04-.02-.01-.09-.04-.31-.07-.39-.21-.52-.75-.37-1.01-.02-.35.05-.45-.05-.46-.21.06-.26.37-.06.24.08-.01.01,0,.03.01.03.13,0,.21-.06.16-.21-.07-.22-.35-.22-.51,0,0,0-.02,0-.02,0,0-.07-.07-.11-.07-.12,0-.02-.08.14.02.21.04.26.37.42.63.31-.04.4.12.66.41.75.12.04.21.04.22.12,0,.02.02.03.04.02.22-.09.21-.31-.08-.38-.3-.01-.51-.19-.43-.57.01-.06.06-.08.13-.06.02,0,.03.02.03.04-.07.29,0,.49.28.46.25-.02.22-.36.07-.42-.02,0-.04.01-.03.03.03.08,0,.16-.06.21-.17.12-.29-.24-.1-.37.15-.11.38,0,.43.18.15.23-.02.63.04.98.07.4.68.45.95.19.01-.01.03,0,.04.01.02.07.06.22.09.26.23.31.54.21.83.07.25-.12.25.2.04.13-.02,0-.04,0-.04.02,0,.12.12.16.17.13.13-.07.16-.21.04-.37-.1-.08-.2-.09-.32-.05-.3.18-.62.06-.62-.18,0-.02.02-.03.04-.01.06.07.13.16.32.19.42-.08.32-.6.04-.58-.24.01-.23.29-.05.32.01,0,.02-.02.01-.03-.08-.09.04-.14.11-.03.03.2-.27.24-.37.02-.11-.25.27-.54.57-.28.35.3.52.95.75,1.07h.57c.23-.13.4-.77.75-1.07.3-.26.68.03.57.28-.1.23-.39.18-.37-.02.07-.12.18-.06.11.03-.01.01,0,.03.01.03.19-.03.2-.3-.05-.32-.28-.02-.39.5.04.58.19-.03.26-.11.32-.19.01-.01.04,0,.04.01,0,.24-.32.36-.62.18-.12-.05-.22-.04-.32.05-.12.16-.09.3.04.37.06.03.18,0,.17-.13,0-.02-.02-.03-.04-.02-.21.07-.21-.25.04-.13.29.14.6.24.83-.07.04-.05.07-.19.09-.26,0-.02.02-.02.04-.01.27.27.89.21.95-.19.06-.35-.11-.76.04-.98.06-.18.28-.29.43-.18.19.13.07.49-.1.37-.06-.04-.09-.12-.06-.21,0-.02-.01-.04-.03-.03-.15.06-.18.4.07.42.28.03.36-.17.28-.46,0-.02,0-.04.03-.04.07-.01.12,0,.13.06.08.37-.13.55-.43.57-.29.08-.31.3-.08.38.02,0,.04,0,.04-.02,0-.08.1-.08.22-.12.29-.09.45-.35.41-.75.25.11.59-.05.63-.31.1-.07.03-.23.02-.21Z"/>
      <path d="M142.43,83.87c.12.16.19.3.21.46.29-.32.12-.57-.21-.46Z"/>
    </g>
    <path d="M141.73,85.22c-.14,0-.25.11-.25.25s.11.25.25.25.25-.11.25-.25-.11-.25-.25-.25ZM141.73,85.59c-.07,0-.12-.05-.12-.12s.05-.12.12-.12.12.05.12.12-.05.12-.12.12Z"/>
    <path d="M142.52,85.22c-.14,0-.25.11-.25.25s.11.25.25.25.25-.11.25-.25-.11-.25-.25-.25ZM142.52,85.59c-.07,0-.12-.05-.12-.12s.05-.12.12-.12.12.05.12.12-.05.12-.12.12Z"/>
    <polygon points="142.12 85.45 142.19 85.32 142.04 85.32 142.12 85.45"/>
    <path d="M132.54,75.81c1.42,0,2.58,1.18,2.58,2.64s-1.15,2.64-2.58,2.64-2.58-1.18-2.58-2.64,1.15-2.64,2.58-2.64M132.54,75.71c-1.47,0-2.67,1.23-2.67,2.74s1.2,2.74,2.67,2.74,2.67-1.23,2.67-2.74-1.2-2.74-2.67-2.74h0Z"/>
    <path d="M132.54,75.52c1.58,0,2.86,1.31,2.86,2.93s-1.28,2.93-2.86,2.93-2.86-1.31-2.86-2.93,1.28-2.93,2.86-2.93M132.54,75.42c-1.63,0-2.95,1.36-2.95,3.02s1.32,3.02,2.95,3.02,2.95-1.36,2.95-3.02-1.32-3.02-2.95-3.02h0Z"/>
    <path d="M132.13,76.29c.05.17-.02.43-.02.43,0,0-.21-.18-.26-.36s.09-.27.09-.27c0,0,.15.02.19.19Z"/>
    <path d="M133.27,76.38c-.05.17-.24.36-.24.36,0,0-.09-.26-.04-.44s.21-.19.21-.19c0,0,.12.09.07.26Z"/>
    <path d="M134.2,77.02c-.13.13-.39.2-.39.2,0,0,.06-.27.18-.4s.27-.06.27-.06c0,0,.06.14-.07.26Z"/>
    <path d="M134.7,78.04c-.17.05-.43-.02-.43-.02,0,0,.18-.21.36-.26s.27.09.27.09c0,0-.02.15-.19.19Z"/>
    <path d="M134.61,79.17c-.17-.05-.36-.24-.36-.24,0,0,.26-.09.44-.04s.19.21.19.21c0,0-.09.12-.26.07Z"/>
    <path d="M133.97,80.11c-.13-.13-.2-.39-.2-.39,0,0,.27.06.4.18s.06.27.06.27c0,0-.14.06-.26-.07Z"/>
    <path d="M132.95,80.6c-.05-.17.02-.43.02-.43,0,0,.21.18.26.36s-.09.27-.09.27c0,0-.15-.02-.19-.19Z"/>
    <path d="M131.82,80.52c.05-.17.24-.36.24-.36,0,0,.09.26.04.44s-.21.19-.21.19c0,0-.12-.09-.07-.26Z"/>
    <path d="M130.88,79.88c.13-.13.39-.2.39-.2,0,0-.06.27-.18.4s-.27.06-.27.06c0,0-.06-.14.07-.26Z"/>
    <path d="M130.39,78.85c.17-.05.43.02.43.02,0,0-.18.21-.36.26s-.27-.09-.27-.09c0,0,.02-.15.19-.19Z"/>
    <path d="M130.47,77.72c.17.05.36.24.36.24,0,0-.26.09-.44.04s-.19-.21-.19-.21c0,0,.09-.12.26-.07Z"/>
    <path d="M131.11,76.78c.13.13.2.39.2.39,0,0-.27-.06-.4-.18s-.06-.27-.06-.27c0,0,.14-.06.26.07Z"/>
    <path d="M134.06,78.9s-.07-.04-.1-.05c.04,0,.08,0,.12,0,.52,0,.94-.39.94-.39,0,0-.42-.39-.94-.39-.04,0-.08,0-.11,0,.04-.02.07-.04.11-.06.45-.26.62-.8.62-.8,0,0-.56-.12-1,.13-.03.02-.07.04-.1.06.02-.03.04-.07.06-.1.26-.45.13-1,.13-1,0,0-.54.17-.8.62-.02.03-.04.07-.05.1,0-.04,0-.08,0-.12,0-.52-.39-.94-.39-.94,0,0-.39.42-.39.94,0,.04,0,.08,0,.11-.02-.04-.04-.07-.06-.11-.26-.45-.8-.62-.8-.62,0,0-.12.56.13,1,.02.03.04.07.06.1-.03-.02-.07-.04-.1-.06-.45-.26-1-.13-1-.13,0,0,.17.54.62.8.03.02.07.04.1.05-.04,0-.08,0-.12,0-.52,0-.94.39-.94.39,0,0,.42.39.94.39.04,0,.08,0,.11,0-.04.02-.07.04-.11.06-.45.26-.62.8-.62.8,0,0,.56.12,1-.13.03-.02.07-.04.1-.06-.02.03-.04.07-.06.1-.26.45-.13,1-.13,1,0,0,.54-.17.8-.62.02-.03.04-.07.05-.1,0,.04,0,.08,0,.12,0,.52.39.94.39.94,0,0,.39-.42.39-.94,0-.04,0-.08,0-.11.02.04.04.07.06.11.26.45.8.62.8.62,0,0,.12-.56-.13-1-.02-.03-.04-.07-.06-.1.03.02.07.04.1.06.45.26,1,.13,1,.13,0,0-.17-.54-.62-.8ZM133.27,79.04l.2.41-.37-.21.24.61-.46-.52-.03.45-.21-.37-.1.65-.14-.68-.25.38v-.43l-.41.51.22-.66-.41.2.21-.37-.61.24.52-.46-.45-.03.37-.21-.65-.1.68-.14-.38-.25h.43l-.51-.41.66.22-.2-.41.37.21-.24-.61.46.52.03-.45.21.37.1-.65.14.68.25-.38v.43l.41-.51-.22.66.41-.2-.21.37.61-.24-.52.46.45.03-.37.21.65.1-.68.14.38.25h-.43l.51.41-.66-.22Z"/>
    <path d="M133.09,82.31c-.23-.27-.41-.45-.48-.72h-.07c-.08.27-.25.45-.48.72-.1.38.26.49.52.64.26-.15.62-.26.52-.64ZM132.57,82.57c-.22-.04-.3-.43,0-.59.32.17.2.54,0,.59Z"/>
    <path class="st11" d="M132.07,81.59h-.14c-.05.19-.18.26-.39.24.14-.24-.18-.3-.18,0,0,.44.82.62,1.04-.24h-.25c-.05.39-.49.59-.65.34.21.06.41,0,.57-.34Z"/>
    <path class="st11" d="M133.08,81.59h.14c.05.19.18.26.39.24-.14-.24.18-.3.18,0,0,.44-.82.62-1.04-.24h.25c.05.39.49.59.65.34-.21.06-.41,0-.57-.34Z"/>
    <path class="st0" d="M133.58,75.13c.7.23,1.3.69,1.72,1.29"/>
    <path class="st0" d="M129.84,76.34c.42-.56.99-.98,1.66-1.2"/>
    <path d="M132.91,75.4c.36-.45.23-.79-.33-1.03-.56.24-.69.58-.33,1.03-.99.16-.99-.59-.68-1.14-.04-.14.09-.19.11-.05-.07.51.09.82.22.75-.15-.43.01-.73.46-.93.1-.09.16-.39.22-.39.06,0,.13.3.22.39.45.2.62.5.46.93.13.07.29-.25.22-.75.02-.14.15-.09.11.05.31.55.31,1.3-.68,1.14Z"/>
    <path d="M132.58,75.39c.65-.21,0-.79,0-.79,0,0-.65.58,0,.79Z"/>
    <path d="M129.84,82.23v.78s-.16-.21-.35-.28-.34-.29-.34-.29l.69-.22ZM130.21,82.01l-1.05.3s-.06-2.68.33-3.37c0,0,.57,2.95.73,3.07ZM129.23,81.78l.7-.21-.04-.29-.66.19v.3Z"/>
    <path d="M136.01,82.44s-.15.22-.34.29-.35.28-.35.28v-.78l.69.22ZM135.68,78.93c.38.7.33,3.37.33,3.37l-1.05-.3c.15-.12.73-3.07.73-3.07ZM135.94,81.47l-.66-.19-.04.29.7.21v-.3Z"/>
    <path d="M129.64,77.28c-.06-.58-.17-1.03-.42-1.11-.26-.07-.47.16-.65.51-.38-1.12.86-1.76,1.2-.68.1.25.12.54.11.84l-.25.44M128.62,76.78l.87,1.04c.05-.12.08-.26.08-.43-.1-.25-.24-.44-.43-.56-.05-.18-.08-.35-.11-.49l-.4.44Z"/>
    <path d="M135.52,77.28l-.25-.44c-.01-.3.01-.58.11-.84.34-1.08,1.58-.44,1.2.68-.18-.35-.38-.58-.65-.51-.25.08-.35.53-.42,1.11M136.14,76.34c-.03.14-.06.31-.11.49-.19.12-.33.32-.43.56,0,.16.02.31.08.43l.87-1.04-.4-.44Z"/>
    <path d="M128.28,78.93l.23-.48c.06.61.49.74.79.19l.14.18c-.4.85-1.33.55-1.33-.29,0-1.42,1.51-.97,1.33,0-.44-1-1.22-.35-1.16.41ZM128.91,78.15c-.16,0-.29.15-.29.34s.13.34.29.34.29-.15.29-.34-.13-.34-.29-.34Z"/>
    <g>
      <path d="M136.66,78.45c-.02.22-.09.37-.18.46l.29-.22-.11-.24Z"/>
      <path d="M135.86,78.63l-.14.18c.09.19.2.32.33.4l.37-.27c-.16.1-.38,0-.55-.31Z"/>
      <path d="M135.73,78.52c.22-.51.53-.59.77-.45-.03-.13-.05-.31-.05-.45-.4-.02-.82.36-.72.9Z"/>
      <ellipse cx="136.25" cy="78.48" rx=".29" ry=".34"/>
    </g>
    <g>
      <path class="st0" d="M150.7,75.09c-.7.23-1.3.69-1.72,1.29"/>
      <path class="st0" d="M154.44,76.29c-.42-.56-.99-.98-1.66-1.2"/>
      <path d="M151.37,75.35c-.36-.45-.23-.79.33-1.03.56.24.69.58.33,1.03.99.16.99-.59.68-1.14.04-.14-.09-.19-.11-.05.07.51-.09.82-.22.75.15-.43-.01-.73-.46-.93-.1-.09-.16-.39-.22-.39-.06,0-.13.3-.22.39-.45.2-.62.5-.46.93-.13.07-.29-.25-.22-.75-.02-.14-.15-.09-.11.05-.31.55-.31,1.3.68,1.14Z"/>
      <path d="M151.7,75.35c-.65-.21,0-.79,0-.79,0,0,.65.58,0,.79Z"/>
      <path d="M155.13,82.39s-.15.22-.34.29-.35.28-.35.28v-.78l.69.22ZM154.8,78.89c.38.7.33,3.37.33,3.37l-1.05-.3c.15-.12.73-3.07.73-3.07ZM155.05,81.43l-.66-.19-.04.29.7.21v-.3Z"/>
      <path d="M148.95,82.18v.78s-.16-.21-.35-.28-.34-.29-.34-.29l.69-.22ZM149.32,81.96l-1.05.3s-.06-2.68.33-3.37c0,0,.57,2.95.73,3.07ZM148.34,81.73l.7-.21-.04-.29-.66.19v.3Z"/>
      <path d="M154.64,77.23l-.25-.44c-.01-.3.01-.58.11-.84.34-1.08,1.58-.44,1.2.68-.18-.35-.38-.58-.65-.51-.25.08-.35.53-.42,1.11M155.26,76.29c-.03.14-.06.31-.11.49-.19.12-.33.32-.43.56,0,.16.02.31.08.43l.87-1.04-.4-.44Z"/>
      <path d="M148.76,77.23c-.06-.58-.17-1.03-.42-1.11-.26-.07-.47.16-.65.51-.38-1.12.86-1.76,1.2-.68.1.25.12.54.11.84l-.25.44M147.74,76.73l.87,1.04c.05-.12.08-.26.08-.43-.1-.25-.24-.44-.43-.56-.05-.18-.08-.35-.11-.49l-.4.44Z"/>
      <path d="M154.84,78.48c-.18-.97,1.33-1.42,1.33,0,0,.84-.93,1.15-1.33.29l.14-.18c.3.55.74.43.79-.19l.23.48c.06-.75-.72-1.41-1.16-.41ZM155.08,78.44c0,.19.13.34.29.34s.29-.15.29-.34c0-.19-.13-.34-.29-.34s-.29.15-.29.34Z"/>
      <path d="M150.08,77.16l-.84-.47c-.76,1.29-.44,2.35.68,2.53,1.53.24,1.8-1.7.62-1.88-.5-.07-.8.29-.68.65.15.42.91.24.65-.2-.09-.14-.35-.07-.4.14-.13-.47.54-.5.58,0,.05.57-.89.71-.99,0-.04-.34.14-.6.38-.78Z"/>
      <path d="M149.28,76.59c1.61.95,3.19.93,4.73,0-1.33-1.6-3.5-1.54-4.73,0ZM151.37,75.52c.14.14.38.15.47,0h.21c-.07.29-.67.29-.91.03l.22-.03ZM151.05,75.56c.32.37.83.37,1.11,0,.24.02.45.08.62.2-.69.45-1.5.44-2.41.07.19-.13.41-.22.68-.27ZM150.12,75.95c.96.47,2.08.53,2.91-.06.15.03.27.14.36.25-.8.65-2.68.66-3.49,0,.01-.08.12-.13.23-.18ZM149.42,76.5c.1-.09.19-.17.27-.24,1.15.67,2.69.74,3.86,0,.11.07.2.15.27.24-1.49.85-2.95.88-4.4,0Z"/>
      <path d="M151.64,77.45c.17.17.26.36.29.55.87-.01,1.69-.2,2.45-.6-.06-.27-.19-.48-.34-.67-.38.45-1.43.63-2.4.72Z"/>
      <path d="M151.95,78.65c.03.67-.35.99-.55,1.22-.22.26-.31.61-.31.65-.25,1.25.77,1.75,1.2,1.11.08-.12.07-.57-.21-.65h-.09c.36.18.31.72-.17.65-.44-.03-.46-.66-.07-1.11.38-.3.89-.61,1.48-.93.78-.37,1.24-.87,1.22-1.56-.78.39-1.62.59-2.52.6Z"/>
      <circle cx="152.1" cy="78.34" r=".17"/>
      <circle cx="152.48" cy="78.34" r=".17"/>
      <circle cx="152.86" cy="78.27" r=".17"/>
      <circle cx="153.24" cy="78.19" r=".17"/>
      <circle cx="153.61" cy="78.07" r=".17"/>
      <circle cx="153.99" cy="77.95" r=".17"/>
      <circle cx="154.34" cy="77.77" r=".17"/>
      <path d="M151.23,77.45c.81.51.62,1.51,0,2.34-.43.57-.45,1.18-.25,1.82-.77-.64-1.39-1.49-1.11-2.38l-.09-.04c-.08.33-.13.74.05,1.1.42.87.93,1.36,1.49,1.68.05,0,.08-.03.02-.1-.53-.51-.56-1.28,0-2.07s.78-1.59.15-2.36l-.26.02Z"/>
      <path d="M151.8,82.06c.13.26.33.42.59.51-.08-.26-.22-.46-.48-.54v-.03s-.27-.01-.27-.01h0s0,0,0,0h0s0,0,0,0h-.27s0,.04,0,.04c-.27.08-.41.28-.48.54.25-.09.45-.24.59-.51h.14s0,.08,0,.08c-.49.34-.34.56.03.73h0s0,0,0,0c0,0,0,0,0,0h0c.37-.18.52-.4.03-.74v-.09h.14ZM151.63,82.61c-.19-.09-.19-.2,0-.35.2.14.22.26,0,.35Z"/>
      <path d="M148.12,79.23c.17-.07.32-.22.43-.46l-.14-.18c-.27.5-.66.44-.77-.04-.05.1-.12.19-.2.28,0,0,.37.09.68.41Z"/>
      <path d="M148.55,78.48c.1-.52-.29-.89-.67-.9,0,.12,0,.26-.04.42.23-.09.51.02.71.48Z"/>
      <ellipse cx="148.02" cy="78.44" rx=".29" ry=".34"/>
    </g>
    <ellipse cx="141.6" cy="79.28" rx=".1" ry=".06" transform="translate(-20.67 81.42) rotate(-30)"/>
  </g>
</svg>