<?xml version="1.0" encoding="UTF-8"?>
<svg id="Layer_1" xmlns="http://www.w3.org/2000/svg" version="1.1" viewBox="0 0 284.22 185.49">
  <!-- Generator: Adobe Illustrator 30.1.0, SVG Export Plug-In . SVG Version: 2.1.1 Build 136)  -->
  <defs>
    <style>
      .st0 {
        fill: #fff;
      }

      .st0, .st1 {
        fill-rule: evenodd;
      }

      .st1 {
        fill: #231f20;
      }

      .st2 {
        stroke-width: .5px;
      }

      .st2, .st3 {
        stroke: #fff;
      }

      .st2, .st3, .st4 {
        fill: none;
        stroke-miterlimit: 2.61;
      }

      .st3 {
        stroke-width: .99px;
      }

      .st4 {
        stroke: #231f20;
        stroke-width: 1.13px;
      }
    </style>
  </defs>
  <path class="st1" d="M127.14,97.66c-1.28-.31-3.69-.43-4.25,1.13-.29.79.05,1.69.69,2.2.64.5,1.53.75,2.03,1.44.78,1.75-1.93,2.28-2.24.34-.26,0-.45.01-.71.01v1.58c1.1.21,2.99.46,3.92-.33.43-.37.64-.88.64-1.51,0-.6-.09-.9-.52-1.31-.26-.26-.57-.48-.89-.67-.58-.35-1.36-.55-1.49-1.33-.25-1.45,1.95-1.5,2.13-.07h.7v-1.48"/>
  <path class="st1" d="M127.68,97.54h2.75v.33c-.41.07-.59.37-.49.76.3,1.2.6,2.41.9,3.61.11.46.08.43.21,0,.45-1.56.9-3.12,1.35-4.68h1.18c.36,1.59.77,3.16,1.1,4.78.09.44.06.41.2,0,.36-1.12.71-2.35,1.08-3.45.17-.52.1-.88-.47-.99v-.32h2.09v.3c-.36.1-.52.44-.63.77-.68,1.96-1.36,3.92-2.04,5.88h-1.23c-.38-1.56-.75-3.12-1.13-4.68-.46,1.56-.92,3.13-1.38,4.69h-1.29c-.55-2.03-1.09-4.07-1.64-6.1-.07-.27-.22-.55-.55-.52,0-.13,0-.25,0-.38"/>
  <path class="st1" d="M136.01,104.53v-.39c.5.02.7-.64.84-1.01.7-1.87,1.41-3.74,2.1-5.61h1.39c.56,1.91,1.12,3.81,1.67,5.72.12.39.24.82.7.93v.37h-2.77v-.38c.53-.06.55-.57.43-.97-.07-.26-.15-.52-.22-.78h-2.2c-.07.22-.14.43-.21.65-.15.46-.22,1.04.43,1.1,0,.15,0,.22,0,.38-.72,0-1.45,0-2.17,0"/>
  <polygon class="st0" points="139.12 98.92 139.55 100.32 139.97 101.72 139.12 101.72 138.27 101.72 138.7 100.32 139.12 98.92"/>
  <path class="st1" d="M155.65,104.53v-.39c.5.02.7-.64.84-1.01.7-1.87,1.41-3.74,2.1-5.61h1.39c.56,1.91,1.12,3.81,1.67,5.72.12.39.24.82.7.93v.37h-2.77v-.38c.54-.06.55-.57.43-.97-.07-.26-.15-.52-.22-.78h-2.2c-.07.22-.14.43-.21.65-.15.46-.22,1.04.43,1.1,0,.15,0,.22,0,.38-.72,0-1.44,0-2.17,0"/>
  <polygon class="st0" points="158.77 98.92 159.19 100.32 159.62 101.72 158.77 101.72 157.92 101.72 158.34 100.32 158.77 98.92"/>
  <path class="st1" d="M131.17,112.69v-.39c.5.02.7-.64.84-1.01.7-1.87,1.41-3.74,2.1-5.61h1.39c.56,1.91,1.12,3.81,1.67,5.72.12.39.24.82.7.93v.37h-2.77v-.38c.54-.06.55-.57.43-.97-.07-.26-.15-.52-.22-.78h-2.2c-.07.22-.14.43-.21.65-.15.46-.22,1.04.43,1.1,0,.15,0,.22,0,.38-.72,0-1.45,0-2.17,0"/>
  <polygon class="st0" points="134.29 107.08 134.71 108.48 135.14 109.88 134.29 109.88 133.44 109.88 133.86 108.48 134.29 107.08"/>
  <path class="st1" d="M142.97,97.59h3.57c2.17.04,2.8,2.6.85,3.58-.46.23-.17.24.08.42.98.7.98,2.61,1.93,2.51v.42h-1.59c-.35,0-.38,0-.57-.32-.49-.77-.81-1.98-1.22-2.44-.18-.21-.44-.2-.7-.19-.09,0-.17.01-.26.01v1.8c0,.39.13.75.59.77v.37h-2.67v-.39c.3-.07.52-.22.51-.6v-4.91c0-.38-.11-.66-.53-.73,0-.1,0-.21,0-.31"/>
  <path class="st0" d="M145.12,98.2v2.78c.75.01,1.53.1,1.79-.81.11-.39.13-.85,0-1.24-.23-.63-.84-.85-1.78-.72"/>
  <path class="st1" d="M149.68,104.16c.37-.12.47-.33.47-.71v-5.04c.01-.3-.17-.45-.49-.5v-.33h2.04c.89,1.55,1.77,3.11,2.66,4.66.17.29.12.21.12-.08v-3.57c0-.36-.21-.64-.57-.7v-.31h1.92v.31c-.39.05-.53.34-.53.68v5.97h-1.33c-.96-1.69-1.92-3.39-2.88-5.08-.11-.19-.08-.14-.08.05v3.93c0,.34.2.63.56.68v.41h-1.9c0-.13,0-.25,0-.38"/>
  <path class="st1" d="M138.09,112.32c.37-.12.47-.33.47-.71v-5.04c.01-.3-.17-.45-.49-.5v-.33h2.04c.89,1.55,1.77,3.11,2.66,4.66.17.29.12.21.12-.08v-3.57c0-.36-.21-.64-.57-.7v-.31h1.93v.31c-.39.05-.53.34-.53.68v5.97h-1.33c-.96-1.69-1.92-3.39-2.88-5.08-.11-.19-.08-.14-.08.05v3.93c0,.34.2.63.56.68v.41h-1.9c0-.13,0-.25,0-.38"/>
  <path class="st1" d="M124.57,105.72h2.71v.35c-.39.12-.53.34-.53.72v1.99c.3,0,.39.04.61-.16.48-.42.97-.99,1.47-1.68.26-.37.15-.81-.33-.92v-.33h2.59v.26c0,.18.02.13-.13.18-.62.19-1.53,1.52-2.31,2.34-.19.2-.17.15-.01.37.88,1.19,1.73,2.98,2.52,3.47v.39h-2.63v-.39c.55-.05.2-.61.02-.88-.37-.55-.71-1.05-1.07-1.57-.19-.28-.39-.59-.78-.45v2.15c0,.39.14.69.58.75v.39h-2.72v-.39c.51-.04.56-.45.56-.86v-4.83c0-.33-.24-.53-.56-.55,0-.12,0-.23,0-.35"/>
  <path class="st1" d="M149.76,105.9c-1.47-.45-3.79-.42-4.57,1.21-.51,1.08-.58,2.74-.23,3.86.62,2.03,3.1,1.91,4.78,1.5v-1.58h-.7c-.05.91-.7,1.33-1.32,1.23-.78-.12-1.04-.86-1.22-1.52-.29-1.1-.24-2.17.11-3.23.15-.45.36-.85.81-1.07.73-.36,1.57.13,1.59,1.01h.73c0-.47.01-.94.02-1.42"/>
  <path class="st1" d="M150.53,105.71h2.68v.34c-.38.09-.51.38-.51.74v1.89h2.28v-1.94c0-.35-.16-.58-.51-.69v-.35h2.59v.32c-.39.15-.51.42-.51.81v4.63c0,.38.1.78.55.87v.34h-2.65v-.35c.51-.07.53-.5.53-.91v-2.04h-2.31v2.12c0,.4.08.75.56.81v.41h-2.66v-.39c.44-.06.54-.45.54-.83v-4.8c0-.37-.2-.58-.58-.61,0-.11,0-.23,0-.34"/>
  <path class="st1" d="M157.84,105.71h2.67v.34c-.48.07-.52.48-.52.87v4.59c0,.37.04.72.5.77v.38h-2.63v-.32c.45-.21.52-.51.52-.96v-4.54c0-.41-.08-.72-.54-.82,0-.1,0-.2,0-.3"/>
  <path class="st1" d="M126.15,95.38v-3.24h.85v3.24h-.85ZM126.15,91.71v-.79h.85v.79h-.85ZM124.54,95.38h-.85v-3.24h.79v.46c.14-.22.26-.36.37-.43.11-.07.23-.1.37-.1.2,0,.38.05.56.16l-.27.75c-.14-.09-.28-.14-.4-.14s-.22.03-.31.1c-.08.07-.15.19-.2.36-.05.17-.07.53-.07,1.08v1ZM119.33,93.94l.88-.09c.05.29.16.51.32.65.16.14.38.21.65.21.29,0,.51-.06.65-.18.15-.12.22-.27.22-.43,0-.11-.03-.2-.09-.27-.06-.07-.17-.14-.32-.19-.11-.04-.34-.1-.72-.2-.48-.12-.82-.27-1.01-.44-.27-.25-.41-.55-.41-.9,0-.23.06-.44.19-.64.13-.2.31-.35.56-.45.24-.1.53-.16.88-.16.56,0,.98.12,1.26.37.28.25.43.58.45.99l-.9.03c-.04-.23-.12-.4-.25-.5-.13-.1-.32-.15-.57-.15s-.46.05-.61.16c-.09.07-.14.16-.14.28,0,.11.04.2.13.27.11.1.39.2.83.3.44.1.76.21.97.32.21.11.37.26.49.45.12.19.18.43.18.71,0,.26-.07.5-.21.72-.14.22-.34.39-.6.5-.26.11-.58.16-.97.16-.56,0-1-.13-1.3-.39-.3-.26-.48-.64-.54-1.14Z"/>
  <circle class="st4" cx="142.11" cy="92.74" r="28.91"/>
  <path class="st1" d="M139.33,88.47c-.12.06-.11.17-.01.21.12.05.19,0,.25-.09.16-.21.11-.46-.04-.66-.1-.13-.23-.23-.37-.3-.84-.45-1.38.33-.74.64.18.09.28.06.47.04.19-.02.38-.02.48.04.13.08.03.09-.04.12"/>
  <g>
    <g>
      <path class="st1" d="M146.76,68.52c.67-.27,1.35-.26,2.03-.14.3.05.46.14.72.28.8.43,1.83.8,2.75,1.2.2.08.4.17.58.27,1.45.84,1.41,2.72.83,3.57-.1.15-.15.15-.3.23-.16.08-.26.25-.3.51-.04.22-.04.28-.17.46-.32.46-.67.84-1.03,1.13-.24.2-.4.23-.69.34-.57.21-1.08.64-1.57,1.17-.1.11-.18.18-.31.26-.52.31-1.32.6-1.61.85-.14.12-.06.16-.27.17-.3.02-.59,0-.86-.08-.16-.04-.11-.04-.03-.16.64-.96.6-2.32.25-3.87-.05-.2-.1-.4-.14-.61-.18-.87-.26-1.75-.05-2.62.04-.15.08-.31.12-.46.2-.8.32-1.59-.05-2.31-.07-.14-.09-.12.07-.18Z"/>
      <path class="st3" d="M146.76,68.52c.67-.27,1.35-.26,2.03-.14.3.05.46.14.72.28.8.43,1.83.8,2.75,1.2.2.08.4.17.58.27,1.45.84,1.41,2.72.83,3.57-.1.15-.15.15-.3.23-.16.08-.26.25-.3.51-.04.22-.04.28-.17.46-.32.46-.67.84-1.03,1.13-.24.2-.4.23-.69.34-.57.21-1.08.64-1.57,1.17-.1.11-.18.18-.31.26-.52.31-1.32.6-1.61.85-.14.12-.06.16-.27.17-.3.02-.59,0-.86-.08-.16-.04-.11-.04-.03-.16.64-.96.6-2.32.25-3.87-.05-.2-.1-.4-.14-.61-.18-.87-.26-1.75-.05-2.62.04-.15.08-.31.12-.46.2-.8.32-1.59-.05-2.31-.07-.14-.09-.12.07-.18Z"/>
    </g>
    <g>
      <path class="st1" d="M137.63,68.52c-.67-.27-1.35-.26-2.03-.14-.3.05-.46.14-.72.28-.8.43-1.83.8-2.75,1.2-.2.08-.4.17-.58.27-1.45.84-1.41,2.72-.83,3.57.1.15.15.15.3.23.16.08.26.25.3.51.04.22.04.28.17.46.32.46.67.84,1.03,1.13.24.2.4.23.69.34.57.21,1.08.64,1.57,1.17.1.11.18.18.31.26.52.31,1.32.6,1.61.85.14.12.06.16.27.17.3.02.59,0,.86-.08.16-.04.11-.04.03-.16-.64-.96-.6-2.32-.25-3.87.05-.2.1-.4.14-.61.18-.87.26-1.75.05-2.62-.04-.15-.08-.31-.12-.46-.2-.8-.32-1.59.05-2.31.07-.14.09-.12-.07-.18Z"/>
      <path class="st3" d="M137.63,68.52c-.67-.27-1.35-.26-2.03-.14-.3.05-.46.14-.72.28-.8.43-1.83.8-2.75,1.2-.2.08-.4.17-.58.27-1.45.84-1.41,2.72-.83,3.57.1.15.15.15.3.23.16.08.26.25.3.51.04.22.04.28.17.46.32.46.67.84,1.03,1.13.24.2.4.23.69.34.57.21,1.08.64,1.57,1.17.1.11.18.18.31.26.52.31,1.32.6,1.61.85.14.12.06.16.27.17.3.02.59,0,.86-.08.16-.04.11-.04.03-.16-.64-.96-.6-2.32-.25-3.87.05-.2.1-.4.14-.61.18-.87.26-1.75.05-2.62-.04-.15-.08-.31-.12-.46-.2-.8-.32-1.59.05-2.31.07-.14.09-.12-.07-.18Z"/>
    </g>
    <path class="st1" d="M139.27,89.69c.05-.93.56-1.66,1.35-1.73.18-.02.15,0,.12-.18-.2-.99-.39-1.99-.59-2.98-.06-.33-.02-.35-.24-.1-.75.84-1.51,1.38-2.29,1.72-.95.41-.94-.4-.35-.84.68-.52,1.19-1.18,1.47-1.79.04-.08.03-.09,0-.17-.04-.15-.06-.28.09-.41.06-.05.14-.09.2-.15.12-.13.13-.32.06-.49-.06-.13-.18-.24-.25-.36-.56-.85-.51-1.73-.25-2.69.03-.1.06-.2.09-.31.11-.43-.02-.7-.2-.94-.08-.11-.16-.21-.23-.33-.59-1.11-.33-2.63-.19-3.92.03-.25.08-.47.13-.72.13-.66.09-1.29-.02-1.92-.05-.29-.12-.58-.17-.87-.39-2.2.49-3.4,2.77-3.86.21-.04.26-.03.46.03.42.12.84.12,1.24,0,.22-.07.36-.11.6-.11,2.15-.02,3.74,1.61,3.3,4.05-.04.22-.11.44-.16.66-.19.83-.22,1.68-.05,2.54.07.34.16.67.23,1,.21,1.04.31,2.17-.02,3.12-.07.19-.16.34-.25.52-.17.36-.2.76-.08,1.22.05.2.12.38.14.58.07.47.02.92-.11,1.36-.07.26-.27.46.05.63.18.09.28.25.25.51-.02.18-.04.2.04.37.52,1.06,1.2,1.82,1.97,2.4.71.53-.23.9-.7.64-.98-.54-1.83-1.27-2.55-2.2-.13-.16-.1-.16-.15.04-.43,1.88-.46,4.04-.54,6.17-.02.6-.02,1.21-.08,1.8-.23,2.45-1.26,3.72-3.01,3.69-.39,0-.8-.06-1.15-.22-1.16-.54-1.46-2.1-.87-3.44.09-.2.2-.37.31-.56.09-.15.18-.29.27-.44.13-.21.17-.2-.08-.17-1.07.1-1.31-.42-.69-.97.08-.07.1-.07.1-.18Z"/>
    <path class="st2" d="M139.27,89.69c.05-.93.56-1.66,1.35-1.73.18-.02.15,0,.12-.18-.2-.99-.39-1.99-.59-2.98-.06-.33-.02-.35-.24-.1-.75.84-1.51,1.38-2.29,1.72-.95.41-.94-.4-.35-.84.68-.52,1.19-1.18,1.47-1.79.04-.08.03-.09,0-.17-.04-.15-.06-.28.09-.41.06-.05.14-.09.2-.15.12-.13.13-.32.06-.49-.06-.13-.18-.24-.25-.36-.56-.85-.51-1.73-.25-2.69.03-.1.06-.2.09-.31.11-.43-.02-.7-.2-.94-.08-.11-.16-.21-.23-.33-.59-1.11-.33-2.63-.19-3.92.03-.25.08-.47.13-.72.13-.66.09-1.29-.02-1.92-.05-.29-.12-.58-.17-.87-.39-2.2.49-3.4,2.77-3.86.21-.04.26-.03.46.03.42.12.84.12,1.24,0,.22-.07.36-.11.6-.11,2.15-.02,3.74,1.61,3.3,4.05-.04.22-.11.44-.16.66-.19.83-.22,1.68-.05,2.54.07.34.16.67.23,1,.21,1.04.31,2.17-.02,3.12-.07.19-.16.34-.25.52-.17.36-.2.76-.08,1.22.05.2.12.38.14.58.07.47.02.92-.11,1.36-.07.26-.27.46.05.63.18.09.28.25.25.51-.02.18-.04.2.04.37.52,1.06,1.2,1.82,1.97,2.4.71.53-.23.9-.7.64-.98-.54-1.83-1.27-2.55-2.2-.13-.16-.1-.16-.15.04-.43,1.88-.46,4.04-.54,6.17-.02.6-.02,1.21-.08,1.8-.23,2.45-1.26,3.72-3.01,3.69-.39,0-.8-.06-1.15-.22-1.16-.54-1.46-2.1-.87-3.44.09-.2.2-.37.31-.56.09-.15.18-.29.27-.44.13-.21.17-.2-.08-.17-1.07.1-1.31-.42-.69-.97.08-.07.1-.07.1-.18Z"/>
  </g>
  <path class="st0" d="M141.61,91.37c.09.42.09.9.03,1.4-.12.95-.66.73-.62-.07.03-.56.16-1.03.38-1.39.15-.25.15-.2.21.06Z"/>
  <path class="st2" d="M141.61,91.37c.09.42.09.9.03,1.4-.12.95-.66.73-.62-.07.03-.56.16-1.03.38-1.39.15-.25.15-.2.21.06Z"/>
  <path class="st0" d="M140.32,90c-.09-.25-.12-.5-.02-.76.24-.62.89-.32.67.26-.12.31-.26.49-.41.61-.18.15-.17.1-.24-.1Z"/>
  <path class="st2" d="M140.32,90c-.09-.25-.12-.5-.02-.76.24-.62.89-.32.67.26-.12.31-.26.49-.41.61-.18.15-.17.1-.24-.1Z"/>
</svg>