<?xml version="1.0" encoding="utf-8"?>
<!-- Generator: Adobe Illustrator 30.1.0, SVG Export Plug-In . SVG Version: 9.03 Build 0)  -->
<svg version="1.0" id="Layer_1" xmlns="http://www.w3.org/2000/svg" xmlns:xlink="http://www.w3.org/1999/xlink" x="0px" y="0px"
	 viewBox="0 0 284 185" style="enable-background:new 0 0 284 185;" xml:space="preserve">
<style type="text/css">
	.st0{fill:#231F20;}
	.st1{fill:none;stroke:#231F20;stroke-width:0.2866;stroke-miterlimit:10;}
	.st2{fill:none;stroke:#231F20;stroke-width:0.8145;stroke-miterlimit:10;}
	.st3{fill:#FFFFFF;}
	.st4{fill:none;stroke:#000000;stroke-width:0.2866;stroke-miterlimit:10;}
	.st5{fill:none;stroke:#000000;stroke-width:0.2564;stroke-miterlimit:10;}
	.st6{fill:none;stroke:#000000;stroke-width:0.2262;stroke-miterlimit:10;}
	.st7{fill:none;stroke:#000000;stroke-width:0.1056;stroke-miterlimit:10;}
	.st8{fill:none;stroke:#000000;stroke-width:0.181;stroke-miterlimit:10;}
	.st9{fill:none;stroke:#000000;stroke-width:0.1508;stroke-miterlimit:10;}
	.st10{fill:none;stroke:#000000;stroke-width:0.1508;stroke-linejoin:bevel;}
	.st11{fill:none;stroke:#000000;stroke-width:0.0754;stroke-miterlimit:10;}
	.st12{fill:none;stroke:#231F20;stroke-width:0.1508;stroke-miterlimit:10;}
</style>
<g>
	<g>
		<g>
			<path class="st0" d="M108.4,124.85c0,0-0.15-0.05-0.24-0.15c-0.35-0.35-0.57-0.56-0.71-0.65c-0.12-0.09-0.26-0.17-0.38-0.23
				c-0.23-0.11-0.5-0.17-0.8-0.17c-0.36,0-0.69,0.09-1.01,0.29c-0.32,0.2-0.47,0.45-0.47,0.78c0,0.41,0.18,0.72,0.54,0.94
				s0.84,0.42,1.43,0.6c1.22,0.42,2.07,0.9,2.52,1.49c0.45,0.57,0.68,1.22,0.68,1.93c0,0.54-0.14,1.06-0.39,1.57
				c-0.27,0.51-0.68,0.94-1.24,1.27c-0.56,0.33-1.25,0.5-2.1,0.5c-0.63,0-1.24-0.12-1.79-0.35c-0.56-0.23-1.01-0.57-1.36-1.03
				c-0.35-0.45-0.53-1.01-0.53-1.67c0-0.32,0.05-0.62,0.17-0.87c0.11-0.26,0.23-0.47,0.36-0.6c0.14-0.15,0.23-0.23,0.29-0.23
				c0.03,0,0.08,0.15,0.15,0.47c0.08,0.32,0.18,0.63,0.33,0.94c0.15,0.3,0.41,0.59,0.78,0.83c0.36,0.24,0.86,0.36,1.49,0.36
				c0.5,0,0.92-0.11,1.27-0.32c0.35-0.21,0.51-0.51,0.51-0.9c0-0.42-0.18-0.74-0.54-0.98c-0.36-0.23-0.8-0.42-1.33-0.57
				c-0.87-0.29-1.52-0.6-1.98-0.95c-0.45-0.35-0.75-0.71-0.89-1.09c-0.14-0.38-0.21-0.77-0.21-1.22c0-0.42,0.11-0.86,0.32-1.3
				c0.2-0.45,0.54-0.83,1.04-1.15c0.5-0.32,1.15-0.47,1.95-0.47c0.56,0,1.09,0.08,1.57,0.24c0.48,0.17,0.87,0.36,1.18,0.59
				c0.3,0.23,0.44,0.41,0.44,0.54c0,0.12-0.06,0.3-0.2,0.56c-0.12,0.26-0.27,0.48-0.44,0.68c-0.17,0.2-0.3,0.3-0.41,0.3
				L108.4,124.85z"/>
			<path class="st0" d="M112.4,122.14h3.41c0.74,0,1.33,0.12,1.76,0.36c0.44,0.23,0.74,0.53,0.92,0.89
				c0.18,0.36,0.26,0.75,0.26,1.16c0,0.47-0.09,0.89-0.26,1.24c-0.17,0.35-0.36,0.62-0.54,0.8c-0.2,0.18-0.42,0.38-0.69,0.59
				c-0.27,0.21-0.39,0.35-0.39,0.42c0,0.06,0.14,0.26,0.42,0.6c0.29,0.33,0.56,0.71,0.83,1.1c0.27,0.39,0.51,0.89,0.72,1.48
				c0.09,0.23,0.17,0.53,0.23,0.87s0.09,0.65,0.09,0.87c0,0.18-0.02,0.29-0.06,0.3c-0.05,0.02-0.12,0.03-0.27,0.03h-1.45
				c-0.42,0-0.62-0.06-0.62-0.17c0-0.48-0.09-1.04-0.29-1.69c-0.18-0.65-0.42-1.21-0.69-1.67c-0.27-0.47-0.53-0.71-0.77-0.71
				c-0.14,0-0.32,0.06-0.53,0.17c-0.21,0.11-0.39,0.27-0.56,0.45c-0.17,0.18-0.24,0.39-0.24,0.6c0,0.3,0.03,0.65,0.11,1.04
				c0.08,0.39,0.15,0.8,0.24,1.19c0.09,0.39,0.14,0.59,0.14,0.6c0,0.06-0.03,0.11-0.11,0.14c-0.06,0.02-0.18,0.03-0.35,0.03h-1.49
				c-0.11,0-0.2-0.05-0.27-0.12c-0.08-0.08-0.14-0.27-0.21-0.56c-0.06-0.3-0.11-0.75-0.14-1.37c-0.05-0.62-0.06-1.46-0.06-2.5
				c0-4.1,0.29-6.15,0.84-6.15L112.4,122.14z M113.98,127.13c0.12,0,0.32-0.08,0.62-0.21c0.74-0.35,1.33-0.78,1.73-1.33
				c0.21-0.29,0.32-0.56,0.32-0.84c0-0.36-0.14-0.63-0.42-0.83c-0.27-0.18-0.6-0.29-1-0.29s-0.71,0.06-0.95,0.2
				c-0.23,0.12-0.41,0.36-0.51,0.71c-0.12,0.35-0.18,0.83-0.18,1.48c0,0.41,0.03,0.69,0.08,0.86c0.05,0.15,0.14,0.24,0.3,0.24
				L113.98,127.13z"/>
			<path class="st0" d="M122.93,132.86h-1.57c-0.11,0-0.2-0.05-0.27-0.12c-0.08-0.08-0.14-0.27-0.2-0.57
				c-0.06-0.3-0.11-0.75-0.14-1.37c-0.03-0.62-0.05-1.45-0.05-2.5c0-1.81,0.05-3.17,0.14-4.09c0.09-0.9,0.2-1.48,0.32-1.72
				c0.12-0.24,0.26-0.36,0.41-0.36h1.37c0.32,0,0.48,0.08,0.48,0.21l-0.18,0.81c-0.12,0.54-0.23,1.16-0.32,1.84
				c-0.09,0.68-0.14,1.39-0.14,2.14c0,0.95,0.05,1.84,0.14,2.65c0.09,0.81,0.2,1.52,0.32,2.1c0.11,0.56,0.17,0.84,0.17,0.84
				c0,0.06-0.03,0.09-0.08,0.11c-0.05,0.02-0.18,0.03-0.39,0.03H122.93z"/>
			<path class="st0" d="M133.38,132.86h-3.88c-0.11,0-0.2-0.05-0.29-0.12c-0.08-0.08-0.15-0.26-0.21-0.56
				c-0.06-0.3-0.12-0.77-0.15-1.39c-0.05-0.63-0.06-1.46-0.06-2.49c0-2.91,0.15-4.78,0.45-5.64c0.12-0.35,0.27-0.51,0.44-0.51h3.3
				c0.92,0,1.58,0.17,2.02,0.51c0.39,0.32,0.59,0.77,0.59,1.37c0,0.32-0.06,0.62-0.2,0.89c-0.09,0.2-0.2,0.38-0.32,0.53
				c-0.12,0.15-0.36,0.44-0.74,0.87c-0.14,0.15-0.2,0.27-0.2,0.36s0.14,0.27,0.42,0.56c0.29,0.29,0.53,0.56,0.74,0.8
				s0.41,0.57,0.59,0.98c0.18,0.41,0.29,0.87,0.29,1.39c0,0.44-0.09,0.86-0.29,1.22c-0.2,0.36-0.5,0.66-0.9,0.9
				c-0.42,0.23-0.97,0.35-1.61,0.35L133.38,132.86z M131.71,126.54c0.68-0.51,1.07-0.81,1.18-0.9c0.11-0.09,0.23-0.23,0.36-0.41
				c0.2-0.27,0.3-0.53,0.3-0.78c0-0.29-0.11-0.48-0.3-0.6c-0.2-0.12-0.44-0.18-0.72-0.18c-0.44,0-0.78,0.08-1.06,0.23
				c-0.26,0.15-0.45,0.42-0.59,0.8c-0.12,0.38-0.2,0.9-0.2,1.55c0,0.38,0.12,0.57,0.38,0.57c0.15,0,0.36-0.09,0.65-0.26V126.54z
				 M132.14,127.84l-0.86,0.48c-0.2,0.11-0.35,0.2-0.42,0.27c-0.08,0.08-0.12,0.21-0.12,0.41c0,0.63,0.06,1.1,0.17,1.42
				c0.11,0.32,0.27,0.51,0.48,0.62c0.21,0.09,0.51,0.15,0.9,0.15c0.51,0,0.94-0.11,1.28-0.32c0.35-0.21,0.51-0.56,0.51-1.03
				c0-0.21-0.06-0.45-0.17-0.71c-0.23-0.5-0.53-0.92-0.92-1.27c-0.15-0.14-0.27-0.21-0.36-0.21c-0.14,0-0.32,0.06-0.53,0.2
				L132.14,127.84z"/>
			<path class="st0" d="M144.51,132.86h-1.4c-0.33,0-0.51-0.06-0.51-0.17c0-0.08,0.08-0.27,0.24-0.62c0.24-0.53,0.39-0.86,0.44-0.98
				s0.11-0.3,0.17-0.53c0.09-0.33,0.14-0.66,0.14-0.98c0-0.27-0.11-0.48-0.32-0.6c-0.21-0.14-0.48-0.2-0.81-0.2
				c-0.8,0-1.51,0.12-2.11,0.35c-0.6,0.23-0.9,0.68-0.9,1.33c0,0.47,0.2,1.07,0.6,1.81c0.17,0.3,0.24,0.47,0.24,0.51
				c0,0.06-0.09,0.08-0.26,0.08h-1.81c-0.32,0-0.54-0.24-0.66-0.74s-0.2-1.19-0.2-2.11c0-1.28,0.18-2.43,0.56-3.44
				c0.36-1.03,0.81-1.87,1.33-2.55c0.51-0.68,1.03-1.19,1.49-1.54c0.48-0.35,0.8-0.53,0.98-0.53c0.15,0,0.44,0.15,0.83,0.44
				c0.39,0.29,0.83,0.74,1.27,1.36c0.44,0.6,0.81,1.42,1.13,2.43c0.32,1.01,0.47,2.2,0.47,3.57c0,0.9-0.05,1.58-0.12,2.04
				c-0.08,0.45-0.18,0.74-0.3,0.87c-0.12,0.14-0.3,0.2-0.5,0.2H144.51z M141.77,124.16c-0.21,0-0.48,0.18-0.81,0.54
				c-0.33,0.36-0.62,0.78-0.86,1.27c-0.24,0.48-0.38,0.87-0.38,1.18c0,0.17,0.08,0.24,0.24,0.24c0.06,0,0.26-0.03,0.59-0.09
				c0.81-0.15,1.48-0.23,1.99-0.23c0.26,0,0.42-0.03,0.53-0.08c0.09-0.06,0.14-0.18,0.14-0.36c0-0.26-0.09-0.59-0.26-1
				c-0.17-0.39-0.36-0.74-0.6-1.04C142.11,124.29,141.92,124.16,141.77,124.16L141.77,124.16z"/>
			<path class="st0" d="M153.82,132.86h-1.4c-0.33,0-0.51-0.06-0.51-0.17c0-0.08,0.08-0.27,0.24-0.62c0.24-0.53,0.39-0.86,0.44-0.98
				c0.05-0.12,0.11-0.3,0.17-0.53c0.09-0.33,0.14-0.66,0.14-0.98c0-0.27-0.11-0.48-0.32-0.6c-0.21-0.14-0.48-0.2-0.81-0.2
				c-0.8,0-1.51,0.12-2.11,0.35c-0.6,0.23-0.9,0.68-0.9,1.33c0,0.47,0.2,1.07,0.6,1.81c0.17,0.3,0.24,0.47,0.24,0.51
				c0,0.06-0.09,0.08-0.26,0.08h-1.81c-0.32,0-0.54-0.24-0.66-0.74s-0.2-1.19-0.2-2.11c0-1.28,0.18-2.43,0.56-3.44
				c0.36-1.03,0.81-1.87,1.33-2.55c0.51-0.68,1.03-1.19,1.49-1.54c0.48-0.35,0.8-0.53,0.98-0.53c0.15,0,0.44,0.15,0.83,0.44
				c0.39,0.29,0.83,0.74,1.27,1.36c0.44,0.6,0.81,1.42,1.13,2.43c0.32,1.01,0.47,2.2,0.47,3.57c0,0.9-0.05,1.58-0.12,2.04
				c-0.08,0.45-0.18,0.74-0.3,0.87s-0.3,0.2-0.5,0.2H153.82z M151.09,124.16c-0.21,0-0.48,0.18-0.81,0.54
				c-0.33,0.36-0.62,0.78-0.86,1.27c-0.24,0.48-0.38,0.87-0.38,1.18c0,0.17,0.08,0.24,0.24,0.24c0.06,0,0.26-0.03,0.59-0.09
				c0.81-0.15,1.48-0.23,1.99-0.23c0.26,0,0.42-0.03,0.53-0.08c0.09-0.06,0.14-0.18,0.14-0.36c0-0.26-0.09-0.59-0.26-1
				c-0.17-0.39-0.36-0.74-0.6-1.04C151.43,124.29,151.24,124.16,151.09,124.16L151.09,124.16z"/>
			<path class="st0" d="M161.89,132.86h-5.17c-0.18,0-0.3-0.03-0.38-0.11s-0.11-0.2-0.14-0.38c0-0.15-0.02-0.41-0.02-0.78v-0.3
				c0-0.15,0-0.35,0-0.59c0-0.23,0-0.45,0-0.65c0-0.23,0-0.44,0-0.63c0-0.18,0.03-0.45,0.05-0.8c0.03-0.35,0.05-0.59,0.06-0.72
				c0.08-0.8,0.15-1.52,0.23-2.16c0.08-0.63,0.15-1.15,0.21-1.51c0.06-0.36,0.14-0.75,0.21-1.19c0.12-0.6,0.23-0.9,0.32-0.9h2.01
				c0.2,0,0.29,0.08,0.29,0.24c0,0.05-0.09,0.32-0.29,0.78c-0.08,0.2-0.15,0.42-0.24,0.65c-0.09,0.23-0.18,0.5-0.27,0.8
				c-0.09,0.3-0.18,0.62-0.26,0.92c-0.08,0.3-0.15,0.68-0.24,1.13c-0.14,0.75-0.21,1.54-0.21,2.34c0,0.87,0.17,1.48,0.53,1.83
				c0.24,0.24,0.56,0.36,0.95,0.36c0.35,0,0.63-0.08,0.89-0.21s0.51-0.32,0.78-0.54c0.27-0.23,0.45-0.33,0.54-0.33
				c0.06,0,0.14,0.18,0.24,0.56s0.21,0.78,0.3,1.25c0.09,0.47,0.15,0.71,0.15,0.75C162.43,132.79,162.25,132.86,161.89,132.86
				L161.89,132.86z"/>
			<path class="st0" d="M170.45,132.86h-1.4c-0.33,0-0.51-0.06-0.51-0.17c0-0.08,0.08-0.27,0.24-0.62c0.24-0.53,0.39-0.86,0.44-0.98
				s0.11-0.3,0.17-0.53c0.09-0.33,0.14-0.66,0.14-0.98c0-0.27-0.11-0.48-0.32-0.6c-0.21-0.14-0.48-0.2-0.81-0.2
				c-0.8,0-1.51,0.12-2.11,0.35c-0.6,0.23-0.9,0.68-0.9,1.33c0,0.47,0.2,1.07,0.6,1.81c0.17,0.3,0.24,0.47,0.24,0.51
				c0,0.06-0.09,0.08-0.26,0.08h-1.81c-0.32,0-0.54-0.24-0.66-0.74s-0.2-1.19-0.2-2.11c0-1.28,0.18-2.43,0.56-3.44
				c0.36-1.03,0.81-1.87,1.33-2.55c0.51-0.68,1.03-1.19,1.49-1.54c0.48-0.35,0.8-0.53,0.98-0.53c0.15,0,0.44,0.15,0.83,0.44
				c0.39,0.29,0.83,0.74,1.27,1.36c0.44,0.6,0.81,1.42,1.13,2.43c0.32,1.01,0.47,2.2,0.47,3.57c0,0.9-0.05,1.58-0.12,2.04
				c-0.08,0.45-0.18,0.74-0.3,0.87s-0.3,0.2-0.5,0.2H170.45z M167.72,124.16c-0.21,0-0.48,0.18-0.81,0.54
				c-0.33,0.36-0.62,0.78-0.86,1.27c-0.24,0.48-0.38,0.87-0.38,1.18c0,0.17,0.08,0.24,0.24,0.24c0.06,0,0.26-0.03,0.59-0.09
				c0.81-0.15,1.48-0.23,1.99-0.23c0.26,0,0.42-0.03,0.53-0.08c0.09-0.06,0.14-0.18,0.14-0.36c0-0.26-0.09-0.59-0.26-1
				c-0.17-0.39-0.36-0.74-0.6-1.04C168.07,124.29,167.87,124.16,167.72,124.16L167.72,124.16z"/>
			<path class="st0" d="M174.39,122.14h1.69c0.11,0,0.2,0.05,0.24,0.14c0.06,0.09,0.11,0.29,0.15,0.59
				c0.17,0.83,0.26,2.79,0.26,5.88c0,1.75-0.27,2.91-0.8,3.47s-1.13,0.84-1.78,0.84c-0.3,0-0.6-0.06-0.89-0.18
				c-0.29-0.12-0.53-0.27-0.71-0.42c-0.18-0.17-0.27-0.3-0.27-0.42c0-0.2,0.05-0.47,0.14-0.78c0.09-0.33,0.2-0.62,0.33-0.86
				c0.12-0.26,0.24-0.38,0.33-0.38c0.05,0,0.14,0.11,0.24,0.32c0.17,0.29,0.27,0.47,0.33,0.53c0.06,0.06,0.14,0.09,0.21,0.09
				c0.2,0,0.35-0.06,0.47-0.18c0.11-0.12,0.2-0.39,0.24-0.81c0.06-0.42,0.08-1.06,0.08-1.9c0-0.8-0.03-1.55-0.09-2.25
				c-0.09-1.06-0.24-2.02-0.44-2.93c-0.08-0.35-0.12-0.51-0.12-0.51c0-0.08,0.03-0.12,0.08-0.15c0.06-0.03,0.15-0.03,0.3-0.03
				L174.39,122.14z"/>
			<path class="st0" d="M180.94,132.86h-1.57c-0.11,0-0.2-0.05-0.27-0.12c-0.08-0.08-0.14-0.27-0.2-0.57
				c-0.06-0.3-0.11-0.75-0.14-1.37c-0.03-0.62-0.05-1.45-0.05-2.5c0-1.81,0.05-3.17,0.14-4.09c0.09-0.9,0.2-1.48,0.32-1.72
				c0.12-0.24,0.26-0.36,0.41-0.36h1.37c0.32,0,0.48,0.08,0.48,0.21l-0.18,0.81c-0.12,0.54-0.23,1.16-0.32,1.84
				c-0.09,0.68-0.14,1.39-0.14,2.14c0,0.95,0.05,1.84,0.14,2.65c0.09,0.81,0.2,1.52,0.32,2.1c0.11,0.56,0.17,0.84,0.17,0.84
				c0,0.06-0.03,0.09-0.08,0.11c-0.05,0.02-0.18,0.03-0.39,0.03H180.94z"/>
		</g>
		<g>
			<polygon class="st0" points="105.97,136.87 106.58,138.8 108.49,138.8 106.94,139.98 107.53,141.9 105.97,140.7 104.44,141.9 
				105.02,139.98 103.47,138.8 105.39,138.8 			"/>
			<polygon class="st0" points="178.01,136.87 178.6,138.8 180.51,138.8 178.96,139.98 179.56,141.9 178.01,140.7 176.46,141.9 
				177.06,139.98 175.51,138.8 177.42,138.8 			"/>
			<g>
				<g>
					<path class="st0" d="M112.99,138.07c0,0-0.09-0.03-0.14-0.08c-0.2-0.18-0.32-0.3-0.39-0.36c-0.08-0.05-0.14-0.09-0.21-0.12
						c-0.12-0.06-0.27-0.09-0.44-0.09c-0.2,0-0.39,0.05-0.56,0.15c-0.17,0.11-0.26,0.26-0.26,0.44c0,0.23,0.11,0.39,0.3,0.51
						c0.2,0.12,0.47,0.23,0.78,0.33c0.68,0.23,1.15,0.5,1.4,0.83c0.26,0.32,0.38,0.68,0.38,1.07c0,0.3-0.08,0.59-0.21,0.87
						c-0.15,0.29-0.38,0.51-0.69,0.71c-0.32,0.18-0.69,0.27-1.16,0.27c-0.36,0-0.69-0.06-1-0.2c-0.3-0.14-0.56-0.32-0.75-0.57
						s-0.29-0.56-0.29-0.92c0-0.18,0.03-0.35,0.09-0.48c0.06-0.15,0.12-0.26,0.2-0.33c0.08-0.08,0.12-0.12,0.15-0.12
						c0.02,0,0.05,0.09,0.08,0.26c0.05,0.18,0.11,0.35,0.18,0.51c0.09,0.17,0.23,0.33,0.44,0.45c0.2,0.14,0.48,0.2,0.83,0.2
						c0.29,0,0.51-0.06,0.71-0.18c0.2-0.12,0.29-0.29,0.29-0.5c0-0.23-0.11-0.41-0.3-0.54c-0.2-0.12-0.44-0.24-0.74-0.32
						c-0.48-0.15-0.84-0.33-1.1-0.53c-0.26-0.2-0.42-0.39-0.5-0.6c-0.08-0.21-0.12-0.42-0.12-0.68c0-0.23,0.06-0.47,0.17-0.72
						c0.11-0.26,0.3-0.47,0.57-0.63c0.27-0.18,0.63-0.26,1.09-0.26c0.32,0,0.6,0.05,0.86,0.14c0.27,0.09,0.48,0.2,0.65,0.32
						c0.17,0.12,0.24,0.23,0.24,0.3c0,0.06-0.03,0.17-0.11,0.3s-0.15,0.27-0.24,0.38c-0.09,0.11-0.17,0.17-0.23,0.17L112.99,138.07z
						"/>
					<path class="st0" d="M117.75,142.51h-0.86c0,0-0.11-0.03-0.15-0.06c-0.05-0.05-0.08-0.15-0.11-0.32
						c-0.03-0.17-0.06-0.42-0.08-0.77s-0.03-0.8-0.03-1.39c0-1.01,0.03-1.76,0.08-2.26c0.05-0.5,0.11-0.81,0.18-0.95
						s0.14-0.2,0.23-0.2h0.75c0.18,0,0.27,0.05,0.27,0.12l-0.11,0.45c-0.08,0.3-0.12,0.65-0.18,1.01c-0.05,0.38-0.08,0.77-0.08,1.18
						c0,0.53,0.03,1.03,0.08,1.48c0.05,0.45,0.11,0.84,0.18,1.16c0.06,0.32,0.09,0.47,0.09,0.47c0,0.03,0,0.06-0.05,0.06
						c-0.03,0-0.11,0-0.21,0L117.75,142.51z"/>
					<path class="st0" d="M123.85,142.51h-2.87c-0.11,0-0.17-0.02-0.21-0.06c-0.05-0.05-0.06-0.11-0.08-0.21c0-0.08,0-0.23,0-0.44
						v-0.17c0-0.09,0-0.2,0-0.33c0-0.14,0-0.26,0-0.36c0-0.14,0-0.24,0-0.35c0-0.11,0-0.26,0.03-0.44c0-0.2,0.03-0.33,0.03-0.39
						c0.05-0.44,0.08-0.84,0.12-1.19c0.05-0.35,0.09-0.63,0.12-0.83c0.03-0.2,0.08-0.42,0.12-0.66c0.08-0.33,0.12-0.5,0.17-0.5h1.12
						c0.11,0,0.17,0.05,0.17,0.14c0,0.03-0.05,0.17-0.15,0.44c-0.05,0.11-0.09,0.23-0.14,0.36c-0.05,0.12-0.09,0.27-0.15,0.44
						c-0.06,0.17-0.11,0.35-0.14,0.51c-0.03,0.17-0.09,0.38-0.14,0.63c-0.08,0.42-0.12,0.86-0.12,1.3c0,0.48,0.09,0.81,0.29,1.01
						c0.14,0.14,0.3,0.2,0.53,0.2c0.2,0,0.36-0.05,0.5-0.12c0.14-0.08,0.29-0.18,0.44-0.3c0.15-0.12,0.26-0.18,0.3-0.18
						c0.03,0,0.08,0.11,0.14,0.32c0.06,0.21,0.12,0.44,0.17,0.69s0.08,0.39,0.08,0.42c0,0.08-0.11,0.11-0.3,0.11L123.85,142.51z"/>
					<path class="st0" d="M129.88,136.56h0.84c0,0,0.12,0.08,0.18,0.21s0.11,0.35,0.15,0.63c0.05,0.29,0.06,0.63,0.06,1.04
						c0,0.56-0.09,1.1-0.26,1.63c-0.17,0.51-0.38,0.97-0.63,1.36c-0.26,0.39-0.5,0.69-0.74,0.9c-0.24,0.23-0.41,0.33-0.53,0.33
						c-0.06,0-0.21-0.09-0.44-0.26c-0.23-0.18-0.48-0.44-0.74-0.78c-0.26-0.35-0.48-0.8-0.68-1.36c-0.2-0.56-0.29-1.21-0.29-1.95
						c0-0.51,0.02-0.9,0.06-1.16c0.05-0.26,0.09-0.42,0.15-0.48c0.06-0.06,0.11-0.11,0.17-0.11h0.8c0.23,0,0.35,0.05,0.35,0.12
						c0,0.03-0.03,0.12-0.08,0.24s-0.09,0.26-0.14,0.39c-0.05,0.14-0.09,0.35-0.12,0.6c-0.03,0.27-0.06,0.53-0.06,0.77
						c0,0.38,0.05,0.71,0.12,0.98c0.08,0.27,0.18,0.53,0.3,0.75c0.12,0.23,0.24,0.41,0.35,0.53c0.11,0.14,0.2,0.2,0.24,0.2
						c0.09,0,0.2-0.06,0.33-0.18s0.26-0.3,0.38-0.53c0.12-0.23,0.23-0.48,0.3-0.75c0.08-0.27,0.12-0.6,0.12-0.97
						c0-0.29-0.02-0.54-0.06-0.8c-0.05-0.26-0.09-0.45-0.15-0.6c-0.06-0.15-0.11-0.29-0.17-0.39c-0.06-0.12-0.09-0.2-0.09-0.23
						c0-0.08,0.09-0.12,0.26-0.12L129.88,136.56z"/>
					<path class="st0" d="M137.3,142.51h-3.24c-0.09,0-0.15-0.02-0.2-0.05c-0.05-0.03-0.06-0.09-0.08-0.17
						c-0.02-0.08-0.02-0.2-0.02-0.38v-1.1c0-0.24,0.02-0.59,0.06-1.06c0.05-0.45,0.09-0.95,0.17-1.45c0.06-0.51,0.12-0.94,0.2-1.25
						c0.06-0.33,0.12-0.5,0.18-0.5h2.79c0.23,0,0.33,0.05,0.33,0.14c0,0.05-0.08,0.23-0.24,0.56c-0.17,0.33-0.27,0.5-0.32,0.5
						c0,0-0.06-0.05-0.18-0.11c-0.12-0.08-0.24-0.14-0.33-0.17c-0.14-0.05-0.3-0.08-0.5-0.08c-0.18,0-0.35,0.03-0.5,0.11
						s-0.27,0.18-0.38,0.33c-0.09,0.15-0.14,0.33-0.14,0.54c0,0.27,0.08,0.39,0.23,0.39c0.06,0,0.18-0.03,0.38-0.11
						c0.18-0.08,0.35-0.12,0.48-0.17c0.14-0.05,0.3-0.06,0.47-0.06c0.09,0,0.17,0,0.24,0.03c0.06,0.02,0.11,0.06,0.11,0.09
						c0,0.03-0.08,0.23-0.21,0.6s-0.24,0.57-0.27,0.57c-0.3-0.09-0.5-0.14-0.62-0.14c-0.21,0-0.42,0.09-0.6,0.26
						c-0.18,0.17-0.29,0.41-0.29,0.72c0,0.2,0.03,0.36,0.11,0.51c0.08,0.15,0.17,0.26,0.3,0.35c0.14,0.08,0.3,0.12,0.5,0.12
						c0.21,0,0.39-0.03,0.54-0.09c0.17-0.06,0.32-0.14,0.47-0.23c0.15-0.09,0.24-0.14,0.29-0.14c0.03,0,0.09,0.09,0.18,0.29
						c0.09,0.2,0.18,0.39,0.27,0.62c0.09,0.23,0.14,0.35,0.14,0.36c0,0.08-0.09,0.11-0.26,0.11L137.3,142.51z"/>
					<path class="st0" d="M140.7,136.56h1.89c0.41,0,0.74,0.06,0.98,0.2c0.24,0.14,0.41,0.29,0.51,0.5
						c0.11,0.21,0.15,0.42,0.15,0.65c0,0.26-0.05,0.5-0.15,0.69c-0.09,0.2-0.2,0.35-0.3,0.45c-0.11,0.11-0.23,0.21-0.38,0.33
						c-0.15,0.12-0.23,0.2-0.23,0.23c0,0.03,0.08,0.14,0.24,0.33c0.15,0.18,0.32,0.39,0.45,0.62c0.15,0.23,0.29,0.5,0.39,0.81
						c0.05,0.14,0.09,0.29,0.12,0.48c0.03,0.2,0.06,0.36,0.06,0.48c0,0.11,0,0.15-0.03,0.17c-0.02,0-0.08,0.02-0.15,0.02h-0.8
						c-0.23,0-0.35-0.03-0.35-0.09c0-0.27-0.06-0.57-0.17-0.94c-0.11-0.36-0.23-0.66-0.38-0.94c-0.15-0.26-0.3-0.39-0.42-0.39
						c-0.08,0-0.18,0.03-0.29,0.09s-0.23,0.15-0.3,0.26c-0.08,0.11-0.14,0.21-0.14,0.33c0,0.17,0.02,0.36,0.06,0.57
						c0.05,0.23,0.08,0.44,0.14,0.66s0.08,0.33,0.08,0.33c0,0.03-0.02,0.06-0.06,0.08c-0.03,0-0.11,0.02-0.2,0.02h-0.83
						c0,0-0.11-0.03-0.15-0.06c-0.05-0.05-0.08-0.15-0.12-0.32c-0.03-0.17-0.06-0.42-0.08-0.75c-0.02-0.35-0.03-0.81-0.03-1.39
						c0-2.28,0.15-3.41,0.47-3.41L140.7,136.56z M141.59,139.33c0,0,0.18-0.05,0.35-0.12c0.41-0.2,0.74-0.44,0.97-0.74
						c0.12-0.15,0.18-0.32,0.18-0.47c0-0.2-0.08-0.36-0.23-0.45c-0.15-0.11-0.33-0.15-0.56-0.15c-0.23,0-0.39,0.03-0.53,0.11
						c-0.12,0.08-0.23,0.2-0.29,0.39c-0.06,0.2-0.11,0.47-0.11,0.81c0,0.23,0,0.38,0.05,0.48
						C141.45,139.29,141.49,139.33,141.59,139.33L141.59,139.33z"/>
				</g>
				<g>
					<path class="st0" d="M152.16,138.07c0,0-0.09-0.03-0.14-0.08c-0.2-0.18-0.32-0.3-0.39-0.36c-0.08-0.05-0.14-0.09-0.21-0.12
						c-0.12-0.06-0.27-0.09-0.44-0.09c-0.2,0-0.39,0.05-0.56,0.15c-0.17,0.11-0.26,0.26-0.26,0.44c0,0.23,0.11,0.39,0.3,0.51
						c0.2,0.12,0.47,0.23,0.78,0.33c0.68,0.23,1.15,0.5,1.4,0.83c0.26,0.32,0.38,0.68,0.38,1.07c0,0.3-0.08,0.59-0.21,0.87
						c-0.15,0.29-0.38,0.51-0.69,0.71c-0.32,0.18-0.69,0.27-1.16,0.27c-0.36,0-0.69-0.06-1-0.2s-0.56-0.32-0.75-0.57
						c-0.2-0.26-0.29-0.56-0.29-0.92c0-0.18,0.03-0.35,0.09-0.48c0.06-0.15,0.12-0.26,0.2-0.33c0.08-0.08,0.12-0.12,0.15-0.12
						c0.02,0,0.05,0.09,0.08,0.26c0.05,0.18,0.11,0.35,0.18,0.51c0.09,0.17,0.23,0.33,0.44,0.45c0.2,0.14,0.48,0.2,0.83,0.2
						c0.29,0,0.51-0.06,0.71-0.18c0.2-0.12,0.29-0.29,0.29-0.5c0-0.23-0.11-0.41-0.3-0.54c-0.2-0.12-0.44-0.24-0.74-0.32
						c-0.48-0.15-0.84-0.33-1.1-0.53c-0.26-0.2-0.42-0.39-0.5-0.6c-0.08-0.21-0.12-0.42-0.12-0.68c0-0.23,0.06-0.47,0.17-0.72
						c0.11-0.26,0.3-0.47,0.57-0.63c0.27-0.18,0.63-0.26,1.09-0.26c0.32,0,0.6,0.05,0.86,0.14c0.27,0.09,0.48,0.2,0.65,0.32
						c0.17,0.12,0.24,0.23,0.24,0.3c0,0.06-0.03,0.17-0.11,0.3s-0.15,0.27-0.24,0.38c-0.09,0.11-0.17,0.17-0.23,0.17L152.16,138.07z
						"/>
					<path class="st0" d="M159.79,142.51h-1c-0.18,0-0.27-0.05-0.27-0.12c0-0.03,0.05-0.11,0.09-0.24c0.05-0.14,0.11-0.29,0.17-0.48
						s0.11-0.42,0.15-0.66c0.05-0.24,0.06-0.48,0.06-0.74s-0.05-0.41-0.15-0.5c-0.11-0.09-0.27-0.14-0.51-0.14
						c-0.24,0-0.48,0.05-0.71,0.12c-0.23,0.08-0.41,0.21-0.56,0.39c-0.15,0.18-0.21,0.39-0.21,0.65s0.03,0.53,0.08,0.8
						c0.03,0.2,0.09,0.38,0.15,0.57c0.06,0.18,0.09,0.26,0.09,0.26c0,0.06-0.08,0.09-0.21,0.09h-1.04c-0.09,0-0.15-0.27-0.17-0.8
						c-0.03-0.54-0.05-1.06-0.05-1.55c0-0.24,0.02-0.66,0.06-1.25c0.05-0.6,0.11-1.13,0.17-1.61c0.08-0.48,0.15-0.72,0.26-0.72h0.97
						c0.14,0,0.21,0.03,0.21,0.08c0,0-0.05,0.14-0.14,0.39c-0.09,0.26-0.17,0.51-0.24,0.77c-0.08,0.26-0.11,0.5-0.11,0.72
						c0,0.11,0.02,0.2,0.06,0.26c0.05,0.06,0.08,0.09,0.12,0.09c0.05,0,0.11-0.02,0.2-0.06c0.09-0.05,0.2-0.08,0.33-0.11
						c0.14-0.03,0.35-0.05,0.63-0.05h0.33c0.09,0,0.17,0,0.21-0.03c0.05-0.03,0.08-0.09,0.08-0.18c0-0.21-0.05-0.44-0.14-0.68
						c-0.09-0.26-0.2-0.5-0.3-0.74c-0.12-0.24-0.17-0.38-0.17-0.39c0-0.05,0.08-0.08,0.24-0.08h0.95c0,0,0.14,0.11,0.2,0.33
						c0.08,0.23,0.14,0.51,0.2,0.86s0.11,0.75,0.15,1.18c0.05,0.44,0.06,0.83,0.06,1.21c0,0.27,0,0.59,0,0.92
						c0,0.33-0.03,0.66-0.06,0.97c-0.03,0.32-0.09,0.47-0.15,0.47L159.79,142.51z"/>
					<path class="st0" d="M165.39,142.61h-0.71c-0.35,0-0.65-0.06-0.9-0.18c-0.26-0.12-0.47-0.29-0.62-0.48
						c-0.17-0.21-0.29-0.45-0.36-0.72c-0.08-0.27-0.11-0.56-0.11-0.87c0-0.21,0.02-0.44,0.05-0.68c0.03-0.24,0.08-0.47,0.14-0.68
						c0.06-0.23,0.12-0.44,0.21-0.66c0.09-0.23,0.18-0.42,0.29-0.62c0.21-0.38,0.47-0.68,0.75-0.9c0.29-0.23,0.59-0.33,0.9-0.33
						c0.32,0,0.62,0.11,0.9,0.33c0.29,0.23,0.54,0.53,0.75,0.9c0.21,0.38,0.38,0.78,0.5,1.25c0.12,0.47,0.18,0.94,0.18,1.39
						c0,0.32-0.05,0.6-0.11,0.89c-0.06,0.29-0.2,0.51-0.35,0.72c-0.17,0.21-0.36,0.36-0.62,0.48s-0.54,0.18-0.89,0.18L165.39,142.61
						z M165.02,141.35c0.39,0,0.69-0.09,0.89-0.29c0.2-0.2,0.3-0.48,0.3-0.87c0-0.39-0.05-0.74-0.11-1.06
						c-0.06-0.24-0.14-0.45-0.21-0.63c-0.08-0.18-0.17-0.32-0.24-0.44c-0.09-0.11-0.17-0.2-0.24-0.27
						c-0.14-0.12-0.27-0.18-0.39-0.18s-0.26,0.06-0.39,0.18c-0.09,0.09-0.18,0.2-0.27,0.32c-0.09,0.14-0.17,0.29-0.24,0.47
						c-0.08,0.18-0.14,0.36-0.18,0.56c-0.08,0.32-0.11,0.66-0.11,1.04c0,0.42,0.12,0.72,0.36,0.92c0.2,0.17,0.48,0.24,0.84,0.24
						L165.02,141.35z"/>
					<path class="st0" d="M170.48,136.56h2.19c0.35,0,0.63,0.08,0.84,0.21c0.21,0.14,0.35,0.3,0.42,0.5s0.12,0.38,0.12,0.56
						c0,0.42-0.12,0.78-0.38,1.09c-0.12,0.14-0.24,0.26-0.38,0.38s-0.3,0.24-0.47,0.35c-0.18,0.12-0.38,0.26-0.62,0.39
						c-0.24,0.15-0.38,0.23-0.42,0.26c-0.33,0.21-0.5,0.42-0.5,0.62c0,0.3,0.06,0.71,0.18,1.22c0.05,0.2,0.06,0.3,0.06,0.3
						c0,0.05-0.08,0.06-0.21,0.06h-0.95c0,0-0.11-0.03-0.15-0.06c-0.05-0.05-0.08-0.15-0.12-0.32c-0.03-0.17-0.06-0.42-0.08-0.75
						c-0.02-0.35-0.03-0.81-0.03-1.39c0-1.64,0.08-2.7,0.24-3.15c0.06-0.17,0.14-0.26,0.23-0.26L170.48,136.56z M171.36,139.47
						c0.12,0,0.32-0.09,0.57-0.26c0.26-0.17,0.48-0.36,0.68-0.57c0.2-0.23,0.3-0.41,0.3-0.56c0-0.23-0.08-0.39-0.24-0.5
						c-0.17-0.11-0.36-0.17-0.6-0.17c-0.21,0-0.38,0.03-0.5,0.11c-0.12,0.08-0.23,0.23-0.32,0.48c-0.08,0.26-0.12,0.63-0.12,1.15
						c0,0.11,0,0.2,0.05,0.26c0.03,0.06,0.09,0.08,0.18,0.08L171.36,139.47z"/>
				</g>
			</g>
		</g>
	</g>
	<g>
		<path class="st0" d="M163.62,105.94c-0.27-0.35-0.57-0.56-0.92-0.63c-0.35-0.06-0.65,0-0.9,0.2c-0.27,0.21-0.42,0.5-0.47,0.87
			c-0.03,0.38,0.08,0.74,0.35,1.1c0.24,0.32,0.53,0.5,0.87,0.56c0.35,0.06,0.65-0.03,0.94-0.24c0.29-0.21,0.44-0.48,0.48-0.83
			c0.03-0.33-0.09-0.68-0.35-1.04 M162.78,110.04l0.54-0.5c0.26,0.24,0.51,0.36,0.74,0.39c0.24,0.02,0.47-0.06,0.68-0.23
			c0.2-0.14,0.32-0.32,0.39-0.5c0.08-0.2,0.11-0.39,0.09-0.6c-0.02-0.21-0.09-0.47-0.21-0.75c-0.12-0.29-0.29-0.57-0.47-0.81
			c-0.02-0.03-0.05-0.06-0.09-0.12c0.03,0.29-0.03,0.57-0.15,0.86s-0.3,0.51-0.56,0.71c-0.41,0.32-0.87,0.42-1.39,0.35
			c-0.51-0.09-0.95-0.38-1.33-0.86c-0.38-0.51-0.54-1.03-0.47-1.57c0.06-0.53,0.32-0.97,0.77-1.31c0.33-0.24,0.69-0.38,1.09-0.41
			c0.41-0.03,0.8,0.06,1.18,0.29c0.38,0.21,0.81,0.63,1.27,1.25c0.48,0.63,0.8,1.21,0.95,1.69c0.15,0.48,0.15,0.92,0.03,1.33
			c-0.12,0.41-0.38,0.74-0.74,1.03c-0.39,0.3-0.8,0.42-1.21,0.39s-0.78-0.23-1.13-0.57L162.78,110.04z M158.82,111.55
			c0.09,0.2,0.23,0.36,0.41,0.51c0.18,0.14,0.39,0.23,0.62,0.24c0.23,0,0.45-0.03,0.68-0.12c0.33-0.15,0.56-0.39,0.68-0.71
			c0.12-0.32,0.09-0.63-0.06-0.97c-0.15-0.33-0.39-0.56-0.72-0.68c-0.33-0.12-0.66-0.09-1,0.06c-0.33,0.15-0.54,0.39-0.66,0.71
			s-0.09,0.63,0.06,0.97V111.55z M157.83,108.83c0.12,0.27,0.32,0.45,0.57,0.54s0.51,0.08,0.8-0.06c0.27-0.12,0.45-0.32,0.54-0.56
			c0.09-0.26,0.08-0.5-0.03-0.74c-0.12-0.26-0.3-0.42-0.56-0.53c-0.26-0.09-0.51-0.08-0.78,0.05c-0.27,0.12-0.45,0.32-0.54,0.56
			c-0.09,0.26-0.09,0.5,0.02,0.74H157.83z M158.52,109.95c-0.33,0.03-0.62-0.02-0.86-0.15c-0.23-0.14-0.41-0.33-0.54-0.6
			c-0.2-0.41-0.21-0.83-0.05-1.25c0.17-0.42,0.5-0.74,0.98-0.98c0.5-0.23,0.97-0.27,1.4-0.12c0.44,0.15,0.75,0.42,0.94,0.84
			c0.12,0.26,0.17,0.53,0.12,0.78c-0.05,0.26-0.18,0.51-0.42,0.74c0.41-0.05,0.75,0,1.06,0.18c0.3,0.17,0.53,0.42,0.69,0.78
			c0.23,0.48,0.24,0.98,0.06,1.46c-0.2,0.5-0.56,0.86-1.13,1.13c-0.56,0.26-1.09,0.3-1.58,0.14c-0.5-0.17-0.86-0.5-1.1-1
			c-0.17-0.36-0.23-0.72-0.15-1.06c0.08-0.33,0.26-0.63,0.56-0.87L158.52,109.95z M155.73,110.16c-0.14-0.42-0.35-0.72-0.65-0.9
			c-0.3-0.18-0.6-0.23-0.92-0.12c-0.33,0.11-0.57,0.32-0.72,0.66c-0.17,0.35-0.18,0.72-0.05,1.15c0.12,0.38,0.33,0.66,0.63,0.83
			c0.3,0.17,0.62,0.2,0.97,0.09c0.35-0.11,0.59-0.3,0.72-0.62c0.15-0.3,0.15-0.66,0.03-1.09H155.73z M153.53,113.72l0.69-0.29
			c0.17,0.32,0.35,0.51,0.56,0.62c0.21,0.09,0.45,0.11,0.72,0.03c0.23-0.08,0.41-0.18,0.54-0.33s0.24-0.33,0.29-0.54
			c0.06-0.21,0.08-0.47,0.06-0.78c-0.02-0.32-0.08-0.63-0.17-0.94c0-0.03-0.03-0.08-0.05-0.15c-0.08,0.27-0.23,0.53-0.42,0.75
			c-0.21,0.23-0.47,0.38-0.75,0.47c-0.5,0.15-0.97,0.11-1.42-0.15c-0.45-0.26-0.77-0.68-0.95-1.27c-0.18-0.6-0.15-1.15,0.09-1.63
			s0.63-0.8,1.18-0.97c0.39-0.12,0.78-0.12,1.16,0c0.39,0.11,0.72,0.33,1.01,0.68c0.29,0.33,0.54,0.87,0.77,1.61
			c0.23,0.77,0.33,1.4,0.32,1.9c-0.03,0.5-0.17,0.92-0.42,1.27c-0.26,0.33-0.6,0.57-1.04,0.71c-0.47,0.14-0.89,0.14-1.27-0.05
			c-0.38-0.17-0.66-0.48-0.87-0.94L153.53,113.72z M151.56,115.59l-0.75,0.15l-0.94-4.81c-0.15,0.21-0.35,0.42-0.62,0.66
			c-0.26,0.23-0.5,0.41-0.72,0.54l-0.14-0.72c0.38-0.29,0.71-0.59,0.97-0.94c0.26-0.35,0.44-0.66,0.51-0.95l0.48-0.09l1.21,6.17
			L151.56,115.59z M143.15,114.76l-0.06-0.77l2.35-0.17l0.06,0.77L143.15,114.76z M135.9,115.67l1.33,0.09
			c0.41,0.03,0.74,0,0.98-0.05c0.24-0.06,0.44-0.15,0.59-0.29c0.21-0.18,0.38-0.44,0.51-0.75s0.21-0.72,0.24-1.19
			c0.05-0.65-0.03-1.16-0.21-1.52c-0.2-0.36-0.44-0.62-0.74-0.75c-0.21-0.11-0.57-0.17-1.06-0.2l-1.31-0.09l-0.33,4.77V115.67z
			 M135.02,116.35l0.44-6.24l2.16,0.15c0.48,0.03,0.86,0.09,1.1,0.17c0.35,0.11,0.65,0.27,0.89,0.51c0.32,0.3,0.53,0.68,0.66,1.12
			s0.18,0.95,0.14,1.51c-0.03,0.47-0.12,0.89-0.26,1.25s-0.3,0.65-0.5,0.87c-0.2,0.23-0.39,0.41-0.6,0.53
			c-0.21,0.12-0.47,0.21-0.77,0.26s-0.63,0.06-1.01,0.03L135.02,116.35L135.02,116.35z M130.95,115.55l1.15-5.4l-2.02-0.42
			l0.15-0.72l4.86,1.03l-0.15,0.72l-2.02-0.44l-1.15,5.4L130.95,115.55L130.95,115.55z M123.82,111.38l0.75,0.2
			c-0.06,0.3-0.08,0.57,0,0.81c0.06,0.24,0.21,0.45,0.44,0.66c0.23,0.21,0.51,0.38,0.84,0.48c0.3,0.11,0.57,0.15,0.84,0.14
			c0.26,0,0.47-0.08,0.63-0.2c0.17-0.12,0.29-0.27,0.35-0.45c0.06-0.18,0.06-0.36,0-0.54c-0.06-0.18-0.2-0.35-0.41-0.53
			c-0.14-0.12-0.45-0.33-0.95-0.65c-0.5-0.32-0.84-0.57-1.01-0.77c-0.23-0.24-0.38-0.5-0.44-0.77c-0.06-0.27-0.05-0.54,0.05-0.81
			c0.11-0.3,0.29-0.54,0.54-0.75c0.26-0.2,0.57-0.32,0.95-0.33c0.38-0.02,0.75,0.03,1.16,0.17c0.44,0.15,0.8,0.36,1.09,0.62
			c0.29,0.26,0.47,0.56,0.56,0.89c0.09,0.33,0.08,0.68-0.03,1.04l-0.77-0.2c0.09-0.39,0.05-0.72-0.12-1
			c-0.17-0.27-0.48-0.48-0.94-0.65c-0.47-0.17-0.84-0.2-1.13-0.09c-0.27,0.11-0.45,0.27-0.54,0.51c-0.08,0.21-0.06,0.42,0.05,0.6
			c0.11,0.2,0.45,0.47,1.04,0.83s0.98,0.63,1.18,0.83c0.29,0.27,0.48,0.57,0.56,0.86c0.08,0.3,0.06,0.6-0.05,0.92
			c-0.11,0.32-0.3,0.59-0.57,0.8c-0.27,0.21-0.6,0.35-1,0.38c-0.39,0.05-0.8-0.02-1.22-0.17c-0.54-0.18-0.97-0.42-1.27-0.69
			c-0.3-0.29-0.51-0.62-0.6-1c-0.09-0.38-0.09-0.77,0.05-1.18L123.82,111.38z M118.06,110.37l3.32-5.31l3.85,2.4l-0.39,0.63
			l-3.14-1.96l-1.01,1.63l2.94,1.84l-0.39,0.62l-2.94-1.84l-1.13,1.81l3.26,2.04l-0.39,0.63l-3.97-2.47L118.06,110.37z"/>
		<g>
			<line class="st1" x1="141.99" y1="75.35" x2="113.74" y2="82.61"/>
			<path class="st1" d="M132.61,76.9c-6.43,1.31-13,1.72-19.4,3.2"/>
			<path class="st1" d="M141.99,75.35c-2.67,0.44-5.34,0.89-8.02,1.33"/>
			<line class="st1" x1="125.37" y1="76.62" x2="112.91" y2="77.58"/>
			<path class="st1" d="M132.46,76.07l-2.53,0.2"/>
			<path class="st1" d="M141.99,75.35c-2.93,0.23-5.84,0.45-8.76,0.68"/>
			<line class="st1" x1="125.31" y1="75.17" x2="112.82" y2="75.03"/>
			<line class="st1" x1="141.99" y1="75.35" x2="129.87" y2="75.21"/>
			<path class="st1" d="M130.35,74.23c-5.81-0.51-11.55-1.61-17.39-1.73"/>
			<path class="st1" d="M141.99,75.35l-9.49-0.94"/>
			<path class="st1" d="M131.27,73.36c-6.03-0.89-11.84-2.91-17.95-3.38"/>
			<path class="st1" d="M141.99,75.35c-3.12-0.59-6.24-1.16-9.37-1.75"/>
			<path class="st1" d="M131.72,72.47c-5.94-1.67-11.9-3.26-17.83-4.98"/>
			<path class="st1" d="M141.99,75.35c-3.02-0.84-6.03-1.69-9.03-2.52"/>
			<path class="st1" d="M123.35,68.34c-2.88-1.09-5.78-2.17-8.66-3.26"/>
			<path class="st1" d="M131.77,71.4c-2.46-1.01-4.95-1.96-7.5-2.71"/>
			<path class="st1" d="M141.99,75.35c-2.78-0.87-5.48-1.98-8.16-3.09"/>
			<path class="st1" d="M124.29,66.86l-8.6-4.12"/>
			<path class="st1" d="M131.63,70.09c-2.07-1.1-4.21-2.1-6.46-2.79"/>
			<path class="st1" d="M141.99,75.35c-2.53-0.98-4.93-2.26-7.3-3.59"/>
			<path class="st1" d="M126.44,66.15c-3.18-1.89-6.38-3.77-9.56-5.66"/>
			<path class="st1" d="M131.34,69.14c-1.34-0.83-2.67-1.64-4.01-2.47"/>
			<path class="st1" d="M141.99,75.35c-2.61-1.39-5.16-2.87-7.69-4.39"/>
			<path class="st1" d="M129.11,66.12c-3.35-2.46-7.19-5.44-10.83-7.75"/>
			<path class="st1" d="M133.23,68.87c-0.44-0.32-0.89-0.63-1.34-0.94"/>
			<path class="st1" d="M141.99,75.35c-2.84-1.81-5.4-4-8.1-6"/>
			<path class="st1" d="M133.46,68.04c-4.62-3.8-9.03-7.83-13.62-11.67"/>
			<path class="st1" d="M141.99,75.35c-2.59-2.22-5.19-4.45-7.77-6.67"/>
			<line class="st1" x1="141.99" y1="75.35" x2="121.59" y2="54.51"/>
			<line class="st1" x1="141.99" y1="75.35" x2="123.49" y2="52.8"/>
			<line class="st1" x1="141.99" y1="75.35" x2="125.52" y2="51.28"/>
			<line class="st1" x1="141.99" y1="75.35" x2="127.68" y2="49.94"/>
			<line class="st1" x1="141.99" y1="75.35" x2="129.94" y2="48.77"/>
			<line class="st1" x1="141.99" y1="75.35" x2="132.31" y2="47.82"/>
			<line class="st1" x1="141.99" y1="75.35" x2="134.74" y2="47.09"/>
			<line class="st1" x1="141.99" y1="75.35" x2="137.23" y2="46.57"/>
			<line class="st1" x1="141.99" y1="75.35" x2="139.76" y2="46.26"/>
			<line class="st1" x1="141.99" y1="75.35" x2="142.29" y2="46.18"/>
			<line class="st1" x1="141.99" y1="75.35" x2="144.84" y2="46.32"/>
			<line class="st1" x1="141.99" y1="75.35" x2="147.36" y2="46.68"/>
			<line class="st1" x1="141.99" y1="75.35" x2="149.84" y2="47.25"/>
			<line class="st1" x1="141.99" y1="75.35" x2="152.26" y2="48.04"/>
			<line class="st1" x1="141.99" y1="75.35" x2="154.6" y2="49.03"/>
			<line class="st1" x1="141.99" y1="75.35" x2="156.85" y2="50.24"/>
			<line class="st1" x1="141.99" y1="75.35" x2="158.98" y2="51.63"/>
			<line class="st1" x1="141.99" y1="75.35" x2="160.98" y2="53.19"/>
			<line class="st1" x1="141.99" y1="75.35" x2="162.84" y2="54.93"/>
			<path class="st1" d="M150.59,68.29c4.66-3.82,9.31-7.63,13.95-11.46"/>
			<path class="st1" d="M141.99,75.35c2.56-2.11,5.13-4.21,7.69-6.32"/>
			<path class="st1" d="M155.49,66.14c3.54-2.4,7.04-4.84,10.57-7.27"/>
			<path class="st1" d="M141.99,75.35c2.7-1.84,5.46-3.6,8.14-5.49"/>
			<path class="st1" d="M158.63,65.97c2.93-1.64,5.85-3.3,8.78-4.95"/>
			<path class="st1" d="M152.51,69.36c1.48-0.84,2.97-1.66,4.46-2.46"/>
			<path class="st1" d="M141.99,75.35c2.64-1.42,5.22-2.93,7.81-4.43"/>
			<path class="st1" d="M160.02,67.18c2.85-1.3,5.7-2.58,8.55-3.88"/>
			<path class="st1" d="M152.2,70.8c2.28-1,4.56-2.01,6.77-3.15"/>
			<path class="st1" d="M141.99,75.35c2.58-1.27,5.22-2.4,7.86-3.53"/>
			<path class="st1" d="M160.79,68.73c2.91-1.03,5.82-2.05,8.72-3.08"/>
			<path class="st1" d="M152.79,71.63c2.32-0.92,4.66-1.81,7.06-2.56"/>
			<path class="st1" d="M141.99,75.35c2.87-0.69,5.66-1.72,8.4-2.79"/>
			<path class="st1" d="M153.74,72.33c5.72-1.42,11.27-2.7,16.5-4.24"/>
			<path class="st1" d="M141.99,75.35l9.09-2.34"/>
			<path class="st1" d="M153.82,73.39c5.64-1.19,11.61-1.63,16.95-2.81"/>
			<path class="st1" d="M141.99,75.35c3.27-0.54,6.55-1.09,9.82-1.63"/>
			<line class="st1" x1="156.86" y1="74.2" x2="171.09" y2="73.1"/>
			<line class="st1" x1="141.99" y1="75.35" x2="153.52" y2="74.46"/>
			<path class="st1" d="M157.92,75.52c4.42,0.09,8.84,0.09,13.24,0.14"/>
			<path class="st1" d="M141.99,75.35c4.09-0.15,8.19,0.48,12.29,0.29"/>
			<path class="st1" d="M157.18,76.83c4.62,0.5,9.23,0.9,13.85,1.36"/>
			<path class="st1" d="M141.99,75.35c4.66,0.68,8.93,0.68,13.7,1.34"/>
			<line class="st1" x1="141.99" y1="75.35" x2="170.67" y2="80.71"/>
			<line class="st1" x1="141.99" y1="75.35" x2="170.09" y2="83.19"/>
		</g>
		<g>
			<path class="st0" d="M145.1,94.33c-1.13-0.08-2.17,0-3.08,0.23c-0.92-0.24-1.96-0.3-3.08-0.23c-4.01,0.51-4.03,3.02-1.63,4.75
				c2.01,1.12,3.45,1.87,4.71,3.44c1.25-1.57,2.7-2.32,4.71-3.44C149.13,97.34,149.11,94.84,145.1,94.33z"/>
			<path class="st0" d="M135.66,98.65c-1.67-1.7-1.16-3.8,1.3-4.36c-1.27-0.11-2.04-0.11-3.24,0c-2.41,0.44-3.95,1.72-4.33,4.1
				c-0.59,1.3-1.49,2.26-2.62,2.99c1.36-0.3,2.94-0.45,4.65-0.54c2.79-0.2,4.77-0.47,5.2-1.18c0.06-0.27-0.41-0.65-0.94-1.03
				L135.66,98.65z"/>
			<path class="st0" d="M148.39,98.65c1.67-1.7,1.16-3.8-1.3-4.36c1.27-0.11,2.04-0.11,3.24,0c2.41,0.44,3.95,1.72,4.33,4.1
				c0.59,1.3,1.49,2.26,2.62,2.99c-1.36-0.3-2.94-0.45-4.65-0.54c-2.79-0.2-4.77-0.47-5.2-1.18c-0.06-0.27,0.41-0.65,0.94-1.03
				L148.39,98.65z"/>
			<path class="st0" d="M132.08,94.17c-1.54-0.08-2.37-0.12-3.11,0.03c-1.92,0.21-3.53,1.25-4.9,3c-0.62,0.77-1.39,1.45-2.28,2.04
				c0.83-0.3,1.95-0.51,3.18-0.69c1.48-0.17,2.11-0.47,3.33-0.97c0.62-1.76,1.87-2.9,3.76-3.39L132.08,94.17z"/>
			<path class="st0" d="M151.96,94.17c1.54-0.08,2.37-0.12,3.11,0.03c1.92,0.21,3.53,1.25,4.9,3c0.62,0.77,1.39,1.45,2.28,2.04
				c-0.83-0.3-1.95-0.51-3.18-0.69c-1.48-0.17-2.11-0.47-3.33-0.97c-0.62-1.76-1.87-2.9-3.76-3.39L151.96,94.17z"/>
			<path class="st0" d="M127.27,94.07c-0.68,0-0.77,0-1.33-0.15l-1.27-0.32c-1.61,0.38-2.9,1.21-4.04,2.26
				c1.01-0.3,2.22-0.54,4.06-0.72C125.49,94.66,126.35,94.29,127.27,94.07z"/>
			<path class="st0" d="M156.77,94.07c0.68,0,0.77,0,1.33-0.15l1.27-0.32c1.61,0.38,2.9,1.21,4.04,2.26
				c-1.01-0.3-2.22-0.54-4.06-0.72C158.55,94.66,157.69,94.29,156.77,94.07L156.77,94.07z"/>
			<g>
				<path class="st0" d="M142.02,94.29c4.66-0.11,7.1-1.99,7.33-5.66c-0.14-2.55-1.6-5.23-3.71-8.13c-2.25,0.74-4.75,0.81-7.48,0.3
					c-1.99,2.78-3.36,5.37-3.48,7.83c0.23,3.67,2.67,5.55,7.33,5.66H142.02z"/>
				<path class="st0" d="M129.94,83.07c-1.06,1.87-1.92,3.74-1.89,5.05c-0.36,4.52,3.42,5.94,9.28,5.94
					c-6.15-2.97-4.12-8.72-0.47-13.35c-1.83-1.75-3.47-2.84-6.44-3.32c0.26,0.41,0.39,0.87,0.47,1.39
					C131.06,80.19,130.59,81.63,129.94,83.07L129.94,83.07z"/>
				<path class="st0" d="M154.1,83.07c1.06,1.87,1.92,3.74,1.89,5.05c0.36,4.52-3.42,5.94-9.28,5.94c6.15-2.97,4.12-8.72,0.47-13.35
					c1.83-1.75,3.47-2.84,6.44-3.32c-0.26,0.41-0.39,0.87-0.47,1.39C152.99,80.19,153.46,81.63,154.1,83.07L154.1,83.07z"/>
				<path class="st0" d="M124.86,91.38c1.4,1.36,3.14,2.08,4.96,2.5c1.69,0.3,2.52,0.5,3.54,0.35c-5.04-0.59-6.92-3.17-6.29-7.27
					c0.97-2.31,2.02-4.84,2.41-5.79c-0.95-1.55-2.11-2.65-4.68-3.06c-0.23,2.19-0.5,4.19-0.92,5.7c-0.95,3.12-0.86,5.81,0.97,7.59
					V91.38z"/>
				<path class="st0" d="M159.19,91.38c-1.4,1.36-3.14,2.08-4.96,2.5c-1.69,0.3-2.52,0.5-3.54,0.35c5.04-0.59,6.92-3.17,6.29-7.27
					c-0.97-2.31-2.02-4.84-2.41-5.79c0.95-1.55,2.11-2.65,4.68-3.06c0.23,2.19,0.5,4.19,0.92,5.7c0.95,3.12,0.86,5.81-0.97,7.59
					V91.38z"/>
				<path class="st0" d="M122.01,86.04l1.21-4.87c-1.93-2.38-4.15-3.42-7.66-3.57c0.63,0.66,1.13,1.49,1.54,2.41
					c0.5,0.86,0.78,1.98,0.89,3.33c0.08,2.81,0.35,5.2,1.04,6.76c1.48,2.59,4.22,3.82,9.03,4.06c-3.38-1.19-6.61-3.57-6.06-8.11
					H122.01z"/>
				<path class="st0" d="M162.02,86.04l-1.21-4.87c1.93-2.38,4.15-3.42,7.66-3.57c-0.63,0.66-1.13,1.49-1.54,2.41
					c-0.5,0.86-0.78,1.98-0.89,3.33c-0.08,2.81-0.35,5.2-1.04,6.76c-1.48,2.59-4.22,3.82-9.03,4.06c3.38-1.19,6.61-3.57,6.06-8.11
					H162.02z"/>
			</g>
		</g>
		<circle class="st2" cx="141.99" cy="74.84" r="32.5"/>
		<path class="st3" d="M142.02,81.91c-3.35,0-6.33-1.63-7.87-4.28c-0.27-0.09-0.54-0.21-0.78-0.35l-0.62,0.57l-0.41,0.26l-1.16,0.94
			v-2.05l-0.69-0.42l0.17-0.47c0.15-0.41,0.29-0.89,0.41-1.4c-0.33,0.32-0.71,0.59-1.13,0.8c0.05,0.06,0.08,0.12,0.09,0.2
			c0.15,0.44-0.11,0.87-0.2,1.01l-0.03,0.03l-0.03,0.03c-0.17,0.2-0.41,0.32-0.75,0.42c-0.05,0.2-0.17,0.39-0.38,0.59l-0.05,0.05
			l-0.97,0.57l-1-0.59l-0.06-0.06c-0.18-0.21-0.29-0.39-0.35-0.57l-0.17-0.06l-0.53-0.29l-0.09-0.14c-0.09-0.14-0.36-0.56-0.21-1.03
			c0.02-0.06,0.05-0.11,0.08-0.15c-0.38-0.18-0.71-0.41-1.03-0.66c0.14,0.59,0.26,1.01,0.32,1.13l0.3,0.51l-0.53,0.29l-0.26,0.15
			v2.38l-1.06-1.13c-0.14-0.14-0.32-0.3-0.39-0.33l-0.15-0.05l-0.11-0.11l-0.59-0.57l0.06-0.42c-0.02-0.15-0.03-0.36-0.02-0.71
			c0-0.65,0-1.06,0.03-1.42v-0.17c0.02-0.3,0.03-0.62,0.08-0.97c0-0.14,0.02-0.23,0.03-0.3c0-0.12,0.02-0.23,0.05-0.38
			c-0.06,0-0.11,0-0.17,0c-0.81,0-1.43-0.65-1.58-1.63V71.1v-0.05c0-0.71,0.17-1.24,0.51-1.58c0.18-0.18,0.41-0.32,0.66-0.39
			c-0.23-0.27-0.38-0.53-0.47-0.78v-0.03l-0.02-0.03c-0.21-0.97,0.03-1.54,0.27-1.86c0.21-0.27,0.62-0.6,1.36-0.63h0.11l0.11,0.03
			c0.3,0.09,0.65,0.29,0.92,0.66c0.45-0.42,0.97-0.75,1.52-1.01c0-0.36,0.09-0.71,0.26-1.03v-0.63h1.12l0.05,0.08
			c0,0,0.14-0.09,0.21-0.12l0.77-1.34l0.74,1.33c0.11,0.06,0.21,0.12,0.3,0.18c0.12-0.11,0.26-0.15,0.42-0.15
			c0.29,0,0.59,0.2,0.65,0.62l0,0l0.08,0.17c0.15,0.33,0.21,0.65,0.23,0.97c0.54,0.26,1.04,0.59,1.46,1.01
			c0.36-0.63,0.89-0.75,1.22-0.75c0.15,0,0.3,0.03,0.47,0.08h0.05c0.27,0.14,0.5,0.29,0.68,0.47c0.14-0.68,0.56-1.42,1.45-2.22
			c0.09-0.18,0.14-0.45,0.14-0.8c0.02-0.6,0.18-1.15,0.47-1.63v-0.72l1.76-8.17c-0.26-0.71-0.29-1.46-0.08-2.28
			c-0.08-0.42,0-0.98,0.63-1.54c0.48-0.5,1.01-0.92,1.57-1.28c-0.56-0.59-0.62-1.19-0.53-1.64v-0.05l0.02-0.05
			c0.2-0.56,0.68-0.97,1.45-1.19h0.05l0.05-0.02c0.42-0.06,0.44-0.21,0.47-0.35l0.03-0.21l0.17-0.14c0.12-0.11,0.29-0.17,0.47-0.17
			c0.3,0,0.56,0.18,0.63,0.47c0.05,0.17,0.17,0.36,0.41,0.39h0.05h0.05c0.5,0.12,0.9,0.33,1.21,0.63l0.03,0.03
			c0.36,0.42,0.41,0.86,0.36,1.13c-0.05,0.38-0.24,0.74-0.6,1.12c0.62,0.39,1.1,0.8,1.51,1.22c0.54,0.41,0.78,0.95,0.71,1.58
			c0.21,0.78,0.18,1.58-0.11,2.35l1.78,8.05v0.78c0.26,0.41,0.42,0.89,0.48,1.45v0.05v0.05c-0.02,0.39,0.03,0.71,0.14,0.95
			c0.81,0.75,1.3,1.46,1.43,2.19c0.02-0.03,0.08-0.11,0.08-0.11l0.03-0.03c0.35-0.33,0.74-0.5,1.12-0.5c0.23,0,0.83,0.08,1.25,0.77
			c0.44-0.41,0.92-0.74,1.48-1.01c0-0.38,0.09-0.77,0.29-1.16c0.12-0.54,0.51-0.6,0.65-0.6l0,0c0.08,0,0.26,0.02,0.42,0.15
			c0.11-0.08,0.21-0.14,0.33-0.2l0.66-1.4l0.81,1.43c0.11,0.05,0.2,0.11,0.27,0.17c0.17-0.14,0.35-0.15,0.39-0.15
			c0.14,0,0.53,0.05,0.66,0.59c0.2,0.35,0.29,0.71,0.29,1.09c0.53,0.21,1.03,0.54,1.51,1c0.38-0.54,0.94-0.65,1.3-0.65
			c0.06,0,0.12,0,0.2,0h0.08l0.06,0.03c0.59,0.2,1.49,0.78,1.1,2.55v0.06l-0.14,0.27l-0.33,0.41c0.32,0.08,0.54,0.24,0.68,0.38
			c0.36,0.36,0.53,0.94,0.51,1.72v0.05v0.05c-0.14,0.89-0.78,1.52-1.58,1.52c-0.06,0-0.11,0-0.17,0c0.17,1.09,0.23,2.37,0.18,3.94
			v0.42l-0.17,0.18c-0.42,0.44-0.59,0.54-0.74,0.57c0,0-0.02,0-0.03,0.02L160,79.09v-2.26l-0.69-0.41l0.18-0.48
			c0.32-0.83,0.62-2.22,0.89-3.6l-0.09,0.03c-0.42,0.35-1.01,0.68-1.57,1c-0.41,0.23-1.01,0.57-1.31,0.81
			c0.11,0.05,0.2,0.12,0.29,0.21c0.45,0.47,0.5,1.34,0.44,2.71v0.39l-1.78,0.71l-1.84-0.77l0.11-0.5c0.06-0.24,0.17-0.48,0.35-0.71
			c-1.39-1.04-2.19-2.49-2.08-3.8l-0.29-0.06c0.27,1.36,0.56,2.65,0.89,3.57l0.15,0.45l-0.68,0.45v2.17l-1.39-1.24l-0.41-0.26
			l-0.44-0.38c-0.23,0.14-0.48,0.27-0.75,0.36c-1.7,2.7-4.65,4.3-7.92,4.3l0,0L142.02,81.91z"/>
		<g>
			<path class="st3" d="M133.15,70.49c-0.24,0-0.44,0.23-0.44,0.51s0.2,0.51,0.44,0.51c0.24,0,0.44-0.23,0.44-0.51
				S133.4,70.49,133.15,70.49z"/>
			<path class="st3" d="M132.57,71.23l-0.21,0.27c0.14,0.29,0.3,0.48,0.5,0.6l0.56-0.41C133.15,71.85,132.84,71.7,132.57,71.23z"/>
			<path class="st3" d="M151.43,73c-0.42-0.77-1.19-1.31-2.1-1.43c0.65-0.3,1.1-0.95,1.1-1.72c0-0.84-0.54-1.55-1.3-1.79
				c0.74-1.09,0.39-2.28-0.97-3.47l0,0v-0.05c-0.2-0.26-0.27-0.69-0.26-1.31c-0.05-0.5-0.21-0.95-0.47-1.33v-0.84l-1.03-4.75l0,0
				l0,0l-0.75-3.51c0.29-0.68,0.32-1.42,0.08-2.22c0.12-0.44-0.05-0.83-0.5-1.18c-0.74-0.71-1.45-1.24-2.14-1.6
				c0.56-0.29,1.09-0.89,1.04-1.45c-0.03-0.33-0.29-0.78-1.34-1.01c-0.36-0.06-0.59-0.3-0.71-0.78h-0.14
				c-0.12,0.47-0.35,0.72-0.71,0.78c-1.04,0.23-1.3,0.68-1.33,1.01c-0.06,0.56,0.47,1.16,1.04,1.45c-0.71,0.36-1.42,0.89-2.14,1.58
				c-0.44,0.35-0.62,0.74-0.5,1.18c-0.23,0.8-0.21,1.54,0.09,2.22l-1.79,8.3v0.83c-0.26,0.38-0.42,0.83-0.47,1.34
				c0.02,0.62-0.08,1.06-0.26,1.3v0.05l0,0c-1.37,1.19-1.7,2.38-0.97,3.47c-0.75,0.24-1.31,0.97-1.31,1.79
				c0,0.75,0.45,1.42,1.1,1.72c-0.87,0.11-1.61,0.62-2.05,1.34c-0.08-0.53-0.18-0.97-0.32-1.22c0,0-0.86,4.45-1.1,4.65l1.58,0.45
				c0,0,0-0.3,0-0.77c0.44,0.57,1.09,0.97,1.83,1.07l-0.08,0.05c1.31,2.41,3.74,3.94,6.59,4.18c-0.06,0.08-0.11,0.17-0.11,0.27
				c0,0.21,0.17,0.38,0.38,0.38c0.21,0,0.38-0.17,0.38-0.38c0-0.09-0.03-0.18-0.08-0.24c0.06,0,0.12,0,0.18,0l0.11,0.18l0.11-0.2
				c0,0,0.14,0,0.21,0c-0.05,0.06-0.09,0.15-0.09,0.24c0,0.21,0.17,0.38,0.38,0.38c0.21,0,0.38-0.17,0.38-0.38
				c0-0.11-0.05-0.21-0.12-0.29c2.85-0.27,5.35-1.81,6.67-4.16l-0.11-0.06c0.75-0.12,1.42-0.56,1.84-1.16c0,0.48,0,0.8,0,0.8
				l1.58-0.45c-0.23-0.18-1.1-4.65-1.1-4.65c-0.15,0.29-0.27,0.8-0.35,1.39L151.43,73z M138.72,50.43c-0.12,0.05-0.21,0.09-0.3,0.14
				v-0.05c-0.11-0.38,0.03-0.69,0.39-1.01c0.11-0.03,0.2-0.06,0.3-0.08c-0.33,0.3-0.48,0.66-0.39,0.98V50.43z M146.61,57.95
				c0,0-0.02,0-0.03,0C146.58,57.95,146.59,57.95,146.61,57.95L146.61,57.95z"/>
			<path class="st3" d="M127.62,66.35c0.98-0.32,0-1.19,0-1.19S126.64,66.03,127.62,66.35z"/>
			<path class="st3" d="M127.56,66.39c-2.46,0-4.45,2.05-4.45,4.56s1.99,4.56,4.45,4.56s4.45-2.05,4.45-4.56
				S130.02,66.39,127.56,66.39z"/>
			<path class="st3" d="M127.66,75.68h-0.11c-0.12,0.41-0.38,0.68-0.72,1.09c-0.15,0.57,0.39,0.74,0.78,0.97
				c0.39-0.23,0.94-0.39,0.78-0.97c-0.35-0.41-0.62-0.68-0.72-1.09H127.66z M127.6,77.16c-0.33-0.06-0.45-0.65,0-0.89
				C128.09,76.53,127.91,77.09,127.6,77.16z"/>
			<path class="st3" d="M127.35,75.68h-0.38c-0.08,0.59-0.74,0.89-0.98,0.51c0.32,0.09,0.62,0,0.86-0.51h-0.21
				c-0.08,0.29-0.27,0.39-0.59,0.36c0.21-0.36-0.27-0.45-0.27,0C125.78,76.71,127.02,76.98,127.35,75.68L127.35,75.68z"/>
			<path class="st3" d="M129.17,76.04c-0.3,0.03-0.51-0.08-0.59-0.36h-0.21c0.24,0.53,0.54,0.62,0.86,0.51
				c-0.24,0.38-0.9,0.08-0.98-0.51h-0.38c0.33,1.3,1.57,1.03,1.57,0.36C129.44,75.59,128.96,75.68,129.17,76.04L129.17,76.04z"/>
			<path class="st3" d="M122.96,77.42c0.27,0.11,0.53,0.42,0.53,0.42v-1.18l-1.04,0.33c0,0,0.23,0.33,0.51,0.44V77.42z"/>
			<path class="st3" d="M122.46,76.77l1.58-0.45c-0.23-0.18-1.1-4.63-1.1-4.63c-0.57,1.06-0.5,5.08-0.5,5.08H122.46z M123.62,75.67
				l-1.06,0.32v-0.45l1-0.29l0.06,0.44V75.67z"/>
			<path class="st3" d="M131.77,77.84c0,0,0.24-0.32,0.53-0.42s0.51-0.44,0.51-0.44l-1.04-0.33v1.18V77.84z"/>
			<path class="st3" d="M132.99,67.78c-0.05,0.21-0.11,0.47-0.17,0.74c-0.29,0.18-0.5,0.47-0.65,0.84c0,0.24,0.03,0.47,0.12,0.65
				l1.31-1.58l-0.6-0.66L132.99,67.78z"/>
			<path class="st3" d="M122.88,71.5l-0.21-0.27c-0.45,0.83-1.12,0.65-1.19-0.29l-0.35,0.72c-0.09-1.13,1.09-2.13,1.75-0.62
				c0.27-1.46-2.01-2.14-2.01,0c0,1.27,1.4,1.73,2.01,0.44L122.88,71.5z"/>
			<ellipse class="st3" cx="122.08" cy="71.01" rx="0.44" ry="0.51"/>
			<path class="st3" d="M133.77,70.95c-0.03,0.33-0.14,0.56-0.27,0.69l0.44-0.33L133.77,70.95z"/>
			<path class="st3" d="M132.37,71.07c0.33-0.77,0.8-0.89,1.16-0.68c-0.05-0.2-0.08-0.47-0.08-0.68
				C132.85,69.68,132.22,70.25,132.37,71.07z"/>
			<path class="st3" d="M160.03,76.26l1.58,0.45c0,0,0.09-4.04-0.5-5.08c0,0-0.87,4.45-1.1,4.65L160.03,76.26z"/>
			<path class="st3" d="M160.59,77.76c0,0,0.24-0.32,0.53-0.42c0.27-0.11,0.51-0.44,0.51-0.44l-1.04-0.33V77.76z"/>
			<path class="st3" d="M151.78,77.34c0.27,0.11,0.53,0.42,0.53,0.42v-1.19l-1.04,0.33C151.27,76.9,151.51,77.24,151.78,77.34z"/>
			<path class="st3" d="M156.46,66.27c0.98-0.32,0-1.19,0-1.19S155.48,65.95,156.46,66.27z"/>
			<path class="st3" d="M161.65,68.44c-0.29,0.18-0.5,0.47-0.65,0.84c0,0.24,0.03,0.47,0.12,0.65l1.3-1.58l-0.6-0.66
				c-0.05,0.21-0.11,0.47-0.17,0.74L161.65,68.44z"/>
			<path class="st3" d="M151.9,69.29c-0.15-0.38-0.36-0.66-0.65-0.84c-0.08-0.27-0.12-0.53-0.17-0.74l-0.6,0.66l1.31,1.57
				c0.08-0.18,0.12-0.39,0.12-0.65L151.9,69.29z"/>
			<path class="st3" d="M151.39,67.45c0.38,0.12,0.53,0.8,0.63,1.67l0.38-0.66c0-0.21,0-0.41-0.02-0.6l0.03,0.03
				c0.59-0.86,1.45-1.51,2.4-1.87c0.18,0.24,0.54,0.36,1.15,0.27c-0.53-0.68-0.35-1.19,0.5-1.55c0.84,0.36,1.04,0.87,0.5,1.55
				c0.63,0.11,1-0.05,1.18-0.3c0.97,0.33,1.79,0.94,2.41,1.76l0,0c-0.03,0.23-0.05,0.47-0.03,0.71l0.38,0.66
				c0.09-0.87,0.26-1.55,0.63-1.67c0.39-0.11,0.71,0.24,0.98,0.78c0.57-1.69-1.3-2.65-1.81-1.03c-0.05,0.12-0.08,0.24-0.11,0.38
				c-0.62-0.8-1.43-1.39-2.38-1.72c0.14-0.36,0.02-0.86-0.21-1.28c0.06-0.21-0.14-0.29-0.15-0.08c0.11,0.77-0.14,1.24-0.33,1.13
				c0.23-0.65-0.02-1.1-0.69-1.4c-0.15-0.14-0.24-0.59-0.33-0.59c-0.09,0-0.2,0.45-0.33,0.59c-0.68,0.3-0.94,0.75-0.69,1.4
				c-0.18,0.11-0.44-0.38-0.33-1.13c-0.03-0.21-0.23-0.14-0.17,0.08c-0.24,0.44-0.36,0.97-0.2,1.33c-0.94,0.35-1.78,0.98-2.37,1.81
				l0,0c-0.03-0.18-0.06-0.35-0.12-0.51c-0.51-1.63-2.38-0.66-1.81,1.03c0.27-0.53,0.57-0.87,0.98-0.77L151.39,67.45z"/>
			<path class="st3" d="M161.99,71.44c0.24,0,0.44-0.23,0.44-0.51s-0.2-0.51-0.44-0.51c-0.24,0-0.44,0.23-0.44,0.51
				S161.75,71.44,161.99,71.44z"/>
			<path class="st3" d="M161.19,70.99c0.66-1.51,1.84-0.53,1.75,0.62l-0.35-0.72c-0.09,0.92-0.74,1.12-1.19,0.29l-0.21,0.27
				c0.6,1.28,2.01,0.83,2.01-0.44c0-2.14-2.28-1.46-2.01,0L161.19,70.99z"/>
			<path class="st3" d="M156.77,76.36v-0.05l-0.42-0.02h-0.42v0.06c-0.41,0.12-0.62,0.42-0.72,0.81c0.38-0.14,0.68-0.36,0.89-0.77
				h0.21v0.12c-0.74,0.51-0.51,0.84,0.05,1.1l0,0c0,0,0,0,0.02,0s0,0,0,0l0,0c0.56-0.27,0.78-0.6,0.05-1.12v-0.14h0.21
				c0.2,0.41,0.5,0.65,0.89,0.78c-0.12-0.39-0.33-0.69-0.72-0.81L156.77,76.36z M156.35,77.24c-0.29-0.14-0.29-0.3,0-0.53
				C156.65,76.92,156.68,77.1,156.35,77.24z"/>
			<path class="st3" d="M150.03,71.52c0,0,0.56,0.14,1.03,0.62c0.26-0.11,0.48-0.33,0.65-0.69l-0.21-0.27
				c-0.41,0.75-1,0.66-1.16-0.06c-0.08,0.15-0.18,0.29-0.3,0.42L150.03,71.52z"/>
			<path class="st3" d="M150.7,69.63c0,0.18,0,0.39-0.06,0.63c0.35-0.14,0.77,0.03,1.07,0.72C151.86,70.21,151.27,69.65,150.7,69.63
				L150.7,69.63z"/>
			<path class="st3" d="M150.91,71.44c0.24,0,0.44-0.23,0.44-0.51s-0.2-0.51-0.44-0.51s-0.44,0.23-0.44,0.51
				S150.67,71.44,150.91,71.44z"/>
			<path class="st3" d="M122.41,68.52c-0.08-0.27-0.12-0.53-0.17-0.74l-0.6,0.66l1.31,1.58c0.08-0.18,0.12-0.39,0.12-0.65
				c-0.15-0.38-0.36-0.66-0.65-0.84L122.41,68.52z"/>
			<path class="st3" d="M122.57,67.52c0.38,0.12,0.53,0.8,0.62,1.67l0.38-0.66c0-0.24,0-0.48-0.03-0.72l0,0
				c0.62-0.81,1.45-1.43,2.41-1.76c0.17,0.27,0.54,0.41,1.18,0.3c-0.54-0.68-0.35-1.19,0.5-1.55c0.84,0.36,1.04,0.87,0.5,1.55
				c0.6,0.11,0.97-0.03,1.15-0.27c0.97,0.35,1.81,1.01,2.4,1.87h0.03c-0.02,0.17-0.03,0.38-0.02,0.57l0.38,0.66
				c0.09-0.87,0.26-1.55,0.62-1.67c0.39-0.11,0.71,0.24,0.98,0.78c0.57-1.69-1.3-2.65-1.81-1.03c-0.06,0.17-0.11,0.33-0.14,0.5
				c-0.6-0.81-1.43-1.46-2.37-1.81c0.17-0.36,0.05-0.87-0.2-1.33c0.06-0.21-0.14-0.29-0.17-0.08c0.11,0.77-0.14,1.24-0.33,1.13
				c0.23-0.65-0.02-1.1-0.69-1.4c-0.15-0.14-0.26-0.59-0.33-0.59c-0.11,0-0.2,0.45-0.33,0.59c-0.68,0.3-0.94,0.75-0.69,1.4
				c-0.18,0.11-0.44-0.38-0.33-1.13c-0.03-0.21-0.23-0.14-0.15,0.08c-0.24,0.42-0.36,0.92-0.21,1.28c-0.95,0.33-1.76,0.92-2.38,1.72
				c-0.02-0.14-0.06-0.26-0.11-0.38c-0.51-1.63-2.38-0.66-1.81,1.03c0.27-0.53,0.57-0.87,0.98-0.78L122.57,67.52z"/>
			<path class="st3" d="M160.41,71.31c0.15-0.29,0.23-0.6,0.23-0.97c0,0-0.03,0-0.03,0.02c0-0.08,0-0.15,0-0.23
				c0.06-0.05,0.09-0.12,0.09-0.2c0-0.09-0.05-0.17-0.12-0.21c-0.02-0.17-0.06-0.32-0.11-0.45c-0.05-0.14-0.09-0.27-0.15-0.39
				c-0.12-0.27-0.27-0.51-0.42-0.71h0.02c-0.14-0.17-0.27-0.32-0.42-0.45c-0.11-0.11-0.18-0.17-0.18-0.17l0,0
				c-2.01-1.76-4.86-1.48-6.53,0.62c0.02,0,0.03,0.02,0.05,0.03c-0.05,0.05-0.08,0.09-0.11,0.14l0,0c0,0,0,0,0,0.03
				c-0.2,0.27-0.26,0.48-0.26,0.48l0,0c-0.72,1.6-0.3,2.9,1.04,3.23c0,0.06,0,0.14,0,0.2c-0.03,0.18-0.06,0.36-0.06,0.56
				c0,0,0,0,0,0.02c-0.11,0.56,0.08,0.86,0.35,1.22c0.18,0.35,0.38,0.65,0.57,0.9l0,0c0.26,0.53,0.66,0.81,1,0.97
				c0.17,0.12,0.33,0.23,0.51,0.33c0.08,0,0.12-0.05,0.03-0.15v-0.23c0.44,0.44,1.09,0.44,1.45-0.11c0.12-0.18,0.12-0.86-0.32-0.98
				h-0.14c0.54,0.27,0.47,1.09-0.24,0.98c-0.66-0.05-0.69-1-0.11-1.67c0.57-0.45,1.34-0.92,2.23-1.39c0.65-0.32,1.16-0.69,1.48-1.15
				c-0.35,0.98,0.03,0.05,0.15-0.24L160.41,71.31z"/>
		</g>
		<path class="st4" d="M134.68,77.02c3.11,5.67,11.75,5.34,14.74,0"/>
		<path class="st4" d="M148.31,74.99"/>
		<path class="st4" d="M136.71,76.41c2.79,3.29,7.92,3.14,10.65,0"/>
		<path d="M136.23,70.07L136.23,70.07c0.2,0.03,0.41-0.03,0.54-0.21c-0.14-0.18-0.35-0.24-0.54-0.21l0,0
			c0.18-0.08,0.33-0.23,0.36-0.45c-0.21-0.09-0.42-0.03-0.57,0.09l0,0c0.12-0.15,0.18-0.36,0.09-0.57
			c-0.23,0.03-0.38,0.18-0.45,0.36l0,0c0.03-0.2-0.03-0.41-0.21-0.54c-0.18,0.14-0.24,0.35-0.21,0.54l0,0
			c-0.08-0.18-0.23-0.33-0.45-0.36c-0.09,0.21-0.03,0.42,0.09,0.57l0,0c-0.15-0.12-0.36-0.18-0.57-0.09
			c0.03,0.23,0.18,0.38,0.36,0.45l0,0c-0.2-0.03-0.41,0.03-0.54,0.21c0.14,0.18,0.35,0.24,0.54,0.21l0,0
			c-0.18,0.08-0.33,0.23-0.36,0.45c0.21,0.09,0.42,0.03,0.57-0.09l0,0c-0.12,0.15-0.18,0.36-0.09,0.57
			c0.23-0.03,0.38-0.18,0.45-0.36l0,0c-0.03,0.2,0.03,0.41,0.21,0.54c0.18-0.14,0.24-0.35,0.21-0.54l0,0
			c0.08,0.18,0.23,0.33,0.45,0.36c0.09-0.21,0.03-0.42-0.09-0.57l0,0c0.15,0.12,0.36,0.18,0.57,0.09
			C136.56,70.3,136.41,70.15,136.23,70.07z M135.45,70.33c-0.27,0-0.48-0.21-0.48-0.48s0.21-0.48,0.48-0.48
			c0.27,0,0.48,0.21,0.48,0.48S135.72,70.33,135.45,70.33z"/>
		<path d="M134.72,73.51c0.2-0.33,0.09-0.75-0.32-0.86C134.16,73,134.36,73.39,134.72,73.51z"/>
		<path d="M134.47,73.66c0.08-0.38-0.17-0.74-0.59-0.71C133.77,73.36,134.09,73.66,134.47,73.66z"/>
		<path d="M134.16,74.16c-0.18-0.33-0.6-0.45-0.9-0.17C133.44,74.37,133.88,74.4,134.16,74.16z"/>
		<path d="M134.16,74.46c-0.29-0.26-0.72-0.21-0.9,0.17C133.56,74.91,133.98,74.81,134.16,74.46z"/>
		<path d="M135.55,73.66c0.38,0,0.69-0.3,0.59-0.71C135.72,72.92,135.48,73.28,135.55,73.66z"/>
		<path d="M135.3,73.51c0.36-0.12,0.54-0.51,0.32-0.86C135.21,72.76,135.1,73.18,135.3,73.51z"/>
		<g>
			<circle class="st5" cx="135.01" cy="74.31" r="2.64"/>
			<circle class="st6" cx="135.01" cy="74.31" r="1.99"/>
			<circle class="st7" cx="135.01" cy="74.31" r="0.65"/>
			<circle cx="135.01" cy="74.31" r="0.33"/>
			<circle class="st8" cx="135.45" cy="69.85" r="1.79"/>
			<circle class="st9" cx="135.45" cy="69.85" r="1.39"/>
			<path d="M135.01,73.47c0.3-0.24,0.35-0.68,0-0.92C134.66,72.79,134.71,73.22,135.01,73.47z"/>
			<path d="M134.27,73.89c-0.06-0.38-0.41-0.63-0.8-0.45C133.52,73.86,133.91,74.04,134.27,73.89z"/>
			<path d="M134.27,74.73c-0.36-0.14-0.75,0.05-0.8,0.45C133.85,75.37,134.21,75.11,134.27,74.73z"/>
			<path d="M134.47,74.96c-0.38,0-0.69,0.3-0.59,0.71C134.3,75.7,134.54,75.34,134.47,74.96z"/>
			<path d="M134.72,75.11c-0.36,0.12-0.54,0.51-0.32,0.86C134.81,75.86,134.92,75.44,134.72,75.11z"/>
			<path d="M135.01,75.15c-0.3,0.24-0.35,0.68,0,0.92C135.36,75.83,135.31,75.4,135.01,75.15z"/>
			<path d="M135.3,75.11c-0.2,0.33-0.09,0.75,0.32,0.86C135.85,75.62,135.66,75.23,135.3,75.11z"/>
			<path d="M135.55,74.96c-0.08,0.38,0.17,0.74,0.59,0.71C136.25,75.26,135.93,74.96,135.55,74.96z"/>
			<path d="M135.73,74.73c0.06,0.38,0.41,0.63,0.8,0.45C136.49,74.76,136.1,74.58,135.73,74.73z"/>
			<path d="M135.84,74.46c0.18,0.33,0.6,0.45,0.9,0.17C136.56,74.25,136.13,74.22,135.84,74.46z"/>
			<path d="M135.84,74.16c0.29,0.26,0.72,0.21,0.9-0.17C136.44,73.71,136.02,73.81,135.84,74.16z"/>
			<path d="M135.73,73.89c0.36,0.14,0.75-0.05,0.8-0.45C136.16,73.25,135.79,73.51,135.73,73.89z"/>
			<path class="st7" d="M134.93,68.04c-0.81-1.16-0.27-2.37,0.94-3.42c1.21,1.09,2.07,2.62,0.63,3.68"/>
			<path class="st7" d="M135.9,65.5c-1.21,1.07-1,1.83-0.05,2.41C136.97,67.36,136.85,66.36,135.9,65.5z"/>
			<path d="M135.88,66.04c-0.59,0.59-0.48,1.01-0.03,1.33C136.4,67.07,136.34,66.51,135.88,66.04z"/>
		</g>
		<path d="M149.34,70.06L149.34,70.06c0.2,0.03,0.39-0.03,0.54-0.21c-0.14-0.18-0.35-0.24-0.54-0.21l0,0
			c0.18-0.08,0.33-0.23,0.36-0.45c-0.21-0.09-0.42-0.03-0.57,0.09l0,0c0.12-0.15,0.18-0.36,0.09-0.57
			c-0.23,0.03-0.38,0.18-0.45,0.36l0,0c0.03-0.2-0.03-0.39-0.21-0.54c-0.18,0.14-0.24,0.35-0.21,0.54l0,0
			c-0.08-0.18-0.23-0.33-0.45-0.36c-0.09,0.21-0.03,0.42,0.09,0.57l0,0c-0.15-0.12-0.36-0.18-0.57-0.09
			c0.03,0.23,0.18,0.38,0.36,0.45l0,0c-0.2-0.03-0.39,0.03-0.54,0.21c0.14,0.18,0.35,0.24,0.54,0.21l0,0
			c-0.18,0.08-0.33,0.23-0.36,0.45c0.21,0.09,0.42,0.03,0.57-0.09l0,0c-0.12,0.15-0.18,0.36-0.09,0.57
			c0.23-0.03,0.38-0.18,0.45-0.36l0,0c-0.03,0.2,0.03,0.39,0.21,0.54c0.18-0.14,0.24-0.35,0.21-0.54l0,0
			c0.08,0.18,0.23,0.33,0.45,0.36c0.09-0.21,0.03-0.42-0.09-0.57l0,0c0.15,0.12,0.36,0.18,0.57,0.09
			C149.67,70.28,149.52,70.13,149.34,70.06z M148.55,70.28c-0.24,0-0.44-0.2-0.44-0.44s0.2-0.44,0.44-0.44
			c0.24,0,0.44,0.2,0.44,0.44S148.79,70.28,148.55,70.28z"/>
		<path d="M149.28,73.51c-0.2-0.33-0.09-0.75,0.32-0.86C149.84,73,149.64,73.39,149.28,73.51z"/>
		<path d="M149.53,73.66c-0.08-0.38,0.17-0.74,0.59-0.71C150.23,73.36,149.91,73.66,149.53,73.66z"/>
		<path d="M149.84,74.16c0.18-0.33,0.6-0.45,0.9-0.17C150.56,74.37,150.12,74.4,149.84,74.16z"/>
		<path d="M149.84,74.46c0.29-0.26,0.72-0.21,0.9,0.17C150.44,74.91,150.02,74.81,149.84,74.46z"/>
		<path d="M148.45,73.66c-0.38,0-0.69-0.3-0.59-0.71C148.28,72.92,148.52,73.28,148.45,73.66z"/>
		<path d="M148.7,73.51c-0.36-0.12-0.54-0.51-0.32-0.86C148.79,72.76,148.9,73.18,148.7,73.51z"/>
		<g>
			<circle class="st5" cx="148.99" cy="74.31" r="2.64"/>
			<circle class="st6" cx="148.99" cy="74.31" r="1.99"/>
			<circle class="st7" cx="148.99" cy="74.31" r="0.65"/>
			<circle cx="148.99" cy="74.31" r="0.33"/>
			<circle class="st8" cx="148.55" cy="69.85" r="1.79"/>
			<circle class="st9" cx="148.55" cy="69.85" r="1.39"/>
			<path d="M148.99,73.47c-0.3-0.24-0.35-0.68,0-0.92C149.34,72.79,149.29,73.22,148.99,73.47z"/>
			<path d="M149.73,73.89c0.06-0.38,0.41-0.63,0.8-0.45C150.48,73.86,150.09,74.04,149.73,73.89z"/>
			<path d="M149.73,74.73c0.36-0.14,0.75,0.05,0.8,0.45C150.15,75.37,149.79,75.11,149.73,74.73z"/>
			<path d="M149.53,74.96c0.38,0,0.69,0.3,0.59,0.71C149.7,75.7,149.46,75.34,149.53,74.96z"/>
			<path d="M149.28,75.11c0.36,0.12,0.54,0.51,0.32,0.86C149.19,75.86,149.08,75.44,149.28,75.11z"/>
			<path d="M148.99,75.15c0.3,0.24,0.35,0.68,0,0.92C148.64,75.83,148.69,75.4,148.99,75.15z"/>
			<path d="M148.7,75.11c0.2,0.33,0.09,0.75-0.32,0.86C148.15,75.62,148.34,75.23,148.7,75.11z"/>
			<path d="M148.45,74.96c0.08,0.38-0.17,0.74-0.59,0.71C147.75,75.26,148.07,74.96,148.45,74.96z"/>
			<path d="M148.27,74.73c-0.06,0.38-0.41,0.63-0.8,0.45C147.51,74.76,147.9,74.58,148.27,74.73z"/>
			<path d="M148.16,74.46c-0.18,0.33-0.6,0.45-0.9,0.17C147.44,74.25,147.87,74.22,148.16,74.46z"/>
			<path d="M148.16,74.16c-0.29,0.26-0.72,0.21-0.9-0.17C147.56,73.71,147.98,73.81,148.16,74.16z"/>
			<path d="M148.27,73.89c-0.36,0.14-0.75-0.05-0.8-0.45C147.84,73.25,148.21,73.51,148.27,73.89z"/>
			<path class="st7" d="M149.08,68.04c0.81-1.16,0.27-2.37-0.94-3.42c-1.21,1.09-2.07,2.62-0.63,3.68"/>
			<path class="st7" d="M148.1,65.5c1.21,1.07,1,1.83,0.05,2.41C147.03,67.36,147.15,66.36,148.1,65.5z"/>
			<path d="M148.12,66.04c0.59,0.59,0.48,1.01,0.03,1.33C147.6,67.07,147.66,66.51,148.12,66.04z"/>
		</g>
		<path class="st10" d="M148.1,64.57l-0.56,0.62c-1.6-0.83-3.45-1.19-5.55-1.19c-2.08,0-3.95,0.36-5.55,1.19l-0.56-0.62
			c0.2-0.26,0.3-0.68,0.27-1.34c0.05-0.48,0.2-0.92,0.47-1.31v-0.86l1.79-8.3c-0.29-0.66-0.32-1.4-0.09-2.2
			c-0.12-0.44,0.06-0.81,0.47-1.12c0.71-0.68,1.45-1.25,2.26-1.64c-0.98-0.41-2.04-1.93,0.15-2.38c0.39-0.06,0.65-0.35,0.77-0.83
			c0.12,0.5,0.38,0.77,0.77,0.83c2.19,0.45,1.12,1.98,0.15,2.38c0.81,0.41,1.57,0.98,2.26,1.64c0.41,0.32,0.59,0.68,0.47,1.12
			c0.24,0.81,0.21,1.54-0.09,2.2l1.79,8.3v0.86c0.27,0.39,0.42,0.83,0.47,1.31c-0.02,0.66,0.08,1.1,0.27,1.34H148.1z"/>
		<path d="M142.01,45.17c-0.11,0.14-0.33,0.29-0.68,0.42h1.3c-0.27-0.12-0.5-0.26-0.63-0.42H142.01z"/>
		<path class="st11" d="M139.96,46.38c1.06-0.94,3.32-0.77,4.1,0"/>
		<path class="st11" d="M140.17,47.01c1.16-0.63,2.61-0.69,3.71,0"/>
		<path class="st11" d="M140.32,47.21c1.21-0.56,2.34-0.63,3.38,0"/>
		<path d="M141.01,47.81c0.66-0.24,1.33-0.24,1.98,0l0.66,0.38c-1.1-0.26-2.22-0.23-3.35,0l0.77-0.42"/>
		<circle cx="140.24" cy="46.56" r="0.11"/>
		<circle cx="140.59" cy="46.38" r="0.14"/>
		<circle cx="141.04" cy="46.24" r="0.17"/>
		<circle cx="141.52" cy="46.18" r="0.21"/>
		<circle cx="142.01" cy="46.09" r="0.21"/>
		<circle cx="142.52" cy="46.18" r="0.21"/>
		<circle cx="143.02" cy="46.24" r="0.17"/>
		<circle cx="143.46" cy="46.38" r="0.14"/>
		<circle cx="143.79" cy="46.56" r="0.11"/>
		<path class="st11" d="M138.72,49.5c2.26-0.62,4.43-0.63,6.52,0"/>
		<path class="st11" d="M139.71,48.64c1.58-0.35,3.08-0.38,4.43,0"/>
		<path class="st11" d="M138.33,50.68c0.5-0.42,1.89-0.53,3.09-0.63"/>
		<path class="st11" d="M145.67,50.68c-0.5-0.42-1.89-0.53-3.09-0.63"/>
		<path class="st11" d="M141.33,50.04c-0.12-0.38,0.12-0.72,0.48-1.01 M141.4,49.09c-0.36,0.29-0.6,0.63-0.48,1 M141.03,49.08
			c-0.36,0.29-0.6,0.65-0.48,1.03 M140.71,49.12c-0.36,0.29-0.65,0.66-0.53,1.03 M140.44,49.15c-0.36,0.29-0.74,0.69-0.62,1.06
			 M139.97,49.24c-0.36,0.29-0.65,0.65-0.53,1.01 M139.61,49.29c-0.36,0.29-0.65,0.65-0.53,1.01 M139.23,49.39
			c-0.36,0.29-0.59,0.68-0.47,1.04"/>
		<path class="st11" d="M142.19,49.03c0.36,0.29,0.6,0.63,0.48,1.01 M143.08,50.09c0.12-0.38-0.12-0.72-0.48-1 M143.46,50.1
			c0.12-0.38-0.12-0.74-0.48-1.03 M143.82,50.15c0.12-0.38-0.17-0.75-0.53-1.03 M144.18,50.21c0.12-0.38-0.26-0.78-0.62-1.06
			 M144.54,50.25c0.12-0.38-0.17-0.74-0.53-1.01 M144.9,50.31c0.12-0.38-0.17-0.74-0.53-1.01 M145.24,50.43
			c0.12-0.38-0.11-0.77-0.47-1.04"/>
		<path d="M142.67,65.88c0.41,2.43,0.11,4.66-0.66,4.92c-0.77-0.26-0.98-2.49-0.59-4.92h-2.65l0.9,5.25h4.65l0.9-5.25H142.67
			L142.67,65.88z"/>
		<path class="st12" d="M136.67,65.43c3.54-1.45,7.1-1.45,10.65,0"/>
		<path class="st12" d="M140.02,64.54c-0.71,0.8-1.66,1.39-2.88,1.76 M137.26,67.1c1.66-0.66,3.12-1.55,4.33-2.76"/>
		<path class="st12" d="M146.86,66.3c-1.22-0.38-2.17-0.97-2.88-1.76 M142.43,64.34c1.21,1.19,2.67,2.1,4.33,2.76"/>
		<path class="st12" d="M137.14,66.36"/>
		<path class="st0" d="M140.95,64.45l0.42,0.71l0.2-0.24l0.42,0.51l0.45-0.44l0.18,0.2l0.54-0.74
			C142.4,64.31,141.66,64.31,140.95,64.45z M142.01,65.11l-0.42-0.48h0.9L142.01,65.11z"/>
		<polygon class="st0" points="141.84,64.72 142.01,64.9 142.19,64.72 		"/>
		<path class="st0" d="M137.63,62.5c-0.44,0-0.78,0.35-0.78,0.78s0.35,0.78,0.78,0.78c0.44,0,0.78-0.35,0.78-0.78
			S138.07,62.5,137.63,62.5z M137.63,63.86c-0.32,0-0.57-0.26-0.57-0.57c0-0.32,0.26-0.57,0.57-0.57c0.32,0,0.57,0.26,0.57,0.57
			C138.21,63.6,137.95,63.86,137.63,63.86z M137.87,63.28c0,0.14-0.11,0.23-0.23,0.23c-0.12,0-0.23-0.11-0.23-0.23
			s0.11-0.23,0.23-0.23C137.77,63.06,137.87,63.16,137.87,63.28z"/>
		<path class="st0" d="M137.63,62.5c-0.44,0-0.78,0.35-0.78,0.78s0.35,0.78,0.78,0.78c0.44,0,0.78-0.35,0.78-0.78
			S138.07,62.5,137.63,62.5z M137.63,63.86c-0.32,0-0.57-0.26-0.57-0.57c0-0.32,0.26-0.57,0.57-0.57c0.32,0,0.57,0.26,0.57,0.57
			C138.21,63.6,137.95,63.86,137.63,63.86z M137.87,63.28c0,0.14-0.11,0.23-0.23,0.23c-0.12,0-0.23-0.11-0.23-0.23
			s0.11-0.23,0.23-0.23C137.77,63.06,137.87,63.16,137.87,63.28z"/>
		<path class="st0" d="M139.73,61.78c-0.5,0-0.9,0.41-0.9,0.9c0,0.5,0.41,0.9,0.9,0.9c0.5,0,0.9-0.41,0.9-0.9
			C140.63,62.18,140.23,61.78,139.73,61.78z M139.73,63.33c-0.36,0-0.65-0.29-0.65-0.65c0-0.36,0.29-0.65,0.65-0.65
			c0.36,0,0.65,0.29,0.65,0.65C140.38,63.04,140.09,63.33,139.73,63.33z M139.99,62.68c0,0.15-0.12,0.27-0.27,0.27
			c-0.15,0-0.27-0.12-0.27-0.27c0-0.15,0.12-0.27,0.27-0.27C139.87,62.41,139.99,62.53,139.99,62.68z"/>
		<path class="st0" d="M142.02,61.46c-0.57,0-1.04,0.47-1.04,1.04s0.47,1.04,1.04,1.04c0.57,0,1.04-0.47,1.04-1.04
			S142.6,61.46,142.02,61.46z M142.02,63.25c-0.41,0-0.75-0.33-0.75-0.75c0-0.42,0.33-0.75,0.75-0.75s0.75,0.33,0.75,0.75
			C142.78,62.92,142.44,63.25,142.02,63.25z M142.34,62.5c0,0.17-0.14,0.3-0.3,0.3c-0.17,0-0.3-0.14-0.3-0.3s0.14-0.3,0.3-0.3
			C142.2,62.2,142.34,62.33,142.34,62.5z"/>
		<path class="st0" d="M144.39,61.78c-0.5,0-0.9,0.41-0.9,0.9c0,0.5,0.41,0.9,0.9,0.9s0.9-0.41,0.9-0.9
			C145.3,62.18,144.89,61.78,144.39,61.78z M144.39,63.33c-0.36,0-0.65-0.29-0.65-0.65c0-0.36,0.29-0.65,0.65-0.65
			s0.65,0.29,0.65,0.65C145.04,63.04,144.75,63.33,144.39,63.33z M144.66,62.68c0,0.15-0.12,0.27-0.27,0.27
			c-0.15,0-0.27-0.12-0.27-0.27c0-0.15,0.12-0.27,0.27-0.27C144.54,62.41,144.66,62.53,144.66,62.68z"/>
		<path class="st0" d="M146.44,62.5c-0.44,0-0.78,0.35-0.78,0.78s0.35,0.78,0.78,0.78c0.44,0,0.78-0.35,0.78-0.78
			S146.88,62.5,146.44,62.5z M146.44,63.86c-0.32,0-0.57-0.26-0.57-0.57c0-0.32,0.26-0.57,0.57-0.57c0.32,0,0.57,0.26,0.57,0.57
			C147.02,63.6,146.76,63.86,146.44,63.86z M146.68,63.28c0,0.14-0.11,0.23-0.23,0.23c-0.12,0-0.23-0.11-0.23-0.23
			s0.11-0.23,0.23-0.23C146.58,63.06,146.68,63.16,146.68,63.28z"/>
		<path class="st0" d="M139.02,68.29c-0.41,0-0.74,0.12-1,0.33c0.08-0.38,0.41-0.6,1-0.68C139.02,67.95,139.02,68.29,139.02,68.29z"
			/>
		<path class="st0" d="M144.98,68.29c0.41,0,0.74,0.12,1,0.33c-0.08-0.38-0.41-0.6-1-0.68C144.98,67.95,144.98,68.29,144.98,68.29z"
			/>
		<path class="st0" d="M138.34,69.17c0.3,0.18,0.6,0.32,0.89,0.32v0.09c-0.44-0.03-0.72-0.17-0.89-0.39V69.17z M138.21,69.45
			c0.3,0.36,0.65,0.59,1.09,0.57v-0.2C138.98,69.95,138.6,69.74,138.21,69.45z"/>
		<path class="st0" d="M144.77,69.56v-0.09c0.29,0,0.59-0.14,0.89-0.32c-0.17,0.23-0.45,0.36-0.89,0.39V69.56z M144.71,69.85v0.2
			c0.44,0.02,0.78-0.21,1.09-0.57C145.4,69.77,145.02,69.97,144.71,69.85z"/>
		<ellipse class="st0" cx="142.01" cy="75.34" rx="0.97" ry="0.63"/>
		<ellipse class="st0" cx="142.01" cy="78.25" rx="0.42" ry="0.29"/>
		<path class="st0" d="M137.95,74.43h-0.09c2.5,3.32,6.11,3.44,8.28,0l-0.09-0.06C144.06,77.54,140.56,77.72,137.95,74.43
			L137.95,74.43z"/>
		<path class="st0" d="M140.44,76.96c1.09,0.95,2.16,0.98,3.24,0.08C142.66,77.67,141.57,77.58,140.44,76.96z"/>
		<path class="st0" d="M140.53,73.47c-0.05-0.08-0.2-0.09-0.15,0.11l0.26,0.39c-0.42,0.18-0.68,0-0.51-1.06
			c0.27-1.27-1.06-1.43-0.95-0.06c0.11,1.37,1.19,2.01,1.72,1.39c0.05-0.05,0.03-0.12,0-0.15c-0.18-0.18-0.3-0.38-0.35-0.62H140.53z
			"/>
		<path class="st0" d="M144.07,73.72c-0.12,0.06-0.21-0.02-0.27-0.26l-0.11,0.09c-1.04,1.19-0.44,1.76,0.48,0.45
			c1.33-1.69,0.29-3.68-0.05-1.36L144.07,73.72L144.07,73.72z"/>
		<path class="st0" d="M141.12,73.51c0.59,0.32,1.34,0.32,1.78,0c0.06,0.51-0.41,0.81-0.87,0.45
			C141.57,74.31,141.18,74.07,141.12,73.51L141.12,73.51z"/>
		<path class="st0" d="M143.33,72.05c-0.12,0.14-0.26,0.21-0.38,0.23c0.02-1.86-2.23-0.72-0.6,0.63c-0.35,0.09-1.03-0.11-0.78,0.14
			c0.18,0.2,0.86,0.12,1.57-0.05c0.17,0.15,0.36,0.23,0.56,0.24C143.49,72.85,143.36,72.44,143.33,72.05L143.33,72.05z
			 M142.26,72.38c0.02-0.12,0-0.24-0.06-0.38c0.35,0,0.54,0.05,0.59,0.17C142.73,72.3,142.55,72.36,142.26,72.38z"/>
		<path d="M142.1,49.23c0.59,0.53,0.39,0.81-0.09,0.87c-0.53-0.11-0.51-0.48-0.09-0.87c0.06-0.05,0.14-0.05,0.2,0H142.1z"/>
		<path class="st11" d="M138.24,51.07c2.59-0.83,5.13-0.84,7.59,0"/>
		<path class="st11" d="M138.24,52.11c2.56-0.95,5.08-0.94,7.59,0"/>
		<circle cx="138.28" cy="51.53" r="0.14"/>
		<circle cx="138.69" cy="51.4" r="0.18"/>
		<circle cx="139.31" cy="51.19" r="0.24"/>
		<circle cx="139.94" cy="51.07" r="0.3"/>
		<circle cx="140.67" cy="50.95" r="0.3"/>
		<ellipse cx="137.97" cy="55.71" rx="0.18" ry="0.3"/>
		<circle cx="138.58" cy="55.49" r="0.3"/>
		<circle cx="139.31" cy="55.34" r="0.3"/>
		<circle cx="140.09" cy="55.25" r="0.3"/>
		<circle cx="140.89" cy="55.15" r="0.3"/>
		<circle cx="141.63" cy="55.11" r="0.3"/>
		<circle cx="142.43" cy="55.11" r="0.3"/>
		<circle cx="143.23" cy="55.15" r="0.3"/>
		<circle cx="143.95" cy="55.25" r="0.3"/>
		<circle cx="144.75" cy="55.34" r="0.3"/>
		<circle cx="145.49" cy="55.55" r="0.3"/>
		<ellipse cx="146.11" cy="55.71" rx="0.15" ry="0.3"/>
		<circle cx="141.33" cy="50.89" r="0.3"/>
		<circle cx="142.05" cy="50.89" r="0.3"/>
		<circle cx="142.73" cy="50.92" r="0.3"/>
		<circle cx="143.41" cy="50.98" r="0.3"/>
		<circle cx="144.13" cy="51.07" r="0.3"/>
		<circle cx="144.75" cy="51.19" r="0.24"/>
		<circle cx="145.36" cy="51.4" r="0.18"/>
		<circle cx="145.75" cy="51.53" r="0.14"/>
		<path class="st11" d="M138.4,52.8c2.41-0.87,4.83-0.86,7.21,0"/>
		<path class="st11" d="M137.9,55.15c2.76-0.89,5.49-0.89,8.19,0"/>
		<path class="st11" d="M137.66,56.3c2.76-0.8,6.03-0.78,8.73,0"/>
		<polyline class="st11" points="138.1,56.2 139.43,57.57 140.89,55.79 		"/>
		<polyline class="st11" points="143.11,55.74 144.66,57.64 145.96,56.18 		"/>
		<path d="M138.69,56.41c0.26,0.21,0.51,0.44,0.74,0.69c0.15-0.32,0.39-0.62,0.72-0.94L138.69,56.41z"/>
		<path d="M143.89,56.17c0,0,0.81,0.89,0.77,0.94l0.71-0.69l-1.48-0.23V56.17z"/>
		<path class="st11" d="M136.53,62.06c3.71-1.3,7.38-1.43,10.98,0"/>
		<path class="st11" d="M138.1,61.56c0.87-0.48,1.45-1.1,1.7-1.86c0.36,0.6,0.84,1.07,1.48,1.37"/>
		<path class="st11" d="M143,61.05c0.57-0.36,1.01-0.81,1.31-1.34c0.36,0.8,0.89,1.45,1.67,1.86"/>
		<path d="M139.79,60.27c-0.02,0.23-0.15,0.44-0.38,0.63l0.9-0.08c-0.2-0.12-0.38-0.29-0.53-0.57V60.27z"/>
		<path d="M144.25,60.31c-0.09,0.18-0.26,0.36-0.53,0.53l0.92,0.06C144.42,60.74,144.29,60.54,144.25,60.31z"/>
		<g>
			<circle class="st9" cx="139.71" cy="53.54" r="0.86"/>
			<circle class="st9" cx="139.71" cy="53.54" r="0.53"/>
			<circle cx="139.71" cy="53.54" r="0.2"/>
		</g>
		<g>
			<circle class="st9" cx="142.07" cy="53.33" r="0.86"/>
			<circle class="st9" cx="142.07" cy="53.33" r="0.53"/>
			<circle cx="142.07" cy="53.33" r="0.2"/>
		</g>
		<g>
			<circle class="st9" cx="144.39" cy="53.54" r="0.86"/>
			<circle class="st9" cx="144.39" cy="53.54" r="0.53"/>
			<circle cx="144.39" cy="53.54" r="0.2"/>
		</g>
		<g>
			<path d="M142.1,56.01l0.03-0.03c0,0,0.11-0.05,0.15,0c0.36,0.38,0.36,0.8,0.11,1.24c-0.03,0.06-0.11,0.05-0.14,0l-0.14-0.3
				c0,0-0.11-0.06-0.14,0l-0.09,0.3c0,0-0.09,0.06-0.12,0.02c-0.32-0.39-0.35-0.83,0-1.24c0.05-0.05,0.11-0.05,0.15,0l0.03,0.03
				c0,0,0.12,0.05,0.17,0L142.1,56.01z M140.33,56.75h-0.03c0,0-0.11,0.05-0.11,0.11c0.03,0.53,0.36,0.81,0.86,0.87
				c0.06,0,0.11-0.05,0.08-0.11l-0.15-0.29c0,0,0.03-0.12,0.09-0.09l0.32,0.12c0,0,0.12-0.03,0.11-0.09
				c-0.12-0.5-0.42-0.78-0.95-0.8c-0.06,0-0.11,0.05-0.11,0.11v0.05c0,0-0.05,0.12-0.12,0.12L140.33,56.75z M139.75,58.41
				l-0.03,0.03c0,0-0.05,0.11,0,0.15c0.39,0.36,0.84,0.32,1.24,0c0.05-0.03,0.03-0.11-0.02-0.12l-0.3-0.09c0,0-0.06-0.11,0-0.14
				l0.3-0.14c0,0,0.06-0.11,0-0.14c-0.44-0.26-0.84-0.26-1.24,0.11c-0.05,0.05-0.05,0.11,0,0.15l0.03,0.03c0,0,0.06,0.12,0,0.17
				L139.75,58.41z M140.48,60v0.03c0,0,0.05,0.11,0.11,0.11c0.53-0.03,0.81-0.36,0.87-0.86c0-0.06-0.05-0.11-0.11-0.08l-0.29,0.15
				c0,0-0.12-0.03-0.09-0.09l0.12-0.32c0,0-0.03-0.12-0.09-0.11c-0.5,0.12-0.78,0.42-0.8,0.95c0,0.06,0.05,0.11,0.11,0.11h0.05
				c0,0,0.12,0.05,0.12,0.12L140.48,60z M142.14,60.6l0.03,0.03c0,0,0.11,0.05,0.15,0c0.36-0.39,0.32-0.84,0-1.24
				c-0.03-0.05-0.11-0.03-0.12,0.02l-0.09,0.3c0,0-0.11,0.06-0.14,0l-0.14-0.3c0,0-0.11-0.06-0.14,0c-0.26,0.44-0.26,0.84,0.11,1.24
				c0.05,0.05,0.11,0.05,0.15,0l0.03-0.03c0,0,0.12-0.06,0.17,0L142.14,60.6z M143.73,59.85h0.03c0,0,0.11-0.05,0.11-0.11
				c-0.03-0.53-0.36-0.81-0.86-0.87c-0.06,0-0.11,0.05-0.08,0.11l0.15,0.29c0,0-0.03,0.12-0.09,0.09l-0.32-0.12
				c0,0-0.12,0.03-0.11,0.09c0.12,0.5,0.42,0.78,0.95,0.8c0.06,0,0.11-0.05,0.11-0.11v-0.05c0,0,0.05-0.12,0.12-0.12L143.73,59.85z
				 M144.33,58.2l0.03-0.03c0,0,0.05-0.11,0-0.15c-0.39-0.36-0.84-0.32-1.24,0c-0.05,0.03-0.03,0.11,0.02,0.12l0.3,0.09
				c0,0,0.06,0.11,0,0.14l-0.3,0.14c0,0-0.06,0.11,0,0.14c0.44,0.26,0.84,0.26,1.24-0.11c0.05-0.05,0.05-0.11,0-0.15l-0.03-0.03
				c0,0-0.06-0.12,0-0.17L144.33,58.2z M143.58,56.62v-0.03c0,0-0.05-0.11-0.11-0.11c-0.53,0.03-0.81,0.36-0.87,0.86
				c0,0.06,0.05,0.11,0.11,0.08l0.29-0.15c0,0,0.12,0.03,0.09,0.09l-0.12,0.32c0,0,0.03,0.12,0.09,0.11c0.5-0.12,0.78-0.42,0.8-0.95
				c0-0.06-0.05-0.11-0.11-0.11h-0.05c0,0-0.12-0.05-0.12-0.12L143.58,56.62z M143.11,58.31c0,0.6-0.48,1.09-1.09,1.09
				c-0.6,0-1.09-0.48-1.09-1.09c0-0.6,0.48-1.09,1.09-1.09C142.63,57.22,143.11,57.7,143.11,58.31z M142.51,58.31
				c0-0.26-0.21-0.48-0.48-0.48s-0.48,0.21-0.48,0.48c0,0.27,0.21,0.48,0.48,0.48S142.51,58.58,142.51,58.31z"/>
			<path d="M137.75,58.02c0.06-0.5,0.35-0.84,0.87-0.86c0.06,0,0.11,0.05,0.11,0.11v0.03c0,0,0.05,0.12,0.12,0.12h0.05
				c0,0,0.11,0.03,0.11,0.09c0,0.53-0.32,0.81-0.8,0.95c-0.06,0.02-0.12-0.05-0.09-0.11l0.12-0.32c0,0-0.03-0.11-0.09-0.09
				l-0.29,0.15C137.86,58.1,137.75,58.08,137.75,58.02L137.75,58.02z M138.16,59.57c0,0-0.11,0.05-0.08,0.11l0.15,0.29
				c0,0-0.03,0.12-0.09,0.09l-0.32-0.12c0,0-0.12,0.03-0.11,0.09c0.12,0.5,0.42,0.78,0.95,0.8c0.06,0,0.11-0.05,0.11-0.11v-0.05
				c0,0,0.05-0.12,0.12-0.12h0.03c0,0,0.11-0.05,0.11-0.11c-0.03-0.53-0.36-0.81-0.86-0.87L138.16,59.57z M137.35,60.1l-0.09,0.3
				c0,0-0.11,0.06-0.14,0l-0.14-0.3c0,0-0.09-0.06-0.12-0.03l-0.17,0.81c0.05,0.15,0.12,0.29,0.26,0.44c0.05,0.05,0.11,0.05,0.15,0
				l0.03-0.03c0,0,0.12-0.06,0.17,0l0.03,0.03c0,0,0.11,0.05,0.15,0c0.36-0.39,0.32-0.84,0-1.24c-0.03-0.05-0.11-0.03-0.12,0.02
				L137.35,60.1z M139.5,59.09l-0.03-0.03c0,0-0.06-0.12,0-0.17l0.03-0.03c0,0,0.05-0.11,0-0.15c-0.39-0.36-0.84-0.32-1.24,0
				c-0.05,0.03-0.03,0.11,0.02,0.12l0.3,0.09c0,0,0.06,0.11,0,0.14l-0.3,0.14c0,0-0.06,0.11,0,0.14c0.44,0.26,0.84,0.26,1.24-0.11
				c0.05-0.05,0.05-0.11,0-0.15L139.5,59.09z M138.27,59c0-0.56-0.42-1.01-0.97-1.07l-0.12,0.6l0,0c0.26,0,0.48,0.21,0.48,0.48
				s-0.21,0.48-0.48,0.48c-0.08,0-0.14-0.02-0.2-0.05l-0.12,0.6c0.11,0.03,0.21,0.05,0.32,0.05c0.6,0,1.09-0.48,1.09-1.09V59z
				 M137.53,57.9c0.23-0.39,0.26-0.75,0-1.1l-0.2,0.97l0.06,0.14C137.39,57.9,137.5,57.96,137.53,57.9L137.53,57.9z"/>
			<path d="M146.23,59.97c-0.06,0.5-0.35,0.84-0.87,0.86c-0.06,0-0.11-0.05-0.11-0.11v-0.03c0,0-0.05-0.12-0.12-0.12h-0.05
				c0,0-0.11-0.03-0.11-0.09c0-0.53,0.32-0.81,0.8-0.95c0.06-0.02,0.12,0.05,0.09,0.11l-0.12,0.32c0,0,0.03,0.11,0.09,0.09
				l0.29-0.15C146.13,59.89,146.23,59.91,146.23,59.97L146.23,59.97z M147.09,60.09c0,0-0.11-0.03-0.12,0.02l-0.09,0.3
				c0,0-0.11,0.06-0.14,0l-0.14-0.3c0,0-0.11-0.06-0.14,0c-0.26,0.44-0.26,0.84,0.11,1.24c0.05,0.05,0.11,0.05,0.15,0l0.03-0.03
				c0,0,0.12-0.06,0.17,0l0.03,0.03c0,0,0.11,0.05,0.15,0c0.09-0.11,0.17-0.21,0.2-0.32l-0.2-0.9l0,0L147.09,60.09z M145.72,59.27
				c0,0,0.03-0.11-0.02-0.12l-0.3-0.09c0,0-0.06-0.11,0-0.14l0.3-0.14c0,0,0.06-0.11,0-0.14c-0.44-0.26-0.84-0.26-1.24,0.11
				c-0.05,0.05-0.05,0.11,0,0.15l0.03,0.03c0,0,0.06,0.12,0,0.17l-0.03,0.03c0,0-0.05,0.11,0,0.15c0.39,0.36,0.84,0.32,1.24,0
				L145.72,59.27z M146.53,57.9c0,0,0.08,0.03,0.11,0l-0.23-1.07C146.2,57.18,146.26,57.55,146.53,57.9L146.53,57.9z M145.84,58.43
				c0,0,0.11-0.05,0.08-0.11l-0.15-0.29c0,0,0.03-0.12,0.09-0.09l0.32,0.12c0,0,0.12-0.03,0.11-0.09c-0.12-0.5-0.42-0.78-0.95-0.8
				c-0.06,0-0.11,0.05-0.11,0.11v0.05c0,0-0.05,0.12-0.12,0.12h-0.03c0,0-0.11,0.05-0.11,0.11c0.03,0.53,0.36,0.81,0.86,0.87
				L145.84,58.43z M146.8,59.47c-0.26,0-0.48-0.21-0.48-0.48c0-0.24,0.2-0.45,0.44-0.47l-0.12-0.59c-0.51,0.08-0.9,0.53-0.9,1.07
				c0,0.6,0.48,1.09,1.09,1.09c0.09,0,0.18,0,0.27-0.03l-0.12-0.59c0,0-0.09,0.03-0.15,0.03L146.8,59.47z"/>
		</g>
		<g>
			<path d="M141.52,79.12c-0.5-0.17-0.75,0.21-0.32,0.69C141.24,79.57,141.34,79.36,141.52,79.12z"/>
			<path d="M148.75,77.18c0,0-0.11,0.08-0.11,0.18c0,0.02-0.03,0.03-0.03,0c-0.24-0.32-0.66-0.32-0.77,0
				c-0.08,0.23,0.05,0.3,0.24,0.32c0.02,0,0.03-0.03,0.02-0.05c-0.2-0.21,0.27-0.51,0.36-0.12c0,0.24-0.15,0.39-0.69,0.32
				c-0.41-0.53-1.22-0.75-1.52,0.03c-0.05,0.12-0.09,0.47-0.11,0.59c0,0.03-0.03,0.05-0.06,0.03c-0.35-0.21-0.68-0.26-1-0.06
				c-0.21,0.15-0.42,0.23-0.62,0.21c0.21,0.6,0.81,0.14,1.07,0c0.09-0.05,0.54,0,0.59,0.23c-0.59-0.14-0.98,0.05-0.83,0.59
				c0.21,0.36,0.65,0.2,0.66-0.15c0-0.15-0.09-0.24-0.23-0.23c0.15,0.21,0.06,0.36-0.06,0.33c-0.33-0.08-0.05-0.71,0.42-0.32
				c0.12,0.38-0.11,0.66-0.45,0.68c-0.29,0.03-0.59-0.18-0.89-0.48c-0.32-0.48-0.97-0.71-1.54,0.03l-0.56,0.9h-0.03
				c0.05-0.56-0.18-0.92-0.63-1.13c-0.45,0.21-0.68,0.59-0.63,1.13c0,0.02-0.02,0.03-0.03,0l-0.56-0.9
				c-0.56-0.72-1.21-0.51-1.54-0.03c-0.3,0.3-0.6,0.51-0.89,0.48c-0.33-0.02-0.57-0.32-0.45-0.68c0.47-0.39,0.75,0.24,0.42,0.32
				c-0.14,0.03-0.21-0.12-0.06-0.33c-0.15,0-0.23,0.06-0.23,0.23c0,0.36,0.45,0.51,0.66,0.15c0.15-0.54-0.24-0.72-0.83-0.59
				c0.05-0.21,0.5-0.27,0.59-0.23c0.27,0.15,0.86,0.62,1.07,0c-0.2,0-0.39-0.08-0.62-0.21c-0.32-0.2-0.65-0.15-1,0.06
				c-0.02,0-0.05,0-0.06-0.03c-0.02-0.14-0.06-0.47-0.11-0.59c-0.32-0.78-1.13-0.56-1.52-0.03c-0.53,0.08-0.68-0.08-0.69-0.32
				c0.09-0.39,0.56-0.09,0.36,0.12c-0.02,0.02,0,0.05,0.02,0.05c0.2,0,0.32-0.09,0.24-0.32c-0.11-0.33-0.53-0.33-0.77,0h-0.03
				c0-0.11-0.11-0.17-0.11-0.18c0-0.03-0.12,0.21,0.03,0.32c0.06,0.39,0.56,0.63,0.95,0.47c-0.06,0.6,0.18,1,0.62,1.13
				c0.18,0.06,0.32,0.06,0.33,0.18c0,0.03,0.03,0.05,0.06,0.03c0.33-0.14,0.32-0.47-0.12-0.57c-0.45-0.02-0.77-0.29-0.65-0.86
				c0.02-0.09,0.09-0.12,0.2-0.09c0.03,0,0.05,0.03,0.05,0.06c-0.11,0.44,0,0.74,0.42,0.69c0.38-0.03,0.33-0.54,0.11-0.63
				c-0.03,0-0.06,0.02-0.05,0.05c0.05,0.12,0,0.24-0.09,0.32c-0.26,0.18-0.44-0.36-0.15-0.56c0.23-0.17,0.57,0,0.65,0.27
				c0.23,0.35-0.03,0.95,0.06,1.48c0.11,0.6,1.03,0.68,1.43,0.29c0.02-0.02,0.05,0,0.06,0.02c0.03,0.11,0.09,0.33,0.14,0.39
				c0.35,0.47,0.81,0.32,1.25,0.11c0.38-0.18,0.38,0.3,0.06,0.2c-0.03,0-0.06,0-0.06,0.03c0,0.18,0.18,0.24,0.26,0.2
				c0.2-0.11,0.24-0.32,0.06-0.56c-0.15-0.12-0.3-0.14-0.48-0.08c-0.45,0.27-0.94,0.09-0.94-0.27c0-0.03,0.03-0.05,0.06-0.02
				c0.09,0.11,0.2,0.24,0.48,0.29c0.63-0.12,0.48-0.9,0.06-0.87c-0.36,0.02-0.35,0.44-0.08,0.48c0.02,0,0.03-0.03,0.02-0.05
				c-0.12-0.14,0.06-0.21,0.17-0.05c0.05,0.3-0.41,0.36-0.56,0.03c-0.17-0.38,0.41-0.81,0.86-0.42c0.53,0.45,0.78,1.43,1.13,1.61
				h0.86c0.35-0.2,0.6-1.16,1.13-1.61c0.45-0.39,1.03,0.05,0.86,0.42c-0.15,0.35-0.59,0.27-0.56-0.03c0.11-0.18,0.27-0.09,0.17,0.05
				c-0.02,0.02,0,0.05,0.02,0.05c0.29-0.05,0.3-0.45-0.08-0.48c-0.42-0.03-0.59,0.75,0.06,0.87c0.29-0.05,0.39-0.17,0.48-0.29
				c0.02-0.02,0.06,0,0.06,0.02c0,0.36-0.48,0.54-0.94,0.27c-0.18-0.08-0.33-0.06-0.48,0.08c-0.18,0.24-0.14,0.45,0.06,0.56
				c0.09,0.05,0.27,0,0.26-0.2c0-0.03-0.03-0.05-0.06-0.03c-0.32,0.11-0.32-0.38,0.06-0.2c0.44,0.21,0.9,0.36,1.25-0.11
				c0.06-0.08,0.11-0.29,0.14-0.39c0-0.03,0.03-0.03,0.06-0.02c0.41,0.41,1.34,0.32,1.43-0.29c0.09-0.53-0.17-1.15,0.06-1.48
				c0.09-0.27,0.42-0.44,0.65-0.27c0.29,0.2,0.11,0.74-0.15,0.56c-0.09-0.06-0.14-0.18-0.09-0.32c0-0.03-0.02-0.06-0.05-0.05
				c-0.23,0.09-0.27,0.6,0.11,0.63c0.42,0.05,0.54-0.26,0.42-0.69c0-0.03,0-0.06,0.05-0.06c0.11-0.02,0.18,0,0.2,0.09
				c0.12,0.56-0.2,0.83-0.65,0.86c-0.44,0.12-0.47,0.45-0.12,0.57c0.03,0,0.06,0,0.06-0.03c0-0.12,0.15-0.12,0.33-0.18
				c0.44-0.14,0.68-0.53,0.62-1.13c0.38,0.17,0.89-0.08,0.95-0.47c0.15-0.11,0.05-0.35,0.03-0.32H148.75z"/>
			<path d="M142.48,79.12c0.18,0.24,0.29,0.45,0.32,0.69C143.23,79.33,142.97,78.96,142.48,79.12z"/>
		</g>
		<path d="M141.42,81.16c-0.21,0-0.38,0.17-0.38,0.38s0.17,0.38,0.38,0.38c0.21,0,0.38-0.17,0.38-0.38S141.63,81.16,141.42,81.16z
			 M141.42,81.72c-0.11,0-0.18-0.08-0.18-0.18c0-0.11,0.08-0.18,0.18-0.18c0.11,0,0.18,0.08,0.18,0.18
			C141.6,81.64,141.52,81.72,141.42,81.72z"/>
		<path d="M142.61,81.16c-0.21,0-0.38,0.17-0.38,0.38s0.17,0.38,0.38,0.38s0.38-0.17,0.38-0.38S142.82,81.16,142.61,81.16z
			 M142.61,81.72c-0.11,0-0.18-0.08-0.18-0.18c0-0.11,0.08-0.18,0.18-0.18c0.11,0,0.18,0.08,0.18,0.18
			C142.79,81.64,142.72,81.72,142.61,81.72z"/>
		<polygon points="142.01,81.5 142.11,81.31 141.89,81.31 		"/>
		<path d="M127.56,66.96c2.14,0,3.89,1.78,3.89,3.98s-1.73,3.98-3.89,3.98c-2.16,0-3.89-1.78-3.89-3.98S125.4,66.96,127.56,66.96
			 M127.56,66.81c-2.22,0-4.03,1.86-4.03,4.13s1.81,4.13,4.03,4.13c2.22,0,4.03-1.86,4.03-4.13S129.78,66.81,127.56,66.81
			L127.56,66.81z"/>
		<path d="M127.56,66.53c2.38,0,4.31,1.98,4.31,4.42s-1.93,4.42-4.31,4.42s-4.31-1.98-4.31-4.42S125.18,66.53,127.56,66.53
			 M127.56,66.38c-2.46,0-4.45,2.05-4.45,4.56s1.99,4.56,4.45,4.56s4.45-2.05,4.45-4.56S130.02,66.38,127.56,66.38L127.56,66.38z"/>
		<path d="M126.94,67.69c0.08,0.26-0.03,0.65-0.03,0.65s-0.32-0.27-0.39-0.54c-0.08-0.27,0.14-0.41,0.14-0.41s0.23,0.03,0.29,0.29
			V67.69z"/>
		<path d="M128.66,67.82c-0.08,0.26-0.36,0.54-0.36,0.54s-0.14-0.39-0.06-0.66c0.08-0.27,0.32-0.29,0.32-0.29s0.18,0.14,0.11,0.39
			L128.66,67.82z"/>
		<path d="M130.06,68.79c-0.2,0.2-0.59,0.3-0.59,0.3s0.09-0.41,0.27-0.6c0.18-0.2,0.41-0.09,0.41-0.09s0.09,0.21-0.11,0.39H130.06z"
			/>
		<path d="M130.82,70.33c-0.26,0.08-0.65-0.03-0.65-0.03s0.27-0.32,0.54-0.39s0.41,0.14,0.41,0.14s-0.03,0.23-0.29,0.29H130.82z"/>
		<path d="M130.68,72.03c-0.26-0.08-0.54-0.36-0.54-0.36s0.39-0.14,0.66-0.06c0.27,0.08,0.29,0.32,0.29,0.32s-0.14,0.18-0.39,0.11
			H130.68z"/>
		<path d="M129.71,73.45c-0.2-0.2-0.3-0.59-0.3-0.59s0.41,0.09,0.6,0.27s0.09,0.41,0.09,0.41s-0.21,0.09-0.39-0.11V73.45z"/>
		<path d="M128.18,74.19c-0.08-0.26,0.03-0.65,0.03-0.65s0.32,0.27,0.39,0.54s-0.14,0.41-0.14,0.41s-0.23-0.03-0.29-0.29V74.19z"/>
		<path d="M126.47,74.07c0.08-0.26,0.36-0.54,0.36-0.54s0.14,0.39,0.06,0.66s-0.32,0.29-0.32,0.29s-0.18-0.14-0.11-0.39
			L126.47,74.07z"/>
		<path d="M125.05,73.1c0.2-0.2,0.59-0.3,0.59-0.3s-0.09,0.41-0.27,0.6c-0.18,0.2-0.41,0.09-0.41,0.09s-0.09-0.21,0.11-0.39H125.05z
			"/>
		<path d="M124.32,71.55c0.26-0.08,0.65,0.03,0.65,0.03s-0.27,0.32-0.54,0.39c-0.27,0.08-0.41-0.14-0.41-0.14s0.03-0.23,0.29-0.29
			H124.32z"/>
		<path d="M124.44,69.85c0.26,0.08,0.54,0.36,0.54,0.36s-0.39,0.14-0.66,0.06s-0.29-0.32-0.29-0.32s0.14-0.18,0.39-0.11H124.44z"/>
		<path d="M125.4,68.43c0.2,0.2,0.3,0.59,0.3,0.59s-0.41-0.09-0.6-0.27s-0.09-0.41-0.09-0.41s0.21-0.09,0.39,0.11V68.43z"/>
		<path d="M129.85,71.63c0,0-0.11-0.06-0.15-0.08c0.06,0,0.12,0,0.18,0c0.78,0,1.42-0.59,1.42-0.59s-0.63-0.59-1.42-0.59
			c-0.06,0-0.12,0-0.17,0c0.06-0.03,0.11-0.06,0.17-0.09c0.68-0.39,0.94-1.21,0.94-1.21s-0.84-0.18-1.51,0.2
			c-0.05,0.03-0.11,0.06-0.15,0.09c0.03-0.05,0.06-0.11,0.09-0.15c0.39-0.68,0.2-1.51,0.2-1.51s-0.81,0.26-1.21,0.94
			c-0.03,0.05-0.06,0.11-0.08,0.15c0-0.06,0-0.12,0-0.18c0-0.78-0.59-1.42-0.59-1.42s-0.59,0.63-0.59,1.42c0,0.06,0,0.12,0,0.17
			c-0.03-0.06-0.06-0.11-0.09-0.17c-0.39-0.68-1.21-0.94-1.21-0.94s-0.18,0.84,0.2,1.51c0.03,0.05,0.06,0.11,0.09,0.15
			c-0.05-0.03-0.11-0.06-0.15-0.09c-0.68-0.39-1.51-0.2-1.51-0.2s0.26,0.81,0.94,1.21c0.05,0.03,0.11,0.06,0.15,0.08
			c-0.06,0-0.12,0-0.18,0c-0.78,0-1.42,0.59-1.42,0.59s0.63,0.59,1.42,0.59c0.06,0,0.12,0,0.17,0c-0.06,0.03-0.11,0.06-0.17,0.09
			c-0.68,0.39-0.94,1.21-0.94,1.21s0.84,0.18,1.51-0.2c0.05-0.03,0.11-0.06,0.15-0.09c-0.03,0.05-0.06,0.11-0.09,0.15
			c-0.39,0.68-0.2,1.51-0.2,1.51s0.81-0.26,1.21-0.94c0.03-0.05,0.06-0.11,0.08-0.15c0,0.06,0,0.12,0,0.18
			c0,0.78,0.59,1.42,0.59,1.42s0.59-0.63,0.59-1.42c0-0.06,0-0.12,0-0.17c0.03,0.06,0.06,0.11,0.09,0.17
			c0.39,0.68,1.21,0.94,1.21,0.94s0.18-0.84-0.2-1.51c-0.03-0.05-0.06-0.11-0.09-0.15c0.05,0.03,0.11,0.06,0.15,0.09
			c0.68,0.39,1.51,0.2,1.51,0.2S130.53,72.02,129.85,71.63z M128.66,71.84l0.3,0.62l-0.56-0.32l0.36,0.92l-0.69-0.78l-0.05,0.68
			l-0.32-0.56l-0.15,0.98l-0.21-1.03l-0.38,0.57v-0.65l-0.62,0.77l0.33-1l-0.62,0.3l0.32-0.56l-0.92,0.36l0.78-0.69l-0.68-0.05
			l0.56-0.32l-0.98-0.15l1.03-0.21l-0.57-0.38h0.65l-0.77-0.62l1,0.33l-0.3-0.62l0.56,0.32l-0.36-0.92l0.69,0.78l0.05-0.68
			l0.32,0.56l0.15-0.98l0.21,1.03l0.38-0.57v0.65l0.62-0.77l-0.33,1l0.62-0.3l-0.32,0.56l0.92-0.36l-0.78,0.69l0.68,0.05l-0.56,0.32
			l0.98,0.15l-1.03,0.21l0.57,0.38h-0.65l0.77,0.62L128.66,71.84z"/>
		<path d="M128.39,76.77c-0.35-0.41-0.62-0.68-0.72-1.09h-0.11c-0.12,0.41-0.38,0.68-0.72,1.09c-0.15,0.57,0.39,0.74,0.78,0.97
			c0.39-0.23,0.94-0.39,0.78-0.97H128.39z M127.6,77.16c-0.33-0.06-0.45-0.65,0-0.89C128.09,76.53,127.91,77.09,127.6,77.16z"/>
		<path class="st0" d="M126.85,75.68h-0.21c-0.08,0.29-0.27,0.39-0.59,0.36c0.21-0.36-0.27-0.45-0.27,0c0,0.66,1.24,0.94,1.57-0.36
			h-0.38c-0.08,0.59-0.74,0.89-0.98,0.51C126.31,76.29,126.61,76.2,126.85,75.68L126.85,75.68z"/>
		<path class="st0" d="M128.37,75.68h0.21c0.08,0.29,0.27,0.39,0.59,0.36c-0.21-0.36,0.27-0.45,0.27,0c0,0.66-1.24,0.94-1.57-0.36
			h0.38c0.08,0.59,0.74,0.89,0.98,0.51C128.92,76.29,128.61,76.2,128.37,75.68L128.37,75.68z"/>
		<path class="st9" d="M129.13,65.94c1.06,0.35,1.96,1.04,2.59,1.95"/>
		<path class="st9" d="M123.49,67.76c0.63-0.84,1.49-1.48,2.5-1.81"/>
		<path d="M128.12,66.35c0.54-0.68,0.35-1.19-0.5-1.55c-0.84,0.36-1.04,0.87-0.5,1.55c-1.49,0.24-1.49-0.89-1.03-1.72
			c-0.06-0.21,0.14-0.29,0.17-0.08c-0.11,0.77,0.14,1.24,0.33,1.13c-0.23-0.65,0.02-1.1,0.69-1.4c0.15-0.14,0.24-0.59,0.33-0.59
			c0.09,0,0.2,0.45,0.33,0.59c0.68,0.3,0.94,0.75,0.69,1.4c0.2,0.11,0.44-0.38,0.33-1.13c0.03-0.21,0.23-0.14,0.17,0.08
			C129.61,65.46,129.61,66.59,128.12,66.35L128.12,66.35z"/>
		<path d="M127.62,66.33c0.98-0.32,0-1.19,0-1.19S126.64,66.01,127.62,66.33z"/>
		<path d="M123.49,76.65v1.18c0,0-0.24-0.32-0.53-0.42c-0.29-0.11-0.51-0.44-0.51-0.44l1.04-0.33V76.65z M124.04,76.32l-1.58,0.45
			c0,0-0.09-4.04,0.5-5.08c0,0,0.86,4.45,1.1,4.63H124.04z M122.57,75.97l1.06-0.32l-0.06-0.44l-1,0.29v0.45V75.97z"/>
		<path d="M132.79,76.96c0,0-0.23,0.33-0.51,0.44c-0.29,0.11-0.53,0.42-0.53,0.42v-1.18l1.04,0.33V76.96z M132.29,71.67
			c0.57,1.06,0.5,5.08,0.5,5.08l-1.58-0.45c0.23-0.18,1.1-4.63,1.1-4.63H132.29z M132.69,75.5l-1-0.29l-0.06,0.44l1.06,0.32v-0.45
			V75.5z"/>
		<path d="M123.18,69.18c-0.09-0.87-0.26-1.55-0.63-1.67c-0.39-0.11-0.71,0.24-0.98,0.77c-0.57-1.69,1.3-2.65,1.81-1.03
			c0.15,0.38,0.18,0.81,0.17,1.27l-0.38,0.66 M121.65,68.43l1.31,1.57c0.08-0.18,0.12-0.39,0.12-0.65
			c-0.15-0.38-0.36-0.66-0.65-0.84c-0.08-0.27-0.12-0.53-0.17-0.74l-0.6,0.66L121.65,68.43z"/>
		<path d="M132.05,69.18l-0.38-0.66c-0.02-0.45,0.02-0.87,0.17-1.27c0.51-1.63,2.38-0.66,1.81,1.03c-0.27-0.53-0.57-0.87-0.98-0.77
			c-0.38,0.12-0.53,0.8-0.63,1.67 M132.99,67.76c-0.05,0.21-0.09,0.47-0.17,0.74c-0.29,0.18-0.5,0.48-0.65,0.84
			c0,0.24,0.03,0.47,0.12,0.65l1.31-1.57l-0.6-0.66L132.99,67.76z"/>
		<path d="M121.13,71.67l0.35-0.72c0.09,0.92,0.74,1.12,1.19,0.29l0.21,0.27c-0.6,1.28-2.01,0.83-2.01-0.44c0-2.14,2.28-1.46,2.01,0
			c-0.66-1.51-1.84-0.53-1.75,0.62L121.13,71.67z M122.08,70.49c-0.24,0-0.44,0.23-0.44,0.51s0.2,0.51,0.44,0.51
			s0.44-0.23,0.44-0.51S122.32,70.49,122.08,70.49z"/>
		<g>
			<path d="M133.77,70.95c-0.03,0.33-0.14,0.56-0.27,0.69l0.44-0.33L133.77,70.95z"/>
			<path d="M132.57,71.22l-0.21,0.27c0.14,0.29,0.3,0.48,0.5,0.6l0.56-0.41c-0.24,0.15-0.57,0-0.83-0.47L132.57,71.22z"/>
			<path d="M132.37,71.05c0.33-0.77,0.8-0.89,1.16-0.68c-0.05-0.2-0.08-0.47-0.08-0.68C132.85,69.66,132.22,70.24,132.37,71.05z"/>
			<ellipse cx="133.15" cy="70.99" rx="0.44" ry="0.51"/>
		</g>
		<g>
			<path class="st9" d="M154.95,65.88c-1.06,0.35-1.96,1.04-2.59,1.95"/>
			<path class="st9" d="M160.59,67.69c-0.63-0.84-1.49-1.48-2.5-1.81"/>
			<path d="M155.96,66.27c-0.54-0.68-0.35-1.19,0.5-1.55c0.84,0.36,1.04,0.87,0.5,1.55c1.49,0.24,1.49-0.89,1.03-1.72
				c0.06-0.21-0.14-0.29-0.17-0.08c0.11,0.77-0.14,1.24-0.33,1.13c0.23-0.65-0.02-1.1-0.69-1.4c-0.15-0.14-0.24-0.59-0.33-0.59
				c-0.09,0-0.2,0.45-0.33,0.59c-0.68,0.3-0.94,0.75-0.69,1.4c-0.2,0.11-0.44-0.38-0.33-1.13c-0.03-0.21-0.23-0.14-0.17,0.08
				C154.47,65.38,154.47,66.51,155.96,66.27L155.96,66.27z"/>
			<path d="M156.46,66.27c-0.98-0.32,0-1.19,0-1.19S157.44,65.95,156.46,66.27z"/>
			<path d="M161.63,76.89c0,0-0.23,0.33-0.51,0.44c-0.29,0.11-0.53,0.42-0.53,0.42v-1.18l1.04,0.33V76.89z M161.13,71.61
				c0.57,1.06,0.5,5.08,0.5,5.08l-1.58-0.45c0.23-0.18,1.1-4.63,1.1-4.63H161.13z M161.51,75.44l-1-0.29l-0.06,0.44l1.06,0.32v-0.45
				V75.44z"/>
			<path d="M152.31,76.57v1.18c0,0-0.24-0.32-0.53-0.42c-0.29-0.11-0.51-0.44-0.51-0.44l1.04-0.33V76.57z M152.87,76.24l-1.58,0.45
				c0,0-0.09-4.04,0.5-5.08c0,0,0.86,4.45,1.1,4.63H152.87z M151.39,75.89l1.06-0.32l-0.06-0.44l-1,0.29v0.45V75.89z"/>
			<path d="M160.89,69.11l-0.38-0.66c-0.02-0.45,0.02-0.87,0.17-1.27c0.51-1.63,2.38-0.66,1.81,1.03c-0.27-0.53-0.57-0.87-0.98-0.77
				c-0.38,0.12-0.53,0.8-0.63,1.67 M161.83,67.69c-0.05,0.21-0.09,0.47-0.17,0.74c-0.29,0.18-0.5,0.48-0.65,0.84
				c0,0.24,0.03,0.47,0.12,0.65l1.31-1.57l-0.6-0.66L161.83,67.69z"/>
			<path d="M152.02,69.11c-0.09-0.87-0.26-1.55-0.63-1.67c-0.39-0.11-0.71,0.24-0.98,0.77c-0.57-1.69,1.3-2.65,1.81-1.03
				c0.15,0.38,0.18,0.81,0.17,1.27l-0.38,0.66 M150.48,68.35l1.31,1.57c0.08-0.18,0.12-0.39,0.12-0.65
				c-0.15-0.38-0.36-0.66-0.65-0.84c-0.08-0.27-0.12-0.53-0.17-0.74l-0.6,0.66L150.48,68.35z"/>
			<path d="M161.19,70.99c-0.27-1.46,2.01-2.14,2.01,0c0,1.27-1.4,1.73-2.01,0.44l0.21-0.27c0.45,0.83,1.12,0.65,1.19-0.29
				l0.35,0.72c0.09-1.13-1.09-2.13-1.75-0.62L161.19,70.99z M161.55,70.93c0,0.29,0.2,0.51,0.44,0.51c0.24,0,0.44-0.23,0.44-0.51
				c0-0.29-0.2-0.51-0.44-0.51C161.75,70.42,161.55,70.64,161.55,70.93z"/>
			<path d="M154.01,69l-1.27-0.71c-1.15,1.95-0.66,3.54,1.03,3.82c2.31,0.36,2.71-2.56,0.94-2.84c-0.75-0.11-1.21,0.44-1.03,0.98
				c0.23,0.63,1.37,0.36,0.98-0.3c-0.14-0.21-0.53-0.11-0.6,0.21c-0.2-0.71,0.81-0.75,0.87,0c0.08,0.86-1.34,1.07-1.49,0
				c-0.06-0.51,0.21-0.9,0.57-1.18V69z"/>
			<path d="M152.81,68.14c2.43,1.43,4.81,1.4,7.13,0C157.94,65.73,154.66,65.82,152.81,68.14z M155.96,66.53
				c0.21,0.21,0.57,0.23,0.71,0h0.32c-0.11,0.44-1.01,0.44-1.37,0.05l0.33-0.05H155.96z M155.48,66.59c0.48,0.56,1.25,0.56,1.67,0
				c0.36,0.03,0.68,0.12,0.94,0.3c-1.04,0.68-2.26,0.66-3.63,0.11C154.74,66.8,155.07,66.66,155.48,66.59L155.48,66.59z
				 M154.07,67.18c1.45,0.71,3.14,0.8,4.39-0.09c0.23,0.05,0.41,0.21,0.54,0.38c-1.21,0.98-4.04,1-5.26,0
				c0.02-0.12,0.18-0.2,0.35-0.27L154.07,67.18z M153.02,68.01c0.15-0.14,0.29-0.26,0.41-0.36c1.73,1.01,4.06,1.12,5.82,0
				c0.17,0.11,0.3,0.23,0.41,0.36C157.41,69.29,155.21,69.33,153.02,68.01L153.02,68.01z"/>
			<path d="M156.37,69.44c0.26,0.26,0.39,0.54,0.44,0.83c1.31-0.02,2.55-0.3,3.7-0.9c-0.09-0.41-0.29-0.72-0.51-1.01
				C159.41,69.03,157.83,69.3,156.37,69.44z"/>
			<path d="M156.83,71.25c0.05,1.01-0.53,1.49-0.83,1.84c-0.33,0.39-0.47,0.92-0.47,0.98c-0.38,1.89,1.16,2.64,1.81,1.67
				c0.12-0.18,0.11-0.86-0.32-0.98h-0.14c0.54,0.27,0.47,1.09-0.26,0.98c-0.66-0.05-0.69-1-0.11-1.67c0.57-0.45,1.34-0.92,2.23-1.4
				c1.18-0.56,1.87-1.31,1.84-2.35c-1.18,0.59-2.44,0.89-3.8,0.9L156.83,71.25z"/>
			<circle cx="157.06" cy="70.78" r="0.26"/>
			<circle cx="157.63" cy="70.78" r="0.26"/>
			<circle cx="158.21" cy="70.68" r="0.26"/>
			<circle cx="158.78" cy="70.55" r="0.26"/>
			<circle cx="159.34" cy="70.37" r="0.26"/>
			<circle cx="159.91" cy="70.19" r="0.26"/>
			<circle cx="160.44" cy="69.92" r="0.26"/>
			<path d="M155.75,69.44c1.22,0.77,0.94,2.28,0,3.53c-0.65,0.86-0.68,1.78-0.38,2.75c-1.16-0.97-2.1-2.25-1.67-3.59l-0.14-0.06
				c-0.12,0.5-0.2,1.12,0.08,1.66c0.63,1.31,1.4,2.05,2.25,2.53c0.08,0,0.12-0.05,0.03-0.15c-0.8-0.77-0.84-1.93,0-3.12
				c0.84-1.19,1.18-2.4,0.23-3.56l-0.39,0.03L155.75,69.44z"/>
			<path d="M156.61,76.39c0.2,0.39,0.5,0.63,0.89,0.77c-0.12-0.39-0.33-0.69-0.72-0.81V76.3l-0.41-0.02l0,0l0,0l0,0l0,0h-0.41v0.06
				c-0.41,0.12-0.62,0.42-0.72,0.81c0.38-0.14,0.68-0.36,0.89-0.77h0.21v0.12c-0.74,0.51-0.51,0.84,0.05,1.1l0,0l0,0l0,0l0,0
				c0.56-0.27,0.78-0.6,0.05-1.12v-0.14h0.21L156.61,76.39z M156.35,77.22c-0.29-0.14-0.29-0.3,0-0.53
				C156.65,76.9,156.68,77.09,156.35,77.22z"/>
			<path d="M151.06,72.12c0.26-0.11,0.48-0.33,0.65-0.69l-0.21-0.27c-0.41,0.75-1,0.66-1.16-0.06c-0.08,0.15-0.18,0.29-0.3,0.42
				c0,0,0.56,0.14,1.03,0.62L151.06,72.12z"/>
			<path d="M151.71,70.99c0.15-0.78-0.44-1.34-1.01-1.36c0,0.18,0,0.39-0.06,0.63C150.98,70.13,151.4,70.3,151.71,70.99
				L151.71,70.99z"/>
			<ellipse cx="150.91" cy="70.93" rx="0.44" ry="0.51"/>
		</g>
		<ellipse transform="matrix(0.866 -0.5 0.5 0.866 -17.1779 80.2835)" cx="141.22" cy="72.2" rx="0.15" ry="0.09"/>
	</g>
</g>
</svg>
