<?xml version="1.0" encoding="utf-8"?>
<!-- Generator: Adobe Illustrator 30.1.0, SVG Export Plug-In . SVG Version: 9.03 Build 0)  -->
<svg version="1.0" id="Layer_1" xmlns="http://www.w3.org/2000/svg" xmlns:xlink="http://www.w3.org/1999/xlink" x="0px" y="0px"
	 viewBox="0 0 284 185" style="enable-background:new 0 0 284 185;" xml:space="preserve">
<style type="text/css">
	.st0{fill:#231F20;}
	.st1{fill-rule:evenodd;clip-rule:evenodd;}
</style>
<g>
	<path class="st0" d="M213.21,107.43c-0.08,0-0.15-0.02-0.24-0.06c-0.17-0.08-0.38-0.24-0.35-0.72c0.03-0.54,0.2-1.09,0.53-1.78
		c0.24-0.5,0.48-0.95,0.8-1.33c0.57-0.68,1.03-1.49,1.45-2.63c0.09-0.23,0.18-0.47,0.27-0.69c0.2-0.51,0.39-1.03,0.56-1.54
		l0.23-0.71l-1.07,0.98c-0.42,0.39-0.86,0.78-1.3,1.16c-0.62,0.54-1.16,0.94-1.72,1.25c-0.26,0.14-0.44,0.24-0.6,0.24
		c-0.09,0-0.17-0.03-0.24-0.08c-0.26-0.18-0.23-0.44-0.15-0.84c0.06-0.36,0.17-0.65,0.3-0.97c0.06-0.14,0.12-0.29,0.17-0.45
		l0.24-0.69c0,0-1.1,0.92-1.22,1.03c-0.81,0.66-1.81,1.4-2.99,1.9c-0.32,0.14-0.56,0.2-0.8,0.2c-0.11,0-0.21,0-0.3-0.03
		c-0.45-0.11-0.65-0.41-0.59-0.88c0.06-0.41,0.21-0.78,0.39-1.18c0.2-0.42,0.39-0.83,0.59-1.25c0.23-0.48,0.47-0.98,0.69-1.46
		l0.05-0.09c0.08-0.15,0.18-0.35,0.12-0.54c-0.05-0.12-0.14-0.21-0.27-0.27c-0.12-0.06-0.24-0.08-0.36-0.08
		c-0.18,0-0.45,0.08-0.66,0.39c-1.4,2.02-3.21,3.65-5.42,4.86c-0.53,0.29-1.12,0.47-1.74,0.53c-0.14,0-0.29,0.02-0.42,0.03
		c-1.22,0-1.98-0.56-2.29-1.7l-0.08-0.29l-0.42,0.3c-0.57,0.42-1.12,0.81-1.7,1.13c-0.5,0.27-1,0.51-1.54,0.54l0,0
		c-0.48,0-0.63-0.17-0.66-0.62c-0.02-0.35,0.05-0.71,0.2-1.12l0.47-1.24L192.63,99c-0.3,0.17-0.53,0.36-0.72,0.54
		c-0.08,0.08-0.15,0.14-0.24,0.2c-0.94,0.74-1.86,1.45-2.96,1.84c-0.29,0.11-0.53,0.2-0.74,0.2c-0.17,0-0.3-0.05-0.42-0.15
		c-0.32-0.27-0.26-0.62-0.14-1.13c0.08-0.32,0.17-0.56,0.27-0.84c0.05-0.14,0.11-0.29,0.17-0.45l0.24-0.69l-0.91,0.77
		c-0.21,0.18-0.39,0.33-0.59,0.48c-1.3,1.04-2.5,1.92-4.1,2.05c-0.11,0-0.21,0-0.32,0c-1.18,0-1.98-0.54-2.22-1.52
		c-0.06-0.27-0.21-0.32-0.33-0.32c-0.09,0-0.17,0.03-0.24,0.06c-0.18,0.08-0.38,0.11-0.57,0.11c-0.21,0-0.42-0.05-0.63-0.14
		c-0.11-0.05-0.21-0.08-0.29-0.08c-0.21,0-0.35,0.12-0.45,0.24c-0.42,0.47-0.94,0.98-1.6,1.34c-0.33,0.18-0.71,0.3-1.12,0.33
		c-0.05,0-0.09,0-0.15,0c-0.57,0-0.91-0.27-1.07-0.84l-0.2-0.74l-0.47,0.42c-0.15,0.14-0.27,0.26-0.42,0.38
		c-0.56,0.44-1.09,0.69-1.66,0.77c-0.11,0.02-0.21,0.03-0.32,0.03c-0.38,0-0.69-0.12-0.89-0.33c-0.23-0.24-0.32-0.62-0.27-1.09
		c0.02-0.18,0.05-0.38,0.09-0.59l0.14-0.86l-0.81,0.65c-0.26,0.21-0.5,0.41-0.75,0.6c-1.21,0.91-2.26,1.52-3.56,1.64
		c-0.14,0-0.26,0.02-0.38,0.02c-1.42,0-2.2-0.78-2.28-2.31c-0.06-1.19,0.38-2.34,1.21-3.21c0.83-0.88,1.98-1.37,3.15-1.39
		c0.08,0,0.14,0,0.21,0c0.57,0.03,1.01,0.24,1.27,0.6c0.24,0.36,0.29,0.84,0.11,1.39c-0.26,0.77-0.88,1.24-1.37,1.57
		c-0.65,0.42-1.42,0.71-2.47,0.94c-0.17,0.03-0.38,0.11-0.45,0.3c-0.08,0.2,0.06,0.38,0.17,0.5c0.23,0.26,0.53,0.39,0.94,0.39l0,0
		c0.81,0,1.48-0.33,2.02-0.63c1.66-0.95,2.99-2.32,4.27-3.64c0.29-0.3,0.39-0.62,0.5-0.91l0.05-0.14c0.08-0.23,0.17-0.26,0.33-0.26
		c0.23,0.02,0.38,0.02,0.53,0.02c0.17,0,0.33,0,0.5-0.02h0.05c0,0-0.02,0.05-0.03,0.06c-0.44,1-0.88,1.99-1.31,2.99l-0.45,1.03
		c-0.12,0.29-0.24,0.57-0.29,0.88c-0.03,0.21,0,0.38,0.11,0.48c0.06,0.06,0.17,0.14,0.35,0.14c0.08,0,0.15,0,0.23-0.03
		c0.39-0.11,0.68-0.35,0.89-0.54c0.72-0.69,1.25-1.49,1.81-2.5c0.09-0.17,0.18-0.33,0.27-0.5c0.2-0.39,0.39-0.75,0.65-1.1
		c0.11-0.14,0.2-0.23,0.29-0.3c0.06-0.05,0.14-0.08,0.21-0.08c0.08,0,0.17,0.03,0.26,0.08c0.11,0.06,0.17,0.14,0.14,0.35
		c-0.08,0.47-0.23,0.94-0.36,1.39c-0.08,0.23-0.15,0.45-0.21,0.68c-0.09,0.3-0.44,1.46-0.51,1.75c-0.05,0.18-0.14,0.48,0.15,0.69
		c0.11,0.08,0.23,0.12,0.35,0.12c0.12,0,0.26-0.05,0.36-0.12c0.86-0.56,1.64-1.16,1.75-2.32c0.09-0.98,0.39-1.86,0.89-2.6
		c0.15-0.23,0.33-0.45,0.6-0.59c0.12-0.06,0.23-0.09,0.33-0.09c0.26,0,0.42,0.2,0.44,0.53c0.03,0.89-0.33,1.67-0.75,2.55
		c-0.02,0.03-0.05,0.08-0.08,0.11c-0.09,0.12-0.27,0.38-0.06,0.57c0.09,0.09,0.21,0.14,0.35,0.14c0.2,0,0.38-0.09,0.5-0.17
		c0.26-0.15,0.41-0.35,0.5-0.65c0.57-1.86,2.29-3.15,4.19-3.17h0.15c0.6,0.02,1.09,0.24,1.34,0.63c0.26,0.39,0.27,0.92,0.03,1.49
		c-0.23,0.56-0.66,1.01-1.39,1.46c-0.69,0.44-1.49,0.72-2.44,0.89c-0.15,0.03-0.35,0.08-0.42,0.26c-0.08,0.2,0.05,0.39,0.12,0.48
		c0.21,0.3,0.53,0.45,0.95,0.47l0,0c0.86,0,1.54-0.33,2.14-0.69c1.49-0.88,2.69-2.1,3.86-3.27l0.08-0.08
		c0.15-0.17,0.21-0.35,0.26-0.51l2.25-6.93c0.15-0.47,0.32-0.83,0.51-1.13c0.17-0.24,0.32-0.36,0.48-0.36c0.05,0,0.08,0,0.12,0.02
		c0.2,0.06,0.29,0.21,0.32,0.59c0.08,1.01-0.23,1.96-0.56,2.93c-0.35,1-0.77,1.99-1.24,2.94c-0.59,1.16-0.94,2.4-1.28,3.61
		c-0.17,0.59-0.33,1.18-0.53,1.75c-0.05,0.12-0.14,0.39,0.08,0.59c0.08,0.06,0.15,0.11,0.24,0.09c0.12,0,0.23-0.08,0.3-0.12
		c1.61-0.98,2.94-2.26,4.15-3.52c0.14-0.14,0.18-0.32,0.23-0.45l0.6-1.89c0.54-1.67,1.09-3.35,1.64-5.02
		c0.11-0.33,0.26-0.66,0.45-1.04c0.18-0.35,0.35-0.5,0.56-0.51c0.05,0,0.08,0,0.12,0c0.3,0.08,0.33,0.33,0.35,0.75
		c0.02,0.74-0.15,1.43-0.35,2.08c-0.32,1.03-0.6,1.8-0.95,2.47c-0.94,1.83-1.54,3.79-2.08,5.66c-0.09,0.32-0.18,0.65-0.27,0.97
		c-0.06,0.24,0,0.41,0.14,0.5l0.05,0.03l0.14,0.03c0.12,0,0.23-0.06,0.29-0.11c0.68-0.41,1.36-0.91,2.07-1.51
		c0.15-0.14,0.2-0.3,0.23-0.42l0.03-0.09c0.57-1.84,2.31-3.14,4.19-3.15h0.17c0.6,0.02,1.07,0.24,1.33,0.63
		c0.26,0.39,0.27,0.91,0.05,1.46c-0.23,0.54-0.63,1-1.34,1.45c-0.69,0.44-1.51,0.74-2.52,0.92c-0.14,0.03-0.33,0.08-0.41,0.24
		c-0.08,0.18,0.05,0.38,0.09,0.47c0.2,0.32,0.51,0.47,0.94,0.48h0.12c0.59,0,1.18-0.18,1.87-0.59c1.55-0.89,2.93-2.1,4.22-3.7
		c0.26-0.32,0.48-0.72,0.12-1.24c-0.2-0.27-0.12-0.63-0.05-0.83c0.12-0.35,0.38-0.54,0.68-0.54c0.21,0,0.63,0.08,0.68,0.5
		c0.08,0.69,0.48,0.78,0.92,0.78h0.3c0.57,0,0.95,0.11,1.12,0.35c0.17,0.26,0.14,0.68-0.11,1.28c-0.26,0.62-0.53,1.24-0.8,1.84
		l-0.42,0.94c-0.09,0.18-0.24,0.45,0,0.66c0.06,0.06,0.15,0.09,0.23,0.09c0.14,0,0.24-0.08,0.33-0.14c1.66-0.98,2.97-2.2,4.47-3.77
		c0.24-0.24,0.35-0.54,0.45-0.83c0.03-0.09,0.06-0.18,0.11-0.27c0.06-0.14,0.11-0.15,0.2-0.15c0.18,0,0.33,0,0.5,0s0.29,0,0.44-0.02
		h0.05c0,0,0,0.03-0.03,0.06c-0.51,1.16-1.01,2.32-1.52,3.5l-0.2,0.47c-0.08,0.15-0.17,0.33-0.11,0.59l0.03,0.15c0,0,0.15,0,0.17,0
		c0.32,0,0.48-0.15,0.62-0.27c1.48-1.21,2.67-2.58,3.55-3.64c0.05-0.05,0.08-0.09,0.11-0.14c0.27-0.53,0.68-0.77,1.25-0.78
		c0.11,0,0.21,0,0.33,0.02c0.05,0,0.08,0,0.11,0.02c0,0.02-0.02,0.05-0.03,0.08c-0.53,1.19-1.03,2.4-1.54,3.61l-0.51,1.19
		c-0.05,0.11-0.09,0.23-0.06,0.41l0.05,0.35l2.6-2.11v0.11c0,0.41,0,0.77,0,1.15c0,0.03-0.08,0.08-0.12,0.11
		c-0.05,0.03-0.08,0.05-0.11,0.08c-1.42,1.15-2.56,2.11-3.58,3.08c-0.27,0.26-0.44,0.53-0.54,0.89c-0.32,1.04-0.63,1.86-1.03,2.58
		c-0.15,0.27-0.33,0.59-0.59,0.83c-0.2,0.18-0.36,0.27-0.51,0.27L213.21,107.43z M183.82,95.87c-0.17,0-0.33,0.05-0.54,0.15
		c-0.84,0.41-1.46,1.1-1.87,2.13l-0.14,0.33l0.36-0.06c0.89-0.15,1.81-0.39,2.53-1.07c0.41-0.39,0.5-0.77,0.27-1.13
		c-0.14-0.23-0.35-0.35-0.6-0.35H183.82z M200.79,95.77c-0.14,0-0.3,0.05-0.48,0.12c-0.89,0.39-1.51,1.07-1.96,2.16l-0.14,0.33
		l0.36-0.06c1.07-0.18,1.93-0.45,2.61-1.15c0.35-0.35,0.41-0.72,0.2-1.07C201.24,95.89,201.03,95.77,200.79,95.77z M165.68,96.01
		c-0.12,0-0.26,0.03-0.36,0.06c-0.14,0.03-0.26,0.09-0.38,0.15c-0.8,0.47-1.36,1.13-1.7,2.04l-0.12,0.3h0.32
		c0.48-0.06,0.88-0.18,1.21-0.29c0.51-0.18,1.09-0.44,1.49-0.97c0.29-0.36,0.32-0.69,0.09-1c-0.14-0.2-0.33-0.29-0.57-0.29
		L165.68,96.01z M153.97,107.28c-0.84,0-1.45-0.51-1.6-1.37c-0.05-0.26-0.09-0.54-0.06-0.72c0.11-1.74,0.91-3.02,1.77-4.15
		c1.07-1.42,2.44-2.67,4.21-3.82c0.27-0.17,0.44-0.39,0.56-0.68c0.88-2.16,1.54-4,1.89-5.94l0.03-0.12
		c0.06-0.29,0.15-0.75-0.29-0.97c-0.09-0.05-0.18-0.06-0.27-0.06c-0.33,0-0.57,0.29-0.75,0.51c-1.03,1.27-1.48,2.72-1.81,3.95
		c-0.14,0.53-1.04,1.27-1.6,1.31c-0.09-0.02-0.09-0.11-0.09-0.17c0.02-0.84,0.18-1.66,0.48-2.52c0.48-1.34,1.24-3,2.79-4.1
		c0.5-0.35,0.98-0.51,1.46-0.53c0.83,0,1.36,0.44,1.51,1.24c0.17,0.83,0,1.64-0.21,2.53c-0.68,2.93-1.84,5.76-2.88,8.19
		c-0.84,1.98-1.63,3.74-2.63,5.45c-0.27,0.45-0.63,1.03-1.19,1.43c-0.36,0.27-0.71,0.42-1.09,0.47c-0.09,0-0.17,0.02-0.24,0.02
		L153.97,107.28z M157.2,99.63c-1.06,0.86-1.93,1.89-2.66,3.14c-0.35,0.59-0.71,1.21-0.86,1.92l-0.03,0.12
		c-0.08,0.27-0.18,0.74,0.27,0.94c0.08,0.03,0.17,0.06,0.24,0.05c0.35,0,0.56-0.32,0.72-0.56c0.32-0.48,0.54-0.97,0.77-1.43
		l0.15-0.32c0.41-0.86,0.8-1.7,1.21-2.56l0.48-1.04L157.2,99.63z"/>
	<path class="st1" d="M73.81,101.52c-0.36,0-0.44-0.05-0.45-0.06c0-0.02-0.03-0.11,0.06-0.45c0.42-1.58,0.84-3.18,1.28-4.77
		c0,0,0.74-2.7,0.89-3.26c0.09-0.35,0.24-0.41,0.45-0.41c0.03,0,0.08,0,0.12,0c0.41,0.05,0.83,0.06,1.25,0.08
		c0.21,0,0.42,0.02,0.62,0.03c0.21,0,0.26,0.05,0.27,0.05c0.01,0,0.01,0,0,0c-0.02,0,0,0.06-0.06,0.26
		c-0.26,0.68-0.36,1.31-0.33,1.95c0.02,0.36,0.14,0.69,0.33,1c0.24,0.36,0.63,0.57,1.07,0.57s0.83-0.21,1.1-0.56
		c0.89-1.1,0.89-2.41,0.8-3.3c-0.11-1.1-0.56-2.07-1.01-3c-0.11-0.23-0.23-0.47-0.33-0.71c-1.28-2.88-1.19-5.69,0.3-8.37
		c1.03-1.86,2.84-2.96,4.81-2.97c0.8,0,1.6,0.17,2.4,0.5c2.04,0.86,3.52,2.05,4.54,3.65l0.09,0.14c0.53,0.86,1.15,1.34,1.98,1.54
		c0.21,0.05,0.29,0.09,0.3,0.11c-0.03,0-0.08,0.08-0.26,0.24l-0.47,0.45c-0.45,0.44-0.92,0.88-1.42,1.25
		c-0.89,0.68-1.84,1.04-2.82,1.04c-0.27,0-0.56-0.03-0.84-0.08c-1.12-0.21-1.81-1.09-2.34-1.9c-0.41-0.62-0.74-1.3-1.03-2.01
		c-0.12-0.3-0.32-0.65-0.8-0.65l0,0c-0.41,0-0.71,0.18-0.92,0.54c-0.29,0.47-0.38,1.01-0.27,1.69c0.15,0.98,0.59,1.78,1.31,2.4
		c0.88,0.74,1.87,1.31,2.84,1.86l0.18,0.11c4.18,2.38,3.94,7.33,2.43,10.08c-0.51,0.95-1.22,1.8-2.1,2.53
		c-0.3,0.26-0.62,0.36-1.01,0.36L73.81,101.52L73.81,101.52z"/>
	<path class="st1" d="M147.79,101.82c-1-0.03-2.01-0.03-3-0.03h-1.52c0,0-0.24,0-0.29-0.03l0,0c0.03,0,0.08-0.15,0.11-0.23l0.83-3
		l0.03-0.09c0.05-0.14,0.11-0.32,0.05-0.54l-0.06-0.2l-0.2,0.06c-0.24,0.08-0.33,0.26-0.38,0.36c-0.17,0.3-0.29,0.53-0.42,0.77
		c-0.24,0.45-0.48,0.91-0.77,1.33c-0.68,1.06-1.43,1.52-2.46,1.54c-0.78-0.02-1.46-0.02-2.16,0l-3.12,0.03c0,0-0.29,0-0.33-0.03
		c0-0.02,0.08-0.23,0.09-0.29l0.42-1.64c0.32-1.22,0.63-2.44,0.98-3.67c0.44-1.54,1.3-2.88,2.55-4.03c0.44-0.41,0.95-0.6,1.55-0.6
		c0.72,0,1.39,0,2.07,0c0.74,0,1.46,0,2.2-0.03c1.12-0.02,2.05-0.83,2.11-1.84c0.06-0.88-0.42-1.42-1.31-1.49c-0.09,0-0.18,0-0.26,0
		c-0.38,0-0.74,0.08-1.1,0.14c-0.23,0.05-0.44,0.08-0.66,0.11c-0.11,0-0.23,0.03-0.33,0.05c-0.2,0.03-0.39,0.06-0.59,0.06l0,0
		c-1.12,0-1.36-0.84-1.39-1.55c-0.02-0.5,0.09-0.97,0.23-1.48c0.06-0.21,0.11-0.44,0.15-0.65c0-0.03,0.03-0.05,0.12-0.05h0.15
		c0.71,0,1.42-0.02,2.13-0.03c0.71,0,1.42-0.03,2.13-0.03c1.12,0,2.05,0,2.9,0.05c2.17,0.11,3.23,1.21,3.44,3.56
		c0.03,0.36-0.08,0.71-0.2,1.09c-0.05,0.14-0.09,0.27-0.12,0.41c-0.47,1.8-0.94,3.58-1.4,5.37c-0.54,2.07-1.09,4.15-1.63,6.23
		c-0.09,0.33-0.18,0.41-0.47,0.41h-0.05L147.79,101.82z"/>
	<path class="st1" d="M99.85,101.55c-0.2,0-0.26,0-0.27-0.02l0,0c0.03,0,0.05-0.11,0.09-0.26l0.91-2.91l-0.29-0.17l-0.21,0.08
		l-0.45,0.54c-0.32,0.38-0.63,0.77-0.95,1.15c-0.69,0.86-1.69,1.36-3.12,1.57c-0.2,0.03-0.39,0.05-0.59,0.05
		c-0.18,0-0.36,0-0.56-0.02c-0.56-0.03-1.01-0.33-1.45-0.92c-0.92-1.27-1.21-2.73-0.88-4.48c0.11-0.57,0.23-1.13,0.35-1.7
		c0.14-0.66,0.29-1.33,0.41-1.99c0.3-1.64,0.06-2.99-0.75-4.09c-0.11-0.15-0.12-0.23,0.08-0.39l1.45-1.16
		c0.88-0.71,1.75-1.4,2.63-2.1c0.09-0.06,0.17-0.11,0.27-0.11c0.18,0,0.38,0.11,0.54,0.32c0.6,0.71,0.88,1.61,1.07,2.38
		c0.39,1.49,0.05,2.93-0.35,4.42c-0.27,1.06-0.47,1.96-0.32,2.94c0.11,0.71,0.6,1.18,1.27,1.16c0.17,0,0.35-0.03,0.51-0.09
		c0.71-0.24,1.15-0.77,1.52-1.31c1.04-1.51,1.77-3.3,2.2-5.51c0.11-0.56,0.23-1.12,0.35-1.67c0.17-0.78,0.33-1.57,0.48-2.35
		c0.06-0.29,0.14-0.35,0.44-0.35c0.68,0,1.34,0,2.01,0h2.32c0.23-0.02,0.36,0,0.39,0.02c0,0.03,0,0.17-0.06,0.39
		c-0.23,0.94-1.58,6.59-1.58,6.59c-0.77,3.2-1.52,6.38-2.28,9.58c-0.08,0.3-0.17,0.38-0.48,0.38l-4.71,0.03H99.85z"/>
	<path class="st1" d="M116.68,101.67c-0.32,0-0.42-0.08-0.51-0.41c-0.42-1.48-0.86-2.96-1.3-4.42l-0.44-1.46l-0.03-0.11
		c0,0-0.03-0.09-0.05-0.12c-0.02-0.09-0.08-0.36-0.35-0.38l0,0c-0.33,0-0.39,0.29-0.42,0.39l-0.66,2.88
		c-0.24,1.04-0.47,2.08-0.69,3.12c-0.06,0.32-0.17,0.41-0.47,0.41c-0.75,0-1.49,0-2.22,0c-0.72,0-1.51,0-2.26,0.03h-0.11
		c-0.2,0-0.23-0.02-0.24-0.03l0,0c0,0-0.02-0.05,0.03-0.23c0.86-3.53,1.7-7.08,2.56-10.61l1.16-4.8c0.08-0.33,0.18-0.66,0.27-1
		l0.08-0.26c0.05-0.14,0.11-0.18,0.26-0.18c0.72,0.03,1.42,0.05,2.11,0.06c0.8,0.03,1.6,0.05,2.4,0.08c0.06,0,0.27,0,0.32,0.03
		c0,0-0.06,0.21-0.09,0.29l-0.92,3.59l0.3,0.14l0.2-0.08l0.5-0.6c0.39-0.5,0.8-0.98,1.19-1.48c0.51-0.62,1.15-1.16,2.02-1.74
		c0.15-0.11,0.33-0.15,0.54-0.15c0.74,0,2.94,0,2.94,0s1.55,0,1.61,0c-0.02,0.03-0.51,0.86-0.51,0.86c-0.57,0.95-1.15,1.9-1.75,2.84
		c-0.77,1.22-2.02,1.69-3.26,2.02c-0.53,0.15-1.06,0.29-1.58,0.45c-0.15,0.05-0.3,0.12-0.48,0.24c-0.26,0.17-0.38,0.42-0.33,0.71
		c0.03,0.29,0.23,0.45,0.57,0.5c0.45,0.06,0.89,0.12,1.34,0.17c0.84,0.08,1.36,0.47,1.58,1.22c0.75,2.58,1.51,5.15,2.26,7.73
		c0.06,0.21,0.06,0.27,0.06,0.29c0,0,0,0-0.02,0c-0.03,0-0.11,0-0.24,0h-2.91c-0.8,0.03-1.6,0.03-2.4,0.05h-0.02L116.68,101.67z"/>
	<path class="st1" d="M62.04,102.03c-1.21-2.17-2.97-3.79-4.53-5.07c-0.36-0.3-0.72-0.6-1.07-0.92c-0.5-0.44-1-0.88-1.52-1.28
		c-1.15-0.89-1.66-2.17-1.61-3.92c0.05-1.24,0.47-2.35,1.3-3.44c0.03-0.03,0.05-0.08,0.08-0.11c0,0.03,0,0.08,0,0.11
		c-0.03,0.56,0,1.22,0.33,1.84c0.12,0.23,0.26,0.39,0.41,0.53l0.74,0.65c0.89,0.8,1.78,1.58,2.66,2.4c1.21,1.12,2.34,2.4,3.44,3.91
		c0.05,0.08,0.3,0.38,0.3,0.38l0.32,0.41l0.03-0.51c0.05-0.71-0.06-1.34-0.36-2.04c-0.45-1.07-1.16-2.08-2.08-3
		c-0.78-0.77-1.58-1.54-2.38-2.29l-1.19-1.13c-1.1-1.06-1.18-2.94-0.15-4.04c0.44-0.47,0.92-0.92,1.39-1.36l0.35-0.32
		c1.74-1.61,2.87-3.18,3.59-4.92c0.06,0.12,0.09,0.24,0.14,0.36l0.06,0.17c0.51,1.39,1.49,2.41,2.46,3.32
		c0.42,0.38,0.86,0.74,1.3,1.1l0.27,0.23c0,0,0.08,0.06,0.08,0.08c0,0-0.02,0.03-0.08,0.08c-0.42,0.41-0.83,0.81-1.24,1.22
		c-0.42,0.42-0.84,0.83-1.27,1.25c-0.09,0.09-0.24,0.23-0.32,0.23c-0.08,0-0.23-0.14-0.33-0.26l-0.33-0.33
		c-0.33-0.35-0.68-0.69-1.06-1.01c-0.3-0.24-0.56-0.36-0.78-0.36c-0.17,0-0.32,0.06-0.44,0.2c-0.14,0.14-0.21,0.35-0.2,0.57
		c0,0.32,0.15,0.63,0.38,0.84c1.37,1.3,2.75,2.58,4.13,3.86c0.71,0.65,1.43,1.31,1.69,2.32c0.27,1.04,0.17,1.95-0.32,2.78
		c-0.29,0.5-0.59,1-0.88,1.51c-1.13,1.93-2.31,3.94-3.27,6.02L62.04,102.03z"/>
	<path class="st1" d="M127.25,101.61c-0.6,0-1.21,0-1.83,0l-2.37,0.03c-0.09,0-0.27,0-0.32-0.02c0-0.02,0.06-0.23,0.08-0.29
		c0.33-1.54,0.68-3.08,1.03-4.6l2.69-11.65c0.07-0.31,0.18-0.47,0.33-0.47l4.62,0.12c0.12,0,0.29,0,0.33,0.03l0,0
		c0,0-0.08,0.17-0.11,0.29c-0.14,0.56-0.29,1.13-0.44,1.69l-0.03,0.11c-0.03,0.12-0.09,0.3,0.02,0.54l0.11,0.26l0.81-0.75
		c0.44-0.41,0.84-0.78,1.28-1.16c0.71-0.6,1.55-0.95,2.44-1c0.47-0.03,0.94-0.03,1.42-0.05c0.39,0,0.78,0,1.16,0h0.94
		c0.15,0,0.21,0,0.24,0.02c0,0-0.03,0.08-0.08,0.2c-0.12,0.3-0.24,0.62-0.35,0.92c-0.3,0.8-0.6,1.63-1.03,2.35
		c-0.81,1.39-1.87,2.1-3.21,2.16c-0.94,0.05-1.89,0.17-2.81,0.27l-0.74,0.09c-0.75,0.09-1.24,0.53-1.42,1.3l-0.57,2.4
		c-0.54,2.26-1.1,4.53-1.63,6.79c-0.09,0.36-0.2,0.45-0.51,0.45h-0.05L127.25,101.61z"/>
	<path class="st1" d="M62.37,103.87c0.15-0.77,0.44-1.57,0.88-2.46c0.84-1.74,2.01-3.32,3.12-4.84l0.39-0.53
		c1.21-1.64,1.52-3.24,0.98-4.9c-0.3-0.91-0.74-1.64-1.36-2.25c-0.29-0.29-0.57-0.57-0.84-0.86c-0.33-0.33-0.65-0.66-1-1
		c-0.08-0.08-0.12-0.15-0.12-0.2c0-0.06,0.08-0.12,0.12-0.15c0.6-0.47,1.15-1.01,1.66-1.54c0.33-0.33,0.65-0.66,1-0.98
		c0.14-0.12,0.24-0.21,0.27-0.23c0,0,0.12,0.12,0.23,0.23c1.09,1.12,2.19,2.34,2.73,3.92c0.36,1.06,0.39,2.19,0.09,3.56
		c-0.54,2.47-2.07,4.45-3.58,6.25c-0.32,0.38-0.63,0.74-0.95,1.12c-1.09,1.27-2.2,2.56-3.11,4c-0.17,0.26-0.33,0.54-0.5,0.84
		L62.37,103.87z"/>
	<path class="st0" d="M226.28,101.89c-2.38,0.02-4.41-1.98-4.42-4.36c0-1.18,0.44-2.29,1.27-3.14c0.83-0.84,1.93-1.31,3.11-1.31
		c2.44-0.02,4.44,1.93,4.47,4.35c0.03,2.43-1.93,4.42-4.36,4.47h-0.05L226.28,101.89z M226.22,93.61c-2.13,0-3.86,1.77-3.85,3.91
		c0,1.01,0.41,1.98,1.15,2.7c0.74,0.72,1.7,1.13,2.72,1.12l0,0c1.07,0,2.07-0.42,2.81-1.16c0.71-0.72,1.1-1.67,1.09-2.7
		c-0.02-2.17-1.74-3.88-3.89-3.88h-0.02V93.61z M224.95,99.87c-0.18,0-0.3-0.03-0.36-0.09c-0.08-0.08-0.09-0.23-0.09-0.42
		c0-1.51,0-2.76-0.03-3.91c0-0.21,0.02-0.33,0.09-0.41c0.06-0.06,0.17-0.09,0.33-0.09c0.21,0,0.36,0,0.51,0h0.54
		c0.5,0,0.91,0,1.33,0.09c0.68,0.14,1.01,0.42,1.1,0.94c0.12,0.71-0.11,1.19-0.68,1.45c-0.15,0.08-0.24,0.15-0.27,0.24
		c-0.05,0.12,0.02,0.26,0.09,0.39c0.21,0.41,0.42,0.83,0.63,1.25l0.24,0.47c-0.27,0.05-0.48,0.06-0.63,0.06
		c-0.38,0-0.45-0.15-0.75-0.77l-0.14-0.29c-0.12-0.23-0.24-0.47-0.33-0.71c-0.12-0.32-0.35-0.35-0.51-0.35c-0.08,0-0.14,0-0.21,0.02
		c-0.38,0.05-0.36,0.29-0.35,0.45c0,0.05,0,0.09,0,0.12c0,0.33-0.02,0.66,0,0.98c0.02,0.21,0,0.35-0.08,0.42
		c-0.08,0.08-0.2,0.12-0.41,0.12l0,0L224.95,99.87z M225.96,95.49c-0.2,0-0.35,0.05-0.42,0.14c-0.14,0.14-0.12,0.33-0.11,0.54
		c0,0.06,0,0.14,0,0.2c0,0.08,0,0.17,0,0.24c0,0.17-0.02,0.35,0.11,0.48c0.09,0.09,0.23,0.14,0.44,0.14
		c0.78-0.03,1.46-0.17,1.48-0.84c0.02-0.75-0.75-0.88-1.42-0.89h-0.06H225.96z"/>
</g>
</svg>
