<?xml version="1.0" encoding="UTF-8"?>
<svg id="Layer_1" xmlns="http://www.w3.org/2000/svg" version="1.1" viewBox="0 0 284.22 185.49">
  <!-- Generator: Adobe Illustrator 30.1.0, SVG Export Plug-In . SVG Version: 2.1.1 Build 136)  -->
  <defs>
    <style>
      .st0 {
        fill: #231f20;
      }

      .st1 {
        fill-rule: evenodd;
      }
    </style>
  </defs>
  <g>
    <path class="st0" d="M189.31,101.78c-.05,0-.1-.01-.16-.04-.11-.05-.25-.16-.23-.48.02-.36.13-.72.35-1.18.16-.33.32-.63.53-.88.38-.45.68-.99.96-1.74.06-.15.12-.31.18-.46.13-.34.26-.68.37-1.02l.15-.47-.71.65c-.28.26-.57.52-.86.77-.41.36-.77.62-1.14.83-.17.09-.29.16-.4.16-.06,0-.11-.02-.16-.05-.17-.12-.15-.29-.1-.56.04-.24.11-.43.2-.64.04-.09.08-.19.11-.3l.16-.46s-.73.61-.81.68c-.54.44-1.2.93-1.98,1.26-.21.09-.37.13-.53.13-.07,0-.14,0-.2-.02-.3-.07-.43-.27-.39-.58.04-.27.14-.52.26-.78.13-.28.26-.55.39-.83.15-.32.31-.65.46-.97l.03-.06c.05-.1.12-.23.08-.36-.03-.08-.09-.14-.18-.18-.08-.04-.16-.05-.24-.05-.12,0-.3.05-.44.26-.93,1.34-2.13,2.42-3.59,3.22-.35.19-.74.31-1.15.35-.09,0-.19.01-.28.02-.81,0-1.31-.37-1.52-1.13l-.05-.19-.28.2c-.38.28-.74.54-1.13.75-.33.18-.66.34-1.02.36h0c-.32,0-.42-.11-.44-.41-.01-.23.03-.47.13-.74l.31-.82-.32.17c-.2.11-.35.24-.48.36-.05.05-.1.09-.16.13-.62.49-1.23.96-1.96,1.22-.19.07-.35.13-.49.13-.11,0-.2-.03-.28-.1-.21-.18-.17-.41-.09-.75.05-.21.11-.37.18-.56.03-.09.07-.19.11-.3l.16-.46-.6.51c-.14.12-.26.22-.39.32-.86.69-1.66,1.27-2.72,1.36-.07,0-.14,0-.21,0-.78,0-1.31-.36-1.47-1.01-.04-.18-.14-.21-.22-.21-.06,0-.11.02-.16.04-.12.05-.25.07-.38.07-.14,0-.28-.03-.42-.09-.07-.03-.14-.05-.19-.05-.14,0-.23.08-.3.16-.28.31-.62.65-1.06.89-.22.12-.47.2-.74.22-.03,0-.06,0-.1,0-.38,0-.6-.18-.71-.56l-.13-.49-.31.28c-.1.09-.18.17-.28.25-.37.29-.72.46-1.1.51-.07.01-.14.02-.21.02-.25,0-.46-.08-.59-.22-.15-.16-.21-.41-.18-.72.01-.12.03-.25.06-.39l.09-.57-.54.43c-.17.14-.33.27-.5.4-.8.6-1.5,1.01-2.36,1.09-.09,0-.17.01-.25.01-.94,0-1.46-.52-1.51-1.53-.04-.79.25-1.55.8-2.13.55-.58,1.31-.91,2.09-.92.05,0,.09,0,.14,0,.38.02.67.16.84.4.16.24.19.56.07.92-.17.51-.58.82-.91,1.04-.43.28-.94.47-1.64.62-.11.02-.25.07-.3.2-.05.13.04.25.11.33.15.17.35.26.62.26h0c.54,0,.98-.22,1.34-.42,1.1-.63,1.98-1.54,2.83-2.41.19-.2.26-.41.33-.6l.03-.09c.05-.15.11-.17.22-.17.15.01.25.01.35.01.11,0,.22,0,.33-.01h.03s-.01.03-.02.04c-.29.66-.58,1.32-.87,1.98l-.3.68c-.08.19-.16.38-.19.58-.02.14,0,.25.07.32.04.04.11.09.23.09.05,0,.1,0,.15-.02.26-.07.45-.23.59-.36.48-.46.83-.99,1.2-1.66.06-.11.12-.22.18-.33.13-.26.26-.5.43-.73.07-.09.13-.15.19-.2.04-.03.09-.05.14-.05.05,0,.11.02.17.05.07.04.11.09.09.23-.05.31-.15.62-.24.92-.05.15-.1.3-.14.45-.06.2-.29.97-.34,1.16-.03.12-.09.32.1.46.07.05.15.08.23.08s.17-.03.24-.08c.57-.37,1.09-.77,1.16-1.54.06-.65.26-1.23.59-1.72.1-.15.22-.3.4-.39.08-.04.15-.06.22-.06.17,0,.28.13.29.35.02.59-.22,1.11-.5,1.69-.01.02-.03.05-.05.07-.06.08-.18.25-.04.38.06.06.14.09.23.09.13,0,.25-.06.33-.11.17-.1.27-.23.33-.43.38-1.23,1.52-2.09,2.78-2.1h.1c.4.01.72.16.89.42.17.26.18.61.02.99-.15.37-.44.67-.92.97-.46.29-.99.48-1.62.59-.1.02-.23.05-.28.17-.05.13.03.26.08.32.14.2.35.3.63.31h0c.57,0,1.02-.22,1.42-.46.99-.58,1.78-1.39,2.56-2.17l.05-.05c.1-.11.14-.23.17-.34l1.49-4.59c.1-.31.21-.55.34-.75.11-.16.21-.24.32-.24.03,0,.05,0,.08.01.13.04.19.14.21.39.05.67-.15,1.3-.37,1.94-.23.66-.51,1.32-.82,1.95-.39.77-.62,1.59-.85,2.39-.11.39-.22.78-.35,1.16-.03.08-.09.26.05.39.05.04.1.07.16.06.08,0,.15-.05.2-.08,1.07-.65,1.95-1.5,2.75-2.33.09-.09.12-.21.15-.3l.4-1.25c.36-1.11.72-2.22,1.09-3.33.07-.22.17-.44.3-.69.12-.23.23-.33.37-.34.03,0,.05,0,.08,0,.2.05.22.22.23.5.01.49-.1.95-.23,1.38-.21.68-.4,1.19-.63,1.64-.62,1.21-1.02,2.51-1.38,3.75-.06.21-.12.43-.18.64-.04.16,0,.27.09.33l.03.02.09.02c.08,0,.15-.04.19-.07.45-.27.9-.6,1.37-1,.1-.09.13-.2.15-.28l.02-.06c.38-1.22,1.53-2.08,2.78-2.09h.11c.4.01.71.16.88.42.17.26.18.6.03.97-.15.36-.42.66-.89.96-.46.29-1,.49-1.67.61-.09.02-.22.05-.27.16-.05.12.03.25.06.31.13.21.34.31.62.32h.08c.39,0,.78-.12,1.24-.39,1.03-.59,1.94-1.39,2.8-2.45.17-.21.32-.48.08-.82-.13-.18-.08-.42-.03-.55.08-.23.25-.36.45-.36.14,0,.42.05.45.33.05.46.32.52.61.52h.2c.38,0,.63.07.74.23.11.17.09.45-.07.85-.17.41-.35.82-.53,1.22l-.28.62c-.06.12-.16.3,0,.44.04.04.1.06.15.06.09,0,.16-.05.22-.09,1.1-.65,1.97-1.46,2.96-2.5.16-.16.23-.36.3-.55.02-.06.04-.12.07-.18.04-.09.07-.1.13-.1.12,0,.22,0,.33,0s.19,0,.29-.01h.03s0,.02-.02.04c-.34.77-.67,1.54-1.01,2.32l-.13.31c-.05.1-.11.22-.07.39l.02.1s.1,0,.11,0c.21,0,.32-.1.41-.18.98-.8,1.77-1.71,2.35-2.41.03-.03.05-.06.07-.09.18-.35.45-.51.83-.52.07,0,.14,0,.22.01.03,0,.05,0,.07.01,0,.01-.01.03-.02.05-.35.79-.68,1.59-1.02,2.39l-.34.79c-.03.07-.06.15-.04.27l.03.23,1.72-1.4v.07c0,.27,0,.51,0,.76,0,.02-.05.05-.08.07-.03.02-.05.03-.07.05-.94.76-1.7,1.4-2.37,2.04-.18.17-.29.35-.36.59-.21.69-.42,1.23-.68,1.71-.1.18-.22.39-.39.55-.13.12-.24.18-.34.18ZM169.83,94.12c-.11,0-.22.03-.36.1-.56.27-.97.73-1.24,1.41l-.09.22.24-.04c.59-.1,1.2-.26,1.68-.71.27-.26.33-.51.18-.75-.09-.15-.23-.23-.4-.23ZM181.08,94.05c-.09,0-.2.03-.32.08-.59.26-1,.71-1.3,1.43l-.09.22.24-.04c.71-.12,1.28-.3,1.73-.76.23-.23.27-.48.13-.71-.09-.14-.23-.22-.39-.22ZM157.81,94.21c-.08,0-.17.02-.24.04-.09.02-.17.06-.25.1-.53.31-.9.75-1.13,1.35l-.08.2h.21c.32-.04.58-.12.8-.19.34-.12.72-.29.99-.64.19-.24.21-.46.06-.66-.09-.13-.22-.19-.38-.19ZM150.05,101.68c-.56,0-.96-.34-1.06-.91-.03-.17-.06-.36-.04-.48.07-1.15.6-2,1.17-2.75.71-.94,1.62-1.77,2.79-2.53.18-.11.29-.26.37-.45.58-1.43,1.02-2.65,1.25-3.94l.02-.08c.04-.19.1-.5-.19-.64-.06-.03-.12-.04-.18-.04-.22,0-.38.19-.5.34-.68.84-.98,1.8-1.2,2.62-.09.35-.69.84-1.06.87-.06-.01-.06-.07-.06-.11.01-.56.12-1.1.32-1.67.32-.89.82-1.99,1.85-2.72.33-.23.65-.34.97-.35.55,0,.9.29,1,.82.11.55,0,1.09-.14,1.68-.45,1.94-1.22,3.82-1.91,5.43-.56,1.31-1.08,2.48-1.74,3.61-.18.3-.42.68-.79.95-.24.18-.47.28-.72.31-.06,0-.11.01-.16.01ZM152.19,96.61c-.7.57-1.28,1.25-1.76,2.08-.23.39-.47.8-.57,1.27l-.02.08c-.05.18-.12.49.18.62.05.02.11.04.16.03.23,0,.37-.21.48-.37.21-.32.36-.64.51-.95l.1-.21c.27-.57.53-1.13.8-1.7l.32-.69-.2-.16Z"/>
    <path class="st1" d="M96.92,97.86c-.24,0-.29-.03-.3-.04,0-.01-.02-.07.04-.3.28-1.05.56-2.11.85-3.16,0,0,.49-1.79.59-2.16.06-.23.16-.27.3-.27.02,0,.05,0,.08,0,.27.03.55.04.83.05.14,0,.28.01.41.02.14,0,.17.03.18.03t0,0s0,.04-.04.17c-.17.45-.24.87-.22,1.29.01.24.09.46.22.66.16.24.42.38.71.38s.55-.14.73-.37c.59-.73.59-1.6.53-2.19-.07-.73-.37-1.37-.67-1.99-.07-.15-.15-.31-.22-.47-.85-1.91-.79-3.77.2-5.55.68-1.23,1.88-1.96,3.19-1.97.53,0,1.06.11,1.59.33,1.35.57,2.33,1.36,3.01,2.42l.06.09c.35.57.76.89,1.31,1.02.14.03.19.06.2.07-.02,0-.05.05-.17.16l-.31.3c-.3.29-.61.58-.94.83-.59.45-1.22.69-1.87.69-.18,0-.37-.02-.56-.05-.74-.14-1.2-.72-1.55-1.26-.27-.41-.49-.86-.68-1.33-.08-.2-.21-.43-.53-.43h0c-.27,0-.47.12-.61.36-.19.31-.25.67-.18,1.12.1.65.39,1.18.87,1.59.58.49,1.24.87,1.88,1.23l.12.07c2.77,1.58,2.61,4.86,1.61,6.68-.34.63-.81,1.19-1.39,1.68-.2.17-.41.24-.67.24l-8.6.06Z"/>
    <path class="st1" d="M145.95,98.06c-.66-.02-1.33-.02-1.99-.02h-1.01s-.16,0-.19-.02c0,0,0,0,0,0,.02,0,.05-.1.07-.15l.55-1.99.02-.06c.03-.09.07-.21.03-.36l-.04-.13-.13.04c-.16.05-.22.17-.25.24-.11.2-.19.35-.28.51-.16.3-.32.6-.51.88-.45.7-.95,1.01-1.63,1.02-.52-.01-.97-.01-1.43,0l-2.07.02s-.19,0-.22-.02c0-.01.05-.15.06-.19l.28-1.09c.21-.81.42-1.62.65-2.43.29-1.02.86-1.91,1.69-2.67.29-.27.63-.4,1.03-.4.48,0,.92,0,1.37,0,.49,0,.97,0,1.46-.02.74-.01,1.36-.55,1.4-1.22.04-.58-.28-.94-.87-.99-.06,0-.12,0-.17,0-.25,0-.49.05-.73.09-.15.03-.29.05-.44.07-.07,0-.15.02-.22.03-.13.02-.26.04-.39.04h0c-.74,0-.9-.56-.92-1.03-.01-.33.06-.64.15-.98.04-.14.07-.29.1-.43,0-.02.02-.03.08-.03h.1c.47,0,.94-.01,1.41-.02.47,0,.94-.02,1.41-.02.74,0,1.36,0,1.92.03,1.44.07,2.14.8,2.28,2.36.02.24-.05.47-.13.72-.03.09-.06.18-.08.27-.31,1.19-.62,2.37-.93,3.56-.36,1.37-.72,2.75-1.08,4.13-.06.22-.12.27-.31.27h-.03Z"/>
    <path class="st1" d="M114.18,97.88c-.13,0-.17,0-.18-.01,0,0,0,0,0,0,.02,0,.03-.07.06-.17l.6-1.93-.19-.11-.14.05-.3.36c-.21.25-.42.51-.63.76-.46.57-1.12.9-2.07,1.04-.13.02-.26.03-.39.03-.12,0-.24,0-.37-.01-.37-.02-.67-.22-.96-.61-.61-.84-.8-1.81-.58-2.97.07-.38.15-.75.23-1.13.09-.44.19-.88.27-1.32.2-1.09.04-1.98-.5-2.71-.07-.1-.08-.15.05-.26l.96-.77c.58-.47,1.16-.93,1.74-1.39.06-.04.11-.07.18-.07.12,0,.25.07.36.21.4.47.58,1.07.71,1.58.26.99.03,1.94-.23,2.93-.18.7-.31,1.3-.21,1.95.07.47.4.78.84.77.11,0,.23-.02.34-.06.47-.16.76-.51,1.01-.87.69-1,1.17-2.19,1.46-3.65.07-.37.15-.74.23-1.11.11-.52.22-1.04.32-1.56.04-.19.09-.23.29-.23.45,0,.89,0,1.33,0h1.54c.15-.01.24,0,.26.01,0,.02,0,.11-.04.26-.15.62-1.05,4.37-1.05,4.37-.51,2.12-1.01,4.23-1.51,6.35-.05.2-.11.25-.32.25l-3.12.02Z"/>
    <path class="st1" d="M125.33,97.96c-.21,0-.28-.05-.34-.27-.28-.98-.57-1.96-.86-2.93l-.29-.97-.02-.07s-.02-.06-.03-.08c-.01-.06-.05-.24-.23-.25h0c-.22,0-.26.19-.28.26l-.44,1.91c-.16.69-.31,1.38-.46,2.07-.04.21-.11.27-.31.27-.5,0-.99,0-1.47,0s-1,0-1.5.02h-.07c-.13,0-.15-.01-.16-.02h0s-.01-.03.02-.15c.57-2.34,1.13-4.69,1.7-7.03l.77-3.18c.05-.22.12-.44.18-.66l.05-.17c.03-.09.07-.12.17-.12.48.02.94.03,1.4.04.53.02,1.06.03,1.59.05.04,0,.18,0,.21.02,0,0-.04.14-.06.19l-.61,2.38.2.09.13-.05.33-.4c.26-.33.53-.65.79-.98.34-.41.76-.77,1.34-1.15.1-.07.22-.1.36-.1.49,0,1.95,0,1.95,0,0,0,1.03,0,1.07,0-.01.02-.34.57-.34.57-.38.63-.76,1.26-1.16,1.88-.51.81-1.34,1.12-2.16,1.34-.35.1-.7.19-1.05.3-.1.03-.2.08-.32.16-.17.11-.25.28-.22.47.02.19.15.3.38.33.3.04.59.08.89.11.56.05.9.31,1.05.81.5,1.71,1,3.41,1.5,5.12.04.14.04.18.04.19,0,0,0,0-.01,0-.02,0-.07,0-.16,0h-1.93c-.53.02-1.06.02-1.59.03h-.01Z"/>
    <path class="st1" d="M89.12,98.2c-.8-1.44-1.97-2.51-3-3.36-.24-.2-.48-.4-.71-.61-.33-.29-.66-.58-1.01-.85-.76-.59-1.1-1.44-1.07-2.6.03-.82.31-1.56.86-2.28.02-.02.03-.05.05-.07,0,.02,0,.05,0,.07-.02.37,0,.81.22,1.22.08.15.17.26.27.35l.49.43c.59.53,1.18,1.05,1.76,1.59.8.74,1.55,1.59,2.28,2.59.03.05.2.25.2.25l.21.27.02-.34c.03-.47-.04-.89-.24-1.35-.3-.71-.77-1.38-1.38-1.99-.52-.51-1.05-1.02-1.58-1.52l-.79-.75c-.73-.7-.78-1.95-.1-2.68.29-.31.61-.61.92-.9l.23-.21c1.15-1.07,1.9-2.11,2.38-3.26.04.08.06.16.09.24l.04.11c.34.92.99,1.6,1.63,2.2.28.25.57.49.86.73l.18.15s.05.04.05.05c0,0-.01.02-.05.05-.28.27-.55.54-.82.81-.28.28-.56.55-.84.83-.06.06-.16.15-.21.15s-.15-.09-.22-.17l-.22-.22c-.22-.23-.45-.46-.7-.67-.2-.16-.37-.24-.52-.24-.11,0-.21.04-.29.13-.09.09-.14.23-.13.38,0,.21.1.42.25.56.91.86,1.82,1.71,2.74,2.56.47.43.95.87,1.12,1.54.18.69.11,1.29-.21,1.84-.19.33-.39.66-.58,1-.75,1.28-1.53,2.61-2.17,3.99Z"/>
    <path class="st1" d="M132.34,97.92c-.4,0-.8,0-1.21,0l-1.57.02c-.06,0-.18,0-.21-.01,0-.01.04-.15.05-.19.22-1.02.45-2.04.68-3.05l1.78-7.72q.07-.31.22-.31l3.06.08c.08,0,.19,0,.22.02h0s-.05.11-.07.19c-.09.37-.19.75-.29,1.12l-.02.07c-.02.08-.06.2.01.36l.07.17.54-.5c.29-.27.56-.52.85-.77.47-.4,1.03-.63,1.62-.66.31-.02.62-.02.94-.03.26,0,.52,0,.77,0h.62c.1,0,.14,0,.16.01,0,0-.02.05-.05.13-.08.2-.16.41-.23.61-.2.53-.4,1.08-.68,1.56-.54.92-1.24,1.39-2.13,1.43-.62.03-1.25.11-1.86.18l-.49.06c-.5.06-.82.35-.94.86l-.38,1.59c-.36,1.5-.73,3-1.08,4.5-.06.24-.13.3-.34.3h-.03Z"/>
    <path class="st1" d="M89.34,99.42c.1-.51.29-1.04.58-1.63.56-1.15,1.33-2.2,2.07-3.21l.26-.35c.8-1.09,1.01-2.15.65-3.25-.2-.6-.49-1.09-.9-1.49-.19-.19-.38-.38-.56-.57-.22-.22-.43-.44-.66-.66-.05-.05-.08-.1-.08-.13,0-.04.05-.08.08-.1.4-.31.76-.67,1.1-1.02.22-.22.43-.44.66-.65.09-.08.16-.14.18-.15,0,0,.08.08.15.15.72.74,1.45,1.55,1.81,2.6.24.7.26,1.45.06,2.36-.36,1.64-1.37,2.95-2.37,4.14-.21.25-.42.49-.63.74-.72.84-1.46,1.7-2.06,2.65-.11.17-.22.36-.33.56Z"/>
    <path class="st0" d="M197.97,98.11c-1.58.01-2.92-1.31-2.93-2.89,0-.78.29-1.52.84-2.08.55-.56,1.28-.87,2.06-.87,1.62-.01,2.94,1.28,2.96,2.88.02,1.61-1.28,2.93-2.89,2.96h-.03ZM197.93,92.62c-1.41,0-2.56,1.17-2.55,2.59,0,.67.27,1.31.76,1.79.49.48,1.13.75,1.8.74h0c.71,0,1.37-.28,1.86-.77.47-.48.73-1.11.72-1.79-.01-1.44-1.15-2.57-2.58-2.57h-.01ZM197.09,96.77c-.12,0-.2-.02-.24-.06-.05-.05-.06-.15-.06-.28,0-1,0-1.83-.02-2.59,0-.14.01-.22.06-.27.04-.04.11-.06.22-.06.14,0,.24,0,.34,0h.36c.33,0,.6,0,.88.06.45.09.67.28.73.62.08.47-.07.79-.45.96-.1.05-.16.1-.18.16-.03.08.01.17.06.26.14.27.28.55.42.83l.16.31c-.18.03-.32.04-.42.04-.25,0-.3-.1-.5-.51l-.09-.19c-.08-.15-.16-.31-.22-.47-.08-.21-.23-.23-.34-.23-.05,0-.09,0-.14.01-.25.03-.24.19-.23.3,0,.03,0,.06,0,.08,0,.22-.01.44,0,.65.01.14,0,.23-.05.28-.05.05-.13.08-.27.08h0ZM197.76,93.87c-.13,0-.23.03-.28.09-.09.09-.08.22-.07.36,0,.04,0,.09,0,.13,0,.05,0,.11,0,.16,0,.11-.01.23.07.32.06.06.15.09.29.09.52-.02.97-.11.98-.56.01-.5-.5-.58-.94-.59h-.04Z"/>
  </g>
  <g>
    <path class="st0" d="M159.14,102.84c.22.13.54.24.88.24.5,0,.79-.27.79-.65,0-.36-.21-.56-.72-.75-.62-.22-1.01-.53-1.01-1.07,0-.59.48-1.04,1.22-1.04.39,0,.67.09.84.18l-.13.4c-.12-.07-.38-.18-.72-.18-.52,0-.71.32-.71.57,0,.36.23.53.76.73.64.24.97.55.98,1.11,0,.59-.43,1.1-1.32,1.1-.37,0-.77-.1-.97-.24l.12-.41Z"/>
    <path class="st0" d="M162.5,99.92c0,.17-.12.31-.31.31-.17,0-.3-.13-.3-.3s.13-.31.31-.31.31.13.31.31ZM161.97,103.42l-.02-2.73h.5s.02,2.73.02,2.73h-.5Z"/>
    <path class="st0" d="M163.28,101.42c0-.28,0-.51-.03-.74h.44s.03.45.03.45h.01c.13-.26.45-.52.9-.52.38,0,.97.22.97,1.16v1.63s-.49,0-.49,0v-1.57c-.01-.44-.18-.81-.65-.8-.33,0-.58.24-.66.51-.02.06-.03.15-.03.23v1.64s-.49,0-.49,0v-1.99Z"/>
    <path class="st0" d="M168.37,103.28c-.13.07-.42.16-.78.16-.82,0-1.36-.55-1.37-1.38s.57-1.45,1.46-1.46c.29,0,.55.07.69.14l-.11.38c-.12-.07-.31-.13-.58-.13-.63,0-.96.47-.96,1.04,0,.63.41,1.02.95,1.01.28,0,.47-.08.61-.14l.09.37Z"/>
    <path class="st0" d="M169.18,102.1c.02.67.45.94.94.94.36,0,.57-.07.76-.15l.09.35c-.17.08-.47.17-.91.18-.84,0-1.35-.54-1.35-1.37s.47-1.48,1.27-1.48c.89,0,1.13.78,1.14,1.28,0,.1,0,.18-.02.23h-1.92ZM170.64,101.73c0-.32-.14-.81-.69-.8-.5,0-.72.47-.76.81h1.45Z"/>
    <path class="st0" d="M173.83,100.14h-.01s-.63.35-.63.35l-.1-.38.8-.43h.42s.02,3.66.02,3.66h-.48s-.02-3.2-.02-3.2Z"/>
    <path class="st0" d="M175.96,102.98c.11.01.23,0,.4-.02.29-.04.56-.16.76-.36.24-.22.41-.54.48-.98h-.02c-.2.25-.49.4-.86.4-.66,0-1.09-.49-1.09-1.12,0-.69.49-1.31,1.24-1.31s1.22.6,1.22,1.54c0,.81-.26,1.37-.62,1.72-.28.28-.67.45-1.06.5-.18.03-.34.04-.46.03v-.41ZM176.12,100.87c0,.46.28.78.71.77.33,0,.59-.17.72-.39.03-.05.04-.1.04-.18,0-.63-.24-1.1-.76-1.1-.42,0-.72.38-.72.9Z"/>
    <path class="st0" d="M180.92,99.63v.33s-1.57,3.35-1.57,3.35h-.51s1.57-3.25,1.57-3.25h0s-1.79,0-1.79,0v-.41s2.31-.02,2.31-.02Z"/>
    <path class="st0" d="M181.74,102.94c.11.01.23,0,.4-.02.29-.04.56-.16.76-.36.24-.22.41-.54.48-.98h-.02c-.2.25-.49.4-.86.4-.66,0-1.09-.49-1.09-1.12,0-.69.49-1.31,1.24-1.31s1.22.6,1.22,1.54c0,.81-.26,1.37-.62,1.72-.28.28-.67.45-1.06.5-.18.03-.34.04-.46.03v-.41ZM181.91,100.83c0,.46.28.78.71.77.33,0,.59-.17.72-.39.03-.05.04-.1.04-.18,0-.63-.24-1.1-.76-1.1-.42,0-.72.38-.72.9Z"/>
  </g>
</svg>