<?xml version="1.0" encoding="UTF-8"?>
<svg id="Layer_1" xmlns="http://www.w3.org/2000/svg" version="1.1" viewBox="0 0 284.22 185.49">
  <!-- Generator: Adobe Illustrator 30.1.0, SVG Export Plug-In . SVG Version: 2.1.1 Build 136)  -->
  <defs>
    <style>
      .st0 {
        fill: #231f20;
      }
    </style>
  </defs>
  <g>
    <path class="st0" d="M201.15,94.09l1.05-4.84,1.91.36-1.68,4.78-1.28-.3Z"/>
    <path class="st0" d="M83.47,74.72c-6.46,3.6-2.53,16.79,3,16.19l-.28-9.74c-.41-1.9-1.87-1.4-1.67-.09l.45,6.83c-3.08,1.01-4.59-9.22-.3-11.53.03-.82-.4-1.36-1.2-1.67Z"/>
    <path class="st0" d="M139.85,74.72c-6.46,3.6-2.53,16.79,3,16.19l-.28-9.74c-.41-1.9-1.87-1.4-1.67-.09l.45,6.83c-3.08,1.01-4.59-9.22-.3-11.53.03-.82-.4-1.36-1.2-1.67Z"/>
    <path class="st0" d="M173.46,74.72c-6.46,3.6-2.53,16.79,3,16.19l-.28-9.74c-.41-1.9-1.87-1.4-1.67-.09l.45,6.83c-3.08,1.01-4.59-9.22-.3-11.53.03-.82-.4-1.36-1.2-1.67Z"/>
    <path class="st0" d="M87.8,90.67c.15-7.49,1.87-9.8,3.11-10.72.15-.06.31-.09.47-.06,1.8.33,1.37,5.96,1.65,10.78h-1.35c0-2.74.04-5.58-.58-6.49-.21-.3-.65-.31-.9-.04-.85.92-1.19,3.54-1.07,6.53h-1.35Z"/>
    <path class="st0" d="M115.82,90.67c.15-7.49,1.87-9.8,3.11-10.72.15-.06.31-.09.47-.06,1.8.33,1.37,5.96,1.65,10.78h-1.35c0-2.74.04-5.58-.58-6.49-.21-.3-.65-.31-.9-.04-.85.92-1.19,3.54-1.07,6.53h-1.35Z"/>
    <path class="st0" d="M178.13,90.67c.15-7.49,1.87-9.8,3.11-10.72.15-.06.31-.09.47-.06,1.8.33,1.37,5.96,1.65,10.78h-1.35c0-2.74.04-5.58-.58-6.49-.21-.3-.65-.31-.9-.04-.85.92-1.19,3.54-1.07,6.53h-1.35Z"/>
    <path class="st0" d="M153.99,90.89c-.15-3.29.29-6.26,1.87-8.59.4-.89.43-1.61,0-2.13-1.02-2.09-.8-4,.27-5.78.99-1.64,2.55-2.86,4.33-3.56,1-.4,2.02-.67,3.04-.78,1.22-.09,1.95,1.44,1.25,2.26-5.1.79-9.06,2.93-7.95,6.4.22.62,1.15.54,1.55.39.04-.23.24-.43.35-.67.31-.64.31-.42.92-.15.49.22.22,1.57-.26,2.19-.29.51-.8,1.19-1.43,1.96-.21.29-.31.64-.28.99.06.67.3,1.39.74,2.02.1.14.27.17.45.15,4.92-.44,4.69,8.35-.34,12.03-.55,1.21-2.89,1.29-3.2,0-.14-1.25.34-1.62,1.48-1.45,2.11.16,3.48-2.07,3.72-3.82,1-4.13.45-5.42-.75-5.85-.98.16-.91,2.11-.59,4.42h-1.56s-.12-4.38-.12-4.38c-.08-.65-.48-.96-1.09-1.05-.51.24-.81.61-.78,1.17l-.16,4.26-1.48-.04Z"/>
    <ellipse class="st0" cx="164.87" cy="89.9" rx=".7" ry="1.4"/>
    <ellipse class="st0" cx="131.84" cy="89.9" rx=".7" ry="1.4"/>
    <ellipse class="st0" cx="196.57" cy="89.63" rx=".7" ry="1.4"/>
    <ellipse class="st0" cx="199.5" cy="89.63" rx=".7" ry="1.4"/>
    <path class="st0" d="M186.15,81.69c-2.74,3.59-.23,13.27,5.85,11.77,1.27,2.81.84,5.27-.78,7.49-.21.29-.34.63-.36.99-.03.59.09,1.14.4,1.66.34.56,1.11.7,1.62.29,1.09-.87,1.84-2.13,2.05-4.07-.46-5.11-.94-11.44-1.52-14.81-.08-1.18-.63-1.75-1.64-1.7.53,3.22,0,7.63-2.34,7.38-2.34,0-2.87-5.06-1.76-7.85-.19-.95-.6-1.5-1.52-1.14Z"/>
    <path class="st0" d="M103.57,74.88c-.83-.3-1.18.27-1.08,1.61,3.01,1.96,4.45,6.52,2.78,14.01-.13.85-.52,1.34-1.12,1.53-.25.08-.53.08-.75-.06-.29-.19-.43-.54-.48-.99-.04-.32.01-.64.12-.95,1.57-4.68,1.24-8.52-1.34-11.38-.66-.26-.86.06-.73.79,1.99,3.38,2.85,8.68,1.05,8.63-1.53-.09-1.66-3.29-1.62-6.91,0-.23-.18-.43-.41-.44-3.22-.07-6,3.51-5.75,8.81.12.6.39,1,.82,1.22.33.17.72.17,1.08.08,1.58-.42,2.27-1.8,2.11-4.08-.05-.59-.45-1.09-1.07-1.53-.12-.09-.16-.24-.12-.38.21-.61.56-1,1.07-1.16.4-.12.84.04,1.04.4.46.78.74,2.37.93,4.4.05.5.2.99.44,1.43.38.7.63,1.43.6,2.23-.02.42-.37.75-.79.75l-6.38-.11v2.52c.32,1.16.79,2.11,1.44,2.83,1.31,1.46,3.56,1.7,5.14.55.94-.69,1.57-1.76,1.86-3.23.05-.25.21-.47.43-.59,1.26-.7,2.22-1.62,2.92-2.74,2.55-4.07,1.87-14.71-2.19-17.23ZM97.14,88.35c-.15.79-.67,1.36-1.16,1.27-.49-.09-.77-.81-.63-1.6s.67-1.36,1.16-1.27c.49.09.77.81.63,1.6ZM98.07,97.25c-1.27,0-2.31-.51-2.31-1.15s1.03-1.15,2.31-1.15,2.31.51,2.31,1.15-1.03,1.15-2.31,1.15Z"/>
    <path class="st0" d="M115.33,83.27l-.18-1.96-2.14.99-.18-4.39c-1.79-.6-2.81.76-3.25,3.54l-.16,3.54c0,.17-.05.34-.14.49-.49.87-.8,2.19-.9,3.17-.04.39-.02.74.06,1.06.33,1.29,1.88,1.82,2.98,1.07.88-.59,1.48-1.3,1.73-2.13,0,0-.06-4.39,0-4.42.06-.03,2.16-.97,2.16-.97ZM110.64,81.37c-.01-.98.39-1.52,1.2-1.64v2.9s-1.2,0-1.2,0v-1.26ZM110.73,89.08c-.66,0-1.19-.47-1.19-1.05s.53-1.05,1.19-1.05,1.19.47,1.19,1.05-.53,1.05-1.19,1.05Z"/>
    <path class="st0" d="M131.68,68.7c-4.35,1.53-6.75,3.91-7.08,7.2.08,1.42.46,2.69,1.14,3.84.25.42.26.94.05,1.39-.34.72-.52,1.46-.48,2.21l.47,4.7c-1.46.32-2.25-.56-2.57-2.3-.13-1.23-.09-2.44.18-3.63.47-1.58-.88-2.19-1.52-.47-.66,3.76-.16,6.79,2.3,8.55,1.32.94,3.14.96,4.38-.08.42-.35.75-.79.98-1.33.21-1.81.36-3.54.1-4.73-.05-.23-.08-.47-.09-.71-.05-.59-.35-1.12-.76-1.63-.23-.28-.23-.69.03-.95.44-.44.68-.93.73-1.46.07-1.44-.52-1.73-1.4-1.51v.03c-.11.28-.36.61-.66.62-.44.01-.85-.36-1.03-.75-.74-1.57.28-3.51,2.04-4.91.58-.46,1.28-.76,2.01-.89l2.38-.42c.38-1.4-.19-2.21-1.17-2.75ZM126.59,84.73c0-1.64,1.7-1.91,1.7-.28v2.52c.24.87-.78,1.2-1.38.63-.21-.2-.31-.49-.31-.79v-2.09Z"/>
    <path class="st0" d="M153.85,92.75c-2.16.43-3.23-.15-3.18-1.77,0-.17.12-.32.29-.37.62-.17,1.09-.51,1.31-1.1,1.56-4.29.96-8.52-2.85-9.29-.17-.03-.34-.03-.51,0-.81.2-1.21.6-1.15,1.23l.35,6.57h0c-1.16,0-2.19-.81-2.4-1.96-.12-.66-.15-1.46-.1-2.39.02-.37.13-.74.31-1.07l.49-.87c.22-.99-.29-1.37-.99-1.58-2.16,2.16-1.93,9.34,2.87,10.18l.06,1.11,2.74,3.49c-.28.8-.85,1.48-1.63,2.04l-1.23.03c-.6-.13-.87-.49-.82-.93-.35-1.01-1.35-.25-1.35.63.03.8.57,1.76,1.25,2.74.83.43,1.32.49,1.68-.06l5.09-4.45c.79-.97.69-1.7-.23-2.2ZM150.31,88.02c-.38-.01-.69-.23-.92-.76l-.03-4.86c0-.16.05-.31.16-.43.27-.29.7-.34,1.24-.24.37.07.65.37.7.75.22,1.57.13,3.29-.22,4.97-.07.33-.36.57-.7.57h-.24Z"/>
  </g>
  <g>
    <path d="M122.14,110.86h-1.67v.89c0,.57-.22,1.07-.65,1.5-.43.43-1.12.64-2.05.64-.63,0-1.16-.18-1.58-.54-.42-.36-.63-.82-.63-1.4,0-.46.11-.83.33-1.13s.54-.5.95-.61v-2.53h5.47v.71h-1.83v1.75h1.67v.71ZM119.26,110.86h-1.84c-.4,0-.69.09-.87.28s-.27.47-.27.84c0,.32.12.59.35.82.23.23.56.34.98.34.49,0,.89-.15,1.2-.44s.46-.68.46-1.15v-.68ZM119.26,110.15v-1.75h-1.72v1.75h1.72Z"/>
    <path d="M120.69,108.36c-.64-.11-1.09-.35-1.37-.74-.28-.39-.42-.86-.42-1.4,0-.51.21-.99.62-1.44.41-.45.97-.67,1.66-.67.81,0,1.43.23,1.85.69.42.46.63,1.1.63,1.93v7.15h-.71v-6.86c0-.55-.14-.97-.42-1.27s-.73-.44-1.34-.44c-.52,0-.91.13-1.18.39-.26.26-.39.55-.39.89,0,.3.1.56.3.78.2.22.46.37.8.46l.13.03v.52l-.17-.03Z"/>
    <path d="M129.69,111.75c0,.57-.22,1.07-.65,1.5-.43.43-1.12.64-2.06.64-.63,0-1.16-.18-1.58-.54s-.63-.82-.63-1.4c0-.46.11-.83.33-1.13s.54-.5.95-.61v-2.53h5.57v.71h-1.94v1.75h.61c.7,0,1.3.18,1.81.54s.76.98.76,1.85c0,.95-.34,1.63-1.01,2.05s-1.47.64-2.37.64h-2.6c-.33,0-.56.02-.69.05-.13.03-.21.08-.23.13-.02.05-.03.1-.03.12,0,.04.04.11.11.23.08.12.11.25.11.39s-.05.29-.16.43-.27.2-.49.2-.39-.07-.53-.22c-.14-.15-.21-.37-.21-.68,0-.51.19-.86.58-1.04.38-.18.91-.27,1.56-.27h2.53c.74,0,1.29-.19,1.66-.56.36-.37.55-.87.55-1.48s-.13-1.03-.4-1.28c-.27-.25-.63-.38-1.09-.38h-.48v.89ZM128.48,110.86h-1.84c-.4,0-.69.09-.87.28s-.27.47-.27.84c0,.32.12.59.35.82.23.23.56.34.98.34.49,0,.89-.15,1.2-.44.3-.3.46-.68.46-1.15v-.68ZM128.48,110.15v-1.75h-1.72v1.75h1.72Z"/>
    <path d="M133.92,113.88v-6.2h1.21v5.49h2.19v-3.92c0-.35.13-.71.39-1.07.26-.36.77-.54,1.54-.54s1.43.26,1.99.79c.55.52.83,1.27.83,2.25s-.23,1.69-.7,2.16c-.47.47-.97.77-1.51.88s-1.08.17-1.61.17h-4.32ZM138.53,113.17c1.88,0,2.82-.83,2.82-2.5,0-.76-.2-1.33-.62-1.71-.41-.38-.82-.57-1.24-.57-.35,0-.6.09-.74.26-.14.18-.22.42-.22.74v3.77Z"/>
    <path d="M138.39,104.65c.23,0,.43.08.59.25.17.17.25.37.25.6s-.08.43-.25.6c-.17.17-.36.25-.59.25s-.43-.08-.59-.25c-.17-.17-.25-.37-.25-.6s.08-.43.25-.6c.17-.17.36-.25.59-.25Z"/>
    <path d="M143.22,113.88v-6.2h1.21v5.49h3.79v-5.49h1.21v6.2h-6.21Z"/>
    <path d="M156.15,107.68v.71h-1.49v5.96l-3.66,2.43v-.52l2.45-2.38v-5.49h-1.88v5.49h-.71v-6.2h5.29Z"/>
    <path d="M157.46,113.88v-6.2h1.21v5.49h2.19v-3.92c0-.35.13-.71.39-1.07.26-.36.77-.54,1.54-.54s1.43.26,1.99.79c.55.52.83,1.27.83,2.25s-.23,1.69-.7,2.16c-.47.47-.97.77-1.51.88s-1.08.17-1.61.17h-4.32ZM162.07,113.17c1.88,0,2.82-.83,2.82-2.5,0-.76-.21-1.33-.62-1.71-.41-.38-.82-.57-1.24-.57-.35,0-.6.09-.74.26-.14.18-.22.42-.22.74v3.77Z"/>
    <path d="M161.94,104.65c.23,0,.43.08.59.25.17.17.25.37.25.6s-.08.43-.25.6c-.17.17-.36.25-.59.25s-.43-.08-.59-.25c-.17-.17-.25-.37-.25-.6s.08-.43.25-.6c.17-.17.36-.25.59-.25Z"/>
    <path d="M167.82,112.29c.23,0,.43.08.59.25s.25.36.25.59-.08.43-.25.6c-.17.17-.36.25-.59.25s-.44-.08-.6-.25c-.17-.17-.25-.36-.25-.6s.08-.43.25-.59.37-.25.6-.25Z"/>
  </g>
</svg>