<?xml version="1.0" encoding="UTF-8"?>
<svg id="Layer_1" xmlns="http://www.w3.org/2000/svg" version="1.1" viewBox="0 0 689.57 689.57">
  <!-- Generator: Adobe Illustrator 30.1.0, SVG Export Plug-In . SVG Version: 2.1.1 Build 136)  -->
  <defs>
    <style>
      .st0 {
        fill: #fff;
      }
    </style>
  </defs>
  <path class="st0" d="M496.39,337.98v109.07c0,.16-.08.25-.14.31-.07.06-.17.12-.32.1-37.93-4.77-93.57-7.5-152.65-7.5s-111.87,2.6-149.61,7.13c-.15.02-.26-.05-.32-.1-.06-.05-.14-.15-.14-.31v-108.7c0-.22.16-.41.37-.42,18.55-1.01,32.11-15.44,32.96-35.09,0-.23.19-.41.41-.41h38.91c1.59,0,2.99-1,3.49-2.5.79-2.36,1.7-4.72,2.72-7.01l.05-.11c5.34-14.8,14.96-27.48,27.82-36.66,13.14-9.39,28.65-14.35,44.86-14.35s31.72,4.97,44.86,14.35c12.86,9.19,22.48,21.87,27.82,36.66l.05.11c1.02,2.3,1.93,4.66,2.72,7.01.5,1.5,1.9,2.5,3.49,2.5h38.92c.22,0,.4.18.41.41.43,9.82,4.03,18.34,9.84,24.53,5.81,6.19,13.83,10.05,23.11,10.56.2,0,.37.2.37.42Z"/>
  <path d="M496.2,334.29c-7.89-.43-15.18-3.67-20.53-9.12-5.71-5.81-8.93-13.71-9.33-22.84-.08-1.99-1.7-3.55-3.68-3.55h-38.92c-.17,0-.33-.11-.38-.26-.82-2.44-1.76-4.87-2.81-7.26-5.58-15.4-15.6-28.6-28.98-38.16-13.7-9.79-29.87-14.96-46.76-14.96s-33.06,5.17-46.76,14.96c-13.39,9.57-23.41,22.76-28.98,38.16-1.05,2.38-2,4.82-2.81,7.26-.05.16-.21.26-.38.26h-38.91c-1.98,0-3.6,1.56-3.68,3.55-.4,9.13-3.62,17.03-9.33,22.84-5.35,5.45-12.65,8.69-20.54,9.12-1.95.11-3.47,1.72-3.47,3.69v108.7c0,1.06.45,2.06,1.24,2.76.79.7,1.84,1.03,2.88.9,37.62-4.52,92.01-7.11,149.22-7.11s114.45,2.72,152.24,7.48c.16.02.31.03.46.03.89,0,1.76-.32,2.44-.92.79-.7,1.25-1.71,1.25-2.77v-109.07c0-1.97-1.52-3.58-3.47-3.69ZM193.21,446.67v-108.7c0-.22.16-.41.37-.42,18.55-1.01,32.11-15.44,32.96-35.09,0-.23.19-.41.41-.41h38.91c1.59,0,2.99-1,3.49-2.5.79-2.36,1.7-4.72,2.72-7.01l.05-.11c5.34-14.8,14.96-27.48,27.82-36.66,13.14-9.39,28.65-14.35,44.86-14.35s31.72,4.97,44.86,14.35c12.86,9.19,22.48,21.87,27.82,36.66l.05.11c1.02,2.3,1.93,4.66,2.72,7.01.5,1.5,1.9,2.5,3.49,2.5h38.92c.22,0,.4.18.41.41.43,9.82,4.03,18.34,9.84,24.53,5.81,6.19,13.83,10.05,23.11,10.56.2,0,.37.2.37.42v109.07c0,.16-.08.25-.14.31-.07.06-.17.12-.32.1-37.93-4.77-93.57-7.5-152.65-7.5s-111.87,2.6-149.61,7.13c-.15.02-.26-.05-.32-.1-.06-.05-.14-.15-.14-.31Z"/>
  <g>
    <path d="M224.62,372.27c-.58-.16-1.34-.3-2.26-.44-.93-.13-2.04-.19-3.33-.17,0,8.26,0,18.62,0,26.88,0,2.23.04,4.08.11,5.58.08,1.49.2,2.74.3,3.69.12,1.08.24,2.01.42,2.72-2.78.27-4.17.41-6.96.69.15-.75.27-1.7.38-2.83.1-1,.2-2.27.29-3.8.09-1.52.13-3.41.13-5.66,0-8.36,0-18.81,0-27.17-1.29.02-2.4.12-3.31.29-.91.17-1.67.35-2.24.54-.68.23-1.24.49-1.67.76.21-3.91.32-3.77.53-7.67,6.24,0,12.48,0,18.72,0,.23,3.75.34,3.52.57,7.26-.43-.24-.99-.47-1.67-.67Z"/>
    <path d="M254.11,368.26c-.1.92-.19,2.1-.27,3.54-.08,1.44-.12,3.18-.12,5.22,0,6.46,0,12.93-.01,19.39,0,2.08.04,3.82.11,5.22.08,1.4.17,2.56.26,3.46.11,1.02.24,1.88.42,2.55-2.78.19-4.18.3-6.96.5.15-.7.3-1.58.42-2.64.11-.93.2-2.12.29-3.54.09-1.42.14-3.18.14-5.28,0-2.4,0-3.6,0-6-4.41.19-6.62.3-11.03.51,0,2.45,0,3.67,0,6.12,0,2.14.04,3.93.11,5.37.08,1.44.2,2.64.3,3.56.12,1.04.24,1.94.42,2.62-2.78.23-4.18.35-6.96.59.15-.72.27-1.64.38-2.72.1-.96.2-2.18.29-3.65.09-1.46.13-3.28.14-5.45,0-6.73,0-13.45,0-20.18,0-2.12-.04-3.94-.13-5.43s-.19-2.73-.28-3.69c-.11-1.08-.23-1.98-.38-2.69h6.96c-.18.7-.3,1.61-.42,2.66-.11.93-.23,2.16-.31,3.65-.08,1.48-.12,3.28-.12,5.38,0,2.42,0,3.64,0,6.06,4.41-.15,6.62-.22,11.03-.36,0-2.38,0-3.56,0-5.94,0-2.06-.04-3.82-.13-5.27-.09-1.45-.18-2.65-.28-3.57-.12-1.04-.27-1.92-.42-2.61h6.96c-.18.68-.31,1.55-.42,2.58Z"/>
    <path d="M281.56,395.2c.38,1.99.74,3.64,1.08,4.97.34,1.33.66,2.43.93,3.3.31.98.61,1.79.91,2.43-3,.14-4.5.21-7.5.37.05-.54.06-1.25,0-2.09-.05-.73-.13-1.67-.23-2.8-.1-1.14-.29-2.53-.57-4.18-3.53.15-5.3.22-8.83.39-.28,1.7-.47,3.13-.57,4.29-.1,1.16-.18,2.12-.23,2.87-.06.86-.05,1.57,0,2.12-3,.18-4.5.28-7.5.47.28-.69.57-1.57.88-2.61.27-.92.59-2.09.93-3.5.34-1.4.72-3.14,1.13-5.22,1.2-6.4,2.41-12.8,3.63-19.2.38-2.01.67-3.72.86-5.13.19-1.41.3-2.58.36-3.47.07-1.01.1-1.86.08-2.53h9.74c-.05.66,0,1.51.07,2.49.07.87.17,2.03.36,3.42.19,1.39.47,3.07.85,5.03,1.2,6.19,2.4,12.39,3.6,18.58ZM274.94,389.93c-.93-5.27-1.39-7.92-2.31-13.22-.13-.82-.27-1.58-.42-2.3-.15-.72-.29-1.41-.42-2.07-.13.66-.27,1.36-.42,2.08-.15.72-.29,1.49-.42,2.31-.93,5.35-1.4,8.03-2.33,13.41,2.53-.09,3.79-.13,6.32-.21Z"/>
    <path d="M304.18,372.2c-.58-.15-1.34-.28-2.26-.41-.93-.13-2.04-.19-3.33-.18,0,7.29,0,15.77-.01,23.06,0,1.96.04,3.6.11,4.92.08,1.32.2,2.43.3,3.27.12.95.24,1.78.42,2.42-2.79.1-4.18.15-6.97.26.15-.65.27-1.48.38-2.46.1-.87.2-1.98.29-3.31.09-1.33.13-2.98.14-4.96,0-7.32,0-15.85.01-23.17-1.29,0-2.4.08-3.31.22-.91.14-1.67.29-2.25.45-.68.19-1.24.41-1.67.65.22-3.4.32-3.9.54-7.29h18.72c.23,3.33.34,3.8.57,7.13-.43-.22-.99-.43-1.67-.61Z"/>
    <path d="M328.19,372.1c-.58-.15-1.34-.28-2.26-.41-.93-.13-2.04-.19-3.33-.19,0,7.17,0,15.54,0,22.71,0,1.93.04,3.55.11,4.85.08,1.3.2,2.39.3,3.23.12.94.24,1.76.42,2.39-2.79.05-4.18.07-6.97.13.15-.64.27-1.45.38-2.41.1-.85.2-1.94.29-3.25.09-1.3.13-2.93.13-4.86,0-7.19,0-15.58,0-22.77-1.29,0-2.4.07-3.31.21-.91.13-1.67.27-2.25.43-.68.18-1.24.4-1.67.63.21-3.32.32-3.79.54-7.11,6.24,0,12.48,0,18.72,0,.23,3.29.34,3.74.57,7.03-.43-.22-.99-.43-1.67-.61Z"/>
    <path d="M358.1,365.68c-.18.63-.31,1.43-.42,2.39-.09.85-.19,1.94-.27,3.28-.08,1.33-.11,2.94-.11,4.83,0,5.47,0,8.2,0,13.66,0,2.19-.23,4.22-.68,6.1-.46,1.89-1.14,3.52-2.05,4.9-.91,1.38-2.04,2.47-3.39,3.25-1.34.79-2.91,1.18-4.68,1.18-1.78,0-3.34-.4-4.7-1.19-1.36-.79-2.49-1.88-3.41-3.26-.91-1.38-1.6-3.02-2.06-4.9-.46-1.88-.68-3.92-.68-6.1,0-5.46,0-8.19,0-13.65,0-1.89-.04-3.5-.13-4.83-.09-1.33-.18-2.43-.28-3.27-.12-.96-.27-1.76-.42-2.39h6.96c-.18.63-.31,1.43-.42,2.38-.09.85-.19,1.94-.27,3.27-.08,1.33-.11,2.94-.11,4.83,0,5.46,0,8.19,0,13.64,0,.89.06,1.83.19,2.83.13,1,.39,1.91.8,2.74s.96,1.52,1.67,2.08c.71.55,1.66.83,2.85.83,1.17,0,2.11-.27,2.84-.83.72-.55,1.28-1.24,1.67-2.07.39-.83.65-1.75.78-2.74.13-1,.19-1.94.19-2.83,0-5.46,0-8.19,0-13.65,0-1.89-.04-3.5-.13-4.83-.09-1.33-.19-2.43-.29-3.27-.11-.95-.23-1.76-.38-2.39h6.92Z"/>
    <path d="M384.29,400.45c.56,1.12,1.06,2.03,1.45,2.72.46.82.88,1.51,1.26,2.01-3.55-.12-5.32-.17-8.87-.26-.03-.6-.14-1.37-.34-2.31-.17-.79-.45-1.78-.82-2.96-.37-1.18-.88-2.57-1.54-4.15-1.42-3.38-2.13-5.07-3.54-8.44-.49.82-.73,1.23-1.22,2.05-.2.33-.39.66-.57.97-.18.31-.36.62-.53.91,0,1.29,0,1.94,0,3.24,0,1.93.04,3.55.12,4.86.08,1.3.2,2.4.31,3.24.12.94.24,1.77.42,2.41-2.79-.06-4.18-.08-6.97-.12.15-.63.27-1.43.38-2.39.09-.85.2-1.93.28-3.22.09-1.3.13-2.91.13-4.84,0-5.99,0-11.99,0-17.98,0-1.89-.05-3.51-.13-4.84-.09-1.34-.19-2.44-.29-3.28-.11-.96-.23-1.76-.38-2.39h6.96c-.18.63-.3,1.46-.42,2.4-.11.84-.23,1.95-.3,3.29-.08,1.34-.11,2.96-.11,4.85,0,1.7,0,2.54,0,4.24,1.29-2.16,1.94-3.23,3.23-5.4.94-1.56,1.69-2.93,2.24-4.1.56-1.17.99-2.15,1.29-2.94.36-.93.61-1.72.76-2.35h8.29c-.43.53-.96,1.2-1.56,2.03-.51.7-1.13,1.61-1.86,2.7-.74,1.08-1.57,2.41-2.51,3.98-1.46,2.44-2.19,3.65-3.65,6.08.05.19.11.35.19.48.08.13.14.29.19.48,2.51,5.96,3.77,8.95,6.29,14.97.66,1.59,1.27,2.95,1.83,4.07Z"/>
    <path d="M412.53,395.37c.38,2.02.74,3.72,1.09,5.09.34,1.37.66,2.51.93,3.41.31,1.02.61,1.87.91,2.55-3-.16-4.5-.24-7.5-.39.05-.54.05-1.23,0-2.08-.05-.73-.13-1.67-.23-2.81-.1-1.14-.29-2.54-.57-4.2-3.53-.13-5.3-.19-8.83-.31-.28,1.63-.47,3-.57,4.12-.1,1.12-.18,2.04-.23,2.76-.05.83-.05,1.52,0,2.05-3-.12-4.5-.18-7.5-.28.28-.63.57-1.44.87-2.4.27-.86.59-1.94.93-3.26.34-1.31.72-2.94,1.12-4.9,1.21-6.09,2.41-12.19,3.61-18.29.38-1.93.66-3.58.85-4.95.19-1.37.3-2.5.36-3.36.07-.98.1-1.8.07-2.45,3.9,0,5.84,0,9.74,0-.05.65,0,1.5.08,2.48.07.86.17,2.02.36,3.4.19,1.39.48,3.06.86,5.03,1.21,6.26,2.42,12.52,3.63,18.78ZM405.9,389.66c-.93-5.27-1.4-7.9-2.33-13.14-.13-.8-.27-1.56-.42-2.27-.15-.71-.29-1.39-.42-2.04-.13.65-.27,1.33-.42,2.03-.15.71-.29,1.46-.42,2.26-.93,5.21-1.39,7.81-2.31,12.99,2.53.06,3.79.1,6.32.17Z"/>
    <path d="M429.9,365.68c1.98,0,3.77.46,5.37,1.38,1.6.92,2.95,2.29,4.05,4.12s1.96,4.06,2.55,6.7c.6,2.64.9,5.67.9,9.07,0,3.4-.29,6.41-.89,9-.59,2.6-1.44,4.77-2.55,6.51-1.1,1.74-2.45,3.01-4.05,3.83-1.6.81-3.39,1.15-5.36,1.02-3.96-.26-5.94-.38-9.89-.61.15-.65.27-1.5.38-2.5.09-.89.2-2.02.28-3.39.09-1.36.13-3.06.13-5.1,0-6.31,0-12.63-.01-18.94,0-1.99-.05-3.7-.14-5.1-.09-1.41-.19-2.57-.29-3.46-.11-1.01-.23-1.86-.38-2.52h9.89ZM429.92,399.81c1.34.07,2.48-.18,3.4-.77.92-.59,1.67-1.46,2.24-2.61.57-1.15.98-2.54,1.23-4.17.25-1.63.38-3.47.38-5.52,0-2.05-.13-4.38-.38-6.03-.25-1.65-.67-3.07-1.24-4.26-.57-1.19-1.32-2.11-2.25-2.76-.93-.65-2.06-.98-3.41-1-1.51-.02-2.26-.03-3.77-.04,0,8.83.01,18.14.02,26.96,1.51.08,2.26.12,3.77.2Z"/>
    <path d="M468.68,398.41c.38,2.24.74,4.13,1.09,5.65.34,1.52.66,2.79.93,3.8.31,1.13.61,2.09.91,2.85-3-.29-4.49-.44-7.49-.71.05-.59.05-1.35,0-2.28-.05-.8-.13-1.84-.23-3.09-.1-1.25-.29-2.8-.57-4.63-3.53-.25-5.29-.37-8.82-.6-.28,1.76-.47,3.25-.57,4.46-.1,1.21-.18,2.21-.23,2.99-.05.9-.05,1.65,0,2.23-3-.25-4.5-.37-7.49-.61.28-.67.57-1.53.87-2.56.27-.91.59-2.08.93-3.49.34-1.41.71-3.16,1.12-5.27,1.21-6.59,2.41-13.18,3.6-19.77.38-2.1.66-3.89.85-5.37.19-1.49.3-2.71.36-3.66.07-1.06.1-1.96.07-2.67h9.74c-.05.72,0,1.65.08,2.72.07.95.17,2.22.36,3.74.19,1.52.48,3.36.86,5.53,1.21,6.91,2.42,13.83,3.62,20.74ZM462.06,391.97c-.93-5.8-1.4-8.69-2.33-14.43-.13-.88-.27-1.71-.42-2.49-.15-.78-.29-1.52-.42-2.23-.13.71-.27,1.45-.42,2.22-.15.77-.29,1.59-.42,2.46-.93,5.68-1.39,8.51-2.31,14.14,2.53.13,3.79.2,6.31.33Z"/>
    <path d="M482.71,368.51c-.1,1.01-.19,2.31-.27,3.89-.08,1.58-.11,3.49-.11,5.73,0,7.1,0,14.19,0,21.29,0,2.28.04,4.2.11,5.74.08,1.55.17,2.83.27,3.85.11,1.15.24,2.11.42,2.88-2.78-.3-4.17-.44-6.96-.73.15-.72.3-1.65.42-2.75.11-.98.2-2.24.28-3.75.09-1.51.13-3.4.13-5.65,0-7.01,0-14.02,0-21.03,0-2.21-.04-4.1-.13-5.67-.09-1.56-.18-2.85-.29-3.84-.12-1.12-.27-2.06-.42-2.8h6.96c-.18.75-.31,1.7-.42,2.84Z"/>
  </g>
  <g>
    <path d="M391.12,273.27c-2.53,1.67-14.41-9.61-28.01-5.66-21.18,6.15-23.88,54.23-26.92,73.96-.2,1.28,1.82,4.16,2.47,5.36.58,1.07.54,2.6-.63,2.92-11.78,3.29-24.73,1.12-27.82,0-3.4-1.48,1.05-5.77.58-8.28-.86-4.58-9.65-47.05-12.5-60.03-2.78-3.45-7.6-6.87-.86-6.87,4.52,0,8.89,0,13.41,0,5.59,0,.32,3.37-.16,5.98-.44,2.46,8.48,47.46,11.75,55.88.85,2.19,1.86,2.3,2.81-.03,3.32-8.15,4.42-56.8,22.38-72.02,11.62-9.85,29.7-7.06,37.82-1.71,2.56,1.69,9.43,8.02,5.67,10.51Z"/>
    <path d="M372.69,297.11c10.09,8.58,20.62,17.11,22.61,29.49,1.41,8.73-2.63,18.62-12.06,23.58-29.18,15.32-51.49-22.79-26.15-32.43,12.55-4.78,24.35,5.76,14.46,15.72-1.85,1.86-5.56,1.83-4.92-1.13.44-2.06,1.2-4.48-1.53-5.64-1.7-.72-3.68-.66-5.3.25-1.81,1.01-2.99,2.98-3.29,5.03s.22,4.17,1.21,6c3.91,7.24,12.72,9.49,19.6,5.05,2.71-1.75,5.46-4.71,6.46-7.84,2.56-8.04-1.03-15.23-6.95-21.69-7.47-8.15-22.08-17.88-18.89-28.21,2.27-5.49,7.78-11.79,20.7-7.75,3.7,1.15,8.29,3.49,12.58,4.19.66.11.98.88.56,1.4-1.19,1.49-3.31,2.37-4.39,4.03-1.38,1.97-1.73,4.42-2.81,6.48-.51.97-2.21,1.57-2.41.55-2.98-15.58-22.99-9.2-9.48,2.94Z"/>
  </g>
  <g>
    <path d="M208.78,427.52c0,.43.05.81.16,1.15.1.34.26.63.47.87.21.24.47.41.78.53.31.12.68.16,1.11.13.41-.03.78-.11,1.1-.23.32-.12.6-.26.84-.41.26-.16.51-.35.72-.56,0,.76,0,1.14,0,1.9-.23.14-.5.26-.78.37-.25.1-.55.19-.9.28-.35.09-.73.15-1.15.18-1.32.1-2.33-.19-3.04-.88-.71-.69-1.07-1.75-1.07-3.18,0-.65.1-1.25.29-1.81.2-.55.48-1.04.84-1.45.36-.41.81-.75,1.32-1,.52-.25,1.1-.4,1.75-.45.31-.02.6-.02.86,0,.26.02.49.06.69.11,0,0,.02,0,.02,0,0,0,.02,0,.02,0,.1.02.2.03.29.03.09,0,.16-.02.23-.03.08-.01.15-.04.2-.06,0,.91,0,1.37,0,2.28-.18-.17-.4-.32-.64-.45-.21-.11-.45-.2-.73-.28-.28-.08-.6-.11-.95-.08-.39.03-.74.13-1.05.29-.3.16-.56.38-.76.65-.2.27-.36.58-.47.95-.11.36-.16.75-.16,1.17Z"/>
    <path d="M220.2,429.07c.27-.02.51.06.7.23.19.17.29.39.29.66,0,.27-.1.51-.29.71-.19.2-.43.31-.7.33-.26.02-.49-.06-.68-.23-.19-.18-.28-.4-.28-.67,0-.27.09-.5.28-.7.19-.2.42-.31.68-.33Z"/>
    <path d="M232.05,422.88c.05-.29.08-.53.1-.72.02-.21.03-.38.01-.52.94-.06,1.42-.09,2.36-.15-.09.14-.18.32-.28.54-.09.19-.19.43-.3.73-.11.3-.23.65-.35,1.07-.46,1.58-.69,2.38-1.14,3.96-.12.42-.21.78-.27,1.07-.06.28-.09.53-.11.71-.02.21-.04.38-.02.52-1.23.08-1.85.12-3.08.2,0-.14,0-.31-.02-.52-.02-.18-.05-.41-.11-.69-.06-.28-.15-.62-.27-1.03-.46-1.53-.69-2.29-1.14-3.81-.13-.4-.25-.74-.35-1.02-.11-.28-.21-.51-.29-.69-.1-.2-.19-.37-.28-.5.95-.06,1.42-.1,2.37-.16-.02.14-.02.31,0,.52.02.18.05.42.1.7.05.29.13.63.24,1.03.42,1.53.63,2.29,1.05,3.82.05.17.09.32.14.47.04.15.09.28.13.41.05-.13.09-.27.14-.42.04-.15.09-.31.13-.48.41-1.58.62-2.37,1.03-3.96.11-.42.19-.77.25-1.06Z"/>
    <path d="M243.89,427.84c.41-.02.76-.06,1.05-.1.29-.04.53-.09.72-.13.21-.05.39-.1.53-.16-.07.71-.1,1.07-.17,1.78-2.58.15-3.86.22-6.44.37.05-.14.09-.32.13-.53.03-.18.06-.42.09-.7.03-.28.04-.63.04-1.05,0-1.56,0-2.33,0-3.89,0-.41-.01-.76-.04-1.05-.03-.29-.06-.52-.09-.7-.04-.2-.08-.38-.13-.51.4-.02.61-.04,1.01-.06,2.04-.12,3.06-.18,5.09-.3.07.71.1,1.06.17,1.77-.14-.04-.31-.08-.53-.1-.18-.02-.42-.04-.72-.05-.29-.01-.64,0-1.05.02-.8.05-1.21.07-2.01.12,0,.11-.01.23-.01.36v.4c0,.47,0,.71,0,1.18.56-.03.84-.05,1.41-.08.41-.02.76-.06,1.05-.1.29-.04.53-.08.71-.12.21-.05.38-.1.52-.16,0,.81,0,1.22,0,2.04-.14-.04-.31-.08-.52-.1-.18-.02-.42-.04-.71-.05-.29-.01-.64,0-1.05.02-.56.03-.84.05-1.41.08,0,.48,0,.72,0,1.19v.39c0,.12,0,.24.01.35.94-.06,1.41-.08,2.35-.14Z"/>
    <path d="M254.73,427.25c.41-.02.76-.05,1.05-.09.29-.04.53-.08.72-.12.21-.05.39-.1.53-.16-.07.71-.1,1.07-.17,1.78-2.15.11-3.23.16-5.38.28.05-.14.09-.32.13-.52.03-.18.06-.42.09-.7.03-.28.04-.63.04-1.05,0-1.56,0-2.33,0-3.89,0-.41-.01-.76-.04-1.05-.03-.29-.06-.52-.09-.71-.04-.2-.08-.38-.13-.51.88-.05,1.32-.07,2.2-.12-.06.14-.1.32-.13.52-.03.18-.06.42-.08.71-.02.29-.04.64-.04,1.05,0,1.56,0,2.33,0,3.89v.39c0,.12,0,.24.01.35.52-.03.77-.04,1.29-.07Z"/>
    <path d="M269.21,425.82c.12.41.23.76.34,1.03.11.28.21.51.3.69.1.2.19.37.29.51-.95.04-1.42.06-2.37.1.02-.11.02-.26,0-.43-.01-.15-.04-.35-.07-.58-.03-.23-.09-.52-.18-.86-1.12.05-1.68.07-2.79.13-.09.35-.15.64-.18.88-.03.24-.06.43-.07.59-.02.18-.02.32,0,.43-.95.04-1.42.07-2.37.11.09-.14.18-.32.28-.53.09-.19.19-.43.29-.71.11-.29.23-.64.36-1.06.46-1.58.69-2.37,1.14-3.94.12-.42.21-.77.27-1.06.06-.29.1-.53.11-.72.02-.21.03-.38.02-.52,1.23-.06,1.85-.08,3.08-.14-.02.14,0,.32.02.52.02.18.05.42.11.71.06.29.15.63.27,1.04.46,1.54.69,2.3,1.14,3.84ZM267.11,424.77c-.29-1.09-.44-1.63-.73-2.71-.04-.17-.08-.32-.13-.47-.05-.15-.09-.29-.13-.42-.04.14-.08.28-.13.43-.05.15-.09.31-.13.48-.29,1.11-.44,1.67-.74,2.78.8-.04,1.2-.05,2-.09Z"/>
    <path d="M278.1,420.73c.14-.32.26-.59.34-.8.09-.25.15-.47.19-.66.99-.04,1.48-.06,2.47-.09-.14.14-.29.32-.46.53-.14.19-.32.43-.52.73-.2.3-.43.65-.69,1.07-.43.71-.65,1.07-1.08,1.79-.05.08-.07.13-.12.21,0,.78,0,1.16,0,1.94,0,.42.01.77.04,1.05.02.28.05.51.08.69.03.21.08.38.13.51-.88.03-1.32.05-2.2.08.05-.14.09-.31.13-.52.03-.18.06-.42.09-.7.03-.28.04-.63.04-1.05,0-.82,0-1.24,0-2.06-.02-.03-.04-.05-.06-.08-.43-.68-.64-1.02-1.07-1.7-.26-.4-.49-.74-.69-1.02-.2-.28-.38-.51-.52-.69-.17-.2-.32-.37-.45-.5.98-.04,1.47-.06,2.46-.1.04.18.1.4.19.64.08.2.19.46.34.78.15.31.35.67.61,1.07.03.04.04.06.07.11.03-.04.04-.07.07-.11.26-.42.46-.79.6-1.11Z"/>
    <path d="M293.29,418.78c-.06.14-.1.31-.13.52-.03.18-.06.42-.08.71-.02.29-.04.64-.04,1.05,0,1.19,0,1.78,0,2.96,0,.47-.07.92-.22,1.33-.14.41-.36.78-.65,1.08-.29.31-.65.56-1.07.74-.43.19-.92.29-1.48.3-.56.02-1.06-.05-1.49-.21-.43-.16-.79-.38-1.08-.68-.29-.29-.51-.64-.65-1.04-.14-.4-.22-.84-.22-1.32,0-1.19,0-1.78,0-2.96,0-.41-.01-.76-.04-1.05-.03-.29-.06-.53-.09-.71-.04-.21-.08-.38-.13-.51.88-.03,1.32-.04,2.2-.07-.06.14-.1.31-.13.52-.03.18-.06.42-.08.71-.02.29-.04.64-.04,1.05,0,1.19,0,1.78,0,2.96,0,.19.02.4.06.61.04.22.12.41.25.59.13.18.3.32.53.43.22.11.53.16.9.15.37-.01.67-.08.9-.21.23-.13.41-.28.53-.47.12-.18.21-.39.25-.6s.06-.42.06-.62c0-1.19,0-1.78,0-2.96,0-.41-.01-.76-.04-1.05-.03-.29-.06-.53-.09-.71-.03-.21-.07-.38-.12-.51.88-.03,1.32-.04,2.19-.07Z"/>
    <path d="M304.22,420.14c-.18-.03-.42-.05-.72-.07-.29-.02-.64-.03-1.05-.02,0,1.86,0,2.79,0,4.65,0,.42.01.77.04,1.05.02.28.06.52.1.7.04.2.08.38.13.51-.88.02-1.32.03-2.21.05.05-.14.09-.31.12-.52.03-.18.06-.42.09-.7.03-.28.04-.63.04-1.05,0-1.86,0-2.79,0-4.65-.41.01-.76.03-1.05.07-.29.04-.53.07-.71.11-.22.04-.39.09-.53.15.07-.71.1-1.07.17-1.79,2.37-.06,3.56-.09,5.93-.15.07.71.11,1.07.18,1.78-.14-.04-.31-.09-.53-.12Z"/>
    <path d="M317.17,418.76c-.03.18-.06.42-.08.71-.02.29-.04.64-.04,1.05,0,1.56,0,2.33,0,3.89,0,.42.01.77.04,1.05.02.28.05.51.08.7.03.21.08.38.13.52-.88.01-1.32.02-2.21.04.05-.14.09-.31.13-.52.03-.18.06-.42.09-.7.03-.28.04-.63.04-1.05,0-.48,0-.72,0-1.19-1.4.02-2.1.04-3.49.06,0,.48,0,.72,0,1.19,0,.42.01.77.04,1.05.02.28.06.52.1.7.04.2.08.38.13.52-.88.02-1.32.02-2.2.04.05-.14.09-.31.12-.52.03-.18.06-.42.09-.7.03-.28.04-.63.04-1.05,0-1.56,0-2.33,0-3.89,0-.41-.01-.76-.04-1.05-.03-.29-.06-.53-.09-.71-.03-.21-.07-.38-.12-.52.88-.02,1.32-.03,2.2-.04-.06.14-.1.32-.13.52-.03.18-.07.42-.1.71-.02.29-.04.64-.04,1.05,0,.47,0,.71,0,1.18,1.4-.03,2.1-.04,3.49-.06,0-.47,0-.71,0-1.18,0-.41-.01-.76-.04-1.05-.03-.29-.06-.53-.09-.71-.04-.21-.08-.38-.13-.52.88-.01,1.32-.02,2.21-.04-.06.14-.1.31-.13.52Z"/>
    <path d="M329.49,424.26c.12.42.24.76.34,1.04.11.28.21.51.3.7.1.21.19.38.29.52-.95,0-1.42.01-2.37.02.02-.11.02-.26,0-.43-.02-.15-.04-.35-.07-.58-.03-.24-.09-.53-.18-.87-1.12.01-1.68.02-2.8.03-.09.35-.15.64-.18.87-.03.24-.06.43-.07.58-.02.18-.02.32,0,.43-.95.01-1.42.02-2.37.03.09-.14.18-.31.28-.52.09-.18.19-.42.29-.7.11-.28.23-.63.36-1.05.46-1.56.69-2.34,1.15-3.9.12-.41.21-.76.27-1.05.06-.29.1-.53.11-.71.02-.21.03-.38.02-.52,1.23-.01,1.85-.02,3.09-.03-.02.14,0,.32.02.52.02.18.05.42.11.71.06.29.15.64.27,1.05.46,1.55.69,2.33,1.14,3.88ZM327.39,423.13c-.29-1.1-.44-1.64-.73-2.74-.04-.17-.08-.33-.13-.47-.05-.15-.09-.29-.13-.43-.04.14-.08.28-.13.43-.05.15-.09.31-.13.48-.29,1.1-.44,1.65-.74,2.75.8,0,1.2-.01,2-.02Z"/>
    <path d="M351.05,424.2c0,.42.01.77.04,1.05.02.28.05.52.08.7.03.21.08.38.13.52-1.08,0-1.62,0-2.7,0-1.36-2.42-2.04-3.62-3.4-6.04,0,1.51,0,2.26,0,3.77,0,.42.01.77.04,1.05.02.28.05.52.08.7.03.21.08.38.13.52-.88,0-1.32,0-2.21,0,.05-.14.09-.31.13-.52.03-.18.06-.42.09-.7.03-.28.04-.63.04-1.05,0-1.56,0-2.33,0-3.89,0-.41-.01-.76-.04-1.05-.03-.29-.06-.53-.09-.71-.04-.21-.08-.38-.13-.52,1.08,0,1.63,0,2.71,0,1.36,2.42,2.04,3.63,3.4,6.05,0-1.51,0-2.26,0-3.77,0-.41-.01-.76-.04-1.05-.03-.29-.06-.53-.09-.71-.03-.21-.07-.38-.12-.52.88,0,1.32,0,2.19,0-.06.14-.1.31-.13.52-.03.18-.06.42-.08.71-.02.29-.04.64-.04,1.05,0,1.56,0,2.33,0,3.89Z"/>
    <path d="M363.49,424.29c.12.42.24.77.34,1.05.11.28.21.52.3.7.1.21.19.38.29.52-.95-.01-1.42-.02-2.37-.02.02-.11.02-.26,0-.43-.02-.15-.04-.35-.07-.58-.03-.24-.09-.53-.18-.87-1.12-.01-1.68-.02-2.8-.02-.09.34-.15.64-.18.87-.03.24-.06.43-.07.58-.02.18-.02.32,0,.43-.95,0-1.42-.01-2.37-.02.09-.14.18-.31.28-.52.09-.18.19-.42.3-.7.11-.28.23-.63.36-1.05.46-1.55.69-2.33,1.15-3.88.12-.41.21-.76.27-1.05.06-.29.1-.53.11-.71.02-.21.03-.38.02-.52,1.23,0,1.85.02,3.09.03-.02.14,0,.32.02.52.02.18.05.42.11.71.06.29.15.64.27,1.05.46,1.56.69,2.34,1.14,3.9ZM361.39,423.13c-.29-1.1-.44-1.65-.73-2.75-.04-.17-.08-.33-.13-.48-.05-.15-.09-.29-.13-.43-.04.14-.08.28-.13.43-.05.15-.09.31-.13.47-.29,1.1-.44,1.64-.74,2.74.8,0,1.2.01,2,.02Z"/>
    <path d="M372.61,418.25c.63,0,1.19.11,1.7.3.51.19.93.47,1.28.84.35.37.62.81.81,1.34.19.53.28,1.12.28,1.8s-.09,1.27-.28,1.79c-.19.52-.46.96-.81,1.31s-.78.62-1.28.8c-.51.18-1.07.26-1.7.25-1.25-.02-1.88-.03-3.13-.05.05-.14.09-.31.12-.52.03-.18.06-.42.09-.7.03-.28.04-.63.04-1.05,0-1.56,0-2.33,0-3.89,0-.41-.01-.76-.04-1.05-.03-.29-.06-.53-.09-.71-.03-.21-.07-.38-.12-.52,1.25.02,1.88.03,3.13.05ZM372.61,425.16c.43,0,.79-.05,1.08-.18.29-.12.53-.3.71-.54.18-.23.31-.51.39-.84.08-.33.12-.7.12-1.11s-.04-.78-.12-1.11c-.08-.33-.21-.62-.39-.86-.18-.24-.42-.43-.71-.56-.29-.13-.65-.2-1.08-.21-.48,0-.72-.01-1.19-.02,0,2.16,0,3.24,0,5.4.48,0,.72.01,1.19.02Z"/>
    <path d="M388.5,424.74c.12.42.24.77.34,1.06.11.28.21.52.3.71.1.21.19.39.29.53-.95-.02-1.42-.04-2.37-.06.02-.11.02-.26,0-.43-.02-.15-.04-.35-.07-.59-.03-.24-.09-.53-.18-.88-1.12-.03-1.68-.04-2.8-.06-.09.34-.15.63-.18.87-.03.24-.06.43-.07.58-.02.18-.02.32,0,.43-.95-.02-1.42-.03-2.37-.05.09-.13.18-.31.28-.51.09-.18.19-.41.29-.69.11-.28.23-.63.36-1.04.46-1.55.69-2.32,1.14-3.87.12-.41.21-.75.27-1.04.06-.29.1-.53.11-.71.02-.21.03-.38.02-.52,1.23.03,1.85.04,3.08.07-.02.14,0,.31.02.52.02.18.05.42.11.71.06.29.15.64.27,1.05.46,1.57.69,2.35,1.14,3.92ZM386.4,423.54c-.29-1.11-.44-1.66-.73-2.76-.04-.17-.08-.33-.13-.48-.05-.15-.09-.29-.13-.43-.04.14-.08.28-.13.42-.05.15-.09.3-.13.47-.29,1.09-.44,1.64-.74,2.73.8.02,1.2.03,2,.05Z"/>
    <path d="M399.74,425.46c.22.34.42.64.6.88.18.24.34.44.46.59.15.17.28.33.41.43-1.09-.04-1.63-.05-2.72-.09,0-.13-.04-.3-.11-.5-.05-.17-.14-.38-.26-.64-.12-.26-.28-.56-.49-.9-.27-.45-.41-.68-.69-1.13-.2,0-.3,0-.51-.01,0,.34,0,.51,0,.86,0,.42.01.77.04,1.05.02.28.05.52.08.7.03.21.08.38.13.52-.88-.03-1.32-.04-2.2-.06.05-.13.09-.31.13-.51.03-.18.06-.42.09-.7.03-.28.04-.63.04-1.05,0-1.56,0-2.33,0-3.89,0-.41-.01-.76-.04-1.05-.03-.29-.06-.53-.09-.71-.04-.21-.08-.38-.13-.52,1.28.04,1.92.06,3.2.09.41.01.79.08,1.14.2.35.12.66.3.92.53.26.23.47.52.61.86.15.34.22.72.22,1.16,0,.67-.16,1.2-.49,1.6-.32.4-.75.68-1.28.83.37.58.55.87.92,1.45ZM396.44,422.58c.51.01.76.02,1.27.04.15,0,.3-.01.45-.05.15-.04.28-.1.39-.19.11-.09.2-.2.26-.35.07-.14.1-.31.1-.5s-.03-.36-.1-.51c-.07-.15-.16-.27-.26-.37-.11-.1-.24-.17-.39-.22-.15-.05-.3-.08-.45-.08-.5-.02-.75-.02-1.25-.04,0,.11-.01.23-.01.36s0,.26,0,.4c0,.61,0,.91,0,1.52Z"/>
    <path d="M415.73,421.65c0,.22.1.41.3.57.2.16.45.32.75.47.3.15.63.32.98.49.35.18.68.38.98.63.3.24.55.53.75.87.2.34.3.74.3,1.22,0,.35-.08.67-.24.94-.16.27-.38.5-.66.68-.28.18-.6.32-.97.4-.37.09-.77.12-1.19.11-.3-.01-.58-.05-.84-.1-.26-.05-.5-.11-.72-.18-.21-.06-.4-.13-.55-.2-.15-.07-.26-.12-.33-.15,0-.77,0-1.16,0-1.93.22.19.46.35.72.5.22.13.48.25.77.36.28.11.59.17.92.18.42.02.75-.05,1.01-.19.26-.14.39-.35.39-.62,0-.14-.05-.26-.14-.37-.09-.11-.22-.22-.38-.32-.16-.1-.35-.21-.57-.31-.22-.11-.46-.23-.72-.35-.25-.12-.49-.25-.73-.39-.24-.13-.47-.29-.67-.47-.57-.48-.86-1.06-.86-1.74,0-.39.08-.74.25-1.05.16-.31.41-.57.7-.77.26-.17.58-.3.97-.38.39-.08.78-.11,1.19-.1.3.01.64.05,1.01.12.37.07.71.16,1.04.29,0,.69,0,1.03,0,1.72-.2-.1-.41-.2-.63-.29-.18-.07-.4-.14-.65-.21-.25-.07-.51-.11-.77-.12-.14,0-.3,0-.46.02-.16.02-.32.05-.46.11-.14.05-.26.13-.36.22s-.14.21-.14.36Z"/>
    <path d="M434.67,421.56c.05-.29.08-.52.1-.71.02-.2.03-.38.01-.52.94.05,1.42.07,2.36.12-.09.13-.18.3-.28.5-.09.18-.19.41-.3.69-.11.28-.23.63-.35,1.03-.46,1.53-.69,2.3-1.14,3.83-.12.41-.21.76-.27,1.03-.06.28-.09.52-.11.69-.02.2-.04.38-.02.52-1.1-.06-1.65-.08-2.75-.14,0-.14,0-.31-.02-.52-.02-.18-.05-.42-.11-.7-.06-.28-.15-.64-.27-1.06-.29-1.03-.44-1.55-.73-2.58-.3,1-.46,1.5-.76,2.5-.12.41-.21.76-.27,1.03-.06.28-.09.52-.11.69-.02.2-.04.38-.02.52-1.1-.05-1.65-.08-2.75-.13,0-.14,0-.31-.02-.52-.02-.18-.05-.42-.11-.7-.06-.28-.14-.64-.27-1.06-.46-1.58-.69-2.37-1.16-3.94-.12-.42-.24-.77-.35-1.06-.11-.29-.21-.54-.3-.72-.1-.21-.19-.39-.28-.53.95.04,1.42.06,2.37.11-.02.14,0,.31.01.52.02.18.05.42.1.71.05.29.13.64.24,1.06.41,1.58.62,2.36,1.04,3.94.02.07.03.13.05.18.02.06.04.11.05.17.02-.06.03-.11.04-.17.01-.06.03-.11.04-.18.42-1.54.63-2.3,1.05-3.84.11-.41.19-.76.24-1.05.05-.29.08-.52.1-.71,0-.09.01-.16.02-.23,0-.06,0-.12,0-.16,0-.05,0-.09-.01-.12.83.04,1.25.06,2.08.1,0,.03-.01.07-.01.12v.16c0,.06,0,.14.01.23.02.18.05.42.1.72.05.29.13.65.25,1.07.41,1.58.62,2.37,1.04,3.94.02.07.03.13.05.18.02.06.04.11.05.17.02-.06.03-.11.04-.17.01-.06.03-.11.04-.18.42-1.53.63-2.3,1.05-3.84.11-.4.19-.75.24-1.04Z"/>
    <path d="M446.5,427.89c.41.02.76.03,1.05.03.29,0,.53-.02.72-.04.21-.02.39-.05.53-.1-.07.7-.1,1.06-.17,1.76-2.58-.15-3.86-.23-6.44-.37.05-.13.09-.31.13-.51.03-.18.06-.41.09-.69.03-.28.04-.63.04-1.05,0-1.56,0-2.33,0-3.89,0-.41-.01-.76-.04-1.05-.03-.29-.06-.53-.09-.72-.04-.21-.08-.39-.13-.53.4.02.61.03,1.01.06,2.04.11,3.06.17,5.09.29.07.72.1,1.08.17,1.79-.14-.06-.31-.11-.53-.16-.18-.04-.42-.09-.72-.13-.29-.05-.64-.08-1.05-.1-.8-.05-1.21-.07-2.01-.12,0,.11-.01.23-.01.36,0,.13,0,.26,0,.4,0,.47,0,.71,0,1.18.56.03.85.05,1.41.08.41.02.76.03,1.05.02.29,0,.53-.02.71-.04.21-.02.38-.05.52-.1v2.04c-.14-.06-.31-.11-.52-.16-.18-.04-.42-.09-.71-.13-.29-.04-.64-.08-1.05-.1-.56-.03-.85-.05-1.41-.08,0,.48,0,.72,0,1.19,0,.14,0,.27,0,.39s0,.24.01.36c.94.05,1.41.08,2.35.13Z"/>
    <path d="M458.41,428.62c.41.03.76.04,1.05.03s.53-.02.72-.04c.21-.02.39-.05.53-.1-.07.7-.1,1.06-.17,1.76-2.57-.17-3.86-.25-6.44-.41.05-.13.09-.3.13-.51.03-.18.06-.41.09-.69.03-.28.04-.63.04-1.05,0-1.56,0-2.33,0-3.89,0-.41-.01-.76-.04-1.05-.03-.29-.06-.53-.09-.72-.04-.21-.08-.39-.13-.53.4.03.61.04,1.01.06,2.04.13,3.05.19,5.09.33.07.72.1,1.08.17,1.79-.14-.06-.31-.11-.53-.17-.18-.04-.42-.09-.72-.14-.29-.05-.64-.08-1.05-.11-.8-.05-1.21-.08-2.01-.13,0,.11-.01.23-.01.36s0,.26,0,.4c0,.47,0,.71,0,1.18.56.04.84.05,1.41.09.41.03.76.04,1.05.03.29,0,.53-.02.71-.04.21-.02.38-.05.52-.1,0,.81,0,1.22,0,2.04-.14-.06-.31-.11-.52-.17-.18-.05-.42-.09-.71-.14-.29-.05-.64-.08-1.05-.11-.56-.04-.84-.05-1.41-.09,0,.48,0,.72,0,1.19,0,.14,0,.27,0,.39s0,.24.01.36c.94.06,1.41.09,2.35.15Z"/>
    <path d="M471.26,424.23c-.18-.05-.42-.09-.72-.14-.29-.05-.64-.09-1.05-.12,0,1.86,0,2.79,0,4.65,0,.42.01.77.04,1.05.02.28.06.52.1.7.04.2.08.39.13.53-.88-.06-1.32-.09-2.2-.16.05-.13.09-.31.12-.51.03-.18.06-.41.09-.69.03-.28.04-.63.04-1.04,0-1.86,0-2.79,0-4.65-.41-.03-.76-.04-1.05-.03-.29,0-.53.02-.71.04-.22.02-.39.06-.53.1.07-.71.1-1.06.17-1.77,2.37.16,3.55.25,5.92.42.07.72.11,1.08.18,1.8-.14-.06-.31-.12-.53-.17Z"/>
    <path d="M478.52,425.32c0,.22.1.41.3.58.2.17.45.33.75.5.3.16.63.34.98.53.35.19.68.41.98.66.3.25.55.55.75.9.2.34.3.75.3,1.23,0,.35-.08.66-.24.93-.16.26-.38.48-.66.65-.28.17-.6.29-.97.37-.37.08-.77.1-1.19.06-.3-.02-.58-.07-.84-.13-.26-.06-.5-.13-.72-.2-.21-.07-.39-.14-.55-.22-.15-.07-.26-.13-.32-.16,0-.77,0-1.16,0-1.93.22.19.46.37.72.52.22.13.48.27.76.38.28.12.59.19.92.22.42.03.75-.02,1.01-.15.26-.13.38-.34.38-.61,0-.14-.05-.26-.14-.38-.09-.12-.22-.23-.38-.34-.16-.11-.35-.22-.57-.33-.22-.11-.46-.24-.72-.38-.25-.13-.49-.27-.73-.41-.24-.14-.47-.31-.67-.49-.57-.5-.85-1.09-.85-1.77,0-.39.08-.73.25-1.04.16-.31.4-.55.7-.74.26-.16.58-.28.97-.35.39-.07.78-.08,1.18-.05.3.02.64.08,1.01.16.37.08.71.19,1.03.33,0,.69,0,1.03,0,1.72-.2-.11-.41-.22-.63-.31-.18-.08-.4-.16-.65-.23-.25-.08-.51-.12-.77-.14-.14-.01-.3-.01-.46,0-.16.01-.32.04-.46.09-.14.05-.26.12-.35.21-.1.09-.14.21-.14.35Z"/>
  </g>
  <g>
    <path d="M236.94,334.06c-.5,0-.98-.09-1.45-.27-.47-.18-.86-.43-1.18-.75-.69-.69-1.04-1.53-1.04-2.51v-1.6h2.18v1.6c0,.42.15.77.44,1.06s.64.44,1.06.44.75-.15,1.04-.44.44-.64.44-1.06v-.54c0-.33-.06-.63-.18-.9-.12-.27-.27-.52-.47-.75-.19-.23-.42-.45-.67-.65-.26-.21-.53-.42-.82-.64-.14-.08-.3-.19-.48-.33-.28-.19-.55-.39-.82-.6-.27-.21-.51-.44-.72-.68-.66-.79-1-1.69-1-2.7v-.54c0-.47.09-.92.26-1.35.17-.43.43-.81.78-1.14.32-.32.71-.57,1.18-.76.47-.19.95-.28,1.45-.28s.98.09,1.45.28c.47.19.86.44,1.18.76.33.33.58.71.76,1.14.17.43.26.88.26,1.35v1.62h-2.18v-1.62c0-.4-.15-.75-.44-1.05-.29-.3-.64-.45-1.04-.45s-.77.15-1.06.45c-.29.3-.44.65-.44,1.05v.54c0,.28.04.53.13.76.09.23.22.45.4.65.18.21.39.41.64.62.25.21.53.43.85.66.17.11.32.22.46.33.29.21.58.42.87.64s.55.46.77.73c.68.86,1.02,1.81,1.02,2.86v.54c0,.97-.34,1.81-1.02,2.51-.32.32-.71.57-1.18.75-.47.18-.95.27-1.45.27Z"/>
    <path d="M242.25,333.77v-14.81h2.18v14.81h-2.18Z"/>
    <path d="M252.29,333.77l-3.61-9.34v9.34h-2.18v-14.81h2.51l3.53,9.17v-9.17h2.18v14.81h-2.43Z"/>
    <path d="M260.28,334.06c-.5,0-.99-.09-1.46-.27-.48-.18-.87-.43-1.19-.75-.33-.35-.59-.73-.77-1.15-.18-.42-.27-.87-.27-1.36v-8.34c0-.47.09-.92.27-1.35.18-.43.44-.81.77-1.14s.72-.57,1.19-.76c.48-.19.96-.28,1.46-.28s.96.09,1.43.28c.47.19.86.44,1.18.76.35.33.6.71.78,1.14.17.43.26.88.26,1.35v1.62h-2.18v-1.62c0-.4-.15-.75-.44-1.05-.29-.3-.64-.45-1.04-.45s-.77.15-1.06.45c-.29.3-.44.65-.44,1.05v8.34c0,.42.15.77.44,1.06s.64.44,1.06.44.75-.15,1.04-.44.44-.64.44-1.06v-1.6h2.18v1.6c0,.98-.35,1.82-1.04,2.51-.32.32-.71.57-1.18.75-.47.18-.95.27-1.43.27Z"/>
    <path d="M265.79,333.77v-14.81h6.04v1.89h-3.86v4.58h3.26v1.89h-3.26v4.56h3.86v1.89h-6.04Z"/>
  </g>
  <g>
    <path d="M421.56,333.77v-2.18h1.47v-9.11l-.37.5-1.62-1.2,2.07-2.82h2.1v12.63h1.49v2.18h-5.15Z"/>
    <path d="M431.97,334.06c-.48,0-.94-.09-1.38-.27s-.83-.44-1.17-.77c-.71-.71-1.06-1.56-1.06-2.55v-1.29h2.18v1.29c0,.4.14.74.41,1.01.28.27.62.4,1.02.4s.74-.13,1.01-.4.4-.6.4-1.01v-2.22c-.46.19-.93.29-1.41.29s-.94-.09-1.38-.28-.83-.45-1.17-.78c-.35-.35-.61-.74-.79-1.17-.18-.44-.27-.9-.27-1.38v-2.66c0-1,.35-1.85,1.06-2.55.35-.33.74-.59,1.17-.78s.9-.28,1.38-.28.94.09,1.37.28c.43.19.82.45,1.16.78.71.71,1.06,1.56,1.06,2.55v8.19c0,1-.35,1.85-1.06,2.55-.35.33-.73.59-1.16.77-.43.18-.89.27-1.37.27ZM431.97,320.85c-.4,0-.74.14-1.02.41s-.41.62-.41,1.02v2.66c0,.4.14.74.41,1.02.28.28.62.41,1.02.41s.74-.14,1.01-.41c.27-.28.4-.62.4-1.02v-2.66c0-.4-.13-.74-.4-1.02-.27-.28-.61-.41-1.01-.41Z"/>
    <path d="M441.04,334.06c-.48,0-.94-.09-1.37-.27s-.82-.44-1.16-.77c-.71-.71-1.06-1.56-1.06-2.55v-1.29h2.18v1.29c0,.4.13.74.4,1.01s.6.4,1.01.4.74-.13,1.01-.4.4-.6.4-1.01v-3.53c0-.4-.13-.74-.4-1.02-.27-.28-.61-.41-1.01-.41s-.74.14-1.01.41c-.27.28-.4.62-.4,1.02v.39h-2.2l.66-8.38h6.31v2.18h-4.29l-.19,2.39c.35-.12.72-.19,1.12-.19.48,0,.94.09,1.38.27.44.18.83.44,1.17.79.69.69,1.04,1.54,1.04,2.55v3.53c0,1.01-.35,1.86-1.04,2.55-.35.33-.74.59-1.17.77s-.9.27-1.38.27Z"/>
    <path d="M450.11,334.06c-.48,0-.94-.09-1.37-.27s-.82-.44-1.16-.77c-.71-.71-1.06-1.56-1.06-2.55v-1.29h2.18v1.29c0,.4.13.74.4,1.01s.6.4,1.01.4.74-.13,1.01-.4.4-.6.4-1.01v-3.53c0-.4-.13-.74-.4-1.02-.27-.28-.61-.41-1.01-.41s-.74.14-1.01.41c-.27.28-.4.62-.4,1.02v.39h-2.2l.66-8.38h6.31v2.18h-4.29l-.19,2.39c.35-.12.72-.19,1.12-.19.48,0,.94.09,1.38.27.44.18.83.44,1.17.79.69.69,1.04,1.54,1.04,2.55v3.53c0,1.01-.35,1.86-1.04,2.55-.35.33-.74.59-1.17.77s-.9.27-1.38.27Z"/>
  </g>
  <polygon points="295.74 351.31 206.47 351.31 206.47 349.67 294.1 349.67 295.74 351.31"/>
  <polygon points="483.13 351.31 393.86 351.31 395.5 349.67 483.13 349.67 483.13 351.31"/>
</svg>