<?xml version="1.0" encoding="UTF-8"?>
<svg id="Layer_1" xmlns="http://www.w3.org/2000/svg" version="1.1" viewBox="0 0 284.22 185.49">
  <!-- Generator: Adobe Illustrator 30.1.0, SVG Export Plug-In . SVG Version: 2.1.1 Build 136)  -->
  <defs>
    <style>
      .st0 {
        fill: #231f20;
      }

      .st1 {
        stroke-width: .3px;
      }

      .st1, .st2 {
        fill: none;
        stroke: #231f20;
      }

      .st1, .st2, .st3 {
        stroke-miterlimit: 10;
      }

      .st2 {
        stroke-width: .21px;
      }

      .st3 {
        fill: #fff;
        stroke: #fff;
        stroke-width: .15px;
      }
    </style>
  </defs>
  <g>
    <path class="st1" d="M142.12,64.8s-11.2,19.73,0,19.73,0-19.73,0-19.73Z"/>
    <path class="st0" d="M132.26,67.19c1.64,1.07,1.77,5.64,1.94,10.41.03.76.12,1.53.32,2.27.98,3.63,3.5,5.13,7.41,4.72-3.28-3.69-2.05-10.91,1.83-16.63l-.35-.72c-2.33,3.42-4.1,8.46-4.25,10.92-.18,1.91-.12,3.47.47,5.02-1.46-.06-2.66-1.07-3.26-2.84-.24-.71-.34-1.46-.34-2.2v-7.36c0-.77-.21-1.53-.68-2.14-.66-.85-1.68-1.32-3.08-1.45Z"/>
    <path class="st0" d="M148.73,68.89c-.36.55-.51,1.22-.51,1.87v7.39c0,.79-.13,1.57-.38,2.32-.37,1.09-.67,2.15-1.92,2.97-.3.2-.65.32-1.01.34-.9.05-1.5-.27-1.86-.89-.29-.5-.33-1.1-.2-1.66.43-1.82,1.99-3.13,4.4-4.04-2.79.67-4.63,1.94-5.41,3.91-.5,1.87.19,2.99,1.25,3.4h0c.24.1.39.16.75.16,3.27,0,5.02-1.56,5.89-4.79.2-.74.29-1.5.32-2.27.17-4.76.3-9.33,1.94-10.4-1.52.14-2.6.68-3.25,1.69Z"/>
    <path class="st1" d="M129.81,74.78s.9.39,2.5,4.93c.33.95.79,1.85,1.42,2.63,2.32,2.9,4.82,2.3,4.82,2.3-2.01-.22-3.32-1.46-4.24-3.26-.39-.77-.65-1.61-.83-2.45-.75-3.54-2.04-4.64-3.67-4.16Z"/>
    <path class="st1" d="M154.44,74.78s-.9.39-2.5,4.93c-.33.95-.79,1.85-1.42,2.63-2.32,2.9-4.82,2.3-4.82,2.3,2.01-.22,3.32-1.46,4.24-3.26.39-.77.65-1.61.83-2.45.75-3.54,2.04-4.64,3.67-4.16Z"/>
    <path class="st2" d="M137.7,84.98c-1.74.12-3.08.58-3.92,1.5-1.42,1.55-2.5,1.77-3.52,1.78,1.58-1.53,3.21-2.96,5.29-3.27.69-.14,1.41-.12,2.14,0Z"/>
    <path class="st2" d="M146.54,84.98c1.74.12,3.08.58,3.92,1.5,1.42,1.55,2.5,1.77,3.52,1.78-1.58-1.53-3.21-2.96-5.29-3.27-.69-.14-1.41-.12-2.14,0Z"/>
    <path class="st1" d="M146.98,86.62c-.72-.94-2.25-1.47-4.76-1.47-2.51,0-4.04.53-4.76,1.47-.14.18-.17.41-.08.62.54,1.12,2.22,1.63,4.83,1.63,2.62,0,4.3-.51,4.83-1.63.1-.2.06-.43-.08-.62Z"/>
    <g>
      <path class="st0" d="M134.76,91.17h-.44c-.02-.38-.15-.62-.37-.62-.17,0-.3.14-.3.45s.12.48.46.62c.47.19.69.57.69,1.18,0,.71-.37,1.12-.8,1.12-.52,0-.85-.4-.89-1.19h.44c.05.42.23.63.45.63.2,0,.35-.19.35-.48,0-.32-.11-.5-.43-.64-.44-.19-.72-.45-.72-1.15s.36-1.11.77-1.11c.52,0,.75.51.8,1.19Z"/>
      <path class="st0" d="M135.23,93.84v-3.78h.43v3.78h-.43Z"/>
      <path class="st0" d="M137.52,93.84l-.89-2.87c.01.41.02.84.02,1.16v1.71h-.43v-3.78h.57l.91,2.92c-.01-.41-.02-.87-.02-1.19v-1.74h.43v3.78s-.59,0-.59,0Z"/>
      <path class="st0" d="M140.53,91.29v.05s-.43,0-.43,0v-.05c-.06-.47-.22-.74-.51-.74-.35,0-.58.52-.58,1.38,0,.94.25,1.42.57,1.42.28,0,.44-.3.5-.77v-.05h.43v.05c-.05.8-.4,1.33-.95,1.33-.6,0-1.01-.74-1.01-1.94s.45-1.99,1.04-1.99.89.56.93,1.3Z"/>
      <path class="st0" d="M142.55,93.84h-1.56v-3.78h1.52v.59h-1.09v1h1.02v.6h-1.02v1h1.12v.6Z"/>
      <path class="st0" d="M144.85,93.84h-.43v-2.98l-.63.61v-.71l.5-.52c.12-.11.23-.17.35-.17h.21v3.78Z"/>
      <path class="st0" d="M147.24,91.83c0,1.4-.37,2.09-.89,2.09-.44,0-.67-.22-.71-.88v-.05s.43,0,.43,0v.05c.05.34.13.31.31.31.25,0,.4-.38.42-1.31l-.11.34c-.12.16-.23.22-.38.22-.47,0-.71-.54-.71-1.24,0-.88.37-1.38.82-1.38.54,0,.83.56.83,1.85ZM146.78,91.29c0-.43-.14-.74-.36-.74s-.36.32-.36.72c0,.44.12.77.37.77.19,0,.36-.26.36-.75Z"/>
      <path class="st0" d="M149.27,91.83c0,1.4-.37,2.09-.89,2.09-.44,0-.67-.22-.71-.88v-.05s.43,0,.43,0v.05c.05.34.13.31.31.31.25,0,.4-.38.42-1.31l-.11.34c-.12.16-.23.22-.38.22-.47,0-.71-.54-.71-1.24,0-.88.37-1.38.82-1.38.54,0,.83.56.83,1.85ZM148.81,91.29c0-.43-.14-.74-.36-.74s-.36.32-.36.72c0,.44.12.77.37.77.19,0,.36-.26.36-.75Z"/>
      <path class="st0" d="M151.09,92.95v.89h-.43v-.89h-1.04v-.41l1.01-2.48h.46v2.29h.27v.6h-.27ZM150.66,90.92c-.05.14-.09.27-.14.4l-.42,1.03h.57v-1.43Z"/>
    </g>
  </g>
  <rect class="st0" x="89.23" y="113.01" width="105.76" height="7.68"/>
  <g>
    <path class="st0" d="M100.85,98.55c-1.15.16-1.45.32-2.07,1.92-.46,1.17-2.84,7.12-3.68,9.32h-.57c-1.02-2.86-2.5-7.01-3.48-9.64-.48-1.31-.77-1.49-1.82-1.6v-.5h4.37v.5c-1.27.14-1.34.36-1.1,1.01.43,1.3,1.69,4.83,2.77,7.78.91-2.29,2.05-5.18,2.86-7.42.38-1.03.17-1.19-1.24-1.37v-.5h3.96v.5Z"/>
    <path class="st0" d="M108.37,107.43c-1.14-3.06-2.67-6.4-3.81-9.42h-.02l-4.03,9.38c-.63,1.59-.92,1.71-2.07,1.86v.49h4.19v-.49c-1.49-.18-1.74-.32-1.34-1.47.25-.72.88-2.43,1.17-3.23l3.4-.03c.38,1.11.9,3.05,1.14,3.74.25.67.11.85-1.07.99v.49h4.48v-.49c-1.29-.14-1.45-.28-2.03-1.82ZM102.73,103.92c.54-1.4.99-2.17,1.57-3.69l1.4,3.66-2.96.03Z"/>
    <path class="st0" d="M181.3,107.43c-1.14-3.06-2.67-6.4-3.81-9.42h-.02l-4.03,9.38c-.63,1.59-.92,1.71-2.07,1.86v.49h4.19v-.49c-1.49-.18-1.74-.32-1.34-1.47.25-.72.88-2.43,1.17-3.23l3.4-.03c.38,1.11.9,3.05,1.14,3.74.25.67.11.85-1.07.99v.49h4.48v-.49c-1.29-.14-1.45-.28-2.03-1.82ZM175.66,103.92c.54-1.4.99-2.17,1.57-3.69l1.4,3.66-2.96.03Z"/>
    <path class="st0" d="M116.36,98.01c2.41,0,3.93.51,4.98,1.57.84.87,1.45,2.13,1.45,3.86,0,2.11-.82,3.83-2.13,4.87-1.3,1.03-2.95,1.43-5.05,1.43h-3.99v-.51c1.47-.14,1.54-.27,1.54-1.75v-7.2c0-1.55-.2-1.62-1.54-1.77v-.51h4.75ZM114.64,107.34c0,1.35.55,1.73,1.83,1.73,3.07,0,4.64-2.22,4.64-5.38,0-1.97-.63-3.47-1.98-4.33-.79-.52-1.78-.72-2.92-.72-.77,0-1.18.11-1.35.25-.15.11-.22.31-.22,1.01v7.44Z"/>
    <path class="st0" d="M136.89,98.78c-1.21.12-1.6.3-1.66,1.1-.02.56-.06,1.29-.06,2.91v6.99h-.72l-8.06-9.12v4.36c0,1.57.06,2.35.09,2.86.04.89.51,1.15,1.87,1.26v.49h-4.58v-.49c1.17-.09,1.62-.35,1.7-1.2.06-.56.09-1.34.09-2.93v-4.45c0-.49-.04-.77-.38-1.15-.36-.44-.75-.54-1.68-.63v-.49h2.83l7.99,8.77v-4.27c0-1.62-.04-2.37-.09-2.9-.06-.78-.49-1.03-2-1.12v-.49h4.65v.49Z"/>
    <path class="st0" d="M147.23,106.93c-.11.47-.59,2.32-.77,2.86h-8.7v-.5c1.67-.13,1.79-.29,1.79-1.76v-7.11c0-1.6-.2-1.69-1.54-1.82v-.5h5.48c1.68,0,2.38-.02,2.6-.04.02.45.09,1.8.16,2.75l-.54.09c-.16-.61-.34-.99-.54-1.37-.29-.59-.7-.72-1.77-.72h-1.7c-.56,0-.59.05-.59.58v3.98h1.99c1.34,0,1.43-.27,1.65-1.49h.56v3.71h-.56c-.23-1.3-.38-1.48-1.67-1.48h-1.97v3.58c0,1.26.39,1.37,1.29,1.39h1.67c1.09,0,1.27-.16,1.67-.63.34-.38.72-1.12.97-1.66l.54.14Z"/>
    <path class="st0" d="M156.03,107.29c-.78-1.52-1.16-2.2-1.81-3.15-.03-.04-.01-.09.03-.11,1.2-.57,2.31-1.53,2.31-3.03,0-1.09-.45-1.89-1.13-2.35-.63-.45-1.45-.61-2.67-.61h-4.25v.5c1.32.16,1.5.21,1.5,1.73v7.11c0,1.51-.12,1.58-1.5,1.74v.5h4.45v-.5c-1.33-.14-1.52-.23-1.52-1.74v-3.16h1.16c.85,0,1.95,3.07,2.57,3.98,1.22,1.63,2.55,2.43,4.03,2.16v-.27c-1.38-.11-2.38-1.19-3.17-2.8ZM152.24,103.75h-.8v-4.17c0-.44.05-.61.2-.73.12-.1.4-.17.88-.17,1.28,0,2.47.66,2.47,2.49,0,.92-.27,1.6-.92,2.09-.42.36-.97.49-1.83.49Z"/>
    <path class="st0" d="M191.82,107.29c-.78-1.52-1.16-2.2-1.81-3.15-.03-.04-.01-.09.03-.11,1.2-.57,2.31-1.53,2.31-3.03,0-1.09-.45-1.89-1.13-2.35-.63-.45-1.45-.61-2.67-.61h-4.25v.5c1.32.16,1.5.21,1.5,1.73v7.11c0,1.51-.12,1.58-1.5,1.74v.5h4.45v-.5c-1.33-.14-1.52-.23-1.52-1.74v-3.16h1.16c.85,0,1.95,3.07,2.57,3.98,1.22,1.63,2.55,2.43,4.03,2.16v-.27c-1.38-.11-2.38-1.19-3.17-2.8ZM188.03,103.75h-.8v-4.17c0-.44.05-.61.2-.73.12-.1.4-.17.88-.17,1.28,0,2.47.66,2.47,2.49,0,.92-.27,1.6-.92,2.09-.42.36-.97.49-1.83.49Z"/>
    <path class="st0" d="M168.79,108.02c-.92-.99-2.89-3.3-4.24-4.93,1.14-1.14,2.52-2.51,3.05-3.03,1.19-1.25,1.65-1.34,2.98-1.5v-.51h-4.31v.51l.5.05c.76.11.82.34.28.96-.82.94-2.01,2.17-3,3.12-.52.51-.92.79-1.28.83v-3.11c0-1.61.25-1.73,1.63-1.86v-.51h-4.74v.51c1.47.11,1.6.23,1.6,1.86v7.04c0,1.57-.14,1.7-1.6,1.82v.51h4.74v-.51c-1.47-.13-1.63-.25-1.63-1.82v-3.43c.28-.02.59.02.99.52,1.42,1.68,2.69,3.22,3.91,4.64-.46.06-1,.08-1.58.06v.54s2.09,0,2.09,0h2.84v-.51c-1.1-.13-1.33-.27-2.24-1.26Z"/>
  </g>
  <g>
    <path class="st3" d="M105.71,115.36c0-.59-.02-.77-.57-.77v-.23h1.65v.23c-.49,0-.54.18-.54.77v2.8c0,.99-.4,1.23-.96,1.23-.38,0-.7-.19-.7-.59,0-.23.09-.37.26-.37.35,0,.32.7.59.7.23,0,.27-.23.27-.75v-3.02Z"/>
    <path class="st3" d="M110.98,119.31h-3.58v-.23c.54,0,.65-.08.65-.66v-3.13c0-.57-.11-.69-.65-.69v-.23h3.52l.04,1.23h-.21c-.1-.75-.27-.89-1.09-.89h-.99v1.91h.79c.62,0,.85-.14.85-.75h.21v1.74h-.21c0-.62-.24-.7-.85-.7h-.79v2.06h.87c1.04,0,1.16-.17,1.42-1.07h.21l-.19,1.4Z"/>
    <path class="st3" d="M122.37,119.31h-3.58v-.23c.54,0,.65-.08.65-.66v-3.13c0-.57-.11-.69-.65-.69v-.23h3.52l.04,1.23h-.21c-.1-.75-.27-.89-1.09-.89h-.99v1.91h.79c.62,0,.85-.14.85-.75h.21v1.74h-.21c0-.62-.24-.7-.85-.7h-.79v2.06h.87c1.04,0,1.16-.17,1.42-1.07h.21l-.19,1.4Z"/>
    <path class="st3" d="M135.74,119.31h-3.58v-.23c.54,0,.65-.08.65-.66v-3.13c0-.57-.11-.69-.65-.69v-.23h3.52l.04,1.23h-.21c-.1-.75-.27-.89-1.09-.89h-.99v1.91h.79c.62,0,.85-.14.85-.75h.21v1.74h-.21c0-.62-.24-.7-.85-.7h-.79v2.06h.87c1.04,0,1.16-.17,1.42-1.07h.21l-.19,1.4Z"/>
    <path class="st3" d="M118.23,114.6c-.32,0-.45.14-.57.52l-1.3,4.23h-.18l-1.01-2.98h-.03l-1.02,2.98h-.17l-1.4-3.93c-.21-.63-.39-.8-.74-.82v-.23h1.74v.23c-.34,0-.44.09-.44.25,0,.09.03.22.09.41l.78,2.19.21.63h.03l.76-2.19-.19-.58c-.22-.65-.32-.71-.71-.71v-.23h1.76v.23c-.34,0-.51.09-.51.26,0,.12.07.3.11.44l.7,2.03.22.74h.03l.77-2.49c.07-.24.12-.47.12-.65,0-.23-.14-.32-.45-.32v-.23h1.39v.23Z"/>
    <path class="st3" d="M126.84,119.31h-3.63v-.23c.59,0,.67-.11.67-.7v-3.06c0-.58-.08-.73-.67-.73v-.23h2.06v.23c-.59,0-.72.15-.72.74v3.26c0,.33.12.4.56.4h.34c.98,0,1.1-.28,1.38-1.15h.23l-.22,1.46Z"/>
    <path class="st3" d="M131.26,119.31h-3.63v-.23c.59,0,.67-.11.67-.7v-3.06c0-.58-.08-.73-.67-.73v-.23h2.06v.23c-.59,0-.72.15-.72.74v3.26c0,.33.12.4.56.4h.34c.98,0,1.1-.28,1.38-1.15h.23l-.22,1.46Z"/>
    <path class="st3" d="M168.48,119.31h-3.63v-.23c.59,0,.67-.11.67-.7v-3.06c0-.58-.08-.73-.67-.73v-.23h2.06v.23c-.59,0-.72.15-.72.74v3.26c0,.33.12.4.56.4h.34c.98,0,1.1-.28,1.38-1.15h.23l-.22,1.46Z"/>
    <path class="st3" d="M139.05,116.92v.03c.25.15.53.57,1.33,1.75.23.33.41.38.75.38v.23h-1.2c-.79-1.24-1-1.56-1.3-2.01-.15-.23-.23-.25-.49-.25h-.2v1.33c0,.62.09.71.72.71v.23h-2.04v-.23c.55,0,.65-.08.65-.71v-3.22c0-.41-.07-.56-.65-.56v-.23h1.79c1.09,0,1.88.28,1.88,1.23,0,.84-.64,1.17-1.23,1.31ZM137.93,116.75h.28c.8-.03,1.33-.32,1.33-1.12,0-.6-.34-.97-1.13-.97-.16,0-.33,0-.48.02v2.06Z"/>
    <path class="st3" d="M144.41,115.8c-.2-.83-.48-1.22-1.21-1.22-.49,0-.77.24-.77.71,0,.56.52.83,1.06,1.16.64.38,1.36.71,1.36,1.61s-.63,1.34-1.47,1.34c-.75,0-1.03-.23-1.2-.23-.1,0-.19.1-.2.25h-.22l-.07-1.62h.22c.25,1.04.62,1.28,1.36,1.27.54,0,.88-.23.88-.8,0-.66-.61-.92-1.2-1.28-.58-.35-1.16-.71-1.16-1.49s.62-1.21,1.37-1.22c.66,0,.82.23.99.23.12,0,.19-.06.22-.22h.19l.05,1.5h-.22Z"/>
    <path class="st3" d="M149.17,114.37c.9,0,1.73.25,1.73,1.25,0,1.17-.92,1.54-1.83,1.54-.14,0-.32-.02-.4-.06v1.28c0,.62.14.7.71.7v.23h-1.97v-.23c.55,0,.62-.1.62-.73v-3.23c0-.44-.15-.53-.59-.53v-.23h1.74ZM148.66,116.82c.08.02.24.03.38.03.76,0,1.16-.26,1.16-1.13,0-.68-.36-1.06-1.12-1.06-.14,0-.27.02-.42.03v2.12Z"/>
    <path class="st3" d="M155.27,115.22c.04-.11.08-.23.08-.37,0-.2-.14-.26-.48-.26v-.23h1.5v.23c-.4,0-.49.13-.83.98l-1.47,3.77h-.28l-1.63-4.06c-.21-.5-.36-.68-.75-.68v-.23h1.91v.23c-.19,0-.48,0-.48.29,0,.1.04.24.12.46l.86,2.23.28.79h.04l.25-.75.9-2.39Z"/>
    <path class="st3" d="M160.61,115.72c-.16-.82-.25-1.01-1.07-1.01h-.47v3.61c0,.68.1.76.73.76v.23h-2.15v-.23c.62,0,.73-.08.73-.76v-3.61h-.47c-.81,0-.92.2-1.07,1.01h-.23l.08-1.35h4.09l.06,1.35h-.23Z"/>
    <path class="st3" d="M173.27,115.72c-.16-.82-.25-1.01-1.07-1.01h-.47v3.61c0,.68.1.76.73.76v.23h-2.15v-.23c.62,0,.73-.08.73-.76v-3.61h-.47c-.81,0-.92.2-1.07,1.01h-.23l.08-1.35h4.09l.06,1.35h-.23Z"/>
    <path class="st3" d="M175.75,114.37c1.56,0,2.78.61,2.78,2.44,0,1.73-1.08,2.49-2.7,2.49h-2.07v-.23c.66,0,.65-.1.65-.71v-3.15c0-.55-.09-.63-.65-.63v-.23h1.98ZM175.11,119c.15.02.29.02.44.02,1.37,0,2.19-.45,2.19-2.14,0-1.43-.71-2.2-2.26-2.2-.12,0-.23,0-.37.02v4.3Z"/>
    <circle class="st3" cx="161.88" cy="118.76" r=".64"/>
    <circle class="st3" cx="179.87" cy="118.76" r=".64"/>
  </g>
</svg>