<?xml version="1.0" encoding="UTF-8"?>
<svg id="Layer_1" xmlns="http://www.w3.org/2000/svg" version="1.1" viewBox="0 0 284.22 185.49">
  <!-- Generator: Adobe Illustrator 30.1.0, SVG Export Plug-In . SVG Version: 2.1.1 Build 136)  -->
  <defs>
    <style>
      .st0 {
        fill: #231f20;
      }
    </style>
  </defs>
  <g>
    <g>
      <path class="st0" d="M144.72,76.44c3.52-6.34-1.13-17.84-4.06-19.18-2.06,6.81-.38,12.29,4.06,19.18Z"/>
      <path class="st0" d="M154.74,66.23c-1.44.53-2.67,1.21-3.73,2-2.67,2.86-3.77,7.01-3.76,9.85,1.09-.25,2.19-.66,3.28-1.24,2.97-2.2,4.9-6.12,4.2-10.61Z"/>
      <path class="st0" d="M149.27,78.91c-.52.48-1.12,1.05-1.11,1.18,2.85,1.17,6.79,1.42,9.57.26.11-.05.22-.08.33-.1.67-.37,1.32-.8,1.97-1.28-2.4-2.01-7.32-1.96-10.77-.06Z"/>
      <path class="st0" d="M155.81,86.46l.05-.03c-.38-1.58-4.25-4.49-7.96-4.5,1.78,1.9,3.52,4.19,7.92,4.53Z"/>
    </g>
    <path class="st0" d="M113.31,67.6l.85-.94c12.51,5.82,21.66,15.99,24.91,27.97.01.05.08.04.09,0,.22-4.99,1.22-12.16,7.01-15.1,0,0,.02,0,.01.01-4.5,6.37-5.73,15.08-5.37,23.25l-1.2.31c-4.72-17.06-13.86-30.21-26.29-35.51Z"/>
    <g>
      <path class="st0" d="M76.93,105.3c-.08-.22-.01-.39.24-.49h2.92c.54,0,.65.28.29.49-.26.25-.38.56-.34.95l2.84,7.65c.03.07.12.07.15,0l2.89-7.66c.06-.38-.1-.69-.54-.9-.09-.18-.05-.35.1-.54h2.29c.69.13.98.29.34.54-.59.29-1.04.72-1.36,1.26l-3.65,9.91c-.28.16-.55.14-.83,0l-3.65-9.82c-.16-.63-.76-1.09-1.7-1.41"/>
      <path class="st0" d="M172.58,106.94c-.07-.19,0-.33.21-.42h2.52c.47,0,.56.24.25.42-.22.22-.33.48-.29.81l2.46,6.55c.02.06.11.06.13,0l2.5-6.55c.05-.33-.09-.59-.46-.77-.08-.15-.04-.3.08-.46h1.98c.6.11.85.25.3.46-.51.25-.9.61-1.18,1.08l-3.15,8.48c-.24.13-.48.12-.71,0l-3.15-8.4c-.14-.54-.66-.94-1.47-1.21"/>
      <path class="st0" d="M94.86,106.53c-2.83,0-5.12,2.29-5.12,5.12s2.29,5.12,5.12,5.12,5.12-2.29,5.12-5.12-2.29-5.12-5.12-5.12M94.86,116.03c-2.17,0-3.92-1.96-3.92-4.38s1.76-4.38,3.92-4.38,3.92,1.96,3.92,4.38-1.76,4.38-3.92,4.38"/>
      <path class="st0" d="M133.55,106.53c-2.83,0-5.12,2.29-5.12,5.12s2.29,5.12,5.12,5.12,5.12-2.29,5.12-5.12-2.29-5.12-5.12-5.12M133.55,116.03c-2.17,0-3.92-1.96-3.92-4.38s1.76-4.38,3.92-4.38,3.92,1.96,3.92,4.38-1.76,4.38-3.92,4.38"/>
      <path class="st0" d="M102.11,107.56c-.14-.19-.36-.37-.7-.53-.28-.21-.21-.37.13-.51l2.24.06c.43.07.51.2.31.37-.35.2-.6.4-.77.61v8.32s.77.41.77.41c.13.14.15.28,0,.4h-2.79c-.09-.11-.09-.22,0-.32.26-.14.54-.3.83-.5l-.03-8.31Z"/>
      <path class="st0" d="M162.53,107.56c-.14-.19-.36-.37-.7-.53-.27-.21-.21-.37.13-.51l2.24.06c.43.07.51.2.31.37-.35.2-.6.4-.77.61v8.32s.77.41.77.41c.13.14.15.28,0,.4h-2.79c-.09-.11-.09-.22,0-.32.26-.14.54-.3.82-.5l-.03-8.31Z"/>
      <path class="st0" d="M113.72,107.02v2.71h-.34c-1.72-3.68-6.64-2.54-6.75,1.91-.09,3.95,3.42,5.49,6.35,3.23.43.05.66.2.45.57-3.12,2.48-7.48,1.1-7.88-3.69.08-4,3.47-6.31,7.09-4.5.29-.01.52-.08.67-.24.15-.26.28-.25.4,0"/>
      <path class="st0" d="M115.96,107.58v8.12l-.84.67c-.04.15.01.26.17.32h6.6c.15-.02.29-.12.4-.27v-1.37c-.11-.08-.23-.09-.35,0-.16.37-.36.68-.62.89h-4.05c-.1-.01-.15-.07-.16-.15v-4.83c0-.11.04-.17.13-.19h2.61c.26.25.47.53.61.83.11.06.22.06.34,0v-2.36c-.14-.13-.26-.11-.39,0-.13.32-.32.57-.54.8l-2.8-.04v-2.44c.04-.11.13-.18.26-.22h3.42c.27.17.49.45.66.86.19.09.29.09.3,0l-.04-1.39c-.07-.18-.16-.24-.27-.2h-6.13c-.2.06-.25.17-.14.34l.84.61Z"/>
      <path class="st0" d="M184.59,107.58v8.12l-.84.67c-.04.15.01.26.17.32h6.6c.15-.02.29-.12.4-.27v-1.37c-.11-.08-.23-.09-.35,0-.16.37-.36.68-.62.89h-4.05c-.1-.01-.16-.07-.16-.15v-4.83c0-.11.04-.17.14-.19h2.61c.26.25.47.53.61.83.11.06.22.06.34,0v-2.36c-.13-.13-.26-.11-.39,0-.13.32-.32.57-.54.8l-2.8-.04v-2.44c.04-.11.13-.18.26-.22h3.42c.27.17.49.45.66.86.19.09.28.09.3,0l-.04-1.39c-.07-.18-.16-.24-.27-.2h-6.13c-.21.06-.25.17-.14.34l.84.61Z"/>
      <path class="st0" d="M140.64,107.63v8.24c-.17.22-.38.39-.68.44-.12.16-.12.31,0,.44h2.55c.23-.11.25-.24,0-.41-.22-.12-.34-.19-.61-.5l-.06-4.96h2.78s.58.75.58.75c.17.07.27.05.33,0v-2.27c-.1-.13-.24-.14-.41,0l-.52.72-2.77.06-.02-2.4s.35-.29.44-.27c.06.01,3.28,0,3.28,0l.62.81h.27v-1.03c.03-.41-.08-.64-.33-.64h-6.13c-.12.15-.12.3,0,.45.29.08.51.27.68.56"/>
      <path class="st0" d="M157.48,111.11c-1.62-.89-2.69-1.14-2.69-2.13,0-.8.6-1.38,1.56-1.38s1.62.13,2.16.78c.28.35.59.68.77,1.32l.41-.02v-3.05s-.31,0-.31,0c-.06.32-.23.49-.49.49-.16,0-.77-.23-1.05-.35-.58-.23-1.14-.11-1.77-.11-1.53,0-2.69.96-2.69,2.54,0,.9.5,1.8,1.88,2.5.99.49,2.33,1.13,2.87,1.68.29.3.39.36.39.87,0,.96-.76,1.63-1.84,1.63-1.47,0-2.23-.55-2.94-2.31h-.34v3.09h.33c.18-.28.33-.49.49-.51.14-.02.42.11.64.24.24.13.5.2.77.22.47.03,1.16.08,1.36.08,1.79,0,3.15-1.09,3.15-2.71,0-1.1-1.04-1.94-2.67-2.84"/>
      <path class="st0" d="M172.89,115.02l-.34.77h-4.38v-8.23c.16-.2.41-.4.76-.61.2-.17.12-.3-.31-.37l-2.24-.06c-.34.14-.4.3-.13.51.34.16.55.34.7.53l.03,8.31c-.29.2-.56.37-.83.5-.09.1-.09.21,0,.32h6.82c.22.02.34-.08.39-.28v-1.01c.08-.36-.11-.46-.46-.39"/>
      <path class="st0" d="M200.51,116.28c-.59-.18-1.06-.49-1.39-.97l-1.66-3.31c-.15-.09-.16-.2,0-.34,2.96-.07,3.21-4.38,0-5.04h-5.26v.29c.46.19.84.44,1.08.77l-.02,7.77c-.1.43-.87.88-1.07,1.01-.02.14.03.23.17.23h2.86c.24-.11.1-.22-.22-.41-.33-.21-.5-.47-.69-.84v-3.52h1.7c1.02,2.2,2.03,4.69,3.13,4.77h1.35c.2-.05.17-.2,0-.42M194.3,111.09v-3.74h3.07c1.64.61,1.73,3.26,0,3.74h-3.07Z"/>
      <g>
        <path class="st0" d="M203.83,102.38c1.62,0,2.94,1.32,2.94,2.94s-1.32,2.94-2.94,2.94-2.94-1.32-2.94-2.94,1.32-2.94,2.94-2.94M203.83,101.82c-1.93,0-3.49,1.56-3.49,3.49s1.56,3.49,3.49,3.49,3.49-1.56,3.49-3.49-1.56-3.49-3.49-3.49"/>
        <path class="st0" d="M202.66,103.54c.25-.05.6-.08.93-.08.52,0,.86.09,1.09.31.19.17.3.43.3.72,0,.5-.31.83-.71.96v.02c.29.1.46.37.55.76.12.53.21.89.29,1.03h-.5c-.06-.11-.15-.43-.25-.9-.11-.52-.31-.71-.75-.73h-.46v1.63h-.49v-3.72ZM203.15,105.25h.5c.52,0,.85-.28.85-.72,0-.49-.35-.7-.87-.7-.23,0-.4.02-.48.04v1.37Z"/>
      </g>
    </g>
  </g>
  <g>
    <path class="st0" d="M114.12,122.97c.3-.06.85-.11,1.39-.11.71,0,1.14.09,1.5.33.33.19.54.54.54.98,0,.48-.3.92-.87,1.13v.02c.55.14,1.06.57,1.06,1.3,0,.47-.2.83-.51,1.08-.37.33-.99.49-1.94.49-.53,0-.93-.04-1.17-.07v-5.15ZM115.06,125.04h.49c.66,0,1.03-.31,1.03-.75,0-.49-.37-.71-.98-.71-.28,0-.44.02-.54.04v1.43ZM115.06,127.44c.12.02.29.02.51.02.61,0,1.16-.23,1.16-.88,0-.61-.53-.85-1.19-.85h-.47v1.71Z"/>
    <path class="st0" d="M120.39,126.65l-.45,1.48h-.99l1.68-5.24h1.22l1.7,5.24h-1.03l-.47-1.48h-1.66ZM121.89,125.93l-.41-1.29c-.1-.32-.19-.68-.26-.98h-.02c-.08.3-.16.67-.25.98l-.4,1.29h1.34Z"/>
    <path class="st0" d="M125.06,128.14v-5.24h1.09l1.35,2.25c.35.58.65,1.19.89,1.76h.02c-.06-.7-.09-1.38-.09-2.18v-1.83h.89v5.24h-.99l-1.37-2.3c-.33-.57-.68-1.22-.94-1.81h-.02c.04.68.05,1.38.05,2.24v1.87h-.88Z"/>
    <path class="st0" d="M135.29,127.9c-.33.12-.99.3-1.69.3-.89,0-1.55-.23-2.05-.7-.47-.44-.74-1.13-.73-1.93,0-1.66,1.18-2.72,2.91-2.72.64,0,1.15.13,1.39.25l-.21.77c-.29-.12-.64-.23-1.19-.23-1.12,0-1.9.66-1.9,1.88s.73,1.9,1.82,1.9c.34,0,.6-.05.72-.11v-1.31h-.92v-.75h1.85v2.65Z"/>
    <path class="st0" d="M138.09,126.65l-.45,1.48h-.99l1.68-5.24h1.22l1.7,5.24h-1.03l-.47-1.48h-1.66ZM139.59,125.93l-.41-1.29c-.1-.32-.19-.68-.26-.98h-.02c-.08.3-.16.67-.25.98l-.4,1.29h1.34Z"/>
    <path class="st0" d="M142.76,122.9h.96v4.44h2.15v.8h-3.11v-5.24Z"/>
    <path class="st0" d="M151.72,125.46c0,1.76-1.06,2.76-2.51,2.76s-2.41-1.13-2.41-2.67,1.01-2.74,2.49-2.74,2.43,1.16,2.43,2.65ZM147.81,125.54c0,1.06.54,1.91,1.45,1.91s1.45-.86,1.45-1.95c0-.99-.49-1.92-1.45-1.92s-1.45.88-1.45,1.96Z"/>
    <path class="st0" d="M153.32,122.97c.36-.06.89-.11,1.45-.11.75,0,1.27.12,1.62.42.29.24.45.61.45,1.05,0,.68-.46,1.13-.95,1.31v.02c.37.14.6.51.73,1.01.16.65.3,1.26.41,1.46h-.99c-.08-.16-.2-.58-.35-1.24-.15-.68-.4-.9-.94-.92h-.48v2.15h-.95v-5.17ZM154.26,125.28h.57c.64,0,1.05-.34,1.05-.86,0-.58-.4-.84-1.03-.84-.3,0-.5.02-.59.05v1.66Z"/>
    <path class="st0" d="M161.44,125.81h-1.97v1.54h2.21v.78h-3.16v-5.24h3.05v.78h-2.09v1.35h1.97v.78Z"/>
  </g>
</svg>